<?xml version="1.0" encoding="UTF-8"?>
<svg id="Layer_2" data-name="Layer 2" xmlns="http://www.w3.org/2000/svg" viewBox="0 0 240 270">
  <defs>
    <style>
      .cls-1 {
        fill: #f8b2b9;
      }

      .cls-2 {
        fill: #fbbdc4;
      }

      .cls-3 {
        fill: #c30506;
      }

      .cls-4 {
        fill: #02252c;
      }

      .cls-5 {
        fill: #290102;
      }

      .cls-6 {
        fill: #670102;
      }

      .cls-7 {
        fill: #30474c;
      }

      .cls-8 {
        fill: #437376;
      }

      .cls-9 {
        fill: #512c30;
      }

      .cls-10 {
        fill: #482c32;
      }

      .cls-11 {
        fill: #062931;
      }

      .cls-12 {
        fill: #f59da8;
      }

      .cls-13 {
        fill: #a40303;
      }

      .cls-14 {
        fill: #fb9ca5;
      }

      .cls-15 {
        fill: #392c30;
      }

      .cls-16 {
        fill: #495053;
      }

      .cls-17 {
        fill: #fae3dd;
      }

      .cls-18 {
        fill: #473d41;
      }

      .cls-19 {
        fill: #fce0e7;
      }

      .cls-20 {
        fill: #4a5658;
      }

      .cls-21 {
        fill: #324b50;
      }

      .cls-22 {
        fill: #f7ccc8;
      }

      .cls-23 {
        fill: #435356;
      }

      .cls-24 {
        fill: #fcd9d4;
      }

      .cls-25 {
        fill: #541721;
      }

      .cls-26 {
        fill: #fd2c3a;
      }

      .cls-27 {
        fill: #fc5c68;
      }

      .cls-28 {
        fill: #2c2d31;
      }

      .cls-29 {
        fill: #505d5f;
      }

      .cls-30 {
        fill: #1a252b;
      }

      .cls-31 {
        fill: #83111e;
      }

      .cls-32 {
        fill: #1a3339;
      }

      .cls-33 {
        fill: #031920;
      }

      .cls-34 {
        fill: #fc606e;
      }

      .cls-35 {
        fill: #12333a;
      }

      .cls-36 {
        fill: #2a131b;
      }

      .cls-37 {
        fill: #3f3f42;
      }

      .cls-38 {
        fill: #fd323e;
      }

      .cls-39 {
        fill: #699fa1;
      }

      .cls-40 {
        fill: #062d34;
      }

      .cls-41 {
        fill: #fbe0e7;
      }

      .cls-42 {
        fill: #200202;
      }

      .cls-43 {
        fill: #331b23;
      }

      .cls-44 {
        fill: #15282b;
      }

      .cls-45 {
        fill: #03161c;
      }

      .cls-46 {
        fill: #f8949f;
      }

      .cls-47 {
        fill: #402a2f;
      }

      .cls-48 {
        fill: #f91522;
      }

      .cls-49 {
        fill: #fc212e;
      }

      .cls-50 {
        fill: #170303;
      }

      .cls-51 {
        fill: #162228;
      }

      .cls-52 {
        fill: #4b8284;
      }

      .cls-53 {
        fill: #2a3338;
      }

      .cls-54 {
        fill: #fd4553;
      }

      .cls-55 {
        fill: #7b0202;
      }

      .cls-56 {
        fill: #621c25;
      }

      .cls-57 {
        fill: #254045;
      }

      .cls-58 {
        fill: #520202;
      }

      .cls-59 {
        fill: #f98e98;
      }

      .cls-60 {
        fill: #1c3b41;
      }

      .cls-61 {
        fill: #38585b;
      }

      .cls-62 {
        fill: #588086;
      }

      .cls-63 {
        fill: #fa919d;
      }

      .cls-64 {
        fill: #12151b;
      }

      .cls-65 {
        fill: #192a30;
      }

      .cls-66 {
        fill: #0a2f35;
      }

      .cls-67 {
        fill: #c30305;
      }

      .cls-68 {
        fill: #020d12;
      }

      .cls-69 {
        fill: #3b0102;
      }

      .cls-70 {
        fill: #b20303;
      }

      .cls-71 {
        fill: #03151c;
      }

      .cls-72 {
        fill: #4d0303;
      }

      .cls-73 {
        fill: #fbebe6;
      }

      .cls-74 {
        fill: #676e6f;
      }

      .cls-75 {
        fill: #f80f18;
      }

      .cls-76 {
        fill: #341819;
      }

      .cls-77 {
        fill: #545d61;
      }

      .cls-78 {
        fill: #3b4d51;
      }

      .cls-79 {
        fill: #303c41;
      }

      .cls-80 {
        fill: #2f2a2e;
      }

      .cls-81 {
        fill: #23262b;
      }

      .cls-82 {
        fill: #031219;
      }

      .cls-83 {
        fill: #4a3034;
      }

      .cls-84 {
        fill: #ac1424;
      }

      .cls-85 {
        fill: #fdfdfd;
      }

      .cls-86 {
        fill: #fc7280;
      }

      .cls-87 {
        fill: #fd232d;
      }

      .cls-88 {
        fill: #5a6365;
      }

      .cls-89 {
        fill: #8b0202;
      }

      .cls-90 {
        fill: #010508;
      }

      .cls-91 {
        fill: #fd4654;
      }

      .cls-92 {
        fill: #020609;
      }

      .cls-93 {
        fill: #444749;
      }

      .cls-94 {
        fill: #dc1726;
      }

      .cls-95 {
        fill: #fd7e8a;
      }

      .cls-96 {
        fill: #7aa0a2;
      }

      .cls-97 {
        fill: #211e25;
      }

      .cls-98 {
        fill: #fdfbfa;
      }

      .cls-99 {
        fill: #a21222;
      }

      .cls-100 {
        fill: #3a3235;
      }

      .cls-101 {
        fill: #032930;
      }

      .cls-102 {
        fill: #443437;
      }

      .cls-103 {
        fill: #213f45;
      }

      .cls-104 {
        fill: #25181f;
      }

      .cls-105 {
        fill: #0f3136;
      }

      .cls-106 {
        fill: #3b5f62;
      }

      .cls-107 {
        fill: #090507;
      }

      .cls-108 {
        fill: #0f2026;
      }

      .cls-109 {
        fill: #33484d;
      }

      .cls-110 {
        fill: #192f36;
      }

      .cls-111 {
        fill: #020a0d;
      }

      .cls-112 {
        fill: #5c0304;
      }

      .cls-113 {
        fill: #051f25;
      }

      .cls-114 {
        fill: #de050a;
      }

      .cls-115 {
        fill: #273036;
      }

      .cls-116 {
        fill: #650202;
      }

      .cls-117 {
        fill: #4d0102;
      }

      .cls-118 {
        fill: #4a7173;
      }

      .cls-119 {
        fill: #f9c0c7;
      }

      .cls-120 {
        fill: #052227;
      }

      .cls-121 {
        fill: #5d6668;
      }

      .cls-122 {
        fill: #0f3138;
      }

      .cls-123 {
        fill: #484e51;
      }

      .cls-124 {
        fill: #45121c;
      }

      .cls-125 {
        fill: #13363d;
      }

      .cls-126 {
        fill: #555e60;
      }

      .cls-127 {
        fill: #f9969f;
      }

      .cls-128 {
        fill: #fce3e8;
      }

      .cls-129 {
        fill: #112e35;
      }

      .cls-130 {
        fill: #fc727e;
      }

      .cls-131 {
        fill: #680f1b;
      }

      .cls-132 {
        fill: #2a3a3f;
      }

      .cls-133 {
        fill: #04151c;
      }

      .cls-134 {
        fill: #f87b89;
      }

      .cls-135 {
        fill: #820202;
      }

      .cls-136 {
        fill: #191719;
      }

      .cls-137 {
        fill: #fadee5;
      }

      .cls-138 {
        fill: #324348;
      }

      .cls-139 {
        fill: #990203;
      }

      .cls-140 {
        fill: #d30408;
      }

      .cls-141 {
        fill: #4a090b;
      }

      .cls-142 {
        fill: #435457;
      }

      .cls-143 {
        fill: #fd5e6d;
      }

      .cls-144 {
        fill: #542c32;
      }

      .cls-145 {
        fill: #081c22;
      }

      .cls-146 {
        fill: #0e1f25;
      }

      .cls-147 {
        fill: #344a4e;
      }

      .cls-148 {
        fill: #6a101c;
      }
    </style>
  </defs>
  <g id="Layer_2-2" data-name="Layer 2">
    <g>
      <path class="cls-33" d="M239.41,269.95c-79.09,0-158.18,0-237.26,.05-1.75,0-2.16-.44-2.15-2.42,.08-15.87,.05-31.73,.05-47.6,1.44-1.12,2.33-.39,3.31,.96,2.95,4.06,5.44,8.73,10.24,10.54,.29,.11,.59,.27,.81,.51,4.5,4.77,10.38,5.82,16.03,7.43,2.23,.63,4.48-.28,6.74-.26,3.1,.02,6.29,.02,9.29-.45,6.89-1.08,13.68-2.87,20.41-5.02,12.93-4.14,25.65-9.19,38.96-11.73,6.04-1.15,11.99-2.97,18.16-3.21,1.09-.04,1.44-.81,1.9-1.59,1.03-.59,1.98-.08,2.93,.28,1.48,.56,2.91,1.22,4.5,1.36,.67,.06,1.52,.21,1.49,1.27-.02,.94-.77,1.3-1.45,1.47-1.52,.39-3.06,.65-4.62,.77-8.58,.66-16.65,3.54-24.54,7.15-2.78,1.28-4.75,3.93-7.09,5.92-1.19,1.01-.35,2.47,.3,3.52,2.71,4.37,6.37,7.24,10.94,8.73,8.38,2.73,16.87,3.73,25.58,2.73,4.65-.54,9.34-.07,14.01-.06,6.97,.02,13.77-1.46,20.64-2.42,.84-.12,1.86-.22,2.24-1.18,1.01-2.53,2.99-2.9,5.04-3.03,1.99-.12,2.77-1.15,2.56-3.35-.11-1.13-.02-2.28-.02-3.42-.02-4-1.5-6.8-4.93-8.35-5.51-2.49-11.17-4.31-16.97-5.69-1.22-.29-2.49-.36-3.61-1.03-1.16-.7-1.62-1.88-1.44-3.31,.15-1.24,.62-2.2,2-1.87,1.1,1.14,2.53,1.43,3.89,1.46,7.14,.16,13.95,2.51,20.93,3.72,8.98,1.56,17.64,4.91,26.7,6.02,4.18,.51,8.01,2.7,12.12,3.7,1.29,.31,2.54,.82,3.88,.79,1.65-.04,3.19,.26,4.74,1.05,1.76,.9,3.6,.82,5.33-.46,1.94-1.43,4.23-1.66,6.44-2.03,.8-.13,1.76-.13,2.14,1.06,.01,11.81,0,23.61,0,35.42,0,.86,.2,1.75-.22,2.57Z"/>
      <path class="cls-4" d="M125.81,217.36c1.58,1.82-.04,2.09-.97,2.03-4.27-.27-8.24,1.45-12.36,2.08-6.44,.99-12.8,2.34-19.04,4.42-6.37,2.12-12.75,4.25-19.13,6.24-5.71,1.78-11.36,3.92-17.18,5.34-2.38,.58-4.85,.34-7.05,1.06-5.85,1.91-11.87,.73-17.75,1.83-2.84,.53-5.84-.6-8.49-2.07-1.26-.7-2.48-1.26-3.84-1.67-2.07-.63-4.24-.96-5.59-3.61-.7-1.36-2.82-1.84-4.33-2.63-.78-.4-1.71-.61-2-1.61-.99-3.4-4.7-4.39-5.51-8.03-.26-1.19-1.63-.63-2.52-.74V126.36c.78-1.47,.82-3.18,1.03-4.78,.31-2.44,1.11-4.61,2.47-6.42,2.37-3.16,3.39-6.84,3.76-10.81,.18-1.92,.82-3.47,1.94-4.92,2.39-3.07,3.48-6.96,5-10.57,.33-.78,.34-1.77,.86-2.42,2.11-2.62,3.07-5.98,4.6-8.84,1.55-2.9,3.65-5.78,5.67-8.49,1.48-1.98,3.11-4.11,5.22-5.49,.58,.21,.72,.75,.76,1.35-.3,1.92-.94,3.76-1.89,5.33-4.26,7.09-6.56,15.25-9.91,22.83-2.13,4.81-3.75,9.92-4.84,15.19-.09,.43-.21,.85-.42,1.22-4.78,8.45-6.05,18.16-8.1,27.64-1.04,4.83-1.71,9.77-3,14.53-.44,1.62-.62,3.24-.61,4.92,.02,4.91,.08,9.81-.02,14.72-.07,4.02,.77,7.74,2.07,11.47,1.22,3.49,1.99,7.18,2.16,10.97,.04,.87-.15,1.85,.21,2.6,1.2,2.47,2.36,4.89,1.43,7.86-.15,.48,.21,1.03,.6,1.35,1.11,.91,1.84,2.11,2.31,3.55,.11,.32-.12,.1,.11,.21,2.75,1.21,3.26,4.95,5.78,6.39,.51,.29,.96,.72,1.03,1.35,.26,2.34,1.79,2.95,3.47,3.67,1.66,.71,3.2,1.78,4.85,2.58,1.73,.83,3.49,1.62,5.38,1.6,2.44-.02,4.8,.37,7.15,1.04,2.26,.65,4.52,1.16,6.89,.37,1.55-.51,3.04,.62,4.59,.67,5.92,.22,11.8-.16,17.66-1.16,4.06-.7,8.23-.51,12.28-1.35,5.57-1.16,11.16-2.16,16.76-3.06,6.45-1.04,12.87-2.34,19.33-3.34,2.68-.41,5.46,.05,8.06-1.11,.41-.07,.8,0,1.11,.34Z"/>
      <path class="cls-71" d="M.05,97.43v-25.25c4.19-5.89,6.14-13.15,9.39-19.62,.19-.38,.35-.79,.62-1.1,3.88-4.47,6.04-10.15,8.81-15.43,1.95-3.71,3.48-7.79,6.16-11.01,1.21-1.44,1.51-3.43,2.31-5.12,.29-.61,.32-1.53,.87-1.82,2.09-1.11,3.39-3.07,4.9-4.92,.94-1.15,2.12-2.1,2.57-3.61,.94-3.18,3.46-5.33,4.28-8.56,.12-.47,.52-.61,.94-.61,6.26,0,12.51,0,18.75,0,1.6,1.08,2.03,3.76,.4,5.12-4.03,3.35-6.84,8.04-10.72,11.61-3.18,2.92-6.54,6.1-8.41,10.55-.27,.64-.72,1.14-1.16,1.64-3.31,3.73-5.78,8.11-8.28,12.54-1.71,3.03-3.6,6.07-5.74,8.81-1.04,1.33-1.89,2.66-2.58,4.26-.9,2.09-1.74,4.32-3.58,5.73-.65,.5-.92,1.39-1.22,2.2-2.15,5.81-4.95,11.22-7.98,16.5-.34,.6-.59,1.22-.72,1.92-.64,3.49-2.17,6.38-4.38,8.95-1.3,1.51-1.69,3.69-2.31,5.65-.51,1.61-1.22,2.72-2.9,1.56Z"/>
      <path class="cls-113" d="M.05,97.43c1.47,.15,1.93-.53,2.49-2.2,.75-2.23,1.03-4.73,3.19-6.56,1.57-1.32,2.71-4.04,3.17-6.6,.15-.85-.03-1.86,.52-2.5,2.92-3.44,3.75-8.31,6.46-11.9,.61-.8,.91-2.03,1.07-3.11,.58-3.76,4.01-5.38,5.05-8.83,1.36-4.54,4.55-7.9,6.98-11.6,3.56-5.41,6.07-11.82,10.98-16.07,.27-3.02,3.39-3.83,4.02-6.56,.17-.75,.75-.77,1.22-1.05,.54-.33,1.35-.62,1.51-1.13,1.1-3.51,4.68-4.02,6.34-6.86,1.67-2.86,3.99-5.08,6.42-7.11,1.54-1.28,.61-3.07,.88-4.61,2.74-.76,5.52-.14,8.27-.35,1.75,.6,.72,1.59,.15,2.26-3.31,3.85-6.4,7.95-9.77,11.74-2.92,3.28-5.96,6.41-9.19,9.3-.36,.33-.9,.65-.96,1.11-.55,4.34-3.49,7.04-5.5,10.39-.57,.94-.99,2.08-1.75,2.76-2.28,2.05-3.57,4.7-4.4,7.78-.77,2.89-2.61,5.15-4.06,7.6-1.1,1.87-1.67,3.65-1.63,5.83,.03,1.61,.34,3.39-1.07,4.61-.44,1.36-1.37,2.3-2.23,3.32-1.63,1.93-4.15,3.01-4.16,6.48,0,1.14-1.52,2.1-2.69,2.69-1.09,.54-1.74,1.4-1.68,2.84,.05,1.17-.18,2.48-.83,3.21-2.51,2.85-3.76,6.44-5.23,9.98-1.38,3.35-2.67,6.85-5.18,9.47-.25,.26-.38,.79-.39,1.21-.17,5.01-1.47,9.52-4.46,13.33-1.69,2.16-1.6,5-2.3,7.55-.23,.86,.12,2.29-1.24,2.5v-28.93Z"/>
      <path class="cls-68" d="M40.25,.74c.2,1.97-.36,3.3-1.88,4.63-1.44,1.26-1.55,3.79-2.61,5.59-.56,.95-1.13,1.66-1.88,2.43-1.82,1.86-3.03,4.4-5.55,5.48-.53,.23-.6,1.86-.95,2.83-1.23,3.38-3.81,5.81-5.09,9.07-1.49,3.79-3.3,7.58-5.32,10.76-2.1,3.31-2.68,7.83-6.24,10.2-1.45,.97-1.7,3.71-2.72,5.54-1.61,2.91-2.47,6.23-3.61,9.39-.76,2.11-2.72,3.67-4.15,5.47-.04,.05-.15,.03-.23,.04v-21.56c.95-3.12,1.87-6.26,3.13-9.25,.51-1.2,.99-2.37,2.07-3.08,.7-.46,1.11-1.2,1.4-2.04,.25-.73,.43-1.6,.98-2.07,1.96-1.67,2.83-3.79,2.64-6.56-.07-.99,.41-1.98,1.2-2.41,1.93-1.07,2.54-2.98,2.8-5.12,.22-1.77,1.21-2.79,2.2-4.07,2.48-3.22,5.62-6.04,5.93-10.86,.14-2.14,.99-4.03,3.06-4.77,4.19,0,8.37-.02,12.56,.02,.74,0,1.55-.32,2.23,.33Z"/>
      <path class="cls-92" d="M24.82,.74c-2.23,2.69-1.55,6.61-3.2,9.58-.5,.9-.77,1.9-1.72,2.31-.9,.39-1.24,1.27-1.54,2.18-.16,.48-.25,1.34-.47,1.38-3.03,.59-2.79,3.5-3.36,5.83-.37,1.51-.64,2.92-2.35,3.44-1.47,.45-1.5,2.07-1.37,3.52,.19,2.08-.15,3.77-2.02,4.79-.76,.41-1.16,1.33-1.4,2.32-.32,1.34-.68,2.72-2.2,3.05-.72,.16-.8,.94-1.03,1.6-1.02,2.81-2.47,5.43-2.87,8.52-.09,.68-.47,1.31-1.24,1.35V.65C1.88,.09,3.74,.44,5.59,.42c5.66-.06,11.33-.03,17,0,.75,0,1.56-.31,2.24,.33Z"/>
      <path class="cls-120" d="M24.82,.74c-8.26-.03-16.52-.06-24.78-.09C.47-.43,1.31,.16,1.92,.16c9.74-.05,19.48-.03,29.22-.03,68.88,0,137.76,0,206.64-.05,1.75,0,2.15,.44,2.15,2.42-.05,88.36-.04,176.73-.07,265.09,0,.77,.54,1.78-.44,2.37-.03-12.8-.05-25.59-.08-38.39-.65-.87-.7-1.92-.7-2.97,.02-7.94-.12-15.89,.07-23.83-.18-9.65-.09-19.3-.04-28.95-.05-13.84-.15-27.68,.04-41.52-.13-10.88-.17-21.75,0-32.63-.15-12.97-.12-25.94-.05-38.91-.06-10.76-.04-21.51-.04-32.27,0-1.14-.07-2.27,.08-3.4-.15-6.91-.04-13.83-.07-20.75-.02-4.79,0-4.78-4.16-4.8-4.44-.03-8.87,.11-13.31-.08-8.42,.15-16.84,.14-25.25,.01-.44-.04-.88-.04-1.32-.04-.58,.05-1.17,.01-1.75,.01-3.52,.15-7.04,.1-10.56,.01-6.04,.21-12.09,.06-18.13,.04-5.93,.12-11.87,.05-17.8,.01-13.53,.08-27.06,.09-40.6,.01-7.02,0-14.04,.11-21.06-.01-4.04-.02-8.08,.1-12.12,.03-1.16-.02-2.35,.12-3.35-.79-2.96,0-5.92,0-8.88,0-6.7,0-13.4,0-20.1,0-5.14,0-10.29,0-15.43,0Z"/>
      <path class="cls-90" d="M125.81,217.36c-.31,0-.62,0-.93-.01-.58-.05-1.03-.44-1.53-.71-.48-.3-.98-.58-1.51-.75-.28-.09-.54-.2-.8-.36-.58-.42-1.04-.99-1.53-1.52-.35-.39-.69-.79-1.05-1.17-.42-.47-.87-.92-1.37-1.29-.68-.51-1.26-1.15-1.85-1.79-.64-.76-1.33-1.47-1.95-2.24-.42-.58-.75-1.23-1.07-1.89-.5-1.21-.92-2.46-1.05-3.8-.09-2.76-.13-5.53-.9-8.2-.56-1.72-.91-3.51-1.19-5.32,.87-2.31,2.03-.58,2.72-.02,1.94,1.54,4,2.69,6.31,3.26,8.73,2.19,17.47,2.82,26.3,.56,4.62-1.19,9.22-2.38,13.6-4.5,2.81-1.36,5.4-3.04,7.84-5.09,.73-.61,1.7-2.12,2.54,0,.26,1.12,.12,2.31,.47,3.42,.62,3,.58,6.07,.88,9.1,.16,2.29-.19,4.47-1.24,6.47-1.05,1.73-2.36,3.28-2.9,5.36-.28,.79-.61,1.54-1.09,2.21-.48,.61-1.01,1.17-1.51,1.76-.59,.64-1.16,1.3-1.88,1.76-.71,.41-1.38,.89-2.03,1.42-.6,.41-1.17,.87-1.82,1.19-.75,.3-1.47,.67-2.18,1.08-.55,.27-1.08,.63-1.71,.55-1.44,.16-1.43,1.34-1.38,2.53,.05,1.21,.63,2.07,1.68,2.16,5.55,.46,10.63,3.05,15.98,4.43,2.36,.61,4.62,2.04,6.71,3.49,1.81,1.24,2.52,3.55,2.68,5.86,.16,2.44,.02,4.9,.05,7.36,.01,1.13-.47,1.5-1.42,1.56-1.39,.09-2.76,.36-4.15,.51-.69,.07-1.32,.39-1.43,1.12-.41,2.86-2.52,2.74-4.25,3.04-7.65,1.3-15.34,2.25-23.08,2.45-1,.03-2-.31-3-.28-3.41,.1-6.81-.1-10.23,.42-5.89,.89-11.83-.22-17.6-1.22-4.7-.82-9.68-2.42-13.38-6.04-1.95-1.91-4.26-4.19-4.82-7.56-.13-.77-.27-1.68,.37-1.81,2.27-.47,3.17-2.87,4.89-4.11,5.06-3.65,10.79-5.13,16.42-7.03,4.87-1.64,9.87-1.96,14.85-2.64,.83-.11,1.7-.02,2.33-1.46-3.28,.37-5.81-1.9-8.79-2.23Z"/>
      <path class="cls-101" d="M153.38,216.82c.47-.34,.94-.69,1.41-1.03,.83,.54,1.73,.78,2.68,.81,8.63,.28,17.14,2.01,25.73,2.71,8.66,.7,17.35,1.27,26.09,.68,4.63-.31,8.93-2.18,13.5-2.46,.72-.04,1.37-.37,1.91-.9,1.49-1.47,3.27-2.34,5.06-3.22,1.62-.8,2.97-1.68,4.03-3.61,1.02-1.87,3.12-2.97,4.29-4.96,.25-.42,.82-.47,1.26-.09,0,8.94,0,17.88,0,26.83-3.03,.27-5.96,.46-8.66,2.7-1.4,1.17-3.71,.89-5.55-.15-.48-.27-.93-.91-1.37-.89-6.53,.38-12.24-3.39-18.45-4.49-6.96-1.24-13.75-3.32-20.63-4.8-7.96-1.72-15.87-3.85-23.93-4.89-1.99-.26-4.01-.23-6.01-.59-.99-.17-1.4-.56-1.35-1.63Z"/>
      <path class="cls-11" d="M123.47,216.31c.67,0,1.14,.35,1.41,1.04-.6,.8-1.39,1.05-2.29,1.06-6.38,.06-12.58,1.71-18.85,2.75-5.86,.97-11.74,1.83-17.55,3.08-5.64,1.22-11.37,1.37-17.02,2.24-5.63,.86-11.22,1.38-16.88,1.41-1.49,0-2.94-.07-4.35-.68-.49-.21-1.14-.46-1.56-.26-3.38,1.6-6.5-.07-9.7-.82-.68-.16-1.38-.39-2.05-.33-4.61,.39-8.61-1.47-12.42-4.1-.6-.42-1.26-.62-1.98-.7-.52-.05-1.45-.35-1.46-.58-.16-3.62-4.06-4.24-4.66-7.45-.06-.34-.17-.96-.24-.96-3.7,.2-2.86-5-5.67-6-1.09-.39-.94-2.13-.48-3.04,.97-1.91,.57-3.21-.78-4.55-.57-.57-.81-1.47-.81-2.4,.01-5.29-1.14-10.22-2.93-15.12-.83-2.26-1.46-4.89-1.33-7.6,.2-4.02,.16-8.06,.02-12.09-.17-4.76,.82-9.27,1.51-13.91,.73-4.87,2.36-9.45,2.85-14.39,.32-3.28,.88-6.74,2.47-9.69,.78-1.44,.65-3.04,.98-4.54,.76-3.46,1.62-6.78,4.07-9.32,.41-.43,.24-1.51,.48-2.23,.74-2.23,.99-4.54,2.17-6.75,1.04-1.94,1.31-4.61,2.19-6.91,.79-2.07,1.7-4.12,2.63-6.07,1.04-2.18,1.48-4.57,2.53-6.72,1.32-2.7,2.1-5.79,3.67-8.27,1.51-2.4,2.41-5.01,3.47-7.6,1.12-.74,2-1.99,3.45-2.01,.64,1.23,.11,2.42-.09,3.63-.85,3.12-2.44,5.86-3.57,8.84-1.44,3.78-2.34,7.77-3.6,11.58-1.28,3.86-1.28,8.32-3.86,11.63-2.96,4.66-4.36,10.15-6.52,15.22-2.07,4.84-2.53,10.33-5.29,14.79-.45,.73-.38,1.68-.4,2.56-.03,1.05,.09,2.26-.5,3.06-2.7,3.71-2.24,8.38-2.59,12.56-.99,11.85-1.34,23.79,.3,35.64,.61,4.39,1.35,9.02,3.01,12.86,1.67,3.88,3.15,7.93,5.03,11.72,.91,1.83,2.64,2.72,3.76,4.27,2.7,3.76,6.01,6.14,10.11,7.89,4.47,1.91,8.79,3.59,13.63,4.05,3.76,.35,7.5,1.2,11.32,1.54,3.77,.34,7.46-.23,11.17-.34,8.94-.26,17.74-2.15,26.63-3.09,3.05-.32,6.18-.76,9.13-1.94,.85-.25,1.74-.22,2.59-.48,2.38-.2,4.74-.56,7.1-.92,3.88-.88,7.88-.63,11.75-1.58Z"/>
      <path class="cls-146" d="M34.18,62.72c-.67,1.53-1.82,2.12-3.27,2.11,0-.43-.1-.82-.47-1.06,.16-.85,.55-1.74,.43-2.54-.8-5.32,2.04-8.92,4.47-12.82,.97-1.56,1.87-3.39,2.09-5.38,.18-1.62,.86-2.83,1.97-3.68,1.73-1.33,2.89-3.12,3.63-5.25,.3-.87,.75-1.63,1.41-2,1.62-.92,2.63-2.58,2.8-4.28,.28-2.78,1.87-4.37,3.33-6.18,.05-.06,.07-.2,.12-.21,2.98-.68,3.97-4.08,6.24-5.77,1.74-1.3,3.42-3.14,4.3-4.97,1.34-2.78,4.73-3.32,5.18-6.91,.17-1.38,2.73-.94,2.83-3.03,5.14,0,10.28,0,15.42,0-.99,2.54-3.13,3.79-5.02,5.06-3.82,2.57-7.31,5.46-10.54,8.95-2.66,2.88-5.72,5.33-8.27,8.4-5.13,6.16-10.16,12.37-14.7,19.16-3.95,5.91-5.95,13.07-10.31,18.62-.5,.64-.78,1.54-1.62,1.79Z"/>
      <path class="cls-45" d="M195.47,.74c8.57,0,17.14,0,25.72,0,.62,2.56,2.34,4.45,3.3,6.82,.43,1.05,1.12,2.14,2.19,2.17,3.17,.09,4.09,2.96,5.11,5.36,1.04,2.44,1.91,4.77,3.73,6.78,1.36,1.49,2.07,3.81,3.81,5.08,0,11.92,0,23.84,0,35.75-2.57-2.05-4.35-4.81-5.44-8.07-.48-1.45-.9-2.76-2.18-3.52-.64-.38-1.03-1.05-1.27-1.82-.18-.58-.29-1.25-.67-1.66-3.36-3.63-4.52-9.21-8.09-12.45-3.64-3.32-5.34-8.43-9.21-11.41-.58-.45-.89-1.21-1.15-1.95-.38-1.07-.98-1.76-2.09-1.73-.64,.02-1.5-.11-1.62-.78-.43-2.45-2.2-3.57-3.56-5.16-.75-.88-1.1-2.07-2.49-1.82-.71,.13-1.21-.46-1.4-1.15-.65-2.39-2.1-3.91-3.86-5.35-1.49-1.21-2.04-3.07-.84-5.08Z"/>
      <path class="cls-120" d="M195.47,.74c-.23,2.79,.33,4.85,3.08,5.87,1.4,.52,1.55,2.64,2.04,4.14,.29,.88,.45,1.52,1.41,.79,.28-.21,1.04-.25,1.04-.23,.64,2.96,4.27,3.25,4.58,6.45,.12,1.27,.52,2.06,1.78,1.58,.81-.31,1.62,0,1.82,.68,1.2,4.04,4.78,5.83,6.69,9.19,.58,1.01,1.46,1.77,1.53,3.12,.02,.38,.29,.89,.59,1.09,3.54,2.42,4.73,3.96,6,8.07,.67,2.17,2.89,2.69,3.77,4.76,.91,2.15,1.66,4.62,3.95,5.65,.18,.08,.37,.41,.37,.64,.14,4.43,3.58,6.7,5.22,10.14,0,12.98,0,25.95,0,38.93-1.18,.62-1.57-.37-1.8-1.27-1.19-4.64-3.54-8.77-4.81-13.33-1.33-4.79-3.56-9.03-5.4-13.5-.22-1.49-.64-2.87-1.48-4.08-.97-1.42-1.57-3-1.59-4.84-.01-1.09-.53-2-.96-2.94-1.17-2.58-2.31-5.17-3.03-7.96-.31-1.2-.89-2.23-1.62-3.17-.98-1.27-1.5-2.84-2.2-4.3-1.94-4.05-4.11-7.97-6.15-11.94-2.59-5.03-6.96-8.19-9.62-13.09-1.4-2.58-3.54-4.7-5.73-6.51-4.27-3.55-7.76-8.09-11.92-11.78-.57-.51-1.28-1.14-.67-2.19,3.58,0,7.17,0,10.75,0,.82,.97,.65,2.2,.7,3.25,.05-1.05-.12-2.28,.7-3.25,.31,0,.63,0,.94,0Z"/>
      <path class="cls-125" d="M157.13,214.76c.64-.34,1.04-1.17,1.86-1.12,1.79-.44,3.54,.06,5.31,.16,5.05,.3,10.11,.18,15.17,.06,4.65-.12,9.29-.16,13.92-.88,6.06-.94,11.97-2.51,17.35-5.76,3.47-2.1,6.56-4.98,9.18-8.38,5.51-7.14,8.58-15.49,9.61-24.8,.52-4.69,1.55-9.27,1.99-13.98,.57-6.02,1.29-11.98-.16-17.97-.22-.92-.17-1.91-.11-2.88-.08-5.59-.09-11.16-.34-16.75-.19-4.14,.16-8.36,.68-12.51,1.46-1.12,1.53,.45,1.97,1.29,2.2,4.24,2.38,9.16,3.72,13.68,.91,3.06,.6,6.44,2.05,9.33,0,13.86,0,27.71,0,41.57-1.37,3.95-1.64,8.18-2.48,12.26-.17,.85-.14,1.77-.46,2.57-2.88,7.18-5.9,14.22-11.75,19.14-3.57,3-7.65,4.71-11.81,6.09-10.3,3.42-20.84,2.9-31.42,2.42-7.76-.36-15.46-1.54-23.22-1.57-1.05,0-2.21-.28-1.06-1.95Z"/>
      <path class="cls-30" d="M34.18,62.72c.69-1.68,1.77-3.07,2.71-4.56,1.79-2.84,3.18-5.91,4.56-9.04,2.1-4.75,5.46-8.64,8.15-12.99,3.6-5.8,8.42-10.32,12.59-15.52,1.71-2.13,3.64-4.27,6-5.73,1.44-.88,2.16-2.64,3.44-3.82,3.95-3.67,8.62-6.11,12.6-9.71,.18-.16,.29-.4,.43-.61,7.01,0,14.02,0,21.04,0,.17,1.23-.63,1.72-1.38,2.14-1.25,.7-2.52,1.62-3.86,1.79-5.98,.79-10.3,5.52-15.54,8.05-1.6,.78-2.54,2.54-3.87,3.73-5.46,4.88-10.79,9.95-16.09,15.04-3.13,5.58-7.73,9.79-11.19,15.08-1.53,2.33-2.85,4.8-4.3,7.18-1.54,2.53-3.1,5.03-4.77,7.45-.82,1.19-1.27,2.55-1.66,4-.48,1.76-.75,3.83-2.73,4.5-1.15-1.19-2.13-1.66-3.83-.64-2.07,1.24-2.09-1.4-2.77-2.67,.16-1.23,.31-2.46,.47-3.69Z"/>
      <path class="cls-80" d="M64.56,31.16c3.84-3.65,7.42-7.62,11.48-10.98,2.29-1.9,4.34-4.18,6.46-6.33,.99-1,2.09-1.8,3.26-2.5,2.05-1.23,4.17-2.33,6.11-3.75,2.32-1.7,4.8-2.67,7.49-3.34,2.29-.57,4.7-1.24,6.31-3.52,13.57,0,27.13,0,40.7,0,3.71,1.51,7.53,2.62,11.31,3.89,.67,.22,1.39,.3,1.99,.72,5.58,3.95,11.78,6.68,17.18,10.96,2.39,1.9,4.73,3.96,6.4,6.77,1.04,5.26,3.99,9.37,6.59,13.68,.53,.88,1.63,1.52,.93,2.91-1.3,.14-1.98-.97-2.64-1.87-1.59-2.16-3.38-4.12-4.88-6.36-3.33-4.94-7.71-8.51-12.05-12.22-7.03-6.02-15.16-9.23-23.35-12.26-4.19-1.55-8.62-2.46-13.09-2.41-2.87,.04-5.7-.34-8.6-.2-4.76,.22-9.41,1.2-14.1,1.88-3.07,.44-5.98,1.91-8.86,3.22-5.64,2.55-11.01,5.74-15.91,9.79-4,3.3-7.81,6.9-11.62,10.51-3.32,3.15-5.58,7.28-8.74,10.53-1.82,3.42-4.32,6.25-6.45,9.39-.4,.59-.85,1.62-1.81,.73-.53-2.75,.89-5.01,1.49-7.47,.14-.57,.63-1.07,.65-1.65,.14-3.9,2.02-6.96,3.73-10.12Z"/>
      <path class="cls-51" d="M182.38,.74c.91,2.47,3.1,3.55,4.67,5.29,4.3,4.78,9.77,8.34,13.3,13.82,2.96,4.6,7.02,7.95,9.68,12.91,2.65,4.95,5.02,10.11,7.79,14.91,2.62,4.55,4.36,9.47,6.1,14.32,1.32,3.69,3.11,7.26,3.82,11.24-.2,.15-.41,.17-.63,.03-.97-1.67-1.83-3.43-3.2-4.77-.35-.34-.69-.81-.72-1.32-.23-3.83-2.81-6.1-4.66-8.8-1.89-2.75-3.24-5.87-5.36-8.5-3.37-4.2-6.34-8.81-10.26-12.44-.18-.17-.41-.34-.47-.57-1.03-4.34-4.67-5.8-7.3-8.37-5.58-7.14-12.29-12.83-18.94-18.56-3.25-2.8-6.98-4.83-10.53-7.13-.7-.45-1.64-.79-1.51-2.06,6.08,0,12.15,0,18.23,0Z"/>
      <path class="cls-66" d="M157.13,214.76c-.49,1.33,.13,1.48,1.11,1.41,5.25-.34,10.44,.7,15.67,.9,.46,.02,.91,.25,1.37,.26,7.22,.05,14.42,.82,21.65,.56,8.51-.31,16.71-2.25,24.31-6.54,3.48-1.96,6.1-5.31,8.66-8.81,2.14-2.92,2.81-6.47,4.74-9.37,1.98-2.96,1.5-6.86,2.43-10.26,.66-2.41,0-5.35,2.26-7.11,0,9.64,0,19.28,0,28.92-1.5,2.73-4.76,3.74-5.58,7.15-.16,.66-.49,1.02-1.07,1.22-2.88,.99-5.65,2.16-7.92,4.6-1.38,1.48-3.42,.58-5.12,1.18-3.49,1.21-7.09,1.7-10.77,1.88-4.89,.24-9.74,.47-14.62-.06-1.85-.2-3.73-.23-5.59-.16-5.22,.19-10.3-1.17-15.46-1.67-5.31-.52-10.58-1.55-15.93-1.51-1.07,0-2.3,.25-2.47-1.56,.76-.38,1.44-1.01,2.33-1.02Z"/>
      <path class="cls-81" d="M164.15,.74c1.76,1.52,3.54,2.93,5.63,3.94,3.53,1.7,6.4,4.67,9.58,7.05,4.58,3.43,8.07,8.32,12.67,11.75,1.41,1.05,2.31,2.99,3.44,4.52,3.21,3.07,4.46,7.48,6.18,11.56,.34,.8,.62,1.71,1.35,2.09,3.41,1.75,3.27,4.86,2.59,8.21-1.09,.89-1.5-.28-2-.91-2.93-3.73-5.41-7.85-8.53-11.44-3.2-3.68-6.42-7.33-9.82-10.77-1.01-1.02-1.81-2.12-2.39-3.47-3.12-3.91-6.86-6.88-10.86-9.59-3.97-2.69-8.22-4.72-12.22-7.37-2.89-1.91-6.49-2.58-9.84-3.48-1.42-.38-2.7-.64-3.53-2.09,5.92,0,11.84,0,17.76,0Z"/>
      <path class="cls-105" d="M227.26,73.24c.16,0,.31,0,.47,0,1.99,4.21,4.09,8.29,5.36,12.96,.76,2.78,1.82,5.67,3.13,8.32,.86,1.75,1.71,3.53,1.8,5.61,.04,.92,.49,1.44,1.31,1.52,0,10.87,0,21.74,0,32.61-1.22-.32-1.57-1.61-1.64-2.58-.37-5.26-2.04-10.19-3.01-15.29-.46-2.42-1.52-4.72-2.76-6.84-1.41-2.1-2.29-4.61-2.71-7.05-.67-3.94-2.23-7.5-3.17-11.3-.53-2.16-1.34-4.26-1.75-6.49-.24-3.31,.45-6.43,1.57-9.45,.3-.8,.53-1.67,1.38-1.99Z"/>
      <path class="cls-111" d="M239.34,26.95c-1.99-.28-3.29-1.41-3.62-3.74-.08-.53-.23-1.1-.7-1.3-2.5-1.05-2.57-3.86-3.6-6.02-1.11-2.33-1.57-5.59-4.96-5.33-.34,.03-.88-.2-1.04-.5-1.57-3.01-4.45-5.28-4.24-9.32,5.61-.03,11.22-.03,16.82-.12,1.12-.02,1.44,.35,1.43,1.61-.07,8.24-.08,16.47-.1,24.71Z"/>
      <path class="cls-45" d="M194.53,.74c-.22,1.09,.55,3.08-.7,3.08-1.25,0-.48-1.99-.7-3.08,.47,0,.93,0,1.4,0Z"/>
      <path class="cls-57" d="M231.93,139.51c-.17,3.58,1.2,6.93,1.01,10.59-.34,6.62-.9,13.16-2.22,19.64-.53,2.61-.67,5.33-1.01,7.99-.53,4.13-2.19,7.81-3.52,11.65-2.67,7.74-7.85,13.09-13.59,17.56-3.62,2.82-8.02,4.61-12.46,5.55-4.93,1.04-9.91,1.97-14.92,2.2-4.7,.21-9.42,.07-14.13,.04-3.18-.02-6.45,.52-9.47-.68-.97-.39-2.1,1.82-2.64-.39,.39-.9,1.18-1.16,1.92-1.49,2.04-.58,4.08-.58,6.2-.38,4.04,.38,8.03-.78,12.06-1.02,4.99-.29,9.84-1.47,14.63-3.03,3.01-.98,6.11-2.15,8.62-3.9,3.42-2.38,7.42-4.65,9.56-8.53,4.14-7.48,7.66-15.33,9.46-24.14,1.93-9.5,2.71-19.01,2.29-28.66-.24-5.33-1.18-10.59-1.77-15.89-.71-6.36-2.87-12.16-4.6-18.14-.97-4.07-.1-8.17-.22-12.26,.86-1.15,1.62-.23,2.36,.2,.8,.47,1.51,1.12,2.15,1.85,2.33,5.22,4.39,10.56,5.74,16.22,.56,2.36,1.13,4.71,2.37,6.78,.91,1.51,.97,3.27,.99,5.04,.05,4.44,.77,8.8,1.2,13.2Z"/>
      <path class="cls-60" d="M119.75,213.64c.64,.34,1.06,.93,1.41,1.6-1.65,1.19-3.59,.84-5.38,1.26-4.95,1.17-10.04,.9-15.04,1.6-6.47,.9-13.01,.77-19.49,1.49-4.97,.55-9.93-.53-14.9-.66-3.27-.08-6.47-.91-9.7-1.39-2.57-.38-5.04-1.06-7.36-2.4-1.46-.84-2.93-1.63-4.58-1.88-.39-.06-.8-.15-1.1-.41-5.27-4.4-11.17-8.1-13.87-15.42-.18-.49-.27-1.07-.58-1.43-3.62-4.24-4.23-9.92-5.29-15.18-1.65-8.21-3.59-16.31-3.71-24.97-.12-8.89,1.17-17.42,2.61-25.96,1.34-7.96,3.68-15.64,6.6-23.09,1.85-4.71,3.23-9.65,4.59-14.58,.48-1.76,.9-3.54,1.77-5.12,1.12-.8,1.51,.33,1.98,1.03,.51,.76,.97,1.59,1.14,2.57-.81,4.68-1.68,9.36-2.85,13.94-.66,2.58-.74,5.35-1.88,7.78-1.2,1.81-1.51,4-2.05,6.1-2.27,8.83-3.55,17.8-4.49,26.97-1.02,9.97,.87,19.24,2.17,28.81,.6,4.43,2.21,8.27,3.29,12.4,1.17,4.44,3.11,8.18,6.12,11.27,.4,.41,.82,.84,1.1,1.36,4.13,7.81,11.15,10.67,18.27,13.02,6.72,2.21,13.64,3.13,20.71,3.3,11.06,.26,22.06-.75,33.09-1.2,2.48-.1,4.88-1.17,7.41-.79Z"/>
      <path class="cls-74" d="M109.4,188.52c1.14,1.32,.74,3.23,1.44,4.71,.07,2.03-.63,2.8-2.39,2.5-1.24-.21-2.36-.88-3.51-1.42-.65-.31-1.27-.75-1.97-.79-4.88-.29-8.73-3.21-12.59-6.13-1.17-.88-2.5-1.39-3.7-2.23-5.19-3.64-9.13-8.92-11.67-14.76-2.85-6.53-5.6-13.53-5.2-21.27,.06-1.15-.37-2.23-.51-3.36-.17-1.27-.17-2.62,1-3.21,1.11-.57,1.61,.67,2.22,1.43,.36,.46,.74,.9,1.14,1.32,4.4,5.9,9.4,11.09,14.84,15.75,5.17,4.42,10.9,7.6,16.94,10.18,1.27,.54,2.79,.67,3.48,2.33,.76,3.23,1.07,6.46,.15,9.72-.56,1.8-.04,3.52,.32,5.25Z"/>
      <path class="cls-88" d="M73.44,145.82c-.57-.59-1.16-1.15-1.69-1.77-.39-.47-.52-1.5-1.33-1.02-.54,.32-.82,1.14-.67,1.85,1.18,5.5,1.07,11.17,2.75,16.71,2.09,6.89,5.22,12.77,9.37,18.13,2.1,2.71,4.91,4.39,7.57,6.35,2.48,1.82,5.46,2.74,7.57,5.21,.44,.52,1.03,.82,1.67,.82,3.26,0,6.19,1.3,9.11,2.74,1.46,.73,2.79,.78,3.04-1.6,.91,2.88,1.23,5.83,.87,8.86-1.77,1.5-3.7,.55-5.39,.08-3.55-1-7.19-1.31-10.73-2.4-6.22-1.91-12.31-4.29-17.14-9.12-5.53-5.52-11.03-11.03-13.85-19.35-1.86-5.48-2.56-11.13-3.93-16.65-1.51-6.11-.82-12.33-.97-18.51-.08-3.03,2.06-4.98,2.97-7.54,.39-1.1,1.64-.22,2.42,.37,1.7,1.89,2.4,4.47,3.63,6.69,1.48,2.67,2.72,5.5,4.4,8.04,.4,.61,.89,1.29,.33,2.13Z"/>
      <path class="cls-126" d="M167.89,201.59c.95-1.96,1.22-4.08,1.26-6.27,4.35-3.51,8.34-7.48,12.24-11.62,2.33-2.47,3.46-5.56,4.8-8.53,3.36-7.47,5.98-15.26,6.92-23.65,.05-.43,.18-.88,.12-1.3-.79-5.29-.96-10.67-1.77-15.96,.47-3.56,2.05-6.57,3.7-9.55,.85-.76,.93-1.98,1.39-2.96,.83-1.77,1.97-1.92,3.02-.31,2.24,3.44,3.54,7.33,4.03,11.55,.29,2.5,.39,5.03,.74,7.52,.21,4.36,.61,8.73-.5,13.04-.58,2.28-.31,4.67-.64,7.02-.89,6.46-4,11.93-6.22,17.71-1.83,4.74-4.68,9.15-8.12,13.02-5.22,5.88-11.71,8.75-18.39,11.43-1.81,.72-2.23,.45-2.57-1.13Z"/>
      <path class="cls-109" d="M115.57,209.4c.6,.56,1.2,1.13,1.8,1.69-.06,1.14-.9,1.14-1.53,1.16-1.56,.04-3.08,.43-4.63,.57-11.28,1.08-22.55,.7-33.72-1.2-6.71-1.14-13.04-3.97-19.16-7.27-.42-.23-.84-.5-1.15-.89-2.74-3.45-6.64-5.43-9.18-9.2-.95-1.41-1.84-2.82-2.52-4.39-1.58-3.67-3.4-7.15-4.02-11.36-.47-3.19-2.27-6.06-2.88-9.36-.63-3.41-1.8-6.92-1.9-10.21-.22-7.55-1.27-15.19,.33-22.74,.9-4.26,.9-8.75,2.15-12.89,2.26-7.52,3.71-15.36,6.81-22.56,2.63-.11,3.54,2.16,4.61,4.22,.55,3.17-.38,6.1-1.57,8.8-2.69,6.09-3.03,12.88-4.8,19.23-.11,.4-.02,.86,0,1.3-.05,3.76-.19,7.51-.36,11.27-.34,7.53-.13,15.21,2.17,22.29,1.51,4.66,2.25,9.61,4.3,14.06,4.93,10.69,12.22,18.29,22.39,22.4,9.05,3.66,18.35,5.09,27.93,4.93,4.97-.09,9.95-.25,14.93,.15Z"/>
      <path class="cls-23" d="M167.89,201.59c.4,1.32,1.29,.93,2.04,.65,4.87-1.83,9.66-3.98,13.95-7.14,3.34-2.46,6.24-5.65,8.41-9.54,.54-.96,.96-2.02,1.59-2.89,2.49-3.43,3.74-7.55,5.03-11.61,.81-2.55,2.66-4.43,3.05-7.26,1.04-7.71,2.31-15.39,1.93-23.25-.41-2.77,.22-4.92,2.72-6.04,1.46-.65,1.74-2.03,1.74-3.61,0-2.6,.11-5.19,1.01-7.64,.6-.34,.84,.16,1.06,.61,.31,.61,.59,1.27,.68,1.95,1.12,7.88,3.72,15.63,1.59,23.8-.42,1.6-.4,3.36-.13,4.97,.72,4.33-.8,8.23-1.4,12.33-.78,5.3-3.16,9.81-4.77,14.69-1.12,3.38-2.88,6.4-5.14,9.01-.33,.38-.71,.71-.96,1.14-4.6,8.15-12.4,10.44-19.72,13.47-3.94,1.63-8.14,2.34-12.28,3.12-1.27,.24-2.74,.68-3.15-1.51,.19-2.24,1.66-3.63,2.75-5.26Z"/>
      <path class="cls-35" d="M36.05,86.92c-1.03,4.45-2.55,8.73-3.73,13.1-1.4,5.18-3.49,10.02-5.13,15.07-1.86,5.76-3.07,11.69-4.25,17.61-1.06,5.33-2.28,10.82-2.15,16.2,.19,7.77-.36,15.72,1.82,23.31,1.57,5.5,2.57,11.14,3.71,16.75,.17,.84,.34,1.83,.82,2.43,2.92,3.68,4.22,8.48,6.87,12.35,1.78,2.59,4.46,3.74,6.68,5.6,5.19,4.33,11.21,6.34,17.6,7.63,7.07,1.42,14.19,1.95,21.25,1.78,8.17-.2,16.37-.93,24.54-1.7,5.7-.54,11.36-1.63,17.09-1.81,.3,.01,.6,.03,.9,.04,.52,1.41-.43,1.35-1.19,1.53-2.51,.59-5.09,.79-7.61,.96-7.22,.49-14.3,2.18-21.53,2.55-8.37,.42-16.69,1.82-25.1,1.51-5.85-.22-11.76-.6-17.32-2.51-6.48-2.23-12.9-4.69-17.96-10.54-3.26-3.76-5.85-7.64-8.09-12.25-3.07-6.33-3.59-13.34-5.57-19.92-1.86-6.19-1.01-12.65-1.5-18.98-.09-1.22,.1-2.48-.18-3.67-1.24-5.37-.16-10.58,.72-15.83,.76-4.55,1.7-9.06,2.42-13.63,.74-4.71,2.28-9.29,4.57-13.38,1.24-2.21,2.23-4.39,2.35-7.01,.98-3.05,1.48-6.16,3.83-8.71,2.06-2.23,2.6-5.87,3.69-8.95,.41-1.15,.6-2.43,2.1-2.23,.55,.82,.97,1.66,.36,2.68Z"/>
      <path class="cls-103" d="M119.75,213.64c-.71,1.65-1.95,.23-2.92,.64-4.09,1.73-8.44,.91-12.66,1.38-5.62,.63-11.31,.57-16.97,.75-6.43,.2-12.91,.3-19.17-.85-5.94-1.09-11.89-2.69-17.53-5.67-4.41-2.33-7.77-5.43-10.57-9.8-1.93-3.01-4.87-5.18-6.12-8.82-.83-2.42-1.24-5.14-2.48-7.26-2.44-4.15-1.61-8.99-2.79-13.38-1.19-4.42-1.28-9.09-1.97-13.61-.93-6.13,.89-11.88,.99-17.84,.06-3.28,.88-6.55,.92-9.83,.02-1.87,1.37-2.8,1.59-4.52,.4-3.25,1.2-6.43,1.91-9.62,.27-1.2,.99-2.16,1.74-3.05,1.44,1.97,1.64,4.41,2,6.77,.14,.93,.09,1.9,.29,2.83,0,2.38-.35,4.74-.83,7.02-1.66,7.88-1.91,15.93-2.59,23.93-.28,3.28,.56,6.43,.9,9.64,.77,7.24,2.57,14.18,5.24,20.8,1.21,3.01,3.22,5.58,3.95,8.88,.13,.58,.46,1.12,.82,1.58,5.78,7.28,12.02,13.75,20.94,15.78,2.13,.49,4.12,1.5,6.26,2.06,10.6,2.74,21.37,1.98,32.08,1.87,5.33-.05,10.66-1.04,16.02-.69,.32,.34,.64,.67,.96,1.01Z"/>
      <path class="cls-142" d="M115.57,209.4c-.66,.9-1.58,.58-2.4,.58-6.38,.02-12.77,.26-19.14-.07-5.15-.27-10.27-1.04-15.31-2.67-4.93-1.6-9.72-3.39-14.13-6.41-6.74-4.62-11.85-10.98-14.91-19.05-2.64-6.95-5.21-14.12-5.93-21.68-.54-5.66-1.3-11.4-.35-17.2,.46-2.8,.11-5.76,.12-8.65,2.15-1.51,2.07-4.38,3.16-6.52,.77-1.51,3.13-2.19,5.08-1.65,.56,1.46,.54,2.98-.08,4.34-.89,1.97-.97,4.02-.95,6.13,.04,5.41-.16,10.82-.14,16.24,.01,5.71,1.4,10.84,2.92,16.08,1.44,4.94,3.48,9.59,5.86,13.97,3.24,5.96,6.86,11.65,13.03,14.48,3.31,1.52,6.54,3.3,9.84,4.84,2.42,1.12,5.09,1.7,7.67,2.13,7.07,1.2,14.12,2.74,21.34,2.32,.88-.05,1.7,.21,2.45,.73,.62,.69,1.25,1.37,1.87,2.06Z"/>
      <path class="cls-29" d="M65.04,129.51c-1.18-.66-2.49-1.75-2.44,1.1,0,.32-.16,.75-.37,.94-2.44,2.24-1.7,5.34-1.9,8.24-.47,7.14,1.04,13.97,2.08,20.92,.84,5.6,3.01,10.52,4.99,15.56,1.03,2.62,2.88,4.68,4.86,6.56,1.29,1.23,2.27,2.85,3.47,4.2,5.59,6.31,12.47,9.92,20.09,11.92,5.25,1.38,10.49,2.8,15.89,3.14,.36,1.23,.71,2.45,1.07,3.68-.66,.82-1.56,.85-2.39,.7-5.82-1.03-11.79-.99-17.52-2.66-10.21-2.99-19.87-7.24-27.05-16.52-2.51-3.25-3.98-7.29-6.14-10.82-1.51-2.48-2.26-5.27-2.72-8.28-.62-4.02-2.55-7.69-2.8-11.88-.08-1.38-.4-2.73-.21-4.15,.22-1.65,.23-3.34,.09-4.98-.72-8.15,1.39-15.98,2.1-23.96,.27-3.1,2.59-5.86,4.53-6.08,2.02,3.88,4.31,7.64,4.36,12.4Z"/>
      <path class="cls-7" d="M118.79,212.63c-.22,.49-.54,1.02-1.04,.86-2.33-.75-4.6-.04-6.91,.14-8.69,.67-17.41,.85-26.11,.5-6.71-.28-13.33-1.24-19.83-3.74-4.28-1.65-8.55-3.02-12.24-6.04-3.66-3-7.64-6.12-9.68-10.45-2.46-5.23-5.33-10.3-6.98-16.09-2.28-7.98-4.08-16.1-4-24.39,.07-8.04,.63-16.17,2.44-24.07,.58-2.51,.78-5.14,1.15-7.71-.43-4.72,2.29-8.22,4-11.98,1.41-3.1,2.61-6.3,3.95-9.42,.51-1.18,.9-2.43,1.58-3.49,.35-.54,.73-1.59,1.57-.51,.42,1.51,.64,3.01-.35,4.38-2.39,6.87-3.67,14.15-6.17,21-1.06,2.9-1.2,6.25-1.67,9.41-.91,6.1-1.89,12.18-1.54,18.43,.17,3-.07,6.22,.32,9.01,.48,3.48,1.5,7.07,1.97,10.61,.61,4.52,2.71,8.4,3.71,12.77,1.02,4.45,2.93,9.18,6.38,12.73,1.61,1.66,3.42,3.12,4.9,4.82,4.92,5.66,11.19,7.75,17.62,9.78,10.03,3.17,20.3,3.82,30.59,3.34,4.96-.23,10.04,.11,14.93-1.4,.68,.28,1.09,.86,1.42,1.54Z"/>
      <path class="cls-122" d="M26.69,103.74c.14,3.04-.65,5.71-2.57,7.87-1.49,1.68-1.67,4.06-2.4,6.07-2.26,6.16-2.57,12.94-4.03,19.36-.89,3.92-1.01,7.91-1.7,11.83-.12,.65,.03,1.39,.15,2.07,.94,5.05,.98,10.12,.82,15.26-.12,3.99,.84,7.9,1.73,11.76,1.11,4.79,2.24,9.58,3.29,14.39,.18,.82,.33,1.5,1.03,1.9,.6,.34,.96,.96,1.11,1.63,1.16,5.24,4.13,8.85,7.76,12.23,1.81,1.69,3.72,3.33,5.47,5.14,2,2.08,4.82,2.25,7.22,3.43,4.09,2.01,8.49,3.02,12.94,3.55,7.18,.86,14.37,1.29,21.59,.38,2.31-.29,4.63-.53,6.95-.6,6.28-.19,12.48-1.06,18.7-1.98,5.13-.77,10.31-1.16,15.47-1.72,.73-.08,1.65,.28,1.84-1.02,.47,.34,.94,.68,1.41,1.02-.91,2.54-2.97,.88-4.43,1.37-2.28,.76-4.82,.54-7.26,.73-2.49,.4-5.02,.37-7.48,1.05-.62,.47-1.25,.48-1.87,0-3.26,1.24-6.65,1.73-10.04,2.07-6.33,.63-12.67,1.19-18.97,2.22-2.32,.38-4.67,.24-7,.15-9.13-.36-18.15-1.45-26.71-5.48-2.07-.97-4.31-1.53-6.37-2.55-3.99-1.95-7.13-4.96-9.74-9.01-1.84-2.86-3.79-5.39-3.76-9.11-3.49-4.6-3.49-10.71-5.41-15.99-1.14-3.13-.85-6.62-.87-9.88-.06-7.12-1.38-14.11-1.39-21.17,0-5.44-.13-11.05,1.76-16.33,.84-2.35,.84-4.97,1.38-7.45,.98-4.5,1.65-9.08,3.4-13.33,.48-1.89,2.84-2.79,2.2-5.27,.02-.81,.02-1.62,.44-2.34,1.75-.52,.79,1.9,1.98,2.18,.85-1.68,.4-4.8,3.38-4.43Z"/>
      <path class="cls-138" d="M217.91,108.48c3.87,9.38,5.04,19.45,6.14,29.57,.68,6.3,.56,12.59,.28,18.84-.19,4.15-.94,8.36-1.97,12.47-.87,3.48-1.45,7.06-2.53,10.49-.68,2.19-1.37,4.34-2.44,6.34-1.24,2.31-2.53,4.64-3.46,7.12-1.2,3.19-3.3,5.2-5.9,6.72-.41,.24-.92,.39-1.22,.75-5.7,6.92-13.73,7.84-21.15,9.97-3.64,1.05-7.7,.6-11.5,1.37-4.07,.83-8.15-.13-12.2,.45-.33,.05-.69-.28-1.04-.43,.6-.57,1.19-1.14,1.79-1.71,.93-.11,1.86-.18,2.79-.15,10.14,.32,20.06-1.18,29.48-5.41,4.28-1.92,8.43-4.52,11.21-9.02,.4-.65,.89-1.22,1.35-1.81,2.27-2.97,4.7-5.77,5.75-9.74,.56-2.13,1.61-4.16,2.74-6.06,1.81-3.04,1.79-6.7,2.3-10.1,.96-6.45,2.58-12.81,2.24-19.48-.14-2.81-.28-5.61-1.01-8.3-1.44-5.28-1.86-10.77-2.77-16.16-.13-.78-.17-1.58-.55-2.26-2.47-4.46-4.46-9.21-6.67-13.82-.87-2.34-1.61-4.7-1.75-7.27-.13-2.46-1.27-4.66-1.67-7.05-.21-1.26-.52-2.56-.23-3.88,.87-1.14,1.46-.12,1.77,.5,1.56,3.07,4.06,5.48,5.02,8.97,.26,.95,.91,1.58,1.5,2.27,1.68,1.96,2.85,4.29,3.71,6.82Z"/>
      <path class="cls-20" d="M60.82,117.42c-1.92,.5-4.01,3.89-4.21,6.74-.26,3.9-.66,7.74-1.66,11.54-.51,1.94-.13,4.17-.22,6.26-.16,3.92-.22,7.88-.17,11.76,.04,3.41,.44,7.16,2.02,10.35,.83,1.66,1.29,3.48,1.33,5.23,.08,3.62,2.2,6.06,3.51,8.96,.52,1.16,1.41,2.1,1.92,3.26,2.85,6.53,7.7,10.89,13.02,14.45,3.83,2.57,8.14,4.2,12.45,5.69,3.94,1.36,7.83,2.43,12.01,2.63,3.98,.19,7.9,1.57,11.95,1.45,.31,.52,.62,1.05,.93,1.57-6.99,.1-13.86-.81-20.8-1.81-9.17-1.32-17.11-5.64-25.16-10.03-1.52-.83-2.12-2.5-3.22-3.71-3.69-4.06-6.34-8.99-8.57-14.11-2.46-5.64-4.02-11.72-5.78-17.69-.21-.72-.11-1.56-.1-2.35,.14-6.35-.63-12.69-.03-19.05,.28-2.98-.47-6.05,1.2-8.9,.55-.94,.18-2.56,.23-3.86-.69-.88-.43-1.85-.03-2.68,1.46-3.05,2.63-6.28,4.41-9.13,1.35-2.16,1.96-2.26,4.24-.89,.54,1.36,1.77,2.57,.73,4.27Z"/>
      <path class="cls-78" d="M165.14,206.85c.61,.99,1.47,1.19,2.46,1,9.53-1.8,18.68-4.9,27.12-10.34,.47-.3,1-.6,1.31-1.07,3.23-4.87,7.55-8.84,9.65-14.65,1.24-3.42,2.64-6.77,3.87-10.17,.89-2.47,1.32-5.34,1.73-8.03,1.17-7.66,.75-15.49,1.51-23.22,.35-3.59-1.57-6.7-1.65-10.23-.06-2.4-.52-4.8-1.62-6.94-1.05-1.77-1.25-3.77-1.29-5.82,.55-1.73,.6-3.53,.67-5.33,.04-1.12,.22-2.23,.98-3.08,1.34,.08,1.11,1.53,1.38,2.32,1.53,4.37,3.49,8.62,4.17,13.3,.63,4.31,1.43,8.59,2.06,12.88,1.14,7.77,1.02,15.6-.33,23.46-1.3,7.52-3.41,14.76-6.27,21.55-4.86,11.55-12.41,20.15-23.84,23.7-6.69,2.08-13.33,4.23-20.35,4-.94-.03-2.3,.53-2.59-1.32,.35-.67,.7-1.35,1.04-2.02Z"/>
      <path class="cls-121" d="M191.7,134.24c.27,.15,.77,.4,.76,.44-.7,2.19,1.08,4.15,.29,6.48-.74,2.18,.76,4.32,.98,6.59,.4,4.12-.65,7.87-1.31,11.76-.58,3.38-2.69,6.15-2.72,9.83-.02,1.75-1.56,3.31-2.4,4.89-1.66,3.13-2.39,6.78-4.98,9.47-3.41,3.56-6.9,7.01-10.4,10.44-.79,.78-1.71,1.18-2.77,1.19-.28-3.16-.57-6.33-.85-9.49,.11-.74,.52-1.26,1.04-1.68,4.7-3.82,8.46-8.68,10.57-14.66,1.61-4.57,4.17-8.9,4.35-13.95,.11-3,.73-6.03,.08-9.05-.07-.64,.07-1.23,.41-1.73,2.06-3.07,3.81-6.38,5.71-9.57,.29-.49,.55-1.1,1.25-.94Z"/>
      <path class="cls-147" d="M164.09,208.87c.37,.57,.91,.6,1.47,.6,11.58,0,22.46-3.15,32.35-9.88,3.57-2.43,6.48-6.04,8.36-10.37,.87-2.01,2.58-3.13,3.44-5.22,1.8-4.39,2.44-9.28,4.29-13.46,1.98-4.47,2.53-9.17,3.03-13.73,.79-7.2,1.28-14.61-.83-21.79-1.03-3.5-1.08-7.2-1.47-10.82-.22-2.02-1.05-3.66-1.68-5.4-1.15-3.22-1.32-6.83-3.09-9.79-.25-.35-.25-.7,0-1.05,2.05,3.25,3.25,7.05,5.19,10.36,2.57,4.38,2.82,9.3,3.36,14.3,.41,3.82,1.92,7.48,2.36,11.38,.61,5.49,.44,10.92-.6,16.35-.88,4.57-1.71,9.18-2.19,13.82-.35,3.4-2.67,5.63-3.43,8.72-1.55,6.39-5.83,10.83-9.44,15.57-2.49,3.27-6.17,5.54-9.84,7.2-2.86,1.3-5.86,2.26-8.88,3.02-7.5,1.88-15.1,2.8-22.8,2.32-.34-.02-.66-.37-1-.56,.47-.52,.93-1.05,1.4-1.57Z"/>
      <path class="cls-74" d="M184.7,146.3c.84,1.08,.87,2.15,.51,3.58-.74,2.95,.17,6.13-.9,9.14-.59,1.67-.87,3.47-1.9,4.94-.38,.54-.8,1.18-.86,1.82-.59,5.57-3.77,9.45-6.7,13.57-1.87,2.63-4.09,4.68-6.55,6.47-.8-.95-.24-2.13-.42-3.19,.24-1.31,.15-2.64,.17-3.96-.31-2.84-1.03-5.63-.83-8.53,.04-1.68-.46-3.3-.45-4.97-.08-1.72,.59-2.93,1.86-3.92,4.86-3.74,9.54-7.73,13.3-12.93,.68-.94,1.36-2.21,2.77-2.02Z"/>
      <path class="cls-133" d="M168.74,178.98c0,1.3-.3,2.52-.86,3.66-.07-.8-.36-.84-.86-.34-4.63,4.7-10.3,6.93-16.17,8.85-7.56,2.46-15.25,3.79-23.06,2.96-4.7-.5-9.52-.99-13.92-3.3-1.31-.69-2.43-1.84-3.61-2.81-.65-.53-.77-.06-.86,.51-1.17-1.41-1.54-3.02-.96-4.86,.81-.37,1.33,.28,1.88,.71,8.19,6.3,17.4,6.99,26.87,6.24,6.48-.51,12.69-2.53,18.84-4.73,2.37-.85,4.46-2.48,6.53-4.05,1.23-.93,1.01-1.8-.21-2.53-.55-.33-1.12-.62-1.64-1.01-.52-.4-1.14-.84-.9-1.65,.27-.92,1.08-.98,1.78-.82,1.53,.36,2.99,.99,4.36,1.83,.9,.55,1.83,.96,2.79,1.32Z"/>
      <path class="cls-44" d="M141.09,221.29h7.51c-.9,1.81-2.59,2.08-3.73,3.15-.38,.36-1.17,.28-1.14-.26,.16-2.31-1.64-1.92-2.64-2.89Z"/>
      <path class="cls-40" d="M21.55,105.85c0,.88,0,1.75,0,2.63-.29,1.88-1.68,3.08-2.34,4.73,.11,1.54-.13,2.95-1.07,4.16-.83,1.07-.67,2.45-.9,3.72-.77,4.24-1.21,8.71-2.47,12.66-1.6,5.03-1.41,10.11-1.97,15.14-.36,3.22,.03,6.65,.61,9.86,.41,2.25,.66,4.45,.67,6.72,0,6.01,.11,12.01,1.37,17.92,.47,2.21,1.84,4.04,2.02,6.34,.22,2.86,2.21,5.11,2.69,7.41,.8,3.8,2.51,6.64,4.2,9.76,1.36,2.5,3.42,3.98,5.27,5.75,3.07,2.95,7.08,3.65,10.73,5.17,6.98,2.92,14.14,4.46,21.65,4.97,7.04,.48,13.87-.61,20.81-1.08,6.58-.45,13.11-1.06,19.61-2.26-.78,1.68-2.38,1.26-3.54,1.45-8.64,1.39-17.3,2.64-25.97,3.75-3.46,.44-6.98,.25-10.45,.63-5.04,.55-10.09,.48-14.99-.68-3.95-.94-8.02-.66-11.9-1.96-.92-.31-1.65-.98-2.49-1.33-1.8-.74-3.43-1.89-5.29-2.54-2.14-.76-4.7-1.11-5.78-4.16-.43-1.2-1.57-2.21-2.57-2.99-3.76-2.9-5.37-7.2-6.46-11.89-.04-.17-.09-.37-.2-.47-4.22-3.86-2.95-10.08-4.98-14.94-1.15-2.77-1.13-6.31-1.13-9.5,.01-7.78-.39-15.55,.25-23.34,.28-3.47,.64-6.91,1.01-10.36,.26-2.41-.17-4.9,1.83-6.69,.27-.24,.48-.78,.47-1.18-.14-5.84,2.91-10.6,4.42-15.85,1.24-4.31,3.15-8.43,4.26-12.85,.26-1.04,.84-2.01,1.64-2.48,1.53-.9,.92-3.26,2.41-4.09,.47,2.84,.27,5.53-1.4,7.89Z"/>
      <path class="cls-129" d="M21.55,105.85c.47-2.63,.93-5.26,1.4-7.89,.95-1.19,1.49-2.49,1.52-4.19,.05-2.39,1.84-4.33,2.03-6.49,.3-3.37,1.5-6.3,2.53-9.3,1.35-3.95,3.1-7.73,4.68-11.58,.5,.26,1.01,.61,1.12,1.2,.3,1.68,.77,1.75,1.89,.6,1.45-1.49,2.59-.98,3.54,1.34,.69,1.03,.17,2.04-.15,2.97-1.03,2.92-2.04,5.84-2.7,8.91-.25,1.16-.63,2.37-1.82,2.85-.64,.38-1.3,.89-1.32,1.7-.06,2.82-1.88,4.83-2.54,7.39-.39,1.53-1.15,2.8-2.55,3.89-1.75,1.36-1.48,4.36-2.47,6.48-1.29,.66-2.49,1.36-2.35,3.34,.07,1.03,.09,2.25-1.18,2.36-1.53,.13-1.05-1.29-1.14-2.21-.05-.52-.06-1.03-.47-1.38Z"/>
      <path class="cls-40" d="M104.3,219.46c2.4-1.15,4.94-1.08,7.48-1.05-2.45,.73-4.95,1.06-7.48,1.05Z"/>
      <path class="cls-32" d="M231.93,139.51c-1.12-4.32-1.92-8.7-1.86-13.22,.03-2.15-.39-3.98-1.55-5.83-.93-1.49-1.27-3.5-1.71-5.32-1.01-4.19-2.12-8.35-4.09-12.12-.75-1.44-.36-3.32-1.55-4.54-1.71-2-1.27-4.78-2.04-7.12-2.47-7.51-4.48-15.19-6.93-22.71-.37-1.13-.88-2.26-.62-3.54,.96-.93,1.49,.12,2.11,.61,2.97,2.39,4.8,5.91,6.81,9.18,1.86,3.04,3.85,6.1,4.42,9.91,.72,2.46,1.92,4.97,2.21,7.29,.44,3.6,2.65,6.39,2.66,10.18,0,2.36,1.96,4.59,2.14,7.25,.17,3.46,.25,6.94-.37,10.35-.39,2.15,.4,4.14,.38,6.23-.03,4.46,0,8.93,0,13.39Z"/>
      <path class="cls-115" d="M35.57,84.28c1.56-4.91,3.12-9.82,4.68-14.73,1.36-1.09,1.99-2.81,2.22-4.45,.24-1.77,.92-3.19,1.83-4.44,2.51-3.45,4.57-7.25,6.79-10.91,2.4-3.96,4.89-7.88,8.05-11.15,2.13-2.19,3.53-5.04,5.42-7.43,.07,.92-.12,1.87-.68,2.43-1.34,1.32-1.76,2.98-1.86,4.85-.18,3.27-1.92,6-2.57,9.11-.21,1.02-.61,1.98-.49,3.06,.43,1.26-.32,2.19-.75,3.17-2.32,5.35-4.77,10.62-7.33,15.83-3.34,3.78-5.94,8.15-8.1,12.89-.98,2.15-1.31,4.65-2.79,6.53-.48,.6-.55,1.71-1.6,1.56-.94-1.1-1.09-2.83-2.34-3.68-.16-.88-.31-1.76-.47-2.63Z"/>
      <path class="cls-15" d="M66.43,40.1c3.14-3.81,5.81-8.07,9.4-11.48,3.9-3.7,7.79-7.45,12.01-10.6,3.3-2.46,6.56-5.06,10.37-6.77,3.58-1.61,7.08-3.47,10.76-4.85,1.41-.53,2.78-.95,4.28-1.08,4.38-.39,8.68-1.44,13.12-1.63,6.94-.3,13.76,.22,20.43,2.19,7.59,2.24,14.98,5.43,21.58,10.2,6.06,4.38,11.9,9.25,16.25,16.05,1.72,2.69,3.62,5.48,6.17,7.44,1-.19,1.45,.72,1.75,1.42,1.82,4.28,4.25,8.15,6.34,12.24,.35,.68,.55,1.45,.79,2.19,.43,1.75,1.06,3.4,1.77,5.02,.51,1.17,.95,2.37,.34,3.69-1.46,.73-1.71-.73-2.12-1.61-3.5-7.45-8.35-13.84-12.69-20.64-3.4-6.15-7.77-11.25-12.84-15.7-2.24-1.97-4.2-4.33-6.51-6.27-1.63-1.36-3.2-2.81-5.02-3.79-5.68-3.06-11.3-6.33-17.65-7.33-1.72-.27-3.18-1.4-4.88-1.73-9.66-1.9-19.18-1.4-28.54,2.04-3.69,1.36-7.49,2.41-10.9,4.6-5.98,3.84-12.17,7.25-17.2,12.82-2.42,2.68-5.13,5.05-7.39,7.96-2.26,1.74-4.06,4.21-6.63,5.48-.96,.47-1.95,1.16-2.98,.13Z"/>
      <path class="cls-28" d="M199.21,55.35c-2.81-5.26-5.61-10.52-8.42-15.78-1.67-2.85-3.26-5.77-5.04-8.52-1.53-2.36-2.54-4.9-2.91-7.78,3.53,3.72,7.3,7.2,10.53,11.22,2.69,3.34,5.83,6.28,7.93,10.21,1.07,2.01,2.52,3.71,3.98,5.38,2.28,3.91,4.55,7.84,6.24,12.13,.26,.65,.37,1.34,0,2-2.66-1.31-5.57-2.08-8.1-3.54-1.74-1-3.56-2.81-4.22-5.33Z"/>
      <path class="cls-100" d="M66.43,40.1c2.17,.04,3.85-1.19,5.4-2.68,1.23-1.18,2.35-2.52,3.94-3.1,.74-.4,1.36-.12,1.95,.4,.3,.68,.14,1.39-.47,1.45-2.85,.3-3.34,3.36-4.88,5.18-.67,.79-.84,2.1-2.03,2.33-.16,.03-.32,.13-.36,.29-1.66,5.48-5.6,9.64-6.95,15.32-.32,1.33-1.32,2.36-1.9,3.6-2.22,2.55-3.61,5.78-5.51,8.59-1.12,1.65-2.59,2.67-4.02,3.81-.37,.3-.72,.15-.96-.3-.31-1.81-.92-3.6-.12-5.44-.19-1.95,1.25-3.09,1.89-4.6,2.04-4.85,4.33-9.56,6.53-14.33,2.62-3.4,5.18-6.84,7.48-10.52Z"/>
      <path class="cls-65" d="M211.36,64.3c-.56-3.13-2.03-5.8-3.54-8.4-1.07-1.84-2.19-3.59-2.53-5.81,0-1.39,0-2.78,0-4.17,0-1-.1-2.27-.91-2.5-2.39-.69-3.25-2.85-3.95-4.99-1.23-3.75-3.05-7.11-4.96-10.43,1.32,1.2,2.63,2.41,4.21,3.22,.66,.34,1.44,1.03,1.66,1.75,1.52,4.98,5.89,7.21,8.39,11.26,2.41,3.89,5.78,6.96,7.72,11.31,.64,1.44,1.98,2.48,2.69,3.9,1.24,2.49,3.87,4.12,3.58,7.61-.05,.6,.86,1.39,1.44,1.95,1.17,1.14,1.88,2.52,2.1,4.23-1.29,3.73-2.65,7.44-2.34,11.57-2.6-5.67-5.58-11.05-9.18-16-1.13-1.56-2.6-2.67-3.91-3.99-.26-.06-.42-.23-.47-.53Z"/>
      <path class="cls-53" d="M211.36,64.3c.16,.18,.32,.35,.47,.53,1.22,4.41,2.4,8.82,4.14,13.02,.89,2.14,.52,4.65,1.48,6.8,.72,1.61,1.5,3.15,1.97,4.96,.77,2.93,.85,6,1.75,8.88-1.25-.88-2.49-1.75-3.74-2.63-.78-.24-1.13-.96-1.32-1.71-1.57-6.31-5.27-11.28-8.32-16.63-1.38-2.41-2.51-5.05-4.33-7.14-1.39-1.73-2.67-3.5-1.93-6.08,.29-2.02-.7-3.6-1.4-5.29-.48-1.15-.94-2.33-.93-3.65,1.07,2.03,3.28,2.8,4.3,4.93,.21,.43,.97,.84,1.4,.75,2.83-.53,4.61,1.39,6.45,3.26Z"/>
      <path class="cls-79" d="M203.89,70.08c1.96,1.47,2.54,4.07,3.81,6.1,3.85,6.16,7.67,12.38,9.74,19.67,1.05,4.17-.59,8.46,.47,12.62-1.24-.79-1.39-2.45-2.27-3.56-3.7-4.68-5.62-10.76-9.42-15.37-2.23-1.09-2.02-3.43-2.25-5.55,.3-2.68,.1-5.31-.4-7.95-.38-1.99-.92-4.05,.32-5.96Z"/>
      <path class="cls-132" d="M50.54,69.56c.36,1.91,.6,3.83,.47,5.79,1.1,2.38-.1,4.66-.61,6.76-1.02,4.18-2.56,8.2-3.29,12.5-.09,.51-.36,.96-.77,1.26-1.47,1.98-2,4.5-3.01,6.74-1.17,2.6-2.2,5.28-3.42,7.87-1.68,3.55-3.71,7.04-4.32,11.16-.62-3.16-1.25-6.31-1.87-9.47,1.56-7.19,3.12-14.38,4.68-21.56,2.23-2.83,2.92-6.58,4.54-9.78,2.11-4.15,4.11-8.33,7.61-11.26Z"/>
      <path class="cls-107" d="M168.74,178.98c-.54,.79-1.03,1.17-1.84,.24-1.46-1.69-3.64-1.79-5.41-2.82-.32-.19-.85,.08-1.75,.19,1.23,1.37,2.49,1.79,3.6,2.43,1.6,.93,1.67,1.85,.18,3.02-3.41,2.7-7.13,4.58-11.14,5.9-7.52,2.48-15.13,3.98-22.99,3.64-6.78-.29-13.2-2-18.99-6.12-.71-.51-1.32-1.2-1.97-1.81,.83-3.5,.38-7.01,0-10.51,.12-.09,.23-.17,.35-.26,.38-.13,.78-.19,1.14-.06,7.45,2.74,15.15,2.82,22.87,2.71,.7-.01,1.39,.06,2.02,.45,.92,2.21-.7,2.34-1.82,2.53-2.07,.35-4.18,.04-6.44,.2,6.18,1.88,13.82,1.38,21.53-1.16,3.79-1.25,7.67-2.18,11.4-3.66,.82-.32,1.7-.48,2.53-.17,1.73,.64,2.56-.29,3.24-1.94,.44-1.07,.84-2.66,2.49-1.76,.33,2.99,.66,5.97,.98,8.96Z"/>
      <path class="cls-21" d="M60.82,117.42c.36-1.59-1.29-2.62-.94-4.21-1.97-3.71-2.14-7.94-2.54-12.05-.25-2.58-.11-5.21,0-7.82,.09-2.38-.55-4.91,1.12-6.97,1.07-.29,.8,1.07,1.5,1.48,.44-1.01,.25-2.19,.64-3.19,.27-.69,.27-1.85,1.44-1.23,.51,1.09,.39,2.22,.22,3.36-.43,1.27-.23,2.65-.5,3.94-.45,3.87-.39,7.75-.03,11.62,.81,9.54,3.22,18.56,6.97,27.14,1.17,3.5,3.25,6.46,4.68,9.8,3.86,6.86,8.71,12.72,14.13,18.05,4.76,4.68,10.33,7.75,15.98,10.73,.78,.41,1.63,.59,2.46,.81,1.25,.34,2.36,.92,2.93,2.34,.2,.7,.11,1.35-.26,1.96,0,0-.18-.07-.18-.07-5.97-1.93-11.39-5.27-16.8-8.56-2.14-1.3-4.08-3.13-5.88-4.98-4.28-4.39-8.94-8.36-12.31-13.78-2.15-4.07-4.3-8.13-6.43-12.21-.7-1.34-1.32-2.73-1.98-4.1-.93-4.24-3.28-7.86-4.21-12.09Z"/>
      <path class="cls-79" d="M184.7,146.3c-2.95,2.43-4.8,6.08-7.7,8.64-2.67,2.36-5.27,4.82-8.12,6.91-.98,.72-1.64,1.55-1.56,2.93-1.42-.76-.95-2.1-.81-3.33,1.73-2.92,4.6-4.36,6.86-6.6,5.26-5.23,9.25-11.52,12.68-18.32,1.53-3.04,3.26-5.95,4.55-9.14,3.58-6.72,5.45-14.04,6.04-21.81,1.05-4.98,.86-9.97,.14-14.98-.06-.43,.06-.86,.23-1.26,2.2-.45,1.7-2.29,1.34-3.77-.8-3.26-1.2-6.62-2.11-9.84-.34-1.22-.76-2.5,.15-3.69,1.66-.28,1.78,1.34,2.27,2.41,1.08,2.34,1.02,5.08,1.96,7.49,.83,5.59,1.32,11.2,1.24,16.9-.04,2.67-1.14,5.07-1.06,7.7-1.03,6.52-2.35,12.94-5.35,18.76-1.52,2.84-2.64,5.88-3.75,8.94-2.33,4.02-4.67,8.04-7,12.06Z"/>
      <path class="cls-16" d="M195.45,125.3c.04-1.71,.83-3.14,1.41-4.62,1.3-3.33,2.09-6.78,2.32-10.38,.08-1.26,1.21-2.07,.96-3.39,.62-.64,.19-2.12,1.28-2.29,1.22-.19,1.7,1.07,2.26,1.95,2.13,3.33,4.23,6.69,4.87,10.87,.33,1.93,1.1,3.76,.94,5.79,.07,3.14-.73,6.22-.5,9.38,.06,.88-.21,1.89-1.08,2.11-2.81,.72-3.81,2.92-4.03,5.86-.96-1.9-.71-4.1-.82-6.08-.27-4.71-1.8-8.75-3.99-12.61-.24-.42-.32-1.12-.9-1.05-.68,.09-1.09,.7-1.22,1.4-.22,1.22-.39,2.43-1.5,3.08Z"/>
      <path class="cls-37" d="M58.95,86.38c-1.42,2.09-.78,4.53-.93,6.84-3.06,1.76-3.8,5.27-5.06,8.4-.58,1.44-.96,3.23-2.89,3.17-.94-1.75-2.5-2.79-3.74-4.2,0-1.58,0-3.16,0-4.74,.59-4.12,1.56-8.09,2.9-12,.92-2.7,1.21-5.67,1.77-8.52,4.54-2.96,6.03-8.92,9.82-12.63,1.25,2.17,.42,4.34-.01,6.63,.83,.12,1.17-1.6,2.11-.7,.69,1.92-.35,3.52-.73,5.24-.86,2.61-1.5,5.28-1.63,8.08-.08,1.69-.33,3.29-1.61,4.42Z"/>
      <path class="cls-123" d="M50.07,104.8c2.46-1.65,2.75-4.74,3.74-7.32,.86-2.23,1.86-4.01,4.21-4.25-.26,5.23,.09,10.43,1,15.55,.26,1.48,1.11,2.82,.87,4.44-2.05-.92-3.22,.11-4.09,2.16-1.47,3.47-3.71,6.54-4.33,10.46-.34,.19-.68,.53-1.03,.55-2.79,.16-3.94,2.08-4.23,4.92-.19,1.83-2,1.72-2.69,2.95-.15-2.49,.96-4.68,1.29-7.07,.76-5.47,2.21-10.72,4.29-15.76,.86-2.08,1.14-4.33,.96-6.62Z"/>
      <path class="cls-129" d="M19.22,113.21c.06-2.03,1.39-3.26,2.34-4.73,.49,2.37-1.06,3.47-2.34,4.73Z"/>
      <path class="cls-93" d="M208.56,117.42c-.72-.34-1.15-1.07-1.21-1.81-.29-3.42-2.61-5.61-3.94-8.4-.85-1.78-1.96-3.05-3.26-.31-.2-3.22,.99-6.22,1.04-9.48,.07-5.32-1.01-10.48-1.05-15.76,.73-1.97,1.6-2.33,2.68-.98,.8,1,1.68,2.05,1.53,3.6,.56,1.78,.65,3.78,1.87,5.26,1.25,6.14,2.49,12.27,3.74,18.41,0,.35,0,.7,0,1.05-.38,1.94-.57,3.89-.48,5.88,.05,.99-.23,1.87-.93,2.53Z"/>
      <path class="cls-50" d="M166.94,161.05c.1,1.25-.29,2.56,.39,3.74,.14,1.74,.29,3.49,.43,5.23-1.95,.05-1.93,2.08-2.44,3.36-.58,1.46-1.27,1.91-2.49,1.31-1.23-.61-2.38-.44-3.61,.05-5.39,2.14-11.04,3.21-16.51,4.97-5.95,1.92-11.58,.07-17.34-.31-.19-.01-.38-.25-.72-.49,.59-.95,1.39-.99,2.22-.99,1.87,0,3.73-.05,5.6,.02,1.21,.04,2.14-.32,2.68-1.6,.08-.1,.17-.2,.25-.29,2.01-1.01,4.25,.17,6.26-.8,.19-.15,.39-.26,.6-.36,1.14-.42,2.44-.07,3.48-.96,.2-.1,.41-.18,.62-.23,.94-.15,1.92-.14,2.69-.92,1.2-.99,2.67-1.37,3.98-2.12,1.15-.66,1.13-1.29,.33-2.4-1.05-1.45-2.82-1.36-3.91-2.62,.08-1.74,1.31-1.67,2.21-1.47,1.87,.41,3.27-.34,4.72-1.52,2.47-2.02,5.55-2.73,8.17-4.46,.62-.41,1.35-.36,2,.11,.58,.84,.97,1.72,.38,2.77Z"/>
      <path class="cls-47" d="M77.65,34.84c-.68,.08-1.29-.17-1.87-.53,1.05-2.87,3.23-4.75,5.24-6.5,2.84-2.48,5.13-5.63,8.37-7.66,6.34-3.97,12.44-8.25,19.44-10.95,8.81-3.4,17.71-4.08,26.81-3.77,1.76,.06,3.54,.51,5.24,1.06,6.89,2.26,13.89,4.2,20.3,8,4.53,2.69,8.74,5.81,12.13,10.24,.77,1.01,2.25,1.33,3.06,2.32,3.87,4.72,8.56,8.66,11.14,14.63-2.54,1.23-3.29,.84-3.91-2.05-.11-.51-.12-1.12-.49-1.44-3.2-2.73-5.3-6.85-8.93-9.04-4.61-3.73-9.23-7.43-14.14-10.63-3.29-2.14-6.52-4.49-10.38-5.23-2.25-.43-3.96-2.48-6.28-2.73-6.82-1.73-13.7-1.55-20.61-.96-3.16,.27-6.24,.6-9.38,1.53-4.68,1.39-8.96,3.95-13.62,5.33-.97,.29-1.74,1.17-2.51,1.88-3.9,3.63-8.64,5.82-12.56,9.42-1.03,.94-1.99,1.92-2.89,3.02-1.25,1.51-2.27,3.36-4.16,4.05Z"/>
      <path class="cls-102" d="M174.43,28.53c2.03,1.43,3.93,3.01,5.42,5.19,.89,1.3,1.89,2.56,3.23,3.36,.55,.32,1.26,.65,1.13,1.48-.51,3.26,1.25,3.37,3.31,3.12,2.43,3,4.08,6.68,6.35,9.76,2.97,4.02,5.07,8.6,7.67,12.85,.32,2.17,.93,4.19,2.34,5.79-.55,4.01,1.31,7.78,.93,11.77-.08,.83,.23,1.75-.47,2.43-.52-.86-1.11-1.68-1.54-2.59-.91-1.94-1.77-1.53-2.67-.03-1.64-1.67-.71-4.29-1.81-6.22-.63-1.1-.59-2.67-1.93-3.26-1.19-.02-1.15-1.19-1.41-2-1.08-3.4-2.11-6.83-3.7-9.99-1.53-2.21-2.41-4.85-3.73-7.22-2.23-4.01-4.58-7.88-7.4-11.38-.46-.57-1.07-1.08-.75-2.02,1.71-.86,1.42-1.85,.16-2.94-2.03-1.75-2.98-4.6-5.09-6.29-.52-.42-.61-1.19-.06-1.82Z"/>
      <path class="cls-83" d="M77.65,34.84c3.78-4.7,7.4-9.52,12.86-12.08,2.61-1.22,4.68-3.68,6.99-5.57,1.8-1.47,3.83-1.79,5.7-2.78,4.29-2.27,8.9-3.52,13.4-5.11,2.09-.74,4.32-.29,6.48-.44,6.85-.47,13.75-1.1,20.48,1.26-.54,.69-1.25,.65-1.95,.54-5.02-.83-10.14-.64-15.14-.59-6.78,.07-13.54,1.34-20,4.44-4.71,2.26-8.64,5.85-13.18,8.32-.34,.19-.65,.47-.62,1.25,1.51-.07,2.73-1.74,4.32-1.15,.93,1.64-.55,1.96-1.22,2.34-4.32,2.47-8.03,5.88-11.78,9.25-.98,.88-1.82,1.88-2.69,2.87-5.59,5.34-9.48,12.13-12.97,19.26-.78,1.6-1.43,3.28-2.36,4.8-.73,.6-.8,1.6-1.18,2.42-.82,1.23-1.42,2.57-1.68,4.09-.09,.22-.23,.4-.4,.55-.53,.26-.81,.73-.97,1.36-.17,.7-.47,1.4-1.27,.94-.64-.38-.79-1.27-.44-1.81,1.26-1.97,.64-4.17,.8-6.27,1.76-3.64,2.79-7.67,4.89-11.13,1.14-1.87,1.23-4.58,3.53-5.49-.61-2.19,.92-2.75,1.91-4.1,1.21-1.64,2.82-3.23,3.48-5.46,.21-.7,.83-1.28,1.7-.87,.72,.35,1.21,.13,1.31-.83Z"/>
      <path class="cls-82" d="M149.65,165.77c2.38-.38,3.67,1.49,5.05,3.13,.9,1.08-.02,1.63-.66,1.97-1.59,.85-3.24,1.55-4.86,2.3-.8,.8-2.01,.22-2.8,1.05-.16,0-.31,0-.47,0-1.1,1.01-2.64,.03-3.74,1.05h0c-1.44,.99-3.03,.31-4.54,.53-.83,.12-1.69,.1-2.48,.52,0,0,0,0,0,0-3.35,0-6.72-.25-10.04,.07-3.84,.36-7.42-1.43-11.24-1.3-1.71,.06-3.38-1.6-5.26-1.88-.04-.71-.09-1.42-.13-2.13-.2-.41-.37-.83-.49-1.28-.59-2.27-.79-4.62-.96-6.97-.08-1.13-.24-2.62,1.52-2.42,.72,2.62,2.53,3.71,4.72,4.38,5.83,1.79,11.75,3.46,17.77,3.21,5.04-.21,10.15-.88,15.07-2.47,1.22-.39,2.4-.79,3.53,.23Z"/>
      <path class="cls-69" d="M61.74,86.86c0-1.21,.01-2.42,.02-3.63-.67-2.45,.63-4.56,.91-6.85,.39-1.6,.62-3.25,1.17-4.79,.32-.87,.51-1.87,1.49-2.17,.4,.18,.64,.57,.63,1.01-.03,2.3-.8,4.8,1.52,6.42,.27,.19,.18,.82,.05,1.25-1.55,4.83,1.19,7.98,3.66,11.03,1.24,1.53,2.2,2.98,2.8,4.95,.96,3.15,2.82,5.76,4.74,8.29,1.73,2.28,3.07,4.83,3.65,7.81-1.09,.73-1.86-.15-2.67-.71-1.09-.76-2.25-1.36-3.41-1.96-1.26-.37-1.98-2.72-3.74-1.3-.83,.63-.7,1.69-.98,2.58-.55,1.8-1.85,2.2-2.71,.6-1.5-2.78-4.65-4-5.38-7.43-.04-.18-.12-.43-.21-.41-3.52,.68-1.81-2.44-1.9-3.74-.27-3.64-.12-7.32,.36-10.96Z"/>
      <path class="cls-42" d="M61.74,86.86v14.56c1.39-.29,1.12-1.55,1.76-2.02,.81,.49,.62,1.37,.58,2.1-.08,1.3,.48,2.19,1.33,2.87,1.58,1.27,3,2.69,3.88,4.7,.21,.48,.53,.93,1.08,.76,.5-.16,.73-.67,.72-1.22-.04-1.39,.15-2.62,1.42-3.28,.83,2.86,.03,5.79,.28,8.67,.09,1.03-.06,2.06-.05,3.09-.19,4.94,1.39,9.45,2.73,14.01-.1,1.58,.56,3.36-.97,4.55-2.14,.34-3.33-1.21-4.51-2.85-.64-.87-1.11-1.85-1.65-2.78-4.02-8.57-6.58-17.62-7.04-27.35-.36-4.04-.37-8.07,0-12.11,.07-1.25-.32-2.57,.45-3.71Z"/>
      <path class="cls-110" d="M108.51,170.02c0,.36-.02,.71-.02,1.07-2.98-2-6.35-3-9.48-4.64-7.14-3.75-13.17-9.05-18.36-15.6-2.51-3.17-5.24-6.18-7.13-9.93-.22-.44-.36-.94-.54-1.41,.97-.31,1.42,.51,1.84,1.18,2.05,3.31,4.77,5.8,7.68,8.07,3.57,4.32,7.74,7.85,11.83,11.48,2.38,2.56,5.51,3.56,8.36,5.17,.77,.42,1.55,.93,2.39,1.02,2.01,.21,3.03,1.5,3.43,3.59Z"/>
      <path class="cls-108" d="M82.31,149c-3.38-1.66-5.74-4.62-7.88-7.85-.42-.64-.79-1.29-1.45-1.65-1.76-3.03-3.55-6.04-4.65-9.48,1.71,1.97,3.02,4.49,5.6,5.3,2.33,1.81,4.43,3.85,5.44,6.96,.46,1.43,1.39,2.51,2.16,3.72,.54,.86,1.51,1.68,.78,3Z"/>
      <path class="cls-106" d="M63.11,76.38c-.14,2.36-.84,4.59-1.35,6.86-.68,1.28-.87,2.69-.96,4.15-.05,.75,.41,1.99-.81,1.99-1.02,0-1.01-1.08-1.03-1.95,0-.34,0-.69-.01-1.03,1.14-3.5,.95-7.3,1.92-10.84,.18-.67,.36-1.33,.87-1.8,.68,.73,.93,1.75,1.38,2.64Z"/>
      <path class="cls-69" d="M61.29,90.57c0,4.04,0,8.07,0,12.11-.7-4.04-.66-8.07,0-12.11Z"/>
      <path class="cls-117" d="M197.37,89.01c-.28,1.67,.24,3.28,.51,4.85,.71,4.09-.1,8.01-.54,11.98-.73,1.01-.6,2.31-.95,3.45-.13,.42-.35,.84-.8,.75-.29-.06-.46-.43-.56-.78-.31-1.1-.14-2.25-.24-3.37,.39-4.65,.58-9.28-.9-13.77-.16-.79-.48-1.16-1.03-.35-.85,1.25-1.83,2.36-2.79,3.5-1.01,1.06-1.88,2.31-3.07,3.12-.63,.43-1.33,1.41-2.13,.2-.05-.26-.16-.56-.05-.77,1.62-3.15,1.5-6.67,1.81-10.11,.13-1.49,.34-2.92,0-4.4-.27-1.19-.32-2.43-.22-3.65,.41-5.06-.45-10.03-.82-15.03-.27-3.68,.72-7.47-.7-11.06,1.44-1.03,1.9,.46,2.37,1.35,1.38,2.62,2.81,5.21,3.97,7.96,1.96,5.33,3.95,10.63,5.26,16.23,.6,2.55,.59,5.2,1.31,7.72,.21,.74,.17,1.57-.43,2.19Z"/>
      <path class="cls-61" d="M197.37,89.01c-.91-7.52-2.44-14.85-5.28-21.79-.58-1.42-1.39-2.76-1.39-4.42,.37-1.04,.25-2.28,1-3.17,1.8,3.06,2.74,6.54,3.79,9.95,.27,.89,.31,1.87,.93,2.59,.31,4.15,1.61,8.05,2.4,12.08,.44,2.24,.43,4.35,.22,6.6-1.12-.2-.97-1.45-1.65-1.85Z"/>
      <path class="cls-136" d="M166.94,161.05c-.16-.86-.33-1.73-.49-2.59-.46-.72-.55-1.44,.05-2.13,1.15-.49,.51,1.57,1.48,1.31,5.36-4.47,9.78-9.93,13.75-15.9,2.9-4.36,5.19-9.09,7.38-13.92,.37-.81,.36-2.49,1.93-1.76,.29,.69,.1,1.31-.24,1.9-3.65,8.89-8.19,17.16-14.09,24.37-2.81,3.44-6.18,6.3-9.78,8.73Z"/>
      <path class="cls-76" d="M190.8,127.96c-.01-.74-.02-1.47-.03-2.21-.72-.99-.3-2,.02-2.95,1.71-4.95,3.16-9.97,3.6-15.29,.06-.73,.08-1.64,1.06-1.7v3.57c.63-1.23,.37-2.94,1.88-3.54,.13,3.46-.89,6.67-1.76,9.91-.87,3.24-1.61,6.53-3.01,9.55-.45,.98-.85,2.05-1.77,2.66Z"/>
      <path class="cls-118" d="M63.11,76.38c-1.55-.16-1.31-1.5-1.38-2.64,0-1.82,1.19-3.36,.97-5.23,.01-.16,.02-.32,.02-.48,.65-1.4,.9-3,1.81-4.26,.14-.95-.16-2.11,.99-2.56,.36,1.09,1.4,1.09,2.09,1.66,.17,2.56-.76,4.65-2.15,6.56-1.42,2.05-1.32,4.74-2.34,6.96Z"/>
      <path class="cls-5" d="M166.95,156.34c-.67,.55-.39,1.39-.5,2.11-3.77,1.21-7.34,2.98-10.56,5.46-1.18,.91-2.03,1.52-3.51,.99-.84-.3-2.2-.88-2.72,.86-2.73,.21-5.37,.88-7.93,1.96-.21,.09-.46,.17-.68,.14-3.97-.65-7.72,1.62-11.67,1.07-3.45-.47-6.87-1.08-10.29-1.87-2.62-.6-5.14-1.39-7.7-2.17-2.31-.7-3.16-1.85-2.86-4.36,.58-.65,1.26-.59,1.96-.36,2.01,1.25,4.16,1.62,6.46,1.73,3.38,.15,6.67,1.25,10.12,1.04,2.79-.16,5.57-.14,8.28-.98,7.35-.02,14.17-2.83,21.07-5.13,3.34-1.11,6.51-2.79,9.84-3.94,.25,.1,.45,.28,.58,.55,.31,.95,.73,1.89,.11,2.88Z"/>
      <path class="cls-107" d="M135.16,176.33c2.17-1.75,4.66-.81,7.01-1.05-.17,1.25-1.03,1.04-1.77,1.04-1.75,.02-3.5,0-5.25,0Z"/>
      <path class="cls-107" d="M142.17,175.28c.93-1.78,2.47-.79,3.74-1.05-.93,1.78-2.47,.79-3.74,1.05Z"/>
      <path class="cls-107" d="M146.38,174.22c.61-1.44,1.79-.96,2.8-1.05-.61,1.44-1.79,.96-2.8,1.05Z"/>
      <path class="cls-9" d="M97.31,23.29c-1.38,0-2.54,.63-3.66,1.47-.64,.48-1.5,1.04-2.07,.06-.59-1.01,.08-2.07,.81-2.39,4.79-2.07,8.47-6.24,13.32-8.37,4.31-1.89,8.67-3.46,13.15-4.1,7.81-1.11,15.7-.7,23.55,.14,.39,.04,.78,0,1.17,.01,.46,.03,1-.11,1.38,.1,4.95,2.76,10.51,3.93,15.19,7.39,4.81,3.56,9.7,6.99,14.29,10.91,.02,.51-.08,1.15,.37,1.43,2.58,1.6,3.42,5.06,5.81,6.88,.59,.45,1.45,1.1,1.16,2.05-.36,1.21-1.47,.48-2.23,.7-2.07-.2-2.9-2.36-4.34-3.55-1.04-.86-1.81-2.12-3-2.82-4.02-3.45-7.99-7.01-12.82-9.01-10.57-6.15-21.81-9.13-33.68-8.53-6.9,.35-13.72,1.62-20.2,4.57-.72,.33-1.48,.5-2.21,.79-2.06,.48-3.69,2.45-5.97,2.23Z"/>
      <path class="cls-8" d="M172.56,32.79c2.7,1.79,4.51,4.71,6.98,6.81,3.47,4.41,6.6,9.1,9.18,14.24,.98,1.94,1.98,3.87,2.97,5.81-.19,1.11,.7,2.66-1,3.17-1.57-2.23-2.46-4.89-3.78-7.28-.48-.87-.85-1.85-1.69-2.4-3.52-5.21-7.38-10.07-11.57-14.61-1.04-1.13-2.45-1.88-3.09-3.47,.39-1.06,1.25-1.61,2-2.26Z"/>
      <path class="cls-39" d="M97.31,23.29c1.88-.87,3.62-2.15,5.64-2.63,1.77-.26,3.52-.79,5.05-1.72,1.92-1.17,3.31-1.18,4.34,1.19-.15,1.28-1.17,1.21-1.9,1.51-2.23,.93-4.55,1.57-6.73,2.64-4.18,1.62-7.81,4.51-11.82,6.51-2.85,1.33-5,3.78-7.33,5.93-.79,.74-1.58,1.47-2.63,1.55-.71,.05-1.6,.06-.97-1.27,3.69-4.43,8.03-7.94,12.61-11.1,1.25-.86,2.67-1.44,3.75-2.62Z"/>
      <path class="cls-52" d="M80.96,37c1.05,1.59,1.98,.35,2.68-.32,2.16-2.04,4.28-4.13,6.68-5.85,.46-.33,.83-.77,1.43-.67,.01,1.73-1.28,2.26-2.25,3.06-6.06,5.03-11.38,10.86-15.37,18.11-2.15,3.18-3.58,6.87-5.67,10.09-.32,.49-.49,1.09-1.07,1.29-1.78,1.29-2.1,.29-1.88-1.53,3.16-7.31,6.96-14.16,11.67-20.36,1.12-1.47,2.33-2.79,3.78-3.83Z"/>
      <path class="cls-37" d="M64.52,63.76c-.55,1.45-.42,3.26-1.81,4.26-.14-1.82,.49-3.22,1.81-4.26Z"/>
      <path class="cls-145" d="M110.38,160.56c-.62,0-1.24,0-1.86,0-1.54,.45-.91,1.78-.81,2.78,.2,2.23,.53,4.46,.8,6.68-.82-1.75-1.99-2.86-3.86-3-.8-.06-1.66-.39-2.22-1.21-1.48-2.93-4-4.38-6.36-6.24-3.21-2.52-6.32-5.37-8.59-9.09-1.33-2.17-3.06-3.94-4.48-6.03-1.54-2.26-2.03-4.97-.89-6.17,1-1.06,3.6-.54,5.35,1.09,.54,.5,1.14,1.01,1.43,1.71,1.18,2.92,3.6,3.98,5.96,5.06,2.6,1.19,4.98,2.82,7.35,4.48,2.33,2,4.59,4.04,7.35,5.37,2.32,1.12,2.43,2.51,.84,4.55Z"/>
      <path class="cls-43" d="M76.25,106.9c1.72,.24,3.02,1.49,4.43,2.43,.54,.36,.99,.78,1.65,.7,.88-.81,1.74-.4,2.61,.05,1.12,.59,2.2,1.29,3.39,1.7,3.17,.84,3.71,4.21,4.93,6.79,2.63,5.58,6.35,10.1,10.2,14.59,4.31,5.03,9.35,9.03,14.51,12.71,4.5,3.2,9.5,5.57,14.61,7.48,.67,.25,1.83,.13,1.58,1.62-.78,.61-1.63,.45-2.46,.21-2.77-.79-5.42-2.01-8.12-3.01-4.19-1.54-8.04-3.85-12.08-5.72-4.34-3.32-8.83-6.37-12.82-10.34-4.34-4.32-8.13-9.16-11.79-14.13-1.8-2.44-4.48-4.5-4.5-8.26,0-.36-.22-.7-.52-.8-1.81-.61-2.78-2.5-4.31-3.53-.62-.71-1.57-1.2-1.29-2.5Z"/>
      <path class="cls-97" d="M76.25,106.9c.47,.7,.93,1.41,1.4,2.11,1.28,.94,2.13,2.24,2.67,3.85,.49,1.48,1.09,2.91,2.36,3.8,.2,.14,.46,.29,.51,.52,1.21,4.59,4.91,7.18,7.04,11.08,1.36,2.49,3.89,4.09,5.52,6.55,1.74,2.64,4.05,4.73,5.78,7.43,1.21,1.88,3.27,2.89,4.57,4.78,.44,.65,1.37,.98,1.01,2.11-1.84,.82-3.22-.47-4.68-1.32-.88-.52-1.53-1.42-2.38-2.01-5.35-3.97-9.53-9.48-14.46-13.97-4.13-3.77-6.77-8.82-10.33-13.04-.94-1.12-1.9-1.61-3.21-1.34,.16-4.03-.44-8.09,.44-12.09,1.97-1.65,2.53,.96,3.76,1.57Z"/>
      <path class="cls-72" d="M88.4,112.16c-1.45,.32-2.51-.79-3.66-1.41-.81-.43-1.55-.73-2.42-.73-1.98-4.13-4.67-7.74-6.93-11.67-.08-.14-.26-.24-.3-.39-1.62-5.57-5.86-9.3-8.05-14.46-.72-1.7-1.44-3.43-.15-5.35,.95-1.41-.38-2.25-1.17-2.47-1.27-.35-1.47-1.27-.92-2.03,.98-1.37,.6-2.8,.65-4.24,.19-2.4,1.83-4.26,1.94-6.69,1.93-4.07,3.82-8.17,6.45-11.76,.61,.48,.64,1.21,.4,1.85-.71,1.92-.83,4.02-1.45,5.96-.22,.69-.63,1.18,.58,.95,.53-.1,.59,1.04,.58,1.74-1.12,3.59-2.63,6.99-3.44,10.73-.68,3.14-.96,6.3-1.32,9.47-1.35,1.33,.04,2.62,.51,3.15,1.61,1.79,3.02,3.89,5.03,5.2,2.23,.94,4.23,2.09,4.55,5.2,.08,.75,.63,1.39,1.09,1.99,2.41,3.13,4.35,6.57,5.7,10.43,.48,1.37,1.35,2.3,2.61,2.8,.77,.31,1.79,.56,1.05,1.95-.49,.29-.93,.19-1.34-.2Z"/>
      <path class="cls-108" d="M72.05,117.42c1.2-1.41,1.82-1.23,3.15,.35,2.46,2.91,4.25,6.36,6.65,9.26,2.24,2.71,4.79,5.09,7.24,7.57,3.6,3.65,7.11,7.42,11,10.69,.72,.98,1.2,2.14,1.78,3.22,.43,.8,.78,1.68,.09,2.57-3.56-2.05-6.94-4.5-10.78-5.9-1.08-.4-1.62-1.55-2.16-2.65-1.11-2.25-2.69-3.75-5.07-4.13-1.62-.26-2.05,.33-1.92,2.12,.2,2.89,2.26,4.35,3.57,6.38,2.41,3.72,5.36,6.89,8.29,10.09,1.25,1.37,2.63,2.51,4.23,3.2,2.38,1.03,3.78,2.87,4.3,5.63-3.02-1.33-6.16-2.4-8.42-5.26-1.02-2.15-2.92-3.33-4.51-4.73-5.13-4.52-8.48-10.54-11.77-16.66-1.36-2.53-2.55-5.1-2.88-8.07-1.65-4.37-2.95-8.83-2.79-13.67Z"/>
      <path class="cls-145" d="M74.85,131.09c1.23,2.32,1.9,4.92,3.14,7.28,3.18,6.08,6.46,12,11.45,16.46,1.63,1.46,3.18,3.04,4.73,4.59,.38,.38,.98,.95-.16,1.13-4.1-2.84-7.46-6.71-11.1-10.19-.32-.3-.4-.9-.6-1.36-2.45-3.67-3.43-8.46-6.9-11.38-.64-.54-1-1.52-1.49-2.29,1.83-.99,.54-2.85,.92-4.23Z"/>
      <path class="cls-116" d="M170.84,34.83c3.88,3.83,7.61,7.83,10.9,12.3,1.35,1.83,2.85,3.61,3.47,6,0,.35-.15,.85,0,1.02,2.18,2.43,1.05,5.23,.99,8.04-.07,3.65,.26,7.38,.9,10.96,.51,2.84-.23,5.51-.08,8.26,.11,2.03,.64,3.93,.38,6.13-.46,3.92-.61,7.85-2.22,11.48-.71,2.12-2.35,2.79-4.08,3.32-.98,0-1.71,1.03-2.74,.83-.4-.09-.74-.27-.9-.74-.1-.44-.12-.89,.02-1.29,2-5.52,2.33-11.37,2.66-17.21,.14-2.37,.09-4.7-.21-7.06-.73-5.71-1.2-11.44-1.38-17.2,.85-2.29,.59-4.52-.33-6.71-4.43-10.62-11.34-18.47-20.63-23.78-1.08-.62-2.78-.89-2.74-2.97,.92-.78,1.94-1.02,3.06-.77,4.03,1.23,7.39,3.86,10.69,6.57,.89,.73,2.02,1.35,2.23,2.82Z"/>
      <path class="cls-18" d="M166.95,156.34c-.14-.88-.27-1.77-.41-2.65-.49-2.35,.51-3.92,2.05-5.34,5.95-5.49,10.1-12.44,13.41-20.21,3.51-8.26,5.21-16.98,6.18-25.96,.01-2.62-.07-5.27,1.68-7.39,.92-1.26,1.81-2.55,2.76-3.79,.64-.84,1.33-1.35,1.84,.16-.76,.67-.86,1.56-.8,2.58,1.16,18.07-4,34.08-13.04,48.63-3.01,4.83-7,8.85-10.8,12.98-.83,.9-1.85,1.65-1.9,3.15-.31,.43-.69,1.2-.97,.07-.17-.69-.02-1.48,0-2.23Z"/>
      <path class="cls-144" d="M189.86,94.8c-.95,2.54-1.06,5.2-.94,7.9-.59,.36-.96,.9-.95,1.68,.04,3.71-1.79,6.78-2.82,10.11-1.34,4.35-2.74,8.72-5.97,11.91-.63,.62-.8,1.45-.63,2.39,.26,1.44-.23,2.68-1.2,3.49-2.1,1.76-3.22,4.23-4.08,6.86-.7,2.14-1.94,3.53-3.85,4.2-1.06,.37-1.98,.81-2.26,2.29-.37,1.94-1.35,1.88-2.48,.65-.33-.43-.53-.92-.61-1.48-.06-.42-.05-.83,0-1.25,1.21-3.1,3.62-5.19,5.26-7.95,3.37-5.68,6.74-11.33,8.3-18.09,1.04-4.48,2.59-8.83,2.32-13.59-.05-.92,.39-1.67,1.04-2.25,1.77-.13,2.79-1.79,4.2-2.65,1.83-1.02,3.04-2.92,4.67-4.22Z"/>
      <path class="cls-77" d="M167.92,158.5c-1.3-1.61,.13-2.34,.89-3.13,4.13-4.33,8.15-8.81,11.54-13.88,4.9-7.32,8.13-15.64,10.46-24.38,2.11-7.89,2.93-15.95,1.98-24.18-.17-1.51,.56-1.83,1.66-1.77-.03,1.79,.78,3.34,1.13,5.02,.68,3.24-.26,6.42-.12,9.62-.88,5.07-1.49,10.2-3.24,15.04-.57,1.59-1.42,3.1-1.45,4.9-1.53,3.22-2.95,6.51-4.61,9.65-4.76,9.01-10.72,16.84-18.24,23.11Z"/>
      <path class="cls-36" d="M111.31,145.82c1.04-.02,2.01,.34,2.86,.93,5.36,3.73,11.39,5.49,17.3,7.61,.91,.33,1.81,.42,2.74,.4,.46-.46,1.01-.45,1.54-.3,3.6,1.02,7.31,.89,10.89,.48,4.92-.56,9.8-1.77,13.96-5.2,2.79-2.3,3.98-2.44,5.75-.91,.66,1.44,.47,2.9,.11,4.37-5.49,3.27-11.43,5.42-17.37,7.01-4.36,1.17-8.74,3.42-13.47,2.43-.13-.46,.1-.73,.39-.98,.85-.66,1.94-.54,3.08-1.21-1.2-.67-2.28-.76-3.4-.7-1.97,.09-3.93-.26-5.65-1.23-4.08-2.31-8.29-4.27-12.43-6.43-2.06-1.08-3.73-3.05-5.67-4.48-.49-.36-.92-.97-.65-1.79Z"/>
      <path class="cls-64" d="M136.1,162.13c-.16,.17-.31,.35-.47,.52-4.69,1.79-9.67,1.66-14.28,.76-3.35-.66-6.98,.31-10.12-1.78-.44-.29-.79-.48-.85-1.06,1.19-2.18,.48-3.54-1.51-4.27-2.75-1-4.86-3.04-6.9-5.21,.06-1.18-.33-2.2-1.06-2.99-.74-.8-.87-1.74-.81-2.79,2.32,1.26,4.15,3.71,7.01,3.68,.76-.11,1.35,.34,1.93,.78,5.91,4.48,12.85,6.1,19.41,8.75,2,.81,4.29,.71,6.37,1.47,.95,.35,1.81,.71,1.29,2.15Z"/>
      <path class="cls-10" d="M166.47,153.2c.14-1.45-.09-2.85-.46-4.23-.33-1.04-1.94-1.6-.94-3.14,1.41,1.08,1.7,1.03,1.51-.16-.36-2.28,1.16-2.53,2.32-2.87,1.99-.6,3.13-1.8,3.86-4.01,.87-2.62,1.79-5.32,4.19-6.91,.71-.47,1.69-1.72,1.13-2.63-1.17-1.91,.14-2.81,.99-3.68,3.47-3.57,4.41-8.57,6.13-13.14,1.01-2.69,2.09-5.32,2.33-8.28,.07-.89,.59-1.4,1.41-1.44-.91,4.12-1.01,8.4-2.05,12.5-2.77,10.97-6.75,21.17-13.94,29.52-1.29,1.5-2.4,3.15-4.01,4.26-1.57,1.07-1.96,2.92-2.38,4.73-.04-.16-.06-.33-.07-.49Z"/>
      <path class="cls-96" d="M112.23,20.12c-.38-.3-1.12,.67-1.28-.8-.17-1.59-1.38-.72-2.11-.31-1.86,1.06-3.73,2.01-5.89,1.65,18.14-8.49,36.12-7.44,53.95,1.23,1.05,.51,2.02,1.27,3.02,1.91-.67,1.66-2.18,.98-3.26,1.49-4.17-1.65-8.25-3.65-12.61-4.61-6.57-1.46-13.16-2.39-19.91-1.55-3.32,.41-6.66,.54-9.93,1.37-.69,.17-1.4,.21-1.98-.39Z"/>
      <path class="cls-62" d="M157.1,24.9c.56-1.61,2.08-.08,2.82-1.1,4.81,1.93,8.72,5.46,12.64,8.98-.14,1.14-.71,1.83-1.72,2.04-3.98-3.53-8.1-6.82-12.88-8.89-.14-.5-1.09-.14-.86-1.03Z"/>
      <path class="cls-112" d="M73.44,61.13c-.01-.26,.04-.56-.05-.77-.3-.67-.35-.09-.45,.15-.22,.55-.45,1.27-1.13,.79-.55-.39-.19-.92-.03-1.53,.78-2.9,1.39-5.87,2.05-8.81,2.24-4.85,5.49-8.81,9.04-12.43,2.85-2.91,5.9-5.59,8.86-8.37,3.89-2.03,7.36-5.02,11.53-6.41,1.11,.24,3.24-1.96,2.99,1.57-.24,.54-.63,.89-1.14,1.08-2.31,.47-4.52,1.14-6.02,3.42-.9,1.41-2.33,2.02-3.53,2.96-8.87,6.93-15.63,15.94-20.69,26.62-.33,.69-.31,1.83-1.43,1.72Z"/>
      <path class="cls-141" d="M105.75,25.53c.66-3.23-1.71-1.08-2.48-1.77,2.98-1.21,5.97-2.43,8.95-3.64,5.94-1.52,11.96-2.06,18.03-2,9.38,.09,18.33,2.34,26.84,6.79,.29,.34,.58,.69,.86,1.03-1.11,.19-2.22,.39-3.34,.58-1.42,.66-2.57-.32-3.77-.83-7.19-3.1-14.58-5-22.32-4.78-6.74,.19-13.3,1.54-19.66,4.08-1,.4-1.97,1.14-3.12,.55Z"/>
      <path class="cls-124" d="M165.06,145.83c-.25,1.26,.93,1.98,.94,3.14-2.14-1.55-3.69,.2-5.1,1.43-4.23,3.68-9.27,4.7-14.27,5.28-4.1,.48-8.36,.7-12.41-.93-5.43-2.02-10.67-4.62-15.68-7.65-3.52-2.12-6.76-4.93-9.87-7.78-4.87-4.46-9.39-9.37-13.05-15.16-1.82-2.88-3.71-5.79-4.43-9.31-.38-1.84-2.46-1.04-2.79-2.7,.47,0,.94,0,1.4-.01,1.29-.75,2.22,.57,3.35,.73,1.7,1.12,1.64,3.5,2.85,5.01,2.34,2.93,4.49,6.04,6.56,9.22,1.77,2.71,4.17,4.77,6.45,6.8,4.85,4.33,9.6,8.88,15.47,11.57,2.94,1.34,5.69,3.14,8.72,4.33,3.37,1.33,6.7,1.8,10.25,1.71,3.77-.09,7.44-.31,10.95-1.97,2.52-1.18,4.78-2.9,7.21-4.27,.94-.53,1.83-1.49,2.98-.52,.02,.43,.1,.82,.46,1.05Z"/>
      <path class="cls-104" d="M136.1,162.13c-.17-2.08-1.88-1.87-2.87-1.94-4.24-.3-8.15-2.04-12.04-3.53-4.92-1.89-10.06-3.57-14.08-7.68-1.84-1.54-3.23-3.61-5.09-5.19-1.77-1.5-2.89-3.91-4.58-5.7-2.37-2.5-3.89-5.85-6.7-8.03-1.55-1.2-2.43-3.51-3.58-5.34-.9-1.43-1.74-2.89-3.17-3.78-.39-.24-1-.83-.94-1.07,.75-2.81-2.13-3.17-2.69-5.15-.58-2.04-1.26-4.14-2.71-5.72,2.09,.46,2.76,3.69,5.24,3.41,.09,0,.35,.47,.3,.63-1.29,3.86,2.04,5.45,3.46,7.54,2.21,3.27,4.41,6.77,7.22,9.48,3.97,3.82,7.21,8.56,12.05,11.33,1.89,1.08,3.65,2.85,5.39,4.42,2.62,2.47,5.08,5.11,8.44,6.46,2.81,1.13,5.53,2.64,8.16,4.26,2.63,1.62,5.27,2.72,8.32,2.46,1.47-.12,2.88,.42,4.32,1.21-1.18,1.83-3.05,1.19-4.45,1.91Z"/>
      <path class="cls-98" d="M105.75,25.53c9.58-4.59,19.6-6.18,29.89-5,6.58,.76,12.92,2.93,18.98,5.99,4.66,2.95,9.38,5.81,13.44,9.79,4.63,4.55,8.17,10.03,10.58,16.41,.3,.57,.46,1.21-.15,1.56-.47,.27-.83-.25-1.14-.64-.15-.2-.28-.42-.37-.66-1.94-4.77-4.96-8.54-8.51-11.85-.41-.39-.75-.87-1.11-1.33-.88-1.26-2-2.2-3.17-3.08-6.75-5.13-13.8-9.59-22.02-10.82-6.8-1.02-13.59-1.12-20.47-.28-8.22,1-15.12,5.6-22.36,9.31-3.46,1.77-6.84,3.81-9.56,6.87-3.51,3.95-7.07,7.86-9.64,12.71-2.26,3.82-4.28,7.8-6.25,11.81-1.39,2.84-2.11,5.94-2.2,9.2-.46,3.04-.88,6.05,.84,8.85,.44,.72,.37,1.53-.58,1.84-1.9-.51-2.62-2.17-3.11-4.05-.76-5.23,1.04-9.97,2.31-14.79,.57-2.15,1.52-4.16,2.3-6.24,5.83-13.13,14.12-23.76,25.29-31.47,1.62-2.06,3.93-2.73,6.05-3.76,.33-.12,.65-.25,.98-.37Z"/>
      <path class="cls-58" d="M93.08,113.21c-1.29,.41-2.13-.88-3.27-1.06-.08-.24-.14-.69-.24-.7-3.01-.3-3.99-2.89-4.85-5.51-1.06-3.25-3.08-5.77-4.91-8.43-.87-1.26-1.6-2.55-1.7-4.19-.06-.97-.31-1.74-1.43-1.41-1.1,.33-1.2-1.6-2.3-1.32-.16-.22-.24-.47-.24-.75,.62-2.25,.04-4.94,1.96-6.7,.16-.05,.4-.09,.43,.01,.88,2.63,2.81,3.93,4.92,5.03,.14,.07,.28,.2,.33,.36,1.62,4.6,5.54,7.41,7.33,11.85,1.12,2.77,1.94,5.72,2.71,8.61,.47,1.78,2.23,2.44,2.2,4.32-.34,.23-.65,.18-.95-.1Z"/>
      <path class="cls-69" d="M74.44,89.89c-.02,.23-.04,.47-.07,.7-1.71-.4-1.87-2.81-3.3-3.36-1.96-.76-2.16-2.74-2.93-4.36-.53-1.12,.12-.88,.68-.71,.89,1.24,1.79,2.49,2.68,3.73,1.51,.84,2.84,1.85,2.93,4Z"/>
      <path class="cls-135" d="M179.09,59.08c.59,6.28,1.17,12.57,1.65,18.85,.49,6.42,.33,12.99-1.51,19.29-.53,1.81-1.02,3.63-1.53,5.45-.7,.82-1.62,1.2-2.52,1.64-.89,.2-1.77,.25-2.58-.34-.43-2.02,.77-3.61,1.25-5.34,2.92-10.53,1.6-20.66-1.72-30.73-1.1-3.35-2.06-6.77-3.1-10.15-.55-1.79-.02-3.14,1.69-3.6,.88-.23,1.61-.54,1.98-1.53,3.42,.53,4.99,3.41,6.4,6.46Z"/>
      <path class="cls-148" d="M175.37,103.73c.6-.85,1.38-1.2,2.34-1.07,.31,0,.62,.01,.94,.02-3.25,6.8-3.65,14.65-6.35,21.69-1.79,4.65-4.15,8.79-6.79,12.78-.89,1.33-1.72,2.71-2.59,4.05-.97,.71-2.24,.83-3.07,1.83-3.07,3.68-7.19,5.07-11.25,6.62-2.35,.9-4.84,.86-7.17,.41-4.37-.84-8.49-2.52-12.37-5.14-3.45-2.32-7.09-4.29-10.32-7.03-4.22-3.58-8.49-7.09-11.78-11.84-1.01-1.46-2.15-2.77-3.48-3.86-.76-.61-1.37-1.37-1.77-2.32-.68-1.61-1.08-3.39-2.51-4.5-.4-.31-.33-.92,.04-1.37,.55-.44,1.19-.45,1.82-.51,1.01-.01,2.03-.06,3.02,.27,1.67,.95,2.74,2.54,3.58,4.36,2.55,5.52,6.1,10.11,10.35,14.04,4.68,4.34,9.24,8.91,14.73,11.91,6.68,3.65,13.66,4.95,20.64,1.03,4.05-2.28,6.95-6.12,9.21-10.47,1.69-3.24,3.96-6.03,5.26-9.58,1.95-5.34,4.09-10.58,5.35-16.21,.41-1.84,.78-3.78,2.19-5.12Z"/>
      <path class="cls-17" d="M179.09,59.08c-1.96-2.17-3.66-4.63-5.95-6.42-1.26-.3-1.97-1.22-2.3-2.57-1.25-1.89-2.66-3.6-4.38-4.96-4.53-3.6-9.36-6.91-14.67-8.36-4.93-1.35-9.6-4.12-14.87-3.92-1.02,.04-2.6-.06-2.6-1.51,0-1.57,1.56-1.38,2.6-1.4,6.55-.14,12.92,.51,19.13,3.41,4.04,1.89,8.02,3.83,11.83,6.23,3.33,3.29,6.62,6.61,8.74,11.1,.43,.91,.78,1.87,1.21,2.78,.11,.23,.32,.76,.65,.26,.16-.24,.11-.66,.16-1,.73,2.07,2.16,4.07,.45,6.36Z"/>
      <path class="cls-56" d="M162.74,141.09c-.09-.95,.32-1.64,.87-2.32,6-7.43,9.02-16.54,11.46-25.96,.39-1.49,.58-3.06,.79-4.6,.31-2.25,.85-4.33,2.79-5.52,.88-.05,1.31-1.42,2.35-1.03-1.01,2.66-.23,5.52-.79,8.28-2,9.87-5.36,18.95-10.98,26.99-1.55,2.22-3.64,4.04-4.6,6.78-1.15,.25-1.61-.68-2.1-1.56-.09-.4-.03-.76,.23-1.07Z"/>
      <path class="cls-25" d="M162.74,142.14c.62,.53,1.24,1.05,1.86,1.58,0,.35,0,.71,0,1.06-2.77,.5-4.9,2.55-7.28,3.94-3.28,1.91-6.6,3.32-10.31,3.42-2.32,.06-4.64,.31-6.94,.12-5.19-.43-9.73-3.03-14.44-5.33-5.65-2.76-10.49-6.74-15.28-10.87-4.25-3.66-8.09-7.79-11.23-12.78-2.09-3.31-4.71-6.19-6.04-10.07,.31,0,.63-.01,.94-.02,2.01-1.44,3.61-.39,5.14,1.07,2.72,1.52,2.13,5.71,4.68,7.37,4.74,7.4,10.71,13.33,17.25,18.62,5.23,4.23,10.72,7.73,17.05,9.42,5.16,1.37,10.21,1.14,15.04-1.4,2.72-1.43,5.67-2.54,7.56-5.5,.43-.67,1.11-1.32,2-.63Z"/>
      <path class="cls-141" d="M104.78,25.9c-2.02,1.26-4.03,2.51-6.05,3.76,1.25-2.81,3.62-3.35,6.05-3.76Z"/>
      <path class="cls-73" d="M167.89,39.57c-2.42-.95-5.28-1.45-7.15-3.01-3.55-2.96-7.69-3.72-11.58-4.9-4.56-1.39-9.48-1.51-14.28-.75-.1,.02-.18,.26-.35,.52,.59,.26,1.16,.75,1.69,.7,4.34-.4,8.07,2.38,12.09,2.95,4.39,.62,8.19,2.75,11.81,4.84,3.24,1.87,7.06,3.5,9.28,7.35,.44,.76,1.32,1.18,1.97,1.8,.67,.64,.43,.99-.34,1.09-1.41,.23-2.33-.87-3.27-1.68-2.53-2.18-5.32-3.87-8.11-5.55-.83-.38-1.63-.83-2.46-1.22-1.39-.76-2.98-.91-4.34-1.76-5.12-2.06-10.28-3.85-15.82-3.82-6.82,.05-13.67-.36-20.28,2.19-2.57,.99-5.16,1.9-7.66,3.08-4.47,2.34-8.89,4.78-12.4,8.82-.33,.31-.7,.54-1.08,.75-.75,.35-1.41,.85-1.97,1.52-1.12,.93-2.13,1.99-2.93,3.28-1.29,1.47-2.23,3.29-3.63,4.65-.39,.57-.8,1.12-1.18,1.71-2.3,3.18-3.77,6.92-5.53,10.46-.95,2.46-1.93,4.91-3.01,7.3-.31,.69-.46,1.49-1.14,1.89-1.64-1.01-.72-2.51-.33-3.61,1.46-4.21,2.74-8.52,5.06-12.28,1.97-3.75,3.98-7.51,6.5-10.83,3.2-4.24,6.27-8.67,10.14-10.83-3.93,.91-7.44,4.41-11.18,7.46-2.04,1.67-4.28,2.73-6.87,2.62,.85-2.17,2.31-3.85,3.62-5.66,2.87-3.97,6.1-7.58,9.66-10.7,2.01-1.76,4.48-2.9,6.82-4.12,4.83-2.52,9.69-4.96,14.57-7.34,3.4-1.65,7.15-1.73,10.7-2.01,6.94-.54,13.99-.59,20.8,1.44,5.35,1.59,10.48,3.9,15.1,7.49,2.46,1.92,5.28,3.3,7.09,6.16Z"/>
      <path class="cls-24" d="M79.53,54.31c4.89-1.49,8.71-4.89,12.62-8.34,2.02-1.78,5.02-2.15,7.67-2.93-7.69,5.42-13.03,13.12-17.49,21.73-.22,.43-.62,.74-.94,1.1-1.15-.52-1.9,.16-2.63,1.03-1.64,1.92-2.83,4.42-5.44,5.07-.69,.17-.62,1.11-.76,1.78-.18,.83-.31,1.79-1.42,1.6,.14-3.78,1.14-7.17,2.84-10.51,1.8-3.55,3.62-7.08,5.57-10.52Z"/>
      <path class="cls-22" d="M71.13,75.34c.57-3.09,2.82-4.29,4.85-5.94,1.29-1.05,2.22-2.83,3.42-4.18,1.02-1.14,1.72-1.12,1.99,.64-1.85,3.76-3.28,7.73-4.67,11.71-.44,1.26-1.31,2.59-.46,4.09,.4,.52,.39,1.04,0,1.56-1.43,1.94-.62,4.64-1.81,6.66-.73-1.56-1.9-2.71-2.93-4,.54-.16,1.26-.35,.61-1.15-2.35-2.89-1.56-6.15-1-9.4Z"/>
      <path class="cls-6" d="M76.25,83.23c0-.52,0-1.04,0-1.56,.85-3.36,2.3-6.43,3.7-9.52,.16-.05,.38-.09,.43,.02,1.02,2.18,1.99,2.64,4.46,2.08,.46-.1,.9-.25,1.35-.38,2.88-.82,4.07-.29,4.31,3.07,.34,4.86,2.08,9.28,2.87,13.97,1.15,6.83,3.69,13.1,5.79,19.56,.45,1.39,1.95,2.08,1.87,3.77-.62,0-1.25,.02-1.87,.03-1.78,.05-3.27-1.68-5.14-1.07-3.25-2.35-3.38-6.55-4.64-10.05-1.43-3.96-3.24-7.57-6.27-10.27-.36-.32-.84-.56-1.04-.97-1.69-3.41-1.67-3.43-4.83-5.16-.55-.3-.48-.81-.52-1.31-.06-.76,.19-1.6-.47-2.19Z"/>
      <path class="cls-13" d="M159.91,42.38c3.96,2.12,7.38,5.24,11.12,7.77,.57,.98,1.73,1.33,2.12,2.51-.85,.81,.41,1.37,.06,2.26-.55,.08-1.14-.48-1.93-.29-1.86,.45-2.28,1.24-1.6,3.27,1.64,4.86,3.41,9.7,4.59,14.71,2.06,8.73,2.99,17.58,.12,26.41-.53,1.62-.48,3.5-1.83,4.71-.8,.83-1.66,1.48-2.83,1.28-.33-.22-.55-.53-.59-.98,3.11-6.4,4-13.15,3.45-20.45-.6-8.03-2.83-15.29-6.88-21.74-4.26-6.78-10.06-10.81-17.79-10.5-3.94,.16-7.87-.5-11.84,.45-10.24,2.43-19.22,6.67-24.59,17.78-2.47,5.1-3.87,10.48-5.19,15.97-.36,1.49,.06,2.96,.06,4.45,0,7.38,1.51,14.39,4.18,21.1,.28,.7,.78,1.35,.39,2.21-.54,.53-1.17,.58-1.84,.46-.25-.06-.49-.18-.7-.34-.6-.59-1.02-1.32-1.31-2.14-4.28-12.09-5.56-24.29-1.63-36.9,1.28-4.1,3.05-7.87,4.88-11.6,1.82-3.7,4.94-6.19,7.77-8.9,3.26-3.11,7.51-4.14,11.08-6.6,.56-.38,1.55-.42,1.28-1.51-.25-1.01-1.2-1.32-1.91-1.02-2.29,.98-4.43,.42-6.59-.42-.29-.11-.63-.16-.93-.07-5.52,1.51-11.27,1.44-16.78,3-1.41,.4-2.47,1.43-3.59,2.38-1.38,1.17-2.86,1.79-4.45,.37,.33-1.38,1.38-2.03,2.33-2.71,3.17-2.29,6.26-4.75,9.85-6.21,3.07-.49,6.08-1.25,9.06-2.24,3.95-1.32,7.97-2.3,12.12-2.12,4.31,.18,8.57,.32,12.92,1.09,4.71,.84,8.94,3.17,13.59,3.9,1.63,.26,2.99,1.41,4.52,2.93-.75-.88-1.26-1.43-.68-2.28Z"/>
      <path class="cls-31" d="M108.51,113.21c.16,0,.32,.01,.48,.02,2.13,.4,3.29,1.78,3.93,4.13,.52,1.92,1.7,3.54,2.97,4.98,2.97,3.33,5.41,7.25,8.69,10.24,4.5,4.1,8.69,8.64,14.17,11.26,4.38,2.1,8.45,1.42,12.57-.58,5.33-3.74,8.46-9.02,10.28-15.88,1.81-6.83,4.34-13.46,6.55-20.18,.31-.96,.55-2.05,1.61-2.41,.95-.3,1.66-1.41,2.8-1.07,.94,0,1.87,0,2.81,.01-2.31,8.12-4.51,16.28-7.93,23.94-.64,1.43-1.6,2.56-2.32,3.89-2.19,4.08-4.58,7.95-7.74,11.21-3.02,3.11-6.44,4.82-10.54,5.2-6.11,.55-11.75-1.1-16.84-4.64-4.19-2.91-8.02-6.46-11.83-10.01-4.77-4.44-8.79-9.52-11.55-15.82-.53-1.21-1.54-2.16-2.33-3.23-.03-.6,.16-1.07,.63-1.39,.46-.26,.95-.34,1.45-.36,.78-.05,1.53,.07,2.13,.7Z"/>
      <path class="cls-55" d="M104.78,113.22c-.02,.43-.11,.82-.48,1.04-1.09,0-2.18-.02-3.27-.02-1.85-1.52-2.45-3.83-3.34-6.06-2.8-7.03-4.12-14.55-6.15-21.82-.9-3.21-1.04-6.45-1.65-9.64-.43-2.25-1.1-3.34-3.25-2.23-2.12,1.09-4.32,1.05-6.72-.29-.1-.3,1.1-1.27,.03-2.05,1.76-3.59,3.11-7.46,5.68-10.49,1.64,1.13-.28,2.16,.04,3.28,2.79-2.04,6.15-2.99,9.01-5.14,1.35-1.01,2.79-.47,3.33,1.41,.93,3.25,1.58,6.63,.89,10.06-.35,1.74-.56,3.43-.23,5.19,.15,.77,.2,1.56,.13,2.35-.89,9.83,.36,19.36,3.19,28.68,.64,2.1,1.55,4.01,2.78,5.73Z"/>
      <path class="cls-131" d="M162.74,142.14c-.59,0-1.03,.34-1.41,.8-5.69,6.8-12.91,8.97-20.83,8.03-4.77-.57-9.14-2.94-13.42-5.49-5.03-2.99-9.41-6.98-13.67-11.04-3.76-3.59-7.56-7.44-9.57-12.81,1.49,1.28,2.73,2.8,3.9,4.47,3.05,4.36,7.12,7.48,10.91,10.93,1.44,1.31,2.96,2.63,4.63,3.49,3.96,2.04,7.34,5.31,11.59,6.73,2.72,.91,5.26,2.36,8.25,2.31,6.14-.09,11.52-2.23,16.07-6.87,1.04-1.06,2.12-1.75,3.55-1.6,0,.35,0,.7,0,1.05Z"/>
      <path class="cls-139" d="M108.51,113.21c-.78,0-1.56,0-2.33,0-2.49-2.87-2.97-6.76-3.67-10.34-1.86-9.54-2.65-19.19-.55-28.86,.35-1.62,.73-3.24,1.43-4.71,2.1-4.39,3.62-9.1,5.88-13.4,.86-1.63,.04-3.24-1.74-3.57-.85-.16-1.73-.05-2.56,.13-3.29,.72-6.62,1.46-9.63,3.03-2.42,1.26-3.99,4.06-6.27,5.74-1.55,1.14-2.01,.99-2.3-1.08,1.02-1.76,2.21-3.36,3.57-4.8,.35-.32,.76-.46,1.2-.49,2.4-.23,2.87-2.59,3.84-4.41,.15-.44,.49-.44,.83-.44,1.96,.38,3.6-.09,5.04-1.81,1.04-1.24,2.46-1.9,4.1-1.89,.99,0,2.06-.09,2.96-.51,3.09-1.44,6.46-.51,9.53-1.56,2.59-.88,4.94-.85,7.36,.45,.78,.42,1.52-.07,2.21-.48,1.16-.69,2.26-.5,3.31,.27,.62,.46,1.02,1.16,.99,1.97-.03,.89-.83,.85-1.38,1.15-4.36,2.37-9.24,3.92-12.78,7.64-2.9,3.04-6.12,5.85-7.9,10.34-1.8,4.53-3.85,8.94-4.83,13.78-1.77,8.67-1.37,17.29,1.03,25.82,.77,2.75,1.71,5.39,2.67,8.04Z"/>
      <path class="cls-89" d="M86.76,60.15c.32,1.29,.93,1.94,1.87,.68,4.89-6.53,11.57-8.56,18.68-9.47,1.51-.19,2.34,1.24,3.17,2.36,.88,1.18-.22,1.85-.73,2.66-1.99,3.16-2.67,7.04-4.52,10.28-2.77,4.87-3.39,10.5-3.82,15.98-.37,4.7,.18,9.51,.73,14.26,.66,5.68,2.29,11,4.03,16.31-.47,0-.93,0-1.4,0-1.08,.17-1.53-.63-1.87-1.57-2.38-6.64-4.33-13.35-4.78-20.63-.34-5.38,.28-10.76-.35-16.11-.08-.68-.17-1.5,.08-2.08,1.52-3.63,.25-7.2-.16-10.76-.26-2.23-1.54-2.51-3.2-1.28-1.47,1.09-3.12,1.94-4.75,2.7-1.51,.71-3.07,1.27-4.21,2.69-.25,.32-.61,.71-.99,.42-.46-.34-.37-.93-.14-1.41,.55-1.13,1.78-1.94,1.23-3.55,.38-.5,.75-1,1.13-1.5Z"/>
      <path class="cls-3" d="M159.91,42.38c.02,1.9,1.74,1.94,2.72,3.05-.94,.73-1.56,.28-2.25-.34-2.17-1.95-4.66-2.95-7.4-3.46-1.76-.33-3.49-1.05-5.18-1.75-1.44-.6-2.66-2.23-4.41-.6-.64,.59-1.25-.46-1.85-.75-3.73-1.84-7.64-.9-11.46-1.02-4.93-.16-9.62,1.22-14.36,2.73-2.24,.71-4.75,2.34-7.34,.85,5.88-3.09,12-5.23,18.52-5.71,8.45-.62,16.79-.02,24.86,3.16,.57,.23,1.1,.58,1.66,.88,1.06,1.57,2.72,1.61,4.21,2.06,.76,.3,1.52,.6,2.28,.9Z"/>
      <path class="cls-13" d="M95.37,50.46c-.06,2.89-1.57,4.9-3.69,4.9-.59-1.94,1.46-2.08,1.82-3.38,.29-1.02,1.05-1.32,1.87-1.53Z"/>
      <path class="cls-13" d="M157.63,41.48c-1.91,.64-3.24-.25-4.21-2.06,1.37,.77,3.03,.79,4.21,2.06Z"/>
      <path class="cls-89" d="M93.5,51.98c.1,1.61-1.72,1.91-1.82,3.38-.45,0-.9,0-1.35,0,.88-1.33,1.84-2.58,3.17-3.37Z"/>
      <path class="cls-70" d="M110.85,113.21c-2.32-5.67-4.54-11.31-4.79-17.77-.11-2.73-.06-5.56-.67-8.29-.3-1.34,.56-2.5,.77-3.77,1.34-8.07,4.65-15.08,9.29-21.3,3.08-4.13,7.24-6.44,11.69-8.22,4.15-1.67,8.37-3.45,12.76-3.43,6.66,.03,13.7-1.03,19.62,3.5,4.94,3.78,8.33,9.11,10.69,15.45,2.48,6.69,3.32,13.57,3.25,20.67-.04,3.94-1.46,7.63-2.09,11.47-.2,1.22-1.39,1.82-2.1,2.74,.09,1.02-.46,.79-.98,.64-.47-.77-.21-1.52,.07-2.24,3.9-10.35,2.92-20.58-.13-30.96-1.29-4.39-3.27-8.02-5.95-11.41-2.94-3.72-6.69-5.18-10.87-5.78-4.74-.68-9.45-.68-14.2,0-7.35,1.03-14.05,3.94-19.1,10.02-4.87,5.86-8.25,12.75-9.08,21.12-.72,7.24,0,14.12,2,20.94,.64,2.17,1.3,4.34,3.36,5.43,.3,.16,.31,.56,.19,.93-1.18,1.27-2.43,1.37-3.75,.28Z"/>
      <path class="cls-99" d="M110.85,113.21c1.25-.07,2.56,.3,3.72-.54,.56-.39,1.13-.15,1.7-.03,.35,.11,.65,.3,.89,.61,1.55,2.82,3.18,5.56,5.33,7.91,3.17,3.47,5.74,7.54,8.53,11.39,2.36,3.25,5.05,6.2,7.9,8.93,1.12,1.08,2.57,1.58,4.13,1.55,2.26-.05,4.52-.04,6.78-.01,.63,.04,1.26,.1,1.7,.72-4.29,2.62-8.57,2.79-13.18,.75-3.39-1.5-6.28-3.88-8.94-6.32-3.94-3.61-8.07-7.16-11.13-11.89-1.51-2.32-3.75-3.94-5-6.53-.22-.46-.65-.84-.74-1.32-.42-2.42-1.58-4.15-3.56-5.19,.62,0,1.25-.02,1.87-.03Z"/>
      <path class="cls-84" d="M151.53,143.72c-.64-.01-1.27-.02-1.91-.03-.42-.7-.05-1.14,.44-1.47,3.52-2.4,5.57-6.04,6.9-10.3,.73-.95,1.28-1.98,1.34-3.27,.4-8.07,2.4-15.61,5.93-22.65,.33-.61,.76-1.1,1.29-1.49,.46-.27,.94-.37,1.46-.36,.53,0,.97,.24,1.37,.61,.39,0,.74-.08,.94-.51,.16,.18,.32,.36,.48,.54-1.63,3.59-2.55,7.48-3.74,11.26-2.01,6.39-3.91,12.85-6.38,19.01-1.57,3.91-4.76,6.54-8.11,8.67Z"/>
      <path class="cls-67" d="M168.34,104.76c-.46,0-.93,0-1.39,.01-.55-.73-.27-1.49-.04-2.22,1.07-3.35,1.63-6.85,2.46-10.27,.47-1.93,.27-3.99-.1-5.98-.87-4.68-1.83-9.34-2.73-14.02-.99-5.12-3.39-9.3-7.06-12.56-1-.89-2.09-1.47-3.3-1.83-2.15-1.31-4.43-1.75-6.9-1.91-4.22-.27-8.31,.12-12.46,.99-5.65,1.19-10.82,3.65-15.21,7.58-3.48,3.12-6.54,6.96-8.38,11.76-2.02,5.28-3.49,10.73-3.08,16.49,.39,5.46,1.09,10.94,3.56,15.87,.39,.79,.93,1.39,1.5,1.98,.55,.73,1.41,1.34,.77,2.53-.47-.17-.94-.34-1.41-.52-3.88-1.06-4.1-5.2-4.87-8.31-1.13-4.56-2.02-9.3-1.69-14.19,.52-7.68,2.17-14.67,6.19-21.26,5.86-9.62,13.96-13.73,23.77-15.22,5.23-.8,10.44-.64,15.53,.28,4.37,.79,8.13,3.51,10.91,7.76,4.33,6.6,6.34,14,6.76,22.07,.08,1.47,.33,2.93,.45,4.41,.49,5.91-1.44,11.23-3.27,16.56Z"/>
      <path class="cls-48" d="M157.14,132.16c-.59,4.8-3.23,7.98-6.66,10.48-.41,.3-.78,.49-.86,1.06-2.1,.02-4.2-.02-6.3,.08-2.31,.11-4.11-.97-5.79-2.63-4.32-4.25-7.98-9.23-11.45-14.27-2.64-3.83-6.24-6.69-8.3-11.05-.4-.85-.99-1.53-.87-2.57-2.33-5.27-3.82-10.75-4.36-16.69-1.1-12.11,4.52-24.57,13.98-30.4,7.79-4.8,16.05-7.41,24.95-7.33,1.17,.01,2.61-.27,2.97,1.7-.69,.96-1.68,.76-2.59,.81-8.88,.44-17.3,3.01-24.85,8.19-6.66,4.57-10.61,11.28-11.47,20.49-.74,8.03,.9,15.22,3.58,22.38,1,2.66,2.64,4.73,4.54,6.58,3.46,4.58,7.7,8.33,11.1,13,1.56,2.14,2.76,4.58,4.81,6.33,4.74,4.06,9.63,3.29,12.99-2.24,1.46-2.4,2.58-4.94,3.08-7.83,.32-1.89,.59-1.97,1.94-1.35,.4,1.81,.55,3.6-.41,5.27Z"/>
      <path class="cls-75" d="M154.33,60.61c-.35-.82-.97-1.01-1.72-1.06-4.69-.29-9.26,.5-13.77,1.87-5.58,1.69-11.03,3.83-15.54,8.01-5.09,4.72-8.59,10.44-9.3,18.26-.49,5.33-.81,10.51,.11,15.78,.34,1.93,.93,3.73,1.86,5.33,.82,1.41,1.12,2.84,.95,4.45-.31-.03-.61-.05-.92-.08,.08-.91-.68-1.35-.94-2.07-1.82-2.83-2.72-6.08-3.44-9.42,0-2.27,.15-4.54-.71-6.72-.41-1.04-.27-2.26-.19-3.39,1.06-14.13,7.18-24.25,18.84-29.94,1.5-.73,3.06-1.31,4.42-2.37,.23-.14,.48-.24,.74-.31,2.54-.4,4.99-1.2,7.48-1.82,3.8-.94,7.73-.46,11.61-.24,.26,.05,.52,.13,.77,.23,2.36,1.1,4.72,2.13,6.63,4.21,2.01,2.2,3.27,4.79,4.17,7.74,1.46,4.8,2.74,9.67,3.31,14.69,.54,4.72,.83,9.44-.57,14.2-.7,2.39-.94,4.89-2.53,6.83-.04,.66-.36,1.01-.94,1.06-.35,.31-.71,.28-1.06,0-.41-.88-.13-1.73,.2-2.51,4.04-9.47,2.51-18.88-.21-28.27-.55-1.89-.71-3.96-1.93-5.56-.98-4.48-4.25-6.58-7.31-8.89Z"/>
      <path class="cls-114" d="M165.56,104.8c.84-2.66,1.68-5.33,2.53-7.99,.08-.24,.2-.49,.21-.74,.3-7.39,.1-14.76-2.19-21.78-.96-2.96-1.45-6.08-2.83-8.92-1.75-3.59-4.38-5.68-7.71-6.86-.56-.2-.99-.46-1.25-1.04,.62-.67,1.25-.43,1.88-.01,4.14,.6,6.26,4.13,8.35,7.53,2.61,4.24,2.94,9.32,3.9,14.19,.42,2.1,.76,4.24,1.34,6.3,1.11,3.96,.13,7.74-.7,11.51-.58,2.64-1.42,5.2-2.14,7.8-.46,0-.93,.01-1.39,.02Z"/>
      <path class="cls-94" d="M163.68,105.84c.32,0,.63,0,.95,.01-.48,3.09-2.35,5.54-3.1,8.5-.65,2.54-1.4,5.01-1.72,7.71-.31,2.54-.79,5.04-.88,7.63-.04,1.08-.64,2.13-1.77,2.46,0-1.93,0-3.87-.01-5.8-1.03-2.45,.22-4.8,.54-7.07,.6-4.12,2.11-8.03,4.16-11.58,.46-.8,.9-1.66,1.85-1.86Z"/>
      <path class="cls-140" d="M156.2,57.45c-.63,0-1.25,0-1.88,.01,0,0,0,0,0,0-4.46-.82-8.92-1.03-13.36,.15-2.26,.6-4.63,.71-6.74,1.95h0c-2.21,.81-4.37,1.79-6.47,2.88-6.75,3.5-11.79,9-14.5,16.83-1.54,4.44-2.6,9.12-2.38,13.97,.13,2.84,.86,5.6,1.37,8.39,.93,3.16,1.87,6.31,2.8,9.47-2.79-1.55-3.25-4.92-3.89-7.61-1.34-5.66-2.35-11.48-1.28-17.5,1.24-6.97,3.65-13.1,8-18.4,5.64-6.88,12.76-9.98,20.66-11.78,4.56-1.04,9.07-.45,13.59-.37,1.42,.03,2.97,.67,4.07,2.01Z"/>
      <path class="cls-49" d="M163.68,105.84c-4.09,6.07-5.46,13.23-6.55,20.51-.87,.43-.84,1.31-.97,2.19-.64,4.18-2.36,7.88-5.16,10.57-4.55,4.38-11.45,2.44-14.9-3.8-2.14-3.87-4.98-7.09-7.94-10.13-1.71-1.76-3.29-3.61-4.69-5.67,.3-.3,.65-.35,1.03-.24,5.74,3.93,10.08,9.39,13.63,15.74,1.49,2.66,3.9,3.95,6.49,4.76,2.97,.92,7.24-3.19,8.16-6.09,.89-2.8,1.67-5.58,1.98-8.58,.8-7.69,3.42-14.69,7.12-21.15,3-5.22,3.35-10.92,3.01-16.84-.05-.9-.52-1.64-.72-2.48-.13-4.08-1.85-7.73-2.54-11.66-.17-.94-.51-1.84-.38-2.83,.07-.45,.22-.85,.56-1.13,2.18,1.34,1.92,4.08,2.55,6.17,1.62,5.35,2.55,10.92,2.59,16.63,.03,5.01-1.87,9.45-3.27,14.03Z"/>
      <path class="cls-87" d="M161.81,69.02c0,.36,0,.72,0,1.07-.95,.63-1.25-.21-1.47-.92-.31-1.02-.94-1.74-1.57-2.49-.16-.2-.29-.41-.41-.64-1.27-2.35-3.23-3.24-5.54-3.02-4.47,.41-8.91,.99-13.25,2.38-6.88,2.2-13.35,5.13-18.09,11.55-3.02,3.53-4.87,7.7-4.79,12.64,.07,4.68-.65,9.41,.75,14.03,1.4,4.63,2.77,9.23,5.77,12.96,.62,.77,1.51,1.61,1.21,2.95-.31,0-.62,0-.93,0-2.3-1.76-3.95-4.07-5.01-7-2.13-5.91-3.97-11.85-3.91-18.38,.1-11.06,3.97-19.82,12.43-25.58,5.89-4.01,12.5-5.95,19.22-7.45,2.7-.6,5.4-.47,8.11-.51,3.71,.88,6.85,4.4,7.48,8.4Z"/>
      <path class="cls-114" d="M112.25,101.64c-1.59-2.22-1.48-5.01-1.79-7.58-.39-3.19,.04-6.41,.82-9.57,1.1-4.43,2.14-8.88,4.83-12.49,3.21-4.3,6.69-8.31,11.55-10.23,2.16-.85,4.04-2.81,6.58-2.21-.71,1.31-1.95,1.67-3.11,2.11-5.45,2.07-9.91,5.9-13.49,10.71-3.14,4.21-5.29,9.16-5.48,15.01-.08,2.42-1.47,4.93-.68,7.33,.76,2.32,.76,4.59,.78,6.93Z"/>
      <path class="cls-114" d="M134.22,59.57c.56-1.21,1.66-1.64,2.66-1.92,5.14-1.43,10.39-1.4,15.63-1.21,.71,.03,1.35,.37,1.81,1.03-1.47,0-2.94,.02-4.41-.01-3.77-.08-7.51-.14-11.12,1.48-1.43,.64-3,.79-4.57,.63Z"/>
      <path class="cls-26" d="M124.4,119.52c-3.97-5.04-7.07-10.78-7.9-17.4-1.04-8.24-1.86-16.72,3.18-24.08,.43-.63,.79-1.29,1.45-1.64,.69,1.14-.04,1.98-.51,2.84-4.89,9.03-4.58,18.37-1.27,27.85,1.97,5.63,4.9,10.44,9.37,14.04,4.43,3.57,7.61,8.45,10.39,13.65,1.17,2.19,2.77,3.48,5.06,3.62,3.49,.33,5.59-1.06,7.13-4.5,1.53-3.42,1.36-7.1,1.59-10.74,.48-7.47,1.99-14.47,7.16-19.89,2.79-2.93,4.1-6.7,3.94-11.09-.08-2.09-.11-4.2,.06-6.29,.08-.43,.24-.81,.56-1.09,.86,.83,.82,1.96,.95,3.1,.85,7.51-1.62,13.89-4.97,20.14-3.06,5.7-4.82,11.98-5.37,18.68-.28,3.39-1.16,6.77-3.02,9.43-4.79,6.88-10.58,5.34-14.63-.94-3.01-4.66-6.17-9.05-9.99-12.84-1.02-1.01-2.59-1.24-3.2-2.85Z"/>
      <path class="cls-38" d="M164.62,84.8c0,.36-.01,.72-.02,1.08-1.31,.49-1.4-.63-1.5-1.54-.63-5.58-2.35-10.77-4.44-15.84-.18-.76-.21-1.49,.34-2.1,1.97,.24,1.26,3.04,2.8,3.69,.67,3.06,1.15,6.2,2.09,9.15,.6,1.87,.71,3.67,.72,5.56Z"/>
      <path class="cls-38" d="M144.04,138.98c-2.19,0-3.82-1.02-4.99-3.16-3.51-6.43-8.04-11.71-13.27-16.54-4.97-4.59-7.54-11.32-8.87-18.49-.87-4.69-.39-9.37,.06-14.03,.22-2.34,1.2-4.47,2.32-6.48,.69-1.24,1.7-2.3,1.84-3.88,3.69-5.48,8.95-8.25,14.49-10.4,4.73-1.85,9.58-3.32,14.67-3.28,.46,0,.93-.04,1.39-.14,3.63-.8,5.25-.07,7.31,3.33-1.23,1.03-2.11-.37-3.16-.58-.22-.09-.42-.21-.63-.34-3.02-1.07-5.92-.37-8.89,.48-5.88,1.68-11.71,3.38-17.12,6.62-6.01,3.59-9.58,9.19-10.62,16.58-1.9,13.47,2.64,24.17,12.14,32.17,3.24,2.73,5.56,6.03,7.48,9.86,.73,1.45,1.47,2.88,2.34,4.23,.53,1.09,1.33,1.85,2.26,2.51,.52,.38,1.39,.49,1.26,1.57Z"/>
      <path class="cls-54" d="M155.73,64.82c1.26-.3,2.01,1.34,3.25,1.07,0,.17,.02,.34,.02,.51,0,.7,0,1.4,.01,2.09-.09,.05-.18,.11-.27,.17-.54,.02-.99-.21-1.36-.64-.13-.18-.23-.37-.33-.57-.25-.93-1.35-1.02-1.55-2,0-.24,.08-.45,.22-.63Z"/>
      <path class="cls-91" d="M155.73,64.82c0,.18,0,.36,0,.54-.86,1.36-2.18,1.06-3.4,1.23-9.1,1.28-17.91,3.7-25.38,10.05-4.32,3.67-6.34,8.84-6.61,14.96-.37,8.23,1.77,15.5,6.15,22.01,1,1.48,2.16,2.81,3.61,3.68,4.06,2.44,7.12,5.86,8.87,10.7,.15,.41,.4,.75,.63,1.1,.64,1.09,1.1,2.27,1.46,3.52,.41,1.44,1.1,2.68,2.51,3.15,.2,.08,.38,.18,.56,.3,.9,.86,1.8,.77,2.69-.01,.19-.11,.4-.19,.61-.26,.43-.13,.88-.15,1.31-.3,1.43-1.12,1.71-2.82,2.24-4.58,1.28-4.25,.23-8.34-.1-12.49-.19-3.08,.36-6.09,.55-9.14,.22-3.59,2.31-5.82,4.54-7.92,1.25-1.18,2.56-2.3,3.99-3.18,2.21-1.36,3.15-3.52,3.08-6.27-.18-6.14-1.39-12.03-3.3-17.78-.59-1.77-2.05-3.5-.73-5.62,0,0,.03-.02,.03-.02,2.14,2.84,2.73,6.46,3.62,9.84,.56,2.15,1.52,4.37,1.14,6.8-.07,.45,.44,.65,.83,.74,0,2.36-.07,4.72,.02,7.07,.16,3.96-.99,7.54-3.48,10.08-6.16,6.3-7.61,14.45-7.68,23.13-.03,3.33-.81,6.26-2.03,9.13-1.22,2.89-4.83,4.61-7.4,3.68-1.27-1.2-3.36-1.34-3.74-3.68-1.37-2.94-2.86-5.8-4.34-8.67-1.64-3.2-4.43-5.14-6.98-7.24-6.3-5.2-9.14-12.56-10.65-20.79-1.3-7.03,.09-13.49,3.56-19.46,2.31-3.96,5.65-6.42,9.35-8.38,4.78-2.53,9.89-3.94,14.96-5.5,2.29-.7,4.55-.89,6.87-1.07,1-.08,1.83,.1,2.65,.64h0Z"/>
      <path class="cls-54" d="M155.73,64.82c-4.29-.51-8.47,.17-12.49,1.8-3.71,1.5-7.55,2.48-11.19,4.29-5.29,2.63-9.56,6.52-11.75,12.42-1.77,4.77-2.67,9.97-1.54,15.34,1.6,7.64,4.05,14.71,9.81,19.62,2.52,2.14,5.26,4.04,7.1,6.93,1.95,3.08,3.67,6.39,4.63,10.09-2-1.83-2.87-4.57-4-6.98-1.89-4.03-5.14-6.34-8.13-8.84-5.75-4.82-8.39-11.72-10.11-18.94-1.83-7.7-.57-15.27,3.53-22,3.44-5.64,8.69-8.32,14.16-10.44,4.15-1.61,8.39-3.04,12.69-4,2.34-.52,5.02-1.35,7.29,.73Z"/>
      <path class="cls-85" d="M157.54,67.58c0,.15,.04,.27,.12,.39,.5,.7,.58,1.5,.47,2.35-.09,.66-.32,1.27-.66,1.83-.34,.5-.75,.93-1.08,1.43-1.15,1.33-2.13,2.91-3.82,3.49-4.21,2.32-8.82,3.81-12.38,7.5,4.8-.99,8.99-3.45,12.95-6.45,1.26-.83,2.54-1.64,3.96-2.11,.94-.21,1.64,.16,2.11,1.1,.12,.24,.2,.5,.26,.76,.15,2.28-.3,4.31-2,5.79-4.52,3.65-9.83,5.86-14.73,9.79,1.43,.64,2.23,.08,3.01-.27,4.26-1.93,8.27-4.43,12.35-6.76,.55-.31,1.01-.83,1.68-.87,1.68,.45,1.01,2.23,1.51,3.34,.41,2.02-.24,3.5-1.74,4.66-3.17,2.46-6.42,4.75-9.95,6.5-3.46,1.47-3.68,1.63-3.02,5.65,.84,5.1,1.84,10.16,2.58,15.28,.07,.27,.12,.54,.14,.82-.04,2.4,.37,4.73,.79,7.07,.23,1.4,.24,2.8,.07,4.21-.05,.28-.14,.55-.26,.8-.6,.94-1.27,1.78-2.38,1.95-3.35,1.26-4.36,.62-5.22-3.24-.19-.83-.32-1.69-.59-2.5-.16-.7-.21-1.41-.22-2.13-.2-3.18-.7-6.3-1.58-9.34-.19-.64-.24-1.31-.26-1.98,.12-2.17-.93-4-1.4-6-.4-1.67-1.26-2.07-2.58-1.14-.91,.65-1.94,1.1-2.66,2.05-2.3,1.98-2.69,1.98-4.3-.03-.38-1.21-.32-2.45-.13-3.68,.47-2.14,1.48-3.97,2.69-5.67,.28-.4,.7-.88,.38-1.37-.42-.64-.99-.23-1.45,.05-.89,.55-1.54,1.42-2.21,2.25-1.02,1.27-2.06,1.41-3.14,.1-1.12-2.54-.76-4.86,.83-6.99,1.34-1.44,2.73-2.84,3.92-4.45,.33-.45,.8-1.02,.4-1.63-.45-.69-1.15-.47-1.7-.14-1.1,.68-1.92,1.76-2.83,2.71-1.16,.89-2.24,2.47-3.76,.63-.24-.67-.22-1.35-.05-2.03,.78-1.6,1.51-3.24,2.42-4.76,3.38-5.56,8.53-8.27,13.82-10.69,3.45-1.58,6.94-3.08,10.22-5.09,2.77-.95,4.97-3.18,7.69-4.26,.81-.14,1.43,.12,1.72,1.06Z"/>
      <path class="cls-27" d="M157.54,67.58c-.5-.52-1.06-.83-1.77-.62-.56,.31-1.16,.36-1.77,.44-3.17,0-6.11,1.17-9.03,2.33-3.23,1.28-6.68,1.61-9.84,3.15-5.29,2.59-10.26,5.66-12.51,12.15-2.12,6.14-1.9,12.29,.49,18.3,.54,1.36,1.1,2.69,1.58,4.08,1.51,4.4,3.95,7.86,7.87,9.9,3.81,1.98,5.56,5.94,7.09,10.02,.28,.73,.32,1.55-.3,2.19-1.79-1.35-1.79-3.94-3.14-5.68-1.7-2.2-3.56-4.06-5.81-5.46-3.7-2.31-5.85-6.15-7.73-10.19-2.65-5.72-3.52-11.92-2.9-18.24,.74-7.63,4.55-13.01,10.48-16.76,5.75-3.63,12.14-5.02,18.32-7.12,2.28-.77,4.81,.22,7.14-.71,.6,.75,2.06,.6,1.82,2.22Z"/>
      <path class="cls-27" d="M157.66,70.61c0-.88,0-1.76,0-2.65,.44,.18,.89,.37,1.33,.55-.27,1.75,.44,3.28,1.05,4.75,1.51,3.61,2.26,7.38,2.8,11.31,.34,2.47,.9,4.88,.85,7.43-.06,3.13-1.06,5.47-3.62,6.97-2.49,1.45-4.46,3.7-6.47,5.85-1.16,1.24-1.39,2.97-1.53,4.55-.26,3.02-.82,6.03-.55,9.1-1.19-.05-1.04-1.14-1.06-1.92-.06-2.36-.16-4.7-.45-7.05-.28-2.28,.5-4.24,1.91-5.96,2.24-2.73,4.88-4.9,7.61-6.88,1.95-1.41,2.89-3.04,2.55-5.6-.69-6.15-1.95-12.14-3.98-17.91-.29-.83-.41-1.67-.44-2.55Z"/>
      <path class="cls-34" d="M139.36,129.52c-.79-4.85-2.73-9.08-6.7-11.29-4.59-2.56-7.11-6.6-9.02-11.72-1.29-3.47-2.07-7.08-3.21-10.57-.52-1.59,.1-2.94,.27-4.36,.44-3.7,.98-7.39,3.07-10.51,2.76-4.11,6.46-6.95,10.62-8.58,5.96-2.34,12.13-3.97,18.21-5.92,.49-.16,.92-.16,1.24,.35-.17,1.03-.93,1.41-1.66,1.61-4.8,1.38-9.5,3.16-14.29,4.58-5.08,1.51-9.97,4.06-12.89,9.55-1.39,2.62-1.96,5.63-2.85,8.49-.05,.68-.09,1.36-.14,2.03-.26,.52,.1,.92,.22,1.37,2.02,3.9,1.62,8.69,3.69,12.6,.79,1.49,1.45,3.09,2.19,4.63,.59,1.23,1.68,1.77,2.85,2.08,6.11,3.37,9.17,9.27,10.75,16.4,.17,.75,.21,1.56,.69,2.2,.04,1.42,.96,2.51,1.16,3.87-1.79-.03-2.37-1.6-2.97-3.05-.5-1.21-.84-2.51-1.25-3.77Z"/>
      <path class="cls-143" d="M162.73,91.11c.44,3-.81,4.74-3.05,6.31-2.87,2.01-5.57,4.35-7.85,7.25-.61,.77-1.05,1.66-1.06,2.54-.07,3.77,.06,7.54,.75,11.26-.09,1.49,.12,2.93,.55,4.35,.59,1.95,.67,3.93-.17,5.82-.79,1.8,.11,4.01-1.24,5.72-.6,.76-.95,1.76-1.96,1.98-.69-1.33,.74-1.7,.94-2.63h0c.77-2.41,.9-4.98,.63-7.44-.29-2.62-.32-5.22-.34-7.83-.03-2.62-.11-5.18-.7-7.77-.88-3.86,.1-7.22,2.98-9.79,1.95-1.74,3.97-3.36,5.94-5.06,1.47-1.27,3.17-2.23,3.61-4.55,.08-.42,.6-.48,.98-.16Z"/>
      <path class="cls-12" d="M143.58,136.35c-.64-1.14-1.52-2.17-1.44-3.67-.4-.93-.7-1.86,.09-2.73,.18,.66,.39,1.31,.53,1.98,.87,4.24,1.22,4.49,5.03,3.45,.21,.55-.23,.7-.48,.97-.14,.02-.29,.04-.43,.07-.96,.63-1.93,.62-2.89,.01-.14-.04-.27-.06-.41-.08Z"/>
      <path class="cls-86" d="M143.99,136.43c.96,0,1.93,0,2.89-.01-.96,1.52-1.93,1.45-2.89,.01Z"/>
      <path class="cls-86" d="M147.31,136.35c.16-.32,.32-.65,.48-.97,.61-.56,1.23-1.11,1.84-1.67,.14,1.08-1,1.58-.93,2.63-.46,0-.93,0-1.39,.01Z"/>
      <path class="cls-86" d="M162.73,91.11c-1.86,5.36-6.81,6.92-10.2,10.4-2.51,2.57-3.77,6.19-2.51,9.81,.41,1.18,.65,2.34,.55,3.56-.46,5.56,.9,11.11,.04,16.67-.14,.89-.1,1.76-.98,2.17-.01-1.55-.03-3.1-.04-4.64-.51-2.45,.06-5.06-.9-7.44-.04-.15-.05-.31-.02-.46-.53-4.71-.58-9.47-1.39-14.18-.47-2.7,.08-5.58,2.37-7.46,3.08-2.11,6.15-4.23,9.24-6.31,1.44-.97,2.43-2.14,1.98-4.21-.64-3.85-1.96-7.56-1.9-11.55h0c-.17-.88-.75-1.44-1.25-2.1-.69-.92-1.4-1.95-.66-3.28,.2-.49,.4-.98,.59-1.47,2.87,6.46,4.31,13.37,5.07,20.5Z"/>
      <path class="cls-130" d="M122.17,91.17c-1.5-1.84,.42-3.18,.72-4.64,1.74-8.36,7.98-11.93,14.26-13.98,4.97-1.62,9.94-3.59,15.1-4.63,.57-.12,1.08-.64,1.61-.98,.64,0,1.27,.02,1.91,.03-2.43,1.54-4.66,3.51-7.46,4.23-5.78,2.82-12.05,4.3-17.46,8.1-2.71,1.9-4.88,4.47-6.44,7.65-.86,1.34-1.01,3.15-2.25,4.24Z"/>
      <path class="cls-128" d="M159.47,85.86c-.13,.21-.22,.52-.4,.63-4.88,2.95-9.7,6.04-14.98,8.03-.68,.26-1.5,.58-1.92-.18-.51-.92,.49-1.3,.9-1.83,1.03-1.35,2.41-2.15,3.85-2.83,3.63-1.71,6.77-4.42,10.27-6.42,.66,.98,1.12,2.18,2.29,2.6Z"/>
      <path class="cls-19" d="M153.41,78.53c-3.75,3.45-8.23,5.32-12.67,7.23-.52,.23-1.12,.12-1.48-.43-.54-.81,.12-1.25,.51-1.75,.83-1.06,1.82-1.77,3.01-2.32,3.27-1.51,6.47-3.22,9.7-4.85,.3,.71,.65,1.4,.94,2.12Z"/>
      <path class="cls-95" d="M142.24,129.94c-.03,.91-.06,1.82-.09,2.73-1.35-1.25-1.14-3.24-1.77-4.84-.33-.83-.66-1.75-.85-2.63-1.14-5.39-5.3-7.7-8.58-10.92-.27-.37-.28-.76-.08-1.16,2.61-.89,6.8,1.29,8.52,4.51,.43,.81,.8,1.67,1.25,2.47,.1,2.71,.91,5.26,1.49,7.86,.04,.67,.08,1.33,.12,2Z"/>
      <path class="cls-63" d="M124.41,86.92c0-.78,.04-1.47,.52-2.19,2.9-4.32,6.57-7.44,11.09-9.28,3.55-1.45,7.1-2.87,10.67-4.25,.48-.19,1.07-.03,1.62-.03-2.69,2.5-6.06,3.5-9.18,4.89-5.62,2.5-10.88,5.4-14.71,10.86Z"/>
      <path class="cls-46" d="M149.65,99.53c-1.58,3.37-2.31,6.74-1.21,10.62,1.01,3.56,.3,7.34,.23,11.02-1.06-6.05-2.32-12.06-3.1-18.15-.38-3.01,2.33-2.86,4.07-3.49Z"/>
      <path class="cls-14" d="M140.29,120.07c-1.65-2.47-3.19-5.01-6.01-6.1-1.11-.43-2.15-.89-3.33-.73-.99,.69-1.66,.33-2.09-.82-.02-.3,.05-.56,.22-.79,1.46,1.76,2.59,.38,3.77-.51,3.12-1.21,6.24,.99,7.41,5.25,.03,.65,.06,1.3,.09,1.95,.2,.59,.35,1.18-.06,1.75Z"/>
      <path class="cls-137" d="M125.36,103.2c.83,.61,1.44,.64,2.13-.43,.81-1.26,1.77-2.46,3.15-3.03,.7-.29,1.4-.33,1.9,.42,.46,.7,.18,1.35-.32,1.86-1.48,1.49-2.15,3.57-3.18,5.39-.81-1.34-1.95-2.04-3.37-2.23-.32-.19-.54-.48-.65-.88-.05-.43,.03-.8,.33-1.1Z"/>
      <path class="cls-41" d="M125.33,92.14c1.26-1.44,2.2-3.39,4.45-3.15,1.36,.15,1.61,.71,1,2.01-1.07,2.26-2.94,3.65-4.51,5.36-.93-1.24-.59-2.83-.94-4.23Z"/>
      <path class="cls-2" d="M140.26,116.38c-1.42-3.63-4.12-4.97-7.41-5.25,.98-1.78,2.68-2.32,4.25-3.06,.5-.24,1.09-.12,1.26,.68,.55,2.57,1.88,4.89,1.9,7.62Z"/>
      <path class="cls-127" d="M159.47,85.86c-2.39,.94-2.12-1.07-2.29-2.6,1.7-1.5,1.63-3.7,1.79-5.8,.95,3.78,1.97,7.56,1.9,11.55-1.06-.72,.27-2.78-1.4-3.15Z"/>
      <path class="cls-1" d="M125.33,92.14c1.88,.97,.55,2.84,.94,4.23-1.58,2.06-1.9,4.34-.9,6.83,0,.35,0,.7,0,1.05-1.06-.27-1.34-1.16-1.4-2.22-.03-.6-.03-1.21-.01-1.81,.05-2.39,.14-4.81-2.29-6-.02-.4-.01-.8,.37-1.02,1.52,1.3,2.24-.55,3.3-1.06Z"/>
      <path class="cls-59" d="M125.81,104.83c1.77-.23,3.22,.04,3.24,2.58,.01,1.41,.02,2.82,.03,4.23,0,.18-.02,.36-.02,.55-.27,.2-.68,.38-.81,.07-.99-2.4-2.98-4.39-2.44-7.42Z"/>
      <path class="cls-119" d="M153.41,78.53c-1.23-.19-1.62-.86-.94-2.12,1.72-.33,2.29-2.41,3.74-3.15,.4,1.02-.08,2.37,.94,3.16-1.25,.7-2.5,1.41-3.74,2.11Z"/>
      <path class="cls-127" d="M157.16,76.42c-2.93-.06-1.14-1.91-.94-3.16,.08-.58,.28-1.05,.86-1.18-.15,2.15,2.15,3.2,1.91,5.39-.43-.74-.96-1.26-1.82-1.05Z"/>
      <path class="cls-12" d="M140.29,120.07c.02-.58,.04-1.16,.06-1.75,1.33,3.03,1.49,6.34,1.77,9.62-1.33-2.41-1.95-5.04-1.83-7.87Z"/>
      <path class="cls-46" d="M148.69,121.63c.98,.12,.95,.94,.95,1.73-.01,1.9-.03,3.8-.04,5.71-.71-2.42-.91-4.91-.9-7.44Z"/>
      <path class="cls-134" d="M125.81,104.83c.78,2.62,1.4,5.33,3.25,7.35,.38,.92,1.1,1.09,1.9,1.06,0,.34,0,.69,0,1.03-1.96,.21-2.87-1.23-3.75-2.88-2.35-4.42-3.72-9.23-4.66-14.23-.19-1.03-.97-1.82-.89-2.95,3,.76,2.93,.76,2.79,4.59-.07,1.85-.59,3.89,.91,5.45,.15,.19,.3,.38,.45,.57Z"/>
    </g>
  </g>
</svg>