<?xml version="1.0" encoding="UTF-8"?>
<svg id="Layer_2" data-name="Layer 2" xmlns="http://www.w3.org/2000/svg" viewBox="0 0 290 290">
  <defs>
    <style>
      .cls-1 {
        fill: #f8b2b9;
      }

      .cls-2 {
        fill: #fbbdc4;
      }

      .cls-3 {
        fill: #c30506;
      }

      .cls-4 {
        fill: #02252c;
      }

      .cls-5 {
        fill: #290102;
      }

      .cls-6 {
        fill: #670102;
      }

      .cls-7 {
        fill: #30474c;
      }

      .cls-8 {
        fill: #437376;
      }

      .cls-9 {
        fill: #512c30;
      }

      .cls-10 {
        fill: #482c32;
      }

      .cls-11 {
        fill: #062931;
      }

      .cls-12 {
        fill: #f59da8;
      }

      .cls-13 {
        fill: #a40303;
      }

      .cls-14 {
        fill: #fb9ca5;
      }

      .cls-15 {
        fill: #392c30;
      }

      .cls-16 {
        fill: #495053;
      }

      .cls-17 {
        fill: #fae3dd;
      }

      .cls-18 {
        fill: #473d41;
      }

      .cls-19 {
        fill: #fce0e7;
      }

      .cls-20 {
        fill: #4a5658;
      }

      .cls-21 {
        fill: #324b50;
      }

      .cls-22 {
        fill: #f7ccc8;
      }

      .cls-23 {
        fill: #435356;
      }

      .cls-24 {
        fill: #fcd9d4;
      }

      .cls-25 {
        fill: #541721;
      }

      .cls-26 {
        fill: #fd2c3a;
      }

      .cls-27 {
        fill: #fc5c68;
      }

      .cls-28 {
        fill: #2c2d31;
      }

      .cls-29 {
        fill: #505d5f;
      }

      .cls-30 {
        fill: #1a252b;
      }

      .cls-31 {
        fill: #83111e;
      }

      .cls-32 {
        fill: #1a3339;
      }

      .cls-33 {
        fill: #031920;
      }

      .cls-34 {
        fill: #fc606e;
      }

      .cls-35 {
        fill: #12333a;
      }

      .cls-36 {
        fill: #2a131b;
      }

      .cls-37 {
        fill: #3f3f42;
      }

      .cls-38 {
        fill: #fd323e;
      }

      .cls-39 {
        fill: #699fa1;
      }

      .cls-40 {
        fill: #062d34;
      }

      .cls-41 {
        fill: #fbe0e7;
      }

      .cls-42 {
        fill: #200202;
      }

      .cls-43 {
        fill: #331b23;
      }

      .cls-44 {
        fill: #15282b;
      }

      .cls-45 {
        fill: #03161c;
      }

      .cls-46 {
        fill: #f8949f;
      }

      .cls-47 {
        fill: #402a2f;
      }

      .cls-48 {
        fill: #f91522;
      }

      .cls-49 {
        fill: #fc212e;
      }

      .cls-50 {
        fill: #170303;
      }

      .cls-51 {
        fill: #162228;
      }

      .cls-52 {
        fill: #4b8284;
      }

      .cls-53 {
        fill: #2a3338;
      }

      .cls-54 {
        fill: #fd4553;
      }

      .cls-55 {
        fill: #7b0202;
      }

      .cls-56 {
        fill: #621c25;
      }

      .cls-57 {
        fill: #254045;
      }

      .cls-58 {
        fill: #520202;
      }

      .cls-59 {
        fill: #f98e98;
      }

      .cls-60 {
        fill: #1c3b41;
      }

      .cls-61 {
        fill: #38585b;
      }

      .cls-62 {
        fill: #588086;
      }

      .cls-63 {
        fill: #fa919d;
      }

      .cls-64 {
        fill: #12151b;
      }

      .cls-65 {
        fill: #192a30;
      }

      .cls-66 {
        fill: #0a2f35;
      }

      .cls-67 {
        fill: #c30305;
      }

      .cls-68 {
        fill: #020d12;
      }

      .cls-69 {
        fill: #3b0102;
      }

      .cls-70 {
        fill: #b20303;
      }

      .cls-71 {
        fill: #03151c;
      }

      .cls-72 {
        fill: #4d0303;
      }

      .cls-73 {
        fill: #fbebe6;
      }

      .cls-74 {
        fill: #676e6f;
      }

      .cls-75 {
        fill: #f80f18;
      }

      .cls-76 {
        fill: #341819;
      }

      .cls-77 {
        fill: #545d61;
      }

      .cls-78 {
        fill: #3b4d51;
      }

      .cls-79 {
        fill: #303c41;
      }

      .cls-80 {
        fill: #2f2a2e;
      }

      .cls-81 {
        fill: #23262b;
      }

      .cls-82 {
        fill: #031219;
      }

      .cls-83 {
        fill: #4a3034;
      }

      .cls-84 {
        fill: #ac1424;
      }

      .cls-85 {
        fill: #fdfdfd;
      }

      .cls-86 {
        fill: #fc7280;
      }

      .cls-87 {
        fill: #fd232d;
      }

      .cls-88 {
        fill: #5a6365;
      }

      .cls-89 {
        fill: #8b0202;
      }

      .cls-90 {
        fill: #010508;
      }

      .cls-91 {
        fill: #fd4654;
      }

      .cls-92 {
        fill: #020609;
      }

      .cls-93 {
        fill: #444749;
      }

      .cls-94 {
        fill: #dc1726;
      }

      .cls-95 {
        fill: #fd7e8a;
      }

      .cls-96 {
        fill: #7aa0a2;
      }

      .cls-97 {
        fill: #211e25;
      }

      .cls-98 {
        fill: #fdfbfa;
      }

      .cls-99 {
        fill: #a21222;
      }

      .cls-100 {
        fill: #3a3235;
      }

      .cls-101 {
        fill: #032930;
      }

      .cls-102 {
        fill: #443437;
      }

      .cls-103 {
        fill: #213f45;
      }

      .cls-104 {
        fill: #25181f;
      }

      .cls-105 {
        fill: #0f3136;
      }

      .cls-106 {
        fill: #3b5f62;
      }

      .cls-107 {
        fill: #090507;
      }

      .cls-108 {
        fill: #0f2026;
      }

      .cls-109 {
        fill: #33484d;
      }

      .cls-110 {
        fill: #192f36;
      }

      .cls-111 {
        fill: #020a0d;
      }

      .cls-112 {
        fill: #5c0304;
      }

      .cls-113 {
        fill: #051f25;
      }

      .cls-114 {
        fill: #de050a;
      }

      .cls-115 {
        fill: #273036;
      }

      .cls-116 {
        fill: #650202;
      }

      .cls-117 {
        fill: #4d0102;
      }

      .cls-118 {
        fill: #4a7173;
      }

      .cls-119 {
        fill: #f9c0c7;
      }

      .cls-120 {
        fill: #052227;
      }

      .cls-121 {
        fill: #5d6668;
      }

      .cls-122 {
        fill: #0f3138;
      }

      .cls-123 {
        fill: #484e51;
      }

      .cls-124 {
        fill: #45121c;
      }

      .cls-125 {
        fill: #13363d;
      }

      .cls-126 {
        fill: #555e60;
      }

      .cls-127 {
        fill: #f9969f;
      }

      .cls-128 {
        fill: #fce3e8;
      }

      .cls-129 {
        fill: #112e35;
      }

      .cls-130 {
        fill: #fc727e;
      }

      .cls-131 {
        fill: #680f1b;
      }

      .cls-132 {
        fill: #2a3a3f;
      }

      .cls-133 {
        fill: #04151c;
      }

      .cls-134 {
        fill: #f87b89;
      }

      .cls-135 {
        fill: #820202;
      }

      .cls-136 {
        fill: #191719;
      }

      .cls-137 {
        fill: #fadee5;
      }

      .cls-138 {
        fill: #324348;
      }

      .cls-139 {
        fill: #990203;
      }

      .cls-140 {
        fill: #d30408;
      }

      .cls-141 {
        fill: #4a090b;
      }

      .cls-142 {
        fill: #435457;
      }

      .cls-143 {
        fill: #fd5e6d;
      }

      .cls-144 {
        fill: #542c32;
      }

      .cls-145 {
        fill: #081c22;
      }

      .cls-146 {
        fill: #0e1f25;
      }

      .cls-147 {
        fill: #344a4e;
      }

      .cls-148 {
        fill: #6a101c;
      }
    </style>
  </defs>
  <g id="Layer_2-2" data-name="Layer 2">
    <g>
      <path class="cls-33" d="M289.29,289.95c-95.56,0-191.13,0-286.69,.05-2.12,0-2.61-.47-2.6-2.6,.1-17.04,.06-34.08,.06-51.13,1.73-1.2,2.82-.42,4,1.03,3.57,4.36,6.58,9.38,12.38,11.32,.36,.12,.71,.29,.98,.55,5.44,5.13,12.54,6.25,19.37,7.98,2.69,.68,5.41-.3,8.14-.28,3.75,.02,7.6,.02,11.23-.49,8.32-1.16,16.53-3.08,24.66-5.4,15.62-4.44,30.99-9.87,47.08-12.6,7.3-1.24,14.49-3.19,21.94-3.45,1.32-.05,1.74-.87,2.29-1.71,1.24-.64,2.4-.09,3.54,.3,1.78,.6,3.52,1.31,5.44,1.46,.82,.06,1.83,.22,1.8,1.36-.03,1.01-.93,1.39-1.75,1.58-1.83,.42-3.7,.7-5.58,.83-10.36,.71-20.12,3.8-29.65,7.68-3.36,1.37-5.74,4.22-8.57,6.36-1.44,1.09-.43,2.65,.36,3.78,3.27,4.7,7.69,7.78,13.22,9.38,10.13,2.93,20.39,4.01,30.91,2.93,5.62-.58,11.29-.07,16.93-.06,8.42,.02,16.64-1.57,24.94-2.6,1.01-.13,2.25-.24,2.71-1.27,1.22-2.71,3.62-3.11,6.09-3.25,2.4-.13,3.35-1.24,3.1-3.6-.13-1.21-.02-2.45-.03-3.67-.02-4.29-1.81-7.3-5.96-8.97-6.65-2.68-13.5-4.63-20.5-6.11-1.47-.31-3.01-.38-4.36-1.11-1.4-.75-1.96-2.02-1.74-3.56,.19-1.34,.75-2.37,2.41-2.01,1.33,1.22,3.05,1.54,4.7,1.57,8.62,.17,16.85,2.7,25.29,4,10.85,1.67,21.31,5.27,32.27,6.47,5.05,.55,9.68,2.9,14.64,3.98,1.56,.34,3.06,.88,4.68,.85,1.99-.05,3.86,.28,5.73,1.13,2.13,.97,4.35,.88,6.44-.5,2.34-1.54,5.11-1.78,7.79-2.18,.97-.14,2.12-.14,2.59,1.14,.01,12.68,0,25.36,0,38.04,0,.92,.24,1.88-.26,2.76Z"/>
      <path class="cls-4" d="M152.01,233.46c1.91,1.95-.05,2.24-1.17,2.18-5.16-.29-9.96,1.55-14.94,2.24-7.78,1.06-15.47,2.51-23,4.75-7.69,2.28-15.4,4.57-23.12,6.7-6.9,1.91-13.72,4.21-20.76,5.73-2.87,.62-5.86,.36-8.52,1.13-7.07,2.05-14.34,.78-21.45,1.96-3.44,.57-7.06-.64-10.26-2.22-1.52-.75-2.99-1.35-4.64-1.8-2.51-.68-5.12-1.03-6.76-3.88-.84-1.47-3.4-1.98-5.23-2.83-.94-.43-2.07-.65-2.42-1.73-1.2-3.66-5.68-4.71-6.65-8.62-.32-1.28-1.97-.67-3.04-.79v-100.56c.94-1.58,.99-3.41,1.24-5.13,.38-2.62,1.35-4.95,2.98-6.89,2.86-3.39,4.1-7.34,4.54-11.61,.22-2.06,.99-3.73,2.35-5.28,2.88-3.3,4.21-7.47,6.04-11.36,.39-.84,.41-1.9,1.04-2.6,2.55-2.81,3.7-6.42,5.56-9.5,1.88-3.12,4.42-6.21,6.85-9.12,1.78-2.13,3.76-4.41,6.31-5.89,.71,.23,.87,.81,.92,1.45-.36,2.07-1.14,4.04-2.28,5.73-5.15,7.62-7.93,16.38-11.97,24.52-2.57,5.17-4.53,10.65-5.85,16.32-.11,.46-.25,.91-.5,1.31-5.78,9.08-7.31,19.5-9.78,29.69-1.26,5.19-2.06,10.49-3.62,15.6-.53,1.74-.75,3.48-.74,5.28,.02,5.27,.09,10.54-.02,15.81-.09,4.32,.93,8.32,2.5,12.32,1.47,3.75,2.41,7.71,2.61,11.78,.05,.94-.19,1.99,.25,2.79,1.45,2.65,2.85,5.25,1.73,8.44-.18,.52,.25,1.1,.72,1.45,1.34,.98,2.22,2.27,2.79,3.81,.13,.35-.15,.11,.14,.22,3.32,1.3,3.94,5.31,6.98,6.87,.61,.31,1.16,.78,1.24,1.45,.32,2.51,2.17,3.17,4.2,3.94,2.01,.76,3.87,1.92,5.86,2.77,2.09,.89,4.21,1.74,6.5,1.72,2.95-.03,5.8,.39,8.64,1.12,2.74,.69,5.47,1.25,8.33,.4,1.87-.55,3.67,.66,5.54,.72,7.15,.23,14.25-.17,21.34-1.25,4.91-.75,9.94-.54,14.84-1.45,6.73-1.24,13.49-2.32,20.25-3.28,7.8-1.11,15.55-2.51,23.36-3.58,3.24-.44,6.6,.06,9.74-1.19,.5-.07,.96,0,1.34,.36Z"/>
      <path class="cls-71" d="M.06,104.65v-27.12c5.07-6.33,7.42-14.12,11.34-21.07,.23-.41,.42-.85,.75-1.19,4.68-4.81,7.3-10.9,10.64-16.57,2.35-3.99,4.2-8.37,7.45-11.83,1.46-1.55,1.83-3.68,2.79-5.5,.35-.66,.39-1.64,1.05-1.95,2.53-1.19,4.1-3.3,5.92-5.29,1.13-1.24,2.56-2.25,3.1-3.87,1.13-3.42,4.18-5.72,5.17-9.2,.14-.5,.63-.66,1.14-.65,7.56,0,15.11,0,22.66,0,1.94,1.16,2.46,4.04,.48,5.5-4.86,3.6-8.27,8.63-12.96,12.47-3.84,3.14-7.9,6.55-10.17,11.33-.32,.68-.87,1.23-1.4,1.76-4,4-6.98,8.71-10,13.47-2.07,3.25-4.36,6.52-6.93,9.47-1.25,1.43-2.29,2.86-3.12,4.58-1.09,2.25-2.1,4.64-4.32,6.15-.79,.54-1.11,1.49-1.47,2.36-2.59,6.24-5.98,12.06-9.65,17.72-.42,.64-.71,1.31-.87,2.06-.78,3.75-2.62,6.86-5.29,9.61-1.57,1.62-2.04,3.96-2.79,6.07-.61,1.73-1.48,2.92-3.51,1.68Z"/>
      <path class="cls-113" d="M.06,104.65c1.77,.16,2.34-.57,3.01-2.36,.9-2.4,1.24-5.08,3.85-7.04,1.89-1.42,3.28-4.34,3.83-7.09,.18-.91-.03-1.99,.63-2.69,3.53-3.7,4.53-8.92,7.81-12.78,.74-.86,1.1-2.18,1.3-3.34,.7-4.04,4.84-5.78,6.1-9.49,1.65-4.87,5.49-8.49,8.43-12.46,4.3-5.81,7.34-12.7,13.27-17.26,.32-3.24,4.09-4.11,4.86-7.04,.21-.81,.91-.83,1.47-1.13,.66-.35,1.63-.66,1.83-1.22,1.33-3.77,5.66-4.31,7.67-7.36,2.02-3.07,4.82-5.46,7.76-7.63,1.86-1.38,.73-3.3,1.06-4.95,3.31-.81,6.67-.16,9.99-.37,2.11,.64,.87,1.71,.18,2.42-4,4.14-7.73,8.54-11.81,12.61-3.53,3.52-7.2,6.88-11.11,9.98-.44,.35-1.09,.7-1.16,1.2-.66,4.66-4.22,7.57-6.65,11.16-.68,1.01-1.2,2.23-2.12,2.97-2.75,2.2-4.32,5.05-5.31,8.35-.93,3.11-3.16,5.53-4.91,8.16-1.33,2.01-2.01,3.92-1.97,6.26,.04,1.73,.41,3.64-1.29,4.95-.54,1.46-1.66,2.47-2.7,3.57-1.97,2.07-5.02,3.23-5.03,6.96,0,1.22-1.83,2.26-3.26,2.89-1.32,.58-2.11,1.5-2.03,3.05,.06,1.25-.22,2.67-1,3.45-3.04,3.06-4.55,6.92-6.31,10.72-1.67,3.6-3.23,7.36-6.26,10.18-.3,.28-.46,.85-.48,1.3-.2,5.38-1.78,10.22-5.39,14.32-2.04,2.32-1.94,5.37-2.77,8.11-.28,.92,.15,2.46-1.5,2.69v-31.07Z"/>
      <path class="cls-68" d="M48.64,.8c.24,2.12-.43,3.55-2.27,4.98-1.73,1.35-1.87,4.07-3.15,6.01-.67,1.02-1.36,1.78-2.27,2.6-2.2,1.99-3.66,4.72-6.71,5.89-.64,.24-.72,1.99-1.15,3.04-1.48,3.64-4.6,6.24-6.15,9.74-1.8,4.07-3.99,8.14-6.42,11.56-2.54,3.55-3.24,8.41-7.54,10.96-1.75,1.04-2.06,3.98-3.28,5.95-1.95,3.12-2.98,6.69-4.36,10.09-.92,2.27-3.28,3.94-5.01,5.88-.05,.05-.18,.03-.27,.04v-23.16c1.15-3.35,2.26-6.72,3.79-9.94,.61-1.29,1.19-2.55,2.5-3.3,.85-.49,1.34-1.29,1.69-2.19,.31-.79,.51-1.72,1.18-2.22,2.37-1.79,3.42-4.08,3.19-7.05-.08-1.07,.5-2.12,1.45-2.59,2.33-1.15,3.07-3.21,3.38-5.5,.26-1.9,1.47-2.99,2.66-4.38,2.99-3.45,6.79-6.49,7.17-11.67,.17-2.3,1.2-4.33,3.7-5.12,5.06,0,10.12-.02,15.17,.02,.9,0,1.88-.34,2.7,.35Z"/>
      <path class="cls-92" d="M29.99,.8c-2.69,2.89-1.88,7.1-3.87,10.29-.6,.96-.93,2.04-2.08,2.48-1.08,.42-1.5,1.36-1.86,2.34-.19,.51-.3,1.44-.56,1.48-3.67,.63-3.37,3.76-4.06,6.26-.45,1.62-.78,3.14-2.84,3.7-1.77,.48-1.81,2.23-1.65,3.78,.22,2.23-.18,4.05-2.45,5.14-.92,.44-1.4,1.43-1.69,2.49-.39,1.44-.83,2.92-2.66,3.28-.87,.17-.96,1.01-1.25,1.72-1.23,3.02-2.99,5.83-3.46,9.16-.1,.73-.57,1.41-1.5,1.45V.7C2.27,.09,4.52,.47,6.75,.45c6.85-.06,13.69-.04,20.54,0,.9,0,1.88-.34,2.71,.35Z"/>
      <path class="cls-120" d="M29.99,.8c-9.98-.03-19.96-.06-29.94-.09C.56-.47,1.58,.18,2.32,.17c11.77-.05,23.54-.04,35.31-.04,83.23,0,166.46,0,249.69-.05,2.12,0,2.6,.48,2.6,2.6-.06,94.91-.05,189.82-.09,284.72,0,.83,.65,1.92-.53,2.54-.03-13.74-.06-27.49-.09-41.23-.79-.93-.84-2.06-.84-3.19,.02-8.53-.15-17.06,.09-25.6-.22-10.36-.1-20.73-.05-31.09-.06-14.87-.18-29.73,.05-44.6-.16-11.68-.2-23.37,0-35.05-.18-13.93-.14-27.86-.06-41.79-.07-11.55-.05-23.11-.05-34.66,0-1.22-.08-2.44,.1-3.66-.18-7.43-.05-14.86-.08-22.28-.02-5.15,0-5.13-5.02-5.16-5.36-.03-10.72,.12-16.08-.08-10.17,.16-20.35,.15-30.52,.01-.53-.04-1.07-.05-1.6-.04-.7,.05-1.41,.01-2.11,.02-4.25,.16-8.51,.11-12.76,.01-7.3,.23-14.6,.06-21.91,.04-7.17,.13-14.34,.05-21.51,.02-16.35,.09-32.7,.09-49.05,.02-8.48,0-16.97,.11-25.45-.01-4.88-.03-9.76,.11-14.64,.04-1.4-.02-2.84,.13-4.04-.85-3.58,0-7.16,0-10.73,0-8.1,0-16.19,0-24.29,0-6.21,0-12.43,0-18.64,0Z"/>
      <path class="cls-90" d="M152.01,233.46c-.37,0-.75,0-1.12-.01-.7-.05-1.25-.47-1.85-.77-.58-.33-1.18-.62-1.83-.81-.34-.1-.66-.22-.96-.38-.7-.45-1.25-1.07-1.85-1.64-.42-.42-.84-.84-1.27-1.25-.51-.51-1.05-.99-1.66-1.38-.82-.55-1.53-1.23-2.23-1.92-.77-.81-1.6-1.58-2.36-2.41-.51-.62-.91-1.32-1.29-2.03-.61-1.3-1.11-2.64-1.27-4.09-.11-2.97-.16-5.94-1.09-8.81-.68-1.85-1.09-3.77-1.44-5.71,1.05-2.48,2.45-.62,3.29-.02,2.35,1.66,4.84,2.88,7.62,3.51,10.55,2.35,21.11,3.03,31.78,.6,5.59-1.27,11.14-2.55,16.44-4.83,3.4-1.46,6.53-3.26,9.48-5.47,.88-.66,2.06-2.27,3.07,0,.31,1.21,.14,2.48,.56,3.67,.75,3.22,.7,6.52,1.07,9.78,.19,2.46-.23,4.8-1.49,6.95-1.27,1.85-2.85,3.52-3.51,5.76-.33,.85-.74,1.65-1.32,2.37-.58,.66-1.22,1.25-1.82,1.89-.71,.69-1.4,1.39-2.27,1.89-.86,.44-1.67,.96-2.45,1.53-.72,.44-1.42,.94-2.2,1.27-.91,.32-1.78,.72-2.63,1.15-.66,.29-1.3,.68-2.07,.59-1.74,.18-1.73,1.44-1.67,2.71,.06,1.3,.77,2.22,2.03,2.32,6.7,.5,12.84,3.28,19.3,4.76,2.85,.65,5.58,2.2,8.11,3.74,2.18,1.33,3.05,3.81,3.23,6.29,.2,2.62,.03,5.27,.06,7.9,.02,1.22-.57,1.61-1.72,1.67-1.68,.1-3.34,.39-5.01,.55-.84,.08-1.6,.42-1.73,1.2-.5,3.07-3.04,2.95-5.14,3.26-9.25,1.39-18.53,2.41-27.89,2.63-1.2,.03-2.42-.33-3.62-.3-4.12,.1-8.22-.1-12.36,.46-7.12,.96-14.29-.24-21.26-1.31-5.67-.88-11.7-2.6-16.16-6.49-2.35-2.05-5.14-4.5-5.83-8.12-.16-.82-.32-1.8,.44-1.94,2.74-.51,3.83-3.08,5.91-4.42,6.11-3.92,13.03-5.51,19.84-7.55,5.88-1.76,11.93-2.1,17.94-2.84,1-.12,2.06-.02,2.81-1.57-3.96,.39-7.02-2.04-10.62-2.39Z"/>
      <path class="cls-101" d="M185.34,232.88c.57-.37,1.14-.74,1.7-1.11,1,.58,2.1,.83,3.24,.87,10.43,.3,20.72,2.16,31.09,2.91,10.47,.75,20.96,1.36,31.52,.73,5.6-.33,10.79-2.34,16.31-2.64,.87-.05,1.66-.4,2.31-.97,1.8-1.58,3.96-2.51,6.11-3.46,1.96-.86,3.59-1.8,4.87-3.88,1.24-2.01,3.77-3.19,5.18-5.33,.3-.45,.99-.5,1.53-.1,0,9.6,0,19.21,0,28.81-3.66,.29-7.2,.49-10.46,2.9-1.69,1.25-4.49,.95-6.71-.16-.58-.29-1.12-.98-1.66-.95-7.89,.41-14.79-3.64-22.3-4.83-8.41-1.33-16.61-3.56-24.93-5.16-9.61-1.84-19.17-4.13-28.92-5.26-2.41-.28-4.85-.25-7.26-.63-1.19-.19-1.69-.6-1.63-1.75Z"/>
      <path class="cls-11" d="M149.19,232.33c.81,0,1.38,.37,1.7,1.11-.72,.86-1.68,1.13-2.76,1.14-7.71,.07-15.2,1.84-22.77,2.95-7.08,1.04-14.18,1.97-21.2,3.31-6.82,1.31-13.74,1.48-20.56,2.4-6.8,.92-13.56,1.48-20.39,1.51-1.8,0-3.55-.08-5.26-.73-.59-.23-1.38-.49-1.89-.28-4.09,1.72-7.86-.08-11.73-.88-.82-.17-1.67-.41-2.48-.35-5.57,.42-10.4-1.58-15-4.4-.73-.45-1.52-.67-2.39-.75-.63-.06-1.75-.37-1.76-.62-.2-3.89-4.9-4.55-5.64-8-.08-.36-.21-1.03-.29-1.03-4.47,.21-3.46-5.37-6.85-6.45-1.32-.42-1.14-2.29-.58-3.27,1.18-2.05,.69-3.45-.95-4.88-.69-.61-.98-1.58-.98-2.57,.02-5.68-1.38-10.97-3.55-16.25-1-2.43-1.77-5.25-1.61-8.17,.24-4.32,.2-8.66,.03-12.98-.2-5.11,.99-9.96,1.82-14.94,.88-5.23,2.86-10.15,3.44-15.45,.39-3.53,1.06-7.24,2.99-10.4,.94-1.55,.78-3.26,1.18-4.88,.92-3.72,1.95-7.28,4.91-10.01,.5-.46,.29-1.62,.58-2.4,.89-2.39,1.2-4.88,2.62-7.25,1.25-2.09,1.58-4.95,2.65-7.43,.96-2.23,2.05-4.43,3.17-6.52,1.26-2.34,1.79-4.91,3.06-7.22,1.59-2.9,2.54-6.22,4.43-8.88,1.82-2.57,2.92-5.38,4.19-8.16,1.35-.79,2.42-2.13,4.17-2.16,.77,1.32,.13,2.6-.1,3.9-1.03,3.35-2.94,6.3-4.32,9.49-1.74,4.06-2.82,8.35-4.35,12.44-1.55,4.15-1.54,8.94-4.67,12.49-3.58,5.01-5.27,10.91-7.88,16.35-2.5,5.19-3.05,11.09-6.4,15.88-.54,.78-.45,1.81-.48,2.75-.04,1.13,.11,2.43-.6,3.29-3.27,3.99-2.71,9-3.13,13.49-1.2,12.73-1.61,25.55,.37,38.28,.74,4.72,1.63,9.69,3.64,13.81,2.02,4.17,3.81,8.52,6.08,12.59,1.1,1.96,3.19,2.92,4.54,4.59,3.26,4.04,7.26,6.59,12.21,8.47,5.4,2.05,10.62,3.86,16.47,4.35,4.55,.38,9.07,1.29,13.67,1.65,4.55,.36,9.01-.25,13.5-.36,10.8-.28,21.44-2.31,32.18-3.32,3.69-.35,7.47-.81,11.04-2.08,1.03-.27,2.1-.24,3.13-.52,2.87-.21,5.72-.6,8.58-.98,4.69-.94,9.52-.67,14.2-1.7Z"/>
      <path class="cls-146" d="M41.29,67.36c-.81,1.65-2.2,2.28-3.96,2.27-.01-.47-.12-.88-.56-1.13,.19-.91,.66-1.87,.52-2.73-.97-5.72,2.46-9.58,5.4-13.77,1.18-1.68,2.26-3.64,2.52-5.78,.21-1.74,1.04-3.04,2.39-3.96,2.09-1.43,3.49-3.35,4.39-5.64,.37-.94,.91-1.75,1.71-2.15,1.96-.98,3.18-2.77,3.39-4.6,.34-2.99,2.26-4.69,4.03-6.63,.06-.07,.09-.22,.15-.23,3.6-.73,4.8-4.38,7.54-6.19,2.1-1.39,4.13-3.37,5.2-5.34,1.62-2.99,5.71-3.56,6.25-7.42,.21-1.48,3.3-1.01,3.42-3.25,6.21,0,12.42,0,18.63,0-1.19,2.73-3.78,4.07-6.07,5.43-4.62,2.76-8.84,5.86-12.74,9.62-3.22,3.09-6.91,5.73-9.99,9.02-6.2,6.62-12.28,13.29-17.77,20.57-4.78,6.34-7.19,14.04-12.46,20-.61,.69-.94,1.65-1.96,1.92Z"/>
      <path class="cls-45" d="M236.19,.8c10.36,0,20.71,0,31.07,0,.75,2.75,2.83,4.78,3.99,7.32,.52,1.13,1.35,2.3,2.65,2.33,3.83,.1,4.94,3.18,6.18,5.75,1.26,2.62,2.3,5.13,4.51,7.29,1.64,1.6,2.5,4.09,4.61,5.46,0,12.8,0,25.6,0,38.4-3.1-2.2-5.26-5.17-6.57-8.67-.58-1.56-1.08-2.97-2.64-3.79-.78-.41-1.24-1.13-1.53-1.95-.22-.62-.35-1.34-.81-1.79-4.06-3.9-5.47-9.89-9.78-13.38-4.4-3.56-6.46-9.06-11.12-12.25-.71-.48-1.07-1.3-1.39-2.09-.46-1.15-1.19-1.89-2.52-1.86-.78,.02-1.81-.12-1.95-.84-.52-2.63-2.66-3.84-4.3-5.54-.91-.95-1.33-2.22-3.01-1.95-.85,.14-1.46-.5-1.69-1.24-.79-2.56-2.53-4.2-4.66-5.75-1.8-1.3-2.46-3.3-1.02-5.45Z"/>
      <path class="cls-120" d="M236.19,.8c-.28,2.99,.4,5.21,3.72,6.31,1.69,.56,1.88,2.83,2.47,4.45,.35,.95,.54,1.63,1.7,.85,.34-.23,1.25-.27,1.26-.24,.78,3.18,5.16,3.49,5.53,6.93,.15,1.37,.63,2.21,2.16,1.7,.98-.33,1.96,0,2.2,.73,1.45,4.34,5.78,6.26,8.08,9.87,.7,1.09,1.77,1.9,1.85,3.35,.02,.41,.36,.95,.71,1.17,4.28,2.6,5.72,4.25,7.25,8.67,.81,2.33,3.49,2.89,4.55,5.11,1.1,2.31,2.01,4.97,4.77,6.07,.21,.09,.44,.44,.45,.68,.18,4.75,4.33,7.19,6.3,10.89,0,13.94,0,27.88,0,41.81-1.42,.67-1.9-.4-2.18-1.36-1.43-4.99-4.28-9.42-5.81-14.32-1.6-5.14-4.3-9.69-6.52-14.51-.26-1.6-.78-3.08-1.79-4.39-1.18-1.52-1.9-3.22-1.92-5.2-.02-1.17-.64-2.15-1.15-3.15-1.41-2.77-2.79-5.55-3.66-8.55-.37-1.29-1.08-2.39-1.95-3.4-1.19-1.37-1.81-3.05-2.66-4.62-2.35-4.34-4.96-8.56-7.43-12.82-3.12-5.4-8.41-8.8-11.62-14.06-1.7-2.78-4.28-5.04-6.92-6.99-5.17-3.82-9.38-8.69-14.4-12.65-.69-.55-1.55-1.23-.81-2.35,4.33,0,8.66,0,12.99,0,.99,1.04,.78,2.36,.85,3.49,.06-1.12-.15-2.44,.84-3.49,.38,0,.76,0,1.13,0Z"/>
      <path class="cls-125" d="M189.86,230.67c.77-.36,1.25-1.26,2.24-1.2,2.16-.47,4.28,.06,6.42,.17,6.1,.32,12.21,.2,18.32,.06,5.62-.13,11.23-.17,16.83-.94,7.32-1.01,14.46-2.7,20.96-6.19,4.19-2.25,7.92-5.35,11.1-9.01,6.65-7.67,10.36-16.63,11.62-26.64,.63-5.04,1.87-9.96,2.41-15.02,.69-6.47,1.55-12.87-.19-19.3-.27-.99-.2-2.05-.13-3.09-.1-6-.11-11.99-.41-17.99-.23-4.44,.19-8.98,.83-13.43,1.76-1.21,1.85,.48,2.38,1.39,2.66,4.55,2.87,9.84,4.5,14.7,1.1,3.29,.73,6.92,2.48,10.02,0,14.88,0,29.77,0,44.65-1.66,4.24-1.99,8.78-2.99,13.17-.21,.91-.17,1.9-.56,2.76-3.47,7.72-7.13,15.28-14.2,20.56-4.31,3.22-9.24,5.06-14.27,6.54-12.44,3.67-25.18,3.11-37.97,2.59-9.37-.38-18.68-1.65-28.06-1.69-1.27,0-2.67-.3-1.28-2.1Z"/>
      <path class="cls-30" d="M41.29,67.36c.84-1.8,2.13-3.3,3.27-4.9,2.16-3.05,3.84-6.35,5.51-9.71,2.54-5.11,6.59-9.28,9.85-13.95,4.35-6.22,10.17-11.09,15.21-16.67,2.07-2.29,4.4-4.59,7.25-6.15,1.73-.95,2.61-2.83,4.15-4.1,4.77-3.95,10.42-6.57,15.22-10.43,.21-.17,.35-.43,.52-.65,8.47,0,16.95,0,25.42,0,.21,1.32-.76,1.85-1.67,2.3-1.51,.75-3.04,1.74-4.66,1.93-7.23,.85-12.45,5.93-18.77,8.65-1.94,.84-3.06,2.73-4.68,4.01-6.6,5.24-13.03,10.69-19.45,16.15-3.78,6-9.34,10.52-13.52,16.19-1.84,2.5-3.44,5.16-5.19,7.71-1.86,2.71-3.74,5.4-5.76,8-.99,1.28-1.54,2.74-2.01,4.3-.57,1.89-.9,4.11-3.3,4.83-1.39-1.28-2.58-1.79-4.63-.69-2.5,1.33-2.53-1.51-3.34-2.86,.19-1.32,.38-2.64,.56-3.96Z"/>
      <path class="cls-80" d="M78.01,33.47c4.64-3.92,8.97-8.18,13.87-11.8,2.77-2.04,5.24-4.49,7.81-6.79,1.2-1.08,2.53-1.93,3.94-2.68,2.48-1.32,5.04-2.5,7.39-4.03,2.81-1.83,5.8-2.87,9.05-3.59,2.77-.62,5.68-1.33,7.63-3.78,16.39,0,32.79,0,49.18,0,4.49,1.62,9.1,2.82,13.67,4.18,.81,.24,1.68,.32,2.4,.78,6.74,4.24,14.24,7.17,20.76,11.78,2.89,2.04,5.71,4.25,7.73,7.27,1.26,5.65,4.82,10.06,7.97,14.69,.65,.95,1.97,1.64,1.13,3.12-1.57,.15-2.39-1.04-3.19-2.01-1.92-2.32-4.08-4.43-5.9-6.83-4.03-5.3-9.32-9.14-14.57-13.13-8.49-6.47-18.32-9.91-28.21-13.16-5.06-1.66-10.41-2.65-15.81-2.58-3.46,.04-6.89-.36-10.39-.22-5.76,.24-11.37,1.29-17.04,2.01-3.71,.48-7.22,2.06-10.71,3.46-6.82,2.74-13.3,6.17-19.22,10.51-4.84,3.55-9.44,7.42-14.04,11.29-4.02,3.38-6.75,7.82-10.56,11.31-2.2,3.67-5.22,6.71-7.8,10.09-.49,.64-1.03,1.75-2.19,.79-.64-2.95,1.08-5.38,1.8-8.02,.17-.62,.76-1.15,.79-1.78,.16-4.19,2.44-7.48,4.51-10.86Z"/>
      <path class="cls-51" d="M220.38,.79c1.11,2.65,3.75,3.81,5.64,5.68,5.2,5.13,11.8,8.96,16.07,14.85,3.57,4.94,8.48,8.54,11.69,13.87,3.21,5.32,6.06,10.86,9.41,16.02,3.17,4.89,5.27,10.17,7.37,15.38,1.6,3.96,3.75,7.8,4.61,12.07-.25,.16-.5,.18-.76,.03-1.17-1.79-2.22-3.68-3.87-5.13-.42-.37-.83-.87-.87-1.42-.27-4.11-3.39-6.55-5.63-9.45-2.28-2.96-3.92-6.3-6.47-9.13-4.07-4.51-7.66-9.46-12.4-13.36-.22-.18-.5-.37-.56-.62-1.25-4.67-5.65-6.23-8.82-8.99-6.74-7.67-14.85-13.78-22.89-19.93-3.93-3.01-8.43-5.19-12.73-7.66-.84-.48-1.99-.85-1.83-2.21,7.34,0,14.68,0,22.03,0Z"/>
      <path class="cls-66" d="M189.86,230.67c-.59,1.43,.16,1.59,1.34,1.52,6.35-.37,12.62,.75,18.94,.97,.55,.02,1.1,.27,1.65,.27,8.72,.05,17.42,.88,26.16,.6,10.29-.33,20.2-2.42,29.38-7.02,4.21-2.11,7.37-5.7,10.46-9.46,2.58-3.14,3.39-6.94,5.73-10.06,2.39-3.18,1.81-7.37,2.93-11.02,.8-2.59,0-5.74,2.73-7.64,0,10.35,0,20.71,0,31.06-1.82,2.94-5.76,4.02-6.74,7.68-.19,.71-.6,1.09-1.3,1.31-3.48,1.07-6.82,2.32-9.57,4.94-1.66,1.59-4.13,.63-6.19,1.26-4.22,1.3-8.56,1.82-13.02,2.02-5.9,.26-11.77,.51-17.67-.06-2.24-.22-4.5-.25-6.75-.17-6.31,.21-12.45-1.26-18.68-1.8-6.42-.56-12.79-1.67-19.25-1.62-1.29,0-2.77,.27-2.99-1.68,.92-.41,1.74-1.09,2.82-1.1Z"/>
      <path class="cls-81" d="M198.35,.8c2.13,1.63,4.28,3.15,6.8,4.23,4.27,1.83,7.73,5.02,11.57,7.57,5.53,3.68,9.75,8.94,15.31,12.62,1.71,1.13,2.79,3.21,4.15,4.85,3.88,3.3,5.39,8.03,7.46,12.42,.41,.85,.75,1.84,1.63,2.24,4.12,1.88,3.95,5.22,3.12,8.82-1.32,.96-1.82-.31-2.41-.98-3.54-4.01-6.54-8.43-10.3-12.29-3.87-3.95-7.75-7.87-11.86-11.56-1.22-1.1-2.19-2.28-2.89-3.73-3.77-4.2-8.29-7.39-13.12-10.3-4.79-2.89-9.94-5.07-14.76-7.91-3.5-2.06-7.84-2.78-11.89-3.74-1.72-.41-3.26-.69-4.27-2.25,7.15,0,14.31,0,21.46,0Z"/>
      <path class="cls-105" d="M274.6,78.66c.19,0,.38,0,.57,0,2.41,4.52,4.94,8.91,6.48,13.92,.92,2.99,2.2,6.08,3.79,8.93,1.04,1.88,2.07,3.79,2.18,6.02,.05,.99,.59,1.54,1.58,1.63,0,11.68,0,23.35,0,35.03-1.47-.34-1.9-1.73-1.98-2.77-.45-5.65-2.47-10.94-3.63-16.43-.55-2.6-1.83-5.07-3.33-7.35-1.7-2.26-2.77-4.95-3.27-7.58-.81-4.23-2.69-8.05-3.83-12.14-.65-2.33-1.62-4.58-2.12-6.97-.29-3.56,.54-6.91,1.9-10.15,.36-.86,.63-1.8,1.66-2.14Z"/>
      <path class="cls-111" d="M289.2,28.94c-2.41-.3-3.97-1.52-4.37-4.01-.09-.57-.28-1.19-.84-1.39-3.02-1.13-3.11-4.15-4.35-6.46-1.34-2.5-1.9-6-6-5.73-.42,.03-1.07-.22-1.26-.54-1.9-3.24-5.38-5.68-5.12-10.01,6.78-.03,13.55-.03,20.33-.12,1.36-.02,1.74,.37,1.73,1.73-.09,8.85-.09,17.69-.12,26.54Z"/>
      <path class="cls-45" d="M235.06,.8c-.26,1.17,.67,3.31-.85,3.31-1.51,0-.58-2.14-.85-3.3,.56,0,1.13,0,1.69,0Z"/>
      <path class="cls-57" d="M280.25,149.84c-.21,3.85,1.45,7.44,1.22,11.37-.41,7.11-1.09,14.14-2.68,21.09-.64,2.81-.81,5.72-1.22,8.58-.63,4.44-2.65,8.39-4.25,12.51-3.23,8.31-9.48,14.06-16.42,18.86-4.37,3.02-9.69,4.95-15.05,5.96-5.96,1.12-11.97,2.11-18.03,2.36-5.68,.23-11.38,.07-17.07,.04-3.84-.02-7.79,.56-11.44-.74-1.18-.42-2.54,1.96-3.2-.41,.47-.96,1.42-1.24,2.32-1.6,2.47-.62,4.92-.63,7.49-.41,4.88,.41,9.7-.84,14.58-1.09,6.03-.31,11.89-1.57,17.68-3.25,3.63-1.05,7.38-2.31,10.41-4.19,4.13-2.55,8.96-5,11.56-9.16,5.01-8.04,9.26-16.46,11.43-25.93,2.34-10.2,3.28-20.42,2.76-30.79-.28-5.72-1.42-11.38-2.14-17.06-.86-6.83-3.47-13.06-5.56-19.48-1.17-4.37-.12-8.78-.27-13.17,1.04-1.24,1.96-.25,2.85,.21,.97,.5,1.82,1.2,2.6,1.98,2.82,5.6,5.3,11.35,6.93,17.42,.68,2.54,1.36,5.06,2.87,7.28,1.1,1.62,1.17,3.52,1.19,5.41,.05,4.77,.93,9.46,1.45,14.18Z"/>
      <path class="cls-60" d="M144.7,229.46c.78,.37,1.29,1,1.71,1.72-1.99,1.28-4.33,.9-6.5,1.35-5.99,1.26-12.13,.97-18.17,1.72-7.82,.97-15.72,.83-23.56,1.6-6,.59-11.99-.57-18-.71-3.96-.09-7.81-.98-11.72-1.49-3.11-.4-6.09-1.14-8.89-2.57-1.76-.9-3.54-1.75-5.54-2.01-.47-.06-.96-.16-1.33-.44-6.37-4.73-13.49-8.7-16.76-16.57-.22-.52-.33-1.15-.7-1.53-4.37-4.55-5.11-10.66-6.39-16.31-1.99-8.82-4.33-17.52-4.48-26.82-.15-9.55,1.41-18.71,3.15-27.89,1.62-8.55,4.45-16.8,7.98-24.8,2.23-5.06,3.91-10.37,5.54-15.66,.58-1.89,1.08-3.8,2.14-5.5,1.36-.86,1.82,.35,2.39,1.11,.62,.82,1.17,1.71,1.37,2.76-.98,5.03-2.03,10.05-3.44,14.97-.79,2.78-.89,5.75-2.27,8.36-1.45,1.95-1.82,4.29-2.47,6.55-2.75,9.49-4.29,19.11-5.42,28.97-1.23,10.71,1.05,20.67,2.62,30.95,.72,4.76,2.66,8.88,3.98,13.32,1.41,4.77,3.76,8.78,7.4,12.1,.49,.44,.99,.9,1.32,1.46,4.99,8.39,13.48,11.46,22.08,13.98,8.12,2.38,16.48,3.36,25.03,3.54,13.37,.28,26.66-.81,39.99-1.29,2.99-.11,5.9-1.26,8.95-.85Z"/>
      <path class="cls-74" d="M132.19,202.48c1.38,1.41,.89,3.47,1.74,5.06,.08,2.18-.76,3.01-2.89,2.68-1.5-.23-2.85-.95-4.24-1.53-.78-.33-1.54-.81-2.38-.85-5.9-.31-10.55-3.45-15.21-6.59-1.41-.95-3.02-1.49-4.47-2.39-6.27-3.91-11.03-9.58-14.11-15.86-3.44-7.02-6.77-14.53-6.28-22.84,.07-1.24-.44-2.4-.62-3.61-.2-1.36-.2-2.81,1.21-3.45,1.34-.61,1.95,.72,2.68,1.54,.44,.49,.9,.96,1.38,1.41,5.32,6.34,11.35,11.91,17.94,16.92,6.24,4.75,13.18,8.16,20.47,10.93,1.54,.58,3.37,.72,4.21,2.5,.92,3.47,1.29,6.94,.18,10.44-.67,1.93-.05,3.78,.39,5.64Z"/>
      <path class="cls-88" d="M88.75,156.62c-.68-.63-1.4-1.23-2.04-1.9-.48-.5-.63-1.62-1.61-1.1-.65,.34-.99,1.22-.81,1.98,1.43,5.91,1.29,12,3.32,17.95,2.52,7.4,6.31,13.72,11.32,19.47,2.54,2.91,5.93,4.72,9.15,6.82,3,1.96,6.6,2.94,9.15,5.6,.53,.55,1.24,.88,2.02,.88,3.94,0,7.48,1.4,11,2.95,1.77,.78,3.38,.83,3.67-1.72,1.1,3.09,1.49,6.26,1.06,9.52-2.14,1.61-4.47,.59-6.51,.08-4.29-1.07-8.69-1.41-12.97-2.57-7.51-2.05-14.87-4.61-20.71-9.79-6.68-5.93-13.33-11.85-16.74-20.79-2.25-5.89-3.1-11.95-4.75-17.88-1.83-6.56-.99-13.24-1.18-19.88-.09-3.26,2.49-5.35,3.59-8.1,.47-1.18,1.98-.23,2.93,.4,2.05,2.03,2.91,4.8,4.39,7.19,1.78,2.87,3.29,5.91,5.31,8.64,.49,.66,1.07,1.38,.4,2.28Z"/>
      <path class="cls-126" d="M202.87,216.52c1.15-2.1,1.48-4.39,1.52-6.74,5.26-3.77,10.08-8.04,14.79-12.48,2.81-2.65,4.18-5.97,5.8-9.16,4.06-8.02,7.23-16.39,8.37-25.4,.06-.47,.22-.94,.15-1.4-.95-5.69-1.16-11.46-2.14-17.15,.57-3.82,2.47-7.06,4.47-10.26,1.02-.82,1.12-2.12,1.68-3.18,1-1.91,2.38-2.07,3.64-.33,2.7,3.7,4.27,7.88,4.87,12.4,.35,2.69,.47,5.4,.9,8.08,.26,4.69,.73,9.38-.6,14.01-.71,2.45-.38,5.02-.77,7.54-1.08,6.94-4.83,12.82-7.52,19.02-2.21,5.1-5.66,9.82-9.81,13.98-6.31,6.32-14.15,9.4-22.22,12.28-2.18,.78-2.69,.49-3.11-1.21Z"/>
      <path class="cls-109" d="M139.65,224.91c.72,.61,1.45,1.21,2.17,1.82-.07,1.22-1.08,1.23-1.85,1.25-1.89,.04-3.72,.46-5.59,.61-13.63,1.16-27.24,.75-40.74-1.29-8.1-1.23-15.75-4.27-23.15-7.81-.51-.24-1.02-.54-1.39-.96-3.32-3.71-8.03-5.83-11.09-9.88-1.14-1.51-2.23-3.03-3.04-4.71-1.91-3.94-4.11-7.68-4.86-12.21-.57-3.43-2.74-6.51-3.48-10.06-.77-3.66-2.17-7.44-2.29-10.96-.27-8.11-1.54-16.32,.4-24.42,1.09-4.57,1.09-9.4,2.59-13.84,2.73-8.08,4.48-16.49,8.23-24.23,3.18-.12,4.28,2.32,5.57,4.54,.67,3.41-.46,6.56-1.9,9.45-3.25,6.54-3.66,13.83-5.8,20.65-.13,.43-.03,.93,0,1.4-.05,4.04-.23,8.07-.43,12.1-.41,8.09-.16,16.34,2.62,23.94,1.83,5,2.72,10.33,5.2,15.1,5.96,11.48,14.76,19.65,27.05,24.06,10.94,3.93,22.17,5.47,33.74,5.29,6.01-.09,12.03-.27,18.04,.16Z"/>
      <path class="cls-23" d="M202.87,216.52c.48,1.42,1.55,1,2.46,.7,5.89-1.96,11.67-4.27,16.85-7.66,4.04-2.64,7.54-6.07,10.16-10.24,.65-1.03,1.16-2.17,1.93-3.1,3-3.69,4.52-8.11,6.08-12.47,.98-2.74,3.22-4.76,3.68-7.8,1.26-8.29,2.79-16.53,2.33-24.97-.5-2.97,.27-5.28,3.29-6.48,1.76-.7,2.1-2.18,2.1-3.88,0-2.79,.13-5.57,1.22-8.21,.72-.36,1.01,.17,1.29,.66,.37,.66,.71,1.37,.82,2.09,1.35,8.46,4.49,16.79,1.92,25.57-.5,1.71-.48,3.61-.15,5.33,.88,4.65-.96,8.84-1.69,13.24-.94,5.7-3.82,10.54-5.77,15.78-1.35,3.63-3.48,6.88-6.22,9.67-.4,.4-.86,.76-1.16,1.23-5.55,8.75-14.98,11.21-23.83,14.47-4.76,1.75-9.83,2.52-14.84,3.35-1.54,.26-3.31,.73-3.8-1.62,.23-2.4,2-3.89,3.33-5.65Z"/>
      <path class="cls-35" d="M43.55,93.36c-1.25,4.77-3.08,9.37-4.51,14.07-1.69,5.57-4.22,10.76-6.2,16.19-2.25,6.19-3.71,12.55-5.14,18.92-1.28,5.72-2.75,11.62-2.6,17.4,.22,8.35-.43,16.89,2.19,25.04,1.9,5.9,3.1,11.97,4.48,17.99,.21,.91,.41,1.96,.99,2.61,3.52,3.96,5.1,9.11,8.31,13.26,2.15,2.78,5.39,4.02,8.07,6.01,6.28,4.65,13.54,6.81,21.26,8.2,8.54,1.53,17.14,2.1,25.67,1.91,9.87-.21,19.78-1,29.65-1.82,6.89-.58,13.73-1.75,20.65-1.95,.36,.02,.72,.03,1.09,.05,.63,1.52-.52,1.45-1.43,1.64-3.03,.63-6.15,.85-9.19,1.03-8.72,.52-17.28,2.35-26.01,2.74-10.11,.45-20.17,1.96-30.33,1.62-7.07-.23-14.21-.65-20.93-2.7-7.83-2.39-15.58-5.03-21.7-11.32-3.93-4.04-7.07-8.2-9.77-13.16-3.71-6.8-4.33-14.33-6.73-21.4-2.25-6.64-1.22-13.59-1.82-20.39-.11-1.31,.11-2.66-.22-3.94-1.49-5.77-.19-11.36,.87-17,.92-4.89,2.05-9.74,2.92-14.64,.9-5.06,2.75-9.98,5.52-14.37,1.5-2.38,2.69-4.71,2.83-7.52,1.18-3.28,1.79-6.62,4.63-9.35,2.49-2.39,3.15-6.3,4.46-9.61,.49-1.24,.72-2.61,2.53-2.39,.67,.88,1.18,1.78,.43,2.88Z"/>
      <path class="cls-103" d="M144.7,229.46c-.86,1.77-2.35,.25-3.52,.69-4.94,1.86-10.2,.97-15.3,1.48-6.79,.68-13.67,.61-20.51,.8-7.77,.22-15.6,.32-23.17-.91-7.18-1.17-14.37-2.89-21.18-6.09-5.32-2.5-9.39-5.83-12.78-10.52-2.33-3.23-5.89-5.56-7.4-9.47-1-2.6-1.5-5.53-3-7.79-2.95-4.46-1.94-9.65-3.37-14.37-1.43-4.75-1.55-9.76-2.38-14.62-1.13-6.58,1.07-12.76,1.19-19.16,.07-3.53,1.06-7.04,1.11-10.56,.03-2.01,1.66-3.01,1.92-4.85,.48-3.49,1.45-6.91,2.31-10.34,.32-1.28,1.19-2.32,2.11-3.28,1.74,2.11,1.98,4.74,2.42,7.27,.17,1,.11,2.04,.35,3.04,0,2.56-.42,5.09-1,7.54-2.01,8.46-2.3,17.11-3.13,25.7-.34,3.53,.67,6.91,1.09,10.36,.93,7.78,3.11,15.23,6.33,22.34,1.46,3.23,3.89,5.99,4.77,9.54,.15,.63,.56,1.21,1,1.7,6.98,7.81,14.53,14.77,25.31,16.95,2.57,.52,4.98,1.62,7.57,2.21,12.81,2.94,25.82,2.13,38.76,2.01,6.45-.06,12.88-1.11,19.36-.74,.39,.36,.77,.72,1.16,1.08Z"/>
      <path class="cls-142" d="M139.65,224.91c-.8,.97-1.91,.62-2.9,.62-7.71,.03-15.44,.28-23.13-.07-6.23-.29-12.41-1.11-18.49-2.86-5.96-1.72-11.74-3.64-17.07-6.89-8.15-4.97-14.32-11.79-18.02-20.46-3.19-7.47-6.29-15.17-7.16-23.29-.65-6.08-1.57-12.24-.43-18.47,.55-3,.13-6.19,.15-9.29,2.6-1.62,2.5-4.7,3.82-7.01,.93-1.62,3.78-2.35,6.13-1.78,.68,1.57,.65,3.21-.09,4.66-1.08,2.12-1.17,4.31-1.15,6.59,.05,5.81-.19,11.63-.17,17.44,.02,6.13,1.69,11.64,3.53,17.28,1.73,5.31,4.21,10.3,7.08,15,3.92,6.4,8.29,12.51,15.75,15.56,4,1.63,7.9,3.55,11.89,5.2,2.93,1.21,6.15,1.82,9.26,2.29,8.54,1.29,17.07,2.94,25.78,2.49,1.06-.05,2.05,.22,2.96,.78,.75,.74,1.5,1.47,2.26,2.21Z"/>
      <path class="cls-29" d="M78.58,139.11c-1.42-.71-3.01-1.88-2.95,1.18,0,.34-.19,.8-.45,1.01-2.94,2.4-2.06,5.73-2.29,8.85-.57,7.67,1.26,15.01,2.52,22.47,1.01,6.01,3.64,11.3,6.04,16.72,1.25,2.81,3.48,5.02,5.87,7.05,1.56,1.32,2.74,3.06,4.19,4.52,6.76,6.78,15.07,10.65,24.27,12.8,6.34,1.48,12.67,3.01,19.2,3.37,.43,1.32,.86,2.63,1.29,3.95-.79,.89-1.88,.91-2.88,.75-7.04-1.11-14.25-1.06-21.17-2.86-12.33-3.21-24.01-7.78-32.69-17.75-3.04-3.49-4.82-7.83-7.42-11.63-1.83-2.66-2.73-5.66-3.29-8.89-.75-4.32-3.08-8.26-3.38-12.76-.1-1.48-.48-2.94-.26-4.46,.26-1.77,.28-3.59,.11-5.35-.88-8.75,1.68-17.16,2.54-25.74,.33-3.33,3.13-6.29,5.48-6.53,2.44,4.17,5.21,8.21,5.27,13.32Z"/>
      <path class="cls-7" d="M143.54,228.38c-.27,.52-.65,1.1-1.26,.93-2.82-.81-5.56-.04-8.35,.15-10.5,.72-21.04,.92-31.55,.53-8.11-.3-16.11-1.33-23.96-4.01-5.17-1.77-10.34-3.25-14.8-6.49-4.42-3.22-9.23-6.57-11.7-11.23-2.98-5.61-6.43-11.07-8.43-17.28-2.75-8.57-4.93-17.29-4.84-26.2,.08-8.64,.76-17.36,2.95-25.85,.7-2.7,.94-5.52,1.39-8.28-.52-5.07,2.77-8.83,4.83-12.87,1.7-3.33,3.15-6.77,4.78-10.12,.61-1.27,1.08-2.61,1.91-3.75,.42-.58,.88-1.71,1.9-.55,.5,1.63,.77,3.23-.43,4.7-2.89,7.38-4.43,15.2-7.46,22.56-1.28,3.12-1.45,6.71-2.01,10.11-1.09,6.55-2.29,13.08-1.87,19.79,.2,3.23-.08,6.68,.39,9.67,.59,3.74,1.81,7.59,2.38,11.4,.73,4.85,3.27,9.02,4.49,13.71,1.24,4.78,3.54,9.86,7.71,13.67,1.95,1.78,4.13,3.35,5.92,5.17,5.94,6.08,13.53,8.32,21.29,10.51,12.12,3.41,24.53,4.1,36.96,3.58,6-.25,12.13,.12,18.05-1.5,.82,.3,1.32,.92,1.72,1.66Z"/>
      <path class="cls-122" d="M32.26,111.43c.17,3.26-.78,6.13-3.11,8.46-1.8,1.8-2.02,4.37-2.9,6.52-2.73,6.62-3.1,13.89-4.87,20.79-1.08,4.21-1.22,8.5-2.06,12.71-.14,.7,.03,1.5,.18,2.22,1.14,5.42,1.18,10.87,.99,16.4-.15,4.28,1.01,8.48,2.09,12.63,1.34,5.15,2.71,10.29,3.98,15.46,.22,.88,.4,1.61,1.25,2.04,.73,.36,1.16,1.03,1.34,1.75,1.41,5.62,4.99,9.51,9.37,13.13,2.19,1.81,4.5,3.57,6.61,5.53,2.42,2.23,5.82,2.41,8.72,3.68,4.95,2.16,10.25,3.24,15.64,3.81,8.68,.92,17.37,1.39,26.08,.4,2.79-.31,5.59-.57,8.39-.65,7.58-.2,15.08-1.13,22.59-2.13,6.2-.82,12.46-1.25,18.7-1.85,.88-.08,1.99,.3,2.22-1.09,.57,.37,1.13,.73,1.7,1.1-1.1,2.73-3.59,.94-5.36,1.47-2.76,.82-5.83,.58-8.77,.78-3.01,.43-6.07,.4-9.04,1.13-.75,.51-1.51,.51-2.26,0-3.94,1.33-8.04,1.86-12.13,2.22-7.65,.68-15.31,1.28-22.92,2.38-2.8,.41-5.65,.26-8.46,.16-11.04-.38-21.93-1.56-32.28-5.88-2.5-1.05-5.21-1.65-7.7-2.73-4.82-2.1-8.61-5.32-11.77-9.68-2.22-3.07-4.57-5.79-4.54-9.79-4.22-4.94-4.22-11.5-6.54-17.18-1.38-3.37-1.02-7.11-1.06-10.62-.07-7.64-1.67-15.16-1.68-22.73,0-5.85-.16-11.86,2.13-17.54,1.02-2.52,1.01-5.34,1.67-8,1.19-4.83,2-9.76,4.11-14.31,.58-2.03,3.43-2.99,2.66-5.66,.02-.87,.03-1.74,.53-2.51,2.12-.56,.95,2.05,2.4,2.34,1.02-1.81,.49-5.15,4.08-4.76Z"/>
      <path class="cls-138" d="M263.3,116.51c4.68,10.08,6.09,20.89,7.41,31.76,.83,6.76,.68,13.53,.33,20.24-.23,4.46-1.14,8.98-2.38,13.4-1.05,3.74-1.75,7.58-3.05,11.27-.83,2.35-1.65,4.66-2.95,6.81-1.5,2.49-3.06,4.98-4.18,7.64-1.45,3.43-3.98,5.58-7.13,7.22-.5,.26-1.11,.42-1.48,.81-6.88,7.43-16.59,8.42-25.55,10.71-4.4,1.13-9.3,.64-13.9,1.48-4.91,.89-9.85-.14-14.74,.48-.39,.05-.84-.3-1.26-.46,.72-.61,1.44-1.23,2.16-1.84,1.12-.11,2.24-.2,3.37-.17,12.25,.35,24.24-1.27,35.63-5.81,5.17-2.06,10.19-4.85,13.55-9.69,.48-.7,1.07-1.31,1.63-1.95,2.75-3.19,5.67-6.2,6.95-10.46,.68-2.29,1.94-4.46,3.32-6.51,2.19-3.26,2.17-7.2,2.77-10.85,1.15-6.93,3.11-13.76,2.7-20.92-.17-3.02-.34-6.02-1.22-8.91-1.74-5.67-2.24-11.57-3.35-17.36-.16-.83-.21-1.7-.66-2.43-2.98-4.79-5.39-9.89-8.06-14.85-1.05-2.51-1.94-5.05-2.11-7.81-.16-2.65-1.54-5-2.02-7.57-.25-1.36-.63-2.75-.27-4.16,1.05-1.22,1.76-.13,2.14,.54,1.89,3.3,4.91,5.89,6.07,9.63,.32,1.02,1.09,1.7,1.81,2.44,2.02,2.11,3.44,4.61,4.48,7.33Z"/>
      <path class="cls-20" d="M73.49,126.12c-2.31,.53-4.85,4.18-5.08,7.24-.32,4.19-.8,8.32-2,12.4-.62,2.09-.16,4.48-.26,6.73-.2,4.21-.26,8.46-.21,12.63,.05,3.66,.53,7.69,2.45,11.11,1,1.78,1.55,3.74,1.6,5.62,.1,3.88,2.66,6.51,4.24,9.63,.63,1.24,1.71,2.26,2.32,3.51,3.45,7.01,9.31,11.69,15.74,15.52,4.63,2.76,9.83,4.51,15.04,6.11,4.76,1.46,9.46,2.61,14.51,2.83,4.81,.2,9.55,1.69,14.44,1.56,.37,.56,.75,1.13,1.12,1.69-8.44,.11-16.75-.87-25.13-1.94-11.08-1.42-20.67-6.06-30.4-10.77-1.84-.89-2.57-2.68-3.89-3.98-4.46-4.36-7.66-9.66-10.35-15.16-2.97-6.06-4.86-12.59-6.98-19-.26-.77-.14-1.68-.12-2.52,.17-6.82-.76-13.63-.03-20.46,.34-3.2-.57-6.5,1.45-9.55,.66-1.01,.22-2.75,.28-4.15-.83-.94-.52-1.99-.04-2.87,1.77-3.27,3.18-6.74,5.33-9.8,1.63-2.32,2.37-2.42,5.12-.95,.65,1.46,2.14,2.76,.88,4.59Z"/>
      <path class="cls-78" d="M199.54,222.17c.73,1.07,1.78,1.28,2.97,1.08,11.52-1.94,22.57-5.27,32.77-11.11,.56-.32,1.21-.65,1.58-1.15,3.91-5.23,9.12-9.49,11.66-15.74,1.49-3.67,3.19-7.27,4.67-10.92,1.08-2.66,1.59-5.73,2.09-8.62,1.42-8.23,.91-16.64,1.82-24.94,.42-3.86-1.9-7.2-2-10.99-.07-2.58-.63-5.15-1.96-7.46-1.27-1.9-1.51-4.05-1.56-6.25,.66-1.85,.72-3.79,.81-5.73,.05-1.2,.26-2.39,1.19-3.31,1.62,.08,1.34,1.65,1.67,2.49,1.85,4.7,4.22,9.26,5.04,14.28,.76,4.63,1.73,9.23,2.49,13.84,1.38,8.35,1.23,16.76-.4,25.2-1.57,8.08-4.12,15.85-7.57,23.15-5.87,12.41-14.99,21.64-28.8,25.46-8.08,2.23-16.11,4.54-24.59,4.3-1.13-.03-2.78,.57-3.13-1.41,.42-.72,.84-1.45,1.26-2.17Z"/>
      <path class="cls-121" d="M231.64,144.18c.32,.16,.94,.43,.92,.47-.85,2.35,1.3,4.45,.35,6.96-.89,2.34,.92,4.64,1.18,7.07,.48,4.43-.78,8.46-1.59,12.63-.7,3.63-3.25,6.61-3.29,10.55-.02,1.88-1.89,3.55-2.9,5.25-2,3.36-2.89,7.28-6.02,10.17-4.12,3.82-8.34,7.52-12.57,11.22-.96,.84-2.07,1.27-3.34,1.27-.34-3.4-.68-6.8-1.02-10.19,.13-.8,.63-1.36,1.25-1.81,5.68-4.1,10.22-9.32,12.77-15.74,1.95-4.9,5.04-9.56,5.26-14.99,.13-3.22,.88-6.48,.09-9.72-.09-.69,.08-1.32,.49-1.86,2.49-3.3,4.6-6.86,6.9-10.28,.35-.52,.67-1.18,1.51-1.01Z"/>
      <path class="cls-147" d="M198.28,224.34c.45,.61,1.1,.64,1.77,.64,13.99,0,27.13-3.39,39.09-10.61,4.31-2.61,7.84-6.49,10.1-11.14,1.05-2.16,3.12-3.36,4.15-5.6,2.17-4.71,2.95-9.97,5.18-14.46,2.39-4.8,3.06-9.85,3.66-14.75,.95-7.73,1.54-15.69-1.01-23.4-1.24-3.75-1.31-7.74-1.77-11.62-.26-2.17-1.27-3.93-2.03-5.8-1.39-3.46-1.6-7.33-3.73-10.51-.3-.38-.3-.75,0-1.13,2.47,3.49,3.92,7.57,6.27,11.12,3.1,4.7,3.41,9.99,4.06,15.36,.5,4.1,2.32,8.03,2.85,12.22,.74,5.9,.53,11.73-.73,17.56-1.06,4.91-2.07,9.86-2.65,14.84-.42,3.66-3.23,6.05-4.14,9.37-1.88,6.87-7.05,11.63-11.41,16.73-3.01,3.52-7.46,5.95-11.89,7.74-3.45,1.39-7.09,2.43-10.72,3.24-9.06,2.02-18.24,3.01-27.55,2.5-.41-.02-.8-.39-1.2-.6,.56-.56,1.13-1.13,1.69-1.69Z"/>
      <path class="cls-74" d="M223.18,157.14c1.01,1.16,1.05,2.31,.62,3.84-.89,3.17,.21,6.58-1.08,9.82-.72,1.8-1.05,3.73-2.3,5.31-.45,.58-.96,1.27-1.04,1.95-.71,5.98-4.56,10.15-8.1,14.57-2.26,2.83-4.94,5.02-7.92,6.95-.97-1.02-.29-2.29-.51-3.43,.29-1.41,.18-2.83,.21-4.25-.38-3.05-1.25-6.04-1.01-9.16,.05-1.8-.56-3.54-.54-5.34-.1-1.85,.71-3.15,2.25-4.21,5.88-4.02,11.53-8.3,16.07-13.89,.82-1.01,1.65-2.37,3.35-2.17Z"/>
      <path class="cls-133" d="M203.9,192.23c0,1.4-.36,2.71-1.04,3.93-.09-.86-.44-.9-1.04-.36-5.6,5.05-12.44,7.45-19.54,9.5-9.14,2.64-18.42,4.07-27.86,3.18-5.68-.54-11.51-1.07-16.82-3.54-1.58-.74-2.93-1.98-4.37-3.02-.79-.57-.92-.06-1.04,.55-1.42-1.51-1.86-3.24-1.16-5.22,.97-.4,1.6,.3,2.28,.76,9.89,6.76,21.03,7.51,32.47,6.7,7.84-.55,15.34-2.72,22.77-5.08,2.86-.91,5.39-2.66,7.89-4.35,1.49-1,1.21-1.93-.25-2.72-.66-.36-1.36-.66-1.98-1.09-.62-.43-1.38-.9-1.09-1.77,.33-.99,1.31-1.05,2.15-.88,1.85,.38,3.62,1.07,5.27,1.97,1.08,.59,2.21,1.03,3.37,1.42Z"/>
      <path class="cls-44" d="M170.48,237.68h9.07c-1.09,1.94-3.13,2.24-4.51,3.39-.46,.38-1.42,.31-1.37-.28,.2-2.48-1.99-2.06-3.19-3.11Z"/>
      <path class="cls-40" d="M26.04,113.69c0,.94,0,1.88,0,2.83-.35,2.02-2.03,3.31-2.82,5.08,.14,1.65-.16,3.17-1.3,4.47-1.01,1.15-.81,2.63-1.09,4-.93,4.56-1.47,9.36-2.99,13.6-1.94,5.41-1.71,10.86-2.38,16.26-.43,3.46,.03,7.14,.74,10.59,.5,2.42,.8,4.78,.81,7.22,.01,6.46,.13,12.9,1.66,19.24,.57,2.37,2.22,4.34,2.44,6.81,.27,3.07,2.67,5.49,3.26,7.96,.97,4.08,3.03,7.13,5.08,10.48,1.64,2.69,4.13,4.27,6.37,6.18,3.71,3.17,8.55,3.92,12.97,5.56,8.44,3.14,17.09,4.79,26.16,5.34,8.51,.52,16.76-.66,25.14-1.16,7.95-.48,15.84-1.13,23.69-2.43-.94,1.8-2.88,1.36-4.28,1.56-10.44,1.49-20.91,2.84-31.39,4.02-4.18,.47-8.43,.27-12.62,.67-6.09,.59-12.2,.51-18.11-.73-4.77-1.01-9.69-.71-14.38-2.11-1.12-.33-1.99-1.06-3.01-1.43-2.18-.79-4.14-2.02-6.4-2.73-2.59-.81-5.68-1.19-6.99-4.47-.52-1.29-1.89-2.38-3.11-3.21-4.54-3.11-6.49-7.73-7.81-12.78-.05-.18-.11-.4-.24-.51-5.1-4.15-3.57-10.83-6.02-16.05-1.39-2.97-1.37-6.78-1.36-10.2,.02-8.35-.47-16.71,.3-25.07,.34-3.72,.77-7.42,1.22-11.12,.31-2.59-.2-5.27,2.21-7.18,.33-.26,.57-.84,.56-1.26-.17-6.27,3.52-11.38,5.35-17.03,1.5-4.63,3.8-9.05,5.14-13.8,.32-1.12,1.01-2.16,1.99-2.67,1.85-.97,1.12-3.5,2.91-4.4,.57,3.05,.33,5.94-1.69,8.47Z"/>
      <path class="cls-129" d="M26.04,113.69c.56-2.82,1.13-5.65,1.69-8.47,1.15-1.28,1.8-2.68,1.84-4.5,.06-2.57,2.22-4.66,2.45-6.97,.36-3.62,1.81-6.77,3.05-9.99,1.63-4.24,3.75-8.3,5.65-12.44,.6,.28,1.22,.65,1.35,1.29,.37,1.8,.93,1.88,2.28,.65,1.75-1.6,3.12-1.05,4.28,1.44,.83,1.11,.21,2.2-.19,3.19-1.24,3.14-2.46,6.27-3.27,9.57-.3,1.24-.77,2.55-2.2,3.06-.77,.4-1.57,.96-1.6,1.83-.07,3.03-2.27,5.19-3.07,7.94-.48,1.64-1.39,3.01-3.08,4.18-2.11,1.46-1.79,4.69-2.99,6.96-1.55,.71-3.01,1.46-2.84,3.59,.09,1.11,.11,2.42-1.43,2.53-1.85,.14-1.26-1.39-1.37-2.38-.06-.56-.07-1.11-.57-1.48Z"/>
      <path class="cls-40" d="M126.03,235.71c2.9-1.24,5.97-1.16,9.04-1.13-2.96,.78-5.98,1.13-9.04,1.13Z"/>
      <path class="cls-32" d="M280.25,149.84c-1.35-4.64-2.32-9.34-2.25-14.2,.03-2.31-.47-4.28-1.87-6.26-1.13-1.6-1.53-3.75-2.07-5.71-1.23-4.5-2.56-8.96-4.94-13.01-.9-1.54-.43-3.57-1.87-4.88-2.06-2.15-1.54-5.14-2.47-7.65-2.99-8.06-5.42-16.32-8.37-24.39-.44-1.21-1.06-2.43-.75-3.81,1.15-1,1.8,.13,2.54,.65,3.59,2.56,5.81,6.34,8.22,9.86,2.24,3.26,4.65,6.56,5.34,10.65,.87,2.64,2.32,5.34,2.67,7.83,.53,3.87,3.21,6.86,3.22,10.94,0,2.53,2.37,4.93,2.59,7.78,.2,3.72,.31,7.45-.45,11.12-.48,2.31,.48,4.45,.46,6.69-.04,4.8-.01,9.59-.01,14.39Z"/>
      <path class="cls-115" d="M42.98,90.53c1.88-5.27,3.77-10.55,5.65-15.82,1.64-1.17,2.41-3.02,2.68-4.78,.29-1.9,1.11-3.42,2.21-4.77,3.03-3.71,5.52-7.78,8.21-11.72,2.91-4.26,5.91-8.47,9.73-11.97,2.57-2.36,4.26-5.41,6.55-7.98,.09,.99-.14,2.01-.83,2.61-1.61,1.42-2.13,3.2-2.25,5.21-.22,3.52-2.32,6.44-3.1,9.78-.26,1.09-.74,2.13-.6,3.29,.52,1.35-.39,2.35-.9,3.41-2.81,5.74-5.77,11.41-8.86,17-4.04,4.06-7.18,8.75-9.79,13.84-1.18,2.31-1.58,5-3.37,7.01-.58,.65-.67,1.84-1.94,1.68-1.13-1.18-1.32-3.04-2.83-3.95-.19-.94-.38-1.89-.57-2.83Z"/>
      <path class="cls-15" d="M80.28,43.07c3.79-4.09,7.02-8.66,11.35-12.33,4.71-3.98,9.41-8,14.51-11.38,3.99-2.64,7.92-5.43,12.53-7.28,4.33-1.73,8.56-3.72,13-5.2,1.7-.57,3.36-1.02,5.17-1.16,5.3-.42,10.49-1.54,15.85-1.75,8.38-.32,16.63,.24,24.68,2.35,9.18,2.41,18.11,5.83,26.08,10.95,7.33,4.71,14.38,9.93,19.63,17.24,2.08,2.89,4.37,5.89,7.45,7.99,1.21-.2,1.75,.77,2.11,1.52,2.2,4.59,5.13,8.75,7.67,13.15,.42,.73,.66,1.56,.95,2.36,.52,1.87,1.29,3.65,2.14,5.39,.62,1.25,1.14,2.55,.41,3.96-1.76,.78-2.06-.79-2.56-1.73-4.23-8-10.09-14.87-15.34-22.16-4.1-6.61-9.39-12.09-15.51-16.87-2.71-2.12-5.07-4.66-7.86-6.73-1.97-1.46-3.87-3.02-6.06-4.07-6.86-3.29-13.65-6.8-21.33-7.87-2.08-.29-3.84-1.5-5.9-1.86-11.68-2.05-23.18-1.5-34.49,2.19-4.46,1.46-9.05,2.59-13.17,4.94-7.23,4.13-14.71,7.79-20.79,13.77-2.92,2.88-6.2,5.43-8.92,8.55-2.73,1.87-4.9,4.53-8.01,5.88-1.16,.51-2.35,1.24-3.6,.14Z"/>
      <path class="cls-28" d="M240.71,59.46c-3.39-5.65-6.78-11.3-10.17-16.95-2.02-3.06-3.94-6.19-6.09-9.15-1.85-2.54-3.07-5.26-3.51-8.35,4.27,3.99,8.82,7.73,12.72,12.05,3.25,3.59,7.04,6.74,9.58,10.97,1.3,2.16,3.05,3.98,4.81,5.78,2.76,4.2,5.49,8.42,7.54,13.03,.31,.7,.44,1.43,0,2.15-3.22-1.41-6.73-2.23-9.79-3.8-2.1-1.08-4.3-3.02-5.1-5.73Z"/>
      <path class="cls-100" d="M80.28,43.07c2.62,.04,4.65-1.28,6.53-2.88,1.49-1.27,2.84-2.7,4.77-3.33,.89-.43,1.65-.13,2.35,.43,.37,.73,.17,1.49-.57,1.56-3.45,.32-4.04,3.61-5.89,5.56-.81,.85-1.02,2.26-2.45,2.5-.19,.03-.38,.14-.44,.31-2.01,5.88-6.76,10.36-8.4,16.45-.38,1.43-1.59,2.53-2.29,3.87-2.68,2.74-4.36,6.21-6.66,9.23-1.35,1.77-3.13,2.87-4.85,4.09-.45,.32-.87,.16-1.16-.32-.38-1.94-1.11-3.87-.15-5.84-.23-2.09,1.51-3.31,2.29-4.95,2.47-5.21,5.23-10.27,7.88-15.39,3.16-3.65,6.26-7.34,9.04-11.3Z"/>
      <path class="cls-65" d="M255.39,69.06c-.68-3.36-2.45-6.23-4.28-9.02-1.29-1.97-2.65-3.85-3.06-6.24,0-1.49,0-2.99,0-4.48,0-1.07-.12-2.43-1.1-2.68-2.89-.74-3.93-3.06-4.77-5.36-1.48-4.03-3.68-7.63-5.99-11.2,1.6,1.29,3.18,2.59,5.09,3.45,.8,.36,1.74,1.1,2,1.88,1.84,5.35,7.12,7.75,10.14,12.09,2.91,4.18,6.99,7.48,9.33,12.15,.78,1.55,2.4,2.67,3.25,4.19,1.49,2.67,4.68,4.43,4.32,8.17-.06,.64,1.04,1.49,1.74,2.1,1.41,1.22,2.28,2.7,2.53,4.55-1.56,4-3.2,7.99-2.82,12.43-3.14-6.09-6.75-11.87-11.09-17.19-1.37-1.67-3.14-2.87-4.72-4.28-.32-.06-.51-.25-.57-.57Z"/>
      <path class="cls-53" d="M255.39,69.06c.19,.19,.38,.38,.57,.57,1.47,4.73,2.9,9.48,5,13.99,1.07,2.3,.62,5,1.79,7.31,.88,1.73,1.81,3.38,2.38,5.32,.93,3.15,1.02,6.45,2.12,9.53-1.51-.94-3.01-1.88-4.52-2.82-.94-.25-1.36-1.03-1.59-1.84-1.9-6.77-6.37-12.11-10.05-17.86-1.66-2.59-3.04-5.42-5.23-7.66-1.69-1.85-3.23-3.76-2.34-6.53,.35-2.17-.85-3.86-1.69-5.68-.58-1.24-1.13-2.5-1.13-3.92,1.29,2.18,3.96,3.01,5.19,5.29,.25,.46,1.17,.9,1.7,.81,3.42-.57,5.57,1.5,7.79,3.5Z"/>
      <path class="cls-79" d="M246.36,75.27c2.37,1.58,3.07,4.38,4.61,6.56,4.65,6.61,9.27,13.29,11.77,21.13,1.26,4.47-.71,9.08,.57,13.56-1.5-.85-1.68-2.64-2.74-3.82-4.47-5.03-6.79-11.56-11.38-16.51-2.69-1.17-2.44-3.68-2.72-5.96,.36-2.88,.12-5.71-.49-8.54-.46-2.13-1.11-4.36,.39-6.4Z"/>
      <path class="cls-132" d="M61.06,74.71c.44,2.05,.72,4.11,.57,6.21,1.33,2.56-.12,5-.74,7.26-1.23,4.49-3.09,8.81-3.98,13.42-.11,.55-.43,1.03-.93,1.35-1.78,2.13-2.41,4.83-3.63,7.24-1.42,2.8-2.66,5.67-4.13,8.45-2.03,3.81-4.49,7.57-5.23,11.99-.75-3.39-1.51-6.78-2.26-10.17,1.88-7.72,3.77-15.44,5.65-23.16,2.7-3.04,3.52-7.07,5.49-10.51,2.54-4.45,4.96-8.95,9.2-12.09Z"/>
      <path class="cls-107" d="M203.9,192.23c-.65,.85-1.25,1.26-2.22,.26-1.76-1.82-4.39-1.92-6.53-3.03-.39-.2-1.03,.08-2.11,.21,1.48,1.47,3,1.92,4.35,2.61,1.94,1,2.02,1.98,.22,3.25-4.12,2.9-8.61,4.92-13.46,6.34-9.08,2.66-18.28,4.27-27.78,3.91-8.2-.31-15.95-2.14-22.95-6.57-.86-.54-1.59-1.29-2.38-1.95,1-3.76,.46-7.53,0-11.29,.14-.09,.28-.18,.42-.28,.46-.14,.94-.21,1.38-.06,9.01,2.94,18.31,3.03,27.63,2.91,.84-.01,1.68,.06,2.44,.49,1.11,2.37-.85,2.51-2.2,2.71-2.5,.38-5.06,.04-7.78,.22,7.47,2.02,16.71,1.48,26.01-1.24,4.58-1.34,9.27-2.34,13.78-3.94,.99-.35,2.06-.51,3.06-.19,2.09,.68,3.09-.31,3.92-2.09,.54-1.15,1.02-2.86,3.01-1.89,.4,3.21,.79,6.41,1.19,9.62Z"/>
      <path class="cls-21" d="M73.49,126.12c.44-1.71-1.55-2.81-1.13-4.52-2.39-3.99-2.58-8.52-3.07-12.94-.31-2.77-.13-5.6,0-8.4,.11-2.56-.66-5.28,1.36-7.48,1.29-.31,.96,1.15,1.81,1.59,.53-1.09,.3-2.36,.77-3.42,.33-.74,.32-1.98,1.74-1.32,.61,1.17,.47,2.39,.27,3.61-.52,1.37-.28,2.84-.61,4.24-.55,4.16-.47,8.32-.04,12.48,.98,10.25,3.89,19.94,8.43,29.15,1.42,3.76,3.92,6.94,5.66,10.53,4.66,7.37,10.53,13.67,17.08,19.39,5.75,5.02,12.49,8.32,19.3,11.52,.95,.45,1.97,.63,2.97,.87,1.51,.36,2.85,.99,3.55,2.51,.24,.75,.14,1.45-.31,2.1,0,0-.22-.08-.22-.08-7.21-2.07-13.76-5.66-20.3-9.2-2.58-1.4-4.92-3.36-7.11-5.35-5.17-4.71-10.81-8.97-14.87-14.8-2.59-4.37-5.2-8.73-7.77-13.12-.84-1.44-1.6-2.93-2.39-4.4-1.12-4.56-3.96-8.44-5.09-12.99Z"/>
      <path class="cls-79" d="M223.18,157.14c-3.57,2.61-5.8,6.53-9.3,9.28-3.23,2.54-6.37,5.17-9.81,7.42-1.18,.77-1.98,1.66-1.89,3.15-1.72-.82-1.15-2.25-.98-3.58,2.09-3.13,5.56-4.68,8.29-7.09,6.36-5.62,11.18-12.38,15.32-19.67,1.85-3.26,3.94-6.39,5.5-9.82,4.33-7.22,6.59-15.08,7.3-23.42,1.27-5.35,1.04-10.71,.17-16.09-.07-.46,.08-.93,.27-1.36,2.66-.49,2.06-2.46,1.62-4.05-.96-3.5-1.45-7.11-2.55-10.57-.42-1.31-.92-2.69,.18-3.97,2-.3,2.15,1.44,2.75,2.59,1.3,2.52,1.24,5.46,2.37,8.04,1.01,6.01,1.59,12.03,1.5,18.15-.04,2.86-1.38,5.44-1.28,8.27-1.25,7-2.84,13.9-6.46,20.15-1.84,3.05-3.19,6.32-4.53,9.6-2.82,4.32-5.64,8.64-8.46,12.96Z"/>
      <path class="cls-16" d="M236.17,134.58c.04-1.83,1-3.38,1.7-4.96,1.57-3.57,2.53-7.28,2.81-11.15,.1-1.35,1.46-2.22,1.16-3.64,.74-.69,.23-2.28,1.54-2.46,1.48-.21,2.05,1.14,2.73,2.09,2.57,3.58,5.11,7.18,5.88,11.67,.4,2.07,1.33,4.04,1.13,6.22,.08,3.37-.89,6.68-.61,10.07,.08,.94-.26,2.03-1.3,2.27-3.39,.78-4.61,3.14-4.87,6.29-1.16-2.04-.85-4.41-.99-6.53-.32-5.06-2.18-9.4-4.82-13.54-.29-.45-.38-1.21-1.09-1.13-.82,.09-1.32,.75-1.48,1.51-.27,1.31-.47,2.61-1.81,3.31Z"/>
      <path class="cls-37" d="M71.23,92.78c-1.72,2.24-.94,4.87-1.12,7.34-3.7,1.89-4.59,5.66-6.12,9.03-.7,1.55-1.16,3.47-3.49,3.4-1.14-1.88-3.02-3-4.52-4.51,0-1.7,0-3.39,0-5.09,.71-4.42,1.89-8.68,3.51-12.89,1.12-2.9,1.46-6.09,2.14-9.15,5.49-3.18,7.29-9.58,11.86-13.56,1.51,2.33,.51,4.66-.02,7.12,1,.13,1.41-1.72,2.54-.75,.84,2.06-.43,3.78-.88,5.63-1.04,2.81-1.81,5.67-1.97,8.67-.09,1.81-.4,3.53-1.94,4.74Z"/>
      <path class="cls-123" d="M60.5,112.56c2.97-1.77,3.33-5.09,4.52-7.86,1.04-2.4,2.25-4.3,5.08-4.57-.31,5.62,.11,11.2,1.21,16.7,.31,1.58,1.34,3.03,1.05,4.77-2.48-.99-3.89,.12-4.94,2.32-1.77,3.73-4.48,7.02-5.23,11.23-.41,.21-.82,.57-1.24,.59-3.37,.17-4.76,2.23-5.11,5.28-.23,1.96-2.42,1.85-3.24,3.16-.18-2.67,1.16-5.03,1.56-7.59,.92-5.87,2.67-11.52,5.18-16.93,1.04-2.24,1.37-4.65,1.16-7.12Z"/>
      <path class="cls-129" d="M23.22,121.6c.07-2.18,1.68-3.5,2.82-5.08,.6,2.55-1.28,3.72-2.82,5.08Z"/>
      <path class="cls-93" d="M252.01,126.12c-.87-.36-1.38-1.15-1.46-1.94-.36-3.68-3.15-6.03-4.76-9.02-1.03-1.91-2.37-3.27-3.93-.34-.24-3.46,1.2-6.68,1.25-10.18,.08-5.71-1.22-11.26-1.26-16.92,.88-2.11,1.93-2.5,3.24-1.05,.97,1.07,2.03,2.2,1.85,3.87,.68,1.92,.78,4.06,2.26,5.65,1.51,6.59,3.01,13.18,4.52,19.77,0,.38,0,.75,0,1.13-.46,2.08-.69,4.18-.58,6.32,.06,1.06-.27,2.01-1.12,2.72Z"/>
      <path class="cls-50" d="M201.72,172.98c.12,1.34-.35,2.75,.47,4.01,.17,1.87,.35,3.75,.52,5.62-2.35,.05-2.33,2.24-2.95,3.61-.71,1.57-1.53,2.05-3,1.4-1.49-.65-2.88-.47-4.36,.05-6.51,2.29-13.35,3.45-19.95,5.34-7.18,2.06-13.99,.08-20.96-.34-.24-.01-.46-.27-.87-.53,.71-1.02,1.68-1.07,2.68-1.07,2.25,0,4.51-.05,6.76,.02,1.46,.05,2.58-.34,3.24-1.72,.1-.1,.2-.21,.3-.32,2.43-1.08,5.13,.18,7.57-.86,.23-.16,.47-.28,.73-.38,1.38-.45,2.95-.07,4.21-1.03,.24-.11,.49-.19,.75-.25,1.13-.17,2.32-.15,3.25-.99,1.45-1.07,3.22-1.47,4.8-2.28,1.39-.71,1.37-1.39,.4-2.58-1.27-1.56-3.4-1.47-4.73-2.81,.09-1.87,1.59-1.8,2.68-1.58,2.26,.44,3.95-.36,5.71-1.64,2.99-2.17,6.7-2.93,9.87-4.79,.75-.44,1.64-.39,2.42,.12,.7,.91,1.17,1.85,.45,2.97Z"/>
      <path class="cls-47" d="M93.83,37.42c-.82,.09-1.56-.18-2.26-.56,1.27-3.08,3.91-5.1,6.34-6.99,3.43-2.66,6.2-6.05,10.11-8.23,7.66-4.27,15.03-8.86,23.49-11.76,10.64-3.65,21.4-4.38,32.4-4.05,2.12,.06,4.28,.54,6.33,1.14,8.33,2.42,16.78,4.51,24.53,8.6,5.48,2.89,10.56,6.24,14.66,11,.93,1.08,2.72,1.43,3.7,2.49,4.67,5.07,10.35,9.3,13.46,15.71-3.06,1.32-3.98,.91-4.72-2.2-.13-.55-.14-1.2-.59-1.54-3.87-2.94-6.41-7.35-10.79-9.71-5.57-4-11.16-7.99-17.09-11.42-3.97-2.3-7.88-4.82-12.55-5.61-2.72-.46-4.78-2.66-7.59-2.93-8.24-1.86-16.56-1.66-24.9-1.03-3.82,.29-7.55,.65-11.33,1.65-5.66,1.5-10.82,4.25-16.45,5.72-1.18,.31-2.1,1.26-3.03,2.02-4.71,3.9-10.45,6.26-15.18,10.12-1.24,1.01-2.4,2.07-3.49,3.24-1.51,1.63-2.75,3.61-5.03,4.35Z"/>
      <path class="cls-102" d="M210.77,30.64c2.46,1.54,4.74,3.23,6.55,5.57,1.08,1.39,2.28,2.75,3.9,3.61,.66,.35,1.52,.7,1.37,1.59-.62,3.51,1.51,3.62,4,3.35,2.94,3.22,4.93,7.17,7.68,10.48,3.59,4.31,6.13,9.24,9.27,13.81,.39,2.33,1.12,4.5,2.83,6.22-.66,4.31,1.58,8.36,1.13,12.64-.09,.89,.28,1.88-.56,2.61-.63-.92-1.34-1.8-1.86-2.78-1.1-2.09-2.14-1.64-3.23-.03-1.98-1.8-.86-4.61-2.19-6.68-.76-1.18-.71-2.87-2.33-3.5-1.44-.02-1.39-1.27-1.7-2.15-1.31-3.66-2.55-7.34-4.47-10.73-1.85-2.37-2.91-5.21-4.5-7.75-2.69-4.3-5.53-8.46-8.94-12.22-.56-.62-1.29-1.16-.9-2.17,2.06-.93,1.72-1.99,.19-3.16-2.45-1.88-3.6-4.94-6.15-6.76-.63-.45-.73-1.27-.08-1.95Z"/>
      <path class="cls-83" d="M93.83,37.42c4.57-5.05,8.95-10.23,15.54-12.97,3.15-1.31,5.66-3.95,8.45-5.98,2.17-1.58,4.63-1.92,6.89-2.98,5.19-2.43,10.75-3.78,16.19-5.49,2.53-.8,5.22-.31,7.83-.47,8.28-.5,16.62-1.18,24.75,1.35-.65,.74-1.51,.7-2.35,.58-6.07-.9-12.25-.69-18.3-.63-8.2,.07-16.36,1.44-24.17,4.77-5.69,2.43-10.44,6.28-15.92,8.93-.41,.2-.79,.51-.75,1.34,1.83-.08,3.3-1.87,5.22-1.23,1.12,1.76-.66,2.1-1.48,2.52-5.21,2.66-9.7,6.32-14.24,9.93-1.18,.94-2.2,2.02-3.25,3.08-6.75,5.73-11.46,13.03-15.67,20.68-.95,1.72-1.73,3.53-2.85,5.15-.88,.64-.97,1.72-1.43,2.6-.99,1.32-1.72,2.76-2.03,4.39-.11,.24-.27,.43-.49,.59-.64,.28-.98,.78-1.17,1.46-.2,.76-.57,1.51-1.54,1-.78-.4-.95-1.36-.53-1.94,1.52-2.11,.77-4.48,.96-6.73,2.13-3.91,3.38-8.24,5.91-11.95,1.37-2.01,1.48-4.92,4.27-5.9-.73-2.35,1.12-2.96,2.31-4.4,1.46-1.76,3.41-3.47,4.21-5.87,.25-.75,1.01-1.38,2.06-.93,.88,.37,1.47,.14,1.58-.89Z"/>
      <path class="cls-82" d="M180.82,178.05c2.87-.41,4.44,1.6,6.11,3.36,1.09,1.16-.03,1.75-.79,2.11-1.92,.92-3.91,1.66-5.88,2.47-.97,.86-2.43,.24-3.39,1.12-.19,0-.38,0-.57,0-1.33,1.08-3.19,.03-4.51,1.13h0c-1.74,1.07-3.66,.34-5.48,.57-1.01,.13-2.04,.11-2.99,.56,0,0,0,0,0,0-4.05,0-8.12-.27-12.13,.07-4.64,.39-8.96-1.54-13.59-1.4-2.06,.06-4.09-1.72-6.35-2.02-.05-.76-.11-1.53-.16-2.29-.25-.44-.45-.89-.59-1.37-.71-2.44-.96-4.97-1.16-7.48-.1-1.21-.3-2.81,1.83-2.6,.87,2.82,3.06,3.99,5.71,4.71,7.04,1.92,14.2,3.72,21.47,3.44,6.09-.23,12.27-.94,18.21-2.65,1.47-.42,2.9-.85,4.27,.24Z"/>
      <path class="cls-69" d="M74.61,93.29c0-1.3,.01-2.6,.02-3.9-.8-2.63,.76-4.9,1.09-7.36,.47-1.72,.75-3.49,1.42-5.14,.38-.94,.61-2.01,1.8-2.33,.49,.19,.77,.61,.76,1.08-.04,2.47-.96,5.15,1.84,6.9,.33,.21,.22,.88,.06,1.34-1.87,5.18,1.44,8.57,4.42,11.84,1.5,1.64,2.65,3.2,3.38,5.32,1.17,3.38,3.41,6.19,5.73,8.9,2.09,2.45,3.71,5.19,4.41,8.38-1.32,.78-2.25-.16-3.22-.77-1.32-.82-2.72-1.46-4.12-2.1-1.53-.4-2.39-2.92-4.51-1.4-1,.67-.85,1.82-1.18,2.77-.67,1.93-2.23,2.36-3.27,.65-1.82-2.99-5.62-4.29-6.5-7.98-.05-.2-.14-.46-.26-.44-4.26,.73-2.18-2.62-2.3-4.01-.33-3.91-.14-7.86,.44-11.77Z"/>
      <path class="cls-42" d="M74.61,93.29v15.64c1.68-.31,1.36-1.66,2.12-2.17,.98,.53,.75,1.47,.7,2.25-.1,1.4,.58,2.35,1.6,3.08,1.91,1.37,3.63,2.89,4.69,5.05,.25,.52,.64,1,1.3,.81,.6-.17,.88-.72,.87-1.31-.04-1.49,.18-2.82,1.72-3.52,1,3.07,.04,6.21,.34,9.31,.11,1.1-.07,2.22-.06,3.32-.23,5.31,1.68,10.15,3.29,15.05-.12,1.69,.68,3.61-1.17,4.89-2.59,.36-4.02-1.3-5.45-3.06-.77-.94-1.34-1.98-1.99-2.99-4.86-9.21-7.95-18.93-8.51-29.38-.44-4.34-.45-8.67,0-13.01,.09-1.34-.39-2.76,.55-3.98Z"/>
      <path class="cls-110" d="M131.11,182.61c0,.38-.02,.76-.03,1.15-3.6-2.15-7.67-3.22-11.45-4.98-8.63-4.03-15.92-9.72-22.18-16.76-3.03-3.41-6.33-6.64-8.61-10.66-.27-.47-.44-1-.66-1.51,1.17-.33,1.71,.54,2.22,1.27,2.48,3.55,5.76,6.23,9.28,8.67,4.31,4.64,9.35,8.43,14.3,12.33,2.87,2.75,6.66,3.83,10.1,5.55,.93,.45,1.87,1,2.89,1.09,2.42,.22,3.66,1.61,4.15,3.86Z"/>
      <path class="cls-108" d="M99.46,160.04c-4.08-1.78-6.94-4.96-9.52-8.43-.51-.69-.96-1.39-1.76-1.77-2.12-3.26-4.29-6.49-5.62-10.18,2.07,2.12,3.64,4.82,6.76,5.69,2.81,1.95,5.35,4.13,6.58,7.48,.56,1.53,1.68,2.69,2.61,3.99,.66,.92,1.83,1.8,.95,3.22Z"/>
      <path class="cls-106" d="M76.26,82.03c-.17,2.54-1.01,4.93-1.63,7.37-.82,1.37-1.05,2.89-1.16,4.46-.06,.8,.5,2.14-.98,2.14-1.23,0-1.22-1.16-1.24-2.1,0-.37-.01-.74-.02-1.11,1.38-3.76,1.15-7.84,2.32-11.65,.22-.72,.44-1.43,1.05-1.94,.82,.79,1.13,1.88,1.66,2.83Z"/>
      <path class="cls-69" d="M74.06,97.27c0,4.34,0,8.67,0,13.01-.84-4.34-.8-8.67,0-13.01Z"/>
      <path class="cls-117" d="M238.48,95.6c-.34,1.79,.29,3.52,.62,5.2,.86,4.39-.12,8.6-.66,12.87-.88,1.08-.72,2.48-1.15,3.7-.16,.45-.43,.91-.97,.8-.35-.07-.56-.47-.68-.83-.37-1.18-.17-2.41-.29-3.62,.47-4.99,.7-9.97-1.08-14.79-.2-.85-.58-1.24-1.25-.37-1.03,1.34-2.21,2.54-3.38,3.76-1.22,1.14-2.27,2.49-3.71,3.35-.76,.46-1.61,1.51-2.58,.21-.06-.28-.19-.61-.07-.83,1.96-3.38,1.81-7.16,2.18-10.86,.16-1.6,.41-3.14,0-4.72-.32-1.28-.38-2.61-.26-3.92,.49-5.44-.55-10.77-.99-16.15-.33-3.96,.88-8.02-.85-11.88,1.74-1.1,2.3,.49,2.87,1.45,1.66,2.81,3.39,5.59,4.8,8.55,2.37,5.72,4.77,11.42,6.35,17.44,.72,2.73,.72,5.59,1.58,8.29,.26,.8,.2,1.69-.51,2.35Z"/>
      <path class="cls-61" d="M238.48,95.6c-1.1-8.08-2.95-15.95-6.39-23.4-.7-1.52-1.68-2.96-1.68-4.74,.44-1.12,.3-2.45,1.2-3.4,2.18,3.28,3.31,7.02,4.57,10.69,.33,.95,.38,2,1.12,2.79,.37,4.45,1.94,8.65,2.9,12.97,.53,2.41,.51,4.67,.26,7.08-1.35-.21-1.18-1.56-2-1.99Z"/>
      <path class="cls-136" d="M201.72,172.98c-.2-.93-.4-1.85-.6-2.78-.55-.78-.66-1.54,.06-2.29,1.39-.53,.61,1.68,1.79,1.4,6.48-4.8,11.82-10.66,16.62-17.08,3.5-4.68,6.28-9.77,8.91-14.95,.44-.87,.43-2.67,2.33-1.9,.35,.74,.12,1.41-.29,2.05-4.41,9.55-9.9,18.44-17.02,26.17-3.4,3.69-7.46,6.77-11.82,9.37Z"/>
      <path class="cls-76" d="M230.55,137.43c-.01-.79-.03-1.58-.04-2.37-.87-1.06-.37-2.15,.03-3.17,2.07-5.31,3.82-10.7,4.35-16.43,.07-.78,.09-1.76,1.29-1.82v3.84c.76-1.32,.44-3.16,2.27-3.81,.16,3.72-1.07,7.16-2.12,10.64-1.05,3.48-1.94,7.02-3.63,10.26-.55,1.05-1.03,2.2-2.14,2.85Z"/>
      <path class="cls-118" d="M76.26,82.03c-1.87-.17-1.58-1.61-1.66-2.83,0-1.95,1.44-3.61,1.17-5.62,.02-.17,.02-.34,.02-.52,.78-1.5,1.09-3.23,2.18-4.58,.17-1.02-.19-2.27,1.2-2.75,.43,1.17,1.69,1.17,2.52,1.78,.21,2.75-.92,5-2.6,7.05-1.72,2.2-1.6,5.09-2.83,7.48Z"/>
      <path class="cls-5" d="M201.73,167.93c-.81,.59-.47,1.5-.61,2.27-4.56,1.3-8.87,3.2-12.76,5.87-1.43,.98-2.45,1.63-4.24,1.06-1.01-.32-2.65-.94-3.29,.93-3.3,.23-6.49,.94-9.59,2.11-.26,.1-.56,.19-.82,.15-4.79-.7-9.33,1.73-14.1,1.15-4.17-.51-8.3-1.16-12.43-2.01-3.16-.65-6.21-1.49-9.3-2.33-2.79-.75-3.82-1.99-3.45-4.68,.7-.7,1.52-.64,2.37-.39,2.43,1.34,5.02,1.74,7.81,1.85,4.08,.17,8.06,1.34,12.23,1.12,3.37-.18,6.73-.15,10-1.05,8.88-.02,17.12-3.04,25.46-5.51,4.03-1.19,7.86-3,11.89-4.23,.31,.11,.54,.3,.7,.59,.38,1.02,.88,2.03,.13,3.1Z"/>
      <path class="cls-107" d="M163.31,189.39c2.62-1.88,5.63-.87,8.48-1.13-.2,1.34-1.25,1.11-2.13,1.12-2.11,.02-4.23,0-6.34,0Z"/>
      <path class="cls-107" d="M171.79,188.26c1.12-1.91,2.99-.85,4.51-1.13-1.12,1.91-2.99,.85-4.51,1.13Z"/>
      <path class="cls-107" d="M176.87,187.13c.74-1.55,2.17-1.03,3.39-1.12-.74,1.55-2.17,1.03-3.39,1.12Z"/>
      <path class="cls-9" d="M117.58,25.01c-1.66,0-3.07,.68-4.43,1.58-.77,.51-1.81,1.12-2.5,.07-.72-1.09,.09-2.22,.98-2.56,5.78-2.23,10.23-6.71,16.09-8.99,5.21-2.03,10.48-3.72,15.89-4.41,9.44-1.2,18.97-.75,28.45,.15,.47,.04,.94,.01,1.41,.01,.56,.03,1.21-.12,1.67,.11,5.98,2.96,12.7,4.22,18.35,7.94,5.81,3.83,11.72,7.51,17.27,11.72,.02,.55-.1,1.24,.44,1.54,3.12,1.72,4.14,5.43,7.02,7.39,.71,.48,1.75,1.18,1.4,2.21-.44,1.3-1.78,.52-2.7,.75-2.51-.21-3.5-2.53-5.24-3.81-1.26-.92-2.19-2.28-3.63-3.03-4.86-3.71-9.66-7.53-15.5-9.68-12.77-6.61-26.35-9.81-40.7-9.16-8.34,.38-16.58,1.75-24.41,4.91-.87,.35-1.79,.54-2.67,.85-2.49,.52-4.46,2.63-7.21,2.39Z"/>
      <path class="cls-8" d="M208.51,35.22c3.26,1.92,5.46,5.06,8.43,7.31,4.19,4.74,7.98,9.77,11.1,15.29,1.18,2.09,2.39,4.16,3.58,6.24-.23,1.2,.84,2.85-1.2,3.4-1.89-2.39-2.98-5.25-4.56-7.82-.58-.94-1.03-1.99-2.05-2.58-4.25-5.6-8.91-10.81-13.98-15.69-1.26-1.21-2.96-2.02-3.73-3.72,.47-1.14,1.51-1.72,2.42-2.43Z"/>
      <path class="cls-39" d="M117.58,25.01c2.28-.93,4.37-2.31,6.82-2.82,2.14-.27,4.25-.85,6.1-1.85,2.33-1.26,4-1.27,5.24,1.28-.18,1.37-1.41,1.29-2.3,1.62-2.69,1-5.49,1.68-8.13,2.84-5.05,1.75-9.43,4.84-14.28,6.99-3.45,1.43-6.04,4.06-8.85,6.37-.96,.79-1.91,1.58-3.18,1.67-.85,.06-1.93,.06-1.17-1.37,4.46-4.76,9.7-8.53,15.23-11.92,1.51-.93,3.22-1.55,4.53-2.81Z"/>
      <path class="cls-52" d="M97.82,39.74c1.26,1.71,2.39,.37,3.24-.35,2.61-2.2,5.18-4.44,8.07-6.28,.55-.35,1-.83,1.73-.71,.01,1.85-1.55,2.43-2.71,3.29-7.33,5.4-13.75,11.66-18.57,19.45-2.59,3.42-4.33,7.38-6.85,10.84-.38,.52-.59,1.17-1.29,1.39-2.16,1.39-2.54,.31-2.27-1.64,3.82-7.85,8.42-15.21,14.1-21.87,1.35-1.58,2.81-3,4.56-4.11Z"/>
      <path class="cls-37" d="M77.97,68.48c-.66,1.56-.5,3.51-2.18,4.58-.17-1.95,.59-3.46,2.18-4.58Z"/>
      <path class="cls-145" d="M133.37,172.45c-.75,0-1.5,0-2.24,0-1.86,.48-1.1,1.91-.98,2.99,.25,2.4,.64,4.79,.97,7.18-1-1.88-2.41-3.07-4.67-3.22-.97-.06-2-.42-2.68-1.3-1.78-3.15-4.83-4.71-7.69-6.7-3.88-2.7-7.63-5.77-10.38-9.77-1.6-2.33-3.7-4.23-5.41-6.47-1.85-2.43-2.45-5.33-1.07-6.63,1.21-1.14,4.35-.57,6.46,1.17,.65,.54,1.38,1.09,1.73,1.84,1.43,3.13,4.34,4.27,7.2,5.44,3.14,1.28,6.02,3.03,8.88,4.81,2.81,2.15,5.55,4.34,8.88,5.77,2.8,1.21,2.93,2.7,1.01,4.89Z"/>
      <path class="cls-43" d="M92.14,114.82c2.08,.25,3.65,1.6,5.36,2.61,.65,.39,1.19,.84,1.99,.75,1.07-.87,2.11-.43,3.15,.06,1.35,.63,2.65,1.38,4.09,1.82,3.83,.91,4.48,4.52,5.95,7.29,3.18,5.99,7.67,10.85,12.32,15.67,5.21,5.4,11.3,9.7,17.53,13.65,5.44,3.44,11.48,5.98,17.66,8.04,.81,.27,2.22,.14,1.9,1.74-.95,.65-1.97,.48-2.97,.23-3.35-.85-6.55-2.16-9.81-3.23-5.06-1.66-9.72-4.13-14.6-6.14-5.25-3.57-10.67-6.84-15.49-11.1-5.25-4.64-9.83-9.84-14.24-15.17-2.17-2.62-5.41-4.83-5.44-8.87,0-.39-.26-.75-.63-.86-2.19-.65-3.35-2.68-5.2-3.79-.75-.76-1.9-1.29-1.56-2.68Z"/>
      <path class="cls-97" d="M92.14,114.82c.56,.75,1.13,1.51,1.69,2.26,1.55,1.01,2.57,2.4,3.22,4.13,.59,1.59,1.32,3.12,2.85,4.08,.24,.15,.55,.32,.62,.55,1.46,4.93,5.93,7.71,8.5,11.9,1.64,2.67,4.71,4.39,6.67,7.04,2.11,2.83,4.89,5.09,6.98,7.98,1.47,2.02,3.96,3.1,5.52,5.13,.54,.7,1.65,1.06,1.22,2.27-2.22,.88-3.89-.51-5.65-1.42-1.07-.55-1.85-1.53-2.88-2.16-6.46-4.27-11.51-10.18-17.47-15.01-5-4.05-8.18-9.48-12.48-14.01-1.14-1.2-2.3-1.73-3.88-1.44,.19-4.33-.53-8.69,.54-12.99,2.38-1.78,3.06,1.03,4.54,1.69Z"/>
      <path class="cls-72" d="M106.82,120.47c-1.75,.34-3.04-.85-4.42-1.51-.97-.47-1.87-.78-2.92-.78-2.4-4.44-5.64-8.31-8.37-12.53-.1-.16-.31-.26-.36-.42-1.96-5.99-7.09-9.99-9.73-15.53-.87-1.82-1.74-3.69-.18-5.75,1.14-1.51-.46-2.41-1.42-2.65-1.53-.38-1.78-1.36-1.12-2.18,1.19-1.47,.73-3.01,.78-4.56,.23-2.58,2.22-4.58,2.35-7.19,2.34-4.37,4.62-8.78,7.8-12.63,.74,.52,.77,1.3,.48,1.98-.86,2.06-1,4.32-1.75,6.4-.27,.74-.76,1.27,.7,1.02,.64-.11,.71,1.12,.7,1.87-1.35,3.85-3.18,7.51-4.15,11.53-.82,3.37-1.16,6.77-1.59,10.17-1.63,1.42,.04,2.82,.62,3.39,1.95,1.93,3.64,4.18,6.08,5.58,2.7,1.01,5.11,2.24,5.5,5.58,.09,.8,.77,1.5,1.32,2.13,2.91,3.36,5.25,7.06,6.89,11.2,.58,1.47,1.63,2.47,3.15,3,.93,.33,2.16,.6,1.27,2.1-.59,.31-1.13,.21-1.62-.22Z"/>
      <path class="cls-108" d="M87.06,126.12c1.45-1.51,2.2-1.32,3.81,.38,2.97,3.13,5.14,6.84,8.03,9.95,2.7,2.91,5.79,5.47,8.75,8.14,4.35,3.92,8.59,7.97,13.29,11.48,.88,1.05,1.45,2.3,2.16,3.46,.52,.86,.94,1.81,.1,2.76-4.3-2.2-8.38-4.83-13.02-6.34-1.31-.43-1.95-1.67-2.6-2.84-1.34-2.41-3.25-4.03-6.12-4.44-1.95-.28-2.48,.35-2.32,2.28,.25,3.1,2.74,4.68,4.32,6.85,2.91,4,6.47,7.4,10.01,10.83,1.51,1.47,3.18,2.69,5.11,3.43,2.87,1.1,4.57,3.08,5.2,6.04-3.65-1.42-7.44-2.57-10.18-5.65-1.23-2.31-3.53-3.57-5.45-5.08-6.2-4.86-10.24-11.32-14.22-17.9-1.64-2.71-3.08-5.48-3.48-8.67-2-4.69-3.56-9.49-3.38-14.69Z"/>
      <path class="cls-145" d="M90.44,140.8c1.48,2.49,2.3,5.29,3.79,7.82,3.84,6.53,7.8,12.89,13.84,17.68,1.97,1.57,3.84,3.26,5.72,4.93,.46,.41,1.18,1.02-.19,1.21-4.96-3.05-9.01-7.21-13.41-10.95-.38-.32-.49-.97-.72-1.46-2.96-3.95-4.14-9.09-8.34-12.22-.78-.58-1.21-1.63-1.8-2.46,2.22-1.06,.65-3.06,1.12-4.55Z"/>
      <path class="cls-116" d="M206.43,37.41c4.68,4.12,9.2,8.41,13.18,13.21,1.63,1.96,3.44,3.88,4.19,6.44,0,.37-.19,.92,0,1.1,2.63,2.61,1.27,5.62,1.2,8.63-.09,3.92,.31,7.92,1.09,11.77,.61,3.05-.28,5.92-.1,8.87,.13,2.18,.77,4.22,.45,6.59-.56,4.22-.73,8.44-2.68,12.33-.86,2.27-2.84,2.99-4.94,3.57-1.18,0-2.07,1.1-3.31,.89-.48-.1-.9-.29-1.09-.79-.12-.47-.15-.96,.03-1.39,2.42-5.93,2.81-12.21,3.22-18.49,.17-2.54,.1-5.05-.26-7.58-.88-6.13-1.45-12.29-1.67-18.48,1.03-2.46,.71-4.85-.39-7.2-5.35-11.4-13.71-19.83-24.92-25.54-1.31-.66-3.36-.95-3.31-3.19,1.11-.84,2.35-1.1,3.7-.82,4.87,1.32,8.92,4.15,12.91,7.06,1.08,.79,2.44,1.45,2.7,3.03Z"/>
      <path class="cls-18" d="M201.73,167.93c-.16-.95-.33-1.9-.49-2.84-.6-2.53,.62-4.21,2.48-5.74,7.19-5.89,12.21-13.36,16.2-21.71,4.25-8.87,6.3-18.23,7.47-27.88,.02-2.82-.08-5.66,2.03-7.94,1.11-1.36,2.19-2.74,3.33-4.07,.77-.9,1.6-1.45,2.22,.17-.92,.72-1.04,1.68-.96,2.77,1.4,19.41-4.83,36.61-15.76,52.23-3.63,5.19-8.46,9.51-13.05,13.94-1,.97-2.24,1.77-2.29,3.38-.37,.47-.83,1.29-1.17,.07-.21-.74-.02-1.59,0-2.39Z"/>
      <path class="cls-144" d="M229.41,101.82c-1.15,2.73-1.28,5.59-1.14,8.48-.72,.39-1.15,.97-1.15,1.8,.05,3.99-2.16,7.28-3.4,10.86-1.62,4.67-3.31,9.37-7.21,12.79-.76,.66-.97,1.56-.76,2.57,.32,1.54-.28,2.88-1.45,3.75-2.54,1.9-3.89,4.54-4.93,7.37-.85,2.3-2.34,3.79-4.65,4.51-1.29,.4-2.39,.87-2.73,2.46-.44,2.08-1.63,2.02-2.99,.7-.4-.46-.64-.99-.74-1.59-.07-.45-.07-.89,0-1.34,1.46-3.33,4.37-5.58,6.35-8.54,4.08-6.11,8.14-12.17,10.03-19.43,1.25-4.82,3.13-9.48,2.8-14.6-.06-.99,.47-1.8,1.25-2.42,2.14-.14,3.37-1.92,5.07-2.84,2.21-1.1,3.68-3.13,5.64-4.53Z"/>
      <path class="cls-77" d="M202.9,170.24c-1.58-1.73,.16-2.51,1.07-3.36,4.99-4.65,9.85-9.46,13.95-14.9,5.92-7.86,9.82-16.8,12.64-26.19,2.55-8.47,3.54-17.13,2.4-25.97-.21-1.62,.67-1.96,2-1.9-.04,1.92,.94,3.59,1.36,5.39,.82,3.48-.31,6.89-.15,10.33-1.07,5.44-1.8,10.96-3.91,16.16-.69,1.7-1.71,3.33-1.75,5.26-1.85,3.46-3.56,7-5.57,10.36-5.75,9.67-12.96,18.09-22.04,24.82Z"/>
      <path class="cls-36" d="M134.51,156.62c1.25-.02,2.43,.36,3.46,1,6.47,4,13.76,5.9,20.91,8.17,1.1,.35,2.19,.45,3.31,.43,.55-.5,1.22-.48,1.86-.32,4.35,1.09,8.83,.96,13.16,.51,5.95-.61,11.84-1.9,16.87-5.58,3.37-2.47,4.81-2.62,6.94-.98,.8,1.54,.57,3.11,.14,4.69-6.64,3.51-13.81,5.82-20.99,7.53-5.27,1.26-10.56,3.67-16.27,2.61-.15-.49,.13-.79,.47-1.05,1.03-.71,2.34-.59,3.73-1.3-1.45-.72-2.76-.81-4.1-.75-2.38,.1-4.75-.28-6.83-1.33-4.93-2.48-10.02-4.58-15.02-6.9-2.49-1.16-4.51-3.27-6.85-4.81-.59-.39-1.11-1.04-.78-1.92Z"/>
      <path class="cls-64" d="M164.45,174.14c-.19,.19-.38,.37-.57,.56-5.67,1.92-11.68,1.79-17.25,.82-4.04-.71-8.43,.33-12.23-1.92-.53-.31-.95-.51-1.03-1.14,1.44-2.35,.58-3.8-1.83-4.58-3.32-1.08-5.87-3.27-8.34-5.59,.07-1.27-.4-2.37-1.28-3.21-.9-.86-1.05-1.87-.98-3,2.81,1.35,5.02,3.98,8.48,3.95,.92-.12,1.63,.37,2.33,.84,7.14,4.81,15.53,6.55,23.46,9.4,2.41,.87,5.18,.76,7.69,1.58,1.15,.37,2.19,.76,1.55,2.31Z"/>
      <path class="cls-10" d="M201.15,164.55c.17-1.56-.1-3.06-.56-4.54-.4-1.12-2.34-1.72-1.14-3.38,1.7,1.16,2.05,1.1,1.82-.18-.44-2.45,1.41-2.71,2.8-3.08,2.41-.64,3.78-1.93,4.66-4.31,1.05-2.82,2.16-5.71,5.06-7.42,.85-.5,2.04-1.84,1.36-2.83-1.41-2.05,.17-3.02,1.19-3.96,4.19-3.83,5.32-9.2,7.4-14.11,1.22-2.88,2.52-5.71,2.81-8.89,.09-.96,.71-1.5,1.71-1.55-1.1,4.42-1.22,9.02-2.47,13.42-3.35,11.78-8.16,22.74-16.84,31.7-1.56,1.61-2.9,3.39-4.85,4.57-1.89,1.15-2.37,3.13-2.87,5.08-.04-.17-.07-.35-.09-.53Z"/>
      <path class="cls-96" d="M135.61,21.61c-.46-.32-1.36,.72-1.54-.86-.2-1.71-1.67-.77-2.55-.33-2.25,1.13-4.5,2.16-7.12,1.77,21.92-9.11,43.65-7.99,65.19,1.33,1.27,.55,2.44,1.36,3.65,2.06-.8,1.78-2.63,1.05-3.94,1.6-5.04-1.77-9.96-3.92-15.24-4.96-7.94-1.56-15.9-2.57-24.05-1.67-4.01,.44-8.04,.58-12,1.47-.83,.19-1.69,.23-2.4-.42Z"/>
      <path class="cls-62" d="M189.83,26.75c.68-1.73,2.52-.08,3.41-1.18,5.81,2.07,10.53,5.87,15.27,9.64-.17,1.23-.85,1.96-2.08,2.19-4.81-3.79-9.79-7.33-15.56-9.55-.17-.53-1.32-.15-1.04-1.11Z"/>
      <path class="cls-112" d="M88.75,65.66c-.02-.28,.05-.6-.06-.82-.37-.72-.42-.1-.54,.16-.27,.6-.54,1.37-1.36,.85-.66-.42-.23-.98-.03-1.64,.94-3.12,1.67-6.3,2.48-9.46,2.71-5.21,6.63-9.46,10.92-13.35,3.45-3.13,7.13-6,10.71-8.99,4.7-2.19,8.89-5.39,13.93-6.88,1.35,.25,3.92-2.11,3.61,1.69-.29,.58-.76,.96-1.37,1.15-2.79,.5-5.47,1.22-7.28,3.67-1.08,1.51-2.81,2.17-4.27,3.18-10.72,7.45-18.89,17.12-25,28.59-.39,.74-.38,1.97-1.73,1.85Z"/>
      <path class="cls-141" d="M127.79,27.42c.8-3.47-2.06-1.16-3-1.9,3.61-1.3,7.21-2.61,10.82-3.91,7.17-1.63,14.45-2.21,21.79-2.15,11.33,.1,22.15,2.52,32.43,7.29,.35,.37,.7,.74,1.05,1.11-1.34,.21-2.69,.42-4.03,.62-1.71,.71-3.11-.34-4.55-.9-8.69-3.33-17.62-5.37-26.97-5.13-8.14,.21-16.07,1.65-23.76,4.38-1.21,.43-2.39,1.22-3.77,.59Z"/>
      <path class="cls-124" d="M199.45,156.63c-.3,1.36,1.12,2.13,1.14,3.38-2.59-1.66-4.46,.21-6.17,1.54-5.11,3.96-11.2,5.05-17.24,5.68-4.95,.52-10.1,.75-15-.99-6.57-2.17-12.89-4.96-18.95-8.21-4.25-2.28-8.16-5.3-11.92-8.36-5.88-4.79-11.35-10.06-15.77-16.28-2.2-3.09-4.48-6.22-5.35-10-.46-1.98-2.98-1.12-3.37-2.9,.57,0,1.13,0,1.7-.01,1.56-.81,2.68,.62,4.05,.79,2.05,1.2,1.98,3.75,3.44,5.38,2.83,3.14,5.42,6.49,7.92,9.9,2.14,2.92,5.04,5.12,7.79,7.31,5.86,4.65,11.6,9.54,18.7,12.43,3.55,1.44,6.87,3.37,10.54,4.66,4.07,1.42,8.09,1.93,12.39,1.84,4.55-.1,8.98-.34,13.23-2.11,3.04-1.27,5.78-3.12,8.72-4.58,1.14-.57,2.21-1.61,3.6-.56,.02,.46,.12,.88,.55,1.13Z"/>
      <path class="cls-104" d="M164.45,174.14c-.2-2.24-2.28-2.01-3.47-2.08-5.12-.32-9.85-2.19-14.55-3.79-5.95-2.03-12.16-3.84-17.02-8.25-2.22-1.66-3.9-3.88-6.15-5.57-2.14-1.61-3.49-4.2-5.53-6.12-2.86-2.69-4.7-6.28-8.1-8.62-1.87-1.29-2.93-3.77-4.32-5.73-1.09-1.54-2.11-3.1-3.83-4.06-.47-.26-1.21-.89-1.13-1.15,.91-3.02-2.57-3.4-3.25-5.53-.7-2.19-1.52-4.45-3.27-6.15,2.52,.49,3.34,3.96,6.34,3.66,.1-.01,.42,.51,.36,.68-1.56,4.15,2.47,5.86,4.18,8.1,2.67,3.52,5.32,7.27,8.73,10.18,4.79,4.1,8.71,9.19,14.56,12.17,2.28,1.16,4.41,3.06,6.52,4.75,3.16,2.65,6.14,5.49,10.2,6.94,3.4,1.21,6.68,2.84,9.86,4.58,3.17,1.74,6.37,2.92,10.05,2.65,1.78-.13,3.48,.45,5.22,1.29-1.43,1.97-3.68,1.28-5.38,2.05Z"/>
      <path class="cls-98" d="M127.79,27.42c11.57-4.93,23.68-6.64,36.12-5.37,7.96,.81,15.61,3.15,22.94,6.43,5.63,3.17,11.34,6.24,16.24,10.52,5.6,4.89,9.87,10.78,12.78,17.63,.36,.61,.56,1.3-.18,1.68-.57,.29-1.01-.27-1.37-.69-.18-.21-.34-.45-.45-.7-2.34-5.12-6-9.17-10.28-12.72-.5-.41-.91-.94-1.34-1.43-1.06-1.35-2.42-2.36-3.83-3.31-8.16-5.51-16.67-10.3-26.61-11.63-8.21-1.1-16.43-1.2-24.73-.3-9.94,1.08-18.27,6.01-27.02,10-4.18,1.9-8.26,4.09-11.56,7.38-4.24,4.24-8.55,8.44-11.65,13.65-2.73,4.1-5.18,8.38-7.55,12.69-1.68,3.05-2.55,6.38-2.65,9.88-.56,3.26-1.06,6.5,1.01,9.51,.53,.77,.44,1.64-.7,1.97-2.3-.55-3.17-2.33-3.76-4.35-.92-5.61,1.25-10.71,2.79-15.88,.68-2.3,1.84-4.47,2.78-6.7,7.05-14.1,17.06-25.52,30.55-33.8,1.96-2.21,4.74-2.93,7.31-4.04,.39-.13,.79-.27,1.18-.4Z"/>
      <path class="cls-58" d="M112.47,121.6c-1.55,.44-2.58-.95-3.95-1.14-.09-.26-.17-.74-.29-.75-3.64-.32-4.82-3.1-5.86-5.92-1.29-3.49-3.72-6.2-5.93-9.05-1.05-1.35-1.93-2.74-2.06-4.5-.07-1.04-.38-1.87-1.73-1.51-1.33,.35-1.45-1.72-2.78-1.42-.19-.23-.29-.5-.29-.81,.75-2.41,.05-5.31,2.37-7.2,.19-.05,.48-.1,.53,.01,1.06,2.82,3.4,4.22,5.94,5.4,.17,.08,.34,.22,.4,.38,1.96,4.94,6.69,7.96,8.86,12.73,1.35,2.98,2.34,6.14,3.28,9.24,.57,1.91,2.69,2.62,2.66,4.64-.41,.25-.79,.19-1.15-.11Z"/>
      <path class="cls-69" d="M89.95,96.55c-.03,.25-.05,.5-.08,.75-2.06-.43-2.26-3.02-3.98-3.61-2.37-.82-2.61-2.95-3.53-4.69-.64-1.2,.14-.94,.82-.76,1.08,1.34,2.16,2.67,3.24,4.01,1.83,.9,3.43,1.98,3.54,4.3Z"/>
      <path class="cls-135" d="M216.4,63.45c.72,6.75,1.42,13.51,1.99,20.25,.59,6.89,.4,13.96-1.82,20.72-.64,1.94-1.23,3.9-1.85,5.85-.85,.88-1.96,1.29-3.05,1.76-1.08,.21-2.14,.27-3.12-.37-.52-2.17,.93-3.88,1.51-5.74,3.52-11.31,1.93-22.19-2.08-33-1.33-3.6-2.48-7.27-3.75-10.9-.67-1.92-.02-3.38,2.04-3.87,1.06-.25,1.94-.58,2.39-1.65,4.14,.57,6.02,3.66,7.74,6.94Z"/>
      <path class="cls-148" d="M211.9,111.42c.72-.92,1.67-1.29,2.82-1.15,.38,0,.75,.01,1.13,.02-3.92,7.31-4.41,15.73-7.68,23.3-2.16,4.99-5.01,9.44-8.21,13.72-1.07,1.43-2.07,2.91-3.13,4.35-1.18,.77-2.7,.9-3.7,1.97-3.7,3.96-8.69,5.45-13.59,7.11-2.84,.96-5.84,.92-8.66,.44-5.28-.9-10.26-2.71-14.94-5.52-4.17-2.5-8.57-4.61-12.47-7.55-5.09-3.84-10.26-7.62-14.24-12.72-1.22-1.57-2.6-2.97-4.21-4.14-.92-.65-1.66-1.48-2.14-2.49-.83-1.73-1.31-3.64-3.04-4.83-.48-.33-.4-.99,.04-1.47,.66-.48,1.44-.48,2.2-.55,1.22-.01,2.45-.06,3.64,.29,2.02,1.02,3.31,2.73,4.32,4.68,3.08,5.93,7.38,10.86,12.5,15.08,5.65,4.66,11.17,9.57,17.8,12.79,8.08,3.92,16.51,5.32,24.94,1.11,4.89-2.45,8.4-6.58,11.13-11.24,2.04-3.48,4.78-6.48,6.35-10.29,2.36-5.73,4.94-11.36,6.47-17.41,.5-1.98,.95-4.06,2.65-5.5Z"/>
      <path class="cls-17" d="M216.4,63.45c-2.37-2.33-4.43-4.98-7.19-6.89-1.52-.32-2.38-1.31-2.78-2.76-1.51-2.03-3.22-3.86-5.29-5.33-5.47-3.87-11.31-7.42-17.72-8.98-5.95-1.45-11.6-4.42-17.97-4.21-1.23,.04-3.14-.06-3.14-1.62,0-1.69,1.89-1.48,3.14-1.51,7.91-.15,15.62,.54,23.11,3.67,4.88,2.03,9.69,4.11,14.29,6.69,4.02,3.53,8.01,7.1,10.56,11.93,.52,.98,.94,2,1.46,2.98,.13,.25,.39,.81,.78,.28,.19-.26,.14-.71,.19-1.07,.88,2.22,2.62,4.37,.55,6.83Z"/>
      <path class="cls-56" d="M196.64,151.54c-.11-1.02,.38-1.76,1.05-2.49,7.25-7.98,10.89-17.77,13.84-27.88,.47-1.6,.7-3.28,.96-4.94,.37-2.42,1.02-4.65,3.37-5.93,1.07-.05,1.58-1.52,2.84-1.1-1.22,2.86-.28,5.93-.96,8.89-2.42,10.6-6.47,20.35-13.27,28.99-1.87,2.38-4.4,4.34-5.56,7.28-1.39,.27-1.94-.73-2.54-1.67-.11-.43-.04-.82,.28-1.15Z"/>
      <path class="cls-25" d="M196.65,152.67c.75,.56,1.5,1.13,2.25,1.69,0,.38,0,.76,0,1.14-3.35,.54-5.92,2.74-8.8,4.24-3.96,2.05-7.97,3.57-12.46,3.67-2.8,.06-5.61,.34-8.39,.13-6.27-.46-11.76-3.25-17.44-5.72-6.83-2.96-12.68-7.24-18.46-11.67-5.13-3.93-9.78-8.37-13.57-13.72-2.52-3.56-5.69-6.65-7.3-10.82,.38,0,.76-.01,1.13-.02,2.43-1.54,4.36-.42,6.21,1.15,3.28,1.64,2.58,6.13,5.66,7.91,5.72,7.94,12.94,14.31,20.84,20,6.31,4.54,12.96,8.31,20.61,10.11,6.24,1.47,12.34,1.23,18.17-1.5,3.29-1.54,6.85-2.72,9.14-5.9,.52-.72,1.34-1.42,2.42-.68Z"/>
      <path class="cls-141" d="M126.61,27.82c-2.44,1.35-4.87,2.7-7.31,4.04,1.52-3.01,4.37-3.6,7.31-4.04Z"/>
      <path class="cls-73" d="M202.86,42.5c-2.93-1.02-6.38-1.56-8.65-3.24-4.29-3.18-9.29-3.99-13.99-5.27-5.51-1.49-11.45-1.62-17.25-.81-.12,.02-.21,.28-.42,.56,.71,.28,1.4,.8,2.05,.75,5.24-.43,9.75,2.56,14.61,3.17,5.31,.66,9.9,2.95,14.26,5.19,3.92,2.01,8.53,3.76,11.22,7.89,.53,.82,1.6,1.27,2.38,1.94,.81,.69,.52,1.06-.41,1.18-1.7,.24-2.81-.94-3.95-1.81-3.06-2.34-6.42-4.16-9.8-5.96-1.01-.4-1.97-.9-2.98-1.31-1.68-.82-3.6-.97-5.24-1.89-6.19-2.22-12.42-4.14-19.11-4.1-8.24,.05-16.51-.39-24.5,2.36-3.1,1.07-6.23,2.04-9.26,3.3-5.4,2.51-10.74,5.13-14.99,9.47-.4,.33-.85,.58-1.31,.81-.9,.38-1.7,.92-2.38,1.64-1.35,1-2.57,2.14-3.55,3.52-1.56,1.58-2.69,3.53-4.38,4.99-.47,.62-.97,1.21-1.43,1.83-2.78,3.42-4.56,7.43-6.68,11.23-1.15,2.64-2.33,5.27-3.64,7.84-.38,.74-.55,1.6-1.38,2.03-1.99-1.09-.86-2.7-.4-3.88,1.76-4.52,3.31-9.15,6.12-13.19,2.39-4.03,4.81-8.06,7.85-11.63,3.87-4.55,7.58-9.31,12.25-11.63-4.74,.98-8.98,4.74-13.51,8.02-2.47,1.79-5.18,2.93-8.3,2.82,1.03-2.33,2.79-4.14,4.37-6.08,3.47-4.26,7.37-8.14,11.67-11.49,2.43-1.89,5.41-3.12,8.24-4.43,5.83-2.71,11.7-5.33,17.61-7.88,4.1-1.77,8.64-1.86,12.93-2.16,8.39-.58,16.9-.63,25.14,1.55,6.46,1.71,12.66,4.18,18.24,8.04,2.98,2.06,6.38,3.55,8.57,6.62Z"/>
      <path class="cls-24" d="M96.1,58.33c5.91-1.6,10.52-5.25,15.25-8.96,2.44-1.91,6.07-2.31,9.27-3.15-9.29,5.82-15.74,14.09-21.14,23.34-.27,.46-.75,.79-1.14,1.18-1.38-.56-2.29,.17-3.18,1.1-1.98,2.07-3.42,4.75-6.58,5.45-.83,.18-.74,1.19-.92,1.91-.22,.9-.37,1.92-1.72,1.71,.17-4.06,1.38-7.7,3.43-11.29,2.17-3.81,4.37-7.6,6.73-11.3Z"/>
      <path class="cls-22" d="M85.94,80.92c.69-3.31,3.4-4.6,5.86-6.38,1.55-1.12,2.69-3.04,4.14-4.49,1.23-1.22,2.08-1.2,2.4,.69-2.23,4.04-3.96,8.3-5.64,12.58-.53,1.35-1.58,2.78-.56,4.39,.48,.56,.47,1.12,0,1.68-1.73,2.08-.75,4.98-2.19,7.15-.88-1.68-2.3-2.91-3.54-4.3,.65-.18,1.52-.38,.74-1.23-2.84-3.1-1.88-6.6-1.21-10.09Z"/>
      <path class="cls-6" d="M92.14,89.4c0-.56,0-1.12,0-1.68,1.02-3.61,2.78-6.9,4.47-10.23,.19-.06,.45-.09,.52,.03,1.23,2.34,2.4,2.83,5.38,2.24,.55-.11,1.09-.27,1.64-.41,3.48-.88,4.92-.31,5.21,3.29,.41,5.23,2.51,9.96,3.47,15,1.38,7.33,4.46,14.07,6.99,21.01,.55,1.5,2.35,2.24,2.26,4.05-.75,0-1.51,.02-2.26,.03-2.15,.06-3.95-1.81-6.21-1.15-3.92-2.53-4.08-7.03-5.61-10.8-1.72-4.26-3.92-8.13-7.58-11.03-.43-.34-1.01-.6-1.26-1.05-2.05-3.66-2.02-3.69-5.83-5.55-.67-.33-.58-.87-.62-1.41-.07-.81,.23-1.71-.57-2.35Z"/>
      <path class="cls-13" d="M193.22,45.52c4.79,2.28,8.92,5.63,13.44,8.35,.69,1.05,2.09,1.43,2.56,2.69-1.02,.87,.5,1.47,.07,2.42-.67,.09-1.38-.52-2.33-.31-2.25,.48-2.76,1.33-1.93,3.51,1.99,5.22,4.12,10.42,5.55,15.8,2.49,9.38,3.61,18.88,.14,28.36-.64,1.74-.58,3.76-2.21,5.06-.97,.89-2.01,1.59-3.42,1.37-.4-.24-.67-.57-.72-1.05,3.75-6.87,4.83-14.12,4.17-21.96-.73-8.63-3.42-16.42-8.32-23.35-5.15-7.28-12.15-11.61-21.49-11.27-4.76,.17-9.5-.53-14.3,.48-12.37,2.61-23.22,7.17-29.71,19.1-2.98,5.48-4.68,11.26-6.27,17.16-.43,1.6,.08,3.18,.08,4.78,0,7.93,1.82,15.46,5.05,22.67,.34,.76,.95,1.45,.47,2.37-.65,.57-1.42,.63-2.23,.49-.3-.07-.59-.19-.85-.36-.72-.63-1.24-1.42-1.59-2.3-5.17-12.99-6.71-26.09-1.96-39.64,1.54-4.4,3.69-8.45,5.9-12.45,2.19-3.97,5.97-6.65,9.39-9.56,3.93-3.35,9.07-4.44,13.38-7.09,.67-.41,1.87-.45,1.55-1.62-.3-1.09-1.45-1.42-2.31-1.09-2.77,1.05-5.35,.45-7.97-.46-.35-.12-.76-.17-1.12-.08-6.67,1.62-13.61,1.55-20.28,3.22-1.7,.43-2.98,1.53-4.34,2.55-1.67,1.25-3.46,1.92-5.37,.4,.4-1.48,1.67-2.18,2.81-2.92,3.83-2.46,7.57-5.1,11.9-6.67,3.71-.53,7.35-1.34,10.95-2.4,4.77-1.41,9.62-2.47,14.64-2.28,5.21,.19,10.36,.34,15.61,1.17,5.69,.9,10.81,3.4,16.42,4.19,1.97,.28,3.61,1.51,5.46,3.15-.91-.94-1.52-1.54-.82-2.44Z"/>
      <path class="cls-31" d="M131.11,121.6c.19,0,.38,.02,.58,.02,2.57,.43,3.98,1.91,4.75,4.44,.63,2.06,2.05,3.81,3.59,5.35,3.59,3.58,6.53,7.79,10.5,10.99,5.44,4.4,10.5,9.28,17.13,12.1,5.29,2.25,10.21,1.53,15.19-.62,6.44-4.01,10.22-9.69,12.42-17.06,2.19-7.34,5.25-14.46,7.91-21.68,.38-1.03,.67-2.2,1.95-2.59,1.15-.32,2-1.51,3.38-1.15,1.13,0,2.26,0,3.39,.01-2.79,8.72-5.45,17.49-9.58,25.71-.77,1.53-1.93,2.75-2.8,4.18-2.65,4.38-5.53,8.54-9.35,12.04-3.65,3.34-7.78,5.18-12.74,5.58-7.38,.6-14.2-1.18-20.35-4.98-5.06-3.13-9.69-6.94-14.3-10.75-5.76-4.77-10.62-10.22-13.96-16.99-.64-1.3-1.86-2.32-2.81-3.47-.03-.64,.19-1.15,.76-1.5,.55-.28,1.15-.36,1.76-.38,.95-.05,1.85,.07,2.58,.76Z"/>
      <path class="cls-55" d="M126.6,121.6c-.02,.46-.13,.88-.58,1.12-1.32,0-2.64-.02-3.95-.03-2.23-1.63-2.96-4.11-4.03-6.51-3.38-7.55-4.98-15.62-7.43-23.44-1.08-3.45-1.25-6.92-1.99-10.35-.52-2.41-1.33-3.59-3.93-2.39-2.56,1.17-5.22,1.13-8.12-.31-.12-.32,1.33-1.36,.04-2.2,2.13-3.85,3.75-8.01,6.86-11.27,1.98,1.22-.33,2.32,.05,3.53,3.37-2.2,7.44-3.21,10.89-5.52,1.63-1.09,3.37-.51,4.03,1.51,1.13,3.49,1.91,7.12,1.08,10.8-.42,1.87-.68,3.69-.28,5.58,.18,.83,.24,1.68,.16,2.53-1.07,10.56,.44,20.8,3.85,30.8,.77,2.25,1.87,4.3,3.36,6.15Z"/>
      <path class="cls-131" d="M196.65,152.67c-.71,0-1.24,.37-1.7,.86-6.87,7.3-15.6,9.64-25.17,8.62-5.76-.61-11.04-3.16-16.22-5.9-6.08-3.21-11.38-7.5-16.51-11.86-4.54-3.85-9.13-7.99-11.57-13.76,1.8,1.38,3.3,3.01,4.71,4.8,3.68,4.69,8.6,8.03,13.18,11.74,1.74,1.41,3.58,2.82,5.59,3.75,4.79,2.19,8.87,5.7,14.01,7.23,3.29,.98,6.36,2.53,9.97,2.48,7.42-.1,13.92-2.39,19.42-7.37,1.26-1.14,2.56-1.88,4.29-1.72,0,.38,0,.75,0,1.13Z"/>
      <path class="cls-139" d="M131.11,121.6c-.94,0-1.88,0-2.82,0-3.01-3.08-3.58-7.27-4.43-11.11-2.25-10.24-3.21-20.61-.66-31,.43-1.74,.88-3.48,1.73-5.06,2.54-4.71,4.37-9.77,7.1-14.39,1.04-1.75,.05-3.48-2.1-3.83-1.03-.17-2.09-.06-3.09,.14-3.97,.77-8,1.57-11.64,3.26-2.92,1.35-4.82,4.36-7.58,6.17-1.87,1.23-2.43,1.06-2.78-1.16,1.23-1.89,2.67-3.61,4.31-5.16,.42-.35,.92-.49,1.45-.52,2.9-.25,3.47-2.79,4.64-4.74,.18-.48,.6-.47,1.01-.47,2.37,.4,4.35-.1,6.09-1.95,1.26-1.33,2.97-2.04,4.95-2.04,1.2,0,2.49-.1,3.58-.55,3.73-1.55,7.81-.55,11.52-1.67,3.13-.95,5.98-.91,8.89,.48,.94,.45,1.84-.08,2.68-.52,1.4-.74,2.73-.54,4,.29,.75,.49,1.23,1.24,1.2,2.12-.04,.96-1.01,.92-1.66,1.23-5.27,2.54-11.16,4.21-15.44,8.2-3.51,3.27-7.4,6.28-9.55,11.11-2.17,4.87-4.65,9.61-5.84,14.8-2.14,9.32-1.66,18.57,1.24,27.73,.93,2.95,2.07,5.79,3.23,8.64Z"/>
      <path class="cls-89" d="M104.83,64.61c.39,1.39,1.13,2.08,2.26,.73,5.9-7.02,13.98-9.19,22.57-10.17,1.82-.21,2.83,1.33,3.83,2.53,1.06,1.27-.26,1.99-.88,2.86-2.4,3.39-3.23,7.56-5.46,11.05-3.34,5.23-4.1,11.27-4.62,17.16-.45,5.05,.22,10.21,.88,15.31,.79,6.1,2.77,11.81,4.87,17.51-.56,0-1.13,0-1.69,0-1.31,.18-1.85-.67-2.26-1.68-2.88-7.13-5.23-14.34-5.78-22.15-.41-5.78,.34-11.55-.42-17.3-.1-.74-.2-1.61,.09-2.23,1.84-3.9,.31-7.74-.19-11.56-.31-2.39-1.86-2.7-3.87-1.38-1.78,1.17-3.76,2.08-5.74,2.9-1.83,.76-3.71,1.36-5.08,2.89-.31,.34-.73,.77-1.2,.46-.55-.37-.45-1-.17-1.51,.66-1.21,2.15-2.09,1.49-3.81,.45-.54,.91-1.08,1.36-1.61Z"/>
      <path class="cls-3" d="M193.22,45.52c.03,2.04,2.1,2.08,3.29,3.28-1.13,.79-1.88,.3-2.72-.37-2.62-2.09-5.64-3.17-8.95-3.72-2.13-.35-4.21-1.13-6.26-1.88-1.74-.64-3.22-2.39-5.33-.65-.77,.63-1.51-.49-2.23-.81-4.5-1.98-9.23-.96-13.85-1.1-5.96-.17-11.63,1.31-17.35,2.93-2.7,.77-5.74,2.52-8.86,.92,7.11-3.31,14.5-5.61,22.38-6.13,10.21-.67,20.29-.02,30.04,3.39,.69,.24,1.33,.63,2,.95,1.29,1.68,3.28,1.73,5.09,2.21,.92,.32,1.84,.64,2.76,.97Z"/>
      <path class="cls-13" d="M115.24,54.19c-.07,3.1-1.89,5.26-4.46,5.27-.71-2.09,1.77-2.23,2.2-3.63,.35-1.09,1.27-1.41,2.25-1.64Z"/>
      <path class="cls-13" d="M190.46,44.55c-2.31,.69-3.92-.26-5.09-2.21,1.66,.82,3.66,.85,5.09,2.21Z"/>
      <path class="cls-89" d="M112.98,55.83c.13,1.73-2.07,2.05-2.2,3.63-.54,0-1.09,0-1.63,0,1.07-1.43,2.22-2.77,3.84-3.62Z"/>
      <path class="cls-70" d="M133.95,121.59c-2.8-6.09-5.49-12.15-5.79-19.08-.13-2.94-.07-5.98-.81-8.91-.36-1.44,.68-2.68,.94-4.05,1.62-8.66,5.62-16.19,11.23-22.87,3.72-4.43,8.75-6.92,14.12-8.83,5.02-1.79,10.11-3.7,15.42-3.68,8.05,.03,16.55-1.1,23.7,3.76,5.96,4.05,10.07,9.78,12.91,16.59,3,7.19,4.01,14.57,3.93,22.2-.04,4.24-1.77,8.19-2.52,12.32-.24,1.31-1.68,1.96-2.53,2.94,.11,1.1-.56,.85-1.18,.68-.57-.82-.25-1.63,.08-2.41,4.71-11.11,3.53-22.11-.15-33.26-1.56-4.72-3.95-8.61-7.19-12.25-3.55-4-8.08-5.56-13.14-6.21-5.72-.73-11.42-.73-17.16,0-8.88,1.11-16.98,4.23-23.08,10.76-5.89,6.3-9.97,13.7-10.97,22.69-.86,7.77,0,15.17,2.42,22.49,.77,2.33,1.58,4.66,4.06,5.84,.37,.17,.38,.61,.23,1-1.43,1.36-2.94,1.48-4.53,.3Z"/>
      <path class="cls-99" d="M133.95,121.59c1.51-.08,3.09,.33,4.49-.58,.68-.41,1.37-.16,2.05-.03,.42,.12,.79,.32,1.08,.65,1.88,3.03,3.84,5.97,6.44,8.5,3.83,3.73,6.93,8.1,10.3,12.23,2.85,3.5,6.1,6.66,9.54,9.59,1.36,1.16,3.1,1.7,4.99,1.66,2.73-.05,5.46-.04,8.19-.01,.77,.04,1.52,.1,2.05,.77-5.18,2.82-10.36,3-15.92,.81-4.09-1.61-7.59-4.17-10.8-6.79-4.76-3.88-9.75-7.69-13.45-12.77-1.82-2.5-4.53-4.23-6.04-7.01-.27-.49-.79-.91-.89-1.42-.51-2.6-1.91-4.45-4.3-5.57,.75-.01,1.5-.02,2.26-.03Z"/>
      <path class="cls-84" d="M183.1,154.37c-.77-.01-1.54-.02-2.31-.03-.5-.75-.06-1.23,.53-1.58,4.26-2.57,6.73-6.49,8.33-11.06,.88-1.02,1.55-2.13,1.62-3.52,.48-8.67,2.9-16.77,7.16-24.33,.4-.65,.92-1.18,1.56-1.6,.55-.29,1.14-.4,1.76-.38,.64,0,1.18,.26,1.66,.66,.47,0,.89-.08,1.13-.55,.19,.19,.38,.38,.58,.58-1.97,3.86-3.08,8.03-4.51,12.09-2.43,6.86-4.72,13.8-7.71,20.42-1.9,4.2-5.75,7.02-9.8,9.31Z"/>
      <path class="cls-67" d="M203.42,112.52c-.56,0-1.12,.01-1.68,.02-.66-.78-.33-1.61-.05-2.39,1.29-3.59,1.97-7.36,2.97-11.03,.56-2.07,.32-4.28-.12-6.42-1.05-5.03-2.21-10.04-3.3-15.06-1.19-5.5-4.1-9.98-8.53-13.5-1.21-.96-2.53-1.58-3.99-1.96-2.6-1.41-5.35-1.88-8.34-2.05-5.1-.29-10.04,.13-15.05,1.06-6.82,1.28-13.08,3.92-18.38,8.14-4.2,3.35-7.9,7.48-10.12,12.64-2.45,5.67-4.22,11.53-3.72,17.71,.47,5.87,1.32,11.75,4.31,17.05,.48,.84,1.12,1.49,1.81,2.12,.66,.79,1.7,1.44,.93,2.72-.57-.18-1.14-.37-1.71-.55-4.69-1.14-4.96-5.58-5.89-8.93-1.36-4.9-2.44-9.99-2.04-15.25,.63-8.25,2.63-15.76,7.48-22.83,7.09-10.33,16.87-14.74,28.72-16.35,6.32-.86,12.62-.68,18.76,.3,5.28,.85,9.82,3.77,13.19,8.33,5.24,7.09,7.66,15.04,8.16,23.71,.09,1.58,.4,3.15,.54,4.73,.59,6.35-1.74,12.06-3.96,17.79Z"/>
      <path class="cls-48" d="M189.88,141.95c-.71,5.16-3.9,8.57-8.05,11.25-.5,.32-.94,.53-1.04,1.14-2.54,.02-5.08-.02-7.61,.09-2.79,.12-4.97-1.04-7-2.82-5.22-4.57-9.64-9.91-13.83-15.33-3.18-4.11-7.55-7.19-10.03-11.87-.48-.91-1.19-1.64-1.05-2.76-2.81-5.66-4.62-11.54-5.27-17.92-1.33-13,5.46-26.39,16.89-32.65,9.41-5.16,19.4-7.96,30.15-7.88,1.42,.01,3.16-.29,3.58,1.82-.84,1.04-2.03,.82-3.13,.86-10.73,.47-20.91,3.24-30.02,8.8-8.05,4.91-12.82,12.11-13.86,22.01-.9,8.62,1.08,16.35,4.33,24.04,1.2,2.86,3.19,5.08,5.48,7.07,4.19,4.92,9.31,8.95,13.41,13.96,1.88,2.3,3.34,4.92,5.81,6.8,5.73,4.36,11.64,3.54,15.69-2.41,1.76-2.58,3.11-5.3,3.72-8.41,.39-2.03,.71-2.12,2.34-1.45,.48,1.95,.67,3.86-.5,5.66Z"/>
      <path class="cls-75" d="M186.48,65.1c-.42-.89-1.17-1.09-2.08-1.14-5.67-.32-11.19,.54-16.64,2.01-6.75,1.82-13.33,4.11-18.77,8.6-6.15,5.07-10.37,11.21-11.24,19.61-.59,5.72-.98,11.29,.13,16.95,.4,2.07,1.13,4,2.25,5.73,.99,1.52,1.35,3.05,1.15,4.78-.37-.03-.74-.05-1.11-.08,.09-.98-.82-1.45-1.13-2.23-2.2-3.04-3.28-6.53-4.16-10.11,0-2.44,.18-4.87-.86-7.22-.49-1.11-.33-2.43-.22-3.64,1.28-15.18,8.68-26.04,22.76-32.16,1.81-.79,3.7-1.41,5.34-2.55,.28-.15,.58-.26,.89-.33,3.06-.42,6.03-1.29,9.04-1.95,4.6-1.01,9.34-.49,14.03-.26,.32,.05,.62,.14,.93,.25,2.85,1.18,5.71,2.28,8.01,4.53,2.42,2.36,3.95,5.14,5.04,8.31,1.76,5.16,3.31,10.39,4,15.78,.65,5.07,1,10.14-.69,15.25-.85,2.56-1.13,5.25-3.06,7.34-.04,.71-.43,1.08-1.14,1.14-.43,.33-.85,.3-1.28,0-.49-.95-.16-1.86,.25-2.7,4.88-10.17,3.03-20.28-.25-30.37-.66-2.03-.86-4.26-2.33-5.97-1.18-4.81-5.13-7.07-8.83-9.55Z"/>
      <path class="cls-114" d="M200.06,112.56c1.02-2.86,2.04-5.72,3.05-8.58,.09-.26,.24-.53,.25-.79,.36-7.94,.12-15.85-2.65-23.4-1.16-3.18-1.75-6.53-3.42-9.58-2.11-3.86-5.29-6.1-9.32-7.37-.68-.21-1.19-.49-1.5-1.12,.75-.71,1.51-.46,2.27-.01,5,.65,7.56,4.43,10.09,8.09,3.15,4.55,3.55,10.01,4.71,15.24,.5,2.25,.92,4.56,1.61,6.77,1.34,4.25,.16,8.31-.84,12.36-.7,2.83-1.71,5.58-2.59,8.37-.56,0-1.12,.02-1.68,.02Z"/>
      <path class="cls-94" d="M197.78,113.68c.38,0,.76,0,1.14,.01-.58,3.32-2.84,5.95-3.75,9.13-.78,2.73-1.69,5.38-2.08,8.28-.37,2.72-.96,5.41-1.07,8.2-.04,1.15-.77,2.29-2.14,2.64,0-2.08-.01-4.15-.02-6.23-1.24-2.63,.26-5.15,.66-7.59,.72-4.42,2.54-8.62,5.03-12.44,.56-.86,1.08-1.78,2.23-2Z"/>
      <path class="cls-140" d="M188.74,61.71c-.76,0-1.51,0-2.27,.01,0,0,0,0,0,0-5.39-.88-10.78-1.1-16.14,.16-2.73,.64-5.6,.77-8.15,2.1h0c-2.67,.87-5.28,1.92-7.82,3.09-8.15,3.76-14.25,9.67-17.52,18.08-1.86,4.77-3.15,9.8-2.87,15.01,.16,3.05,1.04,6.02,1.66,9.01,1.13,3.39,2.26,6.78,3.39,10.17-3.37-1.67-3.93-5.29-4.7-8.18-1.62-6.08-2.83-12.33-1.54-18.8,1.49-7.49,4.41-14.07,9.67-19.76,6.82-7.39,15.42-10.72,24.97-12.65,5.51-1.11,10.96-.49,16.42-.4,1.71,.03,3.59,.72,4.91,2.16Z"/>
      <path class="cls-49" d="M197.78,113.68c-4.94,6.52-6.59,14.22-7.91,22.03-1.05,.46-1.01,1.41-1.18,2.35-.78,4.48-2.85,8.47-6.23,11.36-5.5,4.7-13.83,2.62-18-4.08-2.59-4.16-6.02-7.62-9.6-10.88-2.07-1.89-3.97-3.88-5.67-6.09,.37-.33,.79-.38,1.25-.26,6.94,4.22,12.18,10.09,16.47,16.91,1.79,2.85,4.71,4.24,7.84,5.11,3.59,.99,8.75-3.43,9.86-6.54,1.07-3.01,2.02-6,2.4-9.22,.97-8.26,4.13-15.78,8.6-22.71,3.62-5.61,4.05-11.73,3.63-18.09-.06-.97-.63-1.76-.87-2.67-.16-4.38-2.23-8.3-3.06-12.52-.2-1.01-.61-1.98-.46-3.04,.08-.49,.27-.92,.68-1.22,2.63,1.43,2.32,4.38,3.08,6.62,1.95,5.75,3.09,11.73,3.13,17.86,.04,5.38-2.26,10.15-3.96,15.07Z"/>
      <path class="cls-87" d="M195.52,74.13c0,.38,0,.77-.01,1.15-1.14,.68-1.52-.22-1.78-.98-.38-1.1-1.14-1.87-1.9-2.68-.19-.21-.36-.44-.5-.69-1.53-2.52-3.91-3.47-6.69-3.25-5.4,.44-10.76,1.07-16.01,2.56-8.31,2.36-16.13,5.51-21.86,12.4-3.65,3.79-5.89,8.27-5.79,13.57,.09,5.02-.79,10.1,.91,15.07,1.7,4.97,3.35,9.91,6.97,13.92,.75,.83,1.82,1.72,1.46,3.16-.38,0-.75,0-1.13,0-2.78-1.89-4.78-4.38-6.05-7.52-2.57-6.35-4.79-12.72-4.72-19.74,.13-11.88,4.8-21.29,15.02-27.47,7.11-4.3,15.11-6.39,23.23-8,3.26-.65,6.53-.5,9.8-.55,4.49,.94,8.27,4.72,9.04,9.03Z"/>
      <path class="cls-114" d="M135.63,109.17c-1.92-2.38-1.79-5.39-2.17-8.14-.48-3.43,.04-6.89,.99-10.28,1.33-4.75,2.58-9.54,5.83-13.42,3.88-4.62,8.08-8.93,13.95-10.98,2.6-.91,4.88-3.02,7.95-2.38-.85,1.41-2.35,1.79-3.75,2.26-6.58,2.22-11.97,6.34-16.31,11.5-3.8,4.52-6.39,9.84-6.62,16.12-.1,2.6-1.77,5.29-.82,7.87,.92,2.49,.92,4.93,.94,7.44Z"/>
      <path class="cls-114" d="M162.19,63.98c.67-1.3,2.01-1.77,3.21-2.06,6.21-1.54,12.55-1.5,18.89-1.3,.86,.03,1.63,.39,2.18,1.1-1.78,0-3.56,.02-5.33-.01-4.55-.09-9.08-.15-13.44,1.59-1.73,.69-3.63,.85-5.52,.67Z"/>
      <path class="cls-26" d="M150.32,128.38c-4.8-5.41-8.54-11.58-9.55-18.69-1.25-8.85-2.25-17.96,3.84-25.87,.52-.68,.96-1.38,1.76-1.76,.84,1.22-.05,2.12-.61,3.05-5.91,9.7-5.53,19.73-1.53,29.91,2.38,6.05,5.92,11.21,11.33,15.08,5.35,3.83,9.2,9.08,12.56,14.66,1.42,2.36,3.35,3.74,6.11,3.89,4.21,.35,6.75-1.14,8.61-4.83,1.85-3.67,1.64-7.62,1.92-11.54,.58-8.03,2.41-15.54,8.65-21.36,3.38-3.15,4.95-7.2,4.76-11.91-.09-2.25-.13-4.51,.07-6.76,.1-.46,.3-.87,.68-1.17,1.04,.89,.99,2.1,1.15,3.33,1.03,8.07-1.96,14.92-6.01,21.63-3.7,6.13-5.83,12.87-6.49,20.07-.34,3.64-1.4,7.27-3.64,10.13-5.79,7.39-12.78,5.73-17.67-1.01-3.63-5-7.45-9.72-12.07-13.8-1.23-1.08-3.13-1.33-3.87-3.06Z"/>
      <path class="cls-38" d="M198.91,91.08c0,.39-.01,.77-.02,1.16-1.59,.53-1.69-.68-1.82-1.66-.76-6-2.83-11.57-5.36-17.01-.22-.82-.26-1.6,.41-2.25,2.38,.26,1.52,3.27,3.38,3.97,.81,3.29,1.38,6.66,2.53,9.83,.73,2.01,.86,3.94,.87,5.97Z"/>
      <path class="cls-38" d="M174.05,149.28c-2.65,0-4.62-1.09-6.03-3.4-4.24-6.91-9.71-12.57-16.04-17.76-6-4.93-9.11-12.16-10.72-19.86-1.05-5.04-.47-10.06,.07-15.07,.27-2.52,1.45-4.8,2.81-6.97,.84-1.33,2.06-2.47,2.22-4.17,4.45-5.88,10.82-8.86,17.5-11.18,5.72-1.98,11.58-3.56,17.73-3.53,.56,0,1.13-.05,1.68-.15,4.39-.86,6.35-.08,8.83,3.58-1.49,1.1-2.54-.4-3.82-.62-.26-.1-.51-.23-.76-.36-3.65-1.15-7.15-.4-10.75,.51-7.1,1.8-14.15,3.64-20.69,7.11-7.26,3.86-11.57,9.87-12.83,17.81-2.3,14.47,3.19,25.96,14.67,34.55,3.91,2.93,6.72,6.48,9.04,10.59,.88,1.56,1.78,3.09,2.83,4.54,.64,1.17,1.61,1.98,2.72,2.7,.63,.4,1.68,.53,1.52,1.68Z"/>
      <path class="cls-54" d="M188.17,69.62c1.52-.32,2.43,1.44,3.93,1.15,.01,.18,.02,.36,.02,.54,0,.75,0,1.5,.01,2.25-.11,.06-.21,.12-.32,.18-.66,.02-1.2-.22-1.64-.69-.15-.19-.28-.4-.4-.61-.3-1-1.63-1.09-1.87-2.14,0-.26,.09-.48,.26-.67Z"/>
      <path class="cls-91" d="M188.17,69.62c0,.19,0,.39,0,.58-1.04,1.46-2.64,1.14-4.11,1.32-11,1.38-21.64,3.97-30.67,10.79-5.22,3.94-7.66,9.49-7.99,16.07-.45,8.84,2.14,16.65,7.43,23.64,1.2,1.59,2.61,3.02,4.36,3.95,4.9,2.62,8.61,6.3,10.72,11.5,.18,.44,.48,.8,.76,1.18,.77,1.17,1.33,2.43,1.76,3.78,.5,1.55,1.32,2.88,3.03,3.39,.24,.08,.46,.19,.68,.32,1.09,.93,2.17,.83,3.26-.01,.24-.12,.48-.21,.73-.28,.52-.14,1.07-.17,1.59-.33,1.73-1.2,2.07-3.03,2.71-4.92,1.55-4.57,.28-8.95-.12-13.41-.23-3.3,.44-6.55,.66-9.82,.27-3.85,2.79-6.25,5.48-8.51,1.51-1.27,3.09-2.47,4.83-3.42,2.67-1.46,3.81-3.78,3.72-6.74-.21-6.59-1.68-12.92-3.99-19.09-.71-1.9-2.48-3.76-.88-6.04,0,0,.03-.02,.03-.02,2.58,3.05,3.3,6.94,4.37,10.57,.68,2.31,1.84,4.69,1.38,7.3-.09,.48,.53,.7,1.01,.8,0,2.53-.09,5.07,.03,7.6,.19,4.26-1.2,8.1-4.2,10.83-7.45,6.76-9.2,15.52-9.28,24.85-.03,3.57-.98,6.72-2.45,9.81-1.48,3.1-5.84,4.95-8.94,3.96-1.53-1.29-4.06-1.44-4.52-3.95-1.66-3.15-3.46-6.23-5.24-9.31-1.99-3.44-5.35-5.52-8.43-7.78-7.61-5.58-11.04-13.5-12.87-22.33-1.56-7.55,.1-14.49,4.31-20.9,2.79-4.25,6.83-6.9,11.3-9,5.78-2.72,11.95-4.23,18.08-5.91,2.77-.75,5.5-.95,8.3-1.15,1.21-.09,2.21,.11,3.21,.69h0Z"/>
      <path class="cls-54" d="M188.17,69.62c-5.18-.55-10.23,.19-15.09,1.93-4.48,1.61-9.12,2.66-13.52,4.61-6.39,2.83-11.55,7.01-14.2,13.34-2.14,5.12-3.22,10.7-1.86,16.47,1.93,8.2,4.89,15.8,11.86,21.07,3.04,2.3,6.36,4.34,8.57,7.44,2.36,3.3,4.44,6.86,5.59,10.84-2.42-1.97-3.47-4.91-4.84-7.5-2.28-4.33-6.21-6.81-9.82-9.5-6.95-5.18-10.14-12.59-12.22-20.35-2.21-8.27-.69-16.41,4.27-23.63,4.16-6.06,10.5-8.94,17.1-11.22,5.01-1.73,10.14-3.26,15.33-4.3,2.83-.56,6.07-1.45,8.81,.79Z"/>
      <path class="cls-85" d="M190.36,72.59c0,.16,.05,.29,.14,.42,.6,.75,.7,1.61,.57,2.53-.11,.71-.38,1.37-.79,1.96-.41,.53-.9,.99-1.3,1.54-1.39,1.43-2.57,3.12-4.62,3.75-5.09,2.49-10.66,4.09-14.96,8.05,5.8-1.06,10.86-3.7,15.65-6.93,1.53-.9,3.07-1.76,4.78-2.27,1.14-.22,1.98,.17,2.55,1.19,.14,.26,.24,.53,.31,.82,.18,2.45-.37,4.62-2.41,6.21-5.46,3.92-11.87,6.29-17.8,10.51,1.72,.68,2.7,.09,3.64-.29,5.14-2.07,9.99-4.75,14.93-7.26,.66-.34,1.22-.9,2.02-.93,2.03,.48,1.22,2.39,1.83,3.59,.5,2.17-.29,3.75-2.11,5.01-3.83,2.64-7.75,5.11-12.03,6.98-4.18,1.58-4.45,1.75-3.65,6.07,1.01,5.48,2.22,10.91,3.12,16.41,.09,.29,.14,.58,.17,.88-.04,2.58,.45,5.08,.96,7.59,.28,1.5,.29,3.01,.09,4.52-.06,.3-.17,.59-.31,.86-.72,1.01-1.54,1.91-2.87,2.09-4.04,1.35-5.26,.66-6.31-3.48-.23-.9-.39-1.81-.71-2.68-.19-.75-.25-1.52-.27-2.29-.24-3.42-.84-6.77-1.9-10.03-.22-.69-.29-1.41-.32-2.13,.14-2.33-1.12-4.3-1.7-6.44-.48-1.79-1.52-2.23-3.12-1.22-1.1,.69-2.34,1.18-3.22,2.2-2.77,2.13-3.25,2.13-5.19-.04-.45-1.3-.39-2.63-.16-3.96,.57-2.3,1.78-4.26,3.25-6.09,.34-.43,.84-.95,.46-1.47-.5-.68-1.19-.25-1.75,.06-1.07,.59-1.86,1.53-2.67,2.42-1.23,1.37-2.48,1.51-3.79,.11-1.35-2.73-.92-5.22,1.01-7.51,1.62-1.55,3.3-3.05,4.74-4.78,.4-.48,.97-1.1,.49-1.75-.54-.74-1.39-.51-2.05-.15-1.33,.73-2.32,1.89-3.42,2.91-1.41,.95-2.71,2.65-4.55,.68-.29-.72-.27-1.45-.06-2.18,.95-1.72,1.83-3.47,2.92-5.11,4.09-5.98,10.3-8.88,16.7-11.49,4.17-1.7,8.38-3.31,12.35-5.47,3.34-1.02,6.01-3.42,9.29-4.57,.98-.15,1.73,.13,2.08,1.14Z"/>
      <path class="cls-27" d="M190.36,72.59c-.61-.56-1.29-.89-2.14-.67-.67,.34-1.41,.39-2.13,.47-3.83-.01-7.39,1.26-10.91,2.5-3.9,1.37-8.07,1.73-11.88,3.39-6.39,2.79-12.4,6.08-15.11,13.05-2.56,6.59-2.3,13.2,.59,19.66,.65,1.46,1.33,2.89,1.91,4.39,1.83,4.73,4.77,8.44,9.51,10.64,4.6,2.13,6.71,6.38,8.57,10.76,.33,.79,.38,1.66-.36,2.35-2.17-1.45-2.16-4.23-3.8-6.1-2.06-2.36-4.3-4.36-7.02-5.86-4.47-2.48-7.07-6.61-9.34-10.94-3.21-6.14-4.25-12.8-3.51-19.59,.9-8.2,5.5-13.98,12.66-18,6.94-3.9,14.67-5.39,22.14-7.64,2.75-.83,5.81,.24,8.63-.76,.72,.8,2.49,.64,2.19,2.38Z"/>
      <path class="cls-27" d="M190.51,75.84c0-.95,0-1.9,0-2.84,.54,.2,1.07,.39,1.61,.59-.32,1.88,.53,3.52,1.27,5.1,1.82,3.88,2.73,7.93,3.39,12.15,.41,2.66,1.09,5.24,1.03,7.98-.07,3.36-1.28,5.88-4.38,7.49-3.01,1.56-5.38,3.97-7.82,6.28-1.41,1.34-1.68,3.19-1.85,4.89-.31,3.24-.99,6.48-.67,9.77-1.44-.05-1.26-1.22-1.28-2.06-.07-2.53-.2-5.05-.54-7.57-.34-2.45,.6-4.55,2.31-6.4,2.7-2.93,5.9-5.26,9.2-7.39,2.35-1.52,3.5-3.27,3.08-6.02-.83-6.6-2.36-13.04-4.81-19.23-.35-.89-.5-1.8-.54-2.74Z"/>
      <path class="cls-34" d="M168.4,139.12c-.95-5.21-3.3-9.75-8.09-12.12-5.54-2.75-8.59-7.09-10.89-12.59-1.56-3.73-2.51-7.6-3.88-11.35-.63-1.71,.12-3.16,.32-4.68,.53-3.97,1.18-7.93,3.71-11.29,3.33-4.42,7.8-7.46,12.84-9.22,7.2-2.51,14.66-4.27,22.01-6.36,.59-.17,1.11-.18,1.5,.37-.21,1.11-1.13,1.51-2.01,1.73-5.8,1.48-11.48,3.39-17.27,4.92-6.14,1.62-12.05,4.36-15.57,10.26-1.68,2.82-2.37,6.05-3.45,9.12-.06,.73-.11,1.46-.17,2.19-.31,.56,.12,.99,.27,1.47,2.44,4.19,1.95,9.33,4.46,13.54,.95,1.6,1.75,3.32,2.65,4.97,.72,1.32,2.03,1.9,3.44,2.23,7.38,3.62,11.08,9.96,12.99,17.62,.2,.81,.26,1.68,.83,2.36,.05,1.53,1.16,2.69,1.41,4.15-2.16-.03-2.86-1.72-3.59-3.28-.61-1.3-1.01-2.7-1.51-4.05Z"/>
      <path class="cls-143" d="M196.64,97.86c.53,3.22-.98,5.09-3.68,6.78-3.46,2.16-6.74,4.68-9.49,7.78-.73,.83-1.27,1.79-1.29,2.73-.09,4.05,.07,8.1,.91,12.09-.11,1.6,.14,3.14,.67,4.67,.71,2.09,.8,4.22-.2,6.25-.95,1.93,.13,4.3-1.5,6.14-.73,.82-1.15,1.89-2.37,2.12-.83-1.43,.9-1.82,1.13-2.82h0c.93-2.59,1.09-5.35,.77-7.99-.35-2.81-.38-5.6-.41-8.41-.03-2.81-.13-5.56-.84-8.35-1.06-4.14,.12-7.75,3.6-10.51,2.35-1.86,4.8-3.61,7.18-5.43,1.78-1.36,3.83-2.39,4.36-4.89,.09-.45,.72-.51,1.18-.17Z"/>
      <path class="cls-12" d="M173.49,146.45c-.77-1.23-1.84-2.33-1.73-3.94-.48-1-.85-1.99,.11-2.94,.22,.71,.47,1.41,.64,2.13,1.05,4.56,1.47,4.82,6.08,3.71,.25,.59-.28,.75-.58,1.04-.17,.02-.35,.05-.52,.07-1.16,.67-2.33,.66-3.5,.01-.16-.04-.33-.07-.5-.09Z"/>
      <path class="cls-86" d="M173.99,146.53c1.17,0,2.33,0,3.5-.01-1.16,1.64-2.33,1.56-3.5,.01Z"/>
      <path class="cls-86" d="M178,146.45c.19-.35,.39-.69,.58-1.04,.74-.6,1.49-1.19,2.23-1.79,.17,1.16-1.21,1.7-1.13,2.82-.56,0-1.12,0-1.68,.01Z"/>
      <path class="cls-86" d="M196.64,97.86c-2.25,5.75-8.22,7.44-12.32,11.17-3.03,2.76-4.55,6.65-3.03,10.53,.5,1.27,.78,2.51,.66,3.83-.55,5.97,1.08,11.93,.05,17.9-.16,.95-.12,1.89-1.18,2.33-.02-1.66-.03-3.33-.05-4.99-.62-2.63,.08-5.44-1.09-7.99-.05-.16-.06-.33-.03-.5-.63-5.06-.7-10.17-1.68-15.23-.56-2.9,.1-5.99,2.86-8.02,3.72-2.26,7.43-4.55,11.17-6.78,1.74-1.04,2.93-2.3,2.4-4.52-.77-4.14-2.37-8.12-2.3-12.41h0c-.21-.94-.91-1.54-1.51-2.25-.83-.99-1.69-2.09-.79-3.52,.24-.53,.48-1.05,.72-1.58,3.47,6.94,5.21,14.36,6.13,22.01Z"/>
      <path class="cls-130" d="M147.62,97.92c-1.81-1.98,.51-3.42,.87-4.99,2.11-8.98,9.64-12.82,17.23-15.02,6.01-1.74,12.02-3.86,18.24-4.97,.69-.12,1.3-.69,1.95-1.05,.77,.01,1.54,.02,2.31,.03-2.93,1.66-5.63,3.77-9.02,4.54-6.98,3.03-14.56,4.62-21.09,8.7-3.27,2.05-5.9,4.8-7.78,8.21-1.04,1.44-1.22,3.38-2.71,4.56Z"/>
      <path class="cls-128" d="M192.69,92.22c-.16,.23-.26,.56-.48,.68-5.89,3.17-11.72,6.49-18.1,8.63-.83,.28-1.81,.63-2.32-.2-.62-.98,.59-1.39,1.09-1.97,1.25-1.45,2.91-2.31,4.65-3.04,4.39-1.84,8.19-4.75,12.41-6.89,.8,1.05,1.36,2.34,2.76,2.79Z"/>
      <path class="cls-19" d="M185.37,84.35c-4.54,3.71-9.94,5.72-15.31,7.77-.63,.24-1.35,.13-1.79-.46-.65-.87,.14-1.35,.61-1.88,1-1.14,2.2-1.9,3.64-2.5,3.95-1.62,7.82-3.46,11.72-5.21,.36,.77,.78,1.51,1.14,2.27Z"/>
      <path class="cls-95" d="M171.87,139.57c-.04,.98-.07,1.96-.11,2.94-1.63-1.34-1.38-3.48-2.14-5.2-.39-.89-.8-1.88-1.03-2.83-1.38-5.79-6.41-8.27-10.37-11.73-.33-.39-.33-.81-.1-1.25,3.16-.96,8.22,1.39,10.3,4.84,.52,.87,.97,1.79,1.51,2.65,.13,2.91,1.1,5.65,1.8,8.44,.05,.71,.09,1.43,.14,2.14Z"/>
      <path class="cls-63" d="M150.33,93.36c0-.83,.04-1.58,.63-2.35,3.51-4.64,7.94-7.99,13.4-9.97,4.29-1.56,8.58-3.08,12.89-4.56,.59-.2,1.3-.03,1.95-.03-3.25,2.68-7.32,3.76-11.1,5.25-6.79,2.68-13.14,5.8-17.78,11.66Z"/>
      <path class="cls-46" d="M180.82,106.9c-1.91,3.62-2.79,7.24-1.46,11.41,1.22,3.82,.36,7.88,.28,11.84-1.28-6.49-2.81-12.95-3.74-19.5-.46-3.24,2.81-3.07,4.92-3.74Z"/>
      <path class="cls-14" d="M169.51,128.97c-1.99-2.65-3.86-5.38-7.26-6.55-1.34-.46-2.59-.96-4.02-.79-1.2,.74-2.01,.36-2.52-.88-.03-.32,.06-.6,.26-.85,1.77,1.89,3.13,.4,4.55-.55,3.78-1.3,7.54,1.07,8.96,5.64,.04,.7,.07,1.39,.11,2.09,.24,.64,.42,1.27-.08,1.88Z"/>
      <path class="cls-137" d="M151.48,110.85c1,.65,1.74,.69,2.58-.46,.98-1.35,2.14-2.64,3.81-3.26,.85-.31,1.69-.36,2.29,.45,.56,.76,.22,1.45-.38,1.99-1.79,1.6-2.6,3.83-3.84,5.79-.98-1.44-2.36-2.19-4.07-2.4-.39-.21-.66-.51-.78-.94-.06-.46,.04-.86,.4-1.18Z"/>
      <path class="cls-41" d="M151.44,98.97c1.53-1.54,2.65-3.64,5.38-3.38,1.64,.16,1.95,.76,1.2,2.16-1.29,2.43-3.55,3.92-5.45,5.76-1.12-1.33-.71-3.04-1.13-4.54Z"/>
      <path class="cls-2" d="M169.48,125c-1.71-3.9-4.98-5.33-8.96-5.64,1.18-1.92,3.24-2.49,5.14-3.28,.61-.25,1.32-.12,1.52,.73,.66,2.76,2.27,5.25,2.3,8.19Z"/>
      <path class="cls-127" d="M192.69,92.22c-2.89,1.01-2.57-1.14-2.76-2.79,2.06-1.61,1.97-3.97,2.16-6.23,1.15,4.07,2.38,8.12,2.3,12.41-1.28-.77,.32-2.99-1.7-3.39Z"/>
      <path class="cls-1" d="M151.44,98.97c2.27,1.04,.67,3.05,1.13,4.54-1.91,2.22-2.29,4.66-1.09,7.34,0,.38,0,.75,0,1.13-1.28-.29-1.62-1.25-1.69-2.39-.04-.65-.03-1.3-.02-1.95,.05-2.57,.17-5.16-2.77-6.45-.02-.43-.01-.86,.45-1.09,1.83,1.4,2.71-.6,3.99-1.13Z"/>
      <path class="cls-59" d="M152.02,112.59c2.13-.25,3.89,.04,3.92,2.77,.01,1.51,.03,3.03,.04,4.54,0,.2-.02,.39-.03,.59-.32,.22-.83,.4-.98,.07-1.2-2.57-3.6-4.72-2.94-7.97Z"/>
      <path class="cls-119" d="M185.37,84.35c-1.48-.2-1.95-.92-1.14-2.27,2.08-.36,2.77-2.59,4.52-3.38,.48,1.1-.1,2.55,1.14,3.39-1.51,.76-3.02,1.51-4.53,2.27Z"/>
      <path class="cls-127" d="M189.9,82.08c-3.54-.07-1.38-2.05-1.14-3.39,.1-.63,.34-1.13,1.04-1.27-.19,2.31,2.6,3.44,2.3,5.79-.52-.79-1.16-1.35-2.2-1.13Z"/>
      <path class="cls-12" d="M169.51,128.97c.03-.62,.05-1.25,.08-1.87,1.61,3.26,1.8,6.81,2.14,10.33-1.6-2.59-2.35-5.41-2.21-8.46Z"/>
      <path class="cls-46" d="M179.67,130.64c1.18,.13,1.15,1.01,1.14,1.86-.01,2.04-.03,4.09-.05,6.13-.86-2.6-1.1-5.27-1.09-7.99Z"/>
      <path class="cls-134" d="M152.02,112.59c.94,2.82,1.69,5.73,3.92,7.9,.46,.99,1.32,1.17,2.29,1.14,0,.37,0,.74,0,1.11-2.37,.22-3.47-1.32-4.53-3.09-2.84-4.75-4.5-9.92-5.63-15.28-.23-1.1-1.17-1.96-1.07-3.17,3.63,.82,3.54,.81,3.37,4.93-.08,1.99-.71,4.18,1.1,5.85,.18,.21,.36,.41,.55,.62Z"/>
    </g>
  </g>
</svg>