<?xml version="1.0" encoding="UTF-8"?>
<svg id="Layer_2" data-name="Layer 2" xmlns="http://www.w3.org/2000/svg" viewBox="0 0 240 270">
  <defs>
    <style>
      .cls-1 {
        fill: #4a5162;
      }

      .cls-2 {
        fill: #3a3d4b;
      }

      .cls-3 {
        fill: #d5e3ef;
      }

      .cls-4 {
        fill: #0d4157;
      }

      .cls-5 {
        fill: #4b5e81;
      }

      .cls-6 {
        fill: #5e7eaa;
      }

      .cls-7 {
        fill: #484448;
      }

      .cls-8 {
        fill: #f82459;
      }

      .cls-9 {
        fill: #242b35;
      }

      .cls-10 {
        fill: #2f292c;
      }

      .cls-11 {
        fill: #81a4b6;
      }

      .cls-12 {
        fill: #711628;
      }

      .cls-13 {
        fill: #a7b2bb;
      }

      .cls-14 {
        fill: #cebdb0;
      }

      .cls-15 {
        fill: #323744;
      }

      .cls-16 {
        fill: #464651;
      }

      .cls-17 {
        fill: #8b8d94;
      }

      .cls-18 {
        fill: #b5b6ba;
      }

      .cls-19 {
        fill: #70181f;
      }

      .cls-20 {
        fill: #431723;
      }

      .cls-21 {
        fill: #858a95;
      }

      .cls-22 {
        fill: #1e222d;
      }

      .cls-23 {
        fill: #9f1125;
      }

      .cls-24 {
        fill: #993917;
      }

      .cls-25 {
        fill: #eff0f4;
      }

      .cls-26 {
        fill: #695756;
      }

      .cls-27 {
        fill: #342f35;
      }

      .cls-28 {
        fill: #eeedf0;
      }

      .cls-29 {
        fill: #af0c20;
      }

      .cls-30 {
        fill: #50618b;
      }

      .cls-31 {
        fill: #f41a54;
      }

      .cls-32 {
        fill: #594f52;
      }

      .cls-33 {
        fill: #cc0e28;
      }

      .cls-34 {
        fill: #48484c;
      }

      .cls-35 {
        fill: #555256;
      }

      .cls-36 {
        fill: #5f565f;
      }

      .cls-37 {
        fill: #333440;
      }

      .cls-38 {
        fill: #530b13;
      }

      .cls-39 {
        fill: #8a726f;
      }

      .cls-40 {
        fill: #3f3b43;
      }

      .cls-41 {
        fill: #210d14;
      }

      .cls-42 {
        fill: #cbb6af;
      }

      .cls-43 {
        fill: #747075;
      }

      .cls-44 {
        fill: #e1cac0;
      }

      .cls-45 {
        fill: #160c11;
      }

      .cls-46 {
        fill: #8b7979;
      }

      .cls-47 {
        fill: #192d36;
      }

      .cls-48 {
        fill: #30292d;
      }

      .cls-49 {
        fill: #dfd3cf;
      }

      .cls-50 {
        fill: #5d1f29;
      }

      .cls-51 {
        fill: #193d49;
      }

      .cls-52 {
        fill: #100e14;
      }

      .cls-53 {
        fill: #2d3f49;
      }

      .cls-54 {
        fill: #4f0d17;
      }

      .cls-55 {
        fill: #627088;
      }

      .cls-56 {
        fill: #b70c27;
      }

      .cls-57 {
        fill: #202129;
      }

      .cls-58 {
        fill: #383b48;
      }

      .cls-59 {
        fill: #9ac6dc;
      }

      .cls-60 {
        fill: #6c0b16;
      }

      .cls-61 {
        fill: #d48a4c;
      }

      .cls-62 {
        fill: #bc6014;
      }

      .cls-63 {
        fill: #7f8487;
      }

      .cls-64 {
        fill: #83152a;
      }

      .cls-65 {
        fill: #f4f5f7;
      }

      .cls-66 {
        fill: #c8cbd1;
      }

      .cls-67 {
        fill: #531320;
      }

      .cls-68 {
        fill: #ea0314;
      }

      .cls-69 {
        fill: #251f23;
      }

      .cls-70 {
        fill: #88b3cc;
      }

      .cls-71 {
        fill: #261b24;
      }

      .cls-72 {
        fill: #c6d3df;
      }

      .cls-73 {
        fill: #5e1628;
      }

      .cls-74 {
        fill: #d5d8da;
      }

      .cls-75 {
        fill: #3f383e;
      }

      .cls-76 {
        fill: #e0c8b0;
      }

      .cls-77 {
        fill: #241a19;
      }

      .cls-78 {
        fill: #5f1524;
      }

      .cls-79 {
        fill: #2a2c38;
      }

      .cls-80 {
        fill: #5e6578;
      }

      .cls-81 {
        fill: #22131a;
      }

      .cls-82 {
        fill: #494652;
      }

      .cls-83 {
        fill: #f8154c;
      }

      .cls-84 {
        fill: #d5051c;
      }

      .cls-85 {
        fill: #c4cccf;
      }

      .cls-86 {
        fill: #a08581;
      }

      .cls-87 {
        fill: #969499;
      }

      .cls-88 {
        fill: #834948;
      }

      .cls-89 {
        fill: #080809;
      }

      .cls-90 {
        fill: #c8d9e9;
      }

      .cls-91 {
        fill: #b6e2f2;
      }

      .cls-92 {
        fill: #4e5460;
      }

      .cls-93 {
        fill: #eff8fb;
      }

      .cls-94 {
        fill: #5ba4d3;
      }

      .cls-95 {
        fill: #0e0d11;
      }

      .cls-96 {
        fill: #252936;
      }

      .cls-97 {
        fill: #6b646b;
      }

      .cls-98 {
        fill: #740c17;
      }

      .cls-99 {
        fill: #9e8f8c;
      }

      .cls-100 {
        fill: #2c2b35;
      }

      .cls-101 {
        fill: #6b6c75;
      }

      .cls-102 {
        fill: #161519;
      }

      .cls-103 {
        fill: #3e0e17;
      }

      .cls-104 {
        fill: #3d363a;
      }

      .cls-105 {
        fill: #eca78f;
      }

      .cls-106 {
        fill: #41404a;
      }

      .cls-107 {
        fill: #716f73;
      }

      .cls-108 {
        fill: #272d3a;
      }

      .cls-109 {
        fill: #878d9a;
      }

      .cls-110 {
        fill: #e55641;
      }

      .cls-111 {
        fill: #420c19;
      }

      .cls-112 {
        fill: #441826;
      }

      .cls-113 {
        fill: #1e080d;
      }

      .cls-114 {
        fill: #4d798a;
      }

      .cls-115 {
        fill: #9a8d91;
      }

      .cls-116 {
        fill: #e0a984;
      }

      .cls-117 {
        fill: #afb2b4;
      }

      .cls-118 {
        fill: #5d0817;
      }

      .cls-119 {
        fill: #171317;
      }

      .cls-120 {
        fill: #ced3dc;
      }

      .cls-121 {
        fill: #393f4f;
      }

      .cls-122 {
        fill: #880c1a;
      }

      .cls-123 {
        fill: #44070b;
      }

      .cls-124 {
        fill: #9e2d23;
      }

      .cls-125 {
        fill: #211d22;
      }

      .cls-126 {
        fill: #f81850;
      }

      .cls-127 {
        fill: #d3dfe3;
      }

      .cls-128 {
        fill: #686e80;
      }

      .cls-129 {
        fill: #b59f93;
      }

      .cls-130 {
        fill: #232734;
      }

      .cls-131 {
        fill: #979ba6;
      }

      .cls-132 {
        fill: #e2f1f7;
      }

      .cls-133 {
        fill: #a51028;
      }

      .cls-134 {
        fill: #131117;
      }

      .cls-135 {
        fill: #130f15;
      }

      .cls-136 {
        fill: #2a2b2e;
      }

      .cls-137 {
        fill: #a5b3c3;
      }

      .cls-138 {
        fill: #302224;
      }

      .cls-139 {
        fill: #566a70;
      }

      .cls-140 {
        fill: #656b78;
      }

      .cls-141 {
        fill: #463b3d;
      }

      .cls-142 {
        fill: #90a4be;
      }

      .cls-143 {
        fill: #7c2313;
      }

      .cls-144 {
        fill: #8e8184;
      }

      .cls-145 {
        fill: #1b0b11;
      }

      .cls-146 {
        fill: #49333c;
      }

      .cls-147 {
        fill: #8c95a6;
      }

      .cls-148 {
        fill: #280306;
      }

      .cls-149 {
        fill: #f7f9fa;
      }

      .cls-150 {
        fill: #28282e;
      }

      .cls-151 {
        fill: #eb9919;
      }

      .cls-152 {
        fill: #b89c97;
      }

      .cls-153 {
        fill: #e8f5fa;
      }

      .cls-154 {
        fill: #97acb9;
      }

      .cls-155 {
        fill: #283439;
      }

      .cls-156 {
        fill: #98a4ac;
      }

      .cls-157 {
        fill: #9db7d5;
      }

      .cls-158 {
        fill: #ad5771;
      }

      .cls-159 {
        fill: #f3f6f7;
      }

      .cls-160 {
        fill: #818797;
      }

      .cls-161 {
        fill: #bf0c20;
      }

      .cls-162 {
        fill: #6e1722;
      }

      .cls-163 {
        fill: #7f97ab;
      }

      .cls-164 {
        fill: #3c080e;
      }

      .cls-165 {
        fill: #b2c0cf;
      }

      .cls-166 {
        fill: #3d3c40;
      }

      .cls-167 {
        fill: #707a99;
      }

      .cls-168 {
        fill: #dd040d;
      }

      .cls-169 {
        fill: #8c9db1;
      }

      .cls-170 {
        fill: #d64423;
      }

      .cls-171 {
        fill: #e10310;
      }

      .cls-172 {
        fill: #6f0a13;
      }

      .cls-173 {
        fill: #3c060b;
      }

      .cls-174 {
        fill: #ab9a96;
      }

      .cls-175 {
        fill: #105667;
      }

      .cls-176 {
        fill: #2c282d;
      }

      .cls-177 {
        fill: #f90208;
      }

      .cls-178 {
        fill: #4d4442;
      }

      .cls-179 {
        fill: #1c1c23;
      }

      .cls-180 {
        fill: #333444;
      }
    </style>
  </defs>
  <g id="Layer_2-2" data-name="Layer 2">
    <g>
      <path class="cls-89" d="M239.96,66.4c0,67.06,0,134.12,.04,201.18,0,1.97-.4,2.42-2.15,2.42-79.09-.06-158.18-.05-237.27-.05-.45-1-.22-2.07-.22-3.1-.01-57.5,0-115-.01-172.5,.45-1.77,1.81-1.39,2.89-1.41,4.12-.09,8.25-.05,12.38-.03,1.66,0,3.05-.22,3.67-2.38,.45-1.57,1.8-1.82,3.09-1.8,1.93,.03,3.54-.18,4.73-2.43,1.02-1.92,3.33-1.23,3.94,.93,.12,.42,.18,.86,.18,1.29,0,1.73,.51,2.85,2.29,2.8,1.58-.05,3.18,.24,3.41-2.37,.13-1.54,1.98-2.79,.39-4.68-.49-.58,.29-1.42,1.06-1.61,1.18-.29,2.2,.08,2.87,1.2,.53,.88,1.16,1.38,2.1,1.38,2.94,1.14,5,3.75,7.47,5.68,.69,.54,.83,1.45,.5,2.37-4.25,5.22-8.73,10.2-13.3,15.05-4.29,4.54-7.66,9.63-9.04,16.17-2.59,12.28-1.42,23.73,5.89,33.83,2.26,3.12,5.03,5.68,7.45,8.62-.22,1.06-.81,2.35,1.04,2.14,2.87,1.73,4.97,4.51,7.22,7.02,7.69,8.57,15.42,17.1,23.22,25.54,4.76,5.16,9.19,10.71,14.56,15.14,5.47,4.51,11.33,7.88,18.04,9.46,3.13,.74,6.34,.81,9.43,1.74,.9,.27,1.87,.26,2.79,.12,6.54-1.03,13.13-1.85,19.23-5.02,3.82-1.99,7.44-4.31,10.64-7.49,10.39-10.35,19.84-21.79,30-32.4,4.91-5.13,9.78-10.29,14.5-15.63,6.91-6.95,13.41-14.28,14.96-25.19,1.67-11.73-.16-22.68-7.73-31.41-14.06-16.23-28.61-31.91-42.82-47.96-4.61-5.45-9.49-10.53-15.25-14.46-3.43-2.34-7.15-3.76-10.91-5.17-1.24-.46-2.57-.7-3.64-1.66-.17-.37-.17-.75-.01-1.13,1.65-1.24,3.51-1,5.18-.45,6.87,2.23,12.88,6.1,18.41,11.36,6.2,5.9,11.51,12.81,17.63,18.75,4.82,4.68,9.15,9.96,14.35,14.38,.26-.88-.01-1.98,.42-2.89,.41-.71,.4-1.47,.31-2.28-.17-1.38,.42-2.36,1.47-3.01,2.52-1.56,4.22-4.04,5.73-6.65,.76-1.32,1.62-2.05,2.98-2.11,1.87-.09,3.74-.07,5.6-.04,1.9,.02,2.8-.93,3.04-3.07,.51-4.52,.81-4.68,4.8-4.84,3.42-.14,6.83-.45,10.23-.83,1.63-.18,3.26-.27,4.89-.14,2.19,.17,3.01,.95,3.04,3.4,.02,2.37,.55,4.05,2.76,4.74,.76,.24,1.12,1.15,1.59,1.86,1.4,2.12,3.63,2.1,4.97-.09,1.24-2.02,2.79-2.96,4.97-2.28Z"/>
      <path class="cls-135" d="M239.96,66.4c-1.95,.8-4.23,.82-4.84,4.01-.29,1.49-5.1,.99-5.53-.58-.44-1.62-1.22-2.64-2.68-2.78-1.69-.16-1.96-1.26-1.92-2.87,.12-5.08,.12-4.71-4.21-4.59-5.18,.14-10.32,1.1-15.51,1.03-1.22-.02-1.62,.89-1.73,2.01-.1,1.04,.01,2.11-.13,3.14-.24,1.77-1.07,2.8-2.82,2.74-2.25-.07-4.51-.02-6.76-.01-.71,0-1.66-.06-1.79,.83-.31,2.12-1.89,2.96-2.88,4.38-1.18,1.7-2.17,3.1-4.05,3.76-.8,.28-.85,1.32-.5,2.27,.36,1,.2,1.89-.75,2.43-1.31-2.46-.98-5.28-1.1-7.9-.14-3.37-.66-6.62-1.37-9.84-.63-2.87-.8-5.71-.3-8.59,.32-1.83,.22-3.48-1.12-4.81-.29-.29-.66-.68-.64-1.07,.28-5.19-3.87-8.28-4.83-13.01-.57-2.83-2.34-5.4-2.78-8.49-.29-1.99-2.42-1.64-3.48-2.73-.99-1.02-1.03-2.34-.76-3.64,.81-3.89,.39-7.43-2.08-10.48-.31-.38-.54-.87-.67-1.37-.59-2.1-1.8-2.97-3.79-3.08-2.37-.12-4.08-3.89-3.04-6.3,.15-.34,.45-.45,.78-.47,26.26,0,52.51,0,78.76,.01,.84,0,1.71-.24,2.52,.25V66.4Z"/>
      <path class="cls-89" d="M239.96,.66c-26.42,0-52.84,0-79.26,0-.85,0-1.71,.05-2.56,.08-.83,.81-1.84,.87-2.86,.87-15.33,.04-30.65,.01-45.98,.02-.55,0-1.08-.14-1.63-.15-1.08,.16-2.17,.16-3.26,.16-32.78,0-65.56,0-98.34,0-4.95,0-4.61-.4-4.61,5.07-.01,27.33,0,54.66-.02,81.98,0,1.72,.3,3.54-.78,5.06-.02,.96-.07,1.92-.07,2.88,0,57.77,0,115.54,0,173.31-.97-.47-.44-1.42-.44-2.1-.04-10.86-.03-21.73-.03-32.59C.11,157.62,.12,79.99,.07,2.36,.07,.47,.41,.08,2.1,.08c78.66,.06,157.32,.05,235.99,.08,.61,0,1.45-.59,1.87,.49Z"/>
      <path class="cls-52" d="M.66,93.76c-.03-8.75-.07-17.51-.08-26.26-.01-21.54,0-43.08-.02-64.61,0-1.51,.07-2.28,1.79-2.28,34.87,.07,69.73,.06,104.6,.06,.23,0,.46,.05,.69,.08,1.39,1.53,1.31,3.29,.46,5.02-.62,1.27-1.03,2.41-.62,3.92,.39,1.44-.36,2.25-1.66,2.52-2.3,.48-3.94,2.37-3.73,4.88,.24,2.75-.68,4.7-2.34,6.46-.68,.71-1.33,1.48-1.33,2.64-.52,2.33-.33,4.7-.3,7.05,.01,1.44-.49,2.13-1.8,2.02-.46-.04-.93-.04-1.4,.04-3.85,.64-4.47,.37-4.37,4.91,.04,1.6-.62,2.86-1.7,3.73,5.44-1.78,10.35-5.9,16.53-5.24,1.98,.21,3.87-1.32,5.95-.94,2.92,.08,5.83-.09,8.74,0,2.35-.45,4.51,.94,6.85,.85,1-.04,1.44,.9,.82,2.05,0,.31,0,.62,0,.92-.77,1.14-1.81,.79-2.78,.6-11.32-2.18-21.91,.26-31.95,6.28-.68,.41-1.33,.92-2.14,.97-2.98-1.68-4.64,1.28-6.43,2.72-4.37,3.54-8.47,7.53-11.96,12.21-1.16,1.56-2.6,3.04-2.17,5.44-.62,1.4-1.75,1.56-2.95,1.58-5.16,.09-10.27,.84-15.39,1.4-4.8,1.32-9.8,1.11-14.62,2.33-2.32,.59-2.39,.72-.9,2.71,1.38,2.8,4.23,3.73,6.03,6,.49,.62,1.39,.91,1.15,2.04-1.17,.4-2.14,.3-2.67-1.17-.27-.76-.69-1.41-1.52-1.41-.59,0-1.4-.32-1.68,.46-.39,1.09,.58,.91,1.08,1.17,.93,.49,1.54,1.28,.27,1.96-1.41,.75-1.7,1.91-1.58,3.41,.12,1.54-.57,2.03-1.82,1.91-.54-.05-1.09,0-1.63,0q-3.44,0-3.56-3.8c-.03-1.06,.07-2.22-1.2-2.45-1.17-.22-1.92,.21-2.12,1.7-.2,1.45-1.15,1.95-2.39,1.92-1.09-.03-2.18,0-3.27,0-.97,0-1.71,.35-1.75,1.59-.07,2.27-1.33,2.64-3.02,2.63-5.37-.04-10.73-.01-16.1-.01Z"/>
      <path class="cls-113" d="M127.75,40.63c-.02-.7-.15-1.8-.84-1.46-2.38,1.18-4.38-1.27-6.64-.65-.42-.58-1.04-.99-1.63-.87-2.38,.49-4.79,.24-7.17,.38-.21,.01-.38,.29-.54,.48-4.92,1.66-10.52-.15-15.02,3.22-2.49,1.86-5.71,1.43-7.89,3.85-.26,.28-.77,.41-1.06,.01-.41-.57,.05-1.09,.4-1.28,2.69-1.47,2.74-4.11,2.54-6.9-.09-1.18,.41-2.35,1.4-2.39,2-.08,3.93-1.32,6.04-.3,.32-3-.51-5.98,.5-8.81,.7-1.46,1.99-1.58,3.22-1.7,2.57-.24,5.13-.23,7.6,.85,1.6,.7,3.16,.6,4.74-.27,1.88-1.03,3.02-.33,3.61,2,.41,1.63,.15,3.32,.32,4.97,.07,.69,.11,1.48,.87,1.68,.69,.18,1.18-.32,1.59-.87,.82-1.06,.96-2.34,.96-3.69,0-1.44,.59-2.33,1.99-2.28,4.21,.16,8.38-.58,12.59-.5,3.43,.07,6.84,.28,10.25,.54,1.91,.14,3.65-.26,4.66-2.22,.95-1.86,2.37-2.15,3.78-1.35,2.91,1.67,5.89,1.2,8.91,.87,1.96-.22,3.91-.2,5.49,1.45,.83,.22,1.67,.39,2.48,.67,1.03,.36,1.64,1.01,1.77,2.4,.24,2.45,.41,4.86,2.25,6.87,.96,1.05,1.14,3.16,1.38,4.85,.18,1.27,.63,2.24,1.53,2.76,1.57,.91,1.99,2.29,1.82,4.11-.17,1.73,.04,3.19,1.61,4.21,.91,.59,1.07,1.87,.78,3.06-1.25,5.11,.24,9.92,1.04,14.87,.69,4.24,.54,8.66,.76,13,.05,.78,.05,1.57,.16,2.34,.08,.58,.53,1.24-.11,1.64-.69,.43-1.21-.18-1.55-.75-2.12-3.53-5.48-5.57-8.08-8.56-3.73-4.3-8.04-8-11.74-12.37-4.39-5.17-9.02-10.07-13.98-14.49-4.16-3.71-8.75-6.71-14.01-8.4-2.3-.74-4.5-.9-6.79-.95Z"/>
      <path class="cls-83" d="M193.25,168.1c-3.46,4.77-7.62,8.76-11.6,12.92-5.88,6.15-11.58,12.52-17.37,18.78-5.62,6.09-10.98,12.5-17.07,18-5.11,4.62-11.08,7.34-17.45,9.1-3.41,.94-6.9,1.59-10.33,1.71-8.87,.3-17.38-1.77-25.25-6.62-8.18-5.04-14.47-12.59-21-19.85-9.94-11.06-20.02-21.97-30.04-32.94,0-.99,.57-1.47,1.3-1.79,1.27-.39,2.21,.29,3.07,1.24,1.26,1.38,2.48,2.8,3.76,4.17,10.81,12.2,21.7,24.32,32.62,36.4,4.16,4.6,8.97,8.37,14.31,11.16,2.59,1.91,5.6,2.63,8.52,3.34,12.84,3.12,24.99,1,36.22-6.8,2.7-1.88,5.05-4.34,7.5-6.63,2.5-2.57,5.09-5.04,7.32-7.92,1.37-1.54,2.64-3.19,4.2-4.5,1.74-1.38,2.68-3.61,4.29-5.12,1.44-1.47,2.65-3.21,4.27-4.47,4.57-4.12,8.35-9.17,12.54-13.74,3.3-3.6,6.69-7.08,9.82-10.87,.64-.78,1.4-1.39,2.36-1.61,.72-.07,1.48-.07,1.81,.79,.37,.97-.49,1.38-.96,1.87-1.01,1.07-1.91,2.24-2.85,3.37Z"/>
      <path class="cls-31" d="M193.25,168.1c.26-1.82,1.83-2.47,2.66-3.77,.26-.4,.9-.67,.67-1.25-.27-.68-.95-.34-1.45-.41-.23-2.17,1.5-2.89,2.43-4.21,3.5-3.48,5.84-7.81,7.34-12.74,.34-1.07,.46-2.23,1.06-3.19,.94-1.33,.64-2.77,.29-4.21-.14-.65-.16-1.31-.16-1.98-.02-.54-.09-1.09-.03-1.63-.22-5.88-.93-11.62-3.98-16.64-1.49-3.32-3.72-5.98-6.11-8.48-.18-.14-.34-.31-.5-.48-6.1-6.91-12.03-14.01-18.48-20.52-2.48-2.15-4.47-4.84-6.57-7.42-2.2-2.02-4.29-4.18-5.91-6.83-.4-.65-.84-1.23-1.48-1.58-2.66-2.06-4.55-4.95-6.62-7.67-.27-.46-.44-.94-.34-1.5,.33-.79,.69-1.51,1.63-.89,2.16,1.3,3.51,3.58,5.19,5.45,12.81,14.24,25.63,28.46,38.31,42.86,4.79,5.44,7.01,12.37,7.75,19.92,1.38,14-3.38,25.15-12.63,34.15-1.03,1-1.55,2.66-3.07,3.02Z"/>
      <path class="cls-8" d="M157.71,62.71c-.74-.04-.99,.76-1.52,1.1-1.22,.2-1.78-.92-2.48-1.66-1.81-1.92-3.63-3.83-5.79-5.27-3.22-3.27-6.6-6.31-10.65-8.18-2.69-1.24-5.34-2.68-8.27-3.11-11.68-2.4-23.05-1.78-33.78,4.54-4.57,2.69-8.66,6.2-12.41,10.17-2.78,2.93-5.42,6.03-8.08,9.09-.86,.94-1.83,1.56-3.08,1.34-.63-.18-1.18-.46-1.18-1.35-.3-1.3,.4-2.19,1.1-2.99,5.05-5.8,10.24-11.44,16.02-16.34,.78-.66,1.64-1.37,2.76-1.03,3.62-1.93,7.12-4.12,10.95-5.58,7.61-2.89,15.33-3.42,23.22-2.24,1.08,.16,2.16,.25,3.24,.37,10.24,2.37,18.78,8.18,26.09,16.42,1.34,1.51,2.97,2.75,3.87,4.73Z"/>
      <path class="cls-126" d="M42.45,167.14c-6.09-4.65-10.94-10.53-13.32-18.48-3.81-12.75-3.12-25.2,4.41-35.95,5.08-7.25,11.45-13.32,17.55-19.57,.9-.6,1.67-.66,2.11,.64,.02,.74-.45,1.2-.78,1.73-1.59,1.79-3.01,3.75-4.65,5.48-.42,.37-.83,.74-1.23,1.14-2.83,3.84-6.7,6.56-9.13,10.82-5.33,6.68-6.99,14.83-7.03,23.45-.02,4.16,.78,8.29,2.22,12.19,2.54,7.01,7.2,12,12.39,16.49-.06,1.9-1.07,2.32-2.52,2.06Z"/>
      <path class="cls-127" d="M42.45,167.14c.97-.15,1.54-1.04,2.3-1.59,.01-.42,.17-.77,.39-1.09,.47-.62,1.03-1.08,1.68-1.43,.72-.3,1.4-.81,2.2-.77,5,.27,8.42-6.25,8.85-11,.27-3.02,.94-5.95,1.55-8.9,1.01-1,1.92-.86,2.74,.3,.21,.41,.32,.86,.33,1.33,.1,3.07,.22,6.14,.01,9.2-1.33,7.12-5.1,11.57-11.45,13.19-2.22,.75-4.53,.98-6.78,1.51-.37,.43-.74,.86-1.11,1.29-.91-.04-2.02,1.64-2.57,.33-.44-1.05,1.05-1.72,1.87-2.38Z"/>
      <path class="cls-146" d="M52.88,94.22c-.1-1.42-1.16-.8-1.79-1.07,.02-.95-.35-1.57-1.08-2.12-2.17-1.66-4.26-3.44-6.38-5.17-1.74-2.07-3.89-3.55-5.86-5.29-.65-.57-1.34-1.17-1.63-2.12,.99-.68,1.57,.21,2.23,.75,2.12,1.73,4.23,3.48,6.35,5.21,4.5,4.15,9.39,7.71,14.06,11.6,1.61,1.57,3.42,2.87,5.08,4.38,.69,.63,1.59,1.14,1.33,2.44-.41,.54-.92,.79-1.55,.71-3.66-2.47-6.53-6.18-10.35-8.4-.27-.16-.35-.56-.39-.92Z"/>
      <path class="cls-41" d="M168.42,25.38c-2.71-1.03-5.53-.87-8.24-.37-1.8,.34-3.27,.15-4.92-.64-1.64-.79-3.58-2.35-4.7,1.22-.57,1.82-2.9,2.33-4.22,2.11-4.68-.8-9.35-.7-14.03-.72-2.67-.01-5.45,1.02-7.92,.59-3.11-.54-3.26,.38-2.9,3.21,.12,.95-.63,2.14-1.4,2.93-.63,.65-1.38,1.33-2.28,.96-.99-.4-1.29-1.39-1.27-2.55,.02-1.66,.12-3.35-.07-4.98-.26-2.2-1.2-2.59-2.84-1.47-1.58,1.08-3.24,1.03-4.92,.3-3.61-1.58-7.23-1.47-10.86-.06-.17-1.8,1.15-2.56,2.03-3.57,1.27-1.45,1.99-2.89,1.44-5.1-.64-2.6,1.93-5.67,4.41-5.65,1.3,.01,1.79-.8,1.1-1.98-.8-1.38-.62-2.38,.35-3.45,1.47-1.63,.74-3.55,.48-5.4,16.83,0,33.66,0,50.49,0-.3,1.75,.61,3.19,.99,4.76,.36,1.48,1.55,1,2.35,.89,2.08-.29,3.17,.72,3.68,2.89,.17,.74,.46,1.54,.92,2.07,2.79,3.2,3.06,6.95,2.05,11-.27,1.07-.18,2.06,.29,3.02Z"/>
      <path class="cls-89" d="M90.34,49.01c-4.69,3.19-8.54,7.54-12.56,11.64-2.59,2.64-5.15,5.36-7.26,8.54-.1-.02-.21-.04-.31-.06-.89-.14-1.4-.13-.66-1.52,1.48-2.81,3.69-4.86,5.49-7.31,3.56-4.85,8.54-7.76,12.67-11.83,.8-.79,1.99-1.08,2.63,.55Z"/>
      <path class="cls-21" d="M44.46,84.97c-2.19-1.78-4.39-3.56-6.58-5.34-.55-.45-.97-1.17-1.76-1.18-.59-1-2.33-1.29-2.06-2.52,.33-1.52,2.04-1.23,3.18-1.53,3.74-.99,7.6-1.12,11.4-1.66,.97-.14,1.94-.38,2.9-.57,.42,.49,.43,1.03,.18,1.61-.34,.45-.79,.64-1.29,.72-4.04,1.02-8.25,.86-12.42,2.16,.49,.97,1.37,1.17,1.98,1.74,1.7,1.71,4.03,2.62,5.16,5.07-.13,.55-.34,1.06-.69,1.49Z"/>
      <path class="cls-101" d="M51.51,73.69c0-.51,.02-1.02,.03-1.53,4.96-.93,9.97-1.28,14.98-1.55,1.38-.08,2.84,.2,3.7-1.49,.11-.03,.22,0,.31,.06,.14,.66,.58,.88,1.12,.95-.09,2.15-1.86,1.42-2.82,2.1-.77,.12-1.51,.4-2.27,.61-4.21,.78-8.5,.63-12.7,1.52-.83,.18-1.72,.22-2.34-.68Z"/>
      <path class="cls-41" d="M110.92,38.52c.12-1.29,.69-1.44,1.78-1.22,1.67,.33,3.36,.39,5.03-.44,1.3-.65,2.24,.06,2.54,1.67-3.12,0-6.23,0-9.35,0Z"/>
      <path class="cls-89" d="M32.61,82.62c-1.04-.4-2-1.15-1.71-1.79,.43-.95,1.4-1.83,2.31-2.2,.96-.38,1.63,.65,2.24,1.93-1.76-.67-3.23-.92-2.85,2.06Z"/>
      <path class="cls-38" d="M162.32,198.26c-1.35,1.47-2.7,2.94-4.05,4.42-1.86,.83-3.8,1.45-4.85,3.74-.58,1.24-1.94,1.54-2.86,.77-1.78-1.48-3.39-.79-5.03,.03-1.39,.69-2.81,1.09-4.31,.96-5.6-.47-11.2,.38-16.79,0-6.53-.43-13.01-1.34-19.26-3.66-1.34-.5-2.68-.91-4.08-1.08-1.6-.2-3.03-.79-4.07-2.27-.79-1.12-1.93-1.44-3.09-1.65-2.04-.38-3.87-1.27-5.5-2.7-1.05-.92-2.22-1.63-3.5-2.06-1.15-.39-2.14-1.02-2.85-2.15-.77-1.23-1.97-1.72-3.17-2.07-3.05-.89-5.05-3.41-7.05-5.82-1.3-1.57-1.17-3.76-.95-5.76,.14-1.21,1.14-1.58,2.1-1.74,1.08-.18,2.18-.01,3.26-.12,3.02-.03,5.69,1.77,8.64,2.11,8.42,.98,16.76,2.66,25.24,3.3,6.31,.48,12.63,.72,18.87,.23,7.63-.61,15.31-1.88,22.46-5.26,4.14-1.96,8.17-4.3,11.55-7.8,1.3-1.35,2.18-2.97,2.82-4.77,.75-2.12,.14-4-1.22-5.52-2.03-2.28-3.82-4.85-6.15-6.8-.7-.58-1.29-1.31-1.01-2.45,.8-1.02,1.68-.77,2.43-.03,.59,.57,1.24,1.01,1.87,1.52,2.52,2.35,5.64,3.69,8.1,6.17,2.67,2.69,3.29,5.58,1.61,9.12-1.34,2.82-3.13,5.14-5.64,6.83-8.64,5.85-17.94,9.44-27.9,11.22-12.46,2.22-24.95,1.94-37.47,1.18-2.04-.12-4.05,.02-5.98,.82-.9,.37-1.75,1-1.96,2.09-.26,1.33,.87,1.75,1.59,2.3,5.36,4.14,11.5,6,17.7,7.84,10.63,3.16,21.39,3.01,32.2,2.09,5.86-.5,11.51-1.8,16.62-5.29,.6-.41,1.35-.9,1.95-.3,.85,.86,.17,1.73-.28,2.53Z"/>
      <path class="cls-60" d="M162.32,198.26c.04-.75,.07-1.51,.13-2.74-2.84,2.72-5.94,3.92-9.14,4.95-8.4,2.68-17.02,2.31-25.58,2.11-11.38-.27-22.18-3.53-32.42-9.1-1.23-.67-2.2-1.89-3.4-2.72-.99-.68-.72-1.76-.05-2.72,1.75-2.51,4.31-2.91,6.75-2.7,8.78,.76,17.58,.71,26.34,.34,8.49-.36,16.89-1.86,25.12-4.67,5.66-1.94,10.65-5.17,15.77-8.23,2.77-1.65,4.33-4.47,5.55-7.5,1.04-2.58,.15-4.82-1.8-6.73-2.53-2.49-5.73-3.83-8.18-6.41,.5-.65,1.16-.69,1.85-.61,3.88,2.03,7.78,4.01,11.33,6.73,3.57,2.74,3.79,6.37,.95,9.96-3.63,4.6-8.32,7.27-13.13,9.8-6.27,3.3-12.75,6.15-19.5,7.7-7.74,1.77-15.5,3.74-23.46,4.07-1.62,.07-3.24,.07-4.89,1.26,1.66,1.71,3.54,2.49,5.48,2.79,4.22,.67,8.47,1.44,12.72,1.59,9.44,.33,18.78-1.08,28.09-2.76,1.24-.22,2.4-.7,3.56-1.24,1.91-.9,2.16-.67,2.25,1.8-1.47,1.66-2.58,3.72-4.35,5.04Z"/>
      <path class="cls-122" d="M197.89,158.99c-.92,1.23-1.84,2.45-2.75,3.68-3.69,3.93-7.43,7.82-11.07,11.81-3.71,4.06-7.32,8.23-10.98,12.34-.71,.79-1.36,1.67-2.34,2.08-.28-.14-.57-.34-.89-.19-5.58,2.71-11.49,1.95-17.33,2.28-2.95,.17-5.71-.22-8.48-1.15-.86-.29-2.04-.21-2.04-1.66,0-1.31,.87-2.04,1.88-2.38,2.83-.95,5.56-2.22,8.32-3.39,3.76-1.59,7.53-3.13,11.24-4.89,3.81-1.79,7.41-4,11.16-5.88,3.08-1.54,5.85-3.65,8.47-6,2.37-2.12,2.08-4.83-.58-6.51-1.65-1.04-3.47-1.57-5.28-2.04-4.86-1.28-9.51-3.23-14.06-5.5-2-.51-3.6-2.18-5.66-2.52-.26-.35-.39-.77-.44-1.22-.06-1.12,.06-2.16,1.11-2.7,7.09,4.08,14.84,4.94,22.58,5.56,6.13,.5,12.22,1.31,18.32,2.06,1.63,.2,2,1.37,1.15,2.97-.64,1.21-1.8,1.94-2.34,3.24Z"/>
      <path class="cls-54" d="M76.32,177.91c-.39,0-.78-.05-1.17,0-1.3,.19-3.5-.66-3.58,1.16-.09,2.01-.34,4.31,1.75,6.32,2.49,2.4,4.99,4.27,8.1,5.19,.15,.04,.36,.1,.41,.22,1.6,3.9,5.93,3.28,8.15,6.22,.65,.86,1.84,1.18,2.95,1.42,1.97,.44,4.27,.19,5.25,3.03,.18,.52,1.17,.8,1.83,.96,6.93,1.7,13.77,4.1,20.85,4.73,5.16,.46,10.4,.63,15.57-.24,1.15-.19,2.15,.2,3.2,.42,3.18,.66,5.83-1.24,8.68-2.14,.86-.27,1.41-.74,1.98,.67,.62,1.53,2.01,1.53,2.6,0,1.09-2.79,2.84-3.7,5.37-3.22-2.01,3.04-4.69,5.3-7.13,7.85-.35-1.26-.86-1.51-1.82-.55-1.18,1.19-2.26,2.69-4.13,2.5-2.36-.65-4.45,1.05-6.84,.83-10.12-.95-20.39,.5-30.38-2.37-3.91-1.12-7.85-2.19-11.69-3.5-3.65-1.24-7.22-3.2-10.39-5.79-1.34-1.09-2.72-2-4.39-2.28-2.16-.37-3.89-1.78-5.46-3.34-.83-.82-1.44-.78-2.24-.29-.96,.17-1.63-.43-2.25-1.12-5.45-6.1-10.9-12.21-16.31-18.36-.44-.5-.81-1.06-1.01-1.74-.17-.98-.62-1.84-1.39-2.27-1.71-.97-1.59-3.25-2.67-4.75-.79-1.09,1.28-1.45,2.34-1.67,.22,0,.43,.04,.64,.1,2.71,.28,1.56,2.41,1.35,4.03,1.12,.11,1.41-.89,2-1.37,.46-.42,.98-.64,1.59-.53,.54,.13,1.22,.37,1.37,.88,.72,2.41,2.79,2.16,4.31,3.05,3.32,1.95,7.04,2.47,10.48,3.93,.86,.37,2.05,.44,2.07,1.98Z"/>
      <path class="cls-98" d="M163.28,151.09c5.64,2.41,11.38,4.48,17.2,6.25,2.3,.7,4.61,1.6,4.99,5.04,.14,1.24-.05,1.98-.78,2.75-2.34,2.46-4.98,4.48-7.8,6.11-3.31,1.91-6.48,4.44-9.95,5.6-3.59,1.19-6.59,3.73-10.28,4.6-4.47,1.06-8.44,3.91-12.9,5.13-.72,.2-1.33,.82-1.29,1.67,.05,1.04,.98,.48,1.47,.75,3.56,1.93,7.43,.98,11.13,1.44,2.18,.27,4.45-.39,6.68-.64,.54-.06,1.12-.41,1.59-.26,2.22,.74,4.02-.27,5.82-1.51,.88-.6,1.66-.79,1.58,.88-1.36,1.44-2.72,2.89-4.08,4.33-.42-1.25-.56-2.24-2.21-.92-1.96,1.57-4.6,1.4-6.96,1.8-8.67,1.47-17.42,2.95-26.15,2.02-5.44-.58-11.24-.04-16.3-3.42-.71-.47-1.83-.45-1.72-1.75,.11-1.27,1.24-1.12,1.99-1.43,2.91-1.17,6.01-.31,9-1.04,3.91-.96,7.9-1.5,11.84-2.36,3.62-.79,7.37-1.13,10.89-2.43,8.37-3.08,16.7-6.31,24.03-12.03,1.94-1.51,3.46-3.53,5.05-5.43,1.4-1.67,.72-5.2-1.1-6.7-3.65-3.02-7.94-4.76-11.77-7.42-.27-.35-.29-.7,0-1.05Z"/>
      <path class="cls-81" d="M145.52,212.1c2.37-.7,3.44-4.01,6.23-4.15,.07,1.11-.92,1.64-.61,2.58-6.14,6.88-13.44,11.59-21.82,13.83-6.81,1.82-13.75,2.36-20.74,.61-3.02-.76-5.93-1.82-8.87-2.83-.84-.29-1.57-.66-2.04-1.52,.34-1.22-.74-1.05-1.18-1.5-.57-.59-1.6-.93-.76-2.15,2.25-.82,4.29-.46,6.07,1.37,.34,.35,.66,.75,1.21,.62,3.86-.92,7.65,.2,11.48,.45,4.63,.3,9.27,.79,13.92-.29,1.83-.43,3.77,.33,5.66-.73,3.8-2.13,7.85-3.68,11.44-6.29Z"/>
      <path class="cls-45" d="M95.49,217.35c.96,1.49,2.61,1.64,3.92,2.5-.3,1.08-1.18,.47-1.74,.77-4.35-1.74-7.94-4.82-11.38-8.15-8.07-7.81-15.13-16.79-22.79-25.07-3.94-4.26-7.76-8.65-11.62-12.99-.32-.36-.57-.79-.85-1.19,.29-1.72,1.03-2.11,2.06-.98,.59,.64,1.04,1.45,1.71,2.02,.77,1.89,2.3,3.02,3.54,4.43,4.42,5.05,8.88,10.05,13.35,15.05,.53,.59,.92,1.45,1.81,1.55,1.11,.8,2.12,1.68,2.73,3.1,.47,1.11,1.39,1.87,2.24,2.62,3.85,3.45,7.52,7.15,11.16,10.88,1.29,1.33,2.88,2.02,4.28,3.11,.75,.59,1.63,1.09,1.59,2.36Z"/>
      <path class="cls-20" d="M54.81,174.25c-.9,.02-1.46-.37-1.94-1.34-.62-1.24-1.39-1.17-1.83,.31-1.53-.64-2.34-2.22-3.38-3.44-.99-1.15-2.01-1.83-3.4-1.87,2.09-1.4,4.44-1.8,6.79-2.15,.71-.15,1.5-.7,1.94,.49-.93,.18-2.02-.07-2.61,1.15,.61,.92,1.56,.22,2.35,.94-1.53,1.47-.81,2.54,.61,3.42,.87,.54,1.4,1.35,1.46,2.5Z"/>
      <path class="cls-33" d="M177.3,88c2.11,1.14,3.32,3.4,4.9,5.17,4.66,5.22,9.56,10.17,13.83,15.82-.07,1.76,.88,3.1,1.44,4.6,.4,1.07,1.33,2.38,.33,3.35-1.39,1.35-1.68,4.73-4.65,3.47-.57-.24-1.22-.13-1.84-.22-1.07-.22-1.79-1.03-2.46-1.88-2.4-3.03-5.65-4.92-8.18-7.7-3.03-3.33-6.67-5.89-9.32-9.69-1.3-1.85-3.26-2.93-4.92-4.33-1.5-1.27-2.98-2.51-4.23-4.06-1.88-2.34-4.26-4.05-6.26-6.22-.66-.72-1.59-1.22-1.21-2.54,.42-.51,.99-.63,1.49-.4,5.46,2.41,11.46,1.98,16.98,4.08,.67,.25,1.31,.54,1.88,1,.89,.71,1.58,.37,2.22-.43Z"/>
      <path class="cls-64" d="M148.33,56.37c2.29,1.16,3.87,3.31,5.65,5.17,.73,.76,1.48,1.51,2.22,2.26,.17,.36,.35,.71,.52,1.07-.14,1.8-.53,2.13-2.08,1.35-2.19-1.11-4.45-2.11-6.44-3.67-4.94-3.85-10.49-4.69-16.04-2.85-3.67,1.22-7.39,2.31-10.99,3.37-.22,1.27,1.38,1.17,.97,2.33-1.06,1.06-2.37,1.19-3.69,1.23-2.4,.07-4.81-.02-7.21,.08-1.63,.1-3.16-.63-4.78-.64-.31,0-.02,.6-.04,.25,0,0,.03,0,.08-.01,.62-.12,1.31-.58,1.7,.45-.53,.99-1.42,.91-2.25,.92-2.52,.01-5.05,.12-7.57,.15-.77-.12-1.55-.12-2.32-.21-.61-.07-1.37-.12-1.46-.98-.08-.79,.57-1.17,1.12-1.51,.41-.25,.86-.41,1.3-.57,5.16-1.85,10.1-4.13,14.51-7.81,2.24-1.87,5.14-2.5,7.56-4.05,3.7-2.36,7.77-2.73,11.81-3.33,1.08-.16,2.25-.2,3.2,.44,1.9,1.28,3.99,1.97,6.07,2.65,2.36,.78,4.3,2.39,6.46,3.57,.54,.3,1.03,.88,1.69,.33Z"/>
      <path class="cls-56" d="M177.3,88c-.03,.63,.58,1.41-.23,1.87-.7,.39-1.27-.07-1.94-.37-3.63-1.67-7.21-3.66-11.34-2.89-1.54-2.3-4.22,.48-5.88-1.7-.7-.91-1.9-1.1-3.01-1.15-1.51-.35-2.52-1.46-3.38-2.8-2.33-1.86-4.3-4.15-6.21-6.52-.5-.62-1.21-1.16-.9-2.21,.41-.75,1.32-.7,1.76-1.41,.75-.83,.73-1.75,.25-2.73-.69-.81-1.54-1.41-2.15-2.31-.21-.24-.42-.48-.64-.71-.92-.87-2.09-1-3.17-1.41-1.39-.71-3.08-.3-4.36-1.46,1.04-2.22,3.04-1.66,4.5-1.44,2.9,.43,5.83,1.26,8,3.83,.89,1.31,1.65,2.7,2.32,4.2,1.12,2.51,3.28,4.2,5.41,5.1,4.48,1.9,9.17,3.15,13.07,6.51,.36,.31,.86,.39,1.33,.25,2.27,2.36,4.11,5.2,6.57,7.34Z"/>
      <path class="cls-29" d="M197.89,158.99c-.15-1.81,1.51-2.29,2.07-3.58,.2-.45,.66-.81,.24-1.38-.31-.42-.65-.75-1.18-.64-3.12,.68-6.04-1.01-9.15-.92-2.9,.08-5.82-.64-8.74-.83-6.33-.41-12.6-1.42-18.67-3.41-1.39-.46-3.51-.76-4.24-2.95-.21-.18-.31-.42-.32-.71,.09-.84,.09-1.73,.93-2.16,.42-.08,.78,.04,1.05,.44,.31,.75,.74,1.22,1.53,1.39,1.3,.28,2.56,.69,3.9,.69,6.75,.04,13.5,.52,20.23,.48,5.64-.04,11.31-.21,16.97-.33,.98-.02,2.05-.27,2.83,.76-1.16,5.33-3.79,9.61-7.46,13.15Z"/>
      <path class="cls-23" d="M148.32,65.35c-3.6-3.26-7.52-4.93-12.14-3.09-.41,2.06-2.55,1.6-3.42,2.99-1.93,1.35-3.26,3.61-5.45,4.58-1.94-.11-2.57-1.94-3.51-3.37-.51-.55-1.24-.84-1.59-1.59-.73-.2-1.65,.3-2.18-.51-.43-.65,.03-1.81,.31-1.9,2.07-.67,4.17-1.31,6.3-1.52,.43-.04,.92,.27,1.46-.17,3.64-2.96,7.89-2.86,12.01-2.52,3.82,.31,7.1,2.53,10.28,4.89,1.53,1.13,3.3,1.85,4.97,2.75,.95,.52,1.27-.05,1.35-1.01,2.19,2.47,4.38,4.93,6.57,7.4,.45,.6,1.09,1.22,.46,2.03-.55,.71-1.25,.33-1.92,.01-4.87-2.29-9.59-4.83-13.5-8.95Z"/>
      <path class="cls-161" d="M191.31,119.53c.78,.03,1.61-.15,2.32,.12,1.6,.6,2.42,.22,2.39-1.79,0-.26-.03-.57,.08-.77,1.27-2.17,1.21-2.13,.07-4.71-.44-1.01-1.66-2.19-.14-3.39,0,0,0,0,0,0,2.15,2.83,4.48,5.49,6.51,8.44,3.29,5.19,4.08,11.15,4.18,17.32-1.29-.03-1.5-1.89-2.72-2.04-1.15-.39-2.05-1.28-2.9-2.12-2.9-2.87-6.1-5.34-8.81-8.45-.6-.68-1.59-1.3-.97-2.61Z"/>
      <path class="cls-84" d="M205.35,145.84c-5.14,0-10.35-.56-15.4,.18-3.7,.54-7.35,.13-10.95,.09-5.19-.06-10.41-.07-15.6-.31-1.2-.05-2.26-1.86-3.69,.12-.09-1.44-.14-2.39-.2-3.33-.5-1.42,.33-2.02,1.25-2.57,2.22-.44,4.46-.11,6.7-.24,1.7,.24,3.73-.55,4.75,1.89-2.4,1.51-4.98,.7-7.5,.67-.53,0-1.06-.21-1.61-.2,5.04,1.27,10.23-.11,15.21,.85,7.75,1.5,15.49,.52,23.22,.84,1.16,.05,2.54,.45,3.41-1,.3-.36,.66-.5,1.09-.37,.1,.09,.21,.19,.31,.28-.43,.99-.27,2.21-.97,3.09Z"/>
      <path class="cls-133" d="M148.32,65.35c2.1,.42,3.58,2.04,5.13,3.46,1.6,1.46,3.26,2.6,5.35,2.92,1.15,.17,2.25,.64,3.05,1.73,.34,.47,.84,1.02,1.39,.68,.81-.5-.07-1.23,.04-1.86,1.76,.31,1.82,2.43,2.9,3.48,1.59,1.55,3.04,3.27,4.55,4.91-.69,.95-1.52,.89-2.24,.17-3.49-3.5-8.07-4.13-12.14-6.11-2.48-1.21-5.37-2.75-6.25-6.33-.31-1.24-1.24-1.98-1.77-3.04Z"/>
      <path class="cls-168" d="M204.38,132.21c1.36,.17,1.67,1.55,2.33,2.54,0,.53,.01,1.07,.02,1.61-.39,.4-.83,.63-1.37,.6-1.66-.7-3.66-.91-3.97-3.52,.67-1.42,2.2-.19,3-1.22Z"/>
      <path class="cls-33" d="M202.53,117.43c-2.38-2.61-4.96-5.02-6.51-8.44,2.83,2.17,4.76,5.21,6.51,8.44Z"/>
      <path class="cls-158" d="M206.86,138.39c.36,1.54,1.14,3.14-.54,4.36-.05-.08-.09-.17-.13-.26-.33-.33-.42-.78-.49-1.24,0-.8-.56-1.46-.44-2.29,.24-.43,.59-.66,1.02-.77,.22,0,.42,.07,.59,.22Z"/>
      <path class="cls-161" d="M206.86,138.39c-.18,.05-.36,.1-.53,.14-1.63,.16-1.59-.81-1.11-2.08,.5-.04,1.01-.07,1.51-.11,.04,.68,.09,1.36,.13,2.04Z"/>
      <path class="cls-12" d="M148.33,56.37c-1.34,2.47-3.09,.08-3.51-.37-1.51-1.62-3.41-1.95-5.12-2.83-1.94-.99-4.15-1.17-5.94-2.74-.91-.8-2.31-.51-3.41-.23-1.73,.42-3.39,.6-5.18,.64-1.91,.04-3.76,1.75-5.69,2.57-5.22,2.23-9.64,6.12-14.57,8.86-2.73,1.52-5.72,3.1-8.93,3.53-.35,.05-.69,.31-1.41,.66,1.32,.73,2.4,.29,3.38,.53-.73,1.81-2.34,1.39-3.6,1.68-1.27,.29-2.62,.09-3.93,.09-2.47-.2-4.87,.33-7.27,.82-1.21,.25-2.42,.44-3.62-.08-1.06-.93-.2-1.24,.43-1.57,2.87-1.46,5.48-3.61,8.71-4.1,.38-.06,.76-.3,1-.64,2.56-3.62,6.46-5.05,9.8-7.3,3.06-2.06,5.91-4.46,9-6.47,1.62-1.05,3.08-2.31,5.04-2.4,.92-.04,1.5-.8,2.11-1.46,4.05-.83,8.11-.77,12.15,0,.76,.14,1.32,.51,1.37-.73,4.42,.96,8.47,2.96,12.34,5.48,2.54,1.66,4.7,3.84,6.84,6.06Z"/>
      <path class="cls-112" d="M129.15,44.83c.18,.97,1.3,.81,1.87,2.32-5.31-1.71-10.38-1.23-15.43-1.26-.6,.68-1.37,.74-2.16,.78-7.93,.36-14.68,3.76-21.2,8.86-3.23,2.53-5.67,6.1-9.27,8.04-2.33,1.25-3.05,4.36-5.08,6.01-1.23,.36-2.44,.56-3.53-.44,2.35-3.93,5.63-6.88,8.65-10.05,6.19-6.49,13.18-11.65,21.49-13.92,8.15-2.22,16.41-2.42,24.64-.33Z"/>
      <path class="cls-139" d="M74.36,69.13c1.28-.05,2.57-.1,3.85-.16,.31-.22,.64-.28,.97-.05,3.77,.42,7.4-1.26,11.17-.88-1.36,1.95-3.25,.93-4.66,1.23,1.21,.61,2.88-.9,4.3,.4-.48,1.39-1.6,1.21-2.56,1.26-2.87,.14-5.71,.59-8.57,.88-.42,.05-.85,.06-1.27,.07-1.91,.05-3.82-.04-5.72,.42-1,.24-2.16,.39-3.01-.68,.74-.96,2.29,0,2.8-1.49,1.04,.14,1.84-.56,2.71-1.01Z"/>
      <path class="cls-67" d="M37.14,112.19c2.65-4,6.09-7.13,9.27-10.54,.75-.12,.79,.52,.63,.97-.55,1.53-.9,3.32-2.09,4.34-2.15,1.84-2.76,4.77-4.36,7.17,1.48-.52,2.8-.58,3.93,.68,.31,.35,.73,.14,1.09-.05,3.34-1.77,6.8-2.61,10.48-1.75,.54,.13,.64-.37,.9-.63,1.58-1.6,2.8-3.51,3.76-5.64,.48-1.06,1.06-1.8,2.16-.85,.36,1.45-.39,2.59-1,3.62-2.47,4.16-3.99,8.81-5.82,13.31-.91,2.23-2.17,4.22-4.16,5.78-3.51,2.74-6.85,5.72-10.57,8.16-2.36,1.55-4.86,2.28-7.46,2.83-1.44,.31-2.04-.55-2.15-1.98-.15-1.83-.03-3.68-.08-5.51-.43-4.56,.86-8.79,2.06-13.03,.39-1.38,1.61-2.13,2.17-3.37,.5-1.11,1.6-2,1.22-3.51Z"/>
      <path class="cls-78" d="M62.77,105.86c-2.03-.35-1.49,1.93-2.03,2.86-1.31,2.26-3.53,3.66-4.46,6.4-.84-2.71-2.87-1.79-4.27-1.53-2.27,.42-4.85,.09-6.65,2.45-.5,.66-1.14,.14-1.47-.59-.69-1.53-1.58-1.46-2.61-.43-.4,.4-.81,.95-1.4,.45-.68-.58-.36-1.46-.02-1.88,1.68-2.06,2.13-5.06,4.3-6.79,1.48-1.18,1.91-3.19,2.24-5.15,.17-.5,.42-.89,.93-.96,1.65-.37,4.23-3.41,4.56-5.41,.15-.55,.44-.95,.96-1.07,3.86,1.76,6.58,5.38,10.07,7.75,.35,.24,.51,.83,.76,1.25,.27,.3,.39,.67,.39,1.09-.19,.79-.31,1.66-1.33,1.54Z"/>
      <path class="cls-71" d="M37.14,112.19c2.13,1.54-.03,3.2-.45,3.73-3.74,4.71-4.24,10.37-4.33,16.22-.8,2.79-.6,5.54,.07,8.34,.56,2.37,1.95,4.58,1.28,7.23-.3,.7-.79,1.15-1.45,1.38-2.01-2.99-2.25-6.69-2.45-10.1-.59-9.89,.99-19.23,7.33-26.82Z"/>
      <path class="cls-145" d="M32.26,149.1c.12-.65,.37-1.15,1.05-1.16,.57,.15,.98,.58,1.22,1.13,2.15,5.02,5.92,8.47,9.29,12.33,.78,.89,2.26,1.5,1.63,3.32-.24,.28-.47,.55-.71,.83-4.06-2.37-6.79-6.33-9.46-10.27-1.25-1.84-3.1-3.46-3.01-6.18Z"/>
      <path class="cls-67" d="M51.91,95.29c1.54,1.05,.4,2.32-.18,2.81-1.06,.88-2.07,1.6-2.72,3.01-.43,.92-1.31,.79-1.66-.42,1.42-1.91,2.84-3.82,4.56-5.41Z"/>
      <path class="cls-148" d="M61.86,143.64c-.02-.36-.03-.72-.05-1.08-.07-2.24,1.57-3.35,2.57-4.89,.22-.08,.44-.1,.66-.08,2.64,.89,3.49,3.96,5.45,5.67,.93,1.11,1.89,2.19,2.87,3.25,.97,1.21,2.27,1.96,3.27,3.13,.88,.96,1.99,1.58,2.88,2.53,.83,.85,1.74,1.59,2.67,2.3,1.19,1.2,2.62,2.01,3.94,2.99,4.19,3.01,8.43,5.9,13.12,7.84,.85,.35,1.7,.68,2.53,1.07,2.11,1.05,4.3,1.84,6.48,2.66,2.95,1.42,6.02,2.36,9.16,3.06,.72,.15,1.43,.34,2.16,.4,2.38,.23,4.69,1.14,7.11,1,.38,0,.76,.06,1.13,.16,2.46,.62,4.93,.48,7.4,.13,.24-.09,.48-.14,.72-.19,2.21,.07,4.28-.86,6.44-1.17,3.42-1.19,5.84-3.46,7.45-7.23,1.74-4.07,2.88-8.46,5.15-12.24,.15-.05,.31-.12,.46-.08,5.5,1.5,8.4,11.08,4.63,15.75-4.68,5.79-10.87,8.64-17.45,10.47-4.39,1.22-8.93,2.08-13.4,2.01-5.36-.08-10.73,0-16.09-.43-7.72-.61-15.34-2.23-22.65-4.85-5.83-2.09-11.82-4.08-16.87-8.59-2.9-2.59-5.71-5.71-9.58-6.7-.34-.5-.5-1.11-.38-1.69,.49-2.47,.06-4.91-.16-7.35-.13-2.72-1-5.25-1.63-7.84Z"/>
      <path class="cls-111" d="M45.46,164.73c-1.53-3.05-4.19-4.9-6.25-7.39-2.38-2.86-4.47-5.83-5.89-9.4,.2-2.38-.87-4.43-1.44-6.6-.76-2.88-.41-5.78-.24-8.67,.01-.19,.47-.35,.72-.52,0,1.84-.02,3.68,.03,5.51,.03,.87-.02,1.5,1.33,1.27,7-1.23,11.98-6.38,17.47-10.71,4.38-3.45,5.26-8.94,7.39-13.69,1.32-2.95,3.36-5.44,4.19-8.67,.32-.53,.64-1.07,.96-1.6,.85-.58,1.44-.41,1.65,.76-1.22,2.91-2.9,5.52-4.43,8.22-2.16,3.81-3.27,8.04-4.23,12.35-.62,1.85,.18,4.11-1.25,5.73-2.02,2.01-2.93,4.99-2.2,7.25,.15,.18,.28,.38,.42,.57,1.72,1.21,1.9,3.01,1.51,5.02,.21,5.79-1.31,10.91-4.43,15.54-1.11,1.65-2.52,2.77-3.87,4.03-.48,.34-.95,.67-1.43,1.01Z"/>
      <path class="cls-14" d="M46.89,163.72c3.05-3.93,5.94-7.93,7.23-13.14,.57-2.3-.35-4.71,.67-6.9,1.33-1.66,2.92-1.91,4.7-1.06-.07,5.44-.66,10.83-3.08,15.58-1.36,2.68-3.65,4.75-6.68,4.8-1.05,.02-1.9,.47-2.84,.72Z"/>
      <path class="cls-143" d="M59.48,142.63c-1.57,.35-3.13,.71-4.7,1.06,.35-1.91-.27-3.31-1.77-4.24,.7-.74,1.57-.72,2.43-.7,2.46,0,4.98,.36,6.89-2.1,.45-.58,1.26-.68,1.93-.11,.36,.39,.63,.82,.4,1.42-.95,1.54-1.9,3.08-2.86,4.61-.8-.9-1.56-.29-2.33,.07Z"/>
      <path class="cls-99" d="M53,166.24c-.65-.16-1.3-.33-1.94-.49,5.77-1.57,9.16-5.83,10.79-12.07,1.51,.39,.93,1.81,1.12,2.85-.64,5.24-3.39,8.81-7.24,11.49-.44-1.54-1.8-1.25-2.76-1.77h.03Z"/>
      <path class="cls-154" d="M62.32,156.88c-.18-1.06,.3-2.25-.48-3.2,0-3.35,.01-6.7,.02-10.04,1.54,2.18,2.14,4.73,2.32,7.44-.7,.89-.43,1.93-.37,2.95,.07,1.29,.18,2.68-1.49,2.85Z"/>
      <path class="cls-138" d="M65.07,105.35c-.01-1.04-.67-1.07-1.34-1.09,0-.35-.02-.69-.02-1.04,.5-.2,1-.4,1.5-.59,1.1-.61,1.76,.37,2.46,.94,6.03,4.92,12.01,9.91,18.09,14.76,2.53,2.02,5.15,3.9,7.63,6,1.84,1.91,3.96,3.38,6.15,4.7,.59,.48,1.71,.3,1.61,1.64-2.19,1.2-4.46,1.71-6.58,.07-3.94-3.04-8.05-5.79-11.87-9.01-1.04-1.28-1.34-.14-1.83,.65-1.36,2.22-2.75,4.43-5.46,4.67-.16-.18-.25-.39-.29-.64,.08-1.31,1.12-1.76,1.8-2.52,.79-.89,1.94-1.42,2.22-2.87-.57-.68-1.36,.29-1.9-.34,.15-1.73,.73-3.49-1.23-4.67-1.11-.67-1.68-1-2.24,.62-.38,1.11-.64,2.64-2.26,2.37-.31-.4-.38-.88-.36-1.39,.02-1.63,1.77-3.04,.49-4.84-.44-.48-.89-.96-1.37-1.4-1.92-1.13-3.33-2.85-4.47-4.88-.34-.3-.64-.63-.73-1.14Z"/>
      <path class="cls-18" d="M93.14,124.8c-6.87-4.94-13.39-10.44-20.01-15.77-2.64-2.13-5.29-4.27-7.93-6.4-1.88-2.52-4.81-3.58-6.71-6.08-.45-.72-.89-1.44,.43-1.53,2.73,1.51,5.12,3.61,7.57,5.59,9.78,7.9,19.75,15.5,29.62,23.25,.85,.67,2,1.16,1.91,2.71-.75,1.37-1.63,.58-2.37,.07-.86-.58-1.63-1.32-2.52-1.84Z"/>
      <path class="cls-156" d="M58.94,95.35c-.9,.04-.43,.73-.44,1.19-4.8-3.68-9.64-7.29-14.04-11.58-.02-.49-.4-1.17,.48-1.19,.95-.15,1.56,.54,2.22,1.13,1.91,1.71,3.86,3.37,6.01,4.71,1.62,1.18,3.3,2.27,4.76,3.71,.54,.53,1.45,.86,1.01,2.02Z"/>
      <path class="cls-37" d="M39.77,79.06c-1.19-.85-2.76-1.16-3.41-2.9,4.57-1.36,9.22-1.49,13.78-2.34,.34,.36,.68,.72,1.2,.72,3.48-.03,6.53,1.63,9.46,3.39,3.91,2.35,7.96,4.36,11.99,6.41,5.79,2.95,11.09,7.01,17.19,9.27,2.58,.96,2.51,2.22,.52,4.48-1.21,1.37-2.79,2.64-2.71,4.94,.03,.79-.21,1.95,1.15,1.6,.22-.04,.43,0,.63,.12,2.32,5.41,6.38,8.62,11.03,11.12,2.31,1.24,4.74,2.22,6.8,4,.8,2.04-.47,1.78-1.44,1.5-2.23-.65-4.28-1.87-6.37-2.94-.91-.47-1.78-1.02-2.72-1.39-3.22-2.38-6.49-4.68-9.33-7.67-.58-1.12-1.1-2.27-1.53-3.47-1.44-4.87-4.34-8.07-8.18-10.89-3.56-2.61-6.9-5.63-10.67-7.93-.41-.25-.73-.73-1.18-.84-4.8-1.21-8.44-5.19-13.04-6.86-3.74-1.37-7.51-2.32-11.36-.4-.58,.29-1.18,.47-1.79,.09Z"/>
      <path class="cls-15" d="M39.77,79.06c7.39-4.39,13.76-.63,20.03,3.31,1.35,.85,2.64,1.7,4.11,2.31,4.9,2.04,9.24,5.17,13.24,8.92,.4,.37,.63,.94,1.18,1.18,4.53,2,6.9,6.07,8.28,11.07-.64,.3-1.08-.16-1.39-.63-2.25-3.34-5.5-5.13-8.73-6.8-3.07-1.59-5.18-4.42-7.72-6.69-1.31-1.18-2.66-2.12-4.27-2.56-1.96-.53-3.94-.85-5.54-2.49-.72-.74-1.83-.72-2.54,.2-.72,.94-.1,1.8,.46,2.55,.75,1.01,1.68,1.81,2.63,2.58,.68,.55,1.51,.99,1.51,2.16-.95,1-1.68,.13-2.45-.37-1.47-.95-2.61-2.41-4.14-3.26-.5-.28-.93-.58-1.5-.41-2.94-1.67-5.41-4.09-7.97-6.35-1.42-1.99-3.54-3.02-5.17-4.71Z"/>
      <path class="cls-96" d="M88.93,104.93c-.02,.5-.05,1.01-.08,1.64-3.51-3.35-1.47-6.19,1.24-9.05,1.87-1.97,2.05-2.38-.38-3.28-8.52-3.16-15.83-9.17-24.18-12.76-3.8-1.63-7.23-4.38-11.2-5.74-.91-.31-1.82-.46-2.76-.4-.97,.05-1.48-.37-1.42-1.52,.46-.05,.91-.09,1.37-.14,3.68-.4,7.36-.8,11.03-1.18,1.46-.15,2.93-.24,4.4-.36,.06,.1,.12,.21,.18,.31-1.5,2.81,.31,4.1,1.95,5.54,1.3,1.14,2.69,2.06,4.13,2.94,6.2,3.81,12.45,7.52,18.82,10.99,2.46,1.34,2.59,2.14,1.47,4.68-.57,.85-1.39,1.4-2.12,2.04-1.84,1.59-2.23,3.89-2.43,6.29Z"/>
      <path class="cls-96" d="M68.84,71.63c2.98,.21,5.9-.88,8.88-.5,.53,1.49-.52,2.09-1.33,1.99-2.82-.35-5.65,.68-8.44-.26-.37-.13-.72-.28-.96-.65,0,0-.04-.07-.04-.07,.54-.58,1.27-.32,1.9-.51Z"/>
      <path class="cls-123" d="M76.32,177.91c-2.07-1.4-4.24-2.52-6.69-2.61-2.6-.1-4.43-2.35-6.86-3.03-1.2-.34-2.01-.58-2.91,.8,.57-2.36-.53-3.66-1.86-4.84,.07-.75,.49-1.06,1.11-1.12,.75,.08,1.47,.19,1.87-.84,.26-.68,.81-.96,1.49-.77,.55,.26,.75,.8,.9,1.38,.16,1.01,.78,1.42,1.61,1.56,.97,.29,1.96,.51,2.8,1.18,3.13,2.46,6.83,3.22,10.39,4.42,5.66,2.25,11.58,3.44,17.43,4.67,6.01,1.27,12.11,2.47,18.26,2.54,7.38,.08,14.8,.56,22.14-.55,8.9-1.35,17.37-4.28,24.28-11.05,4.56-4.47,4-7.95,1.1-11.52-1.05-1.29-1.96-2.72-3.23-3.77-1.51-1.24-2.26-2.85-2.05-4.97,.24-.87,.3-1.96,1.55-1.49l.08,1.07c.24,.36,.24,.72-.03,1.06,.04,1.12,.84,1.54,1.47,2.19,2.34,2.44,4.79,4.79,6.81,7.54,2.39,3.25,.93,7.14-2.21,10.33-6.05,6.17-13.53,9.41-21.41,11.33-9.76,2.38-19.71,2.91-29.63,2.16-7.46-.57-14.91-1.5-22.35-2.73-4.74-.78-9.33-2.21-14.05-2.94Z"/>
      <path class="cls-172" d="M157.68,150.02c.01-.35,.02-.71,.03-1.06,2.15-.27,3.82,1.07,5.57,2.13,0,.35,0,.7,0,1.05-.62,0-1.24,0-1.87,0-1.56,0-1.91-2.72-3.74-2.11Z"/>
      <path class="cls-121" d="M157.63,147.89c-.85,.15-.92,.85-.9,1.61-.38,.46-.43,1.14-.8,1.6-3.49,3.65-5.6,8.34-7.76,12.99-1.51,3.27-2.91,6.6-5.49,9.04-2.32,.41-4.57,1.38-6.98,1.12-.28-.77,.18-1.18,.65-1.46,3.71-2.19,6.31-5.6,8.48-9.52,1.52-2.75,2.8-5.66,4.4-8.36,.33-.56,.65-1.18,.54-2.12-1.95,.48-3.24,2.1-4.88,2.98-.74,.4-1.33,1.35-2.29,.57-.15-1.27,.69-1.85,1.38-2.53,3.63-3.54,7.87-6.08,11.82-9.08,.74-.56,1.56-.82,2.32,.04,0,.17,.04,.34,.09,.5-.52,.78-.62,1.68-.6,2.61Z"/>
      <path class="cls-103" d="M95.49,217.35c-2.22-2.55-5.31-3.7-7.7-6.07-1.17-1.16-2.35-2.57-3.44-3.72-3.04-3.19-7.04-5.35-9.05-9.72-.46-1.01-1.85-1.15-1.8-2.57,1.51,.25-.09-2.3,1.34-1.95,.92,.22,.78,1.81,1.53,2.17,1.93,.92,3.19,3.24,5.69,3.08,1.45-.09,2.69,1.18,3.94,2.06,4.31,3.03,8.57,6.07,13.83,6.85,2.8,.42,5.49,1.77,8.25,2.58,5.5,1.63,11.13,2,16.8,2.03,5.24,.02,10.48-.14,15.7,.49,.89,.11,1.44-.55,2.09-.99,1.09-.73,2.05-.73,2.84,.51-1.41,2.86-4.24,4.26-6.47,4.88-2.46,.69-4.27,2.59-6.67,3.06-.29,.06-.57,.41-.83,.38-6.81-.78-13.67,1.09-20.51-.7-1.82-.48-4.35-1.09-5.73-.51-2.54,1.07-3.77,.11-5.48-1.42-1.18-1.05-2.88-.31-4.34-.45Z"/>
      <path class="cls-59" d="M58.98,167.29c-.33,.31-.65,.62-.98,.93-.44,.3-.88,.59-1.31,.89-.1,.12-.19,.29-.33,.34-.69,.29-1.51,1.57-2.07,.34-.47-1.04,.38-1.79,1.42-1.95,2.24-2.92,5.23-5.21,6.24-9.19,.15-.58,.25-1.18,.37-1.77,1.23-.75,.8-2.09,.93-3.25,.1-.93-.46-2.2,.93-2.55,.57,3.13,.88,6.25-.12,9.36,0,.13,.02,.25,.03,.38-.87,3-2.62,5.11-5.11,6.48Z"/>
      <path class="cls-20" d="M55.71,167.84c-.43,.55-.87,1.1-1.34,1.7,1.02,.73,1.56-.48,2.32-.43-.06,.69-.59,.97-.94,1.41-.48,.59-1.07,.67-1.66,.3-.73-.45-.63-1.24-.25-1.78,1.09-1.54,.24-2.19-.87-2.79,.99,.36,2.68-.8,2.75,1.59Z"/>
      <path class="cls-177" d="M204.38,132.21c.07,1.26,.09,2.38-1.45,1.11-.3-.25-.87-.1-1.32-.13-.99,.41-1.63-.35-2.19-.98-2-2.27-4.07-4.42-6.5-6.1-4.18-4.1-8.26-8.31-12.42-12.44-1.67-1.66-3.48-3.17-4.95-5.08-.82-1.07-1.86-1.82-2.95-2.48-.25-.25-.41-.56-.54-.9-.74-1.68-2.4-2.15-3.48-3.39-5.32-4.39-9.7-10-14.96-14.48-.57-.99-1.33-1.84-1.87-2.86-.3-1.1-1.41-1.38-1.86-2.33-.08-.25-.12-.5-.12-.77,.04-.43,.19-.79,.5-1.06,.64-.32,1.22-.27,1.74,.31,.59,1.47,2.2,1.75,2.88,3.12,.5,2.07,2.41,2.69,3.59,3.97,1.23,1.34,2.65,2.61,3.9,4,2.41,2.69,5.16,4.86,7.95,7,1.99,1.53,3.25,3.96,5.16,5.7,5.37,4.9,10.56,10.05,15.82,15.09,1.53,3.28,4.53,4.8,6.8,7.21,1.93,2.05,3.93,4.01,6.28,5.47Z"/>
      <path class="cls-114" d="M89.92,69.6h-5.09c1.83-.73,3.81-.36,5.51-1.55,2.54-.32,5.17,.2,7.61-1.06,3.37-.16,6.77,.32,10.11-.61,.94-.59,2.03,.09,2.97-.45,3.73-.28,7.55,.55,11.19-1.06,.69,.19,1.33,.47,1.8,1.11-.22,1.41-1.24,1.5-2.2,1.71-5.54,.32-11.06,1.05-16.59,1.51-3.79,.13-7.54,.85-11.32,1.06-1.37,.08-2.79,.56-3.98-.66Z"/>
      <path class="cls-12" d="M111.03,65.93c-.93,.68-1.96,.47-2.97,.45-.73-.09-1.5,.27-2.52-.45h5.49Z"/>
      <path class="cls-171" d="M152.01,80.63c-.66,.01-1.32,.02-1.97,.03-1.21,.9-1.96-.24-2.84-.8-1.12-1.76-3.06-2.49-4.21-4.21-.8-1.02-2.31-1.69-1.39-3.56,.99-1,1.98-1.27,2.95,.04,2.13,2.8,4.02,5.89,7.08,7.61,.21,.12,.26,.58,.39,.88Z"/>
      <path class="cls-167" d="M144.54,72.14c-.98-.46-1.93-.21-2.87,.14-.67,.73-1.52,.65-2.35,.67-.58-.02-1.17,.2-1.74-.1-.17-.2-.27-.43-.31-.71,.05-1.32,.73-2.22,1.55-3.05,.59-.5,1.26-.73,1.99-.67,1.78,.7,3.66,1.1,5.3,2.22,.19,.15,.32,.35,.42,.58-.28,1.33-1.31,.65-1.98,.92Z"/>
      <path class="cls-110" d="M132.35,64.75c.96-1.46,2.69-1.4,3.83-2.49,1.6-.26,3.1,.26,4.61,.74-.04,1.04-.95,.75-1.4,1.17-.19,.12-.38,.21-.58,.31-1.55,.86-2.9,2.21-4.72,2.39-1.07-.19-1.48-1.07-1.75-2.11Z"/>
      <path class="cls-159" d="M144.62,65.3c.81,.8,1.62,1.6,2.43,2.4,.16,.73-.22,1.01-.77,1.13-1.84,.09-3.67-.21-5.51-.07-.75,.04-1.49,.05-2.24,.16-1.3,.2-2.06-.36-1.66-2.03,.66-1.05,1.63-.74,2.55-.76,1.76-.04,3.59,.47,5.19-.84Z"/>
      <path class="cls-70" d="M139.03,63.8c.43-.72,1.22-.41,1.76-.8,1.13,.48,2.43,.56,3.28,1.71,.11,2.9-1.84,1.79-3.07,1.93-1.89,.22-2.08-1.22-1.97-2.84Z"/>
      <path class="cls-91" d="M139.03,63.8c.15,.05,.39,.05,.43,.15,.37,1-.08,2.4,1.72,2.51,1.5,.09,2.24-.52,2.89-1.75,.18,.2,.36,.39,.55,.59,.07,1.43-.69,1.69-1.76,1.65-1.89-.06-3.79-.03-5.68-.03-.76-1.98,1.15-2.05,1.73-3.06l.12-.06Z"/>
      <path class="cls-167" d="M146.5,68.46c.18-.26,.36-.51,.54-.76,.44,1.29,.89,2.58-.53,3.52-.07-.08-.13-.15-.2-.23-.55-.9-.56-1.75,.18-2.53Z"/>
      <path class="cls-79" d="M119.35,173.13c-.66,0-1.36,.25-1.91-.42-1.34-1.06-1.09-2.4-.39-3.68,2.15-3.95,4.83-7.21,8.8-8.98,2.37-1.05,4.7-2.2,6.92-3.69,3.43-2.3,5.46-6.11,8.25-9.1,3.19-3,6.7-5.18,10.94-5.7,2.29-.28,4.61-.52,6.82-1.38,.6-.23,1.22-.22,1.7,.4-.26,.71-1.1,1.07-.98,2.02-.28,.03-.55,.07-.83,.1-1.05,1.69-2.75,2.75-4.22,3.42-4.05,1.86-7.24,4.99-10.59,7.91-4.46,3.89-9.24,7.1-14.71,8.78-4.57,1.4-7.54,4.62-9.26,9.46-.12,.33-.33,.59-.53,.86Z"/>
      <path class="cls-58" d="M119.35,173.13c-.36-2.06,.76-3.48,1.73-4.93,1.59-2.38,3.31-4.56,6.02-5.41,7.75-2.44,14.49-6.86,20.38-13.03,1.11-1.16,2.53-2.1,3.95-2.7,2.61-1.1,4.78-3.01,7.25-4.36-.05,.74,.12,1.54-.53,2.08-.46,.03-1.05-.14-1.37,.12-4.68,3.82-10.14,6.44-14.06,11.45,.11,1.35-.92,1.69-1.64,2.24-4.23,3.29-9.07,5.3-13.52,8.15-.67,.43-1.38,.81-1.92,1.47-1.31,1.62-1.14,3.57,.44,4.87,.36,.3,.88,.45,.73,1.14-2.55,.13-5.01-.45-7.47-1.08Z"/>
      <path class="cls-53" d="M122.14,66.93c.69-.16,1.36-.35,1.87-.95,1.27,.94,1.49,3.15,3.29,3.44,.17,.21,.23,.45,.19,.73-.88,1.31-1.32,3.19-3.23,3.18-1.81-1.67-2.25-3.91-2.12-6.4Z"/>
      <path class="cls-105" d="M127.09,70.03c.07-.2,.14-.4,.22-.61,1.68-1.56,3.37-3.11,5.05-4.67,1.07-.05,.9,1.72,1.96,1.68,.13,.21,.16,.44,.08,.68-.9,1.44-2.64,1.54-3.61,2.87-.83,.62-1.56,1.46-2.66,1.45-.66-.17-.89-.75-1.04-1.4Z"/>
      <path class="cls-57" d="M160.48,140.57c-4.79,2.02-10.2,1.03-14.82,4.02-1.54,1-2.93,2.17-4.35,3.34-3.26,2.5-5.42,6.4-8.89,8.68-2.22,1.46-4.49,1.76-6.92,1.44-.81-.11-1.5-.47-1.63-1.54,.16-.58,.57-.87,1.03-1.11,5.61-.02,9.14-4.28,12.94-8.02,3.1-2.74,6.81-4.47,10.26-7.53-4.02,.05-7.54-.76-11.11-.66-1.05,.03-2.04-.35-2.41-1.64-.32-1.13-.01-2.06,.91-2.7,2.6-.9,5.14,.38,7.72,.28,4.15,.44,8.3,.97,12.45,1.41,1.24,.13,2.47,.25,3.55,1.03,.63,.83,1.38,1.25,2.41,1.19,1.38-.08,2.78-.11,4.15,.02,.93,.09,2.22-.02,1.75,1.84-2.35-.01-4.69-.02-7.04-.03Z"/>
      <path class="cls-68" d="M205.36,142.65c.16,1.55-.37,2.17-1.83,2.16-7.07-.07-14.22,.7-21.19-.27-5.57-.77-11.08-.46-16.61-.84-1.41-.1-2.75-1.69-4.25-.1-.28,.3-.9-.16-.93-.82-.04-.95,.54-1.15,1.23-1.15,2.25,0,4.51,.01,6.76,0,1.24,0,2.48-.06,3.73-.09,.95-1.02,2.16-.84,3.31-.87,9.32-.28,18.61,.13,27.88,1.2,.71,.08,1.4,.11,1.9,.77Z"/>
      <path class="cls-47" d="M205.36,142.65c-11.02-.67-22.05-1.21-33.09-1.11-1.52-.74-3.16-.71-4.75-.93-.19-1.23-1.04-1.08-1.81-1.09-1.55,0-3.11-.02-4.66,0-1.03,.01-1.88-.21-1.96-1.63,1.64-1.45,3.59-.96,5.38-.85,7.34,.46,14.7,.57,22.04,1.23,4.45,.72,8.94,.86,13.4,1.4,2.18,.26,4.52-.18,6.4,1.61-.04,.4-.08,.8-.12,1.2-.27,.05-.55,.11-.82,.16Z"/>
      <path class="cls-155" d="M193.25,125.74c2.67,1.17,4.31,3.81,6.46,5.71,.65,.57,1.27,1.17,1.91,1.75,.68,1.81,2.35,2.24,3.6,3.26,.07,.89,.19,1.76,1.11,2.08-.3,.2-.59,.39-.89,.59-1.49,1.17-2.97,.35-4.45,0-.8-.33-1.77-.6-2.08-1.52-1.06-3.18-3.69-4.4-5.93-5.94-2.45-1.68-4.32-3.9-6.04-6.38-.44-1.05-2.15-1.39-1.39-3.12,2.04-1.01,3.27,.62,4.59,1.84,.93,.86,1.64,2.13,3.11,1.73Z"/>
      <path class="cls-11" d="M200.68,138.45c1.59,.22,3.17,.45,4.76,.67,.76,.48,1.07,1.19,.87,2.16-5.9-.61-11.81-1.22-17.71-1.84-.68-.07-1.35-.25-2.03-.38,.25-.51,.7-.75,1.14-.7,.99,.11,1.59-.21,1.68-1.41,3.12-.93,6.1,.29,9.11,.82,.72,.12,1.49,.32,2.19,.69Z"/>
      <path class="cls-73" d="M79.17,68.93c-.32,.02-.64,.03-.97,.05,1.43-3.53,3.53-6.27,6.9-7.61,.67-.27,.9-1.16,1.3-1.81,.98-1.58,2.08-2.94,3.91-3.45,2.22-.61,3.55-2.88,5.46-4.18,3.59-2.45,7.31-4.02,11.37-5.14,2.85-.78,5.61-.85,8.44-.9,.17,1.49-.87,1.87-1.74,1.92-3.75,.21-6.18,3.22-9.03,5.28-2.71,1.96-5.63,3.5-8.27,5.54-2,1.54-4.6,2.15-5.97,4.69-.53,.98-1.34,1.27-2.29,1.54-2.2,.62-4.58,.79-6.11,3.19-.69,1.09-2.15-.06-3.01,.88Z"/>
      <path class="cls-96" d="M89.92,69.6c5.13-.38,10.26-.77,15.4-1.15-.04,1.77-1.63,.84-2.23,1.62-.07,.16-.09,.44,.02,.47,3.24,1.01,3.71,4.54,5.1,7.19,1.21,2.29,2.79,3.71,5.24,3.72,.97,0,1.84,.34,2.53,1.15,.73,.86,1.61,1.35,2.67,1.45,1.45,.14,2.6,1.25,4.1,1.55,1.11,.23,1.86,2.73,2.64,4.3,.1,.72,.08,1.57-.52,1.87-1.41,.68-2.32,2-3.43,3.04-1.9,1.77-3.69,1.89-4.84,.18,3.08,2.47,6.18,6.14,9.88,8.99,.62,.48,1.5,1.24,.33,2.22-2.73-.42-4.82-2.22-6.86-4.11-.49-1.01-1.4-1.6-1.99-2.5-.38-.8-1.01-1.28-1.65-1.8-4.28-3.46-8.54-6.89-12.53-10.83-4.42-4.36-9.79-7.35-15.31-9.84-2.74-1.24-5.66-1.89-8.36-3.21-1.02-.5-2.37-.96-1.44-2.81,2.83-.69,5.71-.9,8.6-1.06,.9-.05,1.85,.25,2.66-.45Z"/>
      <path class="cls-130" d="M78.66,71.11c.06,2.69,2.31,2.56,3.59,2.92,7.63,2.16,14.39,6.31,20.77,11.24,2.96,2.29,5.24,5.59,8.37,7.74,1.91,1.32,3.66,2.92,5.51,4.35,.73,.56,1.43,1.06,1.5,2.17-1.1,.84-2.12-.04-2.76-.62-2.85-2.59-6.53-3.81-9.09-6.8-3.06-3.59-6.7-6.26-10.47-8.71-4.3-2.81-8.64-5.55-13.63-6.64-2.33-.51-4.59-.92-6.91-.1-.6,.21-1.22,.22-2.03-.04,3.21,4.05,7.13,6.74,11.18,9.02,3.25,1.83,6.4,3.94,9.93,5.2,1.94,.69,3.43,2.62,5.5,3.28,.56,.18,.99,.94,.22,1.64-2.37,.6-4.7,1.81-7.19,.63,.79-1.76,.54-2.85-1.25-3.74-6.95-3.49-13.54-7.78-20.28-11.76-2.57-1.52-4.48-3.96-7.01-6.08,1.33-.39,2.05-1.29,2.37-2.57,2.94,.71,5.94-.64,8.9,.35,.83,.28,1.65-.26,1.84-1.44,.31,0,.62,0,.94-.01Z"/>
      <path class="cls-173" d="M155.81,150.56c.18-.5,.48-.86,.92-1.06-.24,1.97,.52,3.24,1.98,4.33,2.23,1.67,3.72,4.2,5.12,6.7,1.22,2.17,.24,5.98-1.87,8.61-1.53,1.91-3.47,3.25-5.36,4.57-6.95,4.85-14.62,7.07-22.73,7.96-6.99,.76-13.97,.42-20.95,.36-3.91-.03-7.81-1.11-11.73-1.47-5.26-.48-10.24-2.49-15.46-3.24-2.73-.39-5.35-1.68-8.02-2.56-1.76-2.23-4.53-1.66-6.64-3.01-.84-.54-2.11-.59-2.49-1.62-.49-1.3-.83,.37-1.16-.1-.94-.35-1.87-.7-2.81-1.05-.32-.98-.9-1.57-1.87-1.58,0-.58,.05-1.19-.47-1.58-.24-2.13,1.48-3.44,1.76-5.35,0,0,0-.02,0-.02,1.98-.42,3.31,.54,4.93,1.91,4.72,3.96,9.45,7.77,15.22,10.11,4.99,2.03,10.03,3.61,15.13,4.96,5.94,1.58,12,2.8,18.15,2.54,4.88-.2,9.72,.64,14.61,.11,8.61-.94,16.95-2.79,24.12-8.53,4.27-3.42,6.41-6.45,4.66-10.75-1.27-3.12-2.64-6.38-5.94-7.6-.81-1.34,.75-1.68,.87-2.63Z"/>
      <path class="cls-48" d="M99.22,165.83c-4.17-1.09-7.57-3.94-11.24-6.17-.81-.49-1.53-1.17-2.29-1.76-1.96-5.16-1.88-10.75-2.66-16.16-.09-.64-.49-1.09-.79-1.59-1.06-1.75-1-3.26,.68-4.46,1.96,1.74,2.36,4.37,2.92,6.82,.69,3.04,.82,6.22,1.3,9.33,.26,1.66,.69,3.24,1.71,4.53,1.09,1.38,2.09,1.32,2.66-.36,1.08-3.18,1.69-6.36-.65-9.36-1.75-2.24-1.95-4.23-.85-5.35,1.09-1.11,2.49-.77,4.4,1.47,3.74,4.38,8.59,6.09,13.59,7.52,1.2,.34,2.44,.56,3.55,1.22,2.34,1.55,5.02,2.28,7.39,3.76,3.44,2.15,3.54,4.17,.63,7.15-2.91,2.98-6.68,4.39-9.72,7.09-.51,.45-1.17,.37-1.75-.03-2.33-.38-4.49-1.32-6.53-2.64,2.54-1.62,5.44-2.39,7.86-4.35,1.39-1.12,2.94-1.99,4.18-3.34,1.5-1.65,1.32-3.09-.56-4.13-2.88-1.6-6.01-2.36-9.13-3.11-1.41-.34-2.37,.35-2.89,1.92-.71,2.13-1.34,4.31-2.17,6.38-.8,2,.55,3.71,.37,5.59Z"/>
      <path class="cls-75" d="M99.22,165.83c-1.71-2.19-1.67-4.54-.61-7.07,.69-1.66,1.43-3.36,1.75-5.13,.52-2.82,2.28-2.98,4.06-2.46,3.06,.9,6.19,1.59,9.06,3.19,2.41,1.35,2.84,3.49,.72,5.29-3.81,3.22-7.57,6.71-12.63,7.21-.83-.19-1.66-.39-2.34-1.03Z"/>
      <path class="cls-1" d="M126.82,174.21c-1.21-.68-2.87-.63-2.85-3.01,.02-2.42,.99-3.76,2.81-4.9,5.31-3.32,11.17-5.54,15.94-9.96,1.89-1.31,3.78-2.65,5.69-3.93,.7-.47,1.48-1.26,2.3-.33,.74,.83-.13,1.44-.43,2.04-2.5,4.99-4.71,10.24-8.14,14.5-1.52,1.88-3.1,4.15-5.64,4.74-.3,.07-.52,.58-.78,.89,0,0,0,0,0,0-2.66,.39-5.31,.41-7.97-.01-.31,0-.62-.01-.93-.02Z"/>
      <path class="cls-176" d="M108.1,169.5c1.54,.34,2-1.4,3.05-2.03,2.91-1.75,5.85-3.46,8.39-5.94,2.13-2.08,2.23-3.65-.25-5.16-1.96-1.19-4.06-2.13-6.12-3.12-.64-.31-1.34-.45-1.79-1.12,.69-.85,1.57-.79,2.36-.43,3.08,1.42,6.25,2.55,9.37,3.85,.37,.15,.69,.39,.89,.79,1.75,1.6,5.28,1.44,7.79-.19,3-1.94,5.19-4.95,7.92-7.25,.5-.42,.9-.97,1.59-.98-4.06,5.75-8.73,10.55-15.16,12.8-4.02,1.41-6.41,5.04-8.66,8.74-.64,1.06-.54,2.15-.04,3.23-3.27-.51-6.46-1.28-9.35-3.21Z"/>
      <path class="cls-86" d="M70.22,143.77c-2.02-1.61-3.03-4.35-5.15-5.85-.44-.88,0-1.23,.67-1.44,.24-.04,.48-.03,.72,.02,1.76,.23,3.52,.37,5.25-.23,1.21-.3,2.4-.7,3.65-.7,2.6-.23,3.33,2.14,3.89,4.08,.74,2.55,1.71,5,2.39,7.57,.23,.86,.1,1.76-.12,2.58-.4,1.55-1.41,2.19-2.67,1.41-.82-.51-1.72-.7-2.53-1.19-1.16-.97-2.51-1.69-3.29-3.15,.68-.73,1.69-.29,2.4-.84,.81-.63,2.44-.48,2.12-2.25-.28-1.53-1.16-2.67-2.67-2.93-.62-.11-1.24-.09-1.87-.12-1.45-.08-2.68-.85-4.06-1.57-.09,1.77,2.19,2.67,1.25,4.6Z"/>
      <path class="cls-9" d="M155.81,150.56c.33,1.14-.89,1.62-.87,2.63-.54,3.6-2.2,6.72-3.56,9.93-.89,2.1-1.34,4.47-3.04,6.22-1.69,1.75-3.52,2.99-5.65,3.79,3.62-5.83,6-12.47,9.54-18.35,1-1.67,2.02-3.2,3.58-4.22Z"/>
      <path class="cls-7" d="M66.04,136.87c-.56,.07-.87,.45-.97,1.06-.13,.01-.27,.02-.4,.02-.16-.34-.32-.68-.49-1.02-.8-.9-.38-2.4-1.27-3.25-.37-.46-.84-.86-.7-1.6,.76-1.13,1.95-1.29,3.02-1.76,2.08-.9,4.24-1.68,4.74-4.72,.22-1.33,1.46-1.69,2.37-2.31,1.68-.84,3.1-2.27,4.97-2.66,.15-.04,.29-.11,.44-.12,.77-.04,1.17-1.96,2.02-.81,.82,1.1,.06,2.33-.73,3.18-1.16,1.23-2.43,2.32-3.66,3.46-2.52,2.65-5.1,5.26-7.97,7.41-1.11,.83-1.58,1.7-1.36,3.12Z"/>
      <path class="cls-152" d="M70.22,143.77c-.46-2.03-2.25-3.33-2.41-5.53,.53-.46,.98-.22,1.46,.16,1.57,1.23,3.29,1.76,5.24,1.67,2.01-.09,4.06,2.26,4.1,4.44,0,.45-.03,1.06-.42,1.1-1.77,.2-3.12,2.57-5.17,1.26-.94-1.04-1.87-2.07-2.81-3.11Z"/>
      <path class="cls-141" d="M82.87,135.83c-.89,1.73-1.01,3.19,.54,4.74,1.07,1.07,.26,2.93,.52,4.44,.42,2.46,1.61,4.91,.87,7.62-.34,1.26,.54,2.27,1.1,3.33,.3,.57,1.32,1.5-.2,1.93-1.29-1-2.91-1.48-3.79-3.11,.9-4.65,.42-9.09-1.06-13.57-.73-2.22-1.01-4.53-3.12-5.73,.51-2.28,2.5-3.64,4.49-3.07,.74,1.01,1.37,2.04,.66,3.4Z"/>
      <path class="cls-26" d="M77.71,135.24c2.03,.34,3.39,1.63,3.22,3.94-.11,1.57,.96,2.22,1.29,3.42,.75,2.77,.54,5.63,.96,8.43,.2,1.33,.19,2.96-1.27,3.77-1.25-.17-1.83-1.39-2.69-2.17,2.66-2.01,3.15-5.65,1.09-8.94-.44-.7-.59-1.29-.65-2.11-.18-2.64-1.34-4.65-3.44-5.92,.34-.86,.87-.86,1.49-.41Z"/>
      <path class="cls-39" d="M76.29,135.79c2.22-.47,3.25,2.08,3.41,3.13,.54,3.65,2.67,6.87,2.23,10.75-.21,1.87-.73,3.22-2.71,2.95-.95-.88-2.2-1.34-2.89-2.59,.89-.22,1.66-.52,2.55,.4,1.21,1.26,1.95,.49,2.12-1.14,.1-.93,.13-1.78-.26-2.75-1.05-2.64-1.99-5.35-2.73-8.12-.46-1.7-1.35-2.19-2.73-2.16,.16-.66,.5-.81,1.02-.47Z"/>
      <path class="cls-121" d="M127.74,174.23c2.66,0,5.31,0,7.97,.01-2.66,.76-5.31,.76-7.97-.01Z"/>
      <path class="cls-151" d="M65.07,105.35c.27,.18,.55,.37,.82,.55,1.31,1.75-.16,2.95-.83,4.07-2.62,4.47-4.83,9.16-6.55,14.15-.25,.62-.4,1.29-.69,1.89-.3,.61-.61,1.33-1.35,1-.75-.34-.49-1.1-.32-1.75,1.1-6.8,4.26-12.51,7.56-18.15,.39-.67,.82-1.25,1.35-1.76Z"/>
      <path class="cls-62" d="M56.15,125.26c.14,.46-.07,1.15,.43,1.34,.5,.18,.49-.47,.66-.82,.32-.66,.26-1.53,.88-2.03,.73,.81,.47,1.8,.32,2.72-.32,2.02,.2,3.44,2.08,3.98,.74,.4,1.48,.79,1.88,1.67,.29,.38,.58,.75,.87,1.13,.48,2.38,.21,2.68-2.33,2.61-1.26-1.56-2.53-2.7-4.44-.95-.53,.49-1.49,.27-2.27,.13-.35-.14-.57-.42-.67-.82-.13-1.33,.92-2.05,1.28-3.13,1.71-1.58,.31-4.05,1.32-5.83Z"/>
      <path class="cls-170" d="M53.89,134.26c.13,.17,.26,.33,.39,.5,.44,1.15,.98,1.99,2.33,1.84,.86-.1,1.85-.07,2.51,.85-.54,1.94-2.65,.53-3.41,2.01-.9,0-1.81-.01-2.71-.02-.06-.13-.09-.28-.09-.43-.72-1.86-.4-3.44,.97-4.76Z"/>
      <path class="cls-124" d="M53.89,134.26c-.83,1.45-.96,3.09-.97,4.76-1.34-2.03-.42-5.84,1.92-7.93,.31,1.29-.7,2.09-.94,3.17Z"/>
      <path class="cls-24" d="M55.72,139.46c.27-2.37,2.32-.99,3.25-1.95-.01-.34,0-.68,.14-1,.1-.21,.22-.39,.36-.56,.31-.31,.64-.58,1.06-.63,1.26-.1,2.95,.5,2.72-2.07,1.66,.8,.68,2.43,.92,3.68-.53-.39-1.08-.37-1.44,.19-1.81,2.86-4.47,2.36-7.02,2.34Z"/>
      <path class="cls-134" d="M135.23,135.3c-.66,2.2-.12,3.19,2.11,3.2,3.63,0,7.26,.31,10.88,.49,.44,.02,1.02-.16,1.21,.47,.19,.64-.34,.87-.73,1.14-3.55,2.44-7.11,4.89-10.66,7.33-1.26,1.16-2.69,2.07-3.9,3.3-3.44,3.49-7.59,3.63-11.84,3.08-1.23-.16-2.52-.55-3.36-1.64-1.71-2.22-3.95-2.65-6.33-2.61-4.32,.06-8.24-1.6-12.04-3.58-2.2-1.14-3.62-3.53-5.53-5.19-1.62-1.41-3.21-2.52-5.36-2.78-2.73-.34-4.99-1.78-6.19-4.86-.62-1.61-1.68-2.92-2.71-4.23-1.07-1.36-2.07-1.37-3.1,0-.85,.9-1.64,1.85-2.55,2.67-.94,.85-1.99,1.35-3.21,1.24-.72-.06-1.42-.29-1.67-1.15-.24-.82,.31-1.23,.79-1.7,1.38-1.31,2.38-3.21,4.37-3.6,2.2-1.28,4.3-2.76,5.22-5.51,.68-2.04,1.33-2.09,2.28-.29-.37,4.87,1.64,8.6,4.56,11.86,1.21,1.34,2.72,2.07,4.42,2.07,2.01,0,3.61,.9,4.95,2.51,1.61,1.94,3.59,3.34,5.5,4.85,2.57,2.03,5.37,2.91,8.57,2.74,2.95-.16,5.9-.3,8.85-.48,2.21-.14,3.97-1.39,5.6-2.93,.35-.33,.83-.73,.73-1.27-.15-.76-.85-.59-1.36-.68-5.23-.92-10.44-1.94-15.56-3.47-.38-.11-.76-.18-1.13-.31-1-.36-2.05-.85-1.93-2.23,.12-1.34,1.26-1.08,2.06-1.05,.95,.03,1.57-.71,2.35-1.05,4.29-.39,8.42,1.12,12.66,1.36,3.08,.17,6.15,.62,9.23,.92,1.08,.1,2.19,.15,2.84,1.38Z"/>
      <path class="cls-95" d="M109.98,132.15c.08,1.82-1.19,1.33-2.03,1.41-.52,.05-1.29-.8-1.44,.33-.09,.69,.61,1.22,1.25,1.33,3.14,.53,6.13,1.79,9.29,2.23,3.06,.43,6.02,1.58,9.15,1.62,.5,0,1.14,.23,1.29,.92,.16,.73-.5,.98-.83,1.44-2.69,3.75-6.53,4.22-10.35,4.32-3.16,.09-6.37,.61-9.49-.18-4.07-1.04-7.15-4.05-10.1-7.13-1.55-1.62-3.02-2.72-5.28-2.68-3.54,.05-5.37-3.05-7.19-5.86-1.34-2.07-1.97-4.51-2.23-7.04-.07-.67,.34-1.33,.87-1.78,3.72,3.04,7.83,5.43,11.39,8.73,2.11,1.96,4.54,.7,6.84,.73,1.2-1.23,2.49-.25,3.69-.08,1.05,.15,2.09,.38,3.15,.43,.83,.1,1.57,.36,2.01,1.24Z"/>
      <path class="cls-118" d="M60.41,131.08c-2.91-1.04-3.22-1.6-2.67-4.8,.14-.84,.25-1.69,.38-2.53,1.26-4.9,3.56-9.22,5.96-13.49,.77-1.37,2-2.49,1.81-4.36,.5,0,.93,.15,1.04,.78,.41,2.4,2.76,2.7,3.78,4.43,.2,2.02-1.01,3.45-1.82,4.94-2.25,4.17-4.64,8.27-7.45,12.01-.2,.27-.41,.53-.6,.81-.55,.64,.23,1.62-.43,2.23Z"/>
      <path class="cls-131" d="M109.98,132.15c-.62-.17-1.25-.35-1.87-.52-2.81-1.51-5.85-1.79-8.89-2.06-2.13-1.42-4.4-2.62-6.08-4.77,.94-.16,1.52,.54,2.22,1.07,.73,.55,1.53,1.71,2.53,.36,1.25-.58,2.22,.38,3.29,.75,9.02,1.95,18.06,3.7,27.25,4.33,5.35,.37,10.71,.83,16.04,1.56,.7,.1,1.4,.17,1.93,.77,.18,1.4-.83,1.19-1.49,1.3-.7,.11-1.41,.02-1.74,.94-2.65-.19-5.3-.39-7.95-.58-7.26-.9-14.52-1.81-21.78-2.71-1.15-.14-2.31-.29-3.46-.44Z"/>
      <path class="cls-10" d="M75.39,126.88c-1.45,1.27-3.05,2.34-4.13,4.09-.24,.38-.91,.52-.58,1.19,.25,.52,.78,.47,1.24,.5,1.25,.09,2.23-.49,3.11-1.43,.72-.78,1.48-1.5,2.23-2.25,.4-.38,1.03-.49,1.24-.11,.88,1.53,2.46,1.77,3.64,2.73,.1,.4,.06,.76-.2,1.07-1.85-.06-2.83,1.68-4.23,2.57-.5,.08-1.05,.04-1.41,.55-.34,.16-.68,.31-1.02,.47-1.2,.22-2.4,.44-3.6,.65-1.88,.35-3.76,.42-5.63-.04,0,0,0,0,0,0-1.14-.89-1.74-1.99-.19-2.93,2.69-1.62,4.9-3.88,7.11-6.17,.7-.73,1.46-1.29,2.42-1.44,0,.18,0,.36,0,.54Z"/>
      <path class="cls-43" d="M60.88,127.94c3.59-5.38,6.97-10.91,9.83-16.83,.46,.36,.92,.73,1.38,1.09,.72,1.26,.08,2.38-.38,3.43-1.76,3.97-4.01,7.65-5.69,11.68-.74,1.79-2.21,2.7-4.06,2.32-.75-.15-1.64-.38-1.08-1.69Z"/>
      <path class="cls-119" d="M77.29,120.63c-1.25,1.66-3.03,2.29-4.71,3.12-.47,.33-1.01,.42-1.52,.46-1.61,.13-2.36-.96-1.67-2.53,.49-1.11,.93-2.4,2.26-2.67,1.18-.88,1.61-2.28,1.85-3.72,.25-1.46,.9-1.42,1.77-.76,.44,.34,.82,.79,1.25,1.14q2.57,2.13,.77,4.97Z"/>
      <path class="cls-27" d="M71.65,119c-.26,.43-.6,.82-.77,1.29-.36,1-1.7,1.75-1.1,2.91,.57,1.1,1.86,.36,2.81,.56-1.03,.99-2.18,1.48-2.39,3.62-.19,1.96-2.58,2.91-4.29,3.56-1.13,.43-2.31,.94-3.51,1.2-.81,.02-1.36-.6-1.98-1.03,.11-.88-1.64-1.7-.06-2.62,2.5,1.75,5.18,.85,6.32-2.42,.82-2.37,1.88-4.56,3.03-6.7,.44-.82,.7-2.04,1.92-1.96,0,.54,.02,1.08,.02,1.61Z"/>
      <path class="cls-35" d="M71.62,117.38c-1.87,2.46-3.24,5.21-4.12,8.33-1.06,3.75-5.01,5.2-7.15,2.75,.18-.18,.35-.35,.53-.53,1.33,1.57,3.27,1.67,4.13-.3,2.2-4.99,5.18-9.49,7.05-14.66,.08-.23,.02-.52,.02-.78,1.77,1.95,.06,3.5-.46,5.19Z"/>
      <path class="cls-92" d="M99.22,129.57c2.56-.97,5.02-.13,7.47,.58,.66,.19,1.36,.49,1.42,1.48-2.41,.27-4.63-.99-6.99-1.08-.63-.33-1.27-.65-1.9-.98Z"/>
      <path class="cls-108" d="M100.63,127.42c-.91-.4-1.83-.8-2.74-1.19-7.7-6.03-15.41-12.04-23.09-18.11-5.32-4.21-10.58-8.51-15.86-12.77-1.66-2.24-4.12-3.33-6.02-5.22,.4-1.09,.88-.66,1.6-.3,2.32,1.15,3.74,3.9,6.37,4.45,1.15,.07,2.01,.84,2.87,1.54,3.24,2.64,6.5,5.23,9.62,8.04,8.19,6.26,16.24,12.74,24.57,18.77,1.24,.9,2.4,1.91,3.58,2.9,.35,.58,1.31,.97,.88,1.78-.36,.68-1.16,.45-1.79,.11Z"/>
      <path class="cls-40" d="M100.63,127.42c.44-.02,.88-.05,1.49-.08-.39-.57-.7-1.04-1.02-1.51,.69-.87,1.58-.74,2.38-.43,1.82,.71,3.66,.66,5.71,.43-3.39-2.37-6.89-4.19-10.17-6.44-1.02-.7-2.31-1.22-2.13-3.02,3.05,1.45,6.1,2.91,9.16,4.33,.52,.24,1.42,1.06,1.13-.63,1.15-.93,2.27-.16,3.33,.2,6.03,2.06,12.16,3.63,18.42,4.5,2.09,.29,4.18,.24,6.28,.16,2.31-.08,4.02-1.66,5.84-2.96,4.74,2.78,9.94,3.49,15.14,4.13,1.17,.14,2.47,.23,3.3,1.09,2.58,2.68,6.26,3.41,8.63,6.39,.73,.92,1.58,.31,2.39,.28,1.66-.06,2.04,.71,1.25,2.46-3.71,1.08-7.41,.15-11.09-.23-3.78-.38-7.58-.46-11.35-.92-.99-.12-2.05,.04-2.76-1.01-3.68-.48-7.36-1.19-11.05-1.39-10.78-.59-21.45-2.16-32.06-4.3-.97-.2-2.01-.31-2.83-1.05Z"/>
      <path class="cls-2" d="M73.04,104.28c-4.05-3.33-8.1-6.66-12.15-10-1.3-1.76-3.29-2.57-4.61-4.34-.89-1.2-1.59-2.59-.63-3.69,1.06-1.2,2.79-1.53,4-.1,1.06,1.26,2.21,1.62,3.65,1.91,2.19,.44,4.23,1.33,5.99,3.19,2.86,3.03,5.81,5.98,9.59,7.7,3.11,1.42,5.67,3.86,7.72,6.9,.47,1.05,.93,2.11,1.4,3.16-1.61,1.15-3.14,.03-4.3-.75-3.33-2.24-7.09-2.73-10.66-3.98Z"/>
      <path class="cls-16" d="M73.04,104.28c1.36-1.26,2.55,.27,3.83,.34,3.46,.18,6.13,2.91,9.36,3.9,.59,.18,1.18,.32,1.77,.48,2.74,2.79,5.98,4.82,8.88,7.37,1.33,2.5,3.85,3.1,5.84,4.53,2.14,1.55,4.48,2.73,6.72,4.11,.51,.31,1.39,.47,1.18,1.34-.21,.89-1.04,.36-1.6,.45-2.72,.46-5.26-.86-7.93-.97-7.57-5.39-14.91-11.19-22.28-16.92-1.95-1.51-4.02-2.83-5.77-4.65Z"/>
      <path class="cls-25" d="M141.27,122.08c-1.5,2.96-4,3.63-6.76,3.74-7.01,.28-13.72-1.63-20.43-3.48-2.33-.64-4.6-1.5-6.91-2.26-5.74-2.78-11.58-5.39-15.89-10.84-.99-1.25-1.92-2.52-1.94-4.31-.15-.3-.32-.61-.34-.96-.03-.68-.19-1.55,.59-1.76,.73-.19,1.05,.56,1.31,1.21,.09,.24,.15,.5,.22,.74,.42,1.31,.95,2.54,1.94,3.44,.95,1.26,2.31,2.05,3.17,3.42,2.55,2.38,5.56,3.83,8.61,5.03,6.94,2.74,14.03,4.95,21.32,6.18,2.93,.49,5.9,.37,8.82,.08,1.6-.16,3.16-.89,3.98-2.78,.34-.78,.83-1.52,1.81-1.26,.88,.64,1.1,1.6,1.06,2.69-.06,.46-.22,.86-.58,1.12Z"/>
      <path class="cls-66" d="M90.8,104.8c-.29-.73-.58-1.46-1.11-2.76-.16,1.34-.26,2.11-.35,2.88,0,0-.21-.01-.21-.01,0,0-.21,.02-.21,.02-1-2.65,.13-4.61,1.72-6.35,.75-.83,1.66-1.48,2.5-2.22,2.5-.33,4.99-.66,7.49-.98,1.23-1.01,2.6-.43,3.83-.19,5.16,1,10.08,2.88,14.7,5.7,.4,.24,.89,.37,1.05,.96,2.04,1.58,4.19,2.95,6.46,4.08,.56,.1,.82,.44,.73,1.09-.17,.37-.42,.63-.78,.76-2.67-.17-4.52-2.42-6.86-3.44-1.2-.52-2.34-1.28-3.59-1.75-5.76-2.99-11.81-4.24-18.14-3.86-1.89,.11-3.6,.67-5.26,1.82-1.54,1.06-.83,3.15-1.97,4.27Z"/>
      <path class="cls-164" d="M67.44,170.02c.43-.48-.05-.76-.2-1.11-.26-.6-.08-1.05,.42-1.26,.55-.23,.83,.17,1.03,.71,.61,1.66,4.38,4.68,5.89,4.15,2.15-.75,2.52,.75,3.14,2.24-2.76-1.03-5.54-2.02-8.28-3.11-.77-.31-1.62-.64-2-1.62Z"/>
      <path class="cls-164" d="M64.06,160.46c.23,2.12-1,3.64-1.76,5.35-.38,.08-.81,.2-.85,.7-.2,2.84-1.4,1.53-2.47,.78,2.11-1.89,3.63-4.32,5.08-6.83Z"/>
      <path class="cls-164" d="M62.76,167.39c.67-.26,1.17-1.46,1.98-.79,.8,.67-.19,1.55-.11,2.36-1,.04-1.79-.24-1.87-1.58Z"/>
      <path class="cls-51" d="M193.25,125.74c-.72,2.12-1.61,.94-2.36,.09-1.48-1.67-2.93-3.36-5.16-3.69-.5,.08-.94-.12-1.29-.48-4.36-4.35-8.88-8.5-12.85-13.34-.32-.39-.57-.84-.49-1.42,.37-.67,.92-1.07,1.6-1.24,1.44-.03,2.07,1.34,2.96,2.22,5.69,5.59,11.34,11.22,17.03,16.8,.32,.32,.53,.58,.55,1.04Z"/>
      <path class="cls-175" d="M172.7,105.67c-.09,1.02-.68,1.27-1.47,1.24-1.72,.33-2.73-.99-3.72-2.15-3.96-4.66-8.94-8.05-12.57-13.28-.95,1.07-.57,3.45-2.59,2.7,.04-2.37-.39-4.67-.81-6.97,.73-.94,1.51-1.1,2.38-.23,3.47,2.31,6.09,5.77,9.18,8.61,2.02,1.86,3.88,3.96,5.81,5.95,1.06,1.37,2.4,2.34,3.71,3.35,.03,.26,.06,.52,.09,.78Z"/>
      <path class="cls-4" d="M153.91,86.98c-.84-.14-1.63,0-2.37,.5-.54,.51-1.08,.25-1.62,0-.92-.56-1.6-1.4-2.15-2.4-.9-1.67-2.23-2.91-3.45-4.24-1.13-1.23-2.12-2.55-2.72-4.2-.1-.25-.13-.51-.11-.78,.48-1.2,1.18-1.24,2.02-.48,1.19,1.51,3.03,2.21,3.92,4.07,.6,1.18,1.83,1.44,2.64,2.32,.05,.12,.09,.23,.13,.36,.37,.99,1.13,1.53,1.87,2.11,.69,.85,1.86,1.3,1.82,2.75Z"/>
      <path class="cls-19" d="M172.61,104.9c-1.97-.08-2.87-1.68-3.71-3.35,1.55,.68,2.84,1.72,3.71,3.35Z"/>
      <path class="cls-162" d="M150.09,81.76c-1.43,.03-2.24-.85-2.64-2.32,1.04-.08,1.48,1.48,2.58,1.22,.02,.37,.04,.73,.05,1.1Z"/>
      <path class="cls-50" d="M152.09,84.22c-1.62,.41-1.77-.81-1.87-2.11,.71,.61,1.96,.6,1.87,2.11Z"/>
      <path class="cls-130" d="M124.94,90.07c-1.26-1.2-2.52-2.41-2.24-4.53-1.13,.2-.97,.86-1.1,1.31-.14,.44-.35,.85-.78,.81-.5-.04-.55-.57-.52-1,.11-1.57-.65-1.97-1.86-1.87-.38,.03-.93,.07-1.12-.18-1.87-2.43-4.76-1.99-6.98-3.24-2.39-1.35-3.67-4.23-4.33-7.11-.28-1.23-.57-2.08-1.61-2.02-2.03,.12-2.11-1.46-2.46-2.93,1.12-.72,2.47,.32,3.39-.86,1.99-.95,4.12-.44,6.18-.7,3.53-.46,7.07-1.04,10.65-.81,1.14,1.95,.98,4.51,2.35,6.35,.55,.75,.26,1.54-.06,2.2-1.92,3.91-1.13,7.55,.76,11.11,.4,.75,.72,1.54,1.12,2.29,.44,1.32,1.76,1.95,2.07,3.37-.37,1.37-1.31,1.65-2.36,1.36-1.13-.31-.58-1.34-.57-2.14,0-.51-.21-1-.52-1.41Z"/>
      <path class="cls-106" d="M143.53,75.37c-.67,.15-1.64-.38-1.74,1.01-1.73-.71-3.12-1.7-2.8-4.16,.89,.02,1.78,.04,2.67,.05-.54,1.92,1.68,1.73,1.87,3.09Z"/>
      <path class="cls-93" d="M130.55,69.58c.76-1.77,2.57-1.65,3.77-2.65,.11-.14,.36-.27,.37-.23,.73,2.32,2.77,2.11,4.32,2.84-.47,.91-.95,1.82-1.42,2.72-.42,.99-.19,1.95,.1,2.91,.38,1.42,1.03,2.71,1.56,4.06,.31,.8,.65,1.65-.03,2.41-.62,.7-1.41,.67-2.16,.37-1.04-.42-2.08-.64-3.17-.41-.35,.03-.69-.02-1.02-.14-1.47-.74-2.68-1.58-1.2-3.6,.6-.82,.52-1.36-.57-1.47-1.26-.14-1.55-1.03-1.05-2.21,.63-1.49,.01-3.11,.5-4.6Z"/>
      <path class="cls-44" d="M139,69.54c-.08,0-.15,.01-.23,.02q-3.5,.07-4.46-2.62c0-.17,0-.33,0-.5,1.53-.86,3.07-1.72,4.6-2.58-.1,1.37-1.7,1.65-1.74,3.06-.11,.83-.04,1.77,.92,1.43,.95-.34,1.75,.26,2.63,.11,.39,.16,.38,.32,0,.48-.57,.2-1.14,.4-1.71,.6Z"/>
      <path class="cls-94" d="M140.72,68.93c.03-.16,.04-.32,0-.48,1.93-.65,3.85-.94,5.78,0-.06,.84-.12,1.69-.18,2.53-2-.22-3.83-1.05-5.6-2.05Z"/>
      <path class="cls-17" d="M137.06,74.87c-.83-1.13-.12-1.86,.52-2.61,.02,.17,.05,.34,.07,.51,1.35,1.56,2.5,3.38,4.41,4.19,.47,1.22,1.1,2.42,.49,3.81-1.26,1.12-1.86-.17-2.39-.99-1.04-1.63-2.12-3.23-3.1-4.9Z"/>
      <path class="cls-140" d="M141.69,76.96c-2.28-.26-3.62-1.66-4.04-4.2,.45-.18,.89-.36,1.34-.54,.28,1.94,2.02,2.64,2.8,4.16,0,0,0,0,0,0,.15,.23,.11,.42-.09,.58Z"/>
      <path class="cls-42" d="M125.98,89.5c-3.38-5.07-4.53-10.4-1.48-16.22,.86-1.08,1.73-2.17,2.59-3.25,.37,.39,.74,.77,1.11,1.16,.08,1.27-1.35,1.97-.99,3.35-.03,1.19-.84,1.92-1.3,2.86-1.95,3.29-1.95,3.94,.02,7.18,.77,1.27,1.83,2.37,1.84,4.08-.04,.41-.18,.78-.45,1.07-.5,.29-.95,.22-1.35-.22Z"/>
      <path class="cls-49" d="M126.83,74.31c-.88-1.78,.74-2.17,1.37-3.12,.78-.54,1.57-1.07,2.35-1.61,.75,1.56,.8,3.23,.11,4.75-.74,1.65,0,1.6,1.01,1.39,.52-.11,1.08-.58,1.48,.06,.39,.62-.05,1.19-.43,1.61-1.23,1.34-1.3,2.56,.17,3.73-1.54,1.61-2.39,1.59-3.06-.29-.41-1.14-1.12-2.03-1.57-3.15-.92-2.3-.55-3.81,1.79-5.14-1.57,.29-1.86,2.18-3.22,1.78Z"/>
      <path class="cls-69" d="M81.93,132.67c0-.35,0-.7,0-1.04,.95-.2,1.14,.64,1.43,1.33,.49,1.19,1.02,2.36,1.61,3.48,1.05,2,2.18,3.37,4.66,2.54,2.24-.75,4.15,.86,5.53,2.63,3.28,4.22,7.49,6.78,12.18,7.62,5.51,.98,10.39,4.04,15.81,5.14,.78,.16,1.52,.44,1.79,1.44-.21,.4-.55,.51-.94,.53-3.31-.65-6.38-2.15-9.47-3.54-1.04-.47-2.05-.74-3.16-.67-3.53-1.3-7.19-2.06-10.67-3.59-2.68-1.18-4.7-3.3-6.82-5.3-.59-.56-1.12-1.24-1.79-1.64-1.32-.79-2.34,.04-2.19,1.7,.1,1.09,.65,1.92,1.3,2.71,2.29,2.8,2.66,8.36,.68,11.35-.85,1.3-1.9,1.64-3.11,.26-1.94-2.21-2.37-5-2.64-7.88-.45-4.83-1.17-9.57-3.27-13.91-.31-1.05-.62-2.11-.93-3.16Z"/>
      <path class="cls-125" d="M124.94,155.82c-6.49-2-12.77-4.76-19.37-6.38-4.14-1.02-7.78-3.29-10.68-7.06-1.76-2.29-3.9-3.61-7.03-2.2-1.98,.89-2.64-2.06-3.56-3.58-.93-1.55-1.07-3.62-2.38-4.97-2.45,1.12-2.76-2.55-4.67-2.64,1.85-2.42,2.26-2.35,4.04-.04,1.28,1.67,2.44,3.39,3.25,5.39,.92,2.29,2.91,3.27,4.72,3.33,3.87,.12,6.19,2.95,8.68,5.46,4.25,4.29,9.2,5.88,14.79,6.07,2.24,.07,4.94-.21,6.36,2.76,.35,.72,1.08,1.02,1.76,1.18,4.1,.95,8.12,1.29,11.87-1.55,1.72-1.3,3.29-2.91,5.31-3.66-3.77,3.88-7.14,8.59-13.09,7.89Z"/>
      <path class="cls-13" d="M146.57,134.16c7.44,.57,14.88,1.15,22.33,1.7,1.08,.08,2.17,0,3.26,0,.77-.53,1.63-.41,2.47-.44,3.85-.15,7.66,.7,11.51,.64,1.07-.02,2.16,.22,2.86,1.36,.64,.94,1.79,.15,2.67,1.05-1.73,.96-3.48,.19-5.11,.58-8.15-.39-16.3-.79-24.46-1.17-1.01-.05-2.02,0-3.02,0-4.56-.5-9.11-1.01-13.67-1.5-.76-.08-1.57,.08-2.24-.5-.38-.81-1.17-1.77,.6-1.64,.93,.07,1.86-.05,2.8-.08Z"/>
      <path class="cls-100" d="M124.94,90.07c.56,.32,1.1,.73,1.24,1.43,.36,1.85,.33,1.86,2.03,.79,1.06-.53,1.74,.34,2.48,.88,3.94,2.88,8.31,4.2,12.96,4.49,2.13,.13,4.15-.47,6.06-1.53,1.01-.52,1.69-1.64,2.82-1.93,.87-.53,1.59-1.15,1.18-2.46-.16-.5-.38-1.07,.11-1.41,.63-.43,.98,.22,1.33,.66,3.66,4.61,8.25,8.08,12.06,12.49,1.19,1.38,2.52,2.52,4.02,3.44,4.44,5.54,9.75,10.06,14.5,15.23-.37,1.76,1.58,1.46,1.86,2.65-2.09,1.04-3.88,.71-5.53-1.42-1.57-2.03-3.52-2.71-5.75-2.59-1.08,.06-1.77-.33-2.29-1.3-.76-1.62-1.25-3.4-2.22-4.91-.62-1.43-1.57-2.55-2.64-3.55-.54-.55-1.03-1.15-1.59-1.68-.82-.92-1.85-1.31-2.95-1.56-.3-.09-.57-.23-.84-.41-.43-.33-.95-.42-1.43-.6-1.09-.32-2.2-.12-3.29-.16-1.96,.06-3.86,.42-5.67,1.26-1.33,.46-1.98,1.85-2.96,2.79-1.17,1.22-1.16,2.76-.81,4.31,.68,3.02,1.44,6.01,3.84,8,.37,.3,.66,.73,.54,1.33-2.17,1.37-3.78-.22-5.2-1.56-1.72-1.64-3.6-2.96-5.42-4.37-.95,.71,.06,3.13-2.01,2.74-.21-.85-.43-1.69-.64-2.54-.73-.66-1.59-1.12-2.22-1.93-2.84-2.91-5.91-5.47-9.18-7.74-.77-.53-1.66-.97-1.92-2.11-.25-.28-.5-.57-.75-.85,.49-.37,.3-.86-.05-1.02-2.47-1.21-4.02-3.76-6.23-5.36-1.92-1.38-3.16-3.79-5.43-4.73-.31-.13-.64-.58-.37-1.08,.22-.4,.62-.55,1.02-.4,.44,.17,.84,.45,1.27,.65,.84,.38,1.07,2.34,2.07,1.63,1.13-.79,2.66-1.1,3.31-2.67,.31-.75,.72-1.34,1.56-1.31,.96,.03,1.14-.69,1.12-1.57Z"/>
      <path class="cls-104" d="M141.38,121.1c1.54-.51,.48-2.17,1.08-3.11,.29-.46,.12-1.37,.86-1.35,.52,0,.55,.9,.84,1.08,3.33,2.04,5.38,6.53,9.78,6.54,.74-.73,1.83-.22,2.57-.95,1.22-.3,2.48,.56,3.68-.18,1.93-.24,3.87-.34,5.74-.96,.47-.08,.93-.05,1.36,.17,.69,.68,.87,1.84,1.73,2.37,.61,1.81-1.07,1.99-1.74,2.94,1.2,1.21,2.48,1.96,4.07,1.42,1.03-.35,1.76-1.2,2.08-2.33,.51-1.82-1.36-1.86-1.86-2.94-.05-.24-.03-.47,.07-.7,.53-.75,1.66-.29,2.07-1.29,.18-.93,0-1.97,.66-2.75,.59,.52,.91,1.13,2.01,1.05,2.23-.17,4.52,.04,6,2.65,1.18,2.08,3.24,2.09,5.21,2.04,1.35,2.44,3.1,4.36,5.29,5.93,2.48,1.78,5.65,2.83,6.55,6.68,.1,.44,.82,.7,1.25,1.05-3.93,.25-7.74-1.28-11.68-1.03-4.78-.4-9.55-.8-14.33-1.19-.84-.07-1.71,.08-2.51-.37-.22-1.53-.9-1.98-2.1-1.08-1.3,.96-2.17,.5-2.78-.99-.33-.82-.73-1.54-1.62-1.7-2.16-.4-3.77-1.86-5.32-3.47-1.07-1.11-2.44-1.71-3.83-1.68-4.2,.09-8.11-1.75-12.21-2.24-1.38-.17-2.35-1.27-3.03-2.62,.04-.33,.07-.65,.11-.98Z"/>
      <path class="cls-22" d="M120.21,101.84c-4.87-2.06-9.63-4.46-14.79-5.59-1.59-.35-3.28,0-4.78-.88-.08-.15-.15-.42-.24-.43-3.03-.31-4.98-3.06-7.69-4.25-4.51-1.98-8.91-4.41-13-7.48-2.9-2.18-5.59-4.5-8.3-8.03,4.03,1.76,7.49-.54,11.15,.66,4.07,1.33,7.94,3.04,11.54,5.38,4.14,2.69,8.44,5.16,11.82,9.18,1.68,2,3.59,3.74,6.01,4.78,2.34,1.01,3.87,3.72,6.48,4.34,.7,.68,1.85,.9,1.81,2.31Z"/>
      <path class="cls-80" d="M132.04,171.05c-1.04-.75-3.14,.34-3.63-1.63-.46-1.83,1.23-2.5,2.44-3.31,4.42-2.97,8.82-6,13.22-9.02,.45-.31,.85-.87,1.44-.37,.41,.35,.44,.85,.34,1.42-.96,5.76-8.41,12.83-13.81,12.9Z"/>
      <path class="cls-7" d="M66.04,136.87c1.88,.01,3.76,.03,5.63,.04-1.88,.78-3.76,.72-5.63-.04Z"/>
      <path class="cls-61" d="M59.53,136.4c-.19,.37-.37,.74-.56,1.11-.98-.09-2-.38-2.95-.22-2.1,.36-2.56-.48-1.75-2.54,1.04-.78,2.34-.61,3.49-1.38,1.14-.77,2.86-.55,2.76,1.94-.16,.56-.41,1.02-.99,1.08-.35-.23-.4-.7-.66-1.09-.12,.68,.4,.78,.65,1.09Z"/>
      <path class="cls-102" d="M95.51,111.08c-.88-1.11-2.19-1.68-2.91-2.99-2.64-5.05-1.46-8.17,3.62-9.47,.9-.23,1.83-.37,2.77-.4,4.15-.13,8.16,.81,12.11,2.12,.75,.25,1.72,.59,1.6,1.58-.12,1.03-1.17,.93-1.93,.98-1.86,.11-3.73-.1-5.59,.14-.62,.26-1.19,.61-1.69,1.09-.23,.23-.47,.45-.72,.66-.32,.29-.65,.57-.86,.99-.23,1.72-.22,3.39,.2,5.09,.64,2.63,.09,3.25-2.33,2.85-1.61-.5-2.95-1.56-4.28-2.63Z"/>
      <path class="cls-87" d="M95.51,111.08c1.6,.18,2.58,1.84,4.12,2.17,2.96,1.05,6.02,1.71,8.88,3.1,6.26,1.98,12.6,3.63,18.9,5.39,2.06,.58,4.33,.5,6.41-.53,1.97-.51,3.02-2.01,3.52-4.12,.48-.45,1.13-.43,1.65-.76,.77,.55,1.44,1.2,1.75,2.22-.3,.02-.71-.1-.79,.33-.79,3.95-3.64,4.15-6.38,4.32-8.31,.53-16.17-1.94-23.98-4.67-4.06-1.42-8.15-2.82-11.82-5.36-.84-.58-1.9-.85-2.26-2.09Z"/>
      <path class="cls-34" d="M104.4,102.75c1.71-1.23,3.61-.48,5.42-.66,.81-.08,1.64-.01,2.47-.3-5.79-2.15-11.5-4.92-17.76-1.86-3.03,1.48-3.72,3.39-2.29,6.71,.2,.47,.49,.89,.35,1.46-.99-.83-1.55-1.95-1.8-3.29,.06-4.01,.79-5.23,4.32-6.25,6.36-1.84,12.47-.13,18.51,1.97,1.02,.36,1.97,.98,2.95,1.48,.25,1.03-.45,1.32-1.04,1.69-.54,.2-1.1,.24-1.66,.15-2.19-.72-4.43-.24-6.65-.39-.97-.07-2.02,.23-2.83-.7Z"/>
      <path class="cls-166" d="M115.55,103.33c.35-.44,.7-.89,1.04-1.33,3.58,1.4,6.73,3.78,10.14,5.56,.22,.07,.42,.19,.6,.36,.65,1.09,1.63,1.81,2.45,2.69,.6,.65,1.49,1.33,1.24,2.32-.33,1.26-1.47,.34-2.21,.63-2.29,.21-4.33,1.4-6.49,2.07-.83,.26-1.66,.48-2.52,.48-2.75,.45-5.06-.96-7.41-2.23-1.75-.92-2.74-2.64-3.61-4.46,.2-1.99,1.55-1.66,2.64-1.51,2.08,.28,4.1,.92,6.16,1.34,.76,.16,1.6,.14,2.1-.73,.5-.87-.05-1.46-.57-2.01-1-1.33-3.06-1.15-3.56-3.18Z"/>
      <path class="cls-28" d="M126.85,107.9c-.06-.1-.11-.22-.12-.34,.23-.26,.46-.52,.69-.78,4.17,2.71,8.19,5.65,11.57,9.56-.05,1.57-.6,1.5-1.41,.54-.11,0-.22-.02-.32-.03-3.53-2.88-7-5.87-10.4-8.95Z"/>
      <path class="cls-163" d="M152.53,94.19c-.59,.93-1.18,1.86-2.2,2.28-.78,.31-1-.34-1.27-.91,.14-1.12-.82-1.87-.8-2.96,.27-.33,.64-.47,.99-.64,1.96-.98,1.95-.99,.38-2.53-.32-.31-.33-.76-.29-1.21,.1-.52,.36-.91,.79-1.14,.47,.13,.93,.26,1.4,.39,1.82,1.96,1.49,4.32,.99,6.72Z"/>
      <path class="cls-178" d="M141.69,76.96c.03-.19,.06-.39,.09-.58,1.76,3.29,4.98,5.21,6.51,8.71,.01,1.14-.38,2.08-1.12,2.86-.19,.14-.39,.2-.62,.18-2.71-1.16-4.26-3.31-4.43-6.61,.01-.12,.03-.24,.05-.37-.08-1.41,.41-2.9-.48-4.19Z"/>
      <path class="cls-76" d="M147.18,88.11c-.27-1.3,.62-2.07,1.11-3.02,.62,.66,1.24,1.33,1.85,1.99-.14,.31-.29,.63-.43,.94-.84,.27-1.63,2.22-2.53,.09Z"/>
      <path class="cls-115" d="M149.27,95.34c.35,.38,.71,.76,1.06,1.14-3.76,2.92-7.87,1.92-11.91,1.21-3.85-.67-6.99-3.16-10.22-5.4-.8-.87-1.78-1.57-2.23-2.79,.45,.02,.89,.03,1.34,.05,.64-.25,.94,.36,1.36,.68,.68,.64,1.44,1.14,2.17,1.68,3.74,3.31,7.99,3.64,12.47,2.74,1.37-.27,2.77,0,4.15-.12,.69,.02,1.34,.18,1.81,.8Z"/>
      <path class="cls-72" d="M147.18,88.11c.87,.88,1.67-.73,2.53-.09,.12,.4-.29,1.27,.5,1.06,.64-.18,1.44-1.03,1.59,.25,.12,.98,.15,2.39-1.03,2.89-.78,.33-1.66,.4-2.49,.59-1.27,.94-2.34,.3-3.39-.52-.94-2.97-3.38-4.38-5.29-6.34-1.32-.84-2.51-1.97-4.07-2.23-.53-.08-.93,.31-1.4,.46-.21,.07-.42,.11-.64,.11-.6-.05-1.11-.25-1.32-.97-.13-1.38,1-1.6,1.65-2.27,1.1-.86,2.14-.6,3.18,.17,.62,.46,1.37,.62,1.91,0,.57-.65-.08-1.24-.34-1.82-.64-1.46-1.38-2.88-1.52-4.54,2.56,1.21,2.94,4.67,5.11,6.28,0,0,.06-.03,.06-.03,.4,.5,.23,1.15,.31,1.72,.43,3.26,1.33,4.33,4.39,5.14,.1,0,.18,.05,.26,.12Z"/>
      <path class="cls-174" d="M133.83,81.07c-.49,.73-.97,1.45-1.46,2.18-.73,.2-1.33-.4-2.02-.45-.75-.18-1.37-.63-1.97-1.13-.43-.37-.81-.8-1.21-1.22-.32-.38-.62-.79-.64-1.33-.05-1.21-.38-1.9-1.11-2.2,.32-.98,1.39-1.44,1.41-2.62,1.25-.97,1.87-2.79,3.62-3.38,.17,1.37,.56,2.53-1.2,3.01-.46,.13-2.41,1.35-.26,2.45,.48,.24,.6,.56,.24,.96-.86,.95-.25,1.34,.48,1.66,.38,.17,.79,.36,.76,.85-.2,2.94,1.24,1.75,2.42,1.25,.31-.01,.63-.02,.94-.04Z"/>
      <path class="cls-97" d="M130.56,82.23c.89-.31,1.37,.31,1.81,1.02,.32,.68,.96,.4,1.43,.61,1.36,.65,1.02,1.69,.48,2.76-.27,.55-.52,1.1-.14,1.69,.46,.69,1.01,.48,1.65,.28,1.19-.39,2.42-.54,3.56,.28,.41,1.51,.29,2.73-1.32,3.19,.85,.31,1.36-.82,2.18-.64,1.47,.8,2.99,1.41,4.61,1.77,1.05,.24,2.36,.46,2.56,2.15-2.31-.23-4.59,.21-6.86,.55-4.01,.61-7.35-1-10.39-3.74q1.04-.35,2.16-.09c-.79-.96-2.05-1.72-.97-3.29-1.76-.87-1.73,2.11-3.2,1.9-.27-.37-.55-.74-.82-1.11,.02-.35,.04-.7,.07-1.05,.5-.7-.15-1.65,.39-2.34,.32-.35,.73-.56,1.16-.88-.68-.16-1.19,.41-1.79,.26-.5-.19-.63-.61-.55-1.15,.28-.71,.77-1.14,1.41-1.4,.9-.05,1.77-.25,2.56-.76Z"/>
      <path class="cls-46" d="M127.78,86.34c.35,.83,.51,1.62-.4,2.15-.46-1.41-1.37-2.5-2.13-3.7-2.14-3.41-2.1-4.28,.17-7.87,.75,0,1.51,0,2.33,0-.24,1.17-1.74,2.29,.05,3.23,.71,1.71-1.43,2.53-1.01,4.14,.14,.35,.28,.71,.41,1.06,.48,.11,.71,.41,.57,.98Z"/>
      <path class="cls-90" d="M152.94,107.37c1.88-1.29,3.97-1.55,6.11-1.49,2.08,2.25,1.67,5.2,1.79,8-.37,.81-1.01,.7-1.59,.48-.86-.32-1.36,0-1.95,.77-1.19,1.55-1.64,1.37-2.66-.81,.39-1.59,.66-3.21,.93-5.11-1.21,.48-2.02-.19-2.7-1.16-.09-.24-.07-.46,.06-.68Z"/>
      <path class="cls-160" d="M160.4,114.15c-.23-2.8-.59-5.57-1.34-8.27,1.3-.17,2.59-.25,3.81,.44-.18,1.33,.77,3.01-.95,3.85-.51-.37-.51-.95-.49-1.53-.09,.78,.07,1.56,.02,2.34-.02,.31,0,.31,.34,.11,1.36,.37,1.97,2.29,3.57,2.14,.59,.89,.39,1.95,.53,2.94-.02,.98-.45,1.68-1.24,2.01-.61,.25-1.56,.21-1.36-.7,.59-2.63-1.09-2.11-2.28-2.34-.23-.04-.44-.15-.63-.31-.11-.23-.1-.46,.03-.68Z"/>
      <path class="cls-77" d="M156.26,123.74c-.44,2.05-1.55,.32-2.32,.52-3.35-2.14-4.32-5.9-5.06-9.72-.31-1.62-.36-3.47,1.34-4.49,.66,1.86-.22,3.89,.53,5.78,.27,.68,.37,1.47,.71,2.15,.54,1.54,1.65,2.46,2.78,3.4,.79,.65,1.82,1.06,2.02,2.36Z"/>
      <path class="cls-120" d="M174.37,119.06c-.04,1.21,.45,2.4,.13,3.63-2.66,.21-3.48-.61-3.58-3.46-.06-1.73-.45-3.49,.64-5.03,.24-.17,.48-.18,.73-.01,1.13,1.39,1.45,3.21,2.08,4.87Z"/>
      <path class="cls-137" d="M165.03,113.28c-2.28,1.59-2.37-.82-3.07-2.12-.33-.41-.35-.81,.07-1.17,1.03-1-.7-2.82,.85-3.67,.45,.14,1.02-.03,1.26,.64,.64,1.62,1.29,3.24,1.25,5.08,.04,.24,.05,.47,.03,.71-.05,.24-.18,.42-.38,.53Z"/>
      <path class="cls-129" d="M151.11,118.52c-1.42-2.67-1.74-5.49-.89-8.47,.93-.86,1.41-2.31,2.72-2.68,0,.19,.01,.38,.02,.57,.44,.71,.59,1.45,.24,2.26-.45,.62-.56,1.45-1.03,2.06-1.25,.99-.7,2.28-.43,3.51,.18,.83,.67,1.6,.55,2.48-.15,1.1-.64,.99-1.18,.27Z"/>
      <path class="cls-3" d="M165.03,113.28c.04-.21,.08-.41,.12-.62,.11-.77,.29-1.53,.4-2.31,.35-2.45,.39-2.46,2.42-1.4,.57,.4,1.18,.77,1.49,1.5,.41,.58-.78,.88-.2,1.49,.08,.48,.04,.92-.23,1.32-.64,.79-1.97-.48-2.36,1.02-.24,.63-.41,1.31-.82,1.84-.09,.06-.18,.12-.27,.17-.62-.91-.21-2.06-.54-3.04Z"/>
      <path class="cls-169" d="M167.98,108.96c-.94-.16-2.23-1.01-1.69,1.36,.2,.89-.31,1.83-1.13,2.34,0,0,.01,.02,.01,.02-.2-1.77-.5-3.53-.49-5.32,1.39-.22,2.42,.48,3.3,1.6Z"/>
      <path class="cls-157" d="M168.9,111.64c-.44-.78,.53-.69,.57-1.18,1.35,.85,2.05,2.33,2.83,3.72-.23,.02-.47,.05-.7,.07-.56,.29-1.02,.03-1.45-.36-.56-.65-.58-1.69-1.25-2.26Z"/>
      <path class="cls-3" d="M164.68,107.37c.92,1.69,.49,3.53,.49,5.32-.68-1.83-1.02-3.75-1.04-5.73,.18,.14,.37,.27,.55,.41Z"/>
      <path class="cls-40" d="M151.11,118.52c.79,.19,.89-.11,.55-.88-.55-1.22-.97-2.52-.85-3.91,.06-.7-.17-1.88,1.12-1.45,1.17,.67,1.47,2.14,2.28,3.14,.99,1.22,1.98,1.53,3.17,.48,.93-.82,1.88-1.45,3.12-1.03,.45-.11,.89-.24,1.34-.32,.97-.17,1.91,.07,2.51,.92,.65,.94-.7,1.36-.68,2.34,.98,0,1.59-.48,1.89-1.49,0,0,.03,.04,.03,.04,.47-.83,.95-.68,1.48-.06,1.26,1.49,2.17,3.15,2.03,5.32-.43,.64-.76,1.46-1.7,1.05-.44,0-.87,0-1.31,0-2.54-2.92-6.99-3.94-10.03-2.23,.76,1.94,3.05,1.61,3.93,3.31-1.25,1.29-2.49-.22-3.74-.01-1.8-1.63-4.27-2.43-5.15-5.22Z"/>
      <path class="cls-150" d="M160,123.75c-1.79-.38-3.37-1.3-4.76-2.59-.48-.44-1.3-1.03,.04-1.63,3.31-1.49,6.4-.48,9.52,.76,1.1,.44,1.39,1.23,1.3,2.38-1.9,1.33-4.03,1.02-6.1,1.08Z"/>
      <path class="cls-179" d="M171.66,123.71c1.2,.65,3.26,.4,2.64,2.99-.55,2.29-2.92,3.9-4.88,3.23-1.46-.5-2.77-1.43-3.87-3.19,1.49-.16,3.1,.22,3.3-1.95,.62-1.39,1.5-1.95,2.81-1.09Z"/>
      <path class="cls-147" d="M170.27,113.79c.44,.16,.89,.31,1.33,.47-.03,1.94-.21,3.9-.04,5.82,.16,1.8,1.47,2.45,2.95,2.61-.77,1.18-1.93,.32-2.85,.67-.62,.21-1.12-.01-1.51-.58-.09-2.61-.66-4.95-2.81-6.42-.71-.48-.77-1.47-1.28-2.11,.27-2.7,1.69-1.19,2.76-.95,.07,1.73,1.09-.11,1.46,.49Z"/>
      <path class="cls-88" d="M170.24,122.68c.47,.23,.95,.45,1.42,.68,.02,.12,.03,.24,.01,.36-1.04,.01-1.94,.5-2.81,1.09-1.58,.23-1.9-.61-1.44-2.13,.54-.27,.76-1.11,1.49-1.04,1.08-.67,1.14,.29,1.33,1.04Z"/>
      <path class="cls-116" d="M59.53,136.4c-1.43,.86-1.56-.46-1.71-1.42-.12-.77,.6-1.11,1.09-1.04,1.69,.27,.43,1.62,.63,2.46,0,0,0,0,0,0Z"/>
      <path class="cls-65" d="M102.53,104.31l.49-.53c.36-.39,.83-.32,1.26-.42,.86,.18,1.48,.89,2.27,1.26,1.23,.58,1.61,2,.78,2.98-1.01,1.19-.23,1.61,.33,2.18,2.04,2.14,4.29,3.95,6.88,5.17,.99,.66,2.01,1.28,2.91,2.09,.35,.32,.7,.77,.45,1.33-.25,.55-.73,.54-1.2,.4-1.48-.44-2.99-.75-4.43-1.36-3.25-1.83-6.74-3.22-9.2-6.49-1.72-2.28-1.91-4.07-.53-6.62Z"/>
      <path class="cls-117" d="M104.35,103.65c-.44,.04-.88,.08-1.32,.12,.17-.84,.93-.67,1.38-1.03,3.27-.12,6.56-.59,9.79,.46,1.52,1.33,3.24,2.19,5.12,2.66,.94,.58,1.76,1.29,1.35,2.67-.44,1.46-1.58,1.63-2.69,1.43-2.14-.38-4.26-1-6.41-1.32-.81-.12-2.08-1.09-2.42,.83-1.2-.96-1.27-1.65-.3-2.89,.73-.93,1.87-1.22,2.8-2.38-2.53-.5-4.96,.12-7.29-.57Z"/>
      <path class="cls-136" d="M108.12,116.88c-2.85-1.14-5.92-1.63-8.49-3.62,2,.47,2.58-.11,1.85-2.48-.58-1.88-.99-3.99,.22-5.9-.28,4.94,2.47,7.52,5.86,9.63,.92,.57,1.99,.96,2.52,2.13-.58,.84-1.27,.62-1.96,.24Z"/>
      <path class="cls-87" d="M109.97,116.37c-2.13-1.06-4.14-2.29-5.9-4.07-2.03-2.04-2.96-4.4-2.37-7.44,.28-.19,.55-.38,.83-.56-.7,4.38,.22,6.54,3.94,8.95,1.94,1.26,3.93,2.4,5.91,3.59-.97,.91-1.73,.48-2.4-.48Z"/>
      <path class="cls-107" d="M109.97,116.37c.8,.16,1.6,.32,2.4,.48,1.7,.52,3.41,1.05,5.65,1.74-1.29-1.8-2.82-2.2-3.9-3.26-.5-.82-1.69-.9-1.81-2.12,2.47,.95,4.77,2.65,7.56,2.17-.47,1.25-1.15,1.29-1.66,.83,1.73,.95,3.79,2.21,6.21,2.6,1.19,.19,2.5,.16,3.4,1.34,.35,1.4,1.34,.53,2.03,.69,1.49,.35,3.18-.65,4.51,.87-2.81,1.6-5.77,1.21-8.62,.43-5.9-1.62-11.75-3.5-17.62-5.27,.62-.16,1.37,.31,1.85-.5Z"/>
      <path class="cls-32" d="M134.36,121.72c-2.51-.33-5.11,.49-7.74-.85,.54-.17,.89-.27,1.25-.38,.67-.76,1.55-.66,2.38-.69,1.66-.05,3.17-.56,4.52-1.65,.87-.57,1.99-.44,2.79-1.24l.02-.02c.15,2.65-.83,4.33-3.22,4.84Z"/>
      <path class="cls-63" d="M119.31,105.88c-2.19,.29-4.11-.07-5.12-2.66,.45,.04,.9,.07,1.35,.11,1.25,.85,2.51,1.7,3.76,2.55Z"/>
      <path class="cls-149" d="M135.35,118.51c-2.12,2.46-4.88,1.82-7.48,1.98-3.45-.87-6.99-1.42-10.08-3.58-.24-.17-.46-.39-.9-.76,1.08-.63,2.19-.05,2.99-.75,2.24-.24,4.28-1.26,6.37-2.09,.91-.36,1.8-1.04,2.86-.56,1.49,1.03,3.42,.8,4.82,2.15,1.01,.97,2.09,1.84,1.42,3.62Z"/>
      <path class="cls-74" d="M112.31,113.22c.52,.8,1.52,1.08,1.81,2.12-3.52-1.79-6.81-3.87-8.68-7.66,.43-1.35,1.7,.99,1.72-.95,0-.92-.05-1.86-1.27-1.52-1.19,.33-.93-1.17-1.55-1.56,2.58-.95,5.23-.31,7.84-.35,1.21-.02,.67,.99,.3,1.4-.7,.8-1.6,1.31-2.52,1.8-1.1,.58-2.03,1.48-.84,2.99,1.25,1.03,1.77,2.86,3.19,3.72Z"/>
      <path class="cls-144" d="M135.35,118.51c-.05-1.83-1.13-2.72-2.43-3.45-1.29-.73-2.77-1.08-3.81-2.32,.5,.1,1,.19,1.62,.31-.91-2.22-3.28-2.84-3.87-5.15,4.08,2.23,7.51,5.44,10.71,9-.34,1.23-1.4,1.2-2.21,1.6Z"/>
      <path class="cls-5" d="M147.39,95.33c-1.21-.84-2.4-1.62-3.93-1.66-1.37-.04-2.6-.73-3.46-2.03-.95-1.25-.24-2.02,.63-2.74,2.09-.28,3.16,1.43,4.4,2.83,1.04,.55,2.09,1.07,3.27,1.09,.93,.54,2.53,.76,.99,2.52-.63,0-1.26,0-1.88,0Z"/>
      <path class="cls-30" d="M146.93,87.99c-1.94,.63-3.48-.34-4.17-2.49-.46-1.43-.37-2.91-.52-4.37,.17,.28,.48,.54,.5,.83,.22,3.06,2.33,4.43,4.2,6.03Z"/>
      <path class="cls-82" d="M128.13,90.66c1.01-.7,1.04-1.76,.75-3.09,1.16,1.14,2.41-.26,3.49,.54-1.58,2.04-1.3,2.72,1.78,3.92-1.37,2.29-2.76-.61-4.01,.11-.67-.49-1.34-.99-2.01-1.48Z"/>
      <path class="cls-165" d="M145.02,91.72c-1.38-.87-2.76-1.74-4.15-2.61-.19,.13-.4,.16-.61,.09-.76-.34-.76-1.75-1.83-1.66-.32-.02-.62-.07-.93-.17-.51-.21-.88-.63-1.28-1.02-.82-.7-1.77-1.29-1.94-2.6,.21-.48,.51-.85,1-.97,1.54,.83,2.63,2.63,4.56,2.6,1.87,.78,2.55,3.38,4.69,3.87,.3,.07,.32,1.62,.48,2.48Z"/>
      <path class="cls-109" d="M137.53,87.01c.35-.04,.7-.08,1.05-.12,.51,.41,.73,1.05,.98,1.66,.03,.24-.05,.43-.23,.55-1.29,.16-2.61-.57-3.92,.44-.56,.43-1.73-.22-1.92-.81-.22-.69-1.21-1.95-.04-2.46,1.65-.72,.54-1.56,.34-2.41,.16-.04,.33-.08,.49-.12,.78,.71,1.55,1.41,2.33,2.12-.3,1-.51,1.89,.91,1.15Z"/>
      <path class="cls-109" d="M139.85,85.36c-.39,.55-1.06,.74-1.41,.39-1.01-1.05-2.39-1.61-3.15-2.98,1.72,.41,3.15,1.47,4.56,2.6Z"/>
      <path class="cls-36" d="M126.79,84.3c-.07-1.07-2.15-2.73,.69-2.99,.13-.01,.21-.75,.32-1.15,.29,.33,.58,.66,.87,.98,.35,.83,.86,1.71-.45,2.09-.49,.34-.72,1.11-1.43,1.07Z"/>
      <path class="cls-46" d="M128.22,83.23c.62-.57,.42-1.36,.45-2.09,.64,.34,1.1,1.07,1.89,1.09-.63,.79-1.05,2.17-2.34,1Z"/>
      <path class="cls-109" d="M140.35,88.99c.17,.04,.35,.08,.52,.11-.55,.73-1.16,1.43-.88,2.52-.46,.32-.89,.73-1.38,.92-.71,.28-1.44,.15-1.78-.72-.14-.35-.18-1.06,0-1.22,.91-.79,.84,1.05,1.68,.79,.26-.71,.54-1.5,.82-2.29,0,0,.17-.18,.17-.18,.3-.23,.58-.2,.85,.06Z"/>
      <path class="cls-180" d="M127.78,86.34c-.19-.33-.38-.65-.57-.98,.85-.95,1.81-1.41,3.11-.92-.56,1.34-1.28,2.09-2.54,1.9Z"/>
      <path class="cls-142" d="M160.52,114.87c-.97,.87-2.24,1.08-3.24,2.02-1,.94-2.12,.95-3.06-.51-.85-1.32-1.98-2.41-2.28-4.11,.23-.8-.22-1.96,.95-2.26,1.16,1.14,1.66,2.65,1.95,4.28,.74,1.11,1.41,2.41,2.19-.03,.98-3.05,2.25,.12,3.37-.13,.04,.24,.08,.48,.12,.72Z"/>
      <path class="cls-153" d="M154.83,114.3c-1.26-1.07-1.6-2.68-1.95-4.28,.03-.69,.05-1.38,.08-2.07,.88-.58,1.84,2.34,2.68-.07,.19,.24,.57,.52,.53,.7-.36,1.93,.28,4.17-1.34,5.73Z"/>
      <path class="cls-132" d="M162.02,109.99c-.02,.39-.04,.78-.07,1.17-.23,.53,.11,1.23-.45,1.72-1.13-1.9-.28-4.13-.94-6.1,1.26,.69,1.27,2,1.46,3.21Z"/>
      <path class="cls-128" d="M170.24,122.68c-.47-.31-.63-1.11-1.33-1.04-.63-1.77-1.19-3.58-2.33-5.07-.36-.47-.64-.23-.97-.2,.15-.71,.3-1.41,.45-2.12,2.97,1.12,5.16,5.52,4.19,8.43Z"/>
      <path class="cls-6" d="M170.27,113.79c-.19,.36-.35,.76-.59,1.08-.49,.64-1.09,.64-1.57,.05-.91-1.12,.5-1.05,.7-1.61,.03-.55,.06-1.1,.09-1.66,1.2,.12,1.5,.96,1.37,2.15Z"/>
      <path class="cls-85" d="M118.21,109.06c-.87-.04-1.75-.07-1.66-1.5,.08-1.3,.92-1.17,1.68-1.15,1.02,.02,1.6,.58,1.51,1.78-.09,1.13-.78,1.1-1.53,.87Z"/>
      <path class="cls-55" d="M137.53,87.01c-.06,.77-.34,1.4-1.1,1.25-.53-.1-.97-.62-1.02-1.24-.07-.91,.56-1.09,1.21-1.15,.3,.38,.61,.77,.91,1.15Z"/>
      <path class="cls-72" d="M140.35,88.99c-.28-.02-.57-.04-.85-.06-.56-.53-1.2-1.02-.92-2.04,2.14-.96,.95,1.65,1.77,2.1Z"/>
    </g>
  </g>
</svg>