<?xml version="1.0" encoding="UTF-8"?>
<svg id="Layer_2" data-name="Layer 2" xmlns="http://www.w3.org/2000/svg" viewBox="0 0 290 290">
  <defs>
    <style>
      .cls-1 {
        fill: #4a5162;
      }

      .cls-2 {
        fill: #3a3d4b;
      }

      .cls-3 {
        fill: #d5e3ef;
      }

      .cls-4 {
        fill: #0d4157;
      }

      .cls-5 {
        fill: #4b5e81;
      }

      .cls-6 {
        fill: #5e7eaa;
      }

      .cls-7 {
        fill: #484448;
      }

      .cls-8 {
        fill: #f82459;
      }

      .cls-9 {
        fill: #242b35;
      }

      .cls-10 {
        fill: #2f292c;
      }

      .cls-11 {
        fill: #81a4b6;
      }

      .cls-12 {
        fill: #711628;
      }

      .cls-13 {
        fill: #a7b2bb;
      }

      .cls-14 {
        fill: #cebdb0;
      }

      .cls-15 {
        fill: #323744;
      }

      .cls-16 {
        fill: #464651;
      }

      .cls-17 {
        fill: #8b8d94;
      }

      .cls-18 {
        fill: #b5b6ba;
      }

      .cls-19 {
        fill: #70181f;
      }

      .cls-20 {
        fill: #431723;
      }

      .cls-21 {
        fill: #858a95;
      }

      .cls-22 {
        fill: #1e222d;
      }

      .cls-23 {
        fill: #9f1125;
      }

      .cls-24 {
        fill: #993917;
      }

      .cls-25 {
        fill: #eff0f4;
      }

      .cls-26 {
        fill: #695756;
      }

      .cls-27 {
        fill: #342f35;
      }

      .cls-28 {
        fill: #eeedf0;
      }

      .cls-29 {
        fill: #af0c20;
      }

      .cls-30 {
        fill: #50618b;
      }

      .cls-31 {
        fill: #f41a54;
      }

      .cls-32 {
        fill: #594f52;
      }

      .cls-33 {
        fill: #cc0e28;
      }

      .cls-34 {
        fill: #48484c;
      }

      .cls-35 {
        fill: #555256;
      }

      .cls-36 {
        fill: #5f565f;
      }

      .cls-37 {
        fill: #333440;
      }

      .cls-38 {
        fill: #530b13;
      }

      .cls-39 {
        fill: #8a726f;
      }

      .cls-40 {
        fill: #3f3b43;
      }

      .cls-41 {
        fill: #210d14;
      }

      .cls-42 {
        fill: #cbb6af;
      }

      .cls-43 {
        fill: #747075;
      }

      .cls-44 {
        fill: #e1cac0;
      }

      .cls-45 {
        fill: #160c11;
      }

      .cls-46 {
        fill: #8b7979;
      }

      .cls-47 {
        fill: #192d36;
      }

      .cls-48 {
        fill: #30292d;
      }

      .cls-49 {
        fill: #dfd3cf;
      }

      .cls-50 {
        fill: #5d1f29;
      }

      .cls-51 {
        fill: #193d49;
      }

      .cls-52 {
        fill: #100e14;
      }

      .cls-53 {
        fill: #2d3f49;
      }

      .cls-54 {
        fill: #4f0d17;
      }

      .cls-55 {
        fill: #627088;
      }

      .cls-56 {
        fill: #b70c27;
      }

      .cls-57 {
        fill: #202129;
      }

      .cls-58 {
        fill: #383b48;
      }

      .cls-59 {
        fill: #9ac6dc;
      }

      .cls-60 {
        fill: #6c0b16;
      }

      .cls-61 {
        fill: #d48a4c;
      }

      .cls-62 {
        fill: #bc6014;
      }

      .cls-63 {
        fill: #7f8487;
      }

      .cls-64 {
        fill: #83152a;
      }

      .cls-65 {
        fill: #f4f5f7;
      }

      .cls-66 {
        fill: #c8cbd1;
      }

      .cls-67 {
        fill: #531320;
      }

      .cls-68 {
        fill: #ea0314;
      }

      .cls-69 {
        fill: #251f23;
      }

      .cls-70 {
        fill: #88b3cc;
      }

      .cls-71 {
        fill: #261b24;
      }

      .cls-72 {
        fill: #c6d3df;
      }

      .cls-73 {
        fill: #5e1628;
      }

      .cls-74 {
        fill: #d5d8da;
      }

      .cls-75 {
        fill: #3f383e;
      }

      .cls-76 {
        fill: #e0c8b0;
      }

      .cls-77 {
        fill: #241a19;
      }

      .cls-78 {
        fill: #5f1524;
      }

      .cls-79 {
        fill: #2a2c38;
      }

      .cls-80 {
        fill: #5e6578;
      }

      .cls-81 {
        fill: #22131a;
      }

      .cls-82 {
        fill: #494652;
      }

      .cls-83 {
        fill: #f8154c;
      }

      .cls-84 {
        fill: #d5051c;
      }

      .cls-85 {
        fill: #c4cccf;
      }

      .cls-86 {
        fill: #a08581;
      }

      .cls-87 {
        fill: #969499;
      }

      .cls-88 {
        fill: #834948;
      }

      .cls-89 {
        fill: #080809;
      }

      .cls-90 {
        fill: #c8d9e9;
      }

      .cls-91 {
        fill: #b6e2f2;
      }

      .cls-92 {
        fill: #4e5460;
      }

      .cls-93 {
        fill: #eff8fb;
      }

      .cls-94 {
        fill: #5ba4d3;
      }

      .cls-95 {
        fill: #0e0d11;
      }

      .cls-96 {
        fill: #252936;
      }

      .cls-97 {
        fill: #6b646b;
      }

      .cls-98 {
        fill: #740c17;
      }

      .cls-99 {
        fill: #9e8f8c;
      }

      .cls-100 {
        fill: #2c2b35;
      }

      .cls-101 {
        fill: #6b6c75;
      }

      .cls-102 {
        fill: #161519;
      }

      .cls-103 {
        fill: #3e0e17;
      }

      .cls-104 {
        fill: #3d363a;
      }

      .cls-105 {
        fill: #eca78f;
      }

      .cls-106 {
        fill: #41404a;
      }

      .cls-107 {
        fill: #716f73;
      }

      .cls-108 {
        fill: #272d3a;
      }

      .cls-109 {
        fill: #878d9a;
      }

      .cls-110 {
        fill: #e55641;
      }

      .cls-111 {
        fill: #420c19;
      }

      .cls-112 {
        fill: #441826;
      }

      .cls-113 {
        fill: #1e080d;
      }

      .cls-114 {
        fill: #4d798a;
      }

      .cls-115 {
        fill: #9a8d91;
      }

      .cls-116 {
        fill: #e0a984;
      }

      .cls-117 {
        fill: #afb2b4;
      }

      .cls-118 {
        fill: #5d0817;
      }

      .cls-119 {
        fill: #171317;
      }

      .cls-120 {
        fill: #ced3dc;
      }

      .cls-121 {
        fill: #393f4f;
      }

      .cls-122 {
        fill: #880c1a;
      }

      .cls-123 {
        fill: #44070b;
      }

      .cls-124 {
        fill: #9e2d23;
      }

      .cls-125 {
        fill: #211d22;
      }

      .cls-126 {
        fill: #f81850;
      }

      .cls-127 {
        fill: #d3dfe3;
      }

      .cls-128 {
        fill: #686e80;
      }

      .cls-129 {
        fill: #b59f93;
      }

      .cls-130 {
        fill: #232734;
      }

      .cls-131 {
        fill: #979ba6;
      }

      .cls-132 {
        fill: #e2f1f7;
      }

      .cls-133 {
        fill: #a51028;
      }

      .cls-134 {
        fill: #131117;
      }

      .cls-135 {
        fill: #130f15;
      }

      .cls-136 {
        fill: #2a2b2e;
      }

      .cls-137 {
        fill: #a5b3c3;
      }

      .cls-138 {
        fill: #302224;
      }

      .cls-139 {
        fill: #566a70;
      }

      .cls-140 {
        fill: #656b78;
      }

      .cls-141 {
        fill: #463b3d;
      }

      .cls-142 {
        fill: #90a4be;
      }

      .cls-143 {
        fill: #7c2313;
      }

      .cls-144 {
        fill: #8e8184;
      }

      .cls-145 {
        fill: #1b0b11;
      }

      .cls-146 {
        fill: #49333c;
      }

      .cls-147 {
        fill: #8c95a6;
      }

      .cls-148 {
        fill: #280306;
      }

      .cls-149 {
        fill: #f7f9fa;
      }

      .cls-150 {
        fill: #28282e;
      }

      .cls-151 {
        fill: #eb9919;
      }

      .cls-152 {
        fill: #b89c97;
      }

      .cls-153 {
        fill: #e8f5fa;
      }

      .cls-154 {
        fill: #97acb9;
      }

      .cls-155 {
        fill: #283439;
      }

      .cls-156 {
        fill: #98a4ac;
      }

      .cls-157 {
        fill: #9db7d5;
      }

      .cls-158 {
        fill: #ad5771;
      }

      .cls-159 {
        fill: #f3f6f7;
      }

      .cls-160 {
        fill: #818797;
      }

      .cls-161 {
        fill: #bf0c20;
      }

      .cls-162 {
        fill: #6e1722;
      }

      .cls-163 {
        fill: #7f97ab;
      }

      .cls-164 {
        fill: #3c080e;
      }

      .cls-165 {
        fill: #b2c0cf;
      }

      .cls-166 {
        fill: #3d3c40;
      }

      .cls-167 {
        fill: #707a99;
      }

      .cls-168 {
        fill: #dd040d;
      }

      .cls-169 {
        fill: #8c9db1;
      }

      .cls-170 {
        fill: #d64423;
      }

      .cls-171 {
        fill: #e10310;
      }

      .cls-172 {
        fill: #6f0a13;
      }

      .cls-173 {
        fill: #3c060b;
      }

      .cls-174 {
        fill: #ab9a96;
      }

      .cls-175 {
        fill: #105667;
      }

      .cls-176 {
        fill: #2c282d;
      }

      .cls-177 {
        fill: #f90208;
      }

      .cls-178 {
        fill: #4d4442;
      }

      .cls-179 {
        fill: #1c1c23;
      }

      .cls-180 {
        fill: #333444;
      }
    </style>
  </defs>
  <g id="Layer_2-2" data-name="Layer 2">
    <g>
      <path class="cls-89" d="M289.95,71.32c0,72.03-.01,144.06,.05,216.08,0,2.12-.48,2.6-2.6,2.6-95.57-.06-191.13-.05-286.7-.05-.54-1.07-.26-2.22-.26-3.33-.02-61.76,0-123.52-.02-185.28,.54-1.9,2.19-1.49,3.49-1.52,4.98-.09,9.97-.05,14.96-.03,2.01,0,3.68-.24,4.43-2.55,.55-1.68,2.17-1.96,3.74-1.94,2.33,.03,4.28-.2,5.72-2.61,1.23-2.07,4.02-1.32,4.77,1,.14,.45,.22,.92,.22,1.39,0,1.86,.61,3.06,2.77,3.01,1.91-.05,3.84,.25,4.12-2.54,.16-1.65,2.4-3,.47-5.03-.59-.63,.35-1.52,1.29-1.73,1.42-.31,2.66,.09,3.47,1.29,.64,.94,1.4,1.49,2.53,1.49,3.55,1.22,6.05,4.03,9.03,6.1,.83,.58,1,1.55,.6,2.54-5.14,5.61-10.55,10.95-16.08,16.16-5.18,4.88-9.25,10.34-10.92,17.37-3.13,13.19-1.71,25.49,7.11,36.34,2.73,3.35,6.08,6.1,9.01,9.26-.26,1.14-.98,2.52,1.26,2.3,3.47,1.86,6.01,4.85,8.73,7.54,9.29,9.21,18.63,18.36,28.05,27.44,5.76,5.54,11.11,11.5,17.6,16.26,6.61,4.84,13.69,8.46,21.8,10.16,3.78,.79,7.66,.87,11.39,1.87,1.09,.29,2.26,.28,3.37,.13,7.9-1.1,15.87-1.99,23.23-5.39,4.62-2.13,8.99-4.63,12.85-8.04,12.55-11.11,23.97-23.41,36.25-34.8,5.93-5.51,11.82-11.05,17.53-16.79,8.35-7.47,16.21-15.34,18.08-27.05,2.01-12.6-.2-24.36-9.34-33.74-16.99-17.43-34.57-34.27-51.75-51.51-5.57-5.85-11.47-11.31-18.43-15.54-4.14-2.51-8.64-4.04-13.18-5.55-1.5-.5-3.11-.75-4.39-1.78-.2-.4-.2-.81-.01-1.21,1.99-1.33,4.25-1.07,6.26-.49,8.3,2.4,15.57,6.55,22.24,12.2,7.49,6.34,13.91,13.76,21.3,20.14,5.82,5.03,11.05,10.7,17.34,15.44,.31-.94-.02-2.12,.5-3.1,.49-.76,.49-1.58,.37-2.44-.2-1.48,.5-2.54,1.77-3.23,3.04-1.67,5.1-4.34,6.92-7.14,.92-1.42,1.96-2.2,3.6-2.27,2.26-.09,4.51-.07,6.77-.05,2.3,.03,3.39-1,3.68-3.3,.61-4.86,.98-5.03,5.8-5.2,4.13-.15,8.25-.48,12.36-.89,1.97-.2,3.94-.29,5.91-.15,2.64,.19,3.64,1.02,3.67,3.66,.02,2.55,.67,4.35,3.33,5.09,.92,.26,1.36,1.24,1.92,1.99,1.7,2.27,4.39,2.26,6.01-.1,1.5-2.17,3.37-3.18,6-2.45Z"/>
      <path class="cls-135" d="M289.95,71.32c-2.35,.86-5.11,.89-5.85,4.31-.34,1.6-6.16,1.07-6.68-.62-.54-1.74-1.48-2.84-3.24-2.99-2.04-.17-2.37-1.36-2.32-3.08,.14-5.46,.15-5.06-5.09-4.93-6.26,.15-12.47,1.18-18.74,1.11-1.47-.02-1.95,.96-2.09,2.16-.12,1.12,.01,2.26-.15,3.37-.28,1.9-1.29,3.01-3.41,2.95-2.72-.08-5.45-.02-8.17-.01-.85,0-2-.06-2.16,.89-.38,2.28-2.28,3.18-3.48,4.71-1.43,1.82-2.63,3.33-4.89,4.03-.96,.3-1.03,1.41-.61,2.43,.44,1.08,.24,2.03-.91,2.61-1.59-2.64-1.19-5.67-1.32-8.49-.17-3.62-.79-7.11-1.65-10.56-.77-3.08-.96-6.13-.36-9.22,.39-1.97,.26-3.74-1.36-5.17-.35-.31-.79-.73-.77-1.15,.34-5.58-4.68-8.89-5.83-13.98-.69-3.04-2.83-5.8-3.36-9.12-.35-2.14-2.92-1.76-4.21-2.93-1.2-1.09-1.24-2.51-.92-3.91,.98-4.18,.47-7.98-2.52-11.26-.37-.41-.65-.94-.82-1.47-.71-2.26-2.18-3.19-4.58-3.31-2.86-.13-4.93-4.18-3.68-6.77,.18-.36,.55-.48,.94-.5,31.73,0,63.45,0,95.17,.01,1.02,0,2.07-.26,3.05,.26V71.32Z"/>
      <path class="cls-89" d="M289.95,.7c-31.92,0-63.85,0-95.77,0-1.03,0-2.06,.06-3.09,.09-1,.87-2.23,.93-3.46,.94-18.52,.04-37.04,.02-55.56,.02-.66,0-1.31-.15-1.96-.16-1.31,.18-2.63,.17-3.94,.17-39.61,0-79.21,0-118.82,0-5.98,0-5.57-.43-5.57,5.44-.01,29.35,0,58.71-.02,88.06,0,1.85,.37,3.8-.95,5.43-.03,1.03-.09,2.06-.09,3.1,0,62.05,0,124.1,0,186.15-1.17-.51-.53-1.53-.53-2.26-.05-11.67-.04-23.34-.04-35.01C.14,169.3,.15,85.92,.08,2.54,.08,.5,.5,.08,2.54,.08c95.05,.06,190.1,.05,285.15,.09,.73,0,1.75-.64,2.26,.53Z"/>
      <path class="cls-52" d="M.8,100.7c-.03-9.4-.09-18.8-.09-28.2-.01-23.13,.01-46.27-.03-69.4,0-1.62,.09-2.45,2.17-2.44,42.13,.08,84.26,.06,126.39,.07,.28,0,.56,.06,.84,.09,1.68,1.64,1.58,3.54,.55,5.39-.76,1.36-1.25,2.59-.75,4.21,.47,1.55-.44,2.42-2.01,2.71-2.78,.51-4.76,2.55-4.5,5.24,.29,2.95-.82,5.05-2.83,6.94-.82,.76-1.61,1.59-1.61,2.83-.63,2.5-.39,5.04-.36,7.57,.02,1.54-.59,2.29-2.17,2.16-.56-.04-1.13-.04-1.69,.04-4.65,.68-5.4,.4-5.28,5.27,.04,1.72-.75,3.07-2.06,4.01,6.58-1.91,12.51-6.33,19.97-5.62,2.4,.23,4.68-1.42,7.2-1.01,3.52,.08,7.04-.1,10.56,0,2.83-.48,5.45,1.01,8.27,.91,1.21-.04,1.74,.97,.99,2.2,0,.33,0,.66,0,.99-.93,1.23-2.19,.84-3.36,.64-13.68-2.34-26.48,.28-38.61,6.75-.83,.44-1.61,.99-2.58,1.05-3.6-1.8-5.61,1.37-7.77,2.93-5.29,3.8-10.24,8.08-14.45,13.11-1.4,1.67-3.14,3.27-2.63,5.84-.75,1.51-2.12,1.67-3.57,1.7-6.23,.09-12.41,.9-18.6,1.51-5.8,1.42-11.84,1.19-17.67,2.5-2.81,.63-2.88,.77-1.09,2.91,1.67,3.01,5.11,4.01,7.28,6.45,.59,.66,1.68,.98,1.39,2.19-1.41,.43-2.59,.32-3.23-1.26-.33-.81-.84-1.51-1.83-1.51-.72,0-1.69-.34-2.03,.5-.48,1.17,.7,.98,1.31,1.26,1.12,.52,1.86,1.38,.33,2.1-1.7,.8-2.05,2.05-1.91,3.66,.14,1.65-.68,2.18-2.2,2.06-.65-.05-1.32,0-1.97,0q-4.16,0-4.31-4.08c-.04-1.14,.09-2.38-1.45-2.64-1.41-.23-2.32,.22-2.56,1.83-.24,1.56-1.39,2.1-2.89,2.07-1.32-.03-2.63,0-3.95,0-1.18,0-2.07,.38-2.11,1.71-.09,2.43-1.61,2.83-3.64,2.82-6.49-.05-12.97-.01-19.46-.01Z"/>
      <path class="cls-113" d="M154.36,43.64c-.03-.76-.18-1.94-1.02-1.57-2.88,1.27-5.29-1.36-8.02-.69-.51-.62-1.26-1.06-1.97-.93-2.88,.53-5.78,.25-8.67,.41-.25,.01-.45,.32-.65,.52-5.95,1.78-12.71-.16-18.15,3.45-3.01,2-6.9,1.54-9.53,4.13-.31,.3-.93,.45-1.28,.01-.49-.61,.05-1.17,.48-1.38,3.25-1.58,3.32-4.41,3.07-7.42-.1-1.27,.49-2.52,1.69-2.57,2.41-.09,4.75-1.42,7.3-.33,.38-3.22-.62-6.42,.6-9.47,.85-1.56,2.4-1.7,3.9-1.82,3.11-.26,6.2-.25,9.19,.91,1.93,.75,3.81,.64,5.73-.29,2.27-1.1,3.65-.36,4.36,2.15,.49,1.75,.18,3.56,.38,5.34,.09,.74,.13,1.59,1.05,1.81,.83,.19,1.42-.35,1.92-.93,.99-1.14,1.16-2.51,1.16-3.96,0-1.55,.71-2.51,2.4-2.45,5.08,.17,10.12-.63,15.21-.54,4.14,.07,8.27,.3,12.39,.58,2.31,.15,4.41-.28,5.63-2.39,1.15-1.99,2.86-2.31,4.56-1.45,3.52,1.79,7.11,1.29,10.76,.94,2.37-.23,4.72-.21,6.64,1.55,1,.24,2.02,.42,3,.72,1.24,.39,1.98,1.09,2.14,2.58,.29,2.63,.49,5.22,2.72,7.37,1.16,1.12,1.38,3.4,1.67,5.21,.21,1.36,.77,2.41,1.84,2.97,1.9,.98,2.41,2.46,2.19,4.41-.2,1.86,.05,3.43,1.95,4.52,1.1,.63,1.3,2.01,.95,3.29-1.51,5.49,.28,10.65,1.26,15.97,.84,4.56,.65,9.3,.92,13.96,.06,.84,.06,1.69,.19,2.52,.1,.62,.64,1.33-.13,1.76-.84,.47-1.46-.19-1.88-.81-2.56-3.79-6.63-5.98-9.77-9.2-4.51-4.62-9.71-8.59-14.19-13.28-5.3-5.56-10.9-10.82-16.89-15.57-5.03-3.98-10.57-7.21-16.93-9.02-2.78-.8-5.43-.97-8.2-1.02Z"/>
      <path class="cls-83" d="M233.51,180.55c-4.18,5.12-9.21,9.4-14.02,13.87-7.11,6.61-14,13.45-20.99,20.18-6.79,6.54-13.27,13.42-20.63,19.34-6.18,4.96-13.39,7.88-21.08,9.77-4.13,1.01-8.34,1.71-12.48,1.84-10.72,.33-21-1.9-30.5-7.11-9.88-5.41-17.48-13.52-25.37-21.33-12.01-11.88-24.19-23.59-36.3-35.38,0-1.06,.68-1.58,1.57-1.92,1.54-.41,2.67,.31,3.71,1.33,1.52,1.49,3,3.01,4.54,4.47,13.07,13.11,26.22,26.12,39.42,39.1,5.03,4.94,10.84,8.99,17.29,11.99,3.13,2.05,6.77,2.82,10.29,3.59,15.51,3.35,30.19,1.08,43.76-7.3,3.27-2.02,6.11-4.66,9.06-7.12,3.02-2.76,6.14-5.41,8.84-8.5,1.65-1.65,3.2-3.42,5.08-4.83,2.1-1.48,3.23-3.88,5.18-5.5,1.74-1.57,3.21-3.45,5.16-4.8,5.53-4.43,10.09-9.85,15.15-14.76,3.98-3.86,8.08-7.61,11.87-11.67,.78-.83,1.7-1.49,2.86-1.73,.87-.07,1.79-.07,2.19,.85,.45,1.05-.59,1.48-1.16,2.01-1.22,1.15-2.31,2.41-3.44,3.62Z"/>
      <path class="cls-31" d="M233.51,180.55c.32-1.95,2.21-2.65,3.22-4.05,.31-.43,1.08-.72,.81-1.34-.32-.74-1.14-.36-1.75-.44-.28-2.33,1.81-3.1,2.93-4.52,4.22-3.74,7.05-8.39,8.87-13.69,.41-1.14,.55-2.39,1.28-3.42,1.14-1.43,.77-2.97,.35-4.52-.17-.7-.2-1.41-.2-2.13-.03-.59-.11-1.17-.04-1.75-.26-6.32-1.12-12.48-4.81-17.88-1.8-3.57-4.49-6.42-7.38-9.11-.22-.15-.41-.33-.6-.51-7.37-7.42-14.53-15.05-22.33-22.04-2.99-2.31-5.4-5.2-7.93-7.97-2.66-2.17-5.18-4.49-7.15-7.33-.48-.7-1.01-1.32-1.79-1.7-3.22-2.21-5.5-5.32-7.99-8.24-.32-.49-.53-1.01-.41-1.61,.4-.85,.84-1.62,1.97-.95,2.61,1.39,4.25,3.85,6.28,5.85,15.48,15.29,30.97,30.57,46.29,46.03,5.78,5.84,8.47,13.29,9.36,21.39,1.66,15.03-4.09,27.01-15.27,36.68-1.24,1.07-1.87,2.86-3.71,3.24Z"/>
      <path class="cls-8" d="M190.57,67.35c-.89-.04-1.2,.82-1.83,1.18-1.48,.21-2.15-.98-3-1.79-2.19-2.06-4.39-4.12-7-5.66-3.89-3.51-7.98-6.78-12.87-8.78-3.25-1.33-6.45-2.88-10-3.34-14.11-2.58-27.85-1.91-40.81,4.87-5.52,2.89-10.46,6.66-15,10.92-3.36,3.15-6.54,6.47-9.77,9.77-1.04,1.01-2.21,1.67-3.73,1.44-.77-.2-1.43-.5-1.42-1.45-.37-1.4,.48-2.35,1.33-3.21,6.1-6.23,12.38-12.29,19.36-17.55,.94-.71,1.98-1.47,3.34-1.1,4.38-2.07,8.6-4.42,13.23-5.99,9.19-3.11,18.52-3.67,28.05-2.41,1.3,.17,2.61,.27,3.92,.4,12.37,2.55,22.69,8.79,31.52,17.64,1.62,1.63,3.59,2.95,4.68,5.08Z"/>
      <path class="cls-126" d="M51.29,179.52c-7.36-5-13.22-11.31-16.1-19.84-4.61-13.7-3.77-27.07,5.33-38.62,6.13-7.79,13.83-14.31,21.2-21.02,1.08-.64,2.01-.7,2.55,.68,.02,.79-.55,1.28-.94,1.86-1.92,1.92-3.64,4.03-5.62,5.89-.51,.39-1.01,.8-1.49,1.22-3.42,4.12-8.09,7.05-11.04,11.62-6.44,7.18-8.44,15.93-8.5,25.18-.03,4.46,.94,8.9,2.68,13.09,3.07,7.53,8.7,12.89,14.97,17.71-.07,2.04-1.3,2.49-3.05,2.21Z"/>
      <path class="cls-127" d="M51.29,179.52c1.18-.16,1.86-1.12,2.77-1.7,.01-.45,.2-.83,.47-1.17,.56-.66,1.25-1.16,2.04-1.53,.87-.32,1.69-.87,2.66-.82,6.04,.3,10.18-6.71,10.69-11.82,.33-3.24,1.13-6.39,1.88-9.56,1.22-1.08,2.31-.92,3.31,.32,.25,.44,.38,.92,.4,1.43,.12,3.29,.26,6.59,.02,9.88-1.61,7.65-6.17,12.43-13.84,14.17-2.68,.8-5.47,1.05-8.2,1.62-.45,.46-.9,.93-1.34,1.39-1.1-.04-2.44,1.77-3.1,.35-.53-1.13,1.27-1.85,2.26-2.56Z"/>
      <path class="cls-146" d="M63.89,101.2c-.12-1.52-1.4-.86-2.17-1.15,.03-1.02-.42-1.68-1.3-2.28-2.62-1.79-5.15-3.69-7.71-5.56-2.1-2.22-4.7-3.81-7.09-5.68-.78-.61-1.62-1.25-1.97-2.28,1.19-.73,1.9,.23,2.69,.8,2.56,1.86,5.11,3.74,7.67,5.59,5.44,4.46,11.35,8.28,16.99,12.46,1.95,1.69,4.13,3.08,6.13,4.71,.84,.68,1.92,1.23,1.6,2.62-.49,.58-1.12,.84-1.88,.76-4.42-2.65-7.88-6.64-12.51-9.02-.33-.17-.43-.6-.47-.99Z"/>
      <path class="cls-41" d="M203.51,27.26c-3.28-1.11-6.68-.94-9.96-.39-2.17,.36-3.95,.16-5.94-.69-1.99-.85-4.32-2.52-5.68,1.31-.69,1.95-3.5,2.51-5.1,2.26-5.65-.86-11.3-.75-16.95-.78-3.22-.02-6.59,1.1-9.58,.63-3.76-.58-3.94,.4-3.5,3.45,.15,1.02-.77,2.3-1.7,3.14-.77,.69-1.66,1.43-2.76,1.04-1.2-.43-1.56-1.49-1.54-2.74,.03-1.78,.15-3.59-.09-5.35-.32-2.36-1.45-2.78-3.44-1.58-1.91,1.16-3.91,1.11-5.94,.32-4.36-1.7-8.74-1.58-13.12-.06-.2-1.93,1.39-2.75,2.46-3.84,1.53-1.56,2.4-3.1,1.74-5.48-.77-2.79,2.33-6.09,5.33-6.06,1.57,.01,2.16-.86,1.33-2.13-.97-1.48-.75-2.55,.42-3.7,1.78-1.75,.9-3.81,.58-5.8,20.34,0,40.67,0,61.01,0-.37,1.88,.74,3.42,1.2,5.11,.43,1.59,1.88,1.07,2.84,.95,2.52-.31,3.83,.77,4.45,3.11,.21,.79,.56,1.66,1.11,2.22,3.37,3.43,3.69,7.46,2.48,11.82-.32,1.15-.22,2.21,.35,3.24Z"/>
      <path class="cls-89" d="M109.16,52.64c-5.67,3.43-10.32,8.1-15.17,12.5-3.13,2.84-6.22,5.76-8.77,9.17-.13-.02-.25-.05-.38-.07-1.08-.15-1.69-.14-.8-1.64,1.79-3.02,4.45-5.21,6.63-7.85,4.3-5.21,10.32-8.33,15.31-12.7,.97-.85,2.41-1.16,3.18,.59Z"/>
      <path class="cls-21" d="M53.72,91.26c-2.65-1.91-5.3-3.82-7.95-5.74-.67-.49-1.17-1.25-2.12-1.27-.71-1.07-2.82-1.39-2.5-2.71,.4-1.64,2.47-1.32,3.84-1.64,4.52-1.06,9.18-1.2,13.77-1.78,1.18-.15,2.34-.41,3.51-.61,.51,.52,.52,1.11,.22,1.73-.41,.49-.96,.69-1.56,.78-4.88,1.09-9.97,.92-15.01,2.32,.6,1.04,1.66,1.26,2.39,1.87,2.06,1.84,4.87,2.81,6.23,5.45-.16,.6-.42,1.14-.83,1.61Z"/>
      <path class="cls-101" d="M62.25,79.15c.01-.55,.02-1.09,.03-1.64,5.99-1,12.04-1.37,18.1-1.66,1.67-.08,3.44,.22,4.47-1.6,.14-.03,.26,0,.38,.07,.17,.71,.7,.95,1.35,1.02-.11,2.31-2.25,1.53-3.41,2.25-.93,.13-1.83,.43-2.74,.66-5.09,.83-10.27,.68-15.35,1.63-1.01,.19-2.07,.23-2.83-.73Z"/>
      <path class="cls-41" d="M134.03,41.37c.15-1.38,.83-1.54,2.15-1.31,2.02,.35,4.05,.42,6.07-.47,1.57-.69,2.7,.06,3.07,1.79-3.76,0-7.53,0-11.29,0Z"/>
      <path class="cls-89" d="M39.41,88.74c-1.26-.43-2.41-1.24-2.06-1.92,.52-1.02,1.69-1.97,2.8-2.36,1.16-.41,1.97,.69,2.71,2.07-2.12-.72-3.91-.98-3.44,2.21Z"/>
      <path class="cls-38" d="M196.14,212.95c-1.63,1.58-3.26,3.16-4.89,4.74-2.25,.89-4.59,1.56-5.86,4.01-.7,1.34-2.34,1.66-3.46,.83-2.15-1.59-4.1-.84-6.08,.03-1.68,.74-3.39,1.17-5.2,1.03-6.76-.51-13.53,.4-20.28,0-7.89-.47-15.72-1.44-23.27-3.93-1.62-.53-3.24-.98-4.93-1.16-1.94-.21-3.66-.85-4.91-2.44-.95-1.2-2.33-1.55-3.73-1.78-2.47-.4-4.67-1.37-6.65-2.9-1.27-.99-2.68-1.75-4.23-2.21-1.39-.41-2.59-1.09-3.44-2.31-.93-1.33-2.38-1.85-3.83-2.22-3.69-.95-6.1-3.66-8.52-6.25-1.57-1.69-1.42-4.04-1.14-6.19,.16-1.3,1.38-1.7,2.54-1.87,1.3-.19,2.63-.01,3.94-.12,3.65-.03,6.87,1.9,10.44,2.27,10.18,1.05,20.26,2.86,30.5,3.55,7.62,.52,15.26,.77,22.81,.24,9.22-.65,18.51-2.02,27.14-5.65,5-2.1,9.87-4.62,13.95-8.38,1.57-1.45,2.64-3.19,3.41-5.12,.91-2.28,.17-4.29-1.47-5.93-2.46-2.45-4.62-5.21-7.44-7.31-.84-.63-1.56-1.41-1.22-2.63,.97-1.09,2.03-.82,2.94-.03,.71,.62,1.5,1.09,2.25,1.63,3.05,2.52,6.81,3.96,9.79,6.63,3.23,2.89,3.97,5.99,1.94,9.8-1.62,3.03-3.78,5.52-6.81,7.34-10.44,6.29-21.68,10.14-33.71,12.05-15.06,2.38-30.15,2.08-45.27,1.27-2.47-.13-4.89,.02-7.23,.88-1.09,.4-2.11,1.07-2.37,2.24-.32,1.42,1.05,1.88,1.92,2.47,6.48,4.45,13.9,6.45,21.39,8.43,12.85,3.4,25.84,3.24,38.91,2.25,7.08-.53,13.91-1.93,20.09-5.68,.72-.44,1.63-.97,2.35-.32,1.03,.92,.21,1.86-.34,2.72Z"/>
      <path class="cls-60" d="M196.14,212.95c.04-.81,.09-1.62,.16-2.94-3.43,2.92-7.18,4.22-11.04,5.31-10.15,2.88-20.56,2.48-30.91,2.26-13.75-.29-26.8-3.8-39.17-9.77-1.48-.72-2.65-2.03-4.11-2.92-1.2-.73-.87-1.89-.06-2.92,2.11-2.69,5.21-3.13,8.15-2.9,10.61,.81,21.24,.77,31.83,.36,10.26-.39,20.41-1.99,30.36-5.02,6.84-2.08,12.87-5.55,19.06-8.84,3.35-1.77,5.23-4.8,6.7-8.05,1.25-2.77,.18-5.17-2.17-7.23-3.05-2.68-6.93-4.12-9.89-6.89,.61-.7,1.4-.74,2.24-.66,4.68,2.18,9.4,4.31,13.69,7.23,4.31,2.94,4.57,6.84,1.15,10.7-4.38,4.94-10.06,7.81-15.86,10.52-7.58,3.55-15.4,6.61-23.56,8.27-9.36,1.9-18.73,4.02-28.35,4.37-1.96,.07-3.92,.08-5.91,1.36,2.01,1.83,4.28,2.67,6.62,3,5.1,.72,10.23,1.55,15.37,1.71,11.41,.35,22.7-1.16,33.94-2.97,1.49-.24,2.9-.75,4.3-1.34,2.3-.97,2.61-.72,2.72,1.93-1.78,1.78-3.11,3.99-5.26,5.42Z"/>
      <path class="cls-122" d="M239.12,170.76c-1.11,1.32-2.22,2.64-3.33,3.96-4.46,4.22-8.97,8.39-13.37,12.68-4.48,4.36-8.84,8.84-13.27,13.25-.85,.85-1.64,1.79-2.82,2.23-.34-.15-.69-.37-1.07-.21-6.74,2.91-13.89,2.09-20.93,2.45-3.57,.18-6.9-.24-10.24-1.23-1.04-.31-2.46-.22-2.47-1.78,0-1.41,1.05-2.19,2.27-2.56,3.42-1.02,6.72-2.38,10.05-3.64,4.54-1.71,9.1-3.37,13.59-5.25,4.6-1.93,8.95-4.3,13.48-6.32,3.72-1.66,7.07-3.93,10.23-6.44,2.86-2.27,2.51-5.19-.7-6.99-1.99-1.12-4.2-1.68-6.38-2.19-5.88-1.37-11.49-3.47-16.99-5.91-2.42-.54-4.35-2.34-6.84-2.7-.31-.38-.47-.82-.53-1.31-.07-1.21,.07-2.32,1.34-2.9,8.57,4.38,17.93,5.3,27.29,5.98,7.41,.53,14.77,1.41,22.14,2.21,1.97,.22,2.41,1.47,1.38,3.19-.78,1.3-2.18,2.09-2.83,3.48Z"/>
      <path class="cls-54" d="M92.22,191.09c-.47,0-.95-.05-1.41,0-1.57,.2-4.23-.71-4.33,1.25-.11,2.16-.42,4.63,2.11,6.79,3.01,2.58,6.02,4.58,9.79,5.58,.18,.05,.44,.1,.5,.23,1.93,4.19,7.16,3.52,9.85,6.69,.78,.92,2.22,1.26,3.56,1.53,2.38,.47,5.16,.21,6.35,3.26,.22,.55,1.41,.86,2.21,1.03,8.37,1.83,16.63,4.41,25.19,5.08,6.24,.49,12.57,.68,18.82-.25,1.39-.21,2.6,.22,3.87,.45,3.84,.71,7.04-1.33,10.49-2.3,1.04-.29,1.7-.8,2.4,.72,.75,1.64,2.43,1.64,3.15,0,1.32-3,3.44-3.97,6.49-3.46-2.43,3.26-5.67,5.69-8.62,8.43-.42-1.36-1.04-1.62-2.2-.59-1.43,1.28-2.74,2.89-4.99,2.68-2.85-.7-5.38,1.13-8.26,.89-12.22-1.02-24.63,.54-36.71-2.54-4.72-1.21-9.49-2.36-14.12-3.76-4.41-1.34-8.72-3.44-12.55-6.21-1.62-1.17-3.28-2.15-5.3-2.45-2.61-.39-4.7-1.92-6.59-3.58-1-.88-1.73-.84-2.71-.31-1.16,.19-1.97-.46-2.72-1.2-6.59-6.55-13.17-13.12-19.71-19.72-.53-.54-.98-1.14-1.22-1.87-.21-1.06-.75-1.97-1.68-2.44-2.07-1.04-1.92-3.49-3.23-5.1-.95-1.17,1.55-1.55,2.83-1.79,.26,0,.52,.05,.78,.11,3.27,.3,1.89,2.59,1.63,4.33,1.35,.12,1.71-.95,2.42-1.47,.56-.46,1.19-.69,1.92-.57,.66,.14,1.47,.4,1.65,.95,.86,2.59,3.37,2.32,5.2,3.27,4.01,2.09,8.5,2.65,12.67,4.22,1.04,.39,2.48,.47,2.5,2.13Z"/>
      <path class="cls-98" d="M197.3,162.28c6.82,2.59,13.75,4.81,20.79,6.72,2.78,.75,5.57,1.71,6.03,5.41,.17,1.33-.06,2.13-.94,2.95-2.83,2.64-6.02,4.81-9.42,6.56-4,2.06-7.83,4.77-12.02,6.01-4.34,1.28-7.96,4-12.42,4.94-5.4,1.14-10.2,4.2-15.59,5.51-.87,.21-1.61,.88-1.56,1.79,.06,1.12,1.18,.52,1.78,.81,4.3,2.07,8.97,1.05,13.45,1.55,2.63,.29,5.38-.42,8.07-.69,.65-.07,1.36-.44,1.92-.28,2.68,.79,4.86-.29,7.03-1.62,1.06-.65,2.01-.85,1.91,.95-1.64,1.55-3.28,3.1-4.92,4.65-.51-1.34-.68-2.41-2.67-.98-2.36,1.69-5.56,1.5-8.41,1.93-10.47,1.58-21.05,3.17-31.59,2.17-6.57-.62-13.58-.04-19.69-3.67-.85-.51-2.21-.48-2.07-1.88,.13-1.36,1.5-1.21,2.4-1.53,3.52-1.26,7.26-.33,10.88-1.12,4.73-1.03,9.55-1.62,14.31-2.54,4.37-.85,8.9-1.21,13.16-2.61,10.11-3.31,20.17-6.78,29.04-12.92,2.34-1.62,4.18-3.79,6.11-5.83,1.69-1.79,.87-5.58-1.33-7.2-4.41-3.24-9.59-5.11-14.22-7.96-.33-.37-.35-.75,0-1.13Z"/>
      <path class="cls-81" d="M175.83,227.81c2.86-.76,4.16-4.3,7.53-4.46,.09,1.19-1.11,1.76-.74,2.77-7.42,7.39-16.23,12.45-26.36,14.86-8.23,1.95-16.61,2.53-25.07,.65-3.65-.81-7.16-1.96-10.71-3.04-1.02-.31-1.89-.71-2.46-1.64,.41-1.31-.9-1.12-1.42-1.61-.68-.63-1.94-1-.92-2.31,2.72-.88,5.19-.5,7.34,1.48,.41,.38,.8,.81,1.46,.67,4.67-.98,9.25,.22,13.87,.48,5.59,.32,11.2,.85,16.81-.31,2.21-.46,4.56,.35,6.84-.78,4.59-2.28,9.48-3.96,13.82-6.76Z"/>
      <path class="cls-45" d="M115.39,233.45c1.17,1.6,3.15,1.76,4.74,2.68-.37,1.16-1.43,.51-2.1,.83-5.25-1.87-9.6-5.18-13.75-8.75-9.75-8.38-18.28-18.03-27.54-26.92-4.76-4.57-9.37-9.29-14.04-13.95-.38-.38-.68-.85-1.02-1.28,.35-1.85,1.25-2.27,2.49-1.05,.71,.69,1.25,1.56,2.07,2.17,.93,2.03,2.78,3.24,4.28,4.76,5.34,5.42,10.73,10.8,16.13,16.16,.64,.64,1.12,1.56,2.18,1.66,1.35,.86,2.57,1.8,3.29,3.33,.57,1.19,1.69,2.01,2.7,2.82,4.65,3.71,9.09,7.67,13.48,11.68,1.56,1.42,3.49,2.17,5.17,3.34,.91,.63,1.97,1.17,1.93,2.54Z"/>
      <path class="cls-20" d="M66.23,187.16c-1.09,.02-1.76-.4-2.35-1.44-.74-1.33-1.69-1.25-2.21,.33-1.84-.69-2.83-2.39-4.09-3.7-1.19-1.24-2.43-1.97-4.1-2.01,2.53-1.5,5.36-1.93,8.21-2.31,.86-.16,1.81-.75,2.35,.53-1.12,.19-2.45-.08-3.15,1.23,.73,.99,1.88,.23,2.84,1.01-1.85,1.58-.98,2.72,.73,3.68,1.05,.58,1.7,1.45,1.77,2.69Z"/>
      <path class="cls-33" d="M214.24,94.52c2.55,1.23,4.01,3.65,5.92,5.55,5.63,5.6,11.55,10.92,16.71,16.99-.09,1.89,1.06,3.32,1.75,4.94,.49,1.15,1.61,2.56,.4,3.6-1.68,1.45-2.03,5.08-5.62,3.73-.69-.26-1.48-.14-2.22-.24-1.29-.23-2.17-1.11-2.97-2.02-2.89-3.26-6.83-5.29-9.89-8.27-3.66-3.58-8.06-6.33-11.27-10.41-1.57-1.99-3.94-3.14-5.95-4.65-1.81-1.36-3.6-2.7-5.11-4.36-2.28-2.52-5.14-4.35-7.57-6.68-.8-.77-1.92-1.31-1.46-2.73,.5-.55,1.2-.67,1.81-.43,6.6,2.59,13.85,2.13,20.52,4.38,.81,.27,1.59,.58,2.27,1.07,1.08,.77,1.91,.39,2.68-.46Z"/>
      <path class="cls-64" d="M179.23,60.54c2.77,1.24,4.67,3.56,6.83,5.56,.88,.82,1.79,1.62,2.68,2.43,.21,.38,.42,.76,.63,1.15-.16,1.93-.64,2.29-2.51,1.45-2.65-1.2-5.37-2.27-7.78-3.94-5.98-4.13-12.68-5.04-19.38-3.06-4.44,1.31-8.93,2.48-13.29,3.62-.26,1.37,1.67,1.26,1.17,2.5-1.28,1.14-2.86,1.28-4.46,1.32-2.9,.07-5.81-.02-8.71,.09-1.96,.11-3.82-.67-5.78-.69-.38,0-.02,.65-.05,.27,0,0,.03,0,.1-.01,.75-.13,1.59-.63,2.05,.48-.64,1.06-1.72,.98-2.72,.99-3.05,.01-6.1,.13-9.15,.17-.93-.13-1.87-.13-2.8-.23-.73-.08-1.65-.13-1.76-1.05-.1-.85,.68-1.26,1.36-1.62,.5-.26,1.04-.44,1.58-.61,6.23-1.99,12.2-4.43,17.54-8.39,2.7-2,6.21-2.69,9.14-4.35,4.47-2.54,9.38-2.93,14.27-3.58,1.31-.17,2.72-.21,3.87,.47,2.3,1.37,4.83,2.11,7.33,2.85,2.85,.83,5.2,2.57,7.8,3.84,.65,.32,1.24,.94,2.05,.36Z"/>
      <path class="cls-56" d="M214.24,94.52c-.04,.68,.7,1.51-.28,2.01-.84,.42-1.54-.07-2.34-.4-4.38-1.79-8.72-3.93-13.7-3.1-1.86-2.47-5.1,.52-7.11-1.83-.84-.98-2.3-1.18-3.64-1.24-1.82-.38-3.05-1.57-4.09-3.01-2.82-2-5.19-4.46-7.5-7-.61-.67-1.46-1.25-1.09-2.37,.5-.8,1.6-.75,2.13-1.51,.9-.9,.89-1.88,.3-2.93-.83-.86-1.87-1.51-2.6-2.48-.26-.26-.51-.52-.78-.76-1.11-.93-2.53-1.07-3.83-1.51-1.68-.77-3.73-.32-5.27-1.57,1.26-2.38,3.68-1.78,5.44-1.55,3.51,.46,7.04,1.35,9.67,4.11,1.08,1.41,1.99,2.9,2.8,4.51,1.36,2.69,3.97,4.51,6.54,5.48,5.41,2.05,11.08,3.39,15.79,7,.44,.34,1.03,.42,1.61,.27,2.74,2.54,4.96,5.59,7.94,7.88Z"/>
      <path class="cls-29" d="M239.12,170.76c-.18-1.94,1.83-2.46,2.51-3.85,.24-.48,.79-.87,.29-1.48-.37-.45-.79-.81-1.43-.68-3.77,.73-7.3-1.08-11.05-.99-3.51,.08-7.03-.69-10.56-.9-7.65-.44-15.22-1.52-22.55-3.66-1.69-.49-4.24-.82-5.12-3.16-.25-.19-.38-.45-.39-.76,.11-.9,.11-1.86,1.12-2.32,.51-.08,.94,.04,1.26,.47,.37,.81,.89,1.31,1.85,1.49,1.57,.3,3.1,.74,4.72,.74,8.15,.04,16.32,.56,24.44,.51,6.82-.04,13.67-.22,20.51-.35,1.18-.02,2.48-.29,3.42,.82-1.4,5.73-4.58,10.32-9.01,14.12Z"/>
      <path class="cls-23" d="M179.22,70.19c-4.35-3.5-9.08-5.3-14.67-3.32-.49,2.21-3.08,1.72-4.13,3.21-2.34,1.45-3.94,3.87-6.58,4.91-2.34-.12-3.1-2.09-4.24-3.62-.62-.59-1.49-.9-1.92-1.71-.88-.22-1.99,.32-2.64-.55-.52-.69,.04-1.94,.37-2.04,2.5-.72,5.04-1.4,7.62-1.63,.52-.05,1.11,.29,1.76-.19,4.4-3.18,9.53-3.07,14.52-2.71,4.61,.33,8.59,2.72,12.43,5.25,1.85,1.22,3.99,1.99,6,2.96,1.15,.55,1.53-.06,1.63-1.09,2.64,2.65,5.29,5.3,7.93,7.95,.54,.64,1.31,1.31,.56,2.18-.67,.77-1.51,.35-2.32,.01-5.88-2.46-11.59-5.19-16.31-9.62Z"/>
      <path class="cls-161" d="M231.16,128.39c.94,.03,1.95-.16,2.8,.13,1.93,.65,2.93,.23,2.88-1.93,0-.28-.04-.62,.1-.83,1.53-2.33,1.46-2.29,.08-5.06-.54-1.08-2-2.36-.17-3.64,0,0,0,0,0,0,2.6,3.04,5.41,5.9,7.86,9.06,3.98,5.58,4.93,11.98,5.05,18.6-1.56-.03-1.81-2.03-3.29-2.19-1.39-.42-2.47-1.37-3.5-2.28-3.5-3.08-7.37-5.74-10.64-9.07-.72-.73-1.92-1.4-1.17-2.8Z"/>
      <path class="cls-84" d="M248.13,156.64c-6.21,0-12.5-.6-18.61,.19-4.47,.58-8.88,.14-13.23,.1-6.27-.07-12.57-.08-18.85-.33-1.45-.06-2.73-2-4.46,.13-.11-1.55-.18-2.56-.24-3.58-.6-1.52,.4-2.17,1.51-2.76,2.68-.48,5.39-.12,8.09-.25,2.06,.26,4.51-.59,5.74,2.03-2.9,1.62-6.02,.76-9.06,.72-.64,0-1.29-.23-1.95-.22,6.09,1.37,12.37-.12,18.38,.91,9.36,1.61,18.71,.56,28.06,.91,1.4,.05,3.07,.48,4.12-1.07,.36-.39,.8-.53,1.32-.4,.13,.1,.25,.2,.38,.31-.51,1.06-.33,2.37-1.17,3.32Z"/>
      <path class="cls-133" d="M179.22,70.19c2.54,.45,4.32,2.2,6.2,3.71,1.94,1.57,3.94,2.79,6.46,3.14,1.39,.19,2.72,.68,3.69,1.85,.42,.5,1.01,1.1,1.68,.73,.97-.54-.09-1.33,.04-2,2.13,.33,2.19,2.61,3.5,3.74,1.92,1.66,3.67,3.51,5.5,5.28-.84,1.02-1.83,.96-2.7,.18-4.22-3.76-9.76-4.44-14.67-6.56-3-1.3-6.49-2.96-7.55-6.8-.37-1.33-1.5-2.13-2.14-3.27Z"/>
      <path class="cls-168" d="M246.96,142c1.64,.19,2.02,1.67,2.81,2.73,0,.57,.02,1.15,.03,1.72-.47,.43-1.01,.68-1.66,.65-2-.75-4.42-.98-4.8-3.78,.81-1.52,2.66-.21,3.62-1.31Z"/>
      <path class="cls-33" d="M244.72,126.12c-2.88-2.8-5.99-5.39-7.86-9.06,3.41,2.33,5.75,5.6,7.86,9.06Z"/>
      <path class="cls-158" d="M249.96,148.65c.44,1.65,1.37,3.37-.66,4.68-.06-.09-.11-.19-.16-.28-.39-.36-.5-.84-.59-1.33,0-.86-.68-1.57-.54-2.46,.29-.46,.71-.71,1.23-.83,.26,0,.5,.08,.71,.23Z"/>
      <path class="cls-161" d="M249.96,148.65c-.21,.05-.43,.1-.64,.15-1.97,.17-1.92-.87-1.34-2.23,.61-.04,1.22-.08,1.83-.11,.05,.73,.1,1.46,.16,2.19Z"/>
      <path class="cls-12" d="M179.23,60.54c-1.61,2.66-3.73,.08-4.24-.4-1.83-1.74-4.12-2.09-6.19-3.04-2.34-1.07-5.01-1.26-7.17-2.94-1.1-.86-2.79-.54-4.13-.25-2.09,.45-4.1,.65-6.26,.69-2.31,.04-4.54,1.88-6.87,2.76-6.31,2.4-11.65,6.57-17.6,9.52-3.3,1.64-6.91,3.33-10.79,3.8-.43,.05-.83,.33-1.71,.7,1.59,.79,2.9,.31,4.09,.57-.89,1.94-2.83,1.49-4.35,1.8-1.54,.31-3.16,.1-4.75,.09-2.98-.21-5.88,.35-8.79,.89-1.46,.27-2.93,.47-4.37-.08-1.28-1-.24-1.34,.52-1.68,3.46-1.57,6.62-3.88,10.52-4.4,.46-.06,.92-.32,1.21-.69,3.09-3.89,7.81-5.42,11.84-7.84,3.69-2.22,7.14-4.79,10.87-6.95,1.96-1.13,3.72-2.48,6.09-2.58,1.11-.05,1.82-.86,2.55-1.57,4.89-.89,9.8-.82,14.69,0,.91,.15,1.6,.55,1.66-.78,5.34,1.03,10.23,3.17,14.9,5.89,3.07,1.78,5.68,4.12,8.27,6.51Z"/>
      <path class="cls-112" d="M156.05,48.15c.22,1.04,1.57,.87,2.26,2.49-6.42-1.84-12.54-1.32-18.64-1.35-.72,.74-1.66,.8-2.61,.83-9.58,.38-17.74,4.04-25.61,9.52-3.9,2.71-6.86,6.56-11.2,8.63-2.81,1.34-3.68,4.68-6.14,6.45-1.48,.38-2.95,.6-4.26-.48,2.84-4.22,6.8-7.38,10.46-10.8,7.48-6.97,15.93-12.52,25.97-14.95,9.84-2.39,19.82-2.6,29.78-.36Z"/>
      <path class="cls-139" d="M89.85,74.25c1.55-.06,3.1-.11,4.65-.17,.38-.24,.77-.3,1.17-.05,4.55,.46,8.94-1.35,13.49-.94-1.64,2.1-3.92,1-5.63,1.32,1.46,.65,3.48-.96,5.19,.43-.58,1.49-1.94,1.3-3.1,1.35-3.47,.15-6.9,.64-10.35,.95-.51,.06-1.02,.07-1.53,.08-2.31,.05-4.61-.04-6.91,.45-1.21,.26-2.61,.42-3.64-.73,.89-1.03,2.76,0,3.39-1.6,1.26,.15,2.22-.6,3.28-1.08Z"/>
      <path class="cls-67" d="M44.88,120.5c3.2-4.3,7.36-7.66,11.2-11.32,.9-.13,.96,.55,.76,1.04-.66,1.65-1.08,3.56-2.52,4.66-2.6,1.98-3.33,5.12-5.26,7.7,1.78-.56,3.38-.62,4.75,.73,.38,.37,.88,.15,1.32-.06,4.03-1.9,8.22-2.81,12.67-1.88,.65,.14,.78-.4,1.09-.68,1.91-1.72,3.38-3.77,4.55-6.05,.58-1.14,1.28-1.93,2.61-.91,.44,1.56-.47,2.78-1.21,3.89-2.99,4.46-4.82,9.46-7.03,14.3-1.09,2.39-2.62,4.53-5.02,6.21-4.24,2.95-8.28,6.14-12.77,8.76-2.85,1.66-5.87,2.45-9.02,3.04-1.74,.33-2.47-.59-2.6-2.13-.18-1.97-.03-3.95-.1-5.92-.52-4.9,1.04-9.44,2.49-13.99,.47-1.49,1.95-2.29,2.62-3.62,.6-1.19,1.94-2.15,1.48-3.77Z"/>
      <path class="cls-78" d="M75.84,113.7c-2.45-.38-1.8,2.07-2.45,3.08-1.58,2.43-4.27,3.93-5.39,6.87-1.01-2.91-3.47-1.92-5.16-1.64-2.74,.45-5.86,.09-8.03,2.63-.6,.71-1.38,.15-1.78-.63-.83-1.64-1.91-1.57-3.15-.47-.49,.43-.98,1.02-1.69,.48-.82-.62-.43-1.57-.02-2.02,2.03-2.22,2.58-5.43,5.2-7.29,1.79-1.27,2.31-3.43,2.71-5.53,.2-.54,.5-.96,1.13-1.03,2-.39,5.11-3.67,5.52-5.81,.18-.59,.53-1.02,1.16-1.15,4.66,1.89,7.95,5.78,12.17,8.32,.42,.26,.62,.89,.92,1.35,.33,.32,.47,.72,.47,1.18-.23,.85-.37,1.78-1.6,1.66Z"/>
      <path class="cls-71" d="M44.88,120.5c2.57,1.65-.04,3.44-.55,4.01-4.51,5.06-5.12,11.14-5.23,17.43-.96,3-.72,5.95,.08,8.96,.68,2.55,2.36,4.92,1.55,7.77-.36,.75-.95,1.24-1.75,1.48-2.43-3.21-2.72-7.19-2.96-10.84-.71-10.62,1.19-20.66,8.86-28.8Z"/>
      <path class="cls-145" d="M38.99,160.15c.15-.69,.45-1.23,1.27-1.25,.69,.16,1.19,.62,1.48,1.22,2.59,5.4,7.16,9.1,11.23,13.24,.94,.96,2.73,1.61,1.97,3.57-.29,.3-.57,.59-.86,.89-4.9-2.54-8.21-6.8-11.44-11.03-1.51-1.98-3.74-3.72-3.64-6.64Z"/>
      <path class="cls-67" d="M62.73,102.34c1.86,1.13,.48,2.49-.22,3.02-1.28,.95-2.5,1.72-3.29,3.24-.51,.99-1.58,.85-2-.45,1.72-2.05,3.43-4.11,5.52-5.81Z"/>
      <path class="cls-148" d="M74.75,154.28c-.02-.39-.04-.77-.06-1.16-.08-2.41,1.9-3.6,3.1-5.25,.26-.08,.53-.11,.8-.09,3.19,.95,4.21,4.26,6.59,6.09,1.12,1.2,2.29,2.36,3.47,3.49,1.17,1.3,2.75,2.11,3.95,3.36,1.06,1.03,2.4,1.7,3.48,2.71,1,.92,2.1,1.71,3.23,2.47,1.44,1.29,3.16,2.16,4.76,3.21,5.06,3.23,10.19,6.33,15.85,8.42,1.02,.37,2.05,.73,3.06,1.14,2.54,1.13,5.19,1.98,7.83,2.86,3.56,1.53,7.28,2.53,11.07,3.28,.87,.16,1.72,.37,2.6,.43,2.88,.25,5.66,1.23,8.59,1.08,.46,0,.92,.06,1.37,.17,2.97,.66,5.96,.51,8.94,.14,.28-.1,.58-.16,.87-.2,2.67,.07,5.18-.92,7.78-1.25,4.13-1.28,7.06-3.72,9.01-7.76,2.1-4.37,3.48-9.08,6.23-13.14,.18-.05,.38-.13,.55-.09,6.65,1.61,10.15,11.9,5.59,16.91-5.65,6.22-13.13,9.28-21.08,11.25-5.3,1.31-10.8,2.23-16.19,2.16-6.47-.09-12.97,0-19.44-.46-9.33-.65-18.54-2.4-27.37-5.21-7.05-2.25-14.28-4.38-20.39-9.23-3.5-2.78-6.9-6.13-11.58-7.2-.41-.54-.6-1.19-.46-1.82,.59-2.66,.07-5.27-.2-7.89-.16-2.92-1.21-5.64-1.97-8.42Z"/>
      <path class="cls-111" d="M54.93,176.93c-1.85-3.27-5.06-5.27-7.56-7.93-2.87-3.07-5.41-6.26-7.11-10.1,.24-2.56-1.05-4.76-1.74-7.09-.91-3.1-.5-6.21-.29-9.32,.01-.21,.57-.37,.87-.56,0,1.97-.03,3.95,.04,5.92,.03,.93-.03,1.62,1.61,1.36,8.46-1.32,14.47-6.85,21.1-11.5,5.29-3.7,6.36-9.6,8.93-14.71,1.6-3.17,4.06-5.84,5.07-9.31,.39-.57,.77-1.15,1.16-1.72,1.03-.62,1.73-.44,1.99,.82-1.47,3.13-3.51,5.93-5.36,8.82-2.61,4.09-3.95,8.63-5.12,13.26-.75,1.99,.22,4.41-1.52,6.15-2.44,2.16-3.54,5.36-2.65,7.79,.18,.2,.34,.4,.5,.61,2.08,1.3,2.29,3.23,1.83,5.39,.25,6.22-1.58,11.72-5.36,16.69-1.34,1.77-3.05,2.97-4.68,4.33-.58,.36-1.15,.72-1.73,1.08Z"/>
      <path class="cls-14" d="M56.65,175.85c3.69-4.22,7.18-8.51,8.73-14.11,.69-2.47-.42-5.06,.81-7.41,1.61-1.78,3.53-2.05,5.68-1.14-.08,5.84-.8,11.63-3.72,16.74-1.64,2.88-4.41,5.1-8.07,5.15-1.27,.02-2.29,.51-3.43,.77Z"/>
      <path class="cls-143" d="M71.87,153.19c-1.89,.38-3.78,.76-5.68,1.14,.42-2.05-.32-3.56-2.14-4.56,.84-.8,1.89-.78,2.94-.75,2.97,0,6.02,.39,8.32-2.26,.55-.63,1.52-.73,2.34-.12,.44,.42,.76,.88,.48,1.53-1.15,1.65-2.3,3.3-3.45,4.95-.97-.96-1.89-.32-2.82,.07Z"/>
      <path class="cls-99" d="M64.04,178.56c-.78-.18-1.57-.35-2.35-.53,6.97-1.69,11.07-6.26,13.04-12.97,1.82,.42,1.13,1.94,1.35,3.06-.77,5.63-4.09,9.46-8.75,12.34-.53-1.65-2.18-1.34-3.33-1.9h.04Z"/>
      <path class="cls-154" d="M75.3,168.5c-.22-1.14,.37-2.42-.58-3.44,0-3.6,.02-7.19,.02-10.79,1.86,2.34,2.59,5.08,2.8,8-.85,.96-.51,2.07-.45,3.17,.08,1.38,.22,2.88-1.8,3.06Z"/>
      <path class="cls-138" d="M78.62,113.15c-.01-1.12-.81-1.15-1.62-1.17,0-.37-.02-.74-.03-1.12,.6-.21,1.21-.43,1.81-.64,1.32-.66,2.12,.39,2.98,1.01,7.29,5.28,14.51,10.64,21.85,15.85,3.06,2.17,6.22,4.19,9.22,6.45,2.23,2.05,4.78,3.63,7.44,5.05,.72,.51,2.07,.32,1.95,1.76-2.64,1.29-5.39,1.83-7.95,.08-4.75-3.27-9.72-6.22-14.35-9.67-1.25-1.37-1.62-.15-2.21,.7-1.65,2.38-3.33,4.76-6.6,5.01-.19-.19-.31-.42-.35-.69,.1-1.4,1.35-1.89,2.18-2.71,.95-.95,2.35-1.53,2.68-3.08-.68-.73-1.64,.31-2.3-.36,.19-1.86,.88-3.75-1.48-5.01-1.34-.72-2.04-1.07-2.7,.66-.46,1.2-.78,2.83-2.73,2.54-.37-.43-.46-.94-.43-1.49,.03-1.75,2.14-3.26,.6-5.19-.54-.52-1.08-1.03-1.65-1.5-2.32-1.21-4.02-3.07-5.4-5.25-.41-.32-.78-.68-.89-1.22Z"/>
      <path class="cls-18" d="M112.54,134.04c-8.3-5.3-16.17-11.21-24.17-16.94-3.2-2.29-6.39-4.58-9.58-6.87-2.27-2.71-5.81-3.85-8.1-6.53-.54-.77-1.08-1.55,.52-1.64,3.29,1.63,6.19,3.88,9.15,6.01,11.82,8.48,23.86,16.64,35.79,24.97,1.03,.72,2.41,1.25,2.31,2.91-.91,1.48-1.97,.62-2.87,.08-1.03-.62-1.96-1.42-3.04-1.98Z"/>
      <path class="cls-156" d="M71.22,102.42c-1.09,.05-.52,.79-.53,1.28-5.8-3.95-11.65-7.83-16.96-12.44-.02-.53-.48-1.25,.59-1.28,1.15-.16,1.89,.58,2.68,1.21,2.31,1.84,4.67,3.62,7.26,5.06,1.96,1.27,3.99,2.44,5.76,3.99,.65,.57,1.75,.92,1.21,2.17Z"/>
      <path class="cls-37" d="M48.06,84.92c-1.44-.92-3.34-1.25-4.12-3.11,5.52-1.46,11.15-1.6,16.65-2.51,.41,.39,.82,.78,1.45,.77,4.2-.03,7.89,1.75,11.43,3.64,4.73,2.53,9.62,4.68,14.49,6.89,6.99,3.16,13.4,7.52,20.77,9.95,3.11,1.03,3.03,2.38,.63,4.81-1.46,1.48-3.38,2.83-3.28,5.31,.03,.85-.26,2.1,1.39,1.72,.27-.05,.52,0,.76,.13,2.81,5.81,7.71,9.26,13.33,11.94,2.79,1.33,5.73,2.38,8.21,4.3,.96,2.19-.57,1.92-1.74,1.61-2.7-.7-5.17-2-7.69-3.16-1.09-.5-2.15-1.09-3.29-1.49-3.89-2.55-7.85-5.03-11.27-8.23-.7-1.2-1.33-2.44-1.85-3.73-1.74-5.23-5.25-8.67-9.89-11.7-4.3-2.81-8.34-6.05-12.89-8.51-.49-.27-.89-.78-1.42-.9-5.8-1.3-10.2-5.57-15.76-7.37-4.52-1.47-9.08-2.49-13.73-.43-.7,.31-1.42,.51-2.16,.09Z"/>
      <path class="cls-15" d="M48.06,84.92c8.93-4.72,16.62-.67,24.2,3.56,1.63,.91,3.19,1.82,4.96,2.48,5.92,2.19,11.17,5.55,16,9.58,.48,.4,.76,1.01,1.43,1.27,5.48,2.15,8.34,6.52,10,11.89-.78,.32-1.3-.18-1.68-.68-2.72-3.59-6.64-5.51-10.55-7.31-3.71-1.7-6.26-4.75-9.32-7.19-1.58-1.26-3.21-2.28-5.16-2.74-2.37-.56-4.76-.91-6.7-2.67-.87-.79-2.21-.77-3.06,.22-.87,1.01-.12,1.94,.55,2.74,.91,1.09,2.03,1.94,3.17,2.77,.82,.59,1.82,1.07,1.82,2.32-1.15,1.07-2.03,.14-2.96-.39-1.77-1.02-3.15-2.59-5.01-3.51-.6-.3-1.12-.63-1.81-.44-3.55-1.8-6.53-4.4-9.64-6.82-1.72-2.13-4.27-3.24-6.25-5.06Z"/>
      <path class="cls-96" d="M107.46,112.71c-.03,.54-.06,1.08-.1,1.76-4.24-3.59-1.77-6.65,1.5-9.72,2.26-2.12,2.48-2.55-.46-3.52-10.29-3.4-19.12-9.85-29.22-13.7-4.59-1.75-8.73-4.7-13.53-6.16-1.1-.33-2.2-.49-3.33-.43-1.17,.06-1.79-.4-1.71-1.63,.55-.05,1.1-.1,1.65-.15,4.44-.42,8.89-.86,13.33-1.27,1.77-.16,3.54-.26,5.31-.39,.07,.11,.14,.22,.22,.34-1.81,3.02,.38,4.41,2.36,5.95,1.56,1.22,3.25,2.21,4.99,3.16,7.5,4.09,15.05,8.08,22.74,11.8,2.97,1.44,3.13,2.29,1.77,5.02-.69,.92-1.67,1.5-2.57,2.19-2.22,1.71-2.7,4.18-2.93,6.75Z"/>
      <path class="cls-96" d="M83.18,76.94c3.6,.23,7.12-.94,10.73-.54,.65,1.6-.63,2.25-1.61,2.14-3.4-.38-6.83,.73-10.2-.27-.45-.13-.87-.3-1.16-.7,0,0-.05-.07-.05-.07,.66-.62,1.53-.34,2.29-.55Z"/>
      <path class="cls-123" d="M92.22,191.09c-2.5-1.5-5.12-2.7-8.08-2.81-3.15-.11-5.35-2.52-8.29-3.25-1.45-.36-2.43-.62-3.51,.86,.69-2.53-.64-3.93-2.25-5.2,.08-.81,.59-1.14,1.34-1.2,.91,.09,1.78,.21,2.26-.91,.31-.73,.97-1.03,1.79-.82,.66,.28,.91,.85,1.09,1.48,.19,1.09,.94,1.52,1.95,1.67,1.17,.31,2.37,.54,3.38,1.27,3.78,2.64,8.26,3.45,12.55,4.74,6.84,2.41,13.99,3.69,21.06,5.02,7.26,1.37,14.63,2.66,22.07,2.73,8.92,.08,17.88,.61,26.76-.59,10.75-1.45,20.99-4.6,29.34-11.87,5.51-4.8,4.84-8.54,1.33-12.37-1.27-1.38-2.37-2.93-3.91-4.04-1.82-1.33-2.73-3.06-2.48-5.34,.28-.93,.37-2.1,1.87-1.6l.09,1.15c.29,.39,.29,.77-.04,1.14,.05,1.2,1.01,1.65,1.77,2.36,2.82,2.62,5.79,5.14,8.23,8.09,2.89,3.49,1.12,7.67-2.66,11.1-7.32,6.63-16.35,10.11-25.87,12.17-11.79,2.56-23.81,3.13-35.8,2.32-9.01-.61-18.02-1.61-27-2.93-5.72-.84-11.27-2.37-16.98-3.16Z"/>
      <path class="cls-172" d="M190.53,161.13c.01-.38,.02-.76,.04-1.14,2.6-.29,4.62,1.15,6.74,2.29,0,.38,0,.75,0,1.13-.75,0-1.5,0-2.25,0-1.89,0-2.31-2.92-4.52-2.27Z"/>
      <path class="cls-121" d="M190.47,158.84c-1.02,.16-1.11,.91-1.08,1.73-.46,.5-.51,1.22-.97,1.72-4.21,3.92-6.77,8.96-9.37,13.95-1.83,3.51-3.52,7.09-6.63,9.71-2.8,.44-5.52,1.48-8.43,1.2-.34-.82,.21-1.27,.79-1.57,4.48-2.35,7.63-6.02,10.24-10.23,1.84-2.96,3.39-6.08,5.32-8.98,.4-.6,.79-1.26,.65-2.27-2.36,.51-3.92,2.26-5.9,3.2-.89,.42-1.6,1.45-2.76,.61-.19-1.36,.83-1.99,1.67-2.71,4.38-3.8,9.51-6.53,14.28-9.75,.89-.6,1.89-.88,2.8,.05,0,.19,.04,.37,.11,.54-.63,.84-.75,1.8-.72,2.81Z"/>
      <path class="cls-103" d="M115.39,233.45c-2.68-2.74-6.41-3.98-9.3-6.52-1.42-1.25-2.83-2.76-4.16-3.99-3.67-3.42-8.51-5.74-10.94-10.44-.56-1.08-2.23-1.23-2.17-2.76,1.82,.27-.11-2.47,1.62-2.09,1.11,.24,.95,1.94,1.85,2.33,2.33,.99,3.85,3.48,6.87,3.31,1.75-.1,3.25,1.27,4.76,2.21,5.21,3.25,10.36,6.52,16.72,7.36,3.39,.45,6.63,1.9,9.97,2.78,6.65,1.75,13.45,2.15,20.29,2.18,6.33,.02,12.66-.15,18.97,.52,1.08,.11,1.74-.59,2.53-1.06,1.32-.79,2.47-.79,3.44,.55-1.71,3.07-5.12,4.58-7.82,5.25-2.97,.74-5.16,2.79-8.06,3.29-.35,.06-.69,.44-1.01,.41-8.23-.84-16.52,1.17-24.78-.75-2.2-.51-5.26-1.17-6.92-.54-3.06,1.15-4.55,.12-6.63-1.53-1.42-1.13-3.48-.34-5.24-.49Z"/>
      <path class="cls-59" d="M71.26,179.68c-.39,.33-.79,.67-1.18,1-.53,.32-1.06,.64-1.59,.95-.12,.13-.23,.31-.39,.37-.83,.31-1.82,1.69-2.5,.36-.57-1.11,.46-1.93,1.71-2.09,2.71-3.14,6.32-5.6,7.54-9.87,.18-.62,.3-1.26,.45-1.9,1.49-.81,.97-2.25,1.13-3.49,.12-1-.56-2.37,1.12-2.74,.69,3.36,1.06,6.72-.15,10.05,.01,.13,.02,.27,.04,.4-1.05,3.22-3.17,5.48-6.18,6.96Z"/>
      <path class="cls-20" d="M67.32,180.27c-.52,.59-1.05,1.18-1.62,1.83,1.23,.78,1.89-.52,2.81-.47-.07,.74-.71,1.04-1.13,1.51-.58,.64-1.29,.72-2.01,.33-.89-.48-.76-1.34-.31-1.91,1.32-1.65,.29-2.35-1.05-3,1.2,.39,3.24-.86,3.32,1.71Z"/>
      <path class="cls-177" d="M246.96,142c.08,1.36,.1,2.55-1.75,1.2-.37-.27-1.05-.1-1.59-.14-1.2,.45-1.97-.37-2.65-1.06-2.41-2.43-4.91-4.75-7.85-6.55-5.05-4.4-9.98-8.93-15.01-13.36-2.02-1.78-4.21-3.4-5.98-5.46-.99-1.15-2.25-1.95-3.57-2.67-.3-.27-.5-.61-.66-.97-.89-1.8-2.9-2.31-4.2-3.64-6.43-4.72-11.72-10.74-18.07-15.55-.69-1.07-1.6-1.98-2.26-3.07-.36-1.18-1.7-1.48-2.25-2.51-.1-.27-.15-.54-.15-.83,.05-.46,.22-.85,.6-1.13,.77-.34,1.48-.29,2.1,.33,.72,1.58,2.66,1.88,3.48,3.35,.6,2.23,2.91,2.89,4.34,4.27,1.49,1.44,3.21,2.8,4.71,4.3,2.91,2.89,6.23,5.22,9.61,7.52,2.41,1.64,3.93,4.25,6.23,6.12,6.49,5.26,12.76,10.79,19.11,16.21,1.85,3.52,5.48,5.16,8.21,7.74,2.33,2.21,4.75,4.31,7.59,5.87Z"/>
      <path class="cls-114" d="M108.65,74.75h-6.15c2.21-.78,4.61-.39,6.66-1.66,3.07-.34,6.25,.21,9.2-1.14,4.07-.17,8.18,.34,12.21-.66,1.13-.63,2.45,.1,3.59-.49,4.51-.3,9.12,.59,13.52-1.14,.83,.2,1.61,.51,2.17,1.2-.26,1.51-1.5,1.61-2.66,1.83-6.7,.35-13.36,1.12-20.05,1.63-4.58,.13-9.11,.91-13.68,1.14-1.66,.08-3.37,.6-4.81-.71Z"/>
      <path class="cls-12" d="M134.16,70.81c-1.12,.73-2.37,.51-3.59,.49-.88-.09-1.82,.29-3.05-.49h6.64Z"/>
      <path class="cls-171" d="M183.68,86.6c-.8,.01-1.59,.02-2.39,.03-1.46,.96-2.37-.26-3.44-.86-1.36-1.89-3.7-2.67-5.09-4.53-.97-1.09-2.79-1.81-1.68-3.82,1.2-1.08,2.39-1.36,3.56,.05,2.58,3.01,4.86,6.33,8.56,8.18,.25,.13,.32,.62,.47,.94Z"/>
      <path class="cls-167" d="M174.65,77.48c-1.18-.5-2.33-.22-3.47,.15-.81,.78-1.84,.7-2.84,.72-.7-.02-1.42,.21-2.11-.11-.21-.21-.33-.46-.37-.76,.06-1.41,.88-2.39,1.87-3.27,.71-.54,1.52-.78,2.41-.72,2.15,.75,4.42,1.18,6.41,2.38,.23,.16,.39,.37,.5,.63-.34,1.43-1.58,.7-2.4,.99Z"/>
      <path class="cls-110" d="M159.92,69.55c1.15-1.57,3.25-1.5,4.63-2.68,1.93-.27,3.75,.28,5.57,.79-.05,1.12-1.14,.81-1.69,1.25-.23,.13-.46,.23-.7,.33-1.87,.92-3.5,2.38-5.7,2.56-1.29-.2-1.79-1.15-2.11-2.26Z"/>
      <path class="cls-159" d="M174.75,70.14c.98,.86,1.96,1.72,2.94,2.57,.19,.79-.26,1.08-.93,1.22-2.22,.09-4.44-.22-6.66-.08-.9,.04-1.8,.05-2.7,.18-1.57,.22-2.49-.39-2-2.18,.8-1.13,1.98-.79,3.09-.81,2.12-.04,4.34,.51,6.27-.9Z"/>
      <path class="cls-70" d="M167.99,68.52c.51-.77,1.48-.44,2.13-.86,1.37,.51,2.93,.6,3.96,1.84,.13,3.11-2.23,1.92-3.71,2.07-2.28,.23-2.51-1.31-2.38-3.05Z"/>
      <path class="cls-91" d="M167.99,68.52c.18,.05,.47,.05,.51,.16,.44,1.07-.1,2.58,2.08,2.7,1.81,.1,2.7-.56,3.5-1.88,.22,.21,.44,.42,.66,.63,.08,1.54-.83,1.81-2.13,1.78-2.29-.06-4.58-.03-6.86-.04-.92-2.13,1.38-2.2,2.1-3.29l.14-.07Z"/>
      <path class="cls-167" d="M177.02,73.53c.22-.27,.44-.55,.66-.82,.54,1.39,1.08,2.78-.64,3.78-.08-.08-.16-.17-.24-.25-.66-.96-.68-1.88,.22-2.71Z"/>
      <path class="cls-79" d="M144.21,185.95c-.8,0-1.65,.27-2.3-.45-1.62-1.14-1.32-2.58-.48-3.96,2.6-4.24,5.84-7.75,10.63-9.64,2.86-1.13,5.68-2.36,8.36-3.96,4.14-2.47,6.6-6.57,9.96-9.77,3.86-3.23,8.1-5.56,13.22-6.12,2.77-.3,5.57-.56,8.24-1.48,.73-.25,1.48-.24,2.06,.43-.32,.76-1.33,1.15-1.18,2.17-.34,.04-.67,.07-1.01,.11-1.27,1.81-3.33,2.95-5.09,3.67-4.9,2-8.75,5.36-12.8,8.49-5.39,4.17-11.17,7.63-17.78,9.43-5.52,1.51-9.11,4.96-11.19,10.16-.14,.36-.4,.63-.64,.92Z"/>
      <path class="cls-58" d="M144.21,185.95c-.44-2.21,.92-3.74,2.08-5.3,1.92-2.56,4-4.9,7.27-5.81,9.36-2.62,17.51-7.37,24.62-14,1.34-1.25,3.05-2.25,4.77-2.9,3.15-1.18,5.78-3.23,8.75-4.68-.06,.79,.15,1.65-.64,2.23-.56,.03-1.27-.15-1.65,.12-5.66,4.11-12.26,6.92-16.99,12.3,.13,1.45-1.12,1.81-1.98,2.41-5.11,3.53-10.96,5.69-16.34,8.75-.81,.46-1.67,.87-2.31,1.58-1.59,1.74-1.37,3.83,.54,5.23,.44,.32,1.06,.48,.89,1.23-3.08,.14-6.05-.49-9.02-1.16Z"/>
      <path class="cls-53" d="M147.59,71.89c.83-.18,1.65-.38,2.26-1.02,1.53,1.01,1.8,3.38,3.98,3.7,.21,.22,.28,.48,.23,.78-1.06,1.41-1.6,3.42-3.9,3.42-2.19-1.79-2.71-4.2-2.56-6.87Z"/>
      <path class="cls-105" d="M153.56,75.22c.09-.22,.17-.43,.26-.65,2.03-1.67,4.07-3.35,6.1-5.02,1.29-.06,1.09,1.85,2.37,1.81,.15,.23,.19,.47,.1,.73-1.09,1.55-3.19,1.66-4.36,3.09-1,.67-1.89,1.57-3.22,1.55-.8-.18-1.07-.81-1.25-1.51Z"/>
      <path class="cls-57" d="M193.91,150.98c-5.78,2.17-12.33,1.11-17.9,4.32-1.86,1.07-3.55,2.33-5.26,3.58-3.94,2.69-6.55,6.87-10.74,9.32-2.69,1.57-5.42,1.89-8.36,1.55-.97-.11-1.82-.51-1.97-1.66,.2-.62,.69-.94,1.24-1.19,6.78-.02,11.05-4.6,15.63-8.61,3.75-2.94,8.22-4.8,12.4-8.09-4.86,.05-9.11-.82-13.43-.71-1.27,.03-2.47-.38-2.91-1.77-.39-1.22-.01-2.21,1.1-2.9,3.14-.97,6.21,.41,9.33,.3,5.02,.47,10.03,1.04,15.05,1.51,1.5,.14,2.98,.27,4.29,1.1,.76,.89,1.67,1.35,2.91,1.28,1.67-.09,3.35-.12,5.02,.02,1.12,.1,2.68-.02,2.12,1.98-2.84-.01-5.67-.02-8.51-.04Z"/>
      <path class="cls-68" d="M248.15,153.21c.2,1.66-.44,2.33-2.21,2.32-8.54-.07-17.19,.75-25.6-.29-6.74-.83-13.39-.49-20.07-.9-1.7-.1-3.32-1.82-5.14-.11-.34,.32-1.09-.18-1.12-.88-.05-1.02,.65-1.23,1.48-1.24,2.72,0,5.45,.01,8.17,0,1.5,0,3-.06,4.5-.1,1.15-1.1,2.61-.9,4-.93,11.26-.3,22.49,.14,33.69,1.29,.86,.09,1.69,.11,2.3,.83Z"/>
      <path class="cls-47" d="M248.15,153.21c-13.32-.72-26.64-1.3-39.99-1.19-1.83-.8-3.81-.76-5.75-1-.23-1.32-1.26-1.16-2.19-1.17-1.88-.01-3.76-.02-5.63,0-1.25,.01-2.27-.23-2.36-1.75,1.99-1.56,4.34-1.03,6.51-.91,8.87,.49,17.76,.61,26.63,1.32,5.37,.77,10.8,.93,16.19,1.51,2.63,.28,5.46-.19,7.74,1.73-.05,.43-.1,.86-.15,1.29-.33,.06-.66,.12-.99,.17Z"/>
      <path class="cls-155" d="M233.5,135.05c3.22,1.25,5.2,4.09,7.81,6.13,.78,.61,1.54,1.25,2.31,1.88,.83,1.94,2.85,2.4,4.35,3.5,.08,.96,.23,1.89,1.34,2.23-.36,.21-.72,.42-1.08,.63-1.8,1.25-3.59,.37-5.38,0-.97-.35-2.14-.64-2.51-1.64-1.28-3.41-4.46-4.72-7.17-6.38-2.97-1.81-5.22-4.19-7.3-6.85-.53-1.13-2.59-1.5-1.68-3.35,2.47-1.09,3.95,.67,5.54,1.98,1.12,.92,1.99,2.28,3.76,1.86Z"/>
      <path class="cls-11" d="M242.48,148.71c1.92,.24,3.83,.48,5.75,.72,.92,.51,1.29,1.28,1.05,2.32-7.13-.66-14.27-1.31-21.4-1.98-.82-.08-1.63-.27-2.45-.41,.3-.55,.84-.8,1.37-.75,1.19,.12,1.92-.23,2.03-1.51,3.77-1,7.37,.31,11.01,.88,.87,.13,1.8,.34,2.64,.74Z"/>
      <path class="cls-73" d="M95.67,74.03c-.39,.02-.78,.03-1.17,.05,1.73-3.79,4.27-6.73,8.33-8.17,.81-.29,1.08-1.25,1.57-1.94,1.19-1.7,2.52-3.16,4.72-3.7,2.69-.66,4.29-3.09,6.6-4.49,4.34-2.63,8.83-4.32,13.74-5.52,3.44-.84,6.78-.91,10.2-.97,.21,1.6-1.05,2.01-2.1,2.06-4.53,.23-7.47,3.46-10.91,5.67-3.27,2.1-6.8,3.76-9.99,5.95-2.42,1.66-5.56,2.31-7.22,5.03-.64,1.05-1.62,1.37-2.77,1.66-2.65,.67-5.54,.84-7.38,3.42-.84,1.17-2.59-.06-3.64,.95Z"/>
      <path class="cls-96" d="M108.65,74.75c6.2-.41,12.4-.82,18.6-1.23-.04,1.9-1.97,.9-2.69,1.74-.08,.17-.11,.47,.02,.51,3.92,1.09,4.48,4.88,6.17,7.72,1.46,2.46,3.37,3.99,6.33,4,1.17,0,2.23,.36,3.06,1.24,.88,.93,1.95,1.45,3.23,1.56,1.76,.15,3.14,1.34,4.96,1.67,1.34,.24,2.25,2.93,3.2,4.62,.11,.78,.1,1.69-.63,2.01-1.7,.73-2.8,2.15-4.15,3.27-2.3,1.9-4.46,2.03-5.85,.19,3.72,2.65,7.47,6.6,11.94,9.65,.75,.51,1.81,1.33,.39,2.38-3.3-.45-5.82-2.38-8.29-4.41-.59-1.08-1.69-1.72-2.41-2.69-.46-.86-1.22-1.38-1.99-1.93-5.17-3.71-10.31-7.4-15.14-11.63-5.34-4.68-11.83-7.9-18.49-10.57-3.31-1.33-6.83-2.03-10.11-3.45-1.23-.53-2.86-1.04-1.74-3.02,3.42-.74,6.9-.96,10.39-1.14,1.08-.06,2.23,.27,3.21-.49Z"/>
      <path class="cls-130" d="M95.05,76.38c.08,2.89,2.79,2.74,4.34,3.13,9.22,2.32,17.38,6.78,25.1,12.07,3.58,2.45,6.34,6,10.11,8.31,2.31,1.42,4.42,3.14,6.66,4.67,.88,.6,1.73,1.14,1.81,2.33-1.33,.9-2.56-.04-3.34-.67-3.45-2.79-7.9-4.09-10.98-7.31-3.7-3.85-8.09-6.72-12.65-9.36-5.2-3.01-10.44-5.96-16.47-7.14-2.81-.55-5.54-.99-8.34-.11-.73,.23-1.48,.24-2.46-.04,3.88,4.35,8.62,7.24,13.51,9.69,3.92,1.96,7.73,4.23,12,5.58,2.34,.74,4.15,2.82,6.65,3.52,.68,.19,1.19,1.01,.27,1.76-2.87,.64-5.68,1.94-8.69,.67,.95-1.89,.65-3.06-1.51-4.02-8.4-3.75-16.37-8.36-24.5-12.63-3.1-1.63-5.41-4.25-8.46-6.53,1.61-.42,2.48-1.38,2.86-2.76,3.55,.76,7.18-.69,10.75,.38,1,.3,2-.28,2.22-1.54,.38,0,.75,0,1.13-.01Z"/>
      <path class="cls-173" d="M188.27,161.71c.21-.54,.58-.92,1.12-1.14-.29,2.11,.63,3.48,2.39,4.65,2.7,1.79,4.49,4.52,6.19,7.19,1.48,2.34,.29,6.42-2.25,9.24-1.85,2.05-4.19,3.49-6.47,4.91-8.4,5.21-17.66,7.6-27.47,8.55-8.45,.82-16.88,.45-25.31,.39-4.73-.04-9.43-1.2-14.17-1.58-6.35-.51-12.38-2.68-18.68-3.48-3.29-.42-6.47-1.8-9.69-2.75-2.13-2.39-5.48-1.78-8.02-3.24-1.01-.58-2.55-.63-3.01-1.74-.59-1.4-1,.4-1.4-.1-1.13-.38-2.26-.75-3.39-1.13-.39-1.05-1.09-1.69-2.26-1.69-.01-.62,.06-1.28-.57-1.69-.29-2.29,1.78-3.7,2.13-5.75,0,0,0-.02,0-.02,2.39-.45,4,.58,5.96,2.05,5.7,4.26,11.41,8.34,18.38,10.86,6.03,2.18,12.12,3.88,18.28,5.33,7.18,1.7,14.51,3.01,21.93,2.73,5.89-.22,11.74,.69,17.66,.11,10.4-1.01,20.48-3,29.14-9.17,5.16-3.67,7.75-6.93,5.63-11.54-1.54-3.35-3.19-6.86-7.18-8.16-.98-1.44,.9-1.81,1.05-2.82Z"/>
      <path class="cls-48" d="M119.9,178.11c-5.04-1.17-9.15-4.23-13.58-6.63-.98-.53-1.85-1.25-2.77-1.89-2.37-5.55-2.27-11.55-3.21-17.36-.11-.68-.59-1.17-.96-1.71-1.28-1.88-1.21-3.5,.83-4.8,2.36,1.86,2.86,4.7,3.53,7.33,.83,3.27,.99,6.68,1.57,10.02,.31,1.78,.84,3.48,2.06,4.87,1.31,1.48,2.52,1.42,3.21-.38,1.3-3.42,2.04-6.83-.79-10.05-2.12-2.41-2.36-4.54-1.03-5.74,1.32-1.19,3.01-.82,5.32,1.58,4.51,4.7,10.38,6.55,16.42,8.08,1.45,.37,2.94,.6,4.29,1.31,2.83,1.67,6.06,2.45,8.93,4.04,4.15,2.31,4.28,4.48,.76,7.68-3.52,3.2-8.07,4.71-11.75,7.62-.62,.49-1.41,.4-2.11-.03-2.82-.41-5.43-1.42-7.89-2.83,3.07-1.74,6.58-2.57,9.5-4.67,1.68-1.2,3.56-2.13,5.04-3.59,1.81-1.77,1.59-3.32-.68-4.44-3.48-1.72-7.26-2.54-11.03-3.34-1.7-.36-2.86,.38-3.5,2.07-.86,2.29-1.61,4.62-2.62,6.85-.97,2.14,.67,3.98,.45,6.01Z"/>
      <path class="cls-75" d="M119.9,178.11c-2.07-2.35-2.02-4.88-.74-7.59,.84-1.78,1.72-3.61,2.12-5.51,.63-3.03,2.76-3.2,4.9-2.64,3.69,.96,7.48,1.71,10.94,3.43,2.92,1.45,3.43,3.75,.87,5.68-4.6,3.46-9.14,7.21-15.26,7.74-1.01-.21-2.01-.42-2.83-1.11Z"/>
      <path class="cls-1" d="M153.24,187.11c-1.46-.73-3.47-.68-3.44-3.23,.03-2.6,1.19-4.04,3.39-5.26,6.42-3.57,13.5-5.95,19.26-10.7,2.29-1.41,4.56-2.85,6.88-4.22,.85-.5,1.78-1.35,2.78-.36,.89,.89-.15,1.55-.52,2.19-3.02,5.36-5.69,11-9.83,15.57-1.83,2.02-3.75,4.45-6.82,5.09-.37,.08-.63,.63-.95,.96,0,0,0,0,0,0-3.21,.42-6.42,.44-9.63-.01-.37,0-.75-.02-1.12-.02Z"/>
      <path class="cls-176" d="M130.62,182.05c1.86,.37,2.42-1.5,3.69-2.18,3.52-1.88,7.07-3.71,10.14-6.38,2.58-2.24,2.7-3.92-.3-5.54-2.37-1.28-4.9-2.28-7.39-3.35-.77-.33-1.61-.49-2.16-1.2,.83-.91,1.89-.85,2.85-.46,3.72,1.52,7.55,2.74,11.32,4.14,.45,.17,.83,.42,1.08,.85,2.12,1.72,6.38,1.55,9.41-.2,3.62-2.08,6.28-5.32,9.57-7.79,.6-.45,1.09-1.05,1.92-1.05-4.91,6.18-10.55,11.33-18.32,13.75-4.86,1.51-7.74,5.41-10.47,9.39-.78,1.14-.66,2.31-.05,3.47-3.95-.55-7.81-1.37-11.29-3.44Z"/>
      <path class="cls-86" d="M84.85,154.42c-2.45-1.73-3.66-4.67-6.23-6.28-.54-.94,0-1.32,.81-1.55,.29-.04,.58-.03,.87,.02,2.13,.25,4.25,.39,6.34-.25,1.46-.32,2.9-.75,4.41-.75,3.14-.25,4.02,2.3,4.7,4.38,.89,2.74,2.07,5.37,2.89,8.13,.28,.93,.12,1.89-.14,2.78-.48,1.67-1.7,2.36-3.23,1.51-1-.55-2.08-.75-3.06-1.28-1.4-1.04-3.03-1.81-3.98-3.38,.82-.79,2.05-.31,2.91-.91,.98-.68,2.95-.52,2.57-2.41-.33-1.65-1.4-2.86-3.22-3.14-.75-.11-1.5-.09-2.25-.13-1.75-.08-3.24-.92-4.9-1.69-.11,1.9,2.65,2.86,1.51,4.94Z"/>
      <path class="cls-9" d="M188.27,161.71c.39,1.22-1.08,1.74-1.05,2.82-.65,3.87-2.65,7.22-4.3,10.67-1.08,2.26-1.62,4.8-3.67,6.68-2.05,1.88-4.25,3.22-6.83,4.07,4.37-6.26,7.25-13.39,11.53-19.71,1.21-1.79,2.45-3.44,4.33-4.53Z"/>
      <path class="cls-7" d="M79.8,147.01c-.68,.08-1.05,.48-1.17,1.14-.16,.02-.32,.02-.49,.02-.2-.36-.39-.73-.59-1.09-.97-.97-.46-2.58-1.54-3.49-.45-.49-1.02-.93-.85-1.72,.92-1.21,2.35-1.39,3.65-1.89,2.51-.96,5.13-1.81,5.72-5.07,.26-1.43,1.76-1.82,2.86-2.48,2.02-.9,3.75-2.44,6-2.86,.18-.05,.36-.12,.54-.13,.93-.05,1.41-2.11,2.45-.87,.99,1.19,.08,2.51-.88,3.41-1.4,1.32-2.94,2.49-4.42,3.72-3.05,2.85-6.16,5.65-9.63,7.96-1.35,.89-1.91,1.83-1.65,3.35Z"/>
      <path class="cls-152" d="M84.85,154.42c-.56-2.18-2.72-3.57-2.91-5.94,.65-.5,1.18-.24,1.76,.17,1.9,1.33,3.98,1.89,6.33,1.8,2.43-.09,4.9,2.42,4.96,4.77,.01,.49-.03,1.14-.5,1.19-2.14,.21-3.77,2.76-6.24,1.36-1.13-1.11-2.26-2.23-3.39-3.34Z"/>
      <path class="cls-141" d="M100.13,145.89c-1.07,1.86-1.22,3.43,.65,5.09,1.29,1.14,.32,3.14,.63,4.77,.51,2.64,1.95,5.28,1.06,8.19-.41,1.35,.66,2.44,1.33,3.58,.36,.62,1.59,1.61-.25,2.08-1.56-1.07-3.52-1.59-4.58-3.34,1.09-4.99,.5-9.77-1.28-14.58-.88-2.38-1.23-4.87-3.77-6.15,.62-2.45,3.02-3.91,5.42-3.3,.89,1.08,1.65,2.19,.79,3.66Z"/>
      <path class="cls-26" d="M93.9,145.25c2.45,.36,4.09,1.75,3.89,4.23-.14,1.68,1.16,2.39,1.56,3.67,.91,2.97,.66,6.05,1.16,9.05,.24,1.43,.23,3.18-1.54,4.04-1.51-.19-2.21-1.49-3.25-2.33,3.21-2.16,3.8-6.07,1.32-9.61-.53-.75-.71-1.39-.78-2.27-.21-2.84-1.62-4.99-4.16-6.36,.41-.92,1.05-.92,1.8-.44Z"/>
      <path class="cls-39" d="M92.19,145.85c2.68-.51,3.93,2.24,4.12,3.36,.65,3.92,3.23,7.38,2.69,11.55-.26,2.01-.88,3.46-3.28,3.17-1.15-.94-2.66-1.44-3.5-2.78,1.08-.23,2.01-.56,3.09,.43,1.46,1.35,2.35,.52,2.56-1.23,.12-1,.16-1.91-.31-2.96-1.27-2.83-2.41-5.75-3.3-8.72-.55-1.83-1.63-2.35-3.29-2.32,.19-.71,.6-.87,1.23-.5Z"/>
      <path class="cls-121" d="M154.36,187.14c3.21,0,6.42,0,9.63,.01-3.21,.81-6.42,.81-9.63-.01Z"/>
      <path class="cls-151" d="M78.62,113.15c.33,.2,.66,.39,.99,.59,1.58,1.88-.2,3.16-1,4.38-3.17,4.8-5.84,9.84-7.92,15.19-.31,.67-.48,1.38-.84,2.03-.36,.65-.74,1.43-1.63,1.07-.91-.36-.59-1.18-.38-1.88,1.33-7.31,5.15-13.43,9.14-19.5,.47-.72,.99-1.34,1.63-1.89Z"/>
      <path class="cls-62" d="M67.85,134.54c.17,.49-.09,1.24,.52,1.43,.6,.19,.59-.51,.79-.88,.39-.71,.31-1.65,1.06-2.18,.89,.87,.56,1.93,.39,2.92-.39,2.17,.24,3.69,2.51,4.28,.89,.43,1.79,.85,2.27,1.8,.35,.4,.7,.81,1.05,1.21,.59,2.55,.26,2.88-2.81,2.8-1.52-1.67-3.05-2.9-5.36-1.02-.65,.53-1.81,.29-2.74,.14-.43-.15-.69-.45-.81-.88-.16-1.43,1.11-2.2,1.55-3.36,2.06-1.7,.37-4.35,1.59-6.26Z"/>
      <path class="cls-170" d="M65.12,144.2c.16,.18,.31,.36,.47,.54,.53,1.24,1.18,2.14,2.81,1.98,1.04-.1,2.23-.08,3.04,.91-.66,2.08-3.2,.57-4.11,2.16-1.09,0-2.18-.01-3.27-.02-.07-.14-.11-.3-.11-.46-.87-1.99-.48-3.7,1.17-5.11Z"/>
      <path class="cls-124" d="M65.12,144.2c-1,1.56-1.16,3.32-1.17,5.11-1.62-2.18-.51-6.27,2.32-8.51,.37,1.39-.85,2.24-1.14,3.4Z"/>
      <path class="cls-24" d="M67.33,149.79c.33-2.54,2.8-1.06,3.93-2.09-.02-.37,0-.73,.16-1.08,.12-.22,.26-.42,.43-.6,.37-.34,.77-.62,1.29-.68,1.53-.11,3.56,.54,3.29-2.23,2.01,.86,.82,2.61,1.11,3.95-.64-.42-1.31-.4-1.74,.21-2.18,3.07-5.4,2.53-8.48,2.51Z"/>
      <path class="cls-134" d="M163.4,145.32c-.79,2.37-.15,3.43,2.55,3.43,4.38,0,8.77,.33,13.15,.53,.53,.02,1.24-.17,1.46,.51,.22,.68-.42,.93-.89,1.22-4.29,2.62-8.59,5.25-12.88,7.87-1.52,1.25-3.25,2.22-4.71,3.54-4.16,3.75-9.17,3.9-14.31,3.31-1.49-.17-3.05-.59-4.06-1.76-2.07-2.38-4.78-2.84-7.65-2.8-5.22,.07-9.95-1.72-14.55-3.84-2.65-1.22-4.37-3.79-6.68-5.57-1.96-1.51-3.88-2.7-6.48-2.99-3.3-.37-6.03-1.92-7.48-5.22-.75-1.72-2.03-3.13-3.28-4.55-1.29-1.46-2.5-1.48-3.75,0-1.02,.96-1.98,1.99-3.08,2.87-1.13,.91-2.41,1.45-3.88,1.33-.87-.07-1.71-.31-2.02-1.24-.29-.88,.37-1.32,.96-1.82,1.67-1.41,2.87-3.45,5.28-3.86,2.66-1.38,5.19-2.96,6.3-5.91,.82-2.19,1.6-2.24,2.75-.31-.45,5.23,1.98,9.24,5.51,12.74,1.46,1.44,3.29,2.22,5.34,2.22,2.43,0,4.36,.96,5.98,2.7,1.94,2.09,4.34,3.59,6.65,5.21,3.11,2.18,6.49,3.13,10.35,2.95,3.56-.17,7.13-.32,10.69-.51,2.67-.15,4.8-1.49,6.77-3.15,.42-.36,1-.78,.88-1.36-.18-.82-1.03-.64-1.64-.73-6.32-.99-12.61-2.09-18.8-3.73-.45-.12-.92-.19-1.37-.33-1.21-.38-2.48-.92-2.33-2.4,.15-1.44,1.52-1.16,2.49-1.13,1.15,.03,1.89-.76,2.84-1.13,5.18-.42,10.17,1.2,15.3,1.46,3.72,.19,7.43,.67,11.16,.98,1.31,.11,2.65,.16,3.43,1.48Z"/>
      <path class="cls-95" d="M132.9,141.94c.09,1.95-1.43,1.43-2.45,1.52-.63,.06-1.56-.86-1.74,.35-.11,.75,.74,1.31,1.51,1.42,3.79,.57,7.4,1.92,11.23,2.4,3.7,.46,7.28,1.69,11.06,1.74,.61,0,1.38,.25,1.56,.99,.19,.78-.61,1.06-1,1.55-3.25,4.02-7.89,4.53-12.51,4.64-3.82,.09-7.69,.66-11.47-.2-4.92-1.12-8.64-4.35-12.2-7.65-1.88-1.74-3.64-2.92-6.38-2.88-4.28,.05-6.49-3.27-8.69-6.29-1.62-2.22-2.39-4.84-2.69-7.56-.08-.72,.41-1.43,1.05-1.91,4.49,3.26,9.46,5.83,13.77,9.38,2.55,2.11,5.49,.75,8.27,.79,1.45-1.32,3.01-.27,4.46-.08,1.27,.16,2.53,.41,3.81,.47,1,.1,1.9,.39,2.43,1.34Z"/>
      <path class="cls-118" d="M72.99,140.79c-3.51-1.11-3.89-1.72-3.23-5.16,.17-.9,.31-1.81,.46-2.72,1.52-5.27,4.31-9.9,7.2-14.49,.93-1.47,2.42-2.68,2.19-4.69,.6,0,1.12,.16,1.25,.84,.49,2.58,3.33,2.9,4.57,4.75,.24,2.16-1.22,3.7-2.2,5.31-2.72,4.48-5.6,8.88-9,12.9-.24,.29-.5,.57-.72,.87-.67,.69,.28,1.73-.52,2.39Z"/>
      <path class="cls-131" d="M132.9,141.94c-.75-.19-1.51-.37-2.26-.56-3.4-1.62-7.07-1.92-10.74-2.21-2.58-1.52-5.32-2.81-7.34-5.13,1.14-.17,1.84,.58,2.68,1.15,.89,.59,1.85,1.84,3.06,.39,1.51-.63,2.68,.4,3.98,.81,10.9,2.09,21.82,3.97,32.93,4.65,6.47,.4,12.94,.89,19.38,1.68,.84,.1,1.69,.18,2.33,.83,.22,1.51-1,1.28-1.81,1.39-.84,.12-1.71,.02-2.1,1.01-3.2-.21-6.4-.42-9.6-.63-8.77-.97-17.55-1.94-26.32-2.92-1.4-.15-2.79-.31-4.19-.47Z"/>
      <path class="cls-10" d="M91.09,136.28c-1.75,1.37-3.69,2.52-4.99,4.4-.29,.41-1.09,.56-.7,1.28,.31,.56,.94,.5,1.5,.54,1.51,.1,2.7-.52,3.76-1.54,.87-.84,1.79-1.62,2.69-2.42,.48-.41,1.25-.52,1.5-.12,1.06,1.65,2.98,1.9,4.4,2.93,.12,.43,.07,.81-.25,1.14-2.23-.06-3.42,1.81-5.11,2.76-.61,.08-1.26,.04-1.71,.59-.41,.17-.82,.33-1.23,.5-1.45,.23-2.9,.47-4.35,.7-2.27,.38-4.54,.46-6.81-.04,0,0,0,0,0,0-1.38-.96-2.1-2.14-.24-3.14,3.25-1.74,5.92-4.16,8.59-6.62,.85-.78,1.76-1.38,2.92-1.54,0,.19,0,.39,.01,.58Z"/>
      <path class="cls-43" d="M73.56,137.41c4.33-5.78,8.42-11.72,11.87-18.08,.56,.39,1.11,.78,1.67,1.17,.87,1.35,.1,2.55-.46,3.68-2.13,4.27-4.85,8.21-6.88,12.55-.9,1.92-2.67,2.89-4.9,2.49-.91-.17-1.99-.41-1.31-1.81Z"/>
      <path class="cls-119" d="M93.4,129.57c-1.5,1.78-3.66,2.46-5.69,3.35-.56,.35-1.22,.45-1.84,.49-1.94,.14-2.86-1.03-2.02-2.72,.59-1.19,1.13-2.58,2.73-2.87,1.43-.95,1.94-2.45,2.24-4,.3-1.57,1.08-1.53,2.14-.81,.54,.36,.99,.84,1.51,1.23q3.11,2.28,.93,5.34Z"/>
      <path class="cls-27" d="M86.58,127.81c-.32,.46-.73,.88-.93,1.38-.43,1.07-2.06,1.88-1.33,3.12,.69,1.18,2.24,.38,3.39,.6-1.25,1.06-2.64,1.59-2.89,3.88-.24,2.11-3.12,3.12-5.18,3.82-1.37,.46-2.79,1.01-4.25,1.29-.98,.02-1.64-.65-2.4-1.11,.14-.94-1.99-1.83-.07-2.82,3.02,1.88,6.26,.91,7.63-2.6,.99-2.54,2.27-4.9,3.67-7.2,.53-.88,.85-2.19,2.32-2.1,0,.58,.02,1.16,.03,1.73Z"/>
      <path class="cls-35" d="M86.55,126.08c-2.26,2.65-3.92,5.6-4.98,8.94-1.28,4.03-6.05,5.58-8.64,2.96,.21-.19,.43-.38,.64-.57,1.61,1.69,3.95,1.79,5-.32,2.66-5.36,6.26-10.19,8.52-15.75,.1-.24,.02-.56,.02-.84,2.14,2.09,.07,3.76-.56,5.58Z"/>
      <path class="cls-92" d="M119.89,139.17c3.09-1.05,6.07-.14,9.03,.62,.79,.21,1.64,.53,1.72,1.59-2.91,.29-5.59-1.07-8.45-1.16-.77-.35-1.53-.7-2.3-1.05Z"/>
      <path class="cls-108" d="M121.59,136.86c-1.1-.43-2.21-.85-3.31-1.28-9.3-6.48-18.63-12.93-27.9-19.45-6.43-4.52-12.78-9.14-19.17-13.71-2.01-2.41-4.98-3.57-7.28-5.61,.48-1.17,1.06-.71,1.93-.32,2.8,1.24,4.52,4.19,7.7,4.78,1.38,.07,2.43,.9,3.47,1.65,3.91,2.83,7.86,5.62,11.63,8.64,9.9,6.72,19.62,13.69,29.69,20.16,1.5,.96,2.9,2.05,4.33,3.11,.42,.62,1.58,1.05,1.06,1.91-.43,.73-1.41,.48-2.16,.12Z"/>
      <path class="cls-40" d="M121.59,136.86c.53-.02,1.06-.05,1.8-.08-.47-.62-.85-1.12-1.23-1.62,.83-.94,1.91-.79,2.87-.46,2.2,.76,4.42,.71,6.9,.46-4.1-2.54-8.33-4.5-12.29-6.92-1.23-.75-2.8-1.31-2.57-3.25,3.69,1.56,7.37,3.12,11.06,4.65,.63,.26,1.71,1.14,1.37-.68,1.39-1,2.74-.17,4.02,.22,7.29,2.21,14.69,3.9,22.26,4.83,2.53,.31,5.06,.25,7.59,.17,2.79-.09,4.86-1.79,7.06-3.18,5.73,2.98,12.01,3.75,18.3,4.43,1.41,.15,2.99,.25,3.99,1.17,3.11,2.88,7.57,3.66,10.43,6.86,.88,.98,1.91,.34,2.89,.31,2.01-.06,2.47,.77,1.51,2.65-4.49,1.16-8.95,.16-13.4-.24-4.57-.41-9.16-.49-13.72-.99-1.19-.13-2.48,.04-3.34-1.09-4.45-.51-8.89-1.28-13.35-1.49-13.03-.63-25.92-2.32-38.74-4.62-1.18-.21-2.42-.33-3.42-1.13Z"/>
      <path class="cls-2" d="M88.26,112c-4.9-3.58-9.79-7.16-14.69-10.74-1.57-1.89-3.97-2.76-5.57-4.66-1.08-1.29-1.92-2.78-.76-3.96,1.27-1.29,3.38-1.65,4.83-.1,1.28,1.35,2.67,1.74,4.41,2.05,2.65,.48,5.11,1.42,7.24,3.43,3.46,3.25,7.02,6.42,11.59,8.27,3.76,1.52,6.85,4.15,9.33,7.41,.56,1.13,1.13,2.26,1.69,3.39-1.95,1.23-3.79,.04-5.2-.8-4.02-2.41-8.57-2.93-12.88-4.27Z"/>
      <path class="cls-16" d="M88.26,112c1.65-1.36,3.08,.29,4.63,.37,4.18,.2,7.41,3.13,11.3,4.19,.71,.19,1.43,.35,2.14,.52,3.31,3,7.23,5.18,10.73,7.91,1.61,2.69,4.65,3.33,7.05,4.87,2.58,1.66,5.41,2.94,8.12,4.41,.61,.33,1.68,.51,1.43,1.44-.26,.96-1.25,.38-1.94,.49-3.29,.49-6.36-.92-9.58-1.04-9.15-5.79-18.01-12.02-26.92-18.17-2.35-1.62-4.85-3.04-6.98-4.99Z"/>
      <path class="cls-25" d="M170.7,131.12c-1.81,3.18-4.83,3.9-8.16,4.02-8.46,.3-16.58-1.75-24.69-3.74-2.81-.69-5.56-1.61-8.34-2.43-6.94-2.99-13.99-5.79-19.2-11.64-1.2-1.34-2.32-2.7-2.35-4.63-.19-.33-.39-.65-.41-1.04-.03-.73-.23-1.66,.71-1.89,.88-.21,1.27,.6,1.58,1.3,.11,.26,.18,.53,.27,.79,.51,1.4,1.14,2.73,2.34,3.7,1.15,1.36,2.79,2.2,3.83,3.67,3.08,2.55,6.72,4.11,10.4,5.41,8.39,2.94,16.95,5.32,25.77,6.64,3.54,.53,7.13,.39,10.66,.08,1.93-.17,3.82-.96,4.81-2.99,.41-.84,1.01-1.63,2.19-1.35,1.06,.68,1.33,1.71,1.28,2.89-.08,.49-.26,.92-.7,1.2Z"/>
      <path class="cls-66" d="M109.72,112.57c-.35-.78-.71-1.57-1.34-2.97-.2,1.44-.31,2.27-.42,3.1,0,0-.25-.01-.25-.01,0,0-.25,.02-.25,.02-1.21-2.85,.16-4.95,2.07-6.82,.91-.89,2.01-1.59,3.03-2.38,3.01-.35,6.03-.7,9.04-1.06,1.49-1.08,3.14-.46,4.63-.21,6.24,1.07,12.18,3.09,17.76,6.12,.48,.26,1.08,.4,1.27,1.03,2.47,1.7,5.07,3.17,7.81,4.38,.67,.11,.99,.48,.88,1.17-.2,.4-.51,.68-.94,.81-3.22-.18-5.46-2.6-8.29-3.7-1.45-.56-2.83-1.37-4.33-1.88-6.96-3.21-14.27-4.55-21.92-4.15-2.29,.12-4.35,.72-6.36,1.95-1.86,1.14-1,3.39-2.38,4.59Z"/>
      <path class="cls-164" d="M81.49,182.61c.53-.52-.06-.82-.24-1.19-.31-.64-.1-1.13,.51-1.35,.66-.24,1,.18,1.24,.77,.74,1.79,5.29,5.03,7.12,4.46,2.6-.81,3.05,.81,3.79,2.41-3.34-1.11-6.69-2.17-10.01-3.34-.93-.33-1.95-.69-2.42-1.74Z"/>
      <path class="cls-164" d="M77.4,172.34c.27,2.28-1.21,3.91-2.13,5.75-.46,.09-.98,.22-1.02,.75-.24,3.05-1.69,1.64-2.99,.84,2.55-2.03,4.39-4.64,6.14-7.34Z"/>
      <path class="cls-164" d="M75.84,179.79c.81-.28,1.42-1.57,2.39-.85,.96,.72-.23,1.67-.13,2.54-1.21,.05-2.16-.26-2.26-1.69Z"/>
      <path class="cls-51" d="M233.5,135.05c-.87,2.27-1.95,1.01-2.85,.1-1.79-1.8-3.54-3.6-6.23-3.96-.61,.09-1.13-.13-1.56-.51-5.27-4.67-10.73-9.13-15.53-14.33-.39-.42-.69-.9-.59-1.52,.45-.72,1.11-1.14,1.93-1.33,1.74-.04,2.5,1.44,3.58,2.39,6.87,6,13.7,12.05,20.58,18.05,.39,.34,.65,.62,.67,1.12Z"/>
      <path class="cls-175" d="M208.68,113.5c-.1,1.09-.82,1.37-1.77,1.33-2.08,.36-3.3-1.06-4.5-2.31-4.78-5.01-10.81-8.65-15.19-14.26-1.15,1.15-.69,3.71-3.13,2.9,.05-2.55-.47-5.01-.98-7.49,.88-1.01,1.83-1.18,2.88-.25,4.19,2.49,7.36,6.2,11.09,9.25,2.45,2,4.69,4.26,7.02,6.4,1.28,1.47,2.9,2.52,4.49,3.6,.03,.28,.07,.56,.1,.84Z"/>
      <path class="cls-4" d="M185.97,93.42c-1.01-.15-1.97,0-2.86,.53-.66,.55-1.31,.27-1.96,0-1.11-.61-1.94-1.51-2.59-2.57-1.08-1.8-2.69-3.13-4.17-4.56-1.36-1.32-2.56-2.73-3.28-4.51-.12-.27-.16-.55-.13-.84,.58-1.28,1.42-1.33,2.45-.52,1.43,1.62,3.66,2.38,4.74,4.38,.72,1.27,2.22,1.54,3.19,2.49,.06,.12,.11,.25,.16,.38,.44,1.06,1.37,1.64,2.26,2.27,.83,.91,2.24,1.39,2.2,2.96Z"/>
      <path class="cls-19" d="M208.57,112.67c-2.39-.09-3.46-1.81-4.49-3.6,1.87,.73,3.43,1.85,4.49,3.6Z"/>
      <path class="cls-162" d="M181.36,87.81c-1.73,.03-2.71-.91-3.19-2.49,1.26-.09,1.78,1.59,3.12,1.31,.02,.39,.04,.78,.07,1.18Z"/>
      <path class="cls-50" d="M183.77,90.46c-1.95,.44-2.14-.87-2.26-2.27,.86,.65,2.37,.65,2.26,2.27Z"/>
      <path class="cls-130" d="M150.97,96.74c-1.53-1.29-3.04-2.59-2.71-4.86-1.36,.21-1.17,.92-1.33,1.41-.17,.47-.42,.91-.95,.87-.6-.04-.67-.61-.63-1.07,.13-1.69-.78-2.12-2.25-2.01-.46,.03-1.13,.07-1.36-.19-2.26-2.61-5.76-2.14-8.44-3.48-2.89-1.45-4.44-4.54-5.23-7.64-.34-1.32-.69-2.23-1.95-2.17-2.45,.13-2.55-1.57-2.97-3.15,1.36-.77,2.98,.34,4.1-.93,2.4-1.03,4.98-.47,7.47-.76,4.26-.49,8.54-1.11,12.86-.87,1.37,2.09,1.18,4.84,2.85,6.82,.67,.81,.32,1.65-.07,2.36-2.33,4.2-1.36,8.11,.91,11.94,.48,.8,.87,1.66,1.35,2.46,.53,1.41,2.13,2.1,2.5,3.62-.44,1.47-1.58,1.77-2.85,1.46-1.37-.33-.7-1.44-.68-2.3,0-.55-.26-1.07-.62-1.51Z"/>
      <path class="cls-106" d="M173.43,80.95c-.81,.16-1.98-.41-2.1,1.09-2.09-.76-3.77-1.83-3.39-4.47,1.08,.02,2.16,.04,3.23,.06-.65,2.06,2.03,1.86,2.25,3.32Z"/>
      <path class="cls-93" d="M157.74,74.73c.92-1.9,3.11-1.78,4.55-2.84,.13-.15,.43-.29,.45-.25,.89,2.49,3.35,2.27,5.22,3.05-.57,.98-1.14,1.95-1.72,2.93-.51,1.06-.23,2.09,.12,3.13,.46,1.53,1.24,2.91,1.88,4.36,.38,.86,.79,1.77-.03,2.59-.75,.75-1.7,.72-2.61,.39-1.25-.45-2.51-.68-3.84-.44-.42,.03-.83-.02-1.23-.15-1.78-.8-3.23-1.7-1.45-3.86,.73-.88,.63-1.46-.68-1.58-1.52-.15-1.87-1.11-1.27-2.38,.76-1.6,.01-3.34,.61-4.94Z"/>
      <path class="cls-44" d="M167.96,74.69c-.09,0-.18,.02-.28,.02q-4.23,.07-5.39-2.82c0-.18,0-.35,0-.53,1.85-.92,3.71-1.84,5.56-2.77-.12,1.47-2.06,1.77-2.1,3.29-.13,.89-.05,1.9,1.11,1.53,1.15-.36,2.12,.28,3.17,.12,.47,.18,.46,.35,0,.51-.69,.22-1.38,.43-2.07,.65Z"/>
      <path class="cls-94" d="M170.03,74.04c.04-.17,.04-.34,0-.51,2.33-.69,4.66-1.01,6.99,0-.07,.91-.15,1.81-.22,2.71-2.42-.23-4.63-1.13-6.77-2.2Z"/>
      <path class="cls-17" d="M165.61,80.42c-1-1.21-.14-2,.63-2.81,.03,.18,.05,.36,.08,.54,1.63,1.68,3.02,3.63,5.32,4.51,.56,1.31,1.32,2.59,.59,4.09-1.53,1.21-2.25-.18-2.88-1.07-1.26-1.75-2.56-3.47-3.75-5.27Z"/>
      <path class="cls-140" d="M171.21,82.66c-2.75-.28-4.38-1.79-4.89-4.51,.54-.19,1.08-.39,1.62-.58,.34,2.09,2.44,2.84,3.39,4.47,0,0,0,0,0,0,.18,.25,.14,.45-.11,.62Z"/>
      <path class="cls-42" d="M152.22,96.13c-4.08-5.45-5.48-11.17-1.79-17.42,1.04-1.16,2.09-2.33,3.13-3.49,.45,.41,.9,.83,1.34,1.24,.09,1.36-1.64,2.12-1.19,3.6-.04,1.27-1.02,2.06-1.58,3.07-2.36,3.54-2.36,4.23,.03,7.71,.93,1.36,2.21,2.54,2.23,4.38-.05,.44-.21,.84-.54,1.15-.6,.32-1.14,.24-1.63-.24Z"/>
      <path class="cls-49" d="M153.26,79.81c-1.07-1.91,.9-2.33,1.65-3.35,.95-.58,1.89-1.15,2.84-1.73,.9,1.68,.97,3.47,.14,5.1-.9,1.77,0,1.72,1.22,1.49,.62-.11,1.31-.63,1.79,.06,.47,.67-.06,1.28-.52,1.72-1.49,1.44-1.57,2.75,.2,4-1.87,1.73-2.88,1.71-3.69-.32-.49-1.22-1.36-2.18-1.9-3.38-1.11-2.47-.66-4.09,2.16-5.52-1.9,.31-2.25,2.34-3.89,1.91Z"/>
      <path class="cls-69" d="M99,142.49c0-.37,0-.75-.01-1.12,1.15-.22,1.38,.68,1.73,1.43,.6,1.28,1.23,2.53,1.95,3.74,1.27,2.14,2.64,3.62,5.63,2.73,2.71-.81,5.02,.93,6.68,2.83,3.96,4.54,9.05,7.28,14.72,8.18,6.66,1.06,12.56,4.34,19.11,5.52,.94,.17,1.84,.48,2.16,1.54-.26,.43-.67,.55-1.13,.57-4-.7-7.71-2.31-11.44-3.8-1.26-.5-2.48-.8-3.81-.72-4.26-1.39-8.69-2.21-12.89-3.86-3.24-1.27-5.67-3.54-8.25-5.7-.71-.6-1.36-1.34-2.16-1.76-1.6-.84-2.83,.04-2.65,1.83,.12,1.17,.79,2.06,1.57,2.91,2.76,3.01,3.21,8.98,.83,12.19-1.03,1.39-2.3,1.76-3.75,.28-2.34-2.38-2.87-5.37-3.19-8.47-.54-5.19-1.42-10.28-3.96-14.94-.37-1.13-.75-2.26-1.12-3.4Z"/>
      <path class="cls-125" d="M150.97,167.36c-7.84-2.15-15.43-5.11-23.4-6.85-5-1.09-9.41-3.53-12.9-7.58-2.12-2.46-4.71-3.88-8.5-2.37-2.4,.96-3.19-2.21-4.3-3.84-1.13-1.66-1.29-3.89-2.88-5.34-2.96,1.2-3.34-2.73-5.65-2.83,2.24-2.59,2.73-2.53,4.88-.04,1.55,1.79,2.95,3.64,3.92,5.79,1.12,2.46,3.51,3.51,5.7,3.57,4.68,.13,7.48,3.17,10.49,5.86,5.14,4.6,11.12,6.32,17.87,6.52,2.7,.08,5.97-.22,7.69,2.97,.42,.78,1.31,1.1,2.13,1.27,4.95,1.02,9.81,1.38,14.34-1.66,2.08-1.4,3.98-3.12,6.42-3.93-4.55,4.16-8.63,9.23-15.82,8.47Z"/>
      <path class="cls-13" d="M177.11,144.1c8.99,.61,17.99,1.23,26.98,1.82,1.31,.09,2.62,0,3.94,0,.93-.57,1.97-.44,2.98-.47,4.66-.16,9.26,.75,13.91,.69,1.29-.02,2.61,.24,3.45,1.46,.77,1.01,2.16,.16,3.23,1.13-2.09,1.03-4.21,.21-6.17,.62-9.85-.42-19.7-.85-29.55-1.26-1.22-.05-2.44,0-3.65,0-5.51-.54-11.01-1.09-16.52-1.61-.92-.09-1.89,.09-2.71-.53-.46-.87-1.41-1.9,.73-1.76,1.12,.07,2.25-.05,3.38-.09Z"/>
      <path class="cls-100" d="M150.97,96.74c.67,.34,1.33,.78,1.49,1.53,.44,1.99,.4,2,2.45,.85,1.28-.57,2.11,.36,3,.94,4.77,3.09,10.05,4.51,15.66,4.82,2.58,.14,5.01-.51,7.32-1.64,1.22-.55,2.05-1.76,3.41-2.08,1.05-.57,1.92-1.24,1.42-2.64-.19-.53-.46-1.15,.13-1.52,.76-.46,1.19,.24,1.6,.71,4.42,4.95,9.96,8.68,14.58,13.41,1.44,1.48,3.05,2.71,4.86,3.69,5.37,5.96,11.78,10.8,17.52,16.36-.44,1.89,1.91,1.57,2.25,2.84-2.53,1.12-4.69,.76-6.68-1.53-1.9-2.18-4.26-2.91-6.94-2.78-1.31,.07-2.14-.35-2.77-1.39-.92-1.74-1.51-3.65-2.68-5.27-.74-1.54-1.89-2.74-3.19-3.81-.65-.59-1.25-1.24-1.92-1.81-.99-.98-2.24-1.41-3.56-1.68-.36-.09-.69-.25-1.01-.44-.52-.35-1.15-.45-1.73-.65-1.32-.35-2.65-.13-3.98-.17-2.36,.06-4.66,.45-6.85,1.35-1.61,.5-2.39,1.99-3.58,2.99-1.42,1.31-1.4,2.97-.98,4.63,.83,3.24,1.74,6.45,4.64,8.59,.44,.33,.8,.78,.66,1.43-2.63,1.47-4.57-.23-6.29-1.68-2.08-1.76-4.36-3.18-6.55-4.7-1.14,.76,.07,3.37-2.43,2.94-.26-.91-.52-1.82-.78-2.73-.88-.71-1.92-1.21-2.68-2.08-3.44-3.12-7.14-5.88-11.1-8.32-.93-.57-2-1.04-2.31-2.26-.3-.31-.6-.61-.91-.92,.59-.4,.36-.92-.06-1.1-2.99-1.3-4.85-4.04-7.53-5.76-2.32-1.49-3.82-4.07-6.56-5.08-.38-.14-.78-.63-.45-1.16,.27-.43,.75-.59,1.23-.43,.53,.18,1.01,.48,1.53,.69,1.01,.41,1.29,2.51,2.51,1.75,1.36-.85,3.21-1.18,4-2.87,.38-.81,.87-1.44,1.89-1.41,1.16,.04,1.38-.74,1.36-1.68Z"/>
      <path class="cls-104" d="M170.84,130.07c1.86-.55,.58-2.33,1.31-3.34,.35-.49,.15-1.47,1.03-1.45,.62,0,.66,.97,1.01,1.16,4.03,2.2,6.51,7.02,11.82,7.02,.89-.78,2.21-.24,3.11-1.02,1.47-.33,2.99,.61,4.45-.19,2.33-.26,4.68-.37,6.94-1.03,.56-.08,1.12-.06,1.65,.18,.84,.73,1.05,1.97,2.09,2.54,.73,1.95-1.29,2.14-2.1,3.16,1.45,1.3,3,2.1,4.91,1.53,1.24-.37,2.13-1.29,2.51-2.5,.62-1.95-1.65-1.99-2.25-3.16-.06-.26-.04-.51,.08-.75,.64-.81,2-.31,2.5-1.38,.21-1,.01-2.12,.8-2.96,.71,.56,1.1,1.22,2.43,1.13,2.69-.18,5.46,.04,7.25,2.84,1.42,2.23,3.91,2.24,6.29,2.19,1.63,2.62,3.74,4.68,6.4,6.37,3,1.91,6.82,3.04,7.91,7.17,.12,.47,.99,.75,1.5,1.12-4.75,.26-9.36-1.38-14.11-1.1-5.77-.43-11.54-.86-17.31-1.28-1.02-.07-2.07,.09-3.03-.4-.27-1.64-1.09-2.12-2.54-1.16-1.56,1.03-2.63,.54-3.35-1.06-.4-.88-.88-1.65-1.96-1.83-2.61-.43-4.55-2-6.43-3.73-1.29-1.19-2.95-1.83-4.63-1.8-5.08,.09-9.79-1.88-14.76-2.41-1.67-.18-2.83-1.37-3.67-2.82,.04-.35,.09-.7,.13-1.05Z"/>
      <path class="cls-22" d="M145.26,109.39c-5.88-2.21-11.64-4.79-17.87-6-1.92-.37-3.96,0-5.78-.94-.1-.16-.18-.45-.29-.46-3.66-.33-6.02-3.29-9.29-4.56-5.45-2.13-10.76-4.73-15.71-8.03-3.5-2.34-6.76-4.83-10.03-8.62,4.87,1.89,9.05-.58,13.47,.71,4.91,1.43,9.6,3.27,13.94,5.78,5,2.89,10.2,5.55,14.28,9.86,2.03,2.15,4.34,4.01,7.26,5.14,2.83,1.09,4.68,3.99,7.83,4.66,.84,.73,2.24,.97,2.19,2.48Z"/>
      <path class="cls-80" d="M159.55,183.72c-1.25-.81-3.79,.36-4.38-1.75-.55-1.97,1.49-2.68,2.94-3.55,5.35-3.19,10.66-6.45,15.98-9.69,.55-.33,1.03-.93,1.73-.4,.49,.38,.53,.92,.42,1.52-1.16,6.18-10.16,13.78-16.69,13.86Z"/>
      <path class="cls-7" d="M79.8,147.01c2.27,.01,4.54,.03,6.81,.04-2.27,.84-4.54,.78-6.81-.04Z"/>
      <path class="cls-61" d="M71.93,146.51c-.22,.4-.45,.79-.67,1.19-1.19-.09-2.41-.41-3.56-.23-2.54,.39-3.09-.51-2.11-2.73,1.26-.84,2.83-.65,4.22-1.48,1.38-.82,3.45-.59,3.34,2.08-.19,.6-.49,1.09-1.2,1.16-.42-.25-.49-.75-.8-1.17-.15,.73,.49,.84,.79,1.17Z"/>
      <path class="cls-102" d="M115.4,119.31c-1.06-1.19-2.65-1.8-3.52-3.21-3.19-5.42-1.77-8.78,4.38-10.18,1.09-.25,2.21-.4,3.34-.43,5.02-.14,9.86,.87,14.64,2.27,.91,.27,2.08,.63,1.94,1.7-.15,1.11-1.41,1-2.33,1.05-2.25,.12-4.51-.11-6.75,.15-.74,.28-1.44,.65-2.05,1.17-.28,.25-.57,.48-.87,.71-.39,.31-.79,.61-1.04,1.06-.28,1.84-.27,3.64,.24,5.47,.78,2.83,.11,3.49-2.81,3.06-1.94-.54-3.56-1.68-5.17-2.83Z"/>
      <path class="cls-87" d="M115.4,119.31c1.93,.19,3.12,1.98,4.98,2.33,3.57,1.12,7.27,1.84,10.73,3.33,7.56,2.13,15.22,3.9,22.84,5.79,2.49,.62,5.23,.54,7.74-.57,2.38-.55,3.65-2.16,4.26-4.42,.58-.48,1.37-.46,2-.82,.93,.6,1.75,1.29,2.11,2.38-.36,.02-.86-.1-.96,.35-.95,4.24-4.39,4.45-7.7,4.64-10.04,.57-19.54-2.09-28.98-5.02-4.91-1.53-9.85-3.02-14.28-5.76-1.01-.62-2.3-.92-2.73-2.25Z"/>
      <path class="cls-34" d="M126.15,110.36c2.06-1.32,4.36-.52,6.55-.71,.98-.08,1.98-.01,2.99-.32-6.99-2.31-13.89-5.28-21.46-2-3.66,1.59-4.5,3.64-2.77,7.21,.25,.51,.6,.96,.42,1.56-1.2-.89-1.87-2.1-2.17-3.54,.07-4.3,.95-5.62,5.22-6.72,7.68-1.97,15.07-.14,22.37,2.12,1.23,.38,2.38,1.05,3.57,1.59,.31,1.11-.54,1.42-1.26,1.82-.66,.22-1.33,.26-2.01,.16-2.64-.77-5.36-.26-8.03-.42-1.18-.07-2.45,.25-3.42-.75Z"/>
      <path class="cls-166" d="M139.62,110.98c.42-.48,.84-.95,1.26-1.43,4.32,1.5,8.13,4.07,12.25,5.97,.27,.08,.51,.21,.72,.38,.78,1.17,1.96,1.94,2.96,2.89,.73,.69,1.8,1.43,1.49,2.49-.4,1.36-1.78,.37-2.67,.68-2.76,.23-5.23,1.5-7.85,2.23-1,.28-2,.52-3.05,.51-3.33,.49-6.12-1.03-8.95-2.39-2.12-.99-3.31-2.83-4.36-4.79,.24-2.14,1.87-1.78,3.2-1.62,2.51,.3,4.96,.99,7.44,1.44,.91,.17,1.94,.15,2.53-.78,.6-.94-.06-1.57-.69-2.16-1.2-1.43-3.7-1.24-4.3-3.42Z"/>
      <path class="cls-28" d="M153.28,115.89c-.08-.11-.13-.23-.15-.37,.28-.28,.56-.56,.84-.84,5.04,2.91,9.89,6.07,13.98,10.27-.06,1.69-.72,1.61-1.71,.58-.13-.01-.26-.02-.39-.03-4.27-3.1-8.46-6.31-12.57-9.62Z"/>
      <path class="cls-163" d="M184.31,101.17c-.71,1-1.43,2-2.65,2.45-.94,.34-1.2-.37-1.53-.98,.17-1.21-.99-2.01-.97-3.18,.33-.36,.77-.5,1.2-.69,2.37-1.05,2.36-1.07,.46-2.72-.39-.34-.4-.82-.35-1.3,.12-.56,.43-.98,.96-1.22,.56,.14,1.13,.28,1.69,.42,2.2,2.11,1.8,4.64,1.2,7.22Z"/>
      <path class="cls-178" d="M171.21,82.66c.04-.21,.08-.41,.11-.62,2.13,3.53,6.01,5.59,7.86,9.36,.02,1.23-.46,2.24-1.35,3.07-.23,.15-.47,.21-.74,.19-3.27-1.25-5.14-3.55-5.36-7.1,.02-.13,.04-.26,.06-.39-.1-1.51,.49-3.11-.58-4.5Z"/>
      <path class="cls-76" d="M177.85,94.64c-.32-1.4,.75-2.22,1.34-3.24,.75,.71,1.49,1.42,2.24,2.13-.17,.34-.35,.68-.52,1.01-1.01,.29-1.97,2.38-3.06,.09Z"/>
      <path class="cls-115" d="M180.37,102.4c.43,.41,.86,.82,1.29,1.22-4.55,3.14-9.51,2.06-14.39,1.3-4.65-.72-8.45-3.4-12.35-5.79-.97-.94-2.15-1.69-2.7-3,.54,.02,1.08,.04,1.61,.05,.78-.27,1.14,.39,1.64,.73,.82,.68,1.74,1.22,2.62,1.81,4.52,3.55,9.66,3.91,15.07,2.95,1.65-.29,3.34,0,5.01-.13,.84,.02,1.61,.19,2.19,.86Z"/>
      <path class="cls-72" d="M177.85,94.64c1.05,.95,2.02-.79,3.06-.09,.15,.43-.35,1.37,.6,1.14,.78-.19,1.74-1.11,1.92,.27,.14,1.05,.18,2.57-1.25,3.11-.95,.36-2,.43-3.01,.63-1.53,1.01-2.82,.32-4.09-.56-1.14-3.19-4.08-4.71-6.39-6.81-1.59-.9-3.03-2.12-4.92-2.39-.64-.09-1.13,.33-1.69,.5-.25,.08-.51,.11-.77,.12-.73-.05-1.34-.26-1.59-1.04-.15-1.48,1.21-1.72,1.99-2.43,1.33-.92,2.58-.64,3.84,.18,.75,.49,1.65,.66,2.31,0,.69-.7-.1-1.33-.41-1.95-.78-1.57-1.67-3.09-1.84-4.88,3.09,1.3,3.55,5.02,6.18,6.74,0,0,.07-.03,.07-.03,.48,.54,.28,1.23,.37,1.85,.52,3.5,1.6,4.65,5.3,5.52,.12,0,.22,.05,.31,.13Z"/>
      <path class="cls-174" d="M161.71,87.08c-.59,.78-1.18,1.56-1.77,2.34-.89,.21-1.6-.43-2.44-.49-.9-.2-1.65-.68-2.38-1.21-.52-.4-.98-.86-1.46-1.31-.39-.4-.75-.85-.78-1.43-.06-1.3-.46-2.05-1.34-2.36,.38-1.05,1.68-1.55,1.7-2.81,1.51-1.04,2.26-2.99,4.37-3.63,.21,1.48,.67,2.72-1.45,3.23-.56,.14-2.92,1.45-.31,2.63,.58,.26,.73,.61,.29,1.03-1.04,1.02-.3,1.44,.58,1.78,.47,.18,.95,.38,.91,.91-.25,3.16,1.5,1.88,2.93,1.34,.38-.01,.76-.03,1.14-.04Z"/>
      <path class="cls-97" d="M157.76,88.32c1.08-.34,1.66,.33,2.18,1.1,.38,.73,1.16,.43,1.73,.65,1.64,.7,1.23,1.81,.58,2.96-.33,.59-.63,1.18-.17,1.81,.55,.74,1.23,.52,1.99,.3,1.44-.42,2.92-.57,4.3,.3,.5,1.62,.35,2.94-1.59,3.43,1.02,.34,1.65-.88,2.64-.68,1.78,.86,3.61,1.51,5.57,1.9,1.27,.25,2.85,.5,3.09,2.31-2.8-.24-5.55,.22-8.29,.59-4.85,.65-8.88-1.08-12.55-4.02q1.26-.38,2.61-.1c-.96-1.03-2.48-1.84-1.17-3.53-2.13-.94-2.09,2.27-3.87,2.04-.33-.4-.66-.8-.99-1.19,.03-.38,.05-.75,.08-1.13,.6-.75-.18-1.77,.47-2.52,.39-.37,.88-.6,1.4-.94-.82-.18-1.44,.44-2.16,.28-.6-.21-.76-.65-.66-1.23,.34-.76,.93-1.23,1.7-1.5,1.09-.05,2.14-.27,3.1-.82Z"/>
      <path class="cls-46" d="M154.4,92.74c.43,.89,.61,1.74-.48,2.31-.56-1.52-1.66-2.68-2.57-3.97-2.58-3.66-2.54-4.59,.21-8.45,.91,0,1.82,0,2.81,0-.29,1.26-2.1,2.45,.06,3.47,.86,1.83-1.73,2.72-1.22,4.45,.17,.38,.33,.76,.5,1.14,.58,.12,.86,.44,.69,1.05Z"/>
      <path class="cls-90" d="M184.8,115.32c2.28-1.39,4.8-1.67,7.39-1.6,2.51,2.41,2.02,5.59,2.17,8.59-.45,.87-1.22,.75-1.93,.51-1.04-.34-1.64,0-2.36,.83-1.44,1.67-1.99,1.47-3.22-.87,.47-1.71,.8-3.45,1.13-5.48-1.47,.51-2.44-.2-3.26-1.25-.11-.26-.09-.5,.08-.73Z"/>
      <path class="cls-160" d="M193.81,122.6c-.27-3.01-.71-5.99-1.62-8.88,1.57-.19,3.13-.26,4.61,.47-.22,1.43,.93,3.23-1.15,4.14-.62-.4-.61-1.02-.6-1.65-.11,.84,.08,1.67,.02,2.51-.02,.33,0,.33,.41,.12,1.64,.4,2.38,2.46,4.32,2.3,.71,.95,.47,2.09,.64,3.16-.02,1.05-.55,1.81-1.5,2.16-.74,.27-1.89,.22-1.64-.75,.71-2.82-1.31-2.27-2.75-2.51-.28-.05-.54-.16-.76-.33-.14-.25-.12-.5,.03-.73Z"/>
      <path class="cls-77" d="M188.81,132.9c-.53,2.2-1.88,.34-2.81,.56-4.04-2.3-5.22-6.34-6.11-10.44-.38-1.74-.44-3.73,1.62-4.82,.8,2-.27,4.18,.64,6.21,.33,.73,.45,1.58,.86,2.31,.65,1.65,2,2.64,3.36,3.65,.95,.7,2.2,1.14,2.44,2.53Z"/>
      <path class="cls-120" d="M210.7,127.87c-.05,1.3,.54,2.58,.16,3.9-3.21,.23-4.2-.66-4.33-3.72-.08-1.86-.55-3.75,.77-5.4,.29-.19,.58-.19,.88-.02,1.37,1.49,1.76,3.45,2.51,5.23Z"/>
      <path class="cls-137" d="M199.41,121.67c-2.75,1.71-2.87-.88-3.72-2.28-.4-.45-.43-.87,.08-1.26,1.24-1.08-.85-3.02,1.02-3.94,.54,.15,1.23-.04,1.52,.68,.77,1.74,1.56,3.48,1.51,5.45,.05,.25,.06,.51,.04,.77-.06,.26-.22,.45-.46,.57Z"/>
      <path class="cls-129" d="M182.59,127.3c-1.72-2.87-2.11-5.9-1.08-9.1,1.13-.92,1.7-2.48,3.29-2.88,0,.21,.02,.41,.03,.62,.53,.76,.72,1.56,.29,2.43-.54,.66-.68,1.56-1.24,2.22-1.52,1.07-.85,2.45-.52,3.76,.22,.89,.81,1.72,.67,2.66-.18,1.18-.78,1.06-1.43,.29Z"/>
      <path class="cls-3" d="M199.41,121.67c.05-.22,.1-.44,.15-.66,.13-.83,.35-1.64,.49-2.48,.43-2.63,.47-2.64,2.93-1.5,.69,.43,1.42,.83,1.8,1.61,.49,.62-.94,.95-.25,1.61,.1,.51,.04,.99-.28,1.42-.77,.85-2.39-.52-2.86,1.1-.29,.68-.49,1.41-1,1.98-.11,.06-.22,.12-.33,.18-.75-.98-.25-2.21-.65-3.26Z"/>
      <path class="cls-169" d="M202.97,117.03c-1.14-.17-2.69-1.09-2.05,1.46,.24,.96-.37,1.96-1.37,2.51,0,0,.02,.02,.02,.02-.24-1.9-.61-3.79-.59-5.72,1.68-.24,2.93,.52,3.98,1.71Z"/>
      <path class="cls-157" d="M204.08,119.91c-.53-.84,.64-.74,.69-1.26,1.63,.91,2.47,2.5,3.42,4-.28,.03-.56,.05-.84,.08-.68,.31-1.23,.03-1.75-.38-.68-.7-.7-1.81-1.51-2.43Z"/>
      <path class="cls-3" d="M198.99,115.32c1.12,1.81,.6,3.79,.59,5.72-.82-1.97-1.23-4.02-1.26-6.16,.22,.15,.45,.29,.67,.44Z"/>
      <path class="cls-40" d="M182.59,127.3c.96,.2,1.08-.11,.66-.94-.66-1.31-1.17-2.71-1.02-4.2,.08-.75-.2-2.02,1.36-1.56,1.41,.72,1.77,2.29,2.76,3.37,1.2,1.31,2.39,1.65,3.83,.52,1.12-.88,2.28-1.56,3.78-1.1,.54-.12,1.08-.26,1.62-.35,1.17-.19,2.31,.07,3.03,.99,.78,1.01-.85,1.46-.83,2.51,1.19,0,1.92-.52,2.29-1.6,0,0,.04,.04,.04,.04,.57-.9,1.15-.74,1.79-.06,1.52,1.61,2.63,3.38,2.45,5.71-.51,.68-.92,1.57-2.05,1.13-.53,0-1.05,0-1.58,0-3.07-3.14-8.44-4.23-12.12-2.39,.92,2.09,3.68,1.73,4.75,3.55-1.51,1.38-3.01-.24-4.52-.01-2.17-1.76-5.16-2.61-6.22-5.6Z"/>
      <path class="cls-150" d="M193.34,132.92c-2.17-.41-4.07-1.4-5.75-2.78-.58-.47-1.57-1.11,.05-1.75,3.99-1.6,7.73-.52,11.51,.81,1.33,.47,1.68,1.32,1.57,2.56-2.29,1.43-4.87,1.09-7.38,1.16Z"/>
      <path class="cls-179" d="M207.43,132.88c1.45,.7,3.94,.43,3.19,3.22-.66,2.46-3.53,4.19-5.9,3.47-1.77-.54-3.35-1.54-4.67-3.43,1.8-.17,3.75,.23,3.99-2.09,.75-1.5,1.81-2.1,3.39-1.17Z"/>
      <path class="cls-147" d="M205.74,122.22c.54,.17,1.07,.33,1.61,.5-.03,2.09-.26,4.19-.05,6.26,.2,1.94,1.77,2.63,3.56,2.8-.94,1.27-2.33,.34-3.45,.72-.75,.22-1.35-.01-1.82-.62-.11-2.8-.8-5.32-3.4-6.9-.86-.52-.93-1.58-1.55-2.26,.33-2.9,2.04-1.28,3.33-1.02,.08,1.85,1.32-.12,1.76,.53Z"/>
      <path class="cls-88" d="M205.7,131.76c.57,.24,1.14,.48,1.71,.73,.03,.13,.03,.26,.01,.38-1.26,.02-2.34,.54-3.39,1.17-1.91,.25-2.3-.66-1.74-2.29,.65-.29,.92-1.19,1.8-1.11,1.3-.72,1.38,.31,1.61,1.12Z"/>
      <path class="cls-116" d="M71.93,146.51c-1.73,.92-1.88-.49-2.06-1.53-.14-.83,.73-1.2,1.31-1.11,2.05,.29,.52,1.74,.76,2.64,0,0,0,0,0,0Z"/>
      <path class="cls-65" d="M123.89,112.03l.6-.57c.43-.42,1.01-.34,1.53-.45,1.03,.2,1.79,.96,2.74,1.36,1.49,.63,1.95,2.15,.95,3.2-1.21,1.28-.27,1.73,.39,2.35,2.47,2.3,5.18,4.24,8.31,5.56,1.2,.71,2.43,1.37,3.52,2.25,.43,.34,.85,.82,.55,1.42-.3,.59-.88,.58-1.46,.43-1.79-.47-3.62-.81-5.36-1.46-3.93-1.97-8.14-3.45-11.12-6.97-2.08-2.45-2.31-4.37-.64-7.11Z"/>
      <path class="cls-117" d="M126.08,111.33c-.53,.04-1.07,.09-1.6,.13,.21-.9,1.12-.72,1.67-1.1,3.96-.13,7.93-.63,11.83,.5,1.84,1.43,3.92,2.35,6.18,2.86,1.14,.62,2.13,1.38,1.63,2.87-.53,1.57-1.91,1.75-3.26,1.54-2.59-.41-5.15-1.07-7.74-1.42-.97-.13-2.51-1.17-2.93,.9-1.45-1.03-1.54-1.77-.37-3.1,.88-1,2.26-1.31,3.39-2.55-3.05-.54-6,.13-8.8-.62Z"/>
      <path class="cls-136" d="M130.64,125.53c-3.45-1.22-7.16-1.75-10.26-3.89,2.41,.51,3.12-.12,2.24-2.67-.7-2.02-1.2-4.29,.26-6.34-.34,5.3,2.98,8.08,7.09,10.35,1.11,.62,2.4,1.03,3.05,2.29-.7,.9-1.53,.67-2.37,.26Z"/>
      <path class="cls-87" d="M132.88,125c-2.57-1.14-5-2.46-7.13-4.37-2.45-2.19-3.58-4.72-2.87-7.99,.33-.2,.67-.4,1-.61-.85,4.7,.27,7.03,4.76,9.62,2.34,1.35,4.75,2.58,7.14,3.86-1.17,.98-2.09,.51-2.9-.52Z"/>
      <path class="cls-107" d="M132.88,125c.97,.17,1.93,.34,2.9,.52,2.06,.56,4.12,1.13,6.83,1.87-1.56-1.93-3.4-2.37-4.71-3.5-.6-.88-2.04-.96-2.19-2.28,2.98,1.02,5.76,2.85,9.14,2.33-.57,1.35-1.39,1.39-2.01,.89,2.09,1.03,4.58,2.38,7.5,2.8,1.44,.21,3.03,.17,4.11,1.44,.42,1.5,1.62,.57,2.45,.74,1.8,.38,3.85-.69,5.44,.93-3.4,1.72-6.97,1.3-10.42,.46-7.13-1.74-14.2-3.76-21.29-5.66,.75-.17,1.66,.33,2.24-.54Z"/>
      <path class="cls-32" d="M162.35,130.74c-3.03-.35-6.17,.52-9.36-.92,.65-.18,1.08-.3,1.51-.41,.81-.82,1.87-.71,2.87-.74,2-.06,3.83-.6,5.47-1.77,1.06-.61,2.41-.48,3.37-1.33l.02-.02c.19,2.84-1.01,4.65-3.89,5.2Z"/>
      <path class="cls-63" d="M144.16,113.72c-2.64,.31-4.97-.07-6.18-2.86,.55,.04,1.09,.08,1.64,.12,1.51,.91,3.03,1.83,4.54,2.74Z"/>
      <path class="cls-149" d="M163.54,127.29c-2.56,2.65-5.9,1.95-9.04,2.12-4.17-.94-8.45-1.53-12.18-3.85-.29-.18-.55-.42-1.08-.82,1.31-.68,2.64-.06,3.61-.8,2.71-.25,5.17-1.36,7.69-2.25,1.1-.39,2.18-1.12,3.45-.6,1.8,1.11,4.13,.86,5.82,2.31,1.22,1.05,2.53,1.97,1.72,3.88Z"/>
      <path class="cls-74" d="M135.71,121.6c.63,.86,1.83,1.16,2.19,2.28-4.25-1.92-8.23-4.16-10.49-8.23,.51-1.45,2.05,1.07,2.08-1.02,.01-.98-.06-1.99-1.53-1.63-1.44,.36-1.12-1.25-1.87-1.68,3.12-1.02,6.32-.34,9.47-.38,1.46-.02,.81,1.06,.37,1.51-.85,.86-1.93,1.41-3.05,1.94-1.33,.63-2.45,1.59-1.01,3.21,1.52,1.11,2.14,3.07,3.85,4Z"/>
      <path class="cls-144" d="M163.54,127.29c-.06-1.96-1.36-2.92-2.93-3.71-1.56-.78-3.35-1.16-4.61-2.49,.6,.1,1.21,.21,1.95,.34-1.1-2.39-3.96-3.05-4.67-5.53,4.93,2.4,9.08,5.84,12.94,9.67-.41,1.32-1.7,1.29-2.67,1.72Z"/>
      <path class="cls-5" d="M178.1,102.39c-1.47-.91-2.9-1.74-4.75-1.79-1.65-.05-3.14-.78-4.18-2.19-1.15-1.34-.29-2.17,.76-2.95,2.52-.3,3.82,1.53,5.31,3.04,1.26,.59,2.52,1.15,3.95,1.17,1.13,.58,3.05,.81,1.19,2.71-.76,0-1.52,0-2.28,0Z"/>
      <path class="cls-30" d="M177.54,94.5c-2.34,.67-4.21-.37-5.04-2.67-.56-1.54-.45-3.13-.63-4.7,.21,.3,.58,.58,.6,.89,.27,3.29,2.82,4.76,5.08,6.48Z"/>
      <path class="cls-82" d="M154.83,97.37c1.22-.75,1.26-1.89,.91-3.32,1.4,1.23,2.92-.28,4.22,.58-1.91,2.19-1.57,2.92,2.16,4.21-1.66,2.46-3.33-.66-4.85,.12-.81-.53-1.62-1.06-2.43-1.59Z"/>
      <path class="cls-165" d="M175.23,98.51c-1.67-.94-3.34-1.87-5.01-2.81-.23,.14-.48,.17-.74,.1-.92-.37-.91-1.88-2.21-1.78-.38-.02-.75-.07-1.12-.19-.62-.22-1.07-.68-1.54-1.1-.99-.76-2.13-1.38-2.34-2.79,.26-.52,.62-.91,1.21-1.04,1.86,.89,3.18,2.82,5.51,2.79,2.26,.84,3.08,3.63,5.67,4.16,.36,.07,.39,1.74,.58,2.66Z"/>
      <path class="cls-109" d="M166.19,93.45c.42-.04,.84-.08,1.26-.13,.62,.44,.89,1.13,1.19,1.78,.04,.26-.06,.46-.28,.6-1.56,.17-3.15-.61-4.73,.47-.67,.46-2.09-.23-2.32-.87-.26-.74-1.46-2.1-.04-2.64,1.99-.77,.66-1.68,.41-2.59,.2-.04,.39-.09,.59-.13,.94,.76,1.88,1.52,2.81,2.28-.37,1.07-.61,2.03,1.1,1.23Z"/>
      <path class="cls-109" d="M168.98,91.69c-.47,.59-1.28,.8-1.7,.41-1.23-1.12-2.88-1.73-3.8-3.2,2.08,.44,3.81,1.58,5.51,2.79Z"/>
      <path class="cls-36" d="M153.21,90.55c-.08-1.15-2.59-2.93,.84-3.21,.16-.01,.26-.81,.38-1.24,.35,.35,.7,.7,1.05,1.06,.42,.89,1.04,1.84-.54,2.24-.59,.37-.87,1.19-1.73,1.15Z"/>
      <path class="cls-46" d="M154.93,89.4c.75-.61,.51-1.46,.54-2.25,.77,.37,1.33,1.15,2.29,1.17-.76,.85-1.27,2.33-2.83,1.08Z"/>
      <path class="cls-109" d="M169.59,95.58c.21,.04,.42,.08,.63,.12-.66,.78-1.4,1.53-1.06,2.71-.55,.34-1.07,.78-1.67,.99-.86,.3-1.74,.16-2.15-.78-.17-.38-.22-1.14,0-1.31,1.1-.85,1.02,1.13,2.03,.84,.31-.77,.65-1.61,.99-2.46,0,0,.2-.19,.2-.19,.36-.25,.7-.22,1.03,.07Z"/>
      <path class="cls-180" d="M154.4,92.74c-.23-.35-.46-.7-.69-1.05,1.03-1.02,2.19-1.52,3.76-.99-.68,1.44-1.54,2.25-3.07,2.04Z"/>
      <path class="cls-142" d="M193.96,123.38c-1.18,.94-2.71,1.17-3.91,2.17-1.21,1.01-2.56,1.02-3.7-.54-1.03-1.41-2.39-2.59-2.75-4.41,.28-.85-.27-2.1,1.14-2.42,1.4,1.22,2.01,2.84,2.35,4.6,.89,1.19,1.71,2.59,2.65-.03,1.18-3.27,2.72,.13,4.07-.14,.05,.26,.1,.52,.15,.78Z"/>
      <path class="cls-153" d="M187.09,122.77c-1.53-1.15-1.94-2.88-2.35-4.6,.03-.74,.06-1.48,.09-2.23,1.07-.62,2.22,2.52,3.24-.08,.23,.25,.68,.56,.64,.76-.44,2.07,.34,4.48-1.62,6.15Z"/>
      <path class="cls-132" d="M195.78,118.13c-.03,.42-.05,.84-.08,1.26-.28,.57,.13,1.32-.55,1.84-1.37-2.04-.34-4.44-1.14-6.55,1.52,.74,1.53,2.15,1.77,3.45Z"/>
      <path class="cls-128" d="M205.7,131.76c-.56-.34-.76-1.19-1.61-1.12-.77-1.9-1.43-3.84-2.81-5.45-.43-.51-.77-.25-1.17-.22,.18-.76,.36-1.51,.54-2.27,3.59,1.2,6.23,5.93,5.06,9.06Z"/>
      <path class="cls-6" d="M205.74,122.22c-.23,.39-.42,.82-.71,1.15-.59,.69-1.32,.69-1.9,.05-1.1-1.2,.61-1.13,.85-1.73,.03-.59,.07-1.19,.1-1.78,1.44,.13,1.82,1.03,1.66,2.31Z"/>
      <path class="cls-85" d="M142.84,117.14c-1.05-.05-2.11-.08-2.01-1.61,.09-1.39,1.11-1.26,2.03-1.24,1.23,.02,1.93,.62,1.82,1.91-.11,1.22-.94,1.18-1.84,.94Z"/>
      <path class="cls-55" d="M166.19,93.45c-.07,.83-.41,1.5-1.33,1.34-.64-.11-1.17-.67-1.23-1.34-.08-.97,.67-1.17,1.46-1.24,.37,.41,.74,.82,1.1,1.23Z"/>
      <path class="cls-72" d="M169.59,95.58c-.34-.02-.69-.05-1.03-.07-.68-.57-1.45-1.1-1.11-2.19,2.59-1.03,1.14,1.78,2.14,2.26Z"/>
    </g>
  </g>
</svg>