<?xml version="1.0" encoding="UTF-8"?>
<svg id="Layer_2" data-name="Layer 2" xmlns="http://www.w3.org/2000/svg" viewBox="0 0 240 270">
  <defs>
    <style>
      .cls-1 {
        fill: #581f20;
      }

      .cls-2 {
        fill: #50100e;
      }

      .cls-3 {
        fill: #aa0809;
      }

      .cls-4 {
        fill: #181d1f;
      }

      .cls-5 {
        fill: #480f0e;
      }

      .cls-6 {
        fill: #9aa;
      }

      .cls-7 {
        fill: #611f1d;
      }

      .cls-8 {
        fill: #e6f1f2;
      }

      .cls-9 {
        fill: #2c2323;
      }

      .cls-10 {
        fill: #581515;
      }

      .cls-11 {
        fill: #4d78a2;
      }

      .cls-12 {
        fill: #ab0a0a;
      }

      .cls-13 {
        fill: #6d757f;
      }

      .cls-14 {
        fill: #761713;
      }

      .cls-15 {
        fill: #5f6968;
      }

      .cls-16 {
        fill: #788588;
      }

      .cls-17 {
        fill: #c9eff6;
      }

      .cls-18 {
        fill: #f04444;
      }

      .cls-19 {
        fill: #4f6bb8;
      }

      .cls-20 {
        fill: #ed0c0d;
      }

      .cls-21 {
        fill: #705860;
      }

      .cls-22 {
        fill: #b80b07;
      }

      .cls-23 {
        fill: #9d0303;
      }

      .cls-24 {
        fill: #b3cbd2;
      }

      .cls-25 {
        fill: #15477d;
      }

      .cls-26 {
        fill: #a7b7b9;
      }

      .cls-27 {
        fill: #dd0e0c;
      }

      .cls-28 {
        fill: #47525a;
      }

      .cls-29 {
        fill: #870b0c;
      }

      .cls-30 {
        fill: #bf0e09;
      }

      .cls-31 {
        fill: #f8f8f5;
      }

      .cls-32 {
        fill: #7b2c2d;
      }

      .cls-33 {
        fill: #252423;
      }

      .cls-34 {
        fill: #4f9196;
      }

      .cls-35 {
        fill: #949fa6;
      }

      .cls-36 {
        fill: #680c0b;
      }

      .cls-37 {
        fill: #560909;
      }

      .cls-38 {
        fill: #95a5a8;
      }

      .cls-39 {
        fill: #698e93;
      }

      .cls-40 {
        fill: #bc0d08;
      }

      .cls-41 {
        fill: #511e1c;
      }

      .cls-42 {
        fill: #786273;
      }

      .cls-43 {
        fill: #220c0d;
      }

      .cls-44 {
        fill: #6f1416;
      }

      .cls-45 {
        fill: #f6fbfa;
      }

      .cls-46 {
        fill: #e37f7f;
      }

      .cls-47 {
        fill: #80100e;
      }

      .cls-48 {
        fill: #111017;
      }

      .cls-49 {
        fill: #adc1ce;
      }

      .cls-50 {
        fill: #7b91a4;
      }

      .cls-51 {
        fill: #606b81;
      }

      .cls-52 {
        fill: #bb1611;
      }

      .cls-53 {
        fill: #793835;
      }

      .cls-54 {
        fill: #2b1616;
      }

      .cls-55 {
        fill: #445d85;
      }

      .cls-56 {
        fill: #8c2422;
      }

      .cls-57 {
        fill: #3c273b;
      }

      .cls-58 {
        fill: #bc1731;
      }

      .cls-59 {
        fill: #080606;
      }

      .cls-60 {
        fill: #f3f4f5;
      }

      .cls-61 {
        fill: #aa1b17;
      }

      .cls-62 {
        fill: #d8e7ec;
      }

      .cls-63 {
        fill: #e4ada5;
      }

      .cls-64 {
        fill: #181e20;
      }

      .cls-65 {
        fill: #461816;
      }

      .cls-66 {
        fill: #de1510;
      }

      .cls-67 {
        fill: #342221;
      }

      .cls-68 {
        fill: #847b76;
      }

      .cls-69 {
        fill: #dd0405;
      }

      .cls-70 {
        fill: #594952;
      }

      .cls-71 {
        fill: #d7d7d7;
      }

      .cls-72 {
        fill: #2e3958;
      }

      .cls-73 {
        fill: #9d574c;
      }

      .cls-74 {
        fill: #bf0e08;
      }

      .cls-75 {
        fill: #b7100c;
      }

      .cls-76 {
        fill: #45526c;
      }

      .cls-77 {
        fill: #72201f;
      }

      .cls-78 {
        fill: #ea0505;
      }

      .cls-79 {
        fill: #d7edee;
      }

      .cls-80 {
        fill: #101415;
      }

      .cls-81 {
        fill: #ce0805;
      }

      .cls-82 {
        fill: #7e0406;
      }

      .cls-83 {
        fill: #2a3136;
      }

      .cls-84 {
        fill: #242229;
      }

      .cls-85 {
        fill: #606869;
      }

      .cls-86 {
        fill: #304e7d;
      }

      .cls-87 {
        fill: #b30507;
      }

      .cls-88 {
        fill: #a27065;
      }

      .cls-89 {
        fill: #744231;
      }

      .cls-90 {
        fill: #b0b8ba;
      }

      .cls-91 {
        fill: #ccdae1;
      }

      .cls-92 {
        fill: #4f3032;
      }

      .cls-93 {
        fill: #2c0d0b;
      }

      .cls-94 {
        fill: #bbc2cb;
      }

      .cls-95 {
        fill: #c30d05;
      }

      .cls-96 {
        fill: #7c787c;
      }

      .cls-97 {
        fill: #4a4e4e;
      }

      .cls-98 {
        fill: #f91f1f;
      }

      .cls-99 {
        fill: #690e0e;
      }

      .cls-100 {
        fill: #130d11;
      }

      .cls-101 {
        fill: #141819;
      }

      .cls-102 {
        fill: #f70606;
      }

      .cls-103 {
        fill: #8599a1;
      }

      .cls-104 {
        fill: #da2324;
      }

      .cls-105 {
        fill: #858eb6;
      }

      .cls-106 {
        fill: #788392;
      }

      .cls-107 {
        fill: #702b28;
      }

      .cls-108 {
        fill: #713b3c;
      }

      .cls-109 {
        fill: #40507a;
      }

      .cls-110 {
        fill: #bbcbd1;
      }

      .cls-111 {
        fill: #574952;
      }

      .cls-112 {
        fill: #8c2b3e;
      }

      .cls-113 {
        fill: #a51903;
      }

      .cls-114 {
        fill: #3a0909;
      }

      .cls-115 {
        fill: #c0e4e9;
      }

      .cls-116 {
        fill: #dee5e8;
      }

      .cls-117 {
        fill: #2a4a79;
      }

      .cls-118 {
        fill: #78808e;
      }

      .cls-119 {
        fill: #bb4344;
      }

      .cls-120 {
        fill: #8a0f0b;
      }

      .cls-121 {
        fill: #d50c07;
      }

      .cls-122 {
        fill: #f60606;
      }

      .cls-123 {
        fill: #495252;
      }

      .cls-124 {
        fill: #ac0f13;
      }

      .cls-125 {
        fill: #f11917;
      }

      .cls-126 {
        fill: #912524;
      }

      .cls-127 {
        fill: #860a08;
      }

      .cls-128 {
        fill: #0e1213;
      }

      .cls-129 {
        fill: #760808;
      }

      .cls-130 {
        fill: #b20b0b;
      }

      .cls-131 {
        fill: #f7f9f9;
      }

      .cls-132 {
        fill: #7e1c1a;
      }

      .cls-133 {
        fill: #bec8c8;
      }

      .cls-134 {
        fill: #508a92;
      }

      .cls-135 {
        fill: #75736d;
      }

      .cls-136 {
        fill: #fc0902;
      }

      .cls-137 {
        fill: #510c0b;
      }

      .cls-138 {
        fill: #a40d08;
      }

      .cls-139 {
        fill: #a10905;
      }

      .cls-140 {
        fill: #760c08;
      }

      .cls-141 {
        fill: #e7eded;
      }

      .cls-142 {
        fill: #a70906;
      }

      .cls-143 {
        fill: #453133;
      }

      .cls-144 {
        fill: #743f40;
      }

      .cls-145 {
        fill: #280809;
      }

      .cls-146 {
        fill: #8d949f;
      }

      .cls-147 {
        fill: #2d1918;
      }

      .cls-148 {
        fill: #c40906;
      }

      .cls-149 {
        fill: #343a3c;
      }

      .cls-150 {
        fill: #fae9df;
      }

      .cls-151 {
        fill: #45575f;
      }

      .cls-152 {
        fill: #9e1714;
      }

      .cls-153 {
        fill: #39191a;
      }

      .cls-154 {
        fill: #2a3f63;
      }

      .cls-155 {
        fill: #661311;
      }

      .cls-156 {
        fill: #6d1716;
      }

      .cls-157 {
        fill: #ecefee;
      }

      .cls-158 {
        fill: #6f080a;
      }

      .cls-159 {
        fill: #040505;
      }

      .cls-160 {
        fill: #fc2807;
      }

      .cls-161 {
        fill: #8e7488;
      }

      .cls-162 {
        fill: #0a0d0e;
      }

      .cls-163 {
        fill: #5f0205;
      }

      .cls-164 {
        fill: #c50e10;
      }

      .cls-165 {
        fill: #fa0502;
      }

      .cls-166 {
        fill: #a5a29e;
      }

      .cls-167 {
        fill: #303133;
      }

      .cls-168 {
        fill: #161e23;
      }

      .cls-169 {
        fill: #0b0d0b;
      }

      .cls-170 {
        fill: #903d30;
      }

      .cls-171 {
        fill: #730b0c;
      }

      .cls-172 {
        fill: #8e1714;
      }

      .cls-173 {
        fill: #2c0c0b;
      }

      .cls-174 {
        fill: #933132;
      }

      .cls-175 {
        fill: #fa9c93;
      }

      .cls-176 {
        fill: #4d2221;
      }

      .cls-177 {
        fill: #de2120;
      }

      .cls-178 {
        fill: #240d0c;
      }

      .cls-179 {
        fill: #b05967;
      }

      .cls-180 {
        fill: #0b0e15;
      }

      .cls-181 {
        fill: #510505;
      }

      .cls-182 {
        fill: #ac2d2d;
      }

      .cls-183 {
        fill: #be0d0d;
      }

      .cls-184 {
        fill: #cad8dc;
      }

      .cls-185 {
        fill: #ca6a6a;
      }
    </style>
  </defs>
  <g id="Layer_2-2" data-name="Layer 2">
    <g>
      <path class="cls-159" d="M239.95,165.05c0,34.26-.02,68.53,.05,102.79,0,1.81-.32,2.16-1.92,2.16-78.72-.06-157.44-.06-236.16,0-1.6,0-1.92-.35-1.92-2.16,.06-41.12,.05-82.23,.05-123.35,2.14-1.17,2.86-.99,4.01,1.11,.29,.52,.46,1.21,1,1.4,2.35,.85,2.46,2.91,2.19,5.11-.22,1.8,.33,2.85,1.94,3.25,1.12,.27,2.11,.93,2.45,2.2,.88,3.28,3.1,5.37,5.17,7.6,.17,.18,.42,.32,.5,.54,.8,2.19,2.41,3.35,4.02,4.75,1.6,1.39,3.25,3.01,4.5,4.91,1.05,1.59,2.34,2.52,4.12,2.55,1.56,.02,2.7,.75,3.21,2.5,.05,.17,.1,.42,.2,.46,2.57,1.03,3.38,4.27,5.71,5.65,2.09,1.23,3.51,3.43,5.11,5.29,1.28,1.49,2.48,2.51,4.36,2.53,1.32,.02,2.62,.46,3.95,.43,1.51-.03,2.71,.56,3.59,2.01,1.18,1.92,2.71,2.45,4.67,1.42,1.66-.87,3.23-.04,4.7,.74,1.03,.55,1.25,1.52,.29,2.52-.44,.46-1.17,.87-.68,1.69,.39,.64,1.3,.79,1.7,.42,2.31-2.15,4.69-.46,7.05-.4,1.84,.05,3.3,.68,4.94,1.76,2.43,1.6,5.32,2.43,8.15,2.96,1.92,.36,3.44,1.11,4.13,3.28,.4,1.24,.9,1.29,1.9,.59,2.85-2,4.86-.94,5.23,2.73,.22,2.18,1.22,3.92,2.14,5.73,1.86,3.14,2.25,7.02,4.18,10.16,1.24,2.01,2.18,4.25,3.59,6.16,.53,.71,.35,1.66,.43,2.52,.09,.98-.37,2.14,.64,2.85,1.25-.21,.63-1.32,.73-2.01,.13-1.01-.05-2.08,.36-3.04,.33-.77,.78-1.09,1.33-.16,.39,.9,.47,1.88,.4,2.83-.39,5.76,.13,11.52,.01,17.28-.03,1.41-.11,2.81-1.01,3.94-.51,.57-.78,1.26-.87,2.08-.32,2.75,.19,3.48,2.64,3.58,1.63,.07,3.26-.09,4.89,.11,.75-.08,1.5-.15,2.25,0,.37,.02,.74-.06,1.1-.01,2.14-.38,4.37-.09,6.42-1.08,.95-1.29,.82-2.79,.68-4.29-.82-1.63-1.76-.05-2.63-.11-.36,.08-.72,.08-1.08,0-.39-.13-.7-.35-.88-.77-.37-1.51,.54-2.28,1.46-2.94,1.32-.95,1.77-2.26,1.77-3.98,0-3.49-.16-6.98,.15-10.46,.03-.44,.1-.88,.28-1.28,.33-.62,.75-1.17,1.18-1.7,1.18-1.02,1.15-2.5,1.21-3.97,.08-1.87-.27-3.79,.49-5.58,2.17-3.43,5.44-5.45,8.28-8.01,1.42-1.28,3.26-1.95,4.95-2.25,3.37-.6,6.68-1.58,10.06-2.09,1.46-.22,2.94-.21,4.37-.75,1.46-.55,2.9-.13,4.36,.26,2.28,.61,4.62,1.22,6.29-1.61,.61-1.03,1.75-1.14,2.77-1.08,3.31,.21,6.45-1.26,9.75-1.18,.87,.02,1.43-.54,1.85-1.37,1.04-2.07,2.72-2.75,4.73-2.75,.94,0,1.87-.05,2.81,0,1.8,.09,3.32-.16,4.27-2.32,.73-1.65,2.34-1.94,3.88-1.89,1.53,.05,2.32-.95,3.44-2.01,2.69-2.54,4.29-7.21,8.88-6.52,.37,.06,.93,.03,1.11-.3,1.19-2.13,3.44-3.06,4.65-4.99,1.15-1.82,2.39-2.63,4.25-2.54,1.61,.08,2.94-.35,3.48-2.32,.14-.5,.4-1.1,.81-1.25,2.54-.9,3.72-3.64,5.47-5.48,1.67-1.76,3.24-3.9,4.88-5.8,2.03-2.36,3.9-4.59,3.66-8.18-.03-.46,.34-.98,.96-.86Z"/>
      <path class="cls-128" d="M99.85,220.92c-1.01-2.12-2.47-4.01-2.38-6.67,.04-1.15-.32-2.36-1.48-2.7-1.09-.32-2.01-.11-2.85,1.1-1.32,1.9-2.13,1.63-2.64-.77-.46-2.15-1.59-3.04-3.49-3.09-2.92-.08-5.34-2.44-8.29-2.42-2.03-4.16-6.41-.85-8.92-3.54-.27-.29-.67-.09-.77,.25-.57,2.08-2.09,1.4-3.33,1.49-.92,.07-1.75-.17-1.88-1.43-.11-1.05,.07-1.94,1.16-2.21,.36-.09,.87-.06,.86-.66,0-.65-.49-.85-.97-.9-1.66-.17-3.15-1.28-5.03,.13-1.66,1.25-3.4-.24-4.27-2-.78-1.59-1.74-1.91-3.2-1.91-2.01,0-4.02-.33-6.03-.52-.87-.08-1.5-.71-1.85-1.46-.68-1.47-1.82-2.27-2.89-3.28-1.42-1.34-2.17-3.59-4.44-3.71-.3-.02-.77-.74-.81-1.18-.15-1.74-.74-2.67-2.46-2.59-.8,.03-1.45-.82-1.46-1.78-.02-1.89-.9-2.46-2.4-2.3-2.29,.24-3.49-1.34-5.03-3.01-1.83-1.99-3.06-5.02-5.97-5.62-.54-.11-1.11-.48-1.24-1.1-.77-3.63-4.18-4.95-5.51-7.85-1.31-2.85-2.36-5.31-5.45-6.02-.75-.17-.53-1.57-.42-2.59,.22-1.91,1.06-4.34-1.96-4.66-.35-.04-.91-.69-.92-1.07-.06-2.98-1.97-2.28-3.5-2.33C.05,97.11,.05,49.73,.01,2.35,0,.6,.17-.01,1.99,0,20.24,.11,38.49,.06,56.74,.06c.96,2.28,.65,3.58-.94,4.99-2.33,2.07-4.3,4.57-6.3,7.03-4.32,5.29-6.04,11.99-8.04,18.53-.61,2-1.72,3.14-3.36,3.64-2.63,.8-3.58,2.76-3.57,5.63,0,1.31-.29,2.61-.44,3.92-.33,2.67-.93,3.4-3.29,3.47-3.94,.12-3.49,.28-4.03,4.06-.25,1.8-.57,3.45-2.11,4.44-.34,.22-.64,.57-.67,1.03-.19,2.71-.48,5.37-1.59,7.88-.47,1.05,.41,1.8,1.24,2.19,2.18,1.02,2.23,2.7,1.94,5.13-.84,6.91-2.47,13.75-1.81,20.84,.13,1.39,.27,2.55,1.54,3.24,1.05,.57,1.53,1.68,1.7,2.98,.45,3.57,.82,7.15,.29,10.75-.24,1.61,.03,2.68,1.4,3.73,2.3,1.76,2.66,4.84,2.97,7.68,.22,1.97,.21,3.75,2.1,4.84,1.21,.7,1.22,2.36,1.37,3.75,.2,1.88,1.09,3.15,2.16,4.64,1.7,2.37,3.37,3.72,6.09,3.69,1.17-.01,2.04,1.21,2.12,2.48,.18,3.06,1.55,4.99,3.66,6.84,1.46,1.29,2.64,3.19,3.83,4.91,.69,1.01,1.47,1.75,2.52,2.23,3.74,1.7,6.92,4.78,11.01,5.61,.46,.09,.98,.35,1.18,.8,1.18,2.64,3.39,3.28,5.63,4.2,1.68,.69,3,2.4,4.42,3.63,3.15,2.72,7.27,4.21,9.28,8.51,.76,1.63,2.1,2.54,3.46,3.43,3.5,3.93,5.07,8.9,5.85,14.21,1.02,6.96,1.87,13.95,3.65,20.75,.45,1.73,1.16,3.51-.14,5.2Z"/>
      <path class="cls-80" d="M158.42,.06h45.45c3.23,4.65,7.31,8.35,11.01,12.47,2.27,2.53,4.68,4.97,4.85,8.96,.04,.92,.66,1.35,1.33,1.65,1.71,.77,2.49,2.41,3.49,4.03,2.47,4.01,3.58,8.48,4.62,13.1,.54,2.42,1.78,4.63,1.89,7.24,.05,1.09,.96,1.76,1.66,2.46,2.61,2.6,3.29,5.6,1.84,9.26-1.25,3.14-1.43,5.87,1.37,8.12,.91,.73,1.02,1.95,.99,3.11-.1,3.78,.69,7.51,.53,11.3-.04,.88-.03,1.87,.53,2.51,2.49,2.91,1.22,6.49,1.46,9.79,.06,.88-.42,1.6-1.12,1.83-3.14,1.07-3.43,4.45-4.55,7.1-.42,1-.51,2.2-1.04,3.19-.48,.89-.48,1.8-.21,2.78,1.08,3.91,.34,7.57-.4,11.54-1,5.35-4.05,9.89-4.22,15.45-.03,1.02-.58,1.88-1.44,2.24-1.89,.81-2.37,2.44-2.11,4.44,.32,2.5-.25,4.14-2.75,4.38-1.05,.1-1.4,1.01-1.51,2.03-.17,1.71-1.16,2.71-2.2,3.85-3.77,4.18-7.86,8.01-11.25,12.62-1.15,1.56-2.5,2.52-4.4,2.54-2.46,.03-3.83,2.24-5.32,3.94-1.85,2.1-4.03,3.9-5.26,6.66-.39,.88-1.23,1.53-2.08,1.56-3.08,.1-5.83,1.9-8.89,2.02-.81,.03-1.46,.19-1.95,1.1-1.27,2.34-3.34,3.1-5.63,2.99-3.25-.16-5.91,.61-8.32,3.52-1.74,2.09-4.49,3.27-7.29,2.34-1.24-.41-1.93-.33-2.7,.98-1.39,2.37-2.92,2.82-4.97,1.38-1.66-1.17-2.4-.94-3.41,1.02-1.52,2.95-3.49,5.6-6.67,6.53-.62-.48-.61-1.2-.52-1.89,.76-5.4,2.46-10.37,4.7-15.26,2.75-6.02,6.66-10.92,10.55-15.9,1.76-3.99,4.67-6.98,7.14-10.36,2.05-2.58,4.86-4.12,6.98-6.67,1.1-1.32,2.55-2.28,3.62-3.8,.94-1.33,2.62-.98,3.97-.52,1.69,.57,2.54,.09,2.59-1.97,.03-1.25,.48-2.38,.88-3.53,.64-1.86,1.76-2.68,3.56-2.78,3.36-.18,3.92-.95,3.67-4.55-.04-.65,0-1.28,.38-1.73,1.84-2.13,3.45-4.59,5.67-6.17,1.53-1.09,2.27-2.3,2.19-4.22-.08-2.12,.69-3.48,2.26-4.79,1.76-1.48,2.71-3.97,4.46-5.59,.63-.59,.35-1.46,0-2.19-.32-.7-.73-1.36-.87-2.15-.42-2.25,.47-3.38,2.44-2.95,1.1,.24,2.2,.39,2.33-1.21,.39-4.78,1.02-9.47,2.51-14.02,.64-1.95,.52-4.16,.46-6.27-.02-.53,.15-1.22-.11-1.55-2.55-3.29-1.57-6.87-.66-10.59-.77,.59-1.27,1.43-2.15,1.04-.93-.42-1.13-1.37-1.22-2.36-.02-.17-.06-.36-.02-.52,.82-3.41-.18-6.19-1.96-8.98-2.18-3.41-3.08-7.63-5.06-11.21-.42-.76-.58-1.67-.5-2.54,.33-3.65-1.36-6.22-3.61-8.41-1.34-1.3-2.12-2.75-2.07-4.76,.02-1.08-.21-2.13-.95-2.88-2.95-2.98-5.6-6.3-8.46-9.4-.73-.79-1.44-1.59-2.15-2.4-2.01-2.27-3.83-4.77-6.9-5.51-2.44-.59-4.31-2.81-6.76-3.53-.63-.18-1.14-.81-1.15-1.53-.04-2.33-1.4-2.81-3.06-3.08-.93-.15-1.77-.68-2.59-1.19-1.57-.99-2.08-2.32-.93-4.1Z"/>
      <path class="cls-4" d="M158.42,.06c.02,2.86,1.52,4.48,4.59,4.71,1.78,.13,3.18,.36,2.5,3.02-.19,.73,.22,1.65,.88,1.59,2.54-.21,3.82,2.55,6.04,3.05,.37,.08,.7,.5,1.06,.53,3.63,.34,5.24,3.69,7.41,6.22,1.36,1.6,2.77,3.36,4.19,4.63,1.94,1.73,3.09,4.28,5.28,5.68,1.33,.85,2.05,2.34,1.8,4.24-.21,1.59,.3,2.66,1.5,3.77,2.57,2.36,4.77,5.19,4.09,9.39-.41,2.5,1.52,3.88,2.19,5.83,1.04,3.01,1.9,6.57,3.88,8.78,2.09,2.34,2.09,4.38,1.48,7.02-.08,.33-.06,.7-.03,1.05,.07,.91-.3,2.23,.84,2.4,1.09,.16,.95-1.08,1.05-1.91,.06-.55,.25-1.18,.77-1.14,.78,.06,.64,.9,.59,1.45-.21,2.16,.74,4.53-1.12,6.42-.61,.62-.28,1.75,.53,2.22,1.43,.83,1.51,2.19,1.58,3.77,.15,3-.43,5.93-.52,8.9,0,.26,0,.6-.14,.76-2.75,3.33-1.61,7.59-2.16,11.43-.31,2.17-1.41,3.03-3.23,2.21-.52-.23-.95-1.21-1.61-.49-.55,.6-.35,1.49-.28,2.26,.03,.33,.2,.66,.36,.95,1.71,3.22,1.63,3.98-1.16,5.95-.75,.53-1.09,1.06-1.28,1.96-.18,.86-.56,1.79-1.39,1.98-2.3,.53-2.36,2.35-2.23,4.4,.14,2.24-.71,3.44-2.57,4.67-2.22,1.48-3.88,4.04-5.77,6.15-.37,.41-.03,.76,.1,1.16,.93,2.67-.55,5.07-3.2,5.21-3.54,.2-4.85,1.76-4.97,5.9-.09,2.98-.61,3.38-3.1,2.39-2.48-.99-3.48-.5-4.49,2.17-.03,.08-.05,.23-.08,.24-2.42,.19-2.85,3.51-5.01,4.06-.89,.23-1.51,.71-2.11,1.48-.86,1.08-1.54,2.48-3.01,2.74-.39-.95,.01-1.73,.5-2.42,3.9-5.63,6.17-12.23,7.99-18.87,2.46-8.98,3.13-18.28,2.27-27.76-.49-5.4-1.49-10.71-1.95-16.1-1.02-5.05-2.02-10.35-4.3-14.65-2.47-4.66-4.31-9.73-7.41-14.13-3.5-4.97-6.57-10.7-6.84-17.52-.17-4.04-2.51-7.3-3.07-11.22-.69-4.86-2.53-9.36-3.67-14.09-.99-4.08-3.36-7.48-4.54-11.49-.81-2.74-1.51-5.52-2.39-8.23-.3-.93-.24-1.91,.45-2.7h19.68Z"/>
      <path class="cls-162" d="M139.69,201.95c2.66-2.48,5.74-4.44,6.84-8.63,.38-1.45,1.9-1.02,2.96-.09,2.57,2.24,3.8,1.94,5.11-1.39,.55-1.39,1.07-1.67,2.29-.89,2.52,1.61,6.88,0,8.23-2.93,.25-.55,.44-1.22,1.08-1.26,2.43-.16,4.52-2.3,7.22-1.21,1.56,.63,2.94-.84,4.33-1.6,.19-.1,.48-.42,.45-.54-.96-3.2,1.35-1.9,2.3-1.95,3.26-.18,6.16-2.18,9.45-2.17,.38,0,.95-.43,1.11-.82,1.79-4.27,5.32-6.7,8.1-9.93,.54-.63,1.09-1.51,1.93-1.32,3.82,.86,5.25-2.68,7.27-4.99,3.15-3.59,6.28-7.2,9.74-10.41,.88-.81,1.31-1.65,1.26-2.9-.08-1.9,.56-3.04,2.46-2.84,1.6,.17,2.13-.41,1.87-2.45-.35-2.62-.77-5.69,2.87-6.2,.47-.07,.8-.71,.71-1.23-.51-2.78,.42-5.51,1.62-7.43,2.08-3.32,1.49-7.32,3.13-10.74,1.19-2.47,.97-5.85-.21-8.65-.63-1.48-.67-2.63,.36-3.79,.39-.44,.86-.96,.73-1.58-.58-2.94,2.25-4.44,2.34-7.14,.03-.88,1.03-1.33,1.84-1.33,1.76,0,2.05-1.17,1.97-2.78-.15-2.86,.8-6.03-1.94-8.15-.33-.26-.41-1.15-.38-1.72,.28-4.22-.7-8.37-.5-12.59,.05-1.14,.05-2.16-1.2-2.8-2.16-1.11-3.03-5.74-1.41-7.88,1.16-1.54,.27-3.29,.82-4.73,.87-2.31-.63-2.82-1.78-3.79-1.65-1.39-3.09-2.96-2.54-5.67,.1-.47,.01-1.15-.24-1.52-2.3-3.42-1.83-7.87-3.47-11.53-1.1-2.46-2.19-5.32-3.83-6.93-2.03-2-4.04-3.18-4.11-6.78-.03-1.46-1.74-3.02-2.9-4.29-3.59-3.95-7.27-7.79-10.94-11.64-.73-.76-.76-1.68-.74-2.65,11.4,0,22.8,.05,34.21-.05,1.61-.01,1.92,.36,1.92,2.16-.05,54.29-.04,108.59-.04,162.88-.93,1.43-.33,3.06-.45,4.6-.11,1.4-.24,2.67-1.8,2.86-.08,0-.17,.03-.22,.08-1.83,2.34-3.66,4.69-5.47,7.05-.09,.12-.05,.47-.11,.49-2.64,.59-2.88,4.37-5.36,5.13-.99,.31-1.73,.87-1.84,2.06-.2,2.04-1.32,2.58-2.93,2.51-2.07-.09-4.32-.59-4.73,2.89-.09,.8-.98,.7-1.55,.93-.9,.35-1.97,.81-2.08,1.91-.23,2.34-1.62,2.25-3.06,2.17-2.24-.13-4.31-.03-4.73,3.22-.07,.55-.52,.88-1.02,.94-1.52,.19-2.41,1.06-2.62,2.81-.2,1.6-1.33,1.49-2.35,1.46-2.41-.09-4.79-.28-5.36,3.4-.14,.89-1.1,.82-1.81,.82-1.95,0-3.91-.04-5.86,.02-1.59,.05-2.98,.6-3.32,2.61-.24,1.38-1.03,1.67-2.05,1.58-3.76-.33-7.34,1.68-11.13,1.08-.55-.09-1.06,.11-1.41,.71-.49,.82-.37,2.29-1.6,2.35-1.78,.08-3.65,.57-5.31-.29-1.71-.88-3.25-1.03-4.86,.09-.13,.09-.3,.21-.43,.19-3.82-.79-7.23,1.61-10.96,1.8-2.87,.14-5.65,1.3-7.98,3.57-2.3,2.23-4.78,4.23-7.18,6.33-.7-.58-.8-1.42-.76-2.3,.11-2.49-.13-4.99,.16-7.47,1.32-2.1,1.55-.09,2.13,.75,1.89-3.79,3.3-7.85,5.28-11.58,.85-1.6,.93-3.5,1.27-5.29,.19-.99,.13-2.16,1.26-2.58Z"/>
      <path class="cls-101" d="M90.01,181.4c-1.81-.94-3.12-2.38-4.07-4.39-.93-1.99-2.36-3.48-4.41-3.98-.82-.2-1.41-.78-1.88-1.47-.91-1.34-1.83-2.55-3.54-2.53-.4,0-1.08-.39-1.17-.75-.72-2.77-3-2.56-4.77-3.31-1.09-.46-2.16-.8-2.32-2.52-.11-1.16-1.13-1.4-2.11-1.67-2.08-.56-4.28-.82-5.83-2.9-.9-1.22-2.64-1.58-3.69-1.78-3.14-.59-3.98-3.86-5.95-5.65-1.41-1.28-2.16-3.42-4.21-4.34-.97-.44-.91-2.46-1.02-3.85-.24-3.14-.6-3.55-3.44-3.54-1.79,0-3.76,.45-3.75-2.73,0-.34-.4-.94-.68-.99-3.19-.62-2.54-3.65-2.86-5.92-.22-1.54-.43-2.76-1.99-3.03-1.25-.21-1.51-1.26-1.32-2.34,.53-3.05-1.03-5.58-1.49-8.38-.14-.82-.74-1.21-1.34-1.27-2.11-.19-2.15-1.89-1.8-3.44,.92-4.04,.09-8.01-.11-12-.05-1.08-.64-1.87-1.58-2-1.46-.21-1.69-1.21-1.68-2.6,.03-3.77-.56-7.69,.16-11.28,.78-3.9,.85-7.91,1.86-11.72,.45-1.72,.24-2.55-1.32-3.16-2.83-1.09-3.13-2.13-1.46-4.99,1-1.71,.75-3.53,.76-5.35,0-1.34,.19-2.3,1.54-2.8,2.24-.83,1.51-3.42,1.58-5,.13-3.04,1.34-3.4,3.53-3.3,3.3,.14,3.25,.02,3.73-3.66,.18-1.38,.49-2.74,.44-4.16-.11-3.15,1.61-4.64,4.03-5.17,2.29-.49,3.01-2.4,3.14-4.43,.17-2.58,1.33-4.72,2.37-6.69,1.05-1.99,1.65-4.04,2.22-6.15,.42-1.54,.76-3.01,2.47-3.36,.56-.11,.95-.76,1-1.36,.15-1.65,1.3-1.92,2.27-2.76,1.86-1.59,3.05-4.08,5.14-5.59,.69-.5,.24-2,.29-3.04h35.14c1.59,3.48,.21,7.69-2.94,8.88-.53,.2-1.1,.35-1.38,.91-1.91,3.79-4.97,5.86-8.48,7.28-.12,.05-.2,.1-.21,.12-1.38,3.38-4.52,4.65-6.66,7.12-.32,.37-.44,1.08-.85,1.22-2.54,.87-3.86,3.51-5.54,5.37-2.19,2.44-5.54,4.52-5.09,9.03,.06,.6-.05,1.38-.46,1.73-1.77,1.53-2.97,3.76-4.68,5.24-1.2,1.04-1.89,1.91-1.82,3.55,.09,2.54-.4,4.71-2.74,5.83-1.08,.52-.99,1.72-.98,2.74,0,2.33-.48,4.27-2.38,5.63-1.34,.96-1.28,2.76-1.32,4.31-.15,5.18-.04,10.36-.07,15.54,0,1.14,.15,2.34-.24,3.4-1.4,3.74-.3,6.53,2.41,8.82,.82,.69,1.02,1.73,1.07,2.81,.08,1.58,.07,3.16,.03,4.74-.05,2.03,.17,3.82,1.99,4.93,1.06,.65,1.2,1.98,1.35,3.21,.27,2.19,.62,4.31,2.35,5.81,.93,.81,.88,2.21,1.03,3.41,.23,1.86,.83,3.27,2.59,3.94,1.55,.59,2.4,2.05,2.33,3.88-.09,2.38,.94,3.45,2.86,3.99,1.88,.54,3.8,1.09,5.1,2.96,.59,.6,1.07,1.31,1.29,2.15,2.17,8.26,6.03,15.62,9.7,23.08,.61,2,1.51,3.79,2.58,5.55,1.25,2.05,1.68,4.62,3.34,6.52,1.02,1.17,1.81,2.6,2.91,3.74,.97,1,1.89,2.18,1.04,3.88Z"/>
      <path class="cls-64" d="M68.92,137.12c-1.61-2.32-4.21-2.62-6.38-3.19-1.74-.46-2.11-1.24-2.01-2.67,.21-2.95-.46-4.81-3.39-5.43-1.83-.38-1.42-2.75-1.67-4.25-.25-1.51-.43-2.6-1.74-3.57-1.63-1.21-1.37-3.61-1.62-5.55-.18-1.4-.22-2.53-1.7-2.96-1.22-.35-1.63-1.52-1.63-2.87,0-1.75-.03-3.51,0-5.26,.04-2.11,.33-4.32-2.31-4.87-.65-.14-.98-.86-.96-1.64,.03-1.11-.22-2.05-.94-2.85-.55-.61-.75-1.57-.22-2.16,1.52-1.66,1.06-3.72,1.14-5.69,.24-6.12-.51-12.26,.45-18.36,.11-.71,.11-1.57,.8-1.75,2.6-.67,2.62-2.84,2.5-5.13-.1-1.85-.08-3.44,2.16-3.79,1.35-.21,1.6-1.72,1.59-3.13,0-1.4-.39-3.72,.15-4.04,2.12-1.28,2.88-4.05,4.87-5.17,1.38-.78,2.07-1.51,2.05-3.3-.02-1.46-.06-3.92,.58-4.23,2.43-1.2,2.87-4.51,5.15-5.55,.96-.44,1.72-.71,1.77-2,0-.17,.05-.46,.13-.49,2.78-.9,3.53-4.72,6.28-5.59,1.47-.46,2.58-1.12,2.82-2.98,.09-.68,.08-1.55,.79-1.78,2.51-.83,4.65-2.32,6.76-4.04,.92-.75,1.81-1.14,1.98-2.53,.14-1.14,.78-1.86,1.77-2.21,.87-.31,2.16,.41,2.61-.64,.62-1.46,.88-3.14,1.16-4.76,.15-.84,.03-1.75,.03-2.63h7.03c1.29,3.08-.12,5.76-1.05,8.48-.27,.8-1.05,1.41-1.12,2.28-.52,5.98-3.27,11.35-3.68,17.36-.31,4.55-2.28,8.55-3.73,12.67-1,2.84-2.08,5.66-2.84,8.6-1.02,3.97-2.03,7.93-4.14,11.4-.18,.29-.39,.6-.4,.94-.13,4-2.76,6.77-3.9,10.24-1.17,3.56-2.29,7.07-4.49,10.01-.15,.2-.27,.47-.28,.72-.2,5.25-3.02,9.52-4.26,14.39-.74,2.91-.51,5.94-1.27,8.82,.11,8.98-.54,17.97,.68,26.91,.19,1.4,1.38,2.68,.49,4.23Z"/>
      <path class="cls-67" d="M138.74,.06c-.02,3.68,1.71,6.84,2.53,10.26,1.21,5.02,4.04,9.27,5.33,14.38,1.36,5.35,2.31,10.9,4.16,15.99,1.17,3.23,1.66,6.38,2.23,9.67,.58,3.31,2.38,6.16,3.48,9.23,1.97,5.46,7.13,8.73,7.71,14.98,4.23,4.19,4.16,10.53,6.27,15.78,.47,1.16,.67,2.32,.61,3.56,.33,3.18-.57,6.27-.53,9.45,.02,1.43-1.36,1.93-2.62,1.94-1.24-.3-1.44-1.48-1.68-2.58-1.94-8.89-5.66-16.55-10.61-23.95-4.26-6.38-8.62-13.07-10.83-21.04-1.27-4.57-3.22-8.9-4.13-13.63-.32-1.69-.07-3.55-1.14-5.03-1.26-4.25-1.6-8.74-2.71-13.04-.5-1.93-.8-3.93-1.52-5.79-.8-5.45-.61-10.99-1.14-16.46-.13-1.3-.07-2.65,.83-3.7h3.75Z"/>
      <path class="cls-9" d="M67.05,105.49c.43-4.53,1.09-8.98,2.72-13.21,.59-1.52,.9-3.16,1.83-4.52,.36-.53,.74-1.34,.64-1.93-.55-3.41,1.44-5.47,2.97-7.86,1.6-2.49,1.21-5.96,3.03-8.39,1.89-2.52,1.76-6.19,3.14-8.58,3.24-5.6,3.94-12.01,6.04-17.92,.82-2.3,1.69-4.63,2.63-6.82,1.64-3.83,2.2-7.8,2.7-11.85,.16-1.34,.47-2.54,.98-3.74,.95-2.23,1.51-4.59,1.58-7.08,.09-3.86,3.22-6.49,3.29-10.4,.02-1,.34-2.05,.32-3.1h3.75c.9,1.04,.85,2.38,.85,3.68-.02,5.05-.72,10.03-1.43,15-.56,2.39-.85,4.85-1.6,7.19-2.58,3.86-1.51,8.56-2.33,12.82-1.71,8.93-2.5,18.09-6.19,26.51-3.18,7.27-7.11,13.88-11.72,20.05-3.96,5.3-6.68,11.35-8.46,17.95-.18,.67-.34,1.35-.68,1.96-1.27,1.64-2.61,2.04-4.06,.27Z"/>
      <path class="cls-79" d="M112.5,.06h3.75c.64,.73,.87,1.65,.87,2.63,0,4.71,.21,9.42-.11,14.13-.16,4.19,.47,8.37,0,12.56-.17,1.16,.2,2.33-.05,3.49-.05,2.34,.04,4.68-.05,7.01-.04,.96,.2,2.2-1.18,2.36-.81-.89-.99-2.1-.75-3.18,1.12-5.2,.39-10.47,.56-15.7,.11-3.32,.02-6.65,.02-9.97,0,7.18-.01,14.36,0,21.54,0,1.66-.08,3.12-2.12,2.66-.53-3.02-.02-6.08-.25-8.73-.11,8.06,.89,16.45,.67,24.89-.04,1.38,.13,2.81-.58,4.08-.21,.29-.47,.4-.79,.31-.37-.35-.56-.81-.63-1.34-.48-7.31-.3-14.63-.12-21.95,.03-1.22,.07-2.44,.03-3.66-.4-5.63-.09-11.26,0-16.89-.35-3.88-.15-7.76-.13-11.65,0-.97,.23-1.88,.87-2.6Z"/>
      <path class="cls-160" d="M119.06,.06h1.87c.58,.66,.91,1.5,.82,2.38-.7,7.61,.61,15.18,.27,22.78-.53,2.94-.62,5.88-.06,8.83,.25,1.29,.24,2.63,.1,3.92-.63,6.08-.18,12.2-.72,18.29-.7,.9-1.35,1.95-2.61,1.01-.79-3-.24-6.08-.36-9.12-.08-2.01-.02-4.03-.02-6.04,0-12.77,0-25.54,.01-38.31,0-1.29-.23-2.66,.68-3.74Z"/>
      <path class="cls-92" d="M134.99,.06c.31,6.85,.63,13.71,.94,20.56-.34,2.79-.54,5.64-2.84,7.49-.99-.68-1.25-1.87-1.66-2.97-.83-3.92-1.25-7.88-.9-11.91,.4-4.46,.59-8.95,2.12-13.18,.78,0,1.56,0,2.34,0Z"/>
      <path class="cls-143" d="M101.26,19.04c.71-6.3,1.7-12.58,1.4-18.98h3.28c.51,.6,.8,1.32,.79,2.13-.08,4.48,.76,8.88,.87,13.34,.19,1.38,.01,2.72-.34,4.05-.48,1.14-.59,2.51-1.6,3.33-2.77,.58-3.26-2.12-4.4-3.88Z"/>
      <path class="cls-111" d="M106.89,15.86c-.48-5.25-1.23-10.49-.95-15.8h3.28c.51,.58,.78,1.3,.87,2.09,.39,3.36,.76,6.72,.98,10.1-1.02,1.75-2.02,3.52-4.18,3.61Z"/>
      <path class="cls-21" d="M127.5,.06h1.87c.96,1.13,.94,2.57,.84,3.95-.23,3.13-.39,6.26-.62,9.38-.24,2.47-1.68,4.49-2.06,6.93-.08,.54-.44,1.18-1.18,.75-1.67-2.22-.69-4.87-.93-7.33,.6-3.76-.17-7.68,1.08-11.37,.28-.81,.43-1.67,1-2.31Z"/>
      <path class="cls-42" d="M110.58,12.69c-.82-4.16-1.07-8.39-1.36-12.62h3.28c-.02,4.74-.03,9.49-.05,14.23-.7,.54,0,2.06-1.24,2.22-1.42-1.02-1.4-2.35-.63-3.82Z"/>
      <path class="cls-70" d="M128.91,13.75c.16-4.56,.31-9.13,.47-13.69,1.09,0,2.19,0,3.28,0,.21,4.49-1.18,8.76-1.41,13.18-.67,.82-1.37,1.4-2.33,.51Z"/>
      <path class="cls-175" d="M121.34,25.24c.07-8.39-.68-16.77-.4-25.17h3.75c1.54,3.72,1.07,7.52,.37,11.33-1.21,1.12-1.62,.12-1.92-.98-.34-1.29,.08-2.61-.04-4.16-.65,1.28-.37,2.46-.38,3.57-.05,3.95,0,7.91-.03,11.86,0,1.22,.11,2.48-.66,3.53-.23,.23-.46,.23-.69,.02Z"/>
      <path class="cls-73" d="M116.28,16.9c-.01-5.61-.02-11.22-.03-16.83h1.87c.64,.85,.42,1.88,.47,2.85-.08,5.61,.17,11.23-.13,16.84-.95,1.11-1.45,.52-1.68-.63-.15-.75,0-1.57-.49-2.22Z"/>
      <path class="cls-161" d="M124.67,11.54c0-3.83,0-7.65,.01-11.48h2.81c-.88,4.51-.74,9.15-1.43,13.68-.51,.61-.38,1.4-.49,2.13-.1,.65-.18,1.43-1.09,.96-.39-.48-.44-1.1-.57-1.69-.12-1.3-.05-2.56,.76-3.61Z"/>
      <path class="cls-18" d="M118.16,2.82c-.01-.92-.02-1.84-.04-2.76,.31,0,.62,0,.94,0-.03,14.07-.06,28.15-.08,42.22-.32-.04-.57-.21-.75-.52-.49-1.16-.29-2.41-.33-3.62-.35-10.84,.72-21.65,.45-32.48-.02-.95,.19-1.93-.19-2.85Z"/>
      <path class="cls-43" d="M90.01,181.4c-.23-1.82-1.39-2.86-2.34-4.22-1.77-2.55-4.4-4.53-4.83-8.23-.14-1.21-1.37-2.23-1.97-3.43-.56-1.12-1.26-2.22-1.17-3.62,.78-.23,1.12,.45,1.51,.96,4.67,6.1,9.32,12.21,14.63,17.66,2.76,2.84,4.01,6.83,5.18,10.76,1.24,5.73,1.62,11.6,2.41,17.41,.21,1.57,.39,3.2,1.08,4.55,1.93,3.78,2.03,8.23,3.69,12.13,.83,1.95,.26,4.33,.28,6.52,.02,1.42,.04,2.81,.79,4.03,.33,2.26,.89,4.54-.53,6.61-1.37-.38-.85-1.65-.92-2.59-.07-1.04-.02-2.09-.02-3.05-.84-.6-.96,1.12-1.61,.48-.48-.47,.02-.92,.32-1.31,.24-.32,.21-.69-.01-.95-3.34-3.99-4.55-9.21-6.49-14.02-.03-.07-.12-.11-.18-.17,.14-1.95-.17-3.81-.81-5.64-1.21-3.44-1.26-7.17-2.03-10.7-1.47-6.78-1.31-14.05-4.76-20.27-.63-1.13-1.18-2.25-2.24-2.92Z"/>
      <path class="cls-85" d="M110.16,260.46c.87-.45,.88-1.32,.87-2.22-.03-7.31-.04-14.61-.07-21.92-1.05-1.61-.21-3.64-.94-5.32-.15-.94-.15-1.87,0-2.81,.63-4.26,.54-8.53,.06-12.79-.22-1.51,.1-2.8,1.19-3.79,.82-.64,1.72-.96,2.72-.91,1.35,.17,2.32,.75,2.13,2.55-.59,1.72-2.38,1.31-3.15,2.08,.17-.27,.74-.3,1.29-.38,1.78,.22,2.45,1.08,1.35,2.96-.29,.28-.63,.45-1,.53-.72,.39-2.03-.71-2.2,.56-.24,1.84-.55,3.86,.45,5.62,.37,.65,1.05,1.06,1.22,1.88,.11,.94-.55,1.35-1.04,1.89-.39,.42-.88,.85-.52,1.54,.3,.58,.88,.65,1.43,.66,1.55,.03,2.04-1.43,2.62-2.59,.59-1.18-.7-1-1.11-1.48-.21-.17-.3-.4-.27-.69,.49-.98,1.44-.97,2.22-1.34,.91-.18,1.81-.22,2.62,.41,.96,1.41,.89,3.14,.97,4.74,.1,2.05-1.81,1.75-2.81,2.52-2.43,1.02-1.57,3.37-1.67,5.31-.13,2.52,1.93,2.21,3.13,3.02,.27,1.2-.49,1.52-1.25,1.73-.75,.21-1.48,.44-2.15,.85-.95,.58-1.95,1.05-2.83,1.76-.43,.34-.97,.75-.7,1.46,.22,.59,.78,.41,1.23,.39,1.13-.07,2.31-.49,3.31,.54,.06,.25,.05,.48-.04,.72-.58,.76-.32,1.65-.3,2.5,.08,3.64,.03,7.27-.81,10.82-.31,.29-.69,.42-1.08,.53-1.08,.19-2.17,.22-3.23,.02-.72-.13-1.62-.13-1.67-1.36Z"/>
      <path class="cls-48" d="M127.47,242.49c0,3.77-.11,7.54,.08,11.3,.12,2.32-.78,3.67-2.47,4.47-.94,.45-1.4,1.02-1.3,2.14-3.43,2.13-5.44,.92-5.4-3.35,.03-3.24-.21-6.49,.15-9.72,.11-.45,.3-.85,.59-1.18,.79-.66,1.7-1.08,2.57-1.59,2-.41,3.7-1.93,5.78-2.06Z"/>
      <path class="cls-154" d="M127.47,242.49c-1.62,1.53-3.55,2.23-5.59,2.64-.69-.86-.38-1.85-.18-2.75,.8-3.73,.75-7.38,.02-11.16-.43-2.26-.08-4.71-1.39-6.76,1.7-2.45,4.22-2.52,6.63-2.92,1.1,.42,1.2,1.46,1.21,2.53,.02,1.73,.08,3.47-.06,5.19-1.34,3.01-2.11,6.15-1.77,9.56,.09,.94-.07,1.97,.98,2.41,.08,.09,.15,.17,.22,.26l-.08,.99Z"/>
      <path class="cls-90" d="M110.16,260.46c1.65,1.02,3.45,.13,5.15,.54,3.31,.31,4.16,2.59,2.36,6.37-2.23,.36-4.45,.14-6.68-.11-1.12-.13-1.83-.63-1.57-1.93,.32-1.61-1-3.54,.73-4.86Z"/>
      <path class="cls-109" d="M128.4,266.24c-2.4,.99-4.94,.85-7.43,1.05-.35-2.1-.6-4.2,.23-6.25,1.1-.74,2.37,.04,3.5-.5,.32-.06,.63-.12,.95-.18,.33-.18,.66-.18,1-.02,.69,.77,.67,1.77,.55,2.71-.17,1.38,.25,2.39,1.21,3.18Z"/>
      <path class="cls-129" d="M130.32,219.88c.01,3.51,.02,7.02,.04,10.53-.03,2.33-.08,4.66-.07,6.99,0,1.56-.5,2.65-1.89,3.1-1.35-3.17-.43-6.52-.57-9.79-.04-.85,.12-1.74,.18-2.61,.76-1.71,.68-3.54,.68-5.37,0-1.12-.2-2.29,.46-3.3,.56-.39,1.04-.53,1.16,.46Z"/>
      <path class="cls-167" d="M124.69,260.54c-1.03,.81-2.22,.23-3.31,.49-.85,.86-1.85,.74-2.86,.55-.28-.1-.53-.27-.74-.5-.63-.62-.93-1.47-.88-2.34,.21-3.65-.25-7.31,.28-10.94,0-.18,0-.36,0-.54,.15-.57,.52-.85,1.02-.93,.37,0,.69,.13,.89,.51,0,3.4-.02,6.81-.02,10.21q0,3.42,3.07,3.41c.54,0,1.09-.04,1.63-.06,.31,.05,.61,.1,.92,.15Z"/>
      <path class="cls-57" d="M128.47,227.74c-.02,4.25-.05,8.51-.08,12.76,0,.64-.34,.92-.86,1,0,0-.14,.01-.14,.01-1.25-1.74-.71-3.81-.79-5.75-.09-2,.3-3.94,.85-5.83,.02-1.99,.04-3.98,.05-5.97,0-.88,.05-1.78-.95-2.07,.4-1.29,.88-2.35,2.24-1.05,.02,2.31,.5,4.64-.32,6.9Z"/>
      <path class="cls-163" d="M110.66,230.83c.77,1.78,.33,3.65,.31,5.5-.58,1.87-.14,3.82-.32,5.71-.06,.61-.04,1.27-.75,1.44-.68,.16-1.02-.24-1.15-.94-.02-2.27-.04-4.55-.06-6.82-.12-.25-.11-.49,0-.73,1.63-.8,.75-3.11,1.97-4.16Z"/>
      <path class="cls-146" d="M118.13,260.96c.15,.03,.31,.06,.46,.09,2.37,.77,2.88,3.05,1.39,6.21-.77,.04-1.54,.08-2.31,.11,0-.78-.1-1.59,0-2.35,.3-2.19-.23-3.68-2.37-4.02,.32-.04,.63-.07,.95-.11,.64-.61,1.26-.32,1.87,.07Z"/>
      <path class="cls-19" d="M128.4,266.24c-1.75,.11-2.62-.48-1.97-2.7,.27-.94,.11-2.03,.14-3.06,.77-.65,1.55-.56,2.35-.06,.35,2,0,3.92-.52,5.82Z"/>
      <path class="cls-51" d="M119.98,267.26c0-1.21-.09-2.43,.02-3.62,.13-1.35-.44-2.08-1.41-2.59,.93,0,1.86,0,2.79-.01-.09,2.09,.4,4.22-.41,6.25-.33-.01-.65-.02-.98-.03Z"/>
      <path class="cls-48" d="M128.91,260.42c-.78,.02-1.56,.04-2.35,.06-.31-.04-.62-.08-.93-.11,1.1-.48,2.21-1.77,3.27,.05Z"/>
      <path class="cls-93" d="M130.32,219.88c-.24-.38-.57-.52-.98-.48-.3,.26-.6,.26-.92,.06-.35-1.46,.6-3.07-.41-4.46-.36-1.32-.33-2.73-.81-4.02-.2-1.22,.52-2.23,.63-3.38,.08-.38,.24-.72,.49-1,1.44-.59,1.44,.76,1.93,2.06,.25-1.8,.77-3.19,.29-4.72-.22-.69-.19-1.43,.17-2.02,2.51-4.1,2.71-9,3.82-13.6,1.65-4.83,4.08-9.19,6.47-13.57,1.24-2.27,3.22-3.76,4.82-5.66,1.27-1.51,2.79-2.77,4.12-4.23,.55-.6,1.13-1.25,2.03-.94,.82,1.1,1.5,2.32,2.61,3.16,.62,.47,1.07,1.23,.58,2.19-.21,.46-.33,1.07-.66,1.37-4.65,4.28-7.58,10.04-10.49,15.76-1.91,3.77-3.04,7.95-3.81,12.22-.2,1.1-.33,2.22-.5,3.33-.67,1.08-.53,2.38-.63,3.56-.36,4.27-2.99,7.4-4.27,11.2-.63,1.87-1.5,3.64-2.27,5.45-.2,.47-.48,1.07-.97,.95-.53-.12-.57-.77-.44-1.3,.24-.92-.06-1.53-.79-1.93Z"/>
      <path class="cls-147" d="M155.14,169.26c-.06-.96-.53-1.69-1.29-1.94-1.53-.51-1.94-1.75-1.98-3.32-.33-1.89,.78-3.17,1.67-4.41,5.05-7.01,8.91-14.78,11.57-23.26,2.7-8.61,3.74-17.47,2.55-26.59-.21-1.57-1-3.23,.13-4.79,2-.67,2.81-1.86,2.02-4.35-.39-1.24,.28-2.7,.76-3.95,.35-.9,.55-1.78,.5-2.75,.8,3.16,1.32,6.44,1.71,9.63,.67,5.5,.96,11.15,.9,16.7-.05,3.97,.29,8.27-1.79,12.01-.82,1.47,.09,3.4-.49,4.9-1.58,4.08-2.61,8.39-4.46,12.38-1.57,3.39-3.1,6.76-5.23,9.74-1.39,2.31-2.74,4.67-4.64,6.5-1,.96-1.15,2.44-1.93,3.51Z"/>
      <path class="cls-54" d="M100.32,190.88c-1.13-1.7-1.24-3.87-2.22-5.69-2.37-4.39-6.11-7.29-9.05-11.03-3.17-4.03-6.23-8.17-9.34-12.26-1.85-3.18-3.97-6.18-4.92-9.93-.45-1.77-1.43-3.32-2.27-4.81-1.78-3.14-1.87-6.94-3.59-10.04-2.02-6.57-2.51-13.3-1.93-20.2,.19-2.32,.39-4.72-.28-7.04-.44-1.52,.33-2.92,.35-4.39,1.33,.57,2.62,.74,3.75-.52,.71,.95,.38,2.03,.23,3.03-1.19,8.08-.29,16.11,1.91,23.67,2.18,7.5,4.65,15.02,9.01,21.53,3.37,5.03,5.43,11.08,9.35,15.72,1.01,1.99,2.22,3.79,3.56,5.53,3,3.9,5.28,8.25,5.92,13.49,.13,1.03,.39,2.1-.46,2.95Z"/>
      <path class="cls-41" d="M133.13,28.02c1.1-2.38,1.4-5.15,2.8-7.39,.95,1.03,1.13,2.43,1.39,3.78,.95,4.89,1.89,9.79,2.83,14.68,.81,2.91,.92,5.99,1.73,8.93,1.03,3.75,2.45,7.32,3.62,11,3.29,10.33,9.8,18.64,14.01,28.39,2.63,6.08,4.61,12.43,5.88,19.05,.1,.52,.05,1.05-.19,1.53-1.52,.8-1.71-1.02-2.53-1.61-1.64-3.39-2.78-7.04-4.1-10.59-2-5.35-5.39-9.62-8.29-14.25-3.76-6.01-7.77-11.81-10.16-18.75-.87-2.53-1.86-5-2.53-7.62-2.09-6.82-2.75-13.97-3.82-21.02-.31-2.01-1.33-3.97-.64-6.13Z"/>
      <path class="cls-65" d="M164.98,108.12c-1.71-8.44-4.12-16.55-7.99-24.13-2.98-5.83-6.48-11.31-9.24-17.26-1.88-4.04-3.05-8.5-4.51-12.78-1.63-4.8-3.03-9.66-3.1-14.87,1.51,2.93,1.17,6.42,2.3,9.48,2.73,7.39,4.35,15.37,9.18,21.65,.71,.92,1.42,1.94,1.8,3.05,1.43,4.29,4.64,7.14,6.76,10.84,1.53,2.67,2.98,5.4,3.98,8.47,1.33,4.09,2.34,8.29,3.63,12.38,.44,3.89,1.17,7.78,1.24,11.67,.06,3.45-.49,6.94-1,10.38-1.85,12.47-7.04,23.2-13.85,33.07-.85,1.24-1.55,2.62-2.32,3.93-6.46,6.1-12.46,12.62-15.56,21.78-.3,.88-.87,1.64-1.31,2.46-.91-1.03-.41-2.1-.08-3.18,1.7-5.61,4.35-10.65,7.31-15.5,.9-1.47,2.35-2.27,3.43-3.55,4.6-5.45,8.13-11.74,11.65-18.05,3.86-6.92,6.44-14.37,7.58-22.42,.71-4.97,.41-9.97-.18-14.94-.1-.87-.38-1.72,.28-2.47Z"/>
      <path class="cls-153" d="M90.94,169.27c-2.95-2.61-4.64-6.29-6.44-9.83-1.94-3.79-3.91-7.55-6.16-11.1-1.23-1.95-2.35-3.88-2.73-6.28-.69-4.35-3.37-7.88-4.05-12.22-1.29-8.25-2.77-16.5-.75-24.87,1.31-7.94,4.87-14.58,9.29-20.77,2.36-3.31,5.28-6.2,6.48-10.44,.09-.33,.26-.65,.45-.92,5.73-7.76,7.69-17.13,9.12-26.75,.46-3.1,1.1-6.16,1.64-9.24,.12-.68,.33-1.45,.17-2.07-.84-3.39,.62-6.1,1.9-8.88,.63,.59,.56,1.39,.5,2.18-1.09,13.37-2.89,26.58-6.95,39.3-.93,2.93-2.41,5.49-3.76,8.14-3.4,6.66-7.36,12.95-10.31,19.91-.64,1.51-1.23,3.02-1.31,4.72-.24,1.37-.58,2.71-1.03,4.02-1.17,2.91-1.89,5.95-1.7,9.16,.13,2.22-.54,4.33-.52,6.52,.06,6.51,1.97,12.57,3.52,18.71,2.06,8.19,6.5,15.12,9.83,22.64,.59,1.34,1.62,2.35,2.45,3.52,.69,.96,1.37,1.93,1.31,3.28-.09,.62-.36,1.08-.91,1.28Z"/>
      <path class="cls-176" d="M77.36,100.21c.42-4.08,2.18-7.57,3.96-11.03,1.58-3.09,3.9-5.75,4.9-9.13,.84-2.84,2.64-4.92,3.98-7.3,2.82-5.02,3.83-10.69,5.32-16.15,1.7-6.25,2.58-12.77,3.22-19.26,.38-3.8,.58-7.64,1.1-11.43,.47-2.29,.94-4.57,1.42-6.86,1.86,.57,2.02,3.58,4.2,3.7,1.15,1.37,.45,2.82,.15,4.25-2.1,5.58-2.29,11.61-3.05,17.48-.89,6.96-1.7,13.91-3.81,20.56-1.53,4.81-3.8,9.22-6.16,13.56-4.05,4.12-7.02,9.23-10.25,14.12-1.21,1.84-2.08,3.89-3.22,5.76-.45,.73-.61,1.9-1.77,1.73Z"/>
      <path class="cls-31" d="M112.92,58.18V27.06h.53v10.42c.12,.12,.32,.23,.33,.36,.28,3.98,2.06,7.68,2.15,11.61,.23,9.97,.02,19.96,.12,29.94,.02,1.93-.55,3.62-1.06,5.29-.76,2.51-.18,5.28-1.37,7.64-.45,.61-1.17,.69-1.73,1.08-5,2.15-9.13,5.71-12.43,10.38-3.37,4.76-4.53,10.43-3.88,16.35,1.09,10.01,5.02,18.15,13.15,23.21,.94,.59,1.94,1.19,2.18,2.57-.41,1.85-1.76,1.31-2.84,1.43-4.66-1.69-8.06-5.36-10.91-9.53-7.18-10.5-7.77-22.03-2.66-33.65,2.63-5.97,7.24-10.27,12.63-13.27,1.46-.82,3.03-1.4,4.36-2.53,.9-1.07,.81-2.4,.81-3.71,0-7.76-.01-15.51,.01-23.27,0-1.1-.21-2.3,.63-3.21Z"/>
      <path class="cls-20" d="M115.8,42.27c.58-3.16-.01-6.38,.41-9.55,1.74-.38,1.61,1.11,1.64,2.22,.09,3.99,.03,7.98,.03,11.97,0,1.22,0,2.43,.57,3.53,.28,1.71,.15,3.44,.12,5.15-.02,1.35,.19,2.55,.97,3.59,.61,2.28,.41,4.6,.34,6.93-.29,7.35-.04,14.7-.12,22.05-.02,1.49,.05,2.98-.08,4.46-.74,2.98-.28,6.03-.37,9.05-.04,1.4-.1,2.77-.59,4.07-.52,1.41-1.34,2.09-2.71,1.32-1.16-1.43-1.15-3.23-1.12-4.97,.11-7.08,.15-14.15,.52-21.24,.57-10.93,.15-21.92,.16-32.88,0-.8-.19-1.54-.37-2.3-.28-1.2-.37-2.45,.61-3.4Z"/>
      <path class="cls-8" d="M115.8,42.27c-.02,8.6-.07,17.19-.07,25.79,0,12.98,.06,25.97,.48,38.94,.19,.17,.26,.4,.24,.67-.53,1.4-1.51,2.23-2.73,2.75-3.03,.82-2.79-2.08-3.5-3.9,.05-.82,.42-1.45,.89-2.03,.44-.45,.71-1.03,.92-1.64,.57-2.5,0-5.05,.24-7.56,.1-1.03-.08-2.12,.68-2.94,.26-4.39,2.15-8.49,2.27-12.82,.27-10.08,.09-20.18,.08-30.28,0-.78,.15-1.84-.22-2.29-2.33-2.82-1.5-6.24-1.64-9.48,1.59-.39,1.92-1.52,1.9-3.26-.09-7.26-.04-14.52,.45-21.78v29.83Z"/>
      <path class="cls-66" d="M112.56,57c0,.3,0,.59,0,.89,.38,4.37,.07,8.74,.17,13.11-1.1,5.05-2.74,9.73-6.75,12.87-.97,.76-1.85,1.7-3.04,.46-.37-1.5,.61-2.26,1.4-3.05,2.98-2.93,4.09-6.63,4.7-11.02,.66-4.75,.35-9.57,1.33-14.25,1.2-1.01,1.6,.26,2.19,.98Z"/>
      <path class="cls-104" d="M112.56,57c-.67-.28-1.12-1.1-1.93-1.05-.83-.78-.67-1.88-.68-2.89-.04-3.55,0-7.09-.03-10.64-.23-2.61-.37-5.22,.18-7.81,.35-.84,.73-1.64,.93-2.57,.16-.75,.57-1.46,1.47-.86,.18,8.61,.37,17.21,.06,25.82Z"/>
      <path class="cls-119" d="M112.5,31.18c-.78,.09-.93,.7-.93,1.44,0,.78-.01,1.56-.92,1.72-1.54-1.91-.35-4.22-.74-6.3-.31-2.95-.17-5.9-.08-8.85,.04-1.24,.27-2.47,1.66-2.74,.18-.8-.18-1.91,.97-2.16,.14,5.63,.32,11.26,.05,16.89Z"/>
      <path class="cls-58" d="M118.07,50.68c-1.19-.39-.83-1.51-.84-2.39-.04-4.35,0-8.69-.05-13.04,0-.95,.41-2.2-.97-2.53-.23-1.08-.05-2.14,.13-3.2,1.32-.46,1.72,.5,2.02,1.63,.08,3.71-.13,7.43,.11,11.14-.01,2.8,.67,5.65-.39,8.39Z"/>
      <path class="cls-89" d="M118.05,30.68c-.57-.39-1.14-.77-1.72-1.16-.34-4.21-.16-8.41-.05-12.62,.88,.19,.88,.96,.9,1.72,.02,.69,.09,1.34,.85,1.5,.53,3.52,.51,7.04,.02,10.56Z"/>
      <path class="cls-104" d="M112.36,71.88c.07-4.67,.14-9.33,.21-14,.12,.1,.24,.2,.36,.29-.03,9.67-.05,19.35-.13,29.02,0,.94,.57,2.5-1.22,2.42,.34-5.91-.64-11.89,.78-17.74Z"/>
      <path class="cls-63" d="M120.88,56.45c-.1-8.71,.91-17.4,.12-26.12-.15-1.67-.5-3.46,.33-5.09,.04,.1,.09,.2,.15,.29,1.27,2.08,1.23,4.53,1.22,6.84-.02,7.37,.44,14.75-.35,22.11-.17,1.57-.04,3.16,.18,4.73,.04,8.85,.02,17.69,.01,26.54,0,1.5,.09,2.97,.47,4.41,.41,4.46,.18,8.93,.17,13.4,0,.79-.13,1.57-.53,2.26-.3,.45-.69,.54-1.15,.41-1.21-1.05-.73-2.55-.79-3.89-.13-2.56,.03-5.11-.38-7.69-.4-2.45-.09-5.04-.1-7.58,0-8.8,.06-17.6-.21-26.4-.05-1.48-.09-2.99,.84-4.23Z"/>
      <path class="cls-98" d="M120.88,56.45c0,10.34,0,20.69,0,31.03-.39,.43-.76,.37-1.11-.07-.54-3.55-.1-7.13-.24-10.69-.04-1.13,.1-2.27-.17-3.38-.25-2.54,.23-5.11-.27-7.64,0-2.13,0-4.26,0-6.4-.17-.21-.29-.45-.36-.71-.04-.44,.06-.82,.4-1.08,.59-.34,1.01-1.04,1.75-1.05Z"/>
      <path class="cls-185" d="M119.13,57.49c-.05,.36-.09,.72-.14,1.07-1.05-.27-.61-1.24-.61-1.88-.02-4.68-.07-9.36,.01-14.04,.09-.13,.17-.27,.26-.4,.11,.01,.22,.03,.32,.05,.05,5.07,.1,10.14,.15,15.21Z"/>
      <path class="cls-77" d="M133.13,28.02c1.51,3.97,1.66,8.27,2.32,12.44,.79,5.03,1.73,10.01,2.83,14.97,.35,1.87,.64,3.75,1.35,5.52,.33,.82,.36,1.7-.03,2.54-1.23,1.18-1.66-.23-2.09-.96-1.03-1.75-1.99-3.57-2.79-5.47-.57-1.36-1.27-2.61-2.13-3.75-.94-2.25-.71-4.81-1.5-7.1-.47-5.29-1.35-10.52-1.57-15.84,.37-2.01,.03-4.52,2.67-5,.32,.89,.64,1.78,.95,2.66Z"/>
      <path class="cls-108" d="M132.18,25.35c-1.37,1.22-1.9,2.86-1.87,4.77-1.76,.25-2.26-1.59-3.33-2.51-.58-.78-1.02-1.63-1.1-2.67-.12-1.37-.34-2.75,.73-3.83,.4-2.6,1.35-4.98,2.29-7.37,.78-.17,1.56-.34,2.33-.51-.19,4.09,.3,8.1,.94,12.11Z"/>
      <path class="cls-107" d="M105,26.96c.04-1.42,.7-2.76,.46-4.22,.32-1.05,.64-2.11,.97-3.16,1.35,.17,1.3,1.51,1.52,2.49,.56,2.41,1,4.85,2.14,7.03-.33,4.69-1.53,9.18-2.56,13.72-1.08,2.23-1.02,5.02-2.69,6.95-.29-.02-.52-.17-.67-.46-.94-3.35-.58-6.79-.35-10.16,.28-4.07,.27-8.19,1.18-12.19Z"/>
      <path class="cls-144" d="M109.67,29.08c-1.79-1.43-1.7-3.78-2.23-5.82-.32-1.23-.36-2.56-1.02-3.68,.6-1.17,.43-2.46,.47-3.72,1.34-.9,2.2-2.5,3.69-3.18,.04,1.33,0,2.69,.9,3.77-.79,.76-.85,1.77-.85,2.86,.02,2.89-.03,5.79-.05,8.68-.33,.34-.41,.93-.91,1.09Z"/>
      <path class="cls-179" d="M126.61,21.12c0,1.42-.01,2.83-.02,4.25-.9,1.65-.71,3.51-.73,5.28-.06,8.21-.02,16.41-.02,24.62-.28,1.34,.68,3.16-1.17,3.9-.91-.94-.81-2.14-.7-3.34,.04-4.5,.01-9,.01-13.5-.23-2.78-.31-5.57-.05-8.36,.09-1.13,.07-2.27,.02-3.4-.23-1.79-.18-3.59-.07-5.4,.23-1.91,.04-3.84,.13-5.75,.04-.94-.1-1.97,.85-2.53,.75-.89-.4-2.7,1.21-3.16,.02,2.47-.09,4.96,.54,7.37Z"/>
      <path class="cls-45" d="M124.67,25.3c.01,1.8,.02,3.6,.03,5.41-.74,1.01-.72,2.03,0,3.05,0,2.83,0,5.67-.01,8.5-.82,1.07-.49,2.36-.44,3.53,.16,3.38-.56,6.8,.42,10.13,.05,1,.11,2.01,.16,3.01,.72,.98,.53,2.16,.54,3.28,.02,7.71,0,15.42,.02,23.13,0,1.17-.33,2.52,.92,3.27,9.19,4.26,16.08,11.21,19.02,22.1,2.3,8.53,1.77,16.98-2.3,24.93-3.57,6.98-8.77,11.74-15.33,14.78-1.1,.26-2.4,1.06-2.95-.8-.5-1.69,.53-2.57,1.74-3.23,6.92-3.79,11.55-9.9,14.27-17.93,2.46-7.26,1.63-14.24-1.33-21.04-.54-1.25-1.08-2.52-1.87-3.62-2.39-4.26-5.76-7.31-9.69-9.58-2.17-1.25-2.42-1.02-2.47,1.83,0,.44-.03,.88-.02,1.32,.05,.68,.03,1.37,.03,2.05,.24,1.65,.02,3.28-.06,4.92-.01,.49-.14,.93-.38,1.34-.78,.95-1.64,1.29-2.64,.4,0-5.3,0-10.59,.01-15.89-.43-2.25-.07-4.5-.04-6.75,.12-7.44,.05-14.88,.04-22.31,0-.71-.08-1.4-.48-1.99-.73-1.1-.44-2.38-.37-3.55,.55-9.5,.71-18.98-.05-28.47-.04-.52,.03-1.05,.05-1.57,.75-1.09,.41-2.36,.41-3.54,.03-4.89-.03-9.78,0-14.67,0-.97-.45-2.18,.58-2.85,.33-.21,1.05-.2,1.3,.06,.79,.84,.29,1.92,.23,2.94-.08,1.39-1.07,3.04,.67,4.07,0,1.27-.01,2.54-.02,3.81-.34,3.32-.36,6.63,.01,9.95Z"/>
      <path class="cls-113" d="M118.05,30.68c0-3.52-.01-7.04-.02-10.56,.04-5.77,.09-11.54,.13-17.3,.66,1.11,.39,2.37,.4,3.56,.05,11.95,.07,23.91,.1,35.86,0,0-.12,.04-.12,.04-.14,.22-.26,.2-.35-.05-.05-3.85-.09-7.71-.14-11.56Z"/>
      <path class="cls-133" d="M124.67,25.3c-.71-3.32-.66-6.63-.01-9.95,.07,.52,.13,1.04,.2,1.56-.06,2.79-.12,5.59-.19,8.39Z"/>
      <path class="cls-114" d="M90.94,169.27l.48-1.06c1.17-.34,1.69,.69,2.25,1.47,2.99,4.13,5.95,8.3,8.56,12.75,1.84,3.12,2.15,6.76,2.46,10.29,.37,4.25,1.09,8.45,1.32,12.73,.11,2,1.25,3.88,.84,6.08-.13,.7,.92,.83,1.25,1.43,.44,1.23,.62,2.57,1.26,3.72,.59,5.41,.23,10.84,.23,16.26,0,.8-.24,1.55-.77,2.14-.04,.21-.08,.42-.12,.62-1.05-.33-.85-1.31-.86-2.15-.02-1.92-.04-3.85,0-5.77,.03-1.35-.05-2.58-1.01-3.61-.56-.6-.9-1.47-.85-2.38,.1-1.69-.26-3.2-.95-4.72-3.28-7.17-2.85-15.23-4.22-22.87-.2-1.11-.32-2.23-.48-3.34-.16-6.43-2.64-11.73-6.38-16.39-1.26-1.56-2.55-3.08-2.99-5.22Z"/>
      <path class="cls-76" d="M120.43,224.56c2.39,.4,2.13,2.98,1.91,4.28-.26,1.54,.26,2.62,.47,3.88,.71,4.24,.04,8.34-.94,12.42-.7,.54-1.38,1.16-2.29,1.17-.77-1.87-.52-3.69,.18-5.5,0-.25,.01-.5,.01-.75,.07-1.9-.12-3.81,.38-5.68,.19-.73,.24-1.59-.68-1.92-.64-.22-1.35-.27-1.8-.94,.3-.49,.76-.55,1.23-.58,1.4-.08,1.86-.56,1.23-2.26-.39-1.04-.12-2.4-.15-3.61-.1-.11-.13-.22-.11-.34,.02-.12,.05-.18,.07-.18,.17-.11,.33-.1,.49,.02Z"/>
      <path class="cls-100" d="M128.47,207.88c.27,1.25-.76,1.97-.99,3.02-2.46,1.12-5.01,.25-7.51,.35-1.15,.04-2.3-.08-3.43,.22-.91,.13-1.8-.68-2.73-.07-.84-.21-1.49,.46-2.25,.6-.33,.25-.68,.33-1.06,.17-.73-.65-1.41-1.31-.8-2.5,1.66-1.57,3.71-1.83,5.75-2.16,1.85,.06,3.7,.01,5.51-.53,.84-.19,1.67-.13,2.51-.05,1.73-.1,3.53-.68,5,.95Z"/>
      <path class="cls-23" d="M110.61,211.99c.31,0,.63,0,.94,0-.73,.95-1.13,1.99-.72,3.26,.07,4.29-.02,8.58,.05,12.88-.07,.9-.15,1.8-.22,2.7-.03,.84-.11,1.69-.07,2.53,.08,1.5-.56,1.98-1.78,1.73-.04-6.3-.09-12.59-.13-18.89-.51-.87-.4-1.86-.37-2.81,.06-1.89,.89-2.28,2.31-1.41Z"/>
      <path class="cls-33" d="M117.68,231.51c.78-.01,1.56-.03,2.34-.04,.88,2.99,.11,5.98-.04,8.97v-.04c-.08,.26-.22,.3-.42,.14-2.57,.81-3.66-.06-3.74-3-.03-.87,.06-1.76-.04-2.62-.22-1.77,.21-3.02,1.9-3.41Z"/>
      <path class="cls-15" d="M114.05,226.8c-4.08-2.17-1.93-6.24-2.56-9.69,1.16,.32,2,.83,2.94,.68,.58,.82,1.94,.21,2.23,1.55,.15,2.41-1.56,4.33-1.41,6.75,.05,.08,.1,.17,.15,.25-.26,.88-.75,.87-1.36,.46Z"/>
      <path class="cls-60" d="M118.12,246.75c-.31,.17-.62,.35-.94,.52-1.3,.11-2.6,.23-3.91,.31-.62,.04-1.28,.06-1.53-.8-.22-.75,.03-1.33,.49-1.88,.98-1.18,2.27-1.75,3.55-2.35,1.03-.49,2.02-.57,2.59,.73,.51,1.16,1.06,2.44-.25,3.48Z"/>
      <path class="cls-141" d="M114.05,226.8c.51,.07,.97-.08,1.36-.46,.61-.07,1.22-.17,1.84-.2,.42-.02,.95,.35,.78,.7-.75,1.54-1.39,3.38-2.56,4.34-.9,.74-2.6,.43-3.75-.41-.85-.62-.54-1.61,.06-2.23,.67-.69,1.51-1.17,2.27-1.74Z"/>
      <path class="cls-97" d="M118.13,260.96c-.62-.02-1.24-.04-1.87-.07-.75-.51-.62-1.27-.49-2.06,.58-3.42,.77-6.86,.17-10.31-.08-.44-.03-.45,1.24-.72,.96,3.06,.27,6.22,.47,9.33,.08,1.29-.21,2.63,.48,3.82Z"/>
      <path class="cls-149" d="M116.25,219.35c-.18-1.14-2.19,.4-1.82-1.56,.3-.02,.59-.03,.89-.05,.54-.44,1.49-.95,1.08-1.69-.53-.94-1.61-.87-2.54-.42-.44-.03-.88-.06-1.43-.09,.91-1.35,2.15-1.62,3.35-1.97,.49-.55,1.07-.65,1.71-.42,.67,.45,1.42,.68,2.13,1.01,.87,.4,1.29,1.23,1.26,2.29-.03,1-.58,1.67-1.37,1.89-.85,.23-1.59,.59-2.24,1.24-.38,.13-.72,.07-1.02-.23Z"/>
      <path class="cls-123" d="M116.25,219.35c.33-.02,.67-.04,1-.06,.28-.26,.59-.32,.94-.22,1.24,.77,1.28,1.79,.48,2.99-.64,.96-1.44,1.83-1.44,3.15-.66,.29-1.31,.59-1.97,.88-.9-1.51-.45-2.98,.22-4.36,.37-.77,.87-1.44,.77-2.38Z"/>
      <path class="cls-83" d="M117.22,225.21c-1.27-1.41-.17-2.34,.62-3.14,.9-.9,1.14-1.69,.27-2.72,.87-.98,1.88-.97,2.71-.12,.84,.86,.09,1.78-.3,2.6-.42,.87-.69,1.76-.53,2.77,0,.15,0,.31,0,.46-.92,.05-1.84,.1-2.76,.15Z"/>
      <path class="cls-118" d="M118.12,246.75c.32-3.2-.17-4.08-2.33-4.21,.93-1.44,2.97-.27,3.77-2.01,.12-.14,.26-.19,.42-.13-.47,1.94,.42,3.99-.4,5.9-.16,.18-.33,.36-.5,.55-.32-.03-.65-.06-.97-.1Z"/>
      <path class="cls-15" d="M117.66,213.55c-.63,0-1.25,.01-1.88,.02,.11-1.6-.66-2.2-1.98-2.17,.74-.61,1.65-.33,2.46-.58,.43-.22,.89-.18,1.34-.16,.65,.03,1.46-.25,1.76,.73,.32,1.03,.02,1.84-.9,2.3-.29,.1-.55,.06-.81-.13Z"/>
      <path class="cls-15" d="M110.88,228.13c-.26-4.29-.18-8.58-.05-12.88,.46,4.29,.37,8.58,.05,12.88Z"/>
      <path class="cls-15" d="M113.86,215.63c.27-.14,.55-.43,.82-.41,1.13,.08,2.86-.81,3.09,1.08,.17,1.47-1.57,1-2.44,1.43,.98-1.99-.15-2.13-1.46-2.11Z"/>
      <path class="cls-180" d="M117.66,213.55c.14-.04,.28-.05,.43-.03,3.69-1.41,7.24-1.69,10.36,1.6,2.01,1.42,.55,2.85,.01,4.28,.25,.38,.21,.71-.13,.98-.59,.5-1.18,1-1.77,1.5-1.85,1.44-4.27,1.25-6.12,2.67-.15,.02-.29,.03-.44,.05-1.44-.57-.99-1.65-.55-2.7,.33-.8,1.69-1.22,1.08-2.24-.45-.74-1.57-.3-2.41-.31-.29-.02-.58-.04-.87-.06,.02-1.31,.82-1.48,1.72-1.53,.76-.04,1.43-.36,1.4-1.32-.03-1.01-.45-1.78-1.52-1.86-.52-.04-1.61,.49-1.19-1.03Z"/>
      <path class="cls-25" d="M127.46,229.93c-.02,3.86-.04,7.72-.06,11.58-.61,.35-1.63,1.46-1.65-.18-.06-3.88-1.06-8.03,1.71-11.4Z"/>
      <path class="cls-95" d="M128.33,220.39c.04-.33,.09-.66,.13-.98,.29,0,.59,0,.88,0,.02,2.1,.07,4.21,.05,6.31,0,.8,.3,1.87-.91,2.02-.05-2.45-.1-4.9-.14-7.35Z"/>
      <path class="cls-2" d="M164.98,108.12c1.49,8.46,1.53,16.88-.87,25.14-1.16,3.99-2.25,8.14-4.17,11.68-2.7,4.98-5.34,10.06-8.6,14.63-1.45,2.03-2.59,4.31-4.39,6.04-3.35,3.23-6.08,7.1-8.1,11.48-1.63,3.53-3.26,7.13-3.85,11.14-.62,4.72-.95,9.54-3.52,13.6-1.15,1.81,.56,3.56-.15,5.45-.43,1.16-.58,2.41-1.41,3.42-1.22-1.16,.27-3.17-1.27-4.01-.46-.09-.46-.47-.42-.86,1.25-1.05,1.38-2.26,.65-3.82-.71-1.53-1.4-3.16-.84-5.01,1.71-3.46,1.54-7.45,2.52-11.14,2.47-9.33,7.13-16.91,13.01-23.95,7.97-9.53,15.34-19.65,18.82-32.59,1.75-6.51,1.48-12.98,.6-19.54-.17-1.25-.8-2.56,.13-3.77,.62,.7,1.25,1.4,1.87,2.11Z"/>
      <path class="cls-84" d="M128.45,215.12c-3.3-1.8-6.84-1.65-10.36-1.6,.44-.55,1.23-1.01,.84-1.89-.57-1.28-1.78-.46-2.66-.81,3.74-.76,7.48-.66,11.21,.08,1.85,.96,.57,2.84,.98,4.22Z"/>
      <path class="cls-117" d="M128.64,205.64c0,.35,0,.71,0,1.06-.06,.39-.12,.79-.18,1.18-1.73-.04-3.46-.09-5.19-.13-.83-1.37-.14-2.38,.77-3.1,1.38-1.08,2.9-1.73,4.47-.3,.25,.4,.31,.83,.12,1.29Z"/>
      <path class="cls-147" d="M151.99,169.89c-.23,.7-.5,1.36-1.24,1.38-.74,.02-1.17-.47-1.13-1.29,.05-.82,.55-1.25,1.27-1.12,.49,.09,1.09,.23,1.09,1.03Z"/>
      <path class="cls-155" d="M163.11,106.02c.77,4.64,1.53,9.29,1.39,14.03-.26,8.85-3.6,16.51-7.32,24.06-2.02,4.1-4.71,7.63-7.4,11.07-2.24,2.86-4.08,6.13-6.77,8.58-1.31,1.19-2.32,2.82-3.41,4.29-5.47,7.37-8.39,16-9.73,25.37-.21,1.44-.56,2.7-1.42,3.78-.87-.8-.68-1.9-.6-2.92,.71-8.87,3.32-17.05,7.18-24.77,.61-1.23,1.28-2.41,2.1-3.47,4.27-5.55,8.58-11.1,12.54-16.9,5.19-7.62,9.95-15.76,11.03-25.73,1.13-7.4-.24-14.36-2.94-21.09-2.34-5.84-5.14-11.3-8.71-16.37-3.95-5.62-7.01-11.97-9.51-18.6-.42-1.11-.93-2.26-.33-3.51,.32-2.9-1.25-5.53-.93-8.43,1.36,3.79,2.8,7.54,4.06,11.37,1,3.02,3.19,5.1,4.58,7.84,2.64,5.22,6.27,9.69,9.32,14.59,1.89,3.02,3.07,6.62,4.46,10.01,.9,2.21,1.62,4.52,2.41,6.78Z"/>
      <path class="cls-5" d="M107.81,213.02c-.93,0-1.83-.21-1.81-1.49,.1-4.65-1.08-9.12-1.57-13.68-.27-2.49-.53-5.03-.71-7.51-.35-4.93-2.57-8.83-5.1-12.35-2.09-2.89-3.86-6.07-6.14-8.78-.32-.37-.71-.67-1.06-1-.09-.91-.4-1.73-.96-2.35-3.28-3.67-4.82-8.51-7.09-12.88-2.21-4.27-4.29-8.55-5.54-13.27-1.75-6.6-4.16-13.16-3.66-20.18,.37-5.23-.3-10.75,2.24-15.62,.48,.43,.6,1.04,.53,1.66-.47,3.92-.06,7.89-.67,11.82-.72,4.64,.73,9.06,1.82,13.41,2.52,10.09,7.11,19.06,12.38,27.61,3.03,6.2,7.38,11.3,11.04,16.97,2.85,4.41,4.57,9.2,4.83,14.82,.2,4.43,.16,8.9,.95,13.33,.48,2.69,.27,5.57,.92,8.31,.1,.43-.08,.86-.4,1.17Z"/>
      <path class="cls-10" d="M90.01,158.73c-3.05-3.89-5.24-8.43-7.33-12.99-2.09-4.57-4.18-9.19-5.23-14.24-1.13-5.45-2.93-10.74-1.67-16.62,.76-3.52-.11-7.33,.64-10.95,.31-1.23,.63-2.47,.94-3.7,2.93-6.03,6.83-11.32,10.17-17.03,1.16-1.98,3.23-2.66,4.35-4.57,1,1.49,0,2.64-.56,3.81-.8,1.69-2.16,2.99-2.65,4.9-2.41,3.1-3.68,6.99-5.73,10.36-1.85,3.04-2.14,6.85-3.04,10.35-1.86,11.12-.71,21.81,3.39,32.14,1.82,4.58,3.76,9.06,6.17,13.28,.4,1.28,1.52,2.19,1.53,3.68-.05,.75-.29,1.36-.99,1.6Z"/>
      <path class="cls-7" d="M88.14,87.04c.08-1.71,1.34-2.67,2.05-3.98,.75-1.41,1.7-2.69,1.7-4.45,1.71-3.6,3.5-7.15,5.09-10.82,.87-2.02,1.58-4.18,2.06-6.36,1.23-5.66,2.03-11.42,2.78-17.19,.76-5.8,.77-11.84,3.18-17.27,.6,3.2,.16,6.45-.12,9.58-.39,4.38-.18,8.72-.35,13.08,.37,.65,.3,1.38,.17,2.04-1.84,9.77-3.7,19.53-9.52,27.56-1.28,1.76-2.55,3.51-3.71,5.38-.75,1.22-1.71,2.54-3.34,2.44Z"/>
      <path class="cls-136" d="M112.36,71.88c.02,4.96,.02,9.91,.09,14.87,.02,1.12-.3,2.02-.87,2.87-6.87,2.58-12.37,7.4-16.19,14.14-3.1,5.48-3.82,11.91-3.17,18.43,1.14,11.43,6.96,19.07,15.6,24.43,1.65,.82,3.75,.36,5.04,2.23,.66,3.36,.36,6.77,.22,10.14-.08,2.02-1.83,2.55-3.77,1.41-4.27-2.51-8.21-5.55-11.89-9.02-3.57-3.68-6.53-7.94-9.12-12.52-1.37-2.42-2.26-5.14-2.71-8-.07-1.42,.29-2.93-.63-4.2-.12-.26-.2-.54-.24-.83-.13-4.4-.12-8.8-.01-13.2,.03-.28,.1-.56,.19-.82,.83-1.12,.68-2.48,.73-3.79,.77-3.3,1.43-6.65,3.91-9.01,.9-.82,1.76-1.68,1.84-3.11,.3-.97,.9-1.69,1.53-2.4,.48-.51,1.01-.97,1.59-1.33,1.8-1.38,3.16-3.28,4.66-5,1.35-.88,1.84-3.31,3.97-2.79,1.6,.5,2.15-1.13,3.04-1.96,2.19-2.07,4.48-4.06,4.57-7.79,.03-1.06,.76-2.07,1.62-2.75Z"/>
      <path class="cls-78" d="M110.6,145.61c-7.2-4.03-12.25-10.15-14.59-18.92-3.57-13.4,.35-24.6,11.41-31.66,1.42-.9,2.91-1.66,4.36-2.49,1.32,1.23,1.47,4.38,.06,5.19-2.23,1.29-4.01,3.3-6.22,4.59-.17,.17-.36,.3-.56,.42-.73,.26-1.42,.6-1.93,1.29-5.4,6.97-7.42,14.73-4.39,23.67,.37,1.17,1.08,2.06,1.91,2.85,2.14,3.6,4.69,6.79,7.73,9.47,1.17,.91,2.63,1.05,3.82,1.88,.94,.66,1.45,1.62,1.21,2.87-.24,1.29-1.1,1.56-2.15,1.31-.23-.13-.45-.28-.66-.46Z"/>
      <path class="cls-96" d="M105.04,102.32c1.65-2.29,3.95-3.62,6.12-5.1,1.71-1.17,1.98-2.73,.62-4.67,.33-.54,.76-.29,1.17-.19-.26,3.81,.46,7.66-.31,11.46-.33-.08-.5-.36-.6-.69q-.78-2.64-2.89-.82c-1.1,.7-1.65,2.41-3.22,2.27-.66-.57-.76-1.42-.9-2.25Z"/>
      <path class="cls-71" d="M110.6,145.61c.22,0,.44,0,.65,.01,.84,.65,2.3-.43,2.77,1.25,.57,5.4,.11,10.82,.28,16.23,.05,1.64-.22,3.32,.36,4.91,.94,1.46-.62,2.53-.47,3.88-.43,.7-.73,1.94-1.69,.53-.65-3.97-.54-7.9,0-11.9,.52-3.85,.44-7.78,0-11.67-1.63-.56-3.34-.9-4.67-2.24,.91-.4,2.27,.79,2.78-1.01Z"/>
      <path class="cls-151" d="M122.32,106.06c.87,.23,1.67,.11,2.35-.6,.5,1.42-.48,1.69-1.27,1.86-1.52,.33-3.07,.49-4.44-.63-.27-4.63-.19-9.26,.06-13.9,0-8.25-.02-16.51-.02-24.76,0-.79,.07-1.57,.1-2.36,.67,2.62,.22,5.31,.39,7.96,.31,.34,.29,.79,.28,1.22-.3,8.8,.76,17.56,.46,26.36-.04,1.14-.02,2.27,.4,3.34,.09,.6,.39,1.07,.78,1.47l.91,.04Z"/>
      <path class="cls-124" d="M119.01,92.8c.04,4.56,.07,9.12,.11,13.68-.58,1.74-1.57,2.15-2.99,1.19,.03-.22,.06-.44,.08-.67,2.4-.16,2.21-2.38,2.34-4.07,.18-2.44,.03-4.9,.06-7.35,.01-.94-.21-1.94,.4-2.78Z"/>
      <path class="cls-170" d="M118.19,42.23c.12,0,.24,.02,.35,.05,.01,4.52,.01,9.04,.05,13.55,0,.92-.27,1.93,.41,2.73,.03,.24,.06,.48,.1,.72-1.09-.16-.95-1.08-.95-1.93-.02-2.23-.04-4.45-.07-6.68,.04-2.82,.08-5.63,.12-8.45Z"/>
      <path class="cls-59" d="M116.13,107.67c1.22,.31,2.08-.53,2.99-1.19,1.37,.05,2.73,.14,4.1,.14,.68,0,1.43-.04,1.45-1.16,.06-.46,.11-.91,.17-1.37,.19-.93,.74-.91,1.39-.7,1.24,.4,2.47,.83,3.46,1.84,.86,.99,1.7,2.02,2.83,2.66,1.82,1.03,2.48,2.99,3.22,4.91,3.83,7.24,1.44,16.99-3.22,20.28-1.19,.32-2.48,.97-3.07-1.02,.13-1.43,.9-2.61,1.25-3.96,.2-.57,.38-1.15,.52-1.74,.73-2.32-.19-4.4-.66-6.77-1.11,.82-.87,1.93-1.01,2.88-.74,4.77-2.92,8.35-6.88,10.41-.97,.51-1.45,1.52-2.19,2.26-.98,.16-1.91-.17-2.52-.94-.73-.92-.02-.99,.48-1.03-.56-.24-1.18,.49-1.88,.4-1.27-.32-2.49-.41-3.49,.78-1.22,.66-1.95,2.29-3.52,2.24-3.9-2.78-6.86-6.33-7.92-11.62-.46-2.29,1.29-3.41,1.71-5.19,.22-1.54-.28-3.17,.48-4.63,.4-.45,.82-.55,1.28-.12,.44,.63,.22,1.34,.14,2.01-.24,1.98,.9,2.84,2.25,3.46,1.18,.55,1.02-.5,1.06-1.26,0-.25,0-.5,0-.75,0-2.52,1.63-4.21,2.5-6.29,.47-1.31,1.71-1.59,2.54-2.43,.85-.7,1.69-1.4,2.54-2.1Z"/>
      <path class="cls-184" d="M113.59,109.78c-.65,.87-1.29,1.74-1.94,2.6-.82,.8-1.28,1.93-2.03,2.8-.58,.68-1.29,1.02-2.07,.55-.73-.43-.74-1.26-.59-2.05,.25-1.35,.2-2.76,.7-4.05,.68-1.41,1.03-3.22,2.97-3.09-.04,.8,1.35,.7,.8,2.14-.31,.8,1.04,1.59,2.16,1.1Z"/>
      <path class="cls-183" d="M108.74,101.81c.94-1.22,2.36-2.79,3.42-2.27,1.16,.57,.23,2.8,.48,4.27-.12,.57-.34,1.02-.93,1.08-1.08-.2-1.32,1.59-2.44,1.29-2.46-.84-2.51-1.25-.54-4.37Z"/>
      <path class="cls-173" d="M109.71,105.51c.76,.17,1.09-1.41,2-.62-.36,.55-.73,1.1-1.09,1.65-1.03,.8-1.74,1.91-2.36,3.12-.95,1.36-.89,3.23-1.83,4.59-.39,.55-.53,1.41-1.38,1.37-.21-.41-.54-.59-.96-.61-.08-.09-.15-.18-.23-.27-.37-1.2,.44-2.14,.56-3.23,1.29-2.52,3.15-4.41,5.29-5.99Z"/>
      <path class="cls-52" d="M103.13,84.39c-1.61,.51-2.11,2.68-3.73,3.18-.35,.31-.7,.29-1.05,.01-.48-1.35,.45-2.11,1.02-2.99,1.47-2.25,3.49-3.98,4.7-6.49,1.75-3.65,3.38-7.35,3.55-11.56,.21-5.14,1.87-10.12,1.22-15.34-.05-2.33-.17-4.66,.08-6.97,.11-.98,.03-2.48,1.67-2,.01,4.57,.03,9.14,.04,13.72,0,2.55,.2,5.12-.06,7.63-.43,4.26-.57,8.6-1.89,12.68-.67,2.07-1.81,3.8-3.37,5.23-.85,.78-2.11,1.32-2.19,2.9Z"/>
      <path class="cls-56" d="M110.59,42.23c-1.1,.28-.87,1.28-.88,2.12-.03,2.46-.02,4.92-.03,7.38-.64,1.59-.72,3.41-1.63,4.88-.44,.7-.88,1.71-1.67,.33-.85-4.77-.42-9.48,.5-14.17,.93-4.56,1.86-9.12,2.79-13.68,.05-.63,.33-1.02,.91-1.09,.02,2.12,.04,4.23,.06,6.35-.02,2.63-.04,5.26-.05,7.89Z"/>
      <path class="cls-150" d="M121.86,59.12c.99,.49,.95,1.48,.95,2.46,0,7.01,.13,14.03-.07,21.03-.07,2.51-.44,5.03-.4,7.57-.71-1-.43-2.18-.44-3.28-.04-9.26-.03-18.51-.04-27.77Z"/>
      <path class="cls-46" d="M121.41,106.03l-1.34-.03c-.65-2.4-.28-4.86-.26-7.29,.04-3.75-.4-7.51,.25-11.24,.28,0,.55,0,.83,0-.16,6.2,1.09,12.34,.52,18.55Z"/>
      <path class="cls-103" d="M120.06,87.47c0,6.18,0,12.35,0,18.53-.69-.58-.46-1.43-.46-2.18-.05-10.06-.08-20.12-.12-30.17,.98,2.37,.37,4.89,.51,7.33,.12,2.16,.05,4.33,.07,6.5Z"/>
      <path class="cls-14" d="M139.21,63.85c3.05,9.55,7.59,18.13,13.39,25.88,1.78,2.38,2.66,5.34,4.02,7.98,3.42,6.64,4.94,13.89,5.38,21.45,.08,1.38-.03,2.95-.76,4.26-.96-.74-1.27-1.94-1.04-3.03,.69-3.28-.49-6.01-1.7-8.77-.59-1.8-1.24-3.59-1.79-5.41-2-6.68-5.59-12.26-9.71-17.43-1.94-2.43-3.39-5.21-5.05-7.84-4.11-7.51-6.98-15.61-8.92-24.13-.26-1.14-.8-2.36,.1-3.48,2.16,1.78,2.58,4.82,4.05,7.11,.71,1.1,1.16,2.43,2.03,3.43Z"/>
      <path class="cls-172" d="M133.13,53.31c1.58,8.29,3.91,16.27,7.69,23.66,.62,1.21,1.12,2.5,1.67,3.75,.85,2.12,2.31,4.05,1.69,6.65-1.47,.89-2.14-.51-2.8-1.42-2.65-3.68-4.78-7.77-6.76-11.93-.48-1.01-1.03-1.94-1.62-2.85-1.81-5.27-3.79-10.49-3.43-16.34,.19-2.19,.79-4.29,1.04-6.47,.09-.8,.4-1.52,1.11-1.91,1.04,2.14,.72,4.63,1.41,6.85Z"/>
      <path class="cls-126" d="M131.71,46.46c-.47,2.81-.94,5.62-1.4,8.43-1.19-.02-1.21-1.17-1.44-2.01-.34-1.24-.66-2.48-1.08-3.7-.47-4.16-.17-8.36-.48-12.53-.16-2.16-.74-4.28-.51-6.48,.1-.94-.1-1.95,.71-2.63,.93,.87,1.86,1.73,2.8,2.6,.37,3.97,.65,7.96,1.16,11.91,.19,1.49,.18,2.95,.24,4.42Z"/>
      <path class="cls-182" d="M127.52,27.52c-.12,7.38,1.47,14.68,.92,22.09,.53,1.23-.24,1.59-1.02,1.95-.43,.04-.81-.06-1.09-.47-.35-.85-.18-1.76-.23-2.64,0-4.93,0-9.86,0-14.8,0,4.98,0,9.96,0,14.95-.25,2.17,.7,4.37-.14,6.53-.18,.32-.42,.38-.71,.18,0-9.28-.01-18.57-.03-27.85,0-1.1-.06-2.21,1.38-2.08,.31,.72,.61,1.43,.92,2.15Z"/>
      <path class="cls-156" d="M88.14,87.04c8.01-8.52,13.08-18.83,15.03-31.08,.34-2.14,.91-4.23,1.37-6.35,.16,0,.32,0,.47,0,.7,.64,.76,1.54,.61,2.4-1.36,7.78-2.08,15.78-5.56,22.9-1.12,2.29-2.28,4.57-3.81,6.56-4.28,5.16-7.48,11.19-10.66,17.21-1.31,2.48-1.83,5.38-2.62,8.12-.33,1.14-.39,2.46-1.56,3.07-1.36,0-1.62-1.3-2.16-2.28,1.29-7.77,4.74-14.36,8.9-20.56Z"/>
      <path class="cls-132" d="M95.64,81.24c3.82-6.09,6.67-12.58,7.59-20.12,.47-3.84,1.57-7.59,1.78-11.51-.02-2.51,1.11-4.62,1.87-6.85,0,4.92,0,9.84,0,14.76,.81,.83,.79,1.92,.52,2.93-1.38,5.28-2.34,10.73-4.66,15.66-.4,.85-.79,1.72-1.46,2.36-1.37,.92-3.08,1.17-4.18,2.69-.34,.47-.96,.57-1.47,.08Z"/>
      <path class="cls-177" d="M125.24,55.31c.11,.05,.23,.07,.36,.07,1.22,1.46,.56,3.27,.7,4.92,.09,1.11,.02,2.23,.02,3.35-.03,1.3,.06,2.61-.12,3.91-.58,5.49-.54,10.98-.01,16.46,.11,1.89,.59,3.75,.39,5.67-1.13,.11-1.88-.03-1.87-1.74,.09-9.67,.09-19.35,.13-29.02,.65-1.14,.12-2.44,.41-3.62Z"/>
      <path class="cls-133" d="M124.67,55.92c-.67-.11-.87-.62-.87-1.3-.01-3.84-.02-7.68-.05-11.52,0-.77,.16-1.22,.94-.85,0,4.56-.01,9.11-.02,13.67Z"/>
      <path class="cls-133" d="M124.69,33.75c-1.37-1.02-1.39-2.04,0-3.05,0,1.02,0,2.03,0,3.05Z"/>
      <path class="cls-165" d="M125.62,67.54c0-1.23,0-2.46,0-3.69,.42-.6,.15-1.32,.25-1.97,.09-.59,.3-.96,.89-.54,.85,1.51,.34,3.2,.49,4.81,.12,3.48-.09,6.95,.7,10.44,.61,2.7,1.83,4.77,3.74,6.1,2.78,1.92,4.96,4.53,7.1,7.13,5.45,6.62,10.85,13.33,12.42,22.72,.63,3.77,.55,7.5,.26,11.25-.11,1.49-.3,2.96,.07,4.43,.38,2.31-1.35,4.27-.87,6.6,.35,2.33-1.65,3.47-2.14,5.38-.66,1.08-1.79,1.88-1.7,3.44-.87,2.53-3.23,3.83-4.16,6.31-.66,.59-1.52,.81-2.11,1.54-3.15,3.85-7.09,6.58-10.79,9.67-.74,.49-.63,1.33-.66,2.1-.03,.79-.04,1.57-.27,2.33-.83,2.7-1.77,2.91-3.43,.78-.22-.14-.41-.31-.59-.5-.28-.32-.5-.68-.64-1.1-.08-.3-.13-.6-.15-.91-.07-3.3,0-6.6-.04-9.91-.03-1.99,.05-3.77,2.51-3.5,.35,.04,.7-.32,1.01-.59,4.15-2.22,7.98-4.86,11.11-8.79,5.43-6.83,8.1-14.74,7.16-23.81-1.4-13.46-8.25-22.38-19.21-27.54-1.6-1.47-.72-3.51-.97-5.29-.34-5.62-.37-11.24,.01-16.86Z"/>
      <path class="cls-27" d="M127.51,149.83c-.09,.24-.18,.68-.27,.68-2.91,.04-2.59,2.28-2.56,4.49,.05,3.23-.04,6.45-.07,9.68-.29,.1-.58,.07-.85-.09-.66-.62-.81-1.5-.83-2.38-.11-5.18-.12-10.36,0-15.54,.02-.62,.15-1.22,.43-1.75,.93-.44,1.79-1.06,2.84-1.18,2.37-.27,4.09-1.8,5.61-3.71,2.28-2.28,4.36-4.73,5.42-8.05,.35-.93,.7-1.88,1.21-2.72,.8-.75,.49-1.91,.82-2.83,.08-.36,.23-.69,.36-1.04,2.19-4.31,1.07-8.67,.12-13.01-.18-.84-.59-1.6-1.2-2.18-.81-1.09-1.78-2.06-2.11-3.51-.06-.38-.03-.76,.08-1.13,.46-.78,.39-1.96,1.35-2.39,5.12,7.68,6.38,16.25,3.71,25.22-2.51,8.41-7.31,14.92-14.7,18.6-1.13,.56-2.07,1.24-1.71,2.6,.45,1.65,1.56-.08,2.34,.24Z"/>
      <path class="cls-122" d="M137.87,103.18c-.65,.59,.41,2.03-.9,2.29-1.05-.2-1.63-1.42-2.69-1.6-1.64-.68-2.38-2.77-4.1-3.34-.87-.91-1.85-1.57-3.05-1.78-.95-.17-1.77-.65-2.3-1.62-.21-5.81-.13-5.98,4.36-3.1,3.5,2.24,6.63,5.1,8.69,9.16Z"/>
      <path class="cls-3" d="M129.33,105.53c-1.49-.52-2.76-1.89-4.49-1.43-.02-1.62-.04-3.25-.05-4.87,2.1-1.62,3.32,.57,4.85,1.42,.99,.72,1.65,1.73,2.12,2.93,.12,2.59-.16,2.8-2.43,1.95Z"/>
      <path class="cls-68" d="M129.32,101.17c-1.52-.63-2.67-2.34-4.53-1.94,.01-.7,.03-1.41,.04-2.11,1.84,1.07,4.38,.49,5.63,2.99-.11,.71-.69,.79-1.13,1.07Z"/>
      <path class="cls-37" d="M90.01,158.73c.16-.53,.31-1.06,.47-1.58,1.2-.34,1.68,.65,2.15,1.54,2.98,5.58,7.11,10.14,10.65,15.22,2.85,4.08,4.28,8.85,4.83,14,.46,4.36,.56,8.73,.42,13.1-.05,1.5,.8,2.38,1.27,3.53,.13,1.66,.2,3.31-.04,4.97-.03,.14-.05,.27-.08,.41,.31,.69,.62,1.38,.93,2.08-1.28-.15-2.03,.29-1.88,1.94,.07,.75-.03,1.52-.05,2.28-1.49-.65-.62-2.11-.87-3.19-1.99-8.04-1.79-16.34-2.33-24.55-.29-4.49-1.94-8.41-4.19-11.99-3.52-5.6-7.87-10.52-10.88-16.55-.18-.37-.27-.8-.41-1.2Z"/>
      <path class="cls-106" d="M119.98,240.44c.01-2.99,.03-5.98,.04-8.97,.4,.1,.85,.29,.81,.79-.19,2.74,.02,5.54-.85,8.18Z"/>
      <path class="cls-91" d="M115.34,208.27c-1.89,.55-3.77,1.1-5.66,1.64,0,0,.09-.14,.09-.14-1.13-5.51,.45-7.63,6.37-8.62,.65,.08,1.33,.04,1.88,.53,.44,2.05-.11,4.06-.24,6.09-.75,.57-1.7-.11-2.44,.49Z"/>
      <path class="cls-55" d="M128.31,204.59c-2.96-.71-4.47,.23-5.03,3.16-.78,0-1.55,.01-2.33,.02-.95-1.07-.78-2.38-.5-3.62,.21-.92,.36-1.82,.39-2.77,.51-.65,1.21-.77,1.86-.62,1.76,.4,1.33-.8,1.15-1.86,.11-1.73-.31-3.55,.78-5.08,.67-.45,1.33-.45,1.99,.02,.77,.88,.54,2.03,.66,3.08,.06,1.57,.49,3.03,.88,4.53,.26,.99,1.02,2.05,.15,3.14Z"/>
      <path class="cls-50" d="M120.89,201.55c.12,.59,1.66,.23,.86,1.25-1.23,1.56-.61,3.31-.8,4.98-1.85,.38-3.71,.68-5.61,.5,.64-.74,1.51-.4,2.26-.6,.79-1.83,1.43-3.67,.51-5.69-.61-.04-1.23-.09-1.84-.13,.83-1.94,2.38-.93,3.64-1.11,.42,.12,.78,.34,.98,.81Z"/>
      <path class="cls-140" d="M128.31,204.59c-.53-2.47-2.01-4.68-1.63-7.4,.72-2.07-.02-4.13-.01-6.19,.02-2.34-.2-4.7,.23-7.03,1.07-2.27,1.88-4.63,1.81-7.25-.04-1.45,.92-2.37,1.34-3.56,1.78-5.03,4.56-9.36,7.32-13.72,1.96-3.1,4.83-5.2,7.02-8.07,3.81-4.99,7.56-10.04,10.16-15.98,.79-1.81,1.83-3.43,2.52-5.33,1.9-5.21,1.93-10.58,1.48-16.03-.08-.93-.4-1.93,.35-2.74,1.48,2.69,2.92,5.33,1.97,8.79-.27,.98,.23,2.21,.37,3.33-.49,3.98-1.35,7.81-2.75,11.55-1.91,5.12-5.15,9.27-7.66,13.94-1.85,3.44-4.67,6.21-7.02,9.33-4.55,6.05-8.93,12.18-11.69,19.66-2.3,6.25-3.07,12.73-3.68,19.32-.19,2.08,.78,3.75,1.54,5.5,.82,1.88,.32,2.92-1.34,2.94-.11-.35-.22-.7-.33-1.05Z"/>
      <path class="cls-99" d="M79.24,107.6c.79,.51,1.42,1.21,1.87,2.1,.76,.89,.44,1.97,.44,3,.02,5.67-.61,11.38,.88,16.96,.32,1.19,.65,2.33,1.3,3.34,.25,.51,.37,1.06,.39,1.64,0,.79,.04,1.65,.4,2.3,2.38,4.28,3.67,9.18,6.32,13.32,2.36,3.68,4.66,7.39,7.1,11,.42,.63,.77,1.32,.82,2.14-.08,1.11-.39,2.18-1.46,2.4-1.27,.26-1.43-1.13-1.81-2-1.63-3.69-4.03-6.74-6.4-9.82-4.13-6.27-7-13.33-8.9-20.72-2.15-8.36-2.88-17.01-.94-25.67Z"/>
      <path class="cls-36" d="M89.08,153.98c.85-.15,1.72-.82,2,.99,.25,1.61,1.12,2.94,2.42,3.98,1.19,.95,1.8,2.54,2.28,4.15,.25,.82,.13,2.15,1.27,2.23,1.02,.07,.74-1.4,1.39-1.86,.92-.37,1.5,.31,2.01,.94,4.32,5.37,8.03,11.13,8.98,18.56,.13,1,.74,1.74,.87,2.7,.24,5.48,.25,10.97,.36,16.45,.03,1.19-.25,2.17-1.39,2.55-1.29-.71-1.55-1.89-1.47-3.44,.24-4.89,.14-9.81-.52-14.63-.61-4.38-1.92-8.66-4.5-12.17-3.64-4.97-7.65-9.61-10.6-15.19-.44-.83-.86-1.67-1.69-2.11,.04-1.34-1.45-1.82-1.4-3.16Z"/>
      <path class="cls-127" d="M110.18,202.48c-.73-.78-.47-1.8-.48-2.72-.03-4.89-.01-9.78-.02-14.67-.72-1.15-.57-2.49-.74-3.77-.58-4.22-2.13-8.27-4.39-11.39-3.13-4.32-6.02-8.88-9.33-13.04-3-3.77-5.54-7.93-7.38-12.59-.99-2.51-2.66-4.69-2.68-7.67,0-1.05-1.23-.93-1.7-1.61,0-.53,0-1.05,0-1.58-1.55-4.75-2.17-9.66-1.69-14.69,.16-1.69,.35-3.67,2.65-3.39,.86,1.52,.28,3.22,.45,4.82,.22,2.13-.46,4.34,.46,6.4h0c1.02,1.19-.08,3,.95,4.2,.83,4.28,2.67,7.97,4.94,11.49,1.94,3.01,4.38,5.51,6.33,8.49,2.28,4.27,4.87,8.33,8.04,11.78,3.45,3.76,4.88,8.42,5.81,13.47,.48,2.59,.7,5.11,.07,7.74-.9,3.72,.93,7.14,1.24,10.74,.33,2.43-.16,4.77-.56,7.12-.39,1.05-.97,1.55-1.96,.85Z"/>
      <path class="cls-47" d="M84.37,115.5c-1.8,.48-1.69,2.12-1.87,3.69-.56,4.83,1.1,9.46,.95,14.24-2.38-2.38-2.55-5.8-2.7-8.88-.23-4.93-.52-9.93,.36-14.85,1.56-2.09,1.6-4.86,2.34-7.27,.75-2.42,1.7-4.65,2.87-6.74,2.8-5.05,5.46-10.25,9.32-14.45,1.79-.89,2.98-3.05,5.15-3.16,.67,1.02-.05,1.61-.59,2.18-3.51,3.77-5.38,8.59-6.92,13.62-.47,.7-.93,1.41-1.4,2.11-.66,1.03-1.24,2.11-1.88,3.16-1.95,2.62-2.96,5.73-3.75,8.96-.93,1.04,0,2.66-.92,3.71h0c-.93,1.02,.03,2.67-.97,3.67Z"/>
      <path class="cls-142" d="M112.1,194.11c-.45-2.87-2.07-5.44-1.51-8.59,.27-1.51,.44-3.1,.57-4.6,.19-2.22-.46-4.55-.8-6.82-.98-6.51-5.13-10.73-8.8-15.28-1.3-1.61-1.69-3.99-3.72-5.05-.73-.38-.27-1.96-.29-2.99,4.07,2.68,7.55,6.38,11.85,8.72,.88,.48,1.64,1.08,2.55,.63,.91-.44,.56-1.53,.57-2.34,.03-2.97,0-5.95-.01-8.92,.77,.38,.53,1.18,.53,1.83,.02,7.41,.01,14.83,.02,22.24,.8,2.71,.14,5.47,.18,8.2-.01,.31-.02,.61-.02,.92-.02,1.53,.06,3.05,0,4.58,0,.93-.04,1.86,.12,2.79-.18,1.64,.65,3.61-1.21,4.7Z"/>
      <path class="cls-152" d="M93.28,93.88c-.57-.53-.67-1.38-.36-1.91,1.4-2.41,2.09-5.2,3.39-7.69,1.24-2.39,3.22-3.94,4.48-6.21,3.5-6.3,5.11-13.31,6.1-20.56,1.11-1.82,1.19-4.28,2.8-5.79-.61,8.52-.49,17.16-4.08,25.09-1.36,3-3.32,5.38-5.26,7.84-.71,.9-1.58,1.68-1.9,2.9-.78,2.17-2.87,3.15-3.78,5.2-.46,.37-.92,.75-1.38,1.12Z"/>
      <path class="cls-22" d="M84.37,115.5c.21-1.26-.47-2.82,.97-3.68,0,4.92-.02,9.84-.02,14.76-1.21-.31-.89-1.42-.91-2.3-.04-2.93-.03-5.85-.04-8.78Z"/>
      <path class="cls-74" d="M94.66,92.76c.07-2.83,2.33-3.65,3.78-5.2,.32,0,.64,.01,.96,.02-1.23,2.13-2.7,3.99-4.74,5.19Z"/>
      <path class="cls-30" d="M86.27,130.79c-1.79-.98-.62-2.81-.95-4.21,1.79,.98,.62,2.81,.95,4.21Z"/>
      <path class="cls-40" d="M90.01,99.16c-.13-1.62,.52-2.66,1.88-3.16,.17,1.65-.52,2.66-1.88,3.16Z"/>
      <path class="cls-22" d="M85.34,111.82c.21-1.26-.73-2.89,.92-3.71-.21,1.26,.69,2.88-.92,3.71Z"/>
      <path class="cls-134" d="M105.04,102.32c1.15,.26,.82,1.3,.89,2.13,.4,1.11-.32,1.79-.83,2.5-1.03,1.42-1.9,2.93-2.53,4.61-1.02,2.04-1.38,4.3-1.72,6.56-.59,5.11,.67,9.66,3.23,13.84,1.61,2.63,3.89,4.51,5.88,6.72,.1,.27,.14,.55,.12,.85-.39,1.45-1.2,1.38-2.17,.78-3.19-2.47-5.87-5.45-7.62-9.39-.98-1.34-1.41-3.03-2.23-4.48,.15-1.98-.99-3.68-1-5.61-.03-3.88,.9-7.52,2.42-10.96,.85-1.92,1.59-3.97,3.16-5.37,.71-.82,1.48-1.57,2.31-2.23l.09,.06Z"/>
      <path class="cls-130" d="M103.17,104.49c-3.05,3.95-4.54,8.64-5.41,13.71-.49,2.89,.8,5.46,.76,8.24,.29,.63,.4,1.24-.12,1.79-1.76-3.93-2.3-8.14-1.57-12.37,.57-3.28,1.98-6.32,3.45-9.26,.7-1.4,1.52-2.6,2.85-3.27,.26,.38,.28,.76,.03,1.16Z"/>
      <path class="cls-88" d="M107.91,140.3c.72-.16,1.68,.25,1.93-1.02,1.18-.26,2.46-.17,3.42-1.22,.9,.6,.89,1.58,.7,2.5-.18,.88-.07,1.7,.09,2.54,.09,1.06,.21,2.12-.63,2.92-.82,.54-1.55,.45-2.17-.39,.76-.04,1.7,.19,1.66-1.17-.02-1.01-.35-1.78-1.36-2.14-1.29-.46-2.78-.55-3.65-2Z"/>
      <path class="cls-53" d="M98.4,128.23c.04-.6,.08-1.19,.12-1.79,1.2,1.19,1.32,2.91,1.77,4.47-1.1-.47-1.67-1.42-1.89-2.68Z"/>
      <path class="cls-174" d="M103.17,104.49c-.01-.39-.02-.77-.03-1.16,.26-1.1,1.04-1.09,1.81-1.07-.51,.83-.77,1.91-1.78,2.23Z"/>
      <path class="cls-82" d="M102.16,111.07c.59-2.69,2.43-4.47,3.77-6.62,.94-.88,1.88-1.76,2.81-2.64-.06,.41,0,.93-.19,1.21-1.4,1.92-.58,2.46,1.16,2.49-1.1,2.54-3.64,3.72-4.72,6.29-.15,.2-.29,.41-.44,.62-.57,.77-.99,2.16-2.09,1.62-1.28-.62-.59-1.91-.3-2.96Z"/>
      <path class="cls-115" d="M113.42,146.01c-.01-1.02-.02-2.04-.04-3.06-.46-1.64,.8-2.93,.73-4.51-.02-.4,.43-.77,.83-.8,.56-.04,.77,.49,.9,1,.18,.68,.16,1.39,.16,2.09,0,8.33,.03,16.66-.03,24.99,0,1.09,.46,2.58-1.1,3.03-1.61,.11-1.4-1.19-1.41-2.31-.02-6.81-.03-13.61-.05-20.42Z"/>
      <path class="cls-157" d="M112.57,181.48c.06-2.86-.37-5.75,.48-8.55,.31-.5,.61-1,.92-1.5,.1-1.27,1.14-1.77,1.73-2.63,.26-.31,.58-.49,.94-.59,.67-.1,1.29-.03,1.75,.63,.07,3.81,.47,7.68-1.47,11.16-.87,.85-1.87,1.42-2.95,1.84-.51,.12-.99,.05-1.4-.35Z"/>
      <path class="cls-24" d="M115.76,169.3c-.6,.71-1.2,1.42-1.8,2.13-1.08-1.49,.5-1.84,.91-2.68,.45-.48,.42-1.1,.42-1.71,0-9.38,0-18.75,0-28.13,0-.24-.11-.48-.3-1.28-.63,2.08-1.12,3.71-1.61,5.33-1.11-1.49,.74-3.27-.36-4.76-1.17-1.34-1.02-2.77-.2-4.23,.63-2.94,2.12-1.41,3.43-.84,.67,1.3,.49,2.73,.43,4.11-.43,9.43-.1,18.86-.2,28.29-.01,1.32,.01,2.63-.71,3.77Z"/>
      <path class="cls-62" d="M120.37,134.87c.21-.87-.02-1.9,1.12-2.32,4.39-1.6,6.45-5.43,7.45-10.19,.98-1.4,1.73-.62,2.3,.4,.67,1.19,.95,2.52,.53,3.93,.03,.57-.01,1.11-.45,1.5-1.53,3.22-4.72,4.85-6.12,8.19-.38,.66-.35,1.49-.7,2.17-.26,.5-.58,.91-1.12,1.01-.68,.01-1.18-.34-1.62-1.05,.03,8.22,.02,16.35,0,24.47,0,1.3,.12,2.63-.49,3.85-.18,.3-.42,.42-.74,.37-.82-.67-.75-1.68-.75-2.63-.03-9.18,0-18.35-.02-27.53,0-.81,.02-1.58,.6-2.17Z"/>
      <path class="cls-116" d="M113.37,120.2c.03-3.94,2.89-7.22,6.34-7.26,3.08-.03,5.51,2.64,5.55,6.11,.05,3.89-3.32,7.94-6.52,7.85-2.95-.08-5.39-3.13-5.36-6.7Z"/>
      <path class="cls-87" d="M120.37,134.87c.5,4.6,.15,9.23,.18,13.84,.03,5.32-.09,10.65-.15,15.97,0,.87-.14,1.76,.49,2.46-.12,1-.59,.85-1.14,.44-.77-1.24-.62-2.68-.62-4.06-.02-6.91,0-13.82-.02-20.74,0-.92,.18-1.88-.2-2.81-1.58,1.06-1.8,2.7-1.8,4.51,.01,6.74,.02,13.47,0,20.21,0,1.38,.16,2.83-.76,4-.2,.2-.39,.4-.59,.6,.06-11.47,.11-22.94,.18-34.41,0-.59,.2-1.18,.3-1.77,1.05-.05,2.09-.1,3.18-.16-.19,.9-.93,.06-1.1,.78,.7,.14,1.64,.06,2.04,1.12Z"/>
      <path class="cls-145" d="M109.71,138.99c-5.76-4.24-9.35-9.98-9.71-17.91-.05-1.02-.26-2.09,.28-3.05,.35,.23,.5,.6,.6,1.02,.36,1.59,.71,.27,1.06-.01,1.52-1.38,1.5,.61,2.11,1.22-.02,.17-.03,.35-.08,.51-.38,1.35-2.36,1.82-1.74,3.66,.82,2.46,1.19,5.19,2.97,7.12,1.46,1.58,3.02,3.05,4.54,4.56,.67,.98,.72,1.94-.04,2.89Z"/>
      <path class="cls-137" d="M132.13,132.85c3.33-3.61,4.98-7.95,4.75-13.2-.11-2.47-1.21-4.54-1.8-6.81,.68-.95-.25-2.48,.93-3.25,1.68,.57,1.81,2.4,2.39,3.82,.48,1.18,.52,2.52,.91,3.74,.61,6.49-1.04,12.18-4.76,17.16-.88,.62-1.72,.65-2.49-.23-.18-.42-.2-.83,.08-1.22Z"/>
      <path class="cls-158" d="M135.93,109.67c-.29,1.06,.65,2.54-.87,3.17-.8-2.31-2.23-3.95-4.12-5.23-.66-.45-1.45-1.02-1.62-2.07,1.39,.13,2.49-.06,1.8-2.15,.25-.23,.53-.37,.85-.25,1.89,.72,4.13,4.44,3.96,6.54Z"/>
      <path class="cls-26" d="M106,113.93c.61-1.52,1.13-3.11,2.26-4.28-.21,1.37-.4,2.74-.63,4.1-.1,.58-.48,1.22,.23,1.58,.61,.31,1.01-.26,1.43-.63,.83-.72,1.18-2.05,2.36-2.32-.65,2.17-2.41,3.8-2.42,6.29-1.8,1.02-2.6-.46-3.46-1.77-.45-1.04-.01-2,.23-2.97Z"/>
      <path class="cls-164" d="M109.71,138.99c.01-.96,.03-1.93,.04-2.89,1.19-.4,1.52-2.37,3.06-2.14,.07,1.41,.14,2.82,.2,4.23-.52,2.64-.61,2.67-3.18,1.08-.05-.09-.1-.18-.13-.29Z"/>
      <path class="cls-16" d="M106,113.93c.41,.89-.32,1.75-.07,2.63,.25,2.24,1.88,2.27,3.31,2.64v2.9c-4.25-1.5-5.42-2.58-4.2-6.49,.32-.56,.63-1.12,.95-1.68Z"/>
      <path class="cls-178" d="M132.13,132.85c.02,.37,.04,.74,.06,1.11,.51,1.91-.85,2.55-1.86,2.44-1.38-.15-2.76,.29-4.11-.1-.06-2.18,1.29-3.87,3.6-4.51,.24,1.82,1.75,.12,2.31,1.06Z"/>
      <path class="cls-94" d="M131.77,126.69c-.5-1.82,.19-4.61-2.84-4.33,.28-1.43-.44-3.87,1.29-3.94,2.01-.08,1.4,2.5,1.63,3.98,.21,1.39,.91,2.89-.08,4.29Z"/>
      <path class="cls-110" d="M129.81,131.79c-1.27,1.42-2.55,2.84-3.82,4.26-.45,.46-.89,.46-1.33-.02,1.47-3.42,4.26-5.42,6.66-7.84-.07,1.43-1,2.4-1.51,3.6Z"/>
      <path class="cls-38" d="M109.24,119.2c-2.53,.57-3.7-.36-3.31-2.64,1.07,.77,1.82,2.15,3.29,2.11,0,.18,.01,.35,.02,.53Z"/>
      <path class="cls-173" d="M104.06,120.25c-.92,.32-.73-1.79-1.83-1.05-.26-1.89-.21-3.6,1.83-4.23,0,0,.04,.04,.04,.04-.01,1.75-.02,3.5-.03,5.25Z"/>
      <path class="cls-181" d="M104.05,114.96c-1.37,.99-.79,3.05-1.83,4.23-.06,.42-.06,.86-.2,1.25-.2,.57-.59,1.17-1.14,1.09-.72-.09-.51-.91-.55-1.46-.04-.68-.04-1.37-.05-2.05-.14-2.58,.57-4.87,1.88-6.96,.06,.83,.12,1.66,.19,2.54,1.29-.17,1.56-1.71,2.64-1.81-.31,1.06-.63,2.11-.94,3.17Z"/>
      <path class="cls-120" d="M158.89,111.29c.81,4.38,.99,8.87,.35,13.21-.46,3.16-1.37,6.32-3.03,9.19-1.72,2.98-2.84,6.4-4.83,9.22-3.65,5.19-7.38,10.24-11.71,14.83-3.67,3.89-6.03,9.21-8.53,14.27-1.57,3.19-1.39,6.68-2.6,9.83-.25,.65-.4,1.32-1.01,1.68-1.01-.93-.75-2.21-.75-3.42-.12-.86-.03-1.7,.2-2.53,.43-.89,.86-1.78,.99-2.82,.07-.24,.17-.47,.28-.69,.49-6.19,4.39-10.37,7.06-15.29,1.92-3.54,4.18-6.63,7.13-9.11-.14-1.76,1.17-2.51,1.98-3.61,.63-.85,1.54-1.45,1.83-2.61,.55-.92,1.08-1.85,1.82-2.61,2.46-3.75,4.04-8.09,5.91-12.18,2.19-4.8,2.28-10.26,1.43-15.65-1.36-8.57-5.44-15.52-10.24-22.05-.72-.97-1.77-1.83-1.27-3.4,0-2.41-.94-4.56-1.41-6.85,3.16,5.6,7.38,10.28,10.69,15.77,2.77,4.59,4.24,9.66,5.71,14.8Z"/>
      <path class="cls-138" d="M143.9,87.57c2.03,3.08,4,6.22,6.11,9.22,2.86,4.05,4.33,8.78,5.62,13.64,1.4,5.28,.91,10.49,.1,15.82-.4,2.58-1.88,4.17-2.92,6.15-.48,.92-.72,1.78-1.01,2.75-.71,2.39-2.35,4.2-3.68,6.2-.26-.36-.28-.73-.05-1.11-.03-.99,.2-1.85,.92-2.51,.77-.7,1.08-1.62,1-2.72,.51-2.25,1.62-4.35,1.42-6.79-.08-1.3,.56-2.32,1.04-3.41,.25-.44,.56-.85,.59-1.41,.43-7.86,.17-15.62-3.85-22.44-2.48-4.21-5.38-8.11-8.2-12.06-2.19-3.07-4.25-6.25-6.29-9.45-.68-1.07-1.2-2.25-1.32-3.6-.1-1.55-1.07-3.15,.23-4.61,.81,.46,1.09,1.34,1.53,2.17,2.65,4.94,4.66,10.39,8.78,14.17Z"/>
      <path class="cls-61" d="M133.59,71.23c-.21,1.63,.34,3.16,.47,4.75-1.11,.28-1.44-.74-1.91-1.49-2.28-3.64-3.54-7.83-5.1-11.86-.28-2.83-.27-5.66-.23-8.5,.01-1.03-.06-2.09,.68-2.9,.31-.54,.97-.82,.95-1.61,1.39,1.41,.8,3.72,1.87,5.28-.32,5.81,1.84,10.98,3.28,16.34Z"/>
      <path class="cls-177" d="M125.63,48.57V29.49c.31,0,.61,0,.92-.01v19.08c-.31,.31-.61,.31-.92,0Z"/>
      <path class="cls-177" d="M127.49,51.22c0,4.03,.02,8.07,.03,12.1,.42,.78,.7,1.59,.34,2.5-.3,.54-.68,.9-1.3,.67,0-1.75-.01-3.51-.02-5.26-.71-3.35-.75-6.7,.03-10.05,.31,.01,.61,.03,.92,.04Z"/>
      <path class="cls-125" d="M126.57,51.18c0,3.35-.02,6.7-.03,10.05-.81,.65-.09,1.98-.92,2.62,0-2.82-.02-5.64-.03-8.47,.01-2.27,.02-4.54,.03-6.81,.31,0,.61,0,.92,0,0,.87,.01,1.74,.02,2.62Z"/>
      <path class="cls-125" d="M125.62,67.54c0,5.62,0,11.24-.01,16.86-1-3.02-.36-6.15-.39-9.22-.03-2.54-.57-5.16,.4-7.65Z"/>
      <path class="cls-121" d="M126.56,66.49c.31-.17,.62-.35,.93-.52,1.11,1.81,1.43,4.01,2.14,5.99,2.34,6.54,6.51,11.44,10.61,16.5,4.66,5.74,9.39,11.53,11.76,19.01,.75,2.38,1.49,4.97,1.28,7.66-.26,3.28,.53,6.63-.47,9.86,.23,1.26-.89,2.01-.94,3.16-.32,.31-.63,.31-.94,0-.61-1.23-.55-2.53-.34-3.84,.97-6.17,.24-12.1-1.89-17.87-1.49-4.04-3.74-7.48-6.31-10.71-2.26-2.84-4.63-5.58-6.89-8.39-1.77-2.2-4.08-3.31-5.87-5.36-2.17-2.46-2.58-5.41-2.99-8.4-.32-2.31-.07-4.73-.07-7.09Z"/>
      <path class="cls-11" d="M124.72,193.98c-.31,1.76,.42,3.66-.51,5.34-1.71,.54-1.96-.88-2.13-2.15-.27-1.98-.15-3.99-.12-5.99,.05-2.62-.09-5.21-.83-7.72-.19-1.49-.58-2.97-.3-4.5,.57-1.8,1.36-3.5,2.18-5.14,.84-1.69,1.12-3.38,.96-5.23-.09-1.19-.18-2.38,.68-3.32,.32-.12,.43,.11,.51,.39,.82,.89,.64,2.06,.67,3.16,.06,2.06-.19,4.14,.41,6.15,.25,1.75,.29,3.5,.06,5.25-.03,.48-.05,.96-.2,1.41-1.29,2.69-.53,5.6-.74,8.41-.1,1.34,.35,2.8-.65,3.95Z"/>
      <path class="cls-139" d="M142.45,149.67c-3.1,4.04-5.78,8.39-8.42,12.82-2.09,3.5-4.62,6.53-4.69,11.03,0,.62-.39,.91-.91,1-1.28-1.66-1.07-3.66-.58-5.42,.69-2.51,1.22-4.98,1.11-7.61-.02-.45,.19-.83,.44-1.17,3.6-2.9,7.42-5.48,10.48-9.16,.7-.84,1.43-1.62,2.57-1.49Z"/>
      <path class="cls-69" d="M129.39,160.33c.65,4.82-1.39,9.41-.97,14.2,0,0,0,0,0,0-.75,.7-.19,1.94-.88,2.67-.02,.86-.04,1.73-.06,2.59-.44,.93-1.02,1.24-1.85,.57-.05-1.78-.09-3.55-.14-5.33-.1-3.14-.32-6.28,.13-9.4,1.13-.12,.68,1.42,1.47,1.78,.95-1.34,1.45-2.77,1.37-4.52-.04-.92-.49-2.23,.93-2.55Z"/>
      <path class="cls-72" d="M121.47,178.73c-.2,1.45,.07,2.85,.39,4.24-1.92-.22-1.58-2.48-2.56-3.56,.7-3.53,.95-7.02-.65-10.37-.11-.51-.96-.87-.32-1.52,.53-.53,1.13-.38,1.69,.02,.36,.06,.67-.02,.87-.41,.04-.19,.08-.38,.11-.57,.91-.86,1.84-1.65,3.11-1.66,.16-.08,.33-.15,.49-.23,.01,.19,.03,.38,.04,.58,.01,1.16,.03,2.32,.04,3.49-.84,3.42-2.76,6.41-3.23,9.99Z"/>
      <path class="cls-81" d="M150.92,128.15c.31,0,.63,0,.94,0,.03,2.51-.11,4.96-1.89,6.84-.55-2.43,1.18-4.47,.94-6.85Z"/>
      <path class="cls-105" d="M125.62,165.63c-.04,3.13-.09,6.27-.13,9.4-.74-3.1-.15-6.26-.33-9.38,.15-.04,.3-.05,.46-.02Z"/>
      <path class="cls-148" d="M148.07,140.22c.02,.37,.03,.74,.05,1.11-.31,1.05-.85,1.85-1.87,2.12-.15-1.62,.51-2.65,1.82-3.23Z"/>
      <path class="cls-17" d="M124.12,164.91c-.8,1.11-1.9,1.52-3.11,1.66,0-10.37,0-20.75,0-31.12,1.19,1.18,.58,3.55,2.67,3.78,1.13,1.04,.79,2.57,1.04,3.92-.06,.44-.21,.82-.55,1.07-.4,6.9-.42,13.8-.05,20.7Z"/>
      <path class="cls-34" d="M135.93,109.67c-1.1-2.58-2.42-4.95-4.8-6.29-.81-.52-.89-1.81-1.81-2.21,.09-.73,.57-.95,1.13-1.07,2.02,0,2.36,2.69,4.07,3.19,1.1,.84,1.67,2.16,2.41,3.33,.6,.95,1.2,1.89,1.79,2.84,1.07,1.74,1.63,3.65,1.52,5.78,0,1.28-.16,2.4-1.71,1.92-.72-2.56-.98-5.32-2.59-7.49Z"/>
      <path class="cls-39" d="M138.52,117.16c1.35-.16,1.1-1.38,1.24-2.35,1.96,2.51,1.32,5.38,.86,8.21-.17,1.07-.75,2.06-.48,3.21-.05,.15-.13,.27-.25,.35-1.11,.69-.14,2.56-1.41,3.16,.11,.77-.18,1.35-.69,1.82-.8,2.07-1.6,4.14-3.57,5.2-.34-.46-.81-.66-1.29-.85-.36-1.17,.9-1.2,1.09-1.98,3.42-4.94,5.14-10.46,4.48-16.78Z"/>
      <path class="cls-44" d="M140.15,126.23c-.75-.76-.23-1.6-.13-2.43,.38-3.01,.8-6.03-.26-8.99,.31-1.95-1.08-3.48-1.05-5.35,2.56,2.14,2.15,5.54,2.75,8.47,.59,2.88-.29,5.65-1.31,8.31Z"/>
      <path class="cls-29" d="M124.17,144.21c.02-.21,.04-.42,.05-.64,.13-.22,.28-.42,.46-.59,2.36-.75,4.23-2.77,6.68-3.27,.37,.07,.69,.24,.9,.61-1.71,3.49-4.75,4.1-7.85,4.56-.06,0-.16-.44-.25-.67Z"/>
      <path class="cls-1" d="M132.26,140.33c-.41-.02-.81-.05-1.22-.07,.27-1.97,1.04-3.43,2.97-3.75,1.9-1.03,2.32-3.5,3.8-4.94-.5,4-2.96,6.44-5.55,8.76Z"/>
      <path class="cls-32" d="M136.93,106.62c-1.19-.76-1.96-1.9-2.41-3.33,1.18,.21,1.91,1.06,2.45,2.18-.01,.38-.03,.77-.04,1.15Z"/>
      <path class="cls-1" d="M138.5,129.75c.39-1.1,.19-2.53,1.4-3.16-.51,1.03,.58,2.96-1.4,3.16Z"/>
      <path class="cls-135" d="M110.18,202.48c.69,0,1.24-.24,1.4-1.09,1.47-2.17,3.62-2.46,5.8-2.66,.22,.05,.43,.15,.62,.28,.27,1.25,1.85,1.03,2.08,2.32-1.25,.38-2.61-.28-3.81,.52-.59,.17-1.19,.34-1.78,.53-4.63,1.49-4.97,2.02-4.72,7.39-1.3-1.55-.27-3.4-.51-5.09,.49-.63,.79-1.37,.92-2.19Z"/>
      <path class="cls-49" d="M118.11,201.98c.96-.07,2.07-.28,1.22,1.51-.38,.81-.29,1.69-.25,2.54,.06,1.21-.35,1.81-1.47,1.64-.67-1.99-.75-3.92,.51-5.69Z"/>
      <path class="cls-168" d="M120.08,201.33c-.52-.53-1.19-.27-1.77-.44-1.35-.37-.67-.93-.08-1.46,.13-.4,.41-.62,.73-.79,1.2-.28,1.31-1.28,1.3-2.41-.02-2.1-.05-4.21,.01-6.31,.06-2.16-.12-4.06-2.37-4.76-.56-.17-1.07-.72-.75-1.38,.64-1.31-.27-2.57,.08-3.83,.14-.24,.32-.42,.54-.55,.64-.26,1.24-.24,1.74,.36,1.97-.03,.97,2.69,2.35,3.21,1.64,4.46,.84,9.16,1.08,13.75,.06,1.11-.24,2.4,1.27,2.6,.54,.66,1.56,1.24,1.06,2.26-.36,.73-1.23,.12-1.89,.04-.82-.11-1.66-.06-2.49-.08-.27-.07-.54-.15-.81-.22Z"/>
      <path class="cls-139" d="M125.63,180.36c.67,.03,1.28-.17,1.85-.57,.02,1.24,.03,2.49,.05,3.73-.02,3.49-.05,6.99-.04,10.48,0,1.17-.1,2.26-.81,3.18-.07-1.02-.14-2.03-.22-3.05-.95-.9-1.4-2-1.32-3.44,.18-3.13-.33-6.3,.4-9.4,.03-.31,.06-.62,.09-.94Z"/>
      <path class="cls-112" d="M125.54,181.29c.02,2,.08,4.01,.03,6-.06,2.35,.03,4.65,.89,6.84-.58-.05-1.16-.1-1.74-.15,0-3.07,0-6.14,.01-9.21,0-1.24,.04-2.47,.81-3.48Z"/>
      <path class="cls-47" d="M83.45,135.01c.54-.05,1.1-.02,1.62-.18,.84-.25,1.19-.06,1.04,.99-.39,2.73,.53,4.98,1.78,7.3,2.02,3.73,3.53,7.87,6.22,11.06,3.86,4.58,6.91,9.87,10.53,14.66,2.6,3.45,4.2,7.87,4.56,12.62,.09,1.21,.31,2.42,.47,3.62-.72-.41-.85-1.12-.94-1.96-.61-5.66-3.03-10.4-6.18-14.7-1.27-1.74-2.3-3.78-4.12-4.96-3.23-5.11-6.88-9.97-9.56-15.43-2.04-4.16-4.75-8.11-5.43-13.04Z"/>
      <path class="cls-131" d="M117.56,199.21c-2.13,.26-4,1.41-5.98,2.18-.25-2.47,1.03-4.79,.53-7.28,.62-1.56,.15-3.25,.47-4.84,.1-1.89,.49-3.32,2.61-3.51,2.29-.21,3.25,.49,3.07,3.13-.2,2.98-.38,5.94,0,8.91,.08,.65,.01,1.24-.69,1.41Z"/>
      <path class="cls-35" d="M117.56,199.21c-.41-3.57-.6-7.13-.01-10.7,.13-.83,.22-2.05-.81-2.08-1.31-.04-2.85-.3-3.69,1.4-.22,.44-.32,.96-.48,1.44,.01-.88,.02-1.75,.03-2.62,.17-.89,.54-1.57,1.33-1.98,2.69-1.37,6.51,1.23,6.53,4.5,.01,2.52-.02,5.05,.01,7.57,.02,1.24-.17,2.26-1.42,2.57-.28,.04-.55,.09-.83,.13-.22-.08-.45-.15-.67-.23Z"/>
      <path class="cls-28" d="M119.06,199.31c.75-.63,.97-1.46,.94-2.51-.06-2.45,0-4.9,0-7.35,.01-3.32-.28-3.74-3.17-4.18-1.57-.24-3.1-.2-4.22,1.38,0-1.53,0-3.05,0-4.58,.66,.27,1.03-.05,1.21-.77,.82-.49,1.63-.99,2.45-1.48,.47-.37,.94-.43,1.41,0q.84,2.71-.19,4.48c2.97,.43,3.65,2.58,3.47,5.54-.15,2.43-.07,4.87-.04,7.31,.02,1.47-.34,2.41-1.85,2.15Z"/>
      <path class="cls-35" d="M113.81,181.3c0,.82,.26,1.71-.46,2.36-.81-.22-.02-1.36-.75-1.6-.01-.2-.02-.39-.03-.59,.41-.06,.83-.12,1.24-.18Z"/>
      <path class="cls-102" d="M120.03,167.55c.04,.85-1.88-.72-1.06,1.09-.1,.21-.25,.34-.45,.39-.2-.02-.38-.11-.54-.26-.54-.02-1.09-.05-1.63-.07-.02-8.85-.06-17.7-.06-26.55,0-2.11,2.17-2.78,2.58-4.73,.1-.49,.98-.08,1.07,.69,.07,.69,.07,1.4,.07,2.1,.01,9.11,.02,18.23,.04,27.34Z"/>
      <path class="cls-6" d="M117.98,168.77c.17-.03,.34-.05,.52-.08,1.06,.57,1.38,1.62,1.36,2.82-.04,2.01-.12,4.03-.1,6.04,.01,1.61-.96,2.02-2.12,2.2l.03,.08c-.47,0-.94,0-1.41,0,1.54-1.43,.91-3.57,1.3-5.35,.4-1.83,.3-3.8,.42-5.71Z"/>
      <path class="cls-12" d="M124.68,143.46c-.15,.04-.31,.07-.46,.11-.58-1.39-.4-2.89-.54-4.35,.14-.41-.03-.96,.44-1.23,1.47-1.98,4.47-2.21,6.48-.51,.3,1.82-.84,2.61-1.95,3.4-1.29,.91-2.81,1.38-3.97,2.57Z"/>
      <path class="cls-171" d="M130.28,138.29c-1.11-1.54-3.95-1.67-6.16-.29-.06-.74-.08-1.47,.54-1.97,.44,0,.89,.01,1.33,.02,1.4-.19,2.67-1.57,4.28-.24,.39,.32,1.64-.7,1.92-1.84,.62,.02,1.24,.46,1.85-.02-.33,.67-.65,1.33-.98,2-.55,1.36-.99,2.87-2.79,2.35Z"/>
      <path class="cls-169" d="M123.15,119.33c-.03,2.62-1.9,4.87-4.01,4.84-2.24-.03-3.76-1.84-3.69-4.4,.06-2.25,2.29-4.73,4.24-4.69,2.21,.04,3.49,1.62,3.47,4.26Z"/>
      <path class="cls-139" d="M127.54,177.2c.12-.96-.53-2.24,.88-2.67-.13,.96,.5,2.23-.88,2.67Z"/>
      <path class="cls-75" d="M152.8,124.99c0-2.11-.07-4.21,0-6.32,.31-8.61-2.66-15.84-7.42-22.29-2.96-4.01-6.2-7.75-9.28-11.64-2.86-3.61-5.52-7.43-7.01-12.19-.68-2.19-1.98-4.09-1.61-6.59,.01-.88,.02-1.76,.03-2.65,1.14,.57,1.38,1.8,1.73,2.95,1.07,3.57,2.77,6.74,4.81,9.7,.3,2.2,1.66,3.75,2.77,5.4,4.16,6.19,8.56,12.19,12.53,18.53,2.69,4.28,4.29,9.2,4.37,14.58,.04,2.81,.02,5.62,0,8.43,0,.85,.18,1.84-.93,2.08Z"/>
      <path class="cls-86" d="M121.47,178.73c.07-2.63-.16-5.36,1.9-7.33,.73-.7-.18-2.44,1.32-2.65,.48,3.96-1.75,6.82-3.23,9.99Z"/>
      <path class="cls-13" d="M117.63,179.75c.92-.55,1.52-1.21,1.45-2.59-.09-1.8-.13-3.63,.35-5.41,.33-1.22-.31-2.16-.93-3.06,.16-.02,.32-.03,.47-.05,1.84,2.43,2.13,8.41,.54,11.13-.63,0-1.25-.01-1.88-.02Z"/>
      <path class="cls-166" d="M130.28,138.29c1.22-.34,1.75-1.73,2.79-2.35,.4,.02,1-.4,.94,.57-.99,1.25-1.98,2.5-2.96,3.75-2.03,1.29-3.94,2.9-6.36,3.2-.3-1.28,.69-1.33,1.31-1.77,1.48-1.05,3.28-1.61,4.29-3.41Z"/>
    </g>
  </g>
</svg>