<?xml version="1.0" encoding="UTF-8"?>
<svg id="Layer_2" data-name="Layer 2" xmlns="http://www.w3.org/2000/svg" viewBox="0 0 290 290">
  <defs>
    <style>
      .cls-1 {
        fill: #581f20;
      }

      .cls-2 {
        fill: #50100e;
      }

      .cls-3 {
        fill: #aa0809;
      }

      .cls-4 {
        fill: #181d1f;
      }

      .cls-5 {
        fill: #480f0e;
      }

      .cls-6 {
        fill: #9aa;
      }

      .cls-7 {
        fill: #611f1d;
      }

      .cls-8 {
        fill: #e6f1f2;
      }

      .cls-9 {
        fill: #2c2323;
      }

      .cls-10 {
        fill: #581515;
      }

      .cls-11 {
        fill: #4d78a2;
      }

      .cls-12 {
        fill: #ab0a0a;
      }

      .cls-13 {
        fill: #6d757f;
      }

      .cls-14 {
        fill: #761713;
      }

      .cls-15 {
        fill: #5f6968;
      }

      .cls-16 {
        fill: #788588;
      }

      .cls-17 {
        fill: #c9eff6;
      }

      .cls-18 {
        fill: #f04444;
      }

      .cls-19 {
        fill: #4f6bb8;
      }

      .cls-20 {
        fill: #ed0c0d;
      }

      .cls-21 {
        fill: #705860;
      }

      .cls-22 {
        fill: #b80b07;
      }

      .cls-23 {
        fill: #9d0303;
      }

      .cls-24 {
        fill: #b3cbd2;
      }

      .cls-25 {
        fill: #15477d;
      }

      .cls-26 {
        fill: #a7b7b9;
      }

      .cls-27 {
        fill: #dd0e0c;
      }

      .cls-28 {
        fill: #47525a;
      }

      .cls-29 {
        fill: #870b0c;
      }

      .cls-30 {
        fill: #bf0e09;
      }

      .cls-31 {
        fill: #f8f8f5;
      }

      .cls-32 {
        fill: #7b2c2d;
      }

      .cls-33 {
        fill: #252423;
      }

      .cls-34 {
        fill: #4f9196;
      }

      .cls-35 {
        fill: #949fa6;
      }

      .cls-36 {
        fill: #680c0b;
      }

      .cls-37 {
        fill: #560909;
      }

      .cls-38 {
        fill: #95a5a8;
      }

      .cls-39 {
        fill: #698e93;
      }

      .cls-40 {
        fill: #bc0d08;
      }

      .cls-41 {
        fill: #511e1c;
      }

      .cls-42 {
        fill: #786273;
      }

      .cls-43 {
        fill: #220c0d;
      }

      .cls-44 {
        fill: #6f1416;
      }

      .cls-45 {
        fill: #f6fbfa;
      }

      .cls-46 {
        fill: #e37f7f;
      }

      .cls-47 {
        fill: #80100e;
      }

      .cls-48 {
        fill: #111017;
      }

      .cls-49 {
        fill: #adc1ce;
      }

      .cls-50 {
        fill: #7b91a4;
      }

      .cls-51 {
        fill: #606b81;
      }

      .cls-52 {
        fill: #bb1611;
      }

      .cls-53 {
        fill: #793835;
      }

      .cls-54 {
        fill: #2b1616;
      }

      .cls-55 {
        fill: #445d85;
      }

      .cls-56 {
        fill: #8c2422;
      }

      .cls-57 {
        fill: #3c273b;
      }

      .cls-58 {
        fill: #bc1731;
      }

      .cls-59 {
        fill: #080606;
      }

      .cls-60 {
        fill: #f3f4f5;
      }

      .cls-61 {
        fill: #aa1b17;
      }

      .cls-62 {
        fill: #d8e7ec;
      }

      .cls-63 {
        fill: #e4ada5;
      }

      .cls-64 {
        fill: #181e20;
      }

      .cls-65 {
        fill: #461816;
      }

      .cls-66 {
        fill: #de1510;
      }

      .cls-67 {
        fill: #342221;
      }

      .cls-68 {
        fill: #847b76;
      }

      .cls-69 {
        fill: #dd0405;
      }

      .cls-70 {
        fill: #594952;
      }

      .cls-71 {
        fill: #d7d7d7;
      }

      .cls-72 {
        fill: #2e3958;
      }

      .cls-73 {
        fill: #9d574c;
      }

      .cls-74 {
        fill: #bf0e08;
      }

      .cls-75 {
        fill: #b7100c;
      }

      .cls-76 {
        fill: #45526c;
      }

      .cls-77 {
        fill: #72201f;
      }

      .cls-78 {
        fill: #ea0505;
      }

      .cls-79 {
        fill: #d7edee;
      }

      .cls-80 {
        fill: #101415;
      }

      .cls-81 {
        fill: #ce0805;
      }

      .cls-82 {
        fill: #7e0406;
      }

      .cls-83 {
        fill: #2a3136;
      }

      .cls-84 {
        fill: #242229;
      }

      .cls-85 {
        fill: #606869;
      }

      .cls-86 {
        fill: #304e7d;
      }

      .cls-87 {
        fill: #b30507;
      }

      .cls-88 {
        fill: #a27065;
      }

      .cls-89 {
        fill: #744231;
      }

      .cls-90 {
        fill: #b0b8ba;
      }

      .cls-91 {
        fill: #ccdae1;
      }

      .cls-92 {
        fill: #4f3032;
      }

      .cls-93 {
        fill: #2c0d0b;
      }

      .cls-94 {
        fill: #bbc2cb;
      }

      .cls-95 {
        fill: #c30d05;
      }

      .cls-96 {
        fill: #7c787c;
      }

      .cls-97 {
        fill: #4a4e4e;
      }

      .cls-98 {
        fill: #f91f1f;
      }

      .cls-99 {
        fill: #690e0e;
      }

      .cls-100 {
        fill: #130d11;
      }

      .cls-101 {
        fill: #141819;
      }

      .cls-102 {
        fill: #f70606;
      }

      .cls-103 {
        fill: #8599a1;
      }

      .cls-104 {
        fill: #da2324;
      }

      .cls-105 {
        fill: #858eb6;
      }

      .cls-106 {
        fill: #788392;
      }

      .cls-107 {
        fill: #702b28;
      }

      .cls-108 {
        fill: #713b3c;
      }

      .cls-109 {
        fill: #40507a;
      }

      .cls-110 {
        fill: #bbcbd1;
      }

      .cls-111 {
        fill: #574952;
      }

      .cls-112 {
        fill: #8c2b3e;
      }

      .cls-113 {
        fill: #a51903;
      }

      .cls-114 {
        fill: #3a0909;
      }

      .cls-115 {
        fill: #c0e4e9;
      }

      .cls-116 {
        fill: #dee5e8;
      }

      .cls-117 {
        fill: #2a4a79;
      }

      .cls-118 {
        fill: #78808e;
      }

      .cls-119 {
        fill: #bb4344;
      }

      .cls-120 {
        fill: #8a0f0b;
      }

      .cls-121 {
        fill: #d50c07;
      }

      .cls-122 {
        fill: #f60606;
      }

      .cls-123 {
        fill: #495252;
      }

      .cls-124 {
        fill: #ac0f13;
      }

      .cls-125 {
        fill: #f11917;
      }

      .cls-126 {
        fill: #912524;
      }

      .cls-127 {
        fill: #860a08;
      }

      .cls-128 {
        fill: #0e1213;
      }

      .cls-129 {
        fill: #760808;
      }

      .cls-130 {
        fill: #b20b0b;
      }

      .cls-131 {
        fill: #f7f9f9;
      }

      .cls-132 {
        fill: #7e1c1a;
      }

      .cls-133 {
        fill: #bec8c8;
      }

      .cls-134 {
        fill: #508a92;
      }

      .cls-135 {
        fill: #75736d;
      }

      .cls-136 {
        fill: #fc0902;
      }

      .cls-137 {
        fill: #510c0b;
      }

      .cls-138 {
        fill: #a40d08;
      }

      .cls-139 {
        fill: #a10905;
      }

      .cls-140 {
        fill: #760c08;
      }

      .cls-141 {
        fill: #e7eded;
      }

      .cls-142 {
        fill: #a70906;
      }

      .cls-143 {
        fill: #453133;
      }

      .cls-144 {
        fill: #743f40;
      }

      .cls-145 {
        fill: #280809;
      }

      .cls-146 {
        fill: #8d949f;
      }

      .cls-147 {
        fill: #2d1918;
      }

      .cls-148 {
        fill: #c40906;
      }

      .cls-149 {
        fill: #343a3c;
      }

      .cls-150 {
        fill: #fae9df;
      }

      .cls-151 {
        fill: #45575f;
      }

      .cls-152 {
        fill: #9e1714;
      }

      .cls-153 {
        fill: #39191a;
      }

      .cls-154 {
        fill: #2a3f63;
      }

      .cls-155 {
        fill: #661311;
      }

      .cls-156 {
        fill: #6d1716;
      }

      .cls-157 {
        fill: #ecefee;
      }

      .cls-158 {
        fill: #6f080a;
      }

      .cls-159 {
        fill: #040505;
      }

      .cls-160 {
        fill: #fc2807;
      }

      .cls-161 {
        fill: #8e7488;
      }

      .cls-162 {
        fill: #0a0d0e;
      }

      .cls-163 {
        fill: #5f0205;
      }

      .cls-164 {
        fill: #c50e10;
      }

      .cls-165 {
        fill: #fa0502;
      }

      .cls-166 {
        fill: #a5a29e;
      }

      .cls-167 {
        fill: #303133;
      }

      .cls-168 {
        fill: #161e23;
      }

      .cls-169 {
        fill: #0b0d0b;
      }

      .cls-170 {
        fill: #903d30;
      }

      .cls-171 {
        fill: #730b0c;
      }

      .cls-172 {
        fill: #8e1714;
      }

      .cls-173 {
        fill: #2c0c0b;
      }

      .cls-174 {
        fill: #933132;
      }

      .cls-175 {
        fill: #fa9c93;
      }

      .cls-176 {
        fill: #4d2221;
      }

      .cls-177 {
        fill: #de2120;
      }

      .cls-178 {
        fill: #240d0c;
      }

      .cls-179 {
        fill: #b05967;
      }

      .cls-180 {
        fill: #0b0e15;
      }

      .cls-181 {
        fill: #510505;
      }

      .cls-182 {
        fill: #ac2d2d;
      }

      .cls-183 {
        fill: #be0d0d;
      }

      .cls-184 {
        fill: #cad8dc;
      }

      .cls-185 {
        fill: #ca6a6a;
      }
    </style>
  </defs>
  <g id="Layer_2-2" data-name="Layer 2">
    <g>
      <path class="cls-159" d="M289.95,177.28c0,36.8-.02,73.6,.05,110.4,0,1.94-.38,2.32-2.32,2.32-95.12-.06-190.24-.06-285.36,0-1.94,0-2.32-.38-2.32-2.32,.07-44.16,.05-88.32,.05-132.48,2.59-1.26,3.46-1.06,4.84,1.19,.35,.56,.56,1.29,1.21,1.51,2.84,.91,2.97,3.12,2.64,5.49-.26,1.93,.39,3.07,2.34,3.49,1.35,.29,2.55,.99,2.96,2.37,1.07,3.53,3.74,5.77,6.24,8.17,.2,.2,.51,.34,.61,.58,.97,2.35,2.91,3.6,4.86,5.1,1.94,1.49,3.92,3.23,5.44,5.27,1.27,1.71,2.83,2.71,4.98,2.74,1.88,.03,3.26,.8,3.88,2.68,.06,.18,.12,.45,.24,.5,3.1,1.1,4.08,4.59,6.9,6.07,2.52,1.32,4.24,3.69,6.17,5.68,1.55,1.6,2.99,2.69,5.27,2.72,1.59,.02,3.16,.49,4.77,.47,1.83-.03,3.27,.6,4.34,2.15,1.43,2.07,3.27,2.63,5.64,1.52,2-.93,3.91-.04,5.68,.8,1.25,.59,1.51,1.63,.35,2.71-.53,.49-1.41,.93-.82,1.81,.47,.69,1.58,.84,2.05,.45,2.79-2.31,5.67-.49,8.52-.43,2.22,.05,3.99,.74,5.97,1.89,2.94,1.72,6.43,2.61,9.85,3.18,2.32,.39,4.15,1.2,4.99,3.53,.48,1.33,1.08,1.38,2.3,.63,3.45-2.15,5.87-1.01,6.32,2.94,.27,2.34,1.48,4.21,2.59,6.15,2.24,3.37,2.72,7.54,5.05,10.91,1.49,2.16,2.63,4.57,4.33,6.61,.64,.76,.42,1.78,.51,2.71,.11,1.05-.45,2.3,.77,3.06,1.51-.22,.77-1.41,.88-2.16,.16-1.09-.06-2.24,.44-3.27,.4-.83,.95-1.17,1.61-.17,.47,.97,.56,2.02,.49,3.04-.47,6.19,.16,12.38,.01,18.56-.04,1.52-.13,3.02-1.22,4.23-.61,.62-.94,1.35-1.06,2.23-.39,2.96,.24,3.74,3.2,3.84,1.97,.07,3.94-.09,5.91,.12,.91-.08,1.81-.16,2.72,0,.44,.02,.89-.06,1.33-.01,2.58-.41,5.27-.1,7.75-1.16,1.15-1.38,.99-3,.82-4.61-1-1.75-2.12-.06-3.18-.12-.44,.09-.87,.09-1.31,0-.47-.14-.85-.38-1.07-.83-.44-1.63,.65-2.44,1.76-3.15,1.6-1.02,2.14-2.43,2.14-4.27,0-3.74-.2-7.5,.18-11.24,.03-.48,.12-.94,.34-1.37,.4-.67,.91-1.26,1.43-1.83,1.43-1.1,1.39-2.69,1.47-4.26,.1-2.01-.33-4.07,.59-6,2.63-3.68,6.57-5.86,10-8.61,1.71-1.37,3.94-2.09,5.98-2.42,4.08-.65,8.07-1.7,12.15-2.24,1.77-.23,3.55-.23,5.28-.81,1.77-.59,3.5-.14,5.27,.28,2.75,.65,5.58,1.31,7.6-1.73,.74-1.11,2.12-1.23,3.35-1.16,4,.23,7.8-1.35,11.78-1.26,1.05,.02,1.73-.58,2.23-1.47,1.25-2.23,3.29-2.96,5.71-2.96,1.13,0,2.26-.06,3.39,0,2.18,.1,4.01-.17,5.16-2.49,.88-1.77,2.82-2.08,4.68-2.03,1.84,.05,2.8-1.02,4.16-2.16,3.25-2.72,5.18-7.75,10.73-7,.45,.06,1.12,.03,1.34-.32,1.43-2.29,4.15-3.29,5.62-5.36,1.38-1.96,2.89-2.83,5.14-2.73,1.95,.08,3.55-.38,4.21-2.5,.17-.53,.48-1.18,.98-1.34,3.07-.97,4.5-3.91,6.61-5.89,2.02-1.89,3.92-4.18,5.9-6.23,2.45-2.53,4.72-4.93,4.43-8.79-.04-.49,.42-1.06,1.16-.92Z"/>
      <path class="cls-128" d="M120.65,237.29c-1.22-2.28-2.98-4.31-2.87-7.16,.05-1.24-.39-2.53-1.79-2.9-1.32-.34-2.43-.11-3.44,1.18-1.6,2.04-2.58,1.75-3.19-.83-.55-2.31-1.93-3.27-4.22-3.32-3.53-.08-6.45-2.62-10.02-2.6-2.45-4.47-7.75-.91-10.78-3.8-.32-.31-.81-.09-.93,.27-.68,2.23-2.52,1.51-4.02,1.6-1.11,.07-2.12-.18-2.28-1.54-.13-1.12,.08-2.08,1.4-2.38,.43-.1,1.05-.06,1.04-.71-.01-.7-.59-.92-1.17-.97-2.01-.19-3.81-1.37-6.08,.14-2,1.34-4.11-.26-5.16-2.15-.95-1.7-2.1-2.05-3.86-2.06-2.43-.01-4.86-.35-7.29-.56-1.05-.09-1.82-.76-2.23-1.57-.82-1.58-2.2-2.44-3.49-3.53-1.71-1.44-2.62-3.86-5.37-3.99-.36-.02-.93-.8-.97-1.26-.18-1.87-.89-2.86-2.97-2.79-.97,.04-1.75-.88-1.76-1.91-.02-2.03-1.09-2.64-2.9-2.47-2.77,.26-4.21-1.44-6.08-3.24-2.22-2.13-3.69-5.39-7.22-6.04-.65-.12-1.34-.52-1.5-1.18-.93-3.9-5.05-5.32-6.66-8.43-1.58-3.06-2.85-5.71-6.58-6.46-.91-.18-.65-1.69-.5-2.78,.27-2.05,1.28-4.66-2.36-5.01-.42-.04-1.1-.75-1.11-1.15-.07-3.2-2.38-2.44-4.23-2.5C.05,104.31,.07,53.42,.01,2.53,.01,.64,.21-.01,2.4,0,24.46,.11,46.51,.07,68.56,.07c1.16,2.45,.78,3.84-1.14,5.36-2.82,2.23-5.19,4.91-7.62,7.55-5.22,5.68-7.3,12.88-9.72,19.9-.74,2.15-2.08,3.37-4.06,3.91-3.18,.86-4.32,2.96-4.31,6.04,0,1.41-.35,2.81-.54,4.21-.39,2.87-1.13,3.65-3.98,3.73-4.77,.13-4.22,.3-4.87,4.36-.31,1.93-.69,3.71-2.55,4.77-.41,.24-.77,.61-.81,1.11-.23,2.91-.58,5.77-1.92,8.46-.56,1.13,.5,1.94,1.5,2.35,2.63,1.09,2.7,2.9,2.34,5.51-1.01,7.42-2.98,14.77-2.19,22.38,.16,1.49,.33,2.74,1.86,3.48,1.27,.62,1.85,1.8,2.05,3.2,.55,3.84,.99,7.68,.35,11.54-.28,1.73,.04,2.88,1.7,4,2.78,1.89,3.21,5.2,3.58,8.25,.26,2.12,.26,4.02,2.54,5.2,1.46,.75,1.47,2.54,1.65,4.03,.25,2.01,1.31,3.38,2.61,4.99,2.05,2.54,4.08,3.99,7.36,3.96,1.42-.01,2.47,1.3,2.56,2.66,.22,3.28,1.88,5.36,4.42,7.35,1.77,1.39,3.19,3.42,4.63,5.28,.84,1.08,1.77,1.88,3.05,2.4,4.52,1.83,8.36,5.13,13.31,6.03,.55,.1,1.19,.38,1.43,.86,1.42,2.83,4.1,3.53,6.8,4.51,2.03,.74,3.63,2.58,5.34,3.9,3.81,2.92,8.78,4.52,11.21,9.14,.92,1.75,2.54,2.73,4.19,3.68,4.22,4.22,6.13,9.56,7.06,15.26,1.23,7.48,2.26,14.99,4.41,22.29,.55,1.85,1.4,3.77-.17,5.58Z"/>
      <path class="cls-80" d="M191.43,.07h54.92c3.91,4.99,8.83,8.97,13.31,13.4,2.75,2.71,5.66,5.34,5.87,9.62,.05,.99,.8,1.45,1.61,1.78,2.06,.82,3.01,2.58,4.22,4.32,2.98,4.3,4.32,9.11,5.58,14.07,.66,2.6,2.15,4.97,2.28,7.78,.06,1.18,1.16,1.89,2.01,2.64,3.15,2.79,3.98,6.02,2.22,9.94-1.51,3.38-1.73,6.31,1.65,8.72,1.09,.78,1.24,2.1,1.2,3.34-.12,4.06,.84,8.07,.63,12.13-.05,.94-.03,2,.64,2.7,3.01,3.12,1.47,6.97,1.77,10.52,.08,.94-.51,1.71-1.35,1.97-3.79,1.15-4.15,4.78-5.5,7.63-.51,1.07-.61,2.36-1.25,3.42-.57,.95-.58,1.93-.26,2.99,1.31,4.2,.41,8.13-.48,12.39-1.21,5.74-4.89,10.63-5.09,16.6-.04,1.1-.7,2.01-1.73,2.41-2.28,.87-2.86,2.62-2.54,4.77,.39,2.69-.31,4.45-3.32,4.7-1.27,.11-1.7,1.08-1.82,2.18-.21,1.83-1.41,2.91-2.65,4.14-4.56,4.49-9.5,8.61-13.6,13.55-1.39,1.68-3.02,2.71-5.32,2.73-2.97,.03-4.63,2.41-6.43,4.23-2.23,2.26-4.87,4.19-6.35,7.15-.47,.95-1.49,1.64-2.51,1.67-3.72,.11-7.04,2.04-10.74,2.17-.97,.03-1.76,.21-2.36,1.19-1.54,2.52-4.03,3.33-6.8,3.21-3.92-.17-7.14,.65-10.06,3.78-2.1,2.25-5.42,3.51-8.81,2.51-1.5-.44-2.33-.35-3.26,1.05-1.68,2.54-3.53,3.03-6.01,1.48-2-1.26-2.9-1-4.12,1.1-1.84,3.16-4.21,6.01-8.06,7.01-.74-.51-.74-1.29-.62-2.03,.92-5.8,2.97-11.14,5.68-16.4,3.33-6.47,8.04-11.73,12.74-17.08,2.13-4.29,5.65-7.5,8.62-11.13,2.48-2.77,5.87-4.43,8.43-7.17,1.32-1.42,3.08-2.45,4.38-4.08,1.14-1.43,3.16-1.05,4.8-.56,2.05,.62,3.07,.09,3.12-2.12,.03-1.34,.58-2.55,1.06-3.79,.78-2,2.12-2.88,4.3-2.98,4.06-.19,4.74-1.02,4.44-4.89-.05-.7-.01-1.38,.46-1.86,2.22-2.28,4.17-4.93,6.85-6.63,1.85-1.17,2.74-2.47,2.65-4.53-.1-2.27,.84-3.73,2.73-5.15,2.12-1.59,3.27-4.26,5.39-6.01,.76-.63,.42-1.56,0-2.35-.39-.75-.88-1.46-1.06-2.3-.51-2.42,.57-3.63,2.95-3.17,1.33,.26,2.66,.42,2.82-1.3,.48-5.13,1.23-10.17,3.03-15.05,.77-2.1,.63-4.46,.55-6.74-.02-.57,.18-1.31-.13-1.67-3.08-3.53-1.9-7.38-.79-11.38-.93,.63-1.53,1.54-2.6,1.11-1.13-.45-1.36-1.47-1.47-2.54-.02-.19-.07-.39-.02-.56,.99-3.66-.21-6.65-2.37-9.65-2.64-3.66-3.72-8.2-6.11-12.04-.51-.82-.7-1.79-.6-2.73,.39-3.92-1.65-6.68-4.36-9.03-1.61-1.4-2.56-2.95-2.51-5.11,.03-1.16-.26-2.29-1.15-3.1-3.57-3.2-6.77-6.77-10.22-10.09-.88-.85-1.74-1.71-2.6-2.57-2.43-2.44-4.63-5.13-8.34-5.92-2.95-.63-5.2-3.02-8.17-3.79-.76-.2-1.38-.88-1.39-1.65-.05-2.51-1.69-3.02-3.7-3.31-1.12-.16-2.14-.73-3.13-1.28-1.9-1.06-2.51-2.49-1.12-4.4Z"/>
      <path class="cls-4" d="M191.43,.07c.03,3.07,1.83,4.81,5.54,5.06,2.16,.14,3.85,.38,3.03,3.24-.22,.78,.26,1.77,1.06,1.71,3.07-.22,4.62,2.74,7.29,3.27,.45,.09,.84,.53,1.28,.57,4.39,.37,6.34,3.96,8.95,6.68,1.65,1.71,3.34,3.61,5.07,4.97,2.35,1.86,3.73,4.6,6.38,6.1,1.61,.91,2.48,2.51,2.18,4.55-.26,1.7,.36,2.86,1.81,4.05,3.11,2.54,5.77,5.58,4.94,10.09-.49,2.69,1.84,4.17,2.65,6.26,1.26,3.23,2.3,7.05,4.69,9.43,2.52,2.51,2.52,4.71,1.79,7.54-.09,.36-.07,.75-.04,1.13,.09,.97-.37,2.39,1.02,2.58,1.31,.18,1.15-1.16,1.27-2.05,.08-.59,.3-1.27,.93-1.23,.94,.06,.77,.97,.71,1.56-.25,2.32,.89,4.87-1.36,6.89-.74,.67-.34,1.88,.64,2.39,1.73,.89,1.82,2.35,1.91,4.04,.18,3.22-.52,6.37-.63,9.55,0,.28,0,.64-.17,.82-3.32,3.57-1.95,8.15-2.61,12.28-.37,2.33-1.71,3.26-3.9,2.37-.62-.25-1.15-1.3-1.95-.53-.67,.65-.42,1.6-.34,2.43,.04,.35,.24,.7,.43,1.02,2.07,3.46,1.97,4.27-1.4,6.39-.91,.57-1.31,1.14-1.54,2.11-.22,.92-.67,1.92-1.68,2.13-2.78,.57-2.85,2.53-2.69,4.72,.17,2.41-.86,3.7-3.1,5.02-2.69,1.58-4.68,4.34-6.97,6.6-.44,.44-.04,.82,.13,1.25,1.12,2.87-.66,5.44-3.87,5.6-4.28,.21-5.86,1.89-6,6.34-.1,3.2-.73,3.63-3.75,2.56-2.99-1.06-4.2-.54-5.42,2.33-.04,.09-.06,.25-.1,.25-2.93,.21-3.45,3.77-6.05,4.37-1.07,.25-1.82,.76-2.55,1.59-1.03,1.17-1.86,2.67-3.64,2.94-.47-1.02,.02-1.86,.6-2.6,4.71-6.04,7.45-13.13,9.66-20.27,2.98-9.65,3.79-19.63,2.75-29.82-.59-5.81-1.79-11.5-2.35-17.29-1.24-5.42-2.44-11.12-5.19-15.74-2.99-5.01-5.21-10.45-8.96-15.18-4.23-5.33-7.93-11.49-8.27-18.81-.2-4.34-3.04-7.85-3.71-12.05-.84-5.22-3.05-10.06-4.43-15.13-1.19-4.38-4.05-8.04-5.49-12.34-.98-2.94-1.83-5.92-2.89-8.84-.36-1-.28-2.05,.54-2.9h23.78Z"/>
      <path class="cls-162" d="M168.79,216.91c3.22-2.66,6.93-4.76,8.26-9.27,.46-1.56,2.29-1.1,3.58-.1,3.11,2.4,4.6,2.08,6.18-1.49,.66-1.49,1.29-1.8,2.76-.96,3.05,1.73,8.31-.01,9.94-3.14,.3-.59,.53-1.31,1.3-1.36,2.93-.17,5.46-2.47,8.72-1.3,1.88,.68,3.55-.91,5.23-1.71,.23-.11,.58-.46,.54-.58-1.17-3.43,1.63-2.04,2.78-2.09,3.94-.19,7.45-2.34,11.42-2.33,.46,0,1.15-.46,1.35-.88,2.16-4.58,6.43-7.2,9.79-10.67,.65-.67,1.31-1.62,2.33-1.41,4.62,.93,6.34-2.87,8.79-5.36,3.8-3.86,7.59-7.73,11.76-11.18,1.06-.87,1.58-1.77,1.52-3.11-.09-2.04,.67-3.27,2.97-3.05,1.94,.18,2.58-.44,2.25-2.63-.42-2.81-.93-6.11,3.46-6.66,.57-.07,.97-.76,.86-1.32-.61-2.98,.51-5.92,1.96-7.98,2.52-3.56,1.8-7.86,3.79-11.54,1.44-2.66,1.18-6.28-.26-9.29-.76-1.59-.82-2.82,.43-4.07,.47-.47,1.03-1.03,.89-1.7-.7-3.16,2.72-4.76,2.82-7.67,.03-.94,1.25-1.43,2.22-1.43,2.13,0,2.48-1.26,2.38-2.98-.19-3.07,.97-6.47-2.35-8.76-.4-.27-.5-1.23-.45-1.85,.34-4.53-.85-9-.61-13.52,.06-1.23,.06-2.32-1.45-3.01-2.61-1.19-3.66-6.16-1.7-8.47,1.4-1.65,.33-3.54,.99-5.08,1.05-2.48-.76-3.03-2.15-4.07-1.99-1.5-3.74-3.18-3.07-6.09,.12-.5,.02-1.23-.28-1.63-2.78-3.67-2.21-8.46-4.19-12.38-1.33-2.64-2.64-5.71-4.62-7.44-2.45-2.14-4.88-3.41-4.96-7.28-.03-1.57-2.11-3.24-3.5-4.61-4.34-4.24-8.78-8.37-13.22-12.5-.88-.82-.92-1.8-.89-2.85,13.78,0,27.56,.05,41.33-.06,1.94-.02,2.32,.38,2.32,2.32-.07,58.32-.05,116.63-.05,174.95-1.12,1.54-.4,3.29-.55,4.94-.13,1.5-.29,2.87-2.18,3.07-.09,0-.21,.03-.26,.09-2.21,2.52-4.42,5.04-6.61,7.57-.11,.12-.06,.51-.13,.52-3.19,.64-3.48,4.69-6.48,5.51-1.2,.33-2.09,.94-2.23,2.22-.24,2.19-1.6,2.77-3.54,2.69-2.5-.1-5.22-.64-5.71,3.1-.11,.86-1.18,.75-1.88,.99-1.09,.38-2.38,.87-2.51,2.05-.28,2.52-1.95,2.42-3.7,2.33-2.7-.14-5.2-.04-5.71,3.46-.09,.59-.63,.94-1.24,1.01-1.84,.2-2.91,1.14-3.17,3.02-.24,1.72-1.61,1.61-2.84,1.56-2.91-.1-5.78-.3-6.48,3.66-.17,.95-1.33,.88-2.19,.88-2.36,0-4.72-.04-7.08,.02-1.92,.05-3.6,.65-4.02,2.81-.29,1.48-1.24,1.79-2.47,1.69-4.55-.35-8.87,1.81-13.45,1.17-.67-.09-1.28,.12-1.71,.76-.59,.89-.45,2.46-1.94,2.52-2.15,.09-4.41,.62-6.42-.31-2.06-.95-3.93-1.11-5.87,.09-.16,.1-.36,.23-.52,.2-4.62-.85-8.73,1.73-13.25,1.93-3.46,.16-6.83,1.4-9.64,3.83-2.77,2.4-5.77,4.54-8.67,6.8-.85-.62-.97-1.52-.92-2.47,.14-2.67-.16-5.36,.19-8.02,1.6-2.26,1.88-.09,2.57,.81,2.29-4.08,3.98-8.43,6.38-12.44,1.03-1.72,1.12-3.75,1.54-5.68,.23-1.06,.16-2.32,1.52-2.77Z"/>
      <path class="cls-101" d="M108.76,194.83c-2.18-1.01-3.78-2.56-4.91-4.72-1.13-2.14-2.85-3.74-5.33-4.27-1-.21-1.71-.84-2.27-1.58-1.1-1.44-2.21-2.74-4.27-2.72-.49,0-1.31-.42-1.42-.8-.87-2.97-3.62-2.75-5.77-3.55-1.32-.5-2.61-.86-2.8-2.71-.13-1.24-1.36-1.51-2.55-1.79-2.51-.61-5.18-.88-7.05-3.12-1.09-1.31-3.19-1.7-4.46-1.91-3.79-.64-4.8-4.14-7.19-6.07-1.7-1.38-2.62-3.67-5.09-4.66-1.17-.47-1.1-2.64-1.23-4.14-.28-3.38-.73-3.82-4.16-3.8-2.16,0-4.55,.48-4.53-2.93,0-.37-.48-1.01-.82-1.07-3.85-.67-3.07-3.92-3.46-6.36-.26-1.66-.52-2.97-2.4-3.25-1.51-.23-1.82-1.35-1.59-2.51,.65-3.28-1.24-6-1.8-9-.16-.88-.9-1.3-1.62-1.36-2.55-.21-2.6-2.03-2.18-3.69,1.11-4.34,.1-8.6-.14-12.89-.06-1.16-.77-2-1.91-2.15-1.76-.23-2.04-1.3-2.03-2.79,.04-4.05-.67-8.26,.2-12.12,.94-4.19,1.03-8.5,2.25-12.59,.55-1.85,.29-2.74-1.6-3.39-3.42-1.18-3.78-2.29-1.77-5.36,1.21-1.84,.91-3.8,.92-5.74,0-1.44,.22-2.47,1.86-3.01,2.71-.89,1.82-3.68,1.9-5.37,.16-3.26,1.62-3.65,4.27-3.55,3.98,.15,3.93,.02,4.5-3.93,.22-1.49,.59-2.94,.53-4.46-.13-3.38,1.95-4.99,4.88-5.55,2.77-.53,3.64-2.58,3.8-4.75,.2-2.77,1.6-5.07,2.86-7.18,1.27-2.14,1.99-4.34,2.68-6.61,.5-1.66,.92-3.23,2.98-3.6,.67-.12,1.14-.81,1.21-1.46,.18-1.78,1.57-2.06,2.74-2.96,2.25-1.71,3.69-4.38,6.21-6,.83-.54,.29-2.14,.35-3.26h42.46c1.92,3.74,.25,8.26-3.55,9.54-.64,.22-1.33,.38-1.67,.97-2.31,4.07-6.01,6.3-10.25,7.82-.15,.05-.24,.11-.25,.13-1.66,3.63-5.46,5-8.04,7.65-.38,.39-.54,1.16-1.03,1.31-3.07,.94-4.66,3.77-6.69,5.77-2.65,2.62-6.7,4.85-6.14,9.7,.07,.64-.06,1.48-.56,1.85-2.14,1.65-3.59,4.03-5.65,5.63-1.45,1.12-2.28,2.05-2.2,3.81,.11,2.73-.48,5.06-3.31,6.26-1.3,.55-1.19,1.85-1.19,2.95,.01,2.5-.58,4.59-2.88,6.05-1.62,1.03-1.54,2.97-1.6,4.62-.19,5.56-.05,11.13-.08,16.7,0,1.23,.19,2.52-.29,3.65-1.69,4.01-.37,7.01,2.91,9.47,.99,.74,1.23,1.86,1.3,3.02,.09,1.7,.09,3.4,.04,5.09-.06,2.18,.21,4.1,2.4,5.3,1.29,.7,1.45,2.12,1.63,3.45,.33,2.36,.75,4.63,2.84,6.25,1.12,.87,1.06,2.37,1.25,3.66,.28,2,1,3.52,3.13,4.23,1.87,.63,2.91,2.2,2.82,4.17-.11,2.56,1.14,3.7,3.45,4.29,2.27,.58,4.6,1.18,6.16,3.18,.71,.64,1.29,1.41,1.56,2.31,2.62,8.87,7.28,16.78,11.72,24.79,.73,2.15,1.82,4.07,3.12,5.96,1.51,2.2,2.04,4.96,4.03,7,1.23,1.25,2.18,2.79,3.52,4.01,1.17,1.07,2.28,2.35,1.25,4.16Z"/>
      <path class="cls-64" d="M83.28,147.27c-1.95-2.49-5.09-2.81-7.71-3.43-2.11-.5-2.55-1.34-2.43-2.86,.25-3.17-.56-5.17-4.1-5.83-2.22-.41-1.72-2.96-2.02-4.57-.3-1.63-.52-2.79-2.1-3.84-1.96-1.3-1.66-3.88-1.95-5.96-.21-1.51-.26-2.72-2.06-3.18-1.47-.38-1.97-1.63-1.97-3.08,0-1.88-.03-3.77,0-5.65,.04-2.27,.4-4.63-2.79-5.23-.79-.15-1.18-.93-1.16-1.76,.04-1.19-.26-2.2-1.14-3.06-.67-.66-.9-1.69-.26-2.31,1.84-1.79,1.28-4,1.37-6.11,.29-6.57-.61-13.17,.54-19.72,.13-.76,.14-1.69,.97-1.88,3.14-.72,3.16-3.05,3.02-5.51-.12-1.99-.1-3.7,2.61-4.07,1.63-.22,1.93-1.84,1.93-3.36,0-1.51-.47-3.99,.18-4.34,2.56-1.37,3.48-4.35,5.88-5.56,1.66-.84,2.51-1.63,2.48-3.54-.03-1.57-.07-4.21,.7-4.54,2.94-1.28,3.47-4.84,6.22-5.97,1.16-.47,2.08-.76,2.14-2.15,0-.18,.06-.5,.15-.52,3.36-.97,4.26-5.07,7.58-6,1.77-.5,3.12-1.21,3.41-3.2,.11-.73,.1-1.66,.95-1.92,3.03-.9,5.62-2.49,8.17-4.34,1.11-.8,2.18-1.22,2.39-2.72,.17-1.23,.94-2,2.14-2.38,1.06-.33,2.61,.45,3.15-.68,.75-1.57,1.06-3.37,1.4-5.11,.18-.91,.03-1.88,.04-2.82h8.49c1.56,3.31-.15,6.18-1.27,9.11-.33,.86-1.27,1.51-1.36,2.45-.63,6.42-3.96,12.19-4.45,18.64-.37,4.88-2.76,9.18-4.51,13.61-1.21,3.06-2.52,6.08-3.43,9.23-1.24,4.27-2.46,8.52-5,12.25-.21,.31-.47,.65-.48,1.01-.15,4.29-3.33,7.27-4.71,11-1.41,3.82-2.76,7.59-5.43,10.75-.18,.21-.32,.5-.33,.77-.24,5.64-3.65,10.23-5.15,15.46-.9,3.13-.62,6.39-1.54,9.47,.14,9.64-.65,19.3,.82,28.91,.23,1.5,1.67,2.87,.59,4.55Z"/>
      <path class="cls-67" d="M167.65,.07c-.02,3.96,2.06,7.34,3.06,11.02,1.46,5.39,4.88,9.95,6.45,15.44,1.64,5.74,2.79,11.71,5.03,17.18,1.42,3.46,2,6.85,2.7,10.38,.7,3.56,2.88,6.62,4.21,9.91,2.38,5.87,8.62,9.37,9.31,16.09,5.11,4.5,5.02,11.31,7.58,16.95,.57,1.25,.81,2.49,.73,3.82,.39,3.41-.69,6.73-.64,10.15,.02,1.53-1.64,2.07-3.17,2.09-1.49-.32-1.74-1.59-2.03-2.77-2.35-9.55-6.84-17.77-12.82-25.73-5.15-6.85-10.41-14.04-13.09-22.6-1.54-4.91-3.89-9.56-4.99-14.64-.39-1.81-.08-3.81-1.38-5.4-1.52-4.57-1.93-9.39-3.27-14.01-.6-2.07-.97-4.22-1.84-6.22-.96-5.86-.73-11.8-1.38-17.68-.15-1.39-.09-2.84,1.01-3.97h4.53Z"/>
      <path class="cls-9" d="M81.02,113.3c.52-4.86,1.31-9.65,3.29-14.19,.71-1.63,1.09-3.39,2.21-4.86,.44-.57,.89-1.44,.78-2.07-.66-3.66,1.73-5.88,3.59-8.45,1.93-2.67,1.46-6.4,3.66-9.01,2.28-2.71,2.12-6.65,3.79-9.22,3.91-6.01,4.76-12.9,7.3-19.25,.98-2.47,2.04-4.97,3.17-7.33,1.98-4.12,2.66-8.38,3.26-12.73,.2-1.44,.56-2.73,1.18-4.02,1.14-2.4,1.83-4.93,1.9-7.61,.11-4.14,3.89-6.97,3.98-11.17,.02-1.08,.41-2.2,.38-3.33h4.53c1.09,1.12,1.03,2.55,1.02,3.95-.03,5.43-.87,10.77-1.72,16.11-.67,2.56-1.03,5.21-1.93,7.72-3.12,4.15-1.83,9.19-2.81,13.77-2.07,9.59-3.03,19.42-7.48,28.47-3.85,7.81-8.59,14.91-14.16,21.54-4.79,5.69-8.08,12.19-10.22,19.28-.22,.72-.41,1.45-.82,2.1-1.54,1.76-3.16,2.19-4.91,.29Z"/>
      <path class="cls-79" d="M135.94,.07h4.53c.78,.78,1.05,1.78,1.05,2.83,0,5.06,.25,10.12-.13,15.18-.2,4.5,.57,8.99,0,13.49-.21,1.25,.24,2.51-.06,3.75-.06,2.51,.05,5.02-.06,7.53-.05,1.03,.24,2.37-1.43,2.54-.98-.96-1.19-2.25-.91-3.42,1.35-5.59,.47-11.25,.67-16.87,.13-3.57,.02-7.14,.02-10.71,0,7.71-.02,15.43,0,23.14,0,1.78-.1,3.35-2.56,2.85-.64-3.24-.02-6.53-.3-9.38-.13,8.65,1.07,17.67,.81,26.73-.04,1.49,.16,3.02-.7,4.38-.25,.31-.57,.42-.96,.33-.45-.37-.68-.87-.76-1.43-.58-7.85-.37-15.72-.14-23.58,.04-1.31,.09-2.62,.03-3.93-.49-6.05-.11-12.09,0-18.14-.42-4.17-.18-8.34-.15-12.51,0-1.04,.28-2.02,1.05-2.8Z"/>
      <path class="cls-160" d="M143.87,.07h2.26c.7,.71,1.1,1.61,1,2.56-.85,8.17,.74,16.31,.33,24.47-.64,3.16-.75,6.31-.07,9.49,.3,1.38,.28,2.83,.12,4.21-.76,6.53-.22,13.11-.87,19.64-.84,.96-1.63,2.09-3.15,1.08-.95-3.23-.29-6.53-.44-9.8-.1-2.16-.02-4.32-.02-6.49,0-13.72,0-27.43,.01-41.15,0-1.38-.28-2.85,.83-4.02Z"/>
      <path class="cls-92" d="M163.12,.07c.38,7.36,.76,14.72,1.14,22.09-.41,2.99-.65,6.06-3.43,8.05-1.2-.73-1.51-2.01-2.01-3.18-1.01-4.21-1.51-8.46-1.09-12.79,.48-4.79,.72-9.62,2.56-14.16,.94,0,1.89,0,2.83,0Z"/>
      <path class="cls-143" d="M122.36,20.45c.86-6.77,2.05-13.51,1.69-20.38h3.96c.62,.64,.97,1.42,.95,2.29-.09,4.81,.92,9.54,1.05,14.33,.23,1.48,.01,2.93-.41,4.35-.59,1.22-.72,2.7-1.93,3.58-3.35,.62-3.93-2.28-5.32-4.17Z"/>
      <path class="cls-111" d="M129.16,17.04c-.58-5.64-1.49-11.26-1.15-16.97h3.96c.61,.63,.95,1.4,1.06,2.25,.47,3.61,.92,7.22,1.18,10.84-1.23,1.88-2.45,3.78-5.05,3.88Z"/>
      <path class="cls-21" d="M154.06,.07h2.26c1.16,1.22,1.13,2.76,1.01,4.24-.28,3.36-.47,6.72-.75,10.08-.29,2.65-2.03,4.83-2.49,7.44-.1,.58-.53,1.27-1.42,.81-2.02-2.39-.83-5.24-1.13-7.87,.72-4.04-.2-8.25,1.3-12.21,.33-.87,.52-1.8,1.21-2.49Z"/>
      <path class="cls-42" d="M133.62,13.63c-1-4.46-1.3-9.01-1.64-13.56h3.96c-.02,5.09-.04,10.19-.06,15.28-.85,.58,0,2.21-1.5,2.38-1.71-1.1-1.69-2.52-.76-4.11Z"/>
      <path class="cls-70" d="M155.76,14.77c.19-4.9,.38-9.8,.56-14.7,1.32,0,2.64,0,3.96,0,.26,4.82-1.43,9.4-1.71,14.16-.8,.89-1.66,1.51-2.82,.54Z"/>
      <path class="cls-175" d="M146.62,27.1c.08-9.02-.83-18.01-.48-27.04h4.53c1.87,4,1.29,8.08,.44,12.17-1.46,1.2-1.96,.13-2.32-1.05-.42-1.38,.09-2.8-.04-4.47-.79,1.38-.44,2.65-.46,3.84-.06,4.25,0,8.49-.04,12.74-.01,1.31,.13,2.67-.8,3.79-.27,.24-.55,.25-.84,.02Z"/>
      <path class="cls-73" d="M140.51,18.15c-.01-6.03-.02-12.05-.04-18.08h2.26c.77,.91,.5,2.01,.57,3.06-.1,6.03,.21,12.06-.16,18.09-1.15,1.19-1.75,.55-2.04-.68-.18-.8,0-1.69-.6-2.39Z"/>
      <path class="cls-161" d="M150.65,12.39c0-4.11,0-8.22,.01-12.33h3.4c-1.07,4.84-.9,9.83-1.72,14.7-.62,.66-.46,1.51-.59,2.29-.12,.7-.22,1.54-1.32,1.03-.47-.51-.54-1.18-.69-1.81-.14-1.4-.06-2.75,.92-3.88Z"/>
      <path class="cls-18" d="M142.78,3.03c-.01-.99-.03-1.97-.04-2.96,.38,0,.75,0,1.13,0-.03,15.12-.07,30.23-.1,45.35-.39-.04-.69-.23-.9-.56-.59-1.25-.35-2.58-.4-3.89-.42-11.64,.87-23.25,.54-34.89-.03-1.02,.23-2.07-.23-3.06Z"/>
      <path class="cls-43" d="M108.76,194.83c-.27-1.95-1.68-3.08-2.83-4.54-2.14-2.74-5.32-4.87-5.84-8.84-.17-1.3-1.66-2.4-2.37-3.68-.67-1.2-1.52-2.39-1.41-3.89,.94-.25,1.35,.48,1.82,1.03,5.64,6.56,11.26,13.11,17.67,18.97,3.33,3.05,4.85,7.33,6.26,11.56,1.49,6.15,1.96,12.46,2.92,18.7,.26,1.69,.47,3.43,1.31,4.89,2.33,4.06,2.45,8.84,4.46,13.03,1.01,2.1,.31,4.65,.34,7,.02,1.53,.04,3.01,.96,4.33,.39,2.42,1.08,4.87-.64,7.1-1.66-.41-1.03-1.77-1.11-2.79-.09-1.12-.02-2.24-.02-3.27-1.02-.64-1.16,1.2-1.95,.51-.58-.51,.03-.99,.38-1.41,.29-.35,.25-.75-.01-1.02-4.03-4.28-5.5-9.89-7.84-15.05-.03-.08-.14-.12-.21-.18,.17-2.1-.2-4.09-.98-6.06-1.46-3.69-1.52-7.7-2.45-11.49-1.78-7.28-1.59-15.09-5.75-21.77-.76-1.22-1.43-2.41-2.71-3.14Z"/>
      <path class="cls-85" d="M133.11,279.76c1.05-.49,1.06-1.42,1.05-2.39-.03-7.85-.05-15.69-.08-23.54-1.27-1.73-.25-3.91-1.14-5.72-.18-1-.18-2.01,0-3.01,.76-4.58,.65-9.16,.07-13.74-.27-1.62,.12-3.01,1.44-4.08,.99-.69,2.08-1.03,3.29-.98,1.64,.18,2.81,.81,2.58,2.74-.71,1.84-2.88,1.41-3.8,2.23,.21-.29,.9-.32,1.56-.41,2.15,.24,2.96,1.16,1.63,3.18-.35,.3-.76,.48-1.21,.57-.87,.42-2.46-.77-2.66,.61-.29,1.98-.66,4.15,.54,6.04,.45,.7,1.26,1.14,1.48,2.02,.13,1.01-.66,1.45-1.25,2.03-.47,.45-1.06,.91-.62,1.65,.37,.62,1.06,.7,1.73,.71,1.87,.03,2.47-1.54,3.17-2.78,.71-1.27-.85-1.07-1.34-1.59-.25-.19-.36-.43-.32-.74,.59-1.05,1.75-1.04,2.69-1.43,1.1-.2,2.19-.23,3.17,.44,1.16,1.51,1.08,3.38,1.17,5.09,.12,2.2-2.19,1.88-3.4,2.71-2.94,1.1-1.89,3.62-2.01,5.71-.15,2.7,2.33,2.38,3.78,3.24,.33,1.29-.6,1.63-1.51,1.86-.9,.22-1.78,.48-2.6,.91-1.14,.63-2.36,1.13-3.42,1.89-.52,.37-1.17,.8-.84,1.57,.27,.63,.94,.44,1.49,.41,1.37-.07,2.79-.52,4,.58,.08,.26,.06,.52-.05,.77-.71,.82-.38,1.78-.36,2.69,.09,3.91,.04,7.8-.98,11.62-.38,.31-.83,.45-1.3,.57-1.3,.2-2.62,.23-3.91,.02-.87-.14-1.95-.14-2.02-1.46Z"/>
      <path class="cls-48" d="M154.02,260.45c.01,4.05-.14,8.1,.09,12.13,.14,2.49-.95,3.94-2.98,4.8-1.14,.48-1.69,1.09-1.57,2.3-4.14,2.29-6.57,.98-6.53-3.6,.03-3.48-.25-6.97,.18-10.44,.13-.48,.36-.91,.71-1.27,.96-.71,2.06-1.16,3.11-1.7,2.42-.44,4.47-2.07,6.98-2.22Z"/>
      <path class="cls-154" d="M154.02,260.45c-1.96,1.64-4.29,2.4-6.75,2.84-.83-.93-.45-1.98-.22-2.96,.96-4,.9-7.92,.03-11.98-.52-2.43-.09-5.06-1.68-7.27,2.05-2.63,5.1-2.71,8.01-3.14,1.33,.45,1.45,1.57,1.46,2.72,.02,1.86,.1,3.72-.07,5.58-1.62,3.23-2.55,6.6-2.13,10.27,.11,1-.08,2.12,1.18,2.59,.09,.09,.18,.19,.27,.28l-.09,1.07Z"/>
      <path class="cls-90" d="M133.11,279.76c1.99,1.1,4.17,.14,6.22,.58,4,.34,5.02,2.79,2.85,6.84-2.7,.39-5.38,.15-8.07-.12-1.35-.14-2.21-.68-1.89-2.08,.39-1.73-1.2-3.8,.88-5.22Z"/>
      <path class="cls-109" d="M155.15,285.96c-2.91,1.07-5.97,.91-8.98,1.13-.42-2.26-.72-4.51,.27-6.71,1.33-.79,2.87,.04,4.23-.53,.38-.06,.76-.13,1.15-.19,.4-.2,.8-.2,1.2-.02,.83,.83,.8,1.9,.66,2.91-.21,1.48,.31,2.56,1.46,3.41Z"/>
      <path class="cls-129" d="M157.47,236.17c.01,3.77,.03,7.54,.04,11.31-.03,2.5-.09,5-.08,7.5,0,1.67-.6,2.85-2.28,3.33-1.63-3.41-.52-7.01-.69-10.51-.04-.91,.15-1.87,.22-2.8,.92-1.83,.82-3.8,.82-5.77,0-1.2-.24-2.46,.55-3.55,.67-.42,1.25-.57,1.41,.49Z"/>
      <path class="cls-167" d="M150.67,279.84c-1.24,.87-2.68,.24-4,.53-1.03,.93-2.23,.79-3.46,.59-.34-.11-.64-.29-.9-.53-.76-.67-1.12-1.58-1.06-2.51,.25-3.92-.3-7.85,.34-11.75,0-.19,0-.38,0-.58,.19-.61,.62-.92,1.24-1,.45,0,.83,.14,1.07,.55,0,3.65-.02,7.31-.02,10.96q0,3.68,3.71,3.66c.66,0,1.32-.04,1.97-.07,.37,.05,.74,.1,1.11,.16Z"/>
      <path class="cls-57" d="M155.24,244.6c-.03,4.57-.06,9.14-.09,13.71,0,.69-.41,.99-1.03,1.07,0,0-.17,.01-.17,.01-1.51-1.87-.86-4.09-.96-6.17-.11-2.15,.36-4.23,1.03-6.26,.02-2.14,.05-4.28,.06-6.41,0-.94,.06-1.92-1.15-2.22,.48-1.38,1.06-2.53,2.7-1.12,.03,2.48,.6,4.98-.39,7.41Z"/>
      <path class="cls-163" d="M133.72,247.93c.93,1.92,.4,3.93,.37,5.9-.7,2.01-.16,4.1-.39,6.14-.07,.65-.05,1.37-.9,1.54-.82,.17-1.23-.26-1.39-1.01-.02-2.44-.05-4.88-.07-7.32-.14-.26-.13-.53,0-.79,1.97-.86,.9-3.34,2.38-4.46Z"/>
      <path class="cls-146" d="M142.74,280.29c.19,.03,.37,.07,.56,.1,2.87,.83,3.49,3.27,1.68,6.67-.93,.04-1.86,.08-2.8,.12,0-.84-.12-1.7,0-2.53,.36-2.35-.28-3.95-2.86-4.32,.38-.04,.77-.08,1.15-.12,.77-.66,1.52-.34,2.26,.07Z"/>
      <path class="cls-19" d="M155.15,285.96c-2.12,.12-3.16-.51-2.38-2.9,.33-1.01,.13-2.18,.17-3.28,.93-.7,1.88-.6,2.83-.06,.42,2.15,0,4.21-.62,6.25Z"/>
      <path class="cls-51" d="M144.98,287.05c0-1.3-.11-2.61,.03-3.89,.16-1.45-.53-2.23-1.71-2.78,1.12,0,2.24,0,3.37-.01-.1,2.24,.49,4.54-.5,6.71-.4-.01-.79-.02-1.19-.03Z"/>
      <path class="cls-48" d="M155.77,279.71c-.94,.02-1.89,.04-2.83,.06-.37-.04-.75-.08-1.12-.12,1.33-.51,2.66-1.9,3.95,.06Z"/>
      <path class="cls-93" d="M157.47,236.17c-.29-.41-.69-.56-1.18-.51-.36,.28-.73,.28-1.11,.06-.42-1.57,.72-3.3-.5-4.79-.44-1.41-.4-2.93-.98-4.32-.24-1.31,.63-2.39,.76-3.63,.1-.41,.28-.78,.59-1.07,1.74-.63,1.74,.82,2.33,2.21,.3-1.93,.93-3.42,.34-5.07-.26-.74-.23-1.54,.21-2.17,3.04-4.4,3.28-9.67,4.61-14.6,1.99-5.19,4.93-9.87,7.82-14.58,1.5-2.44,3.89-4.04,5.82-6.08,1.53-1.62,3.37-2.98,4.98-4.55,.66-.64,1.37-1.34,2.46-1.01,1,1.18,1.82,2.49,3.15,3.39,.74,.5,1.3,1.32,.7,2.35-.26,.5-.39,1.15-.79,1.48-5.62,4.6-9.16,10.78-12.67,16.92-2.31,4.05-3.67,8.54-4.61,13.13-.24,1.19-.4,2.39-.6,3.58-.81,1.16-.65,2.55-.77,3.82-.44,4.58-3.61,7.95-5.16,12.03-.76,2.01-1.81,3.91-2.75,5.86-.24,.51-.58,1.15-1.18,1.02-.64-.13-.69-.82-.53-1.4,.28-.99-.08-1.64-.95-2.08Z"/>
      <path class="cls-147" d="M187.46,181.8c-.07-1.03-.64-1.81-1.56-2.08-1.85-.55-2.34-1.88-2.4-3.57-.4-2.03,.95-3.41,2.02-4.73,6.1-7.53,10.77-15.87,13.98-24.98,3.27-9.25,4.52-18.76,3.08-28.56-.25-1.69-1.2-3.47,.16-5.14,2.42-.72,3.4-2,2.44-4.67-.48-1.33,.33-2.9,.92-4.25,.42-.96,.66-1.92,.6-2.96,.96,3.39,1.59,6.92,2.06,10.34,.81,5.91,1.16,11.98,1.08,17.94-.06,4.26,.35,8.88-2.16,12.9-.99,1.58,.11,3.65-.59,5.26-1.91,4.38-3.16,9.01-5.38,13.29-1.89,3.64-3.75,7.26-6.33,10.46-1.68,2.48-3.31,5.02-5.61,6.98-1.21,1.04-1.39,2.62-2.33,3.77Z"/>
      <path class="cls-54" d="M121.22,205.02c-1.36-1.82-1.5-4.16-2.69-6.11-2.87-4.71-7.38-7.83-10.93-11.85-3.83-4.33-7.53-8.78-11.28-13.17-2.24-3.41-4.8-6.63-5.95-10.67-.54-1.9-1.73-3.57-2.75-5.17-2.15-3.37-2.26-7.46-4.34-10.78-2.44-7.05-3.03-14.28-2.34-21.7,.23-2.49,.47-5.07-.34-7.56-.53-1.64,.39-3.13,.42-4.72,1.61,.61,3.16,.79,4.53-.56,.86,1.02,.46,2.18,.28,3.25-1.44,8.68-.36,17.31,2.3,25.42,2.64,8.05,5.62,16.14,10.89,23.13,4.07,5.4,6.56,11.9,11.3,16.89,1.22,2.14,2.69,4.07,4.3,5.94,3.62,4.19,6.38,8.87,7.15,14.49,.15,1.11,.48,2.26-.55,3.16Z"/>
      <path class="cls-41" d="M160.87,30.09c1.33-2.56,1.69-5.53,3.38-7.94,1.15,1.11,1.36,2.61,1.68,4.06,1.15,5.25,2.28,10.51,3.42,15.77,.98,3.13,1.11,6.43,2.09,9.59,1.25,4.03,2.96,7.86,4.38,11.82,3.98,11.09,11.84,20.03,16.93,30.49,3.17,6.53,5.57,13.35,7.11,20.46,.12,.56,.07,1.13-.23,1.64-1.83,.86-2.07-1.09-3.05-1.73-1.99-3.64-3.36-7.56-4.96-11.37-2.42-5.75-6.51-10.33-10.02-15.31-4.54-6.45-9.39-12.68-12.27-20.13-1.05-2.72-2.25-5.37-3.05-8.19-2.53-7.32-3.33-15-4.62-22.57-.37-2.16-1.61-4.27-.78-6.58Z"/>
      <path class="cls-65" d="M199.36,116.13c-2.06-9.07-4.98-17.78-9.65-25.91-3.6-6.26-7.83-12.15-11.17-18.54-2.27-4.34-3.69-9.13-5.45-13.73-1.97-5.15-3.67-10.38-3.74-15.98,1.83,3.15,1.41,6.89,2.78,10.19,3.3,7.94,5.25,16.51,11.09,23.25,.85,.99,1.72,2.08,2.17,3.28,1.73,4.61,5.6,7.67,8.17,11.65,1.84,2.86,3.6,5.8,4.81,9.09,1.61,4.39,2.82,8.9,4.39,13.3,.53,4.18,1.41,8.35,1.49,12.54,.07,3.71-.59,7.46-1.21,11.14-2.23,13.4-8.51,24.92-16.73,35.52-1.03,1.33-1.87,2.81-2.8,4.22-7.81,6.56-15.06,13.56-18.8,23.39-.36,.94-1.05,1.76-1.58,2.64-1.09-1.11-.49-2.26-.1-3.41,2.06-6.02,5.26-11.44,8.84-16.65,1.09-1.58,2.84-2.44,4.14-3.82,5.55-5.85,9.82-12.6,14.08-19.39,4.66-7.43,7.78-15.43,9.16-24.08,.85-5.34,.5-10.71-.22-16.04-.13-.94-.45-1.85,.34-2.65Z"/>
      <path class="cls-153" d="M109.89,181.81c-3.57-2.8-5.6-6.76-7.79-10.56-2.34-4.07-4.72-8.11-7.45-11.92-1.49-2.09-2.84-4.17-3.3-6.74-.84-4.67-4.07-8.46-4.9-13.13-1.56-8.86-3.34-17.72-.9-26.71,1.58-8.52,5.88-15.66,11.22-22.31,2.85-3.55,6.38-6.66,7.83-11.21,.11-.35,.31-.7,.55-.98,6.92-8.33,9.3-18.4,11.02-28.73,.55-3.33,1.33-6.62,1.98-9.93,.14-.73,.4-1.55,.21-2.22-1.01-3.64,.75-6.55,2.3-9.53,.76,.64,.68,1.49,.6,2.34-1.31,14.37-3.49,28.55-8.39,42.21-1.13,3.15-2.91,5.89-4.55,8.74-4.11,7.15-8.89,13.91-12.46,21.38-.78,1.62-1.49,3.25-1.59,5.07-.29,1.47-.71,2.91-1.25,4.32-1.41,3.13-2.28,6.39-2.06,9.84,.16,2.39-.65,4.65-.63,7.01,.07,6.99,2.39,13.5,4.25,20.1,2.49,8.8,7.86,16.24,11.87,24.31,.71,1.43,1.96,2.53,2.96,3.78,.83,1.03,1.66,2.08,1.59,3.52-.11,.67-.43,1.16-1.1,1.37Z"/>
      <path class="cls-176" d="M93.48,107.63c.51-4.39,2.63-8.13,4.78-11.85,1.91-3.31,4.71-6.17,5.92-9.81,1.02-3.06,3.19-5.28,4.81-7.84,3.41-5.4,4.63-11.48,6.43-17.35,2.06-6.71,3.12-13.72,3.89-20.69,.45-4.08,.7-8.2,1.33-12.28,.57-2.46,1.14-4.91,1.71-7.37,2.25,.61,2.44,3.85,5.07,3.97,1.39,1.47,.54,3.03,.18,4.56-2.54,6-2.77,12.47-3.68,18.78-1.08,7.47-2.05,14.94-4.6,22.08-1.84,5.17-4.59,9.9-7.44,14.56-4.9,4.42-8.49,9.92-12.38,15.17-1.46,1.97-2.51,4.18-3.89,6.19-.54,.79-.74,2.04-2.14,1.86Z"/>
      <path class="cls-31" d="M136.45,62.49V29.07h.63v11.19c.14,.12,.38,.25,.39,.39,.33,4.28,2.49,8.25,2.6,12.47,.28,10.71,.03,21.44,.15,32.16,.02,2.07-.67,3.89-1.28,5.68-.92,2.69-.22,5.67-1.66,8.21-.55,.66-1.41,.74-2.09,1.16-6.05,2.31-11.03,6.13-15.02,11.15-4.07,5.11-5.47,11.2-4.69,17.56,1.31,10.75,6.06,19.5,15.89,24.93,1.14,.63,2.34,1.28,2.63,2.76-.49,1.98-2.12,1.4-3.44,1.53-5.63-1.81-9.74-5.76-13.18-10.23-8.67-11.28-9.39-23.66-3.21-36.14,3.18-6.42,8.75-11.03,15.27-14.25,1.77-.88,3.66-1.51,5.26-2.71,1.08-1.15,.97-2.58,.97-3.98,0-8.33-.01-16.66,.01-25,0-1.19-.26-2.47,.76-3.44Z"/>
      <path class="cls-20" d="M139.92,45.4c.7-3.39-.01-6.85,.49-10.26,2.11-.41,1.95,1.19,1.98,2.39,.11,4.28,.04,8.57,.04,12.85,0,1.31,0,2.61,.69,3.79,.34,1.83,.19,3.69,.15,5.53-.03,1.45,.23,2.74,1.17,3.85,.74,2.45,.5,4.94,.4,7.44-.34,7.89-.05,15.79-.15,23.68-.02,1.6,.06,3.2-.1,4.79-.9,3.21-.34,6.48-.45,9.72-.05,1.5-.12,2.98-.71,4.37-.63,1.51-1.62,2.25-3.28,1.42-1.41-1.54-1.39-3.46-1.35-5.34,.13-7.61,.19-15.2,.63-22.81,.69-11.73,.18-23.54,.19-35.31,0-.86-.23-1.65-.45-2.47-.33-1.29-.45-2.63,.74-3.66Z"/>
      <path class="cls-8" d="M139.92,45.4c-.03,9.23-.08,18.47-.08,27.7,0,13.94,.08,27.89,.58,41.83,.23,.19,.32,.43,.29,.72-.64,1.5-1.83,2.39-3.3,2.96-3.66,.88-3.37-2.24-4.23-4.19,.06-.88,.5-1.56,1.08-2.18,.53-.48,.86-1.1,1.12-1.76,.69-2.69,0-5.42,.29-8.12,.12-1.11-.1-2.28,.82-3.16,.31-4.72,2.6-9.12,2.74-13.77,.32-10.83,.11-21.68,.1-32.52,0-.84,.18-1.98-.27-2.46-2.82-3.03-1.82-6.7-1.98-10.18,1.92-.42,2.32-1.64,2.3-3.51-.11-7.79-.05-15.59,.54-23.39V45.4Z"/>
      <path class="cls-66" d="M136.02,61.22c0,.32,0,.64,0,.95,.46,4.69,.09,9.39,.21,14.08-1.33,5.42-3.32,10.45-8.16,13.82-1.18,.82-2.24,1.83-3.67,.49-.45-1.61,.73-2.43,1.7-3.27,3.6-3.15,4.94-7.13,5.68-11.83,.8-5.1,.42-10.28,1.61-15.3,1.45-1.08,1.93,.28,2.64,1.06Z"/>
      <path class="cls-104" d="M136.02,61.22c-.82-.3-1.35-1.18-2.33-1.13-1-.84-.81-2.02-.83-3.11-.05-3.81,.01-7.62-.04-11.43-.28-2.8-.44-5.61,.22-8.39,.42-.9,.89-1.77,1.13-2.76,.2-.81,.69-1.56,1.77-.92,.22,9.24,.44,18.49,.08,27.73Z"/>
      <path class="cls-119" d="M135.94,33.49c-.94,.1-1.12,.76-1.12,1.54,0,.83-.02,1.67-1.11,1.85-1.86-2.05-.42-4.53-.9-6.76-.37-3.17-.21-6.34-.1-9.51,.05-1.34,.33-2.65,2.01-2.94,.22-.86-.22-2.06,1.18-2.32,.16,6.05,.39,12.09,.06,18.14Z"/>
      <path class="cls-58" d="M142.67,54.44c-1.43-.42-1.01-1.62-1.02-2.57-.05-4.67-.01-9.34-.06-14-.01-1.02,.49-2.37-1.17-2.72-.27-1.16-.06-2.3,.15-3.44,1.59-.5,2.08,.53,2.44,1.76,.1,3.99-.16,7.98,.14,11.97-.02,3.01,.81,6.06-.48,9.01Z"/>
      <path class="cls-89" d="M142.64,32.95c-.69-.41-1.38-.83-2.07-1.24-.41-4.52-.2-9.04-.06-13.56,1.07,.2,1.06,1.03,1.08,1.85,.02,.74,.11,1.44,1.03,1.61,.65,3.78,.62,7.56,.02,11.34Z"/>
      <path class="cls-104" d="M135.76,77.21c.08-5.01,.17-10.02,.25-15.03,.14,.11,.28,.22,.43,.32-.04,10.39-.06,20.78-.16,31.17,0,1.01,.68,2.69-1.47,2.6,.41-6.35-.77-12.77,.94-19.05Z"/>
      <path class="cls-63" d="M146.06,60.63c-.12-9.35,1.1-18.69,.15-28.05-.18-1.79-.6-3.72,.4-5.47,.05,.11,.11,.21,.18,.31,1.54,2.24,1.49,4.86,1.48,7.35-.02,7.92,.53,15.84-.42,23.75-.2,1.69-.04,3.39,.22,5.08,.05,9.5,.03,19,.01,28.5,0,1.61,.11,3.19,.57,4.74,.5,4.79,.22,9.59,.21,14.39,0,.85-.15,1.69-.64,2.43-.36,.48-.84,.58-1.39,.44-1.46-1.12-.88-2.74-.96-4.17-.15-2.75,.04-5.48-.46-8.26-.48-2.64-.1-5.42-.12-8.14,0-9.45,.08-18.9-.25-28.35-.05-1.59-.11-3.21,1.02-4.55Z"/>
      <path class="cls-98" d="M146.06,60.63c0,11.11,0,22.22,0,33.33-.48,.46-.92,.4-1.35-.08-.65-3.81-.12-7.66-.29-11.48-.05-1.21,.12-2.44-.21-3.64-.3-2.73,.28-5.49-.33-8.21,0-2.29,0-4.58,0-6.87-.2-.22-.35-.48-.44-.77-.05-.47,.08-.88,.49-1.16,.71-.36,1.22-1.11,2.11-1.13Z"/>
      <path class="cls-185" d="M143.95,61.75c-.05,.38-.11,.77-.16,1.15-1.27-.29-.73-1.33-.74-2.02-.03-5.03-.08-10.05,.01-15.08,.1-.14,.21-.29,.31-.43,.13,.01,.26,.03,.39,.05,.06,5.44,.12,10.89,.18,16.33Z"/>
      <path class="cls-77" d="M160.87,30.09c1.83,4.26,2,8.88,2.8,13.36,.96,5.4,2.09,10.76,3.42,16.07,.42,2.01,.77,4.03,1.63,5.93,.4,.88,.43,1.83-.03,2.73-1.48,1.27-2.01-.25-2.52-1.03-1.24-1.88-2.4-3.84-3.38-5.88-.69-1.46-1.54-2.8-2.58-4.03-1.13-2.42-.86-5.17-1.82-7.63-.56-5.68-1.63-11.3-1.9-17.01,.45-2.16,.03-4.85,3.22-5.37,.38,.95,.77,1.91,1.15,2.86Z"/>
      <path class="cls-108" d="M159.72,27.23c-1.65,1.31-2.3,3.07-2.26,5.12-2.12,.27-2.73-1.71-4.02-2.69-.7-.84-1.23-1.75-1.34-2.87-.15-1.47-.41-2.96,.88-4.11,.49-2.79,1.63-5.35,2.77-7.91,.94-.18,1.88-.36,2.82-.54-.23,4.39,.36,8.7,1.14,13Z"/>
      <path class="cls-107" d="M126.87,28.96c.05-1.53,.85-2.97,.56-4.54,.39-1.13,.78-2.26,1.17-3.39,1.63,.18,1.57,1.62,1.84,2.67,.67,2.59,1.21,5.21,2.58,7.55-.4,5.04-1.85,9.86-3.09,14.73-1.3,2.39-1.23,5.39-3.26,7.47-.36-.02-.62-.19-.81-.49-1.14-3.6-.7-7.29-.42-10.91,.34-4.37,.33-8.8,1.43-13.09Z"/>
      <path class="cls-144" d="M132.52,31.24c-2.16-1.54-2.05-4.06-2.7-6.25-.39-1.32-.44-2.75-1.23-3.95,.73-1.26,.52-2.64,.57-4,1.62-.96,2.66-2.68,4.46-3.41,.05,1.43,0,2.89,1.09,4.04-.96,.82-1.03,1.9-1.02,3.07,.02,3.11-.04,6.21-.06,9.32-.4,.36-.5,1-1.1,1.17Z"/>
      <path class="cls-179" d="M152.99,22.69c0,1.52-.01,3.04-.02,4.57-1.08,1.77-.86,3.77-.88,5.68-.07,8.81-.03,17.63-.03,26.44-.34,1.44,.82,3.39-1.41,4.19-1.1-1.01-.98-2.3-.85-3.59,.05-4.83,.02-9.66,.01-14.5-.28-2.99-.37-5.98-.06-8.97,.11-1.22,.08-2.43,.03-3.65-.28-1.93-.22-3.86-.09-5.79,.28-2.05,.05-4.12,.15-6.17,.05-1.01-.12-2.11,1.02-2.72,.91-.95-.49-2.9,1.47-3.4,.02,2.66-.11,5.32,.65,7.92Z"/>
      <path class="cls-45" d="M150.64,27.17c.01,1.94,.02,3.87,.04,5.81-.89,1.09-.87,2.18,0,3.27,0,3.04,0,6.09-.01,9.13-.99,1.15-.59,2.54-.53,3.8,.2,3.63-.67,7.31,.5,10.88,.07,1.08,.13,2.15,.2,3.23,.87,1.05,.65,2.32,.65,3.52,.02,8.28,0,16.56,.03,24.85,0,1.26-.39,2.71,1.12,3.51,11.1,4.58,19.43,12.04,22.99,23.73,2.78,9.16,2.14,18.24-2.78,26.78-4.32,7.5-10.6,12.61-18.52,15.87-1.33,.28-2.9,1.13-3.57-.86-.6-1.82,.64-2.76,2.1-3.47,8.37-4.08,13.96-10.63,17.24-19.26,2.97-7.79,1.96-15.3-1.61-22.6-.66-1.34-1.31-2.71-2.26-3.89-2.89-4.58-6.95-7.85-11.71-10.29-2.62-1.34-2.92-1.1-2.99,1.96-.01,.47-.04,.94-.03,1.41,.06,.74,.04,1.47,.03,2.2,.29,1.77,.03,3.52-.08,5.28-.02,.52-.17,1-.46,1.44-.95,1.02-1.98,1.39-3.19,.43,0-5.69,.01-11.38,.02-17.07-.52-2.42-.09-4.83-.04-7.25,.14-7.99,.06-15.98,.05-23.97,0-.76-.1-1.5-.58-2.14-.88-1.18-.53-2.56-.45-3.81,.66-10.2,.85-20.39-.06-30.58-.05-.56,.04-1.12,.06-1.68,.91-1.17,.49-2.53,.5-3.8,.03-5.25-.04-10.5,0-15.75,0-1.05-.55-2.35,.69-3.06,.4-.23,1.27-.22,1.57,.07,.96,.9,.35,2.06,.28,3.16-.09,1.49-1.3,3.27,.81,4.37,0,1.36-.01,2.73-.02,4.09-.41,3.56-.43,7.12,.02,10.69Z"/>
      <path class="cls-113" d="M142.64,32.95c0-3.78-.01-7.56-.02-11.34,.05-6.19,.1-12.39,.16-18.58,.8,1.19,.47,2.55,.48,3.82,.06,12.84,.09,25.68,.12,38.52,0,0-.14,.04-.14,.04-.17,.24-.32,.22-.43-.05-.06-4.14-.11-8.28-.17-12.41Z"/>
      <path class="cls-133" d="M150.64,27.17c-.86-3.56-.79-7.12-.02-10.69,.08,.56,.16,1.12,.24,1.68-.07,3-.15,6-.23,9.01Z"/>
      <path class="cls-114" d="M109.89,181.81l.57-1.13c1.42-.36,2.04,.74,2.71,1.57,3.62,4.44,7.19,8.92,10.35,13.7,2.22,3.35,2.59,7.26,2.97,11.05,.45,4.57,1.32,9.08,1.59,13.67,.13,2.15,1.51,4.17,1.02,6.53-.16,.75,1.11,.89,1.51,1.54,.53,1.32,.75,2.76,1.52,4,.72,5.81,.28,11.64,.27,17.46,0,.86-.29,1.66-.93,2.3-.05,.22-.1,.45-.15,.67-1.27-.35-1.03-1.4-1.04-2.31-.02-2.07-.05-4.13,0-6.2,.03-1.44-.06-2.77-1.22-3.87-.68-.65-1.09-1.58-1.02-2.55,.12-1.82-.31-3.44-1.15-5.07-3.96-7.71-3.45-16.36-5.1-24.56-.24-1.19-.39-2.39-.58-3.59-.2-6.91-3.19-12.6-7.71-17.6-1.52-1.68-3.08-3.3-3.61-5.61Z"/>
      <path class="cls-76" d="M145.52,241.19c2.89,.43,2.58,3.2,2.31,4.59-.32,1.66,.31,2.81,.57,4.17,.86,4.56,.05,8.96-1.14,13.34-.85,.57-1.66,1.24-2.77,1.26-.93-2.01-.63-3.97,.22-5.91,0-.27,.01-.54,.01-.81,.08-2.04-.14-4.09,.46-6.1,.23-.78,.29-1.71-.82-2.06-.77-.24-1.63-.29-2.17-1.01,.36-.53,.91-.59,1.48-.62,1.69-.08,2.25-.6,1.48-2.42-.47-1.12-.15-2.58-.18-3.88-.12-.12-.16-.24-.14-.37,.03-.13,.05-.2,.09-.2,.2-.12,.4-.11,.59,.02Z"/>
      <path class="cls-100" d="M155.23,223.28c.32,1.35-.91,2.12-1.2,3.24-2.97,1.2-6.05,.27-9.07,.38-1.39,.05-2.78-.08-4.15,.24-1.1,.14-2.18-.73-3.29-.08-1.01-.23-1.8,.49-2.72,.64-.39,.27-.82,.36-1.28,.18-.88-.69-1.7-1.41-.96-2.69,2.01-1.69,4.49-1.96,6.94-2.31,2.24,.07,4.47,.02,6.66-.57,1.01-.2,2.02-.14,3.04-.06,2.09-.1,4.27-.73,6.04,1.03Z"/>
      <path class="cls-23" d="M133.66,227.69c.38,0,.76,0,1.14,0-.88,1.02-1.37,2.14-.87,3.5,.09,4.61-.02,9.22,.06,13.83-.09,.97-.18,1.93-.27,2.9-.03,.9-.13,1.81-.08,2.72,.09,1.61-.67,2.13-2.16,1.86-.05-6.76-.1-13.52-.16-20.28-.62-.94-.49-1.99-.45-3.02,.07-2.03,1.07-2.45,2.79-1.52Z"/>
      <path class="cls-33" d="M142.19,248.66c.94-.01,1.88-.03,2.82-.04,1.06,3.22,.14,6.42-.05,9.63v-.04c-.1,.28-.27,.32-.5,.15-3.11,.87-4.42-.06-4.52-3.22-.03-.94,.08-1.89-.05-2.81-.26-1.91,.26-3.24,2.3-3.66Z"/>
      <path class="cls-15" d="M137.81,243.6c-4.93-2.34-2.34-6.7-3.1-10.41,1.4,.34,2.42,.9,3.56,.73,.7,.88,2.35,.22,2.7,1.67,.18,2.59-1.88,4.65-1.7,7.25,.06,.09,.12,.18,.18,.27-.31,.95-.91,.94-1.64,.5Z"/>
      <path class="cls-60" d="M142.73,265.03c-.38,.19-.76,.37-1.13,.56-1.57,.11-3.15,.24-4.72,.34-.75,.04-1.54,.07-1.84-.86-.26-.8,.04-1.43,.59-2.02,1.18-1.27,2.75-1.88,4.29-2.52,1.24-.53,2.44-.61,3.12,.78,.61,1.25,1.28,2.62-.31,3.74Z"/>
      <path class="cls-141" d="M137.81,243.6c.62,.07,1.17-.09,1.64-.5,.74-.08,1.48-.18,2.22-.21,.5-.02,1.15,.38,.94,.75-.91,1.65-1.68,3.63-3.09,4.66-1.08,.79-3.14,.46-4.53-.44-1.03-.67-.65-1.73,.08-2.4,.81-.74,1.82-1.26,2.74-1.87Z"/>
      <path class="cls-97" d="M142.74,280.29c-.75-.02-1.5-.05-2.26-.07-.9-.55-.75-1.36-.59-2.21,.7-3.68,.93-7.37,.2-11.07-.09-.47-.03-.48,1.5-.77,1.16,3.28,.33,6.68,.56,10.02,.1,1.39-.25,2.83,.58,4.11Z"/>
      <path class="cls-149" d="M140.46,235.6c-.22-1.23-2.65,.43-2.2-1.68,.36-.02,.72-.04,1.08-.05,.65-.48,1.8-1.02,1.3-1.81-.64-1.01-1.94-.93-3.07-.45-.53-.03-1.06-.06-1.73-.1,1.1-1.45,2.6-1.74,4.05-2.12,.59-.59,1.29-.7,2.06-.45,.81,.48,1.71,.73,2.57,1.08,1.05,.43,1.56,1.33,1.52,2.46-.04,1.07-.7,1.8-1.66,2.03-1.03,.25-1.93,.63-2.7,1.33-.45,.13-.87,.07-1.23-.24Z"/>
      <path class="cls-123" d="M140.46,235.6c.4-.02,.8-.04,1.21-.06,.34-.28,.72-.34,1.13-.24,1.49,.83,1.55,1.92,.58,3.21-.77,1.03-1.74,1.96-1.74,3.38-.79,.32-1.58,.63-2.38,.94-1.09-1.63-.54-3.2,.27-4.68,.45-.82,1.05-1.55,.93-2.56Z"/>
      <path class="cls-83" d="M141.64,241.9c-1.54-1.51-.21-2.51,.75-3.37,1.08-.97,1.38-1.81,.33-2.92,1.05-1.06,2.27-1.04,3.27-.13,1.02,.93,.11,1.91-.37,2.79-.51,.94-.83,1.9-.65,2.98,0,.16,0,.33,0,.49-1.11,.05-2.22,.11-3.33,.16Z"/>
      <path class="cls-118" d="M142.73,265.03c.38-3.44-.2-4.38-2.82-4.52,1.13-1.55,3.59-.29,4.56-2.16,.14-.15,.31-.2,.51-.14-.57,2.08,.51,4.29-.48,6.34-.2,.2-.4,.39-.6,.59-.39-.03-.78-.07-1.17-.1Z"/>
      <path class="cls-15" d="M142.17,229.37c-.76,0-1.51,.01-2.27,.02,.13-1.72-.8-2.37-2.39-2.33,.89-.66,1.99-.36,2.97-.62,.52-.24,1.08-.19,1.62-.17,.79,.03,1.76-.26,2.12,.78,.38,1.1,.02,1.97-1.09,2.47-.35,.11-.67,.06-.97-.14Z"/>
      <path class="cls-15" d="M133.98,245.03c-.31-4.61-.22-9.22-.06-13.83,.56,4.61,.45,9.22,.06,13.83Z"/>
      <path class="cls-15" d="M137.58,231.61c.33-.16,.67-.46,.99-.44,1.36,.09,3.46-.87,3.73,1.17,.21,1.58-1.9,1.07-2.95,1.54,1.18-2.14-.18-2.29-1.77-2.26Z"/>
      <path class="cls-180" d="M142.17,229.37c.17-.04,.34-.05,.52-.04,4.46-1.51,8.75-1.82,12.52,1.72,2.43,1.53,.66,3.07,.02,4.6,.3,.41,.25,.76-.16,1.06-.71,.54-1.43,1.08-2.14,1.61-2.24,1.55-5.15,1.34-7.4,2.87-.18,.02-.36,.03-.53,.05-1.75-.61-1.19-1.77-.67-2.9,.4-.86,2.05-1.31,1.31-2.41-.54-.8-1.9-.32-2.91-.34-.35-.02-.7-.04-1.06-.07,.02-1.4,.99-1.59,2.08-1.64,.92-.05,1.73-.39,1.7-1.42-.04-1.08-.54-1.91-1.84-2-.63-.05-1.94,.52-1.43-1.1Z"/>
      <path class="cls-25" d="M154.02,246.96c-.02,4.15-.05,8.29-.07,12.44-.73,.38-1.97,1.57-2-.19-.08-4.17-1.28-8.63,2.07-12.25Z"/>
      <path class="cls-95" d="M155.07,236.71c.05-.35,.11-.7,.16-1.06,.35,0,.71,0,1.06,0,.02,2.26,.08,4.52,.06,6.78,0,.86,.36,2.01-1.1,2.17-.06-2.63-.11-5.26-.17-7.89Z"/>
      <path class="cls-2" d="M199.36,116.13c1.8,9.08,1.85,18.13-1.05,27-1.4,4.28-2.72,8.75-5.04,12.54-3.27,5.34-6.45,10.8-10.4,15.72-1.75,2.18-3.13,4.63-5.31,6.49-4.05,3.47-7.35,7.63-9.79,12.33-1.97,3.79-3.93,7.65-4.65,11.96-.75,5.06-1.15,10.25-4.26,14.61-1.39,1.94,.68,3.83-.18,5.86-.52,1.24-.7,2.59-1.7,3.68-1.47-1.25,.33-3.4-1.53-4.3-.56-.1-.55-.5-.51-.93,1.51-1.13,1.67-2.43,.79-4.11-.86-1.65-1.69-3.39-1.02-5.38,2.06-3.71,1.86-8,3.04-11.96,2.99-10.02,8.61-18.16,15.73-25.72,9.63-10.24,18.53-21.1,22.74-35,2.12-7,1.79-13.94,.72-20.99-.2-1.34-.96-2.75,.16-4.05,.76,.75,1.51,1.51,2.27,2.26Z"/>
      <path class="cls-84" d="M155.21,231.05c-3.99-1.94-8.26-1.77-12.52-1.72,.53-.59,1.48-1.09,1.01-2.03-.69-1.38-2.16-.5-3.21-.87,4.52-.82,9.04-.71,13.54,.08,2.23,1.03,.69,3.05,1.18,4.54Z"/>
      <path class="cls-117" d="M155.44,220.87c0,.38,0,.76,0,1.14-.07,.42-.15,.84-.22,1.27-2.09-.05-4.18-.09-6.27-.14-1-1.47-.17-2.56,.93-3.33,1.67-1.16,3.51-1.85,5.4-.32,.3,.43,.37,.89,.15,1.38Z"/>
      <path class="cls-147" d="M183.65,182.48c-.28,.75-.6,1.46-1.5,1.48-.89,.02-1.42-.51-1.36-1.39,.06-.88,.67-1.35,1.54-1.2,.6,.1,1.32,.24,1.32,1.11Z"/>
      <path class="cls-155" d="M197.09,113.87c.93,4.98,1.85,9.98,1.68,15.07-.31,9.51-4.35,17.74-8.84,25.84-2.44,4.4-5.69,8.19-8.95,11.89-2.7,3.07-4.93,6.59-8.18,9.22-1.58,1.28-2.8,3.03-4.12,4.61-6.61,7.92-10.13,17.19-11.76,27.25-.25,1.55-.68,2.9-1.72,4.06-1.06-.86-.83-2.04-.73-3.14,.86-9.53,4.01-18.31,8.68-26.61,.74-1.32,1.55-2.59,2.54-3.73,5.16-5.96,10.37-11.92,15.15-18.15,6.28-8.18,12.02-16.92,13.33-27.64,1.37-7.95-.29-15.42-3.55-22.65-2.83-6.27-6.21-12.14-10.52-17.58-4.78-6.04-8.47-12.85-11.49-19.97-.51-1.19-1.12-2.42-.4-3.77,.39-3.11-1.51-5.94-1.13-9.05,1.65,4.07,3.38,8.1,4.91,12.21,1.21,3.25,3.86,5.48,5.53,8.42,3.19,5.6,7.57,10.41,11.26,15.67,2.28,3.25,3.7,7.11,5.38,10.76,1.09,2.37,1.95,4.85,2.92,7.29Z"/>
      <path class="cls-5" d="M130.27,228.8c-1.13,0-2.22-.22-2.18-1.6,.12-5-1.3-9.8-1.9-14.7-.32-2.68-.64-5.4-.85-8.06-.43-5.3-3.1-9.48-6.17-13.26-2.52-3.11-4.66-6.52-7.42-9.43-.38-.4-.85-.72-1.28-1.08-.1-.97-.49-1.86-1.16-2.53-3.97-3.94-5.83-9.14-8.56-13.83-2.67-4.58-5.18-9.18-6.69-14.25-2.11-7.09-5.02-14.14-4.42-21.67,.45-5.62-.36-11.55,2.71-16.78,.58,.46,.72,1.12,.64,1.78-.57,4.21-.08,8.47-.81,12.7-.87,4.98,.88,9.73,2.19,14.41,3.05,10.83,8.59,20.47,14.96,29.66,3.66,6.65,8.91,12.14,13.34,18.23,3.44,4.74,5.53,9.89,5.84,15.92,.24,4.76,.19,9.56,1.15,14.32,.58,2.89,.33,5.99,1.11,8.92,.12,.46-.1,.92-.48,1.26Z"/>
      <path class="cls-10" d="M108.76,170.49c-3.69-4.18-6.33-9.05-8.86-13.95-2.53-4.91-5.05-9.87-6.32-15.3-1.37-5.86-3.54-11.54-2.02-17.86,.91-3.78-.13-7.87,.77-11.77,.38-1.33,.76-2.65,1.14-3.98,3.53-6.48,8.26-12.15,12.29-18.29,1.4-2.13,3.91-2.86,5.26-4.91,1.21,1.6,0,2.83-.67,4.1-.96,1.81-2.61,3.21-3.21,5.26-2.91,3.33-4.45,7.51-6.92,11.13-2.24,3.27-2.59,7.36-3.68,11.11-2.25,11.94-.86,23.42,4.1,34.52,2.19,4.92,4.54,9.74,7.46,14.26,.48,1.38,1.84,2.35,1.85,3.95-.06,.81-.35,1.46-1.19,1.72Z"/>
      <path class="cls-7" d="M106.5,93.49c.1-1.84,1.63-2.87,2.47-4.28,.91-1.51,2.05-2.89,2.06-4.78,2.06-3.87,4.23-7.68,6.15-11.62,1.06-2.17,1.91-4.49,2.49-6.83,1.49-6.08,2.45-12.26,3.36-18.47,.91-6.23,.93-12.71,3.85-18.55,.72,3.43,.19,6.93-.14,10.29-.47,4.7-.22,9.37-.42,14.04,.45,.69,.36,1.48,.21,2.19-2.22,10.49-4.47,20.98-11.5,29.6-1.54,1.89-3.08,3.77-4.48,5.78-.91,1.31-2.06,2.73-4.04,2.62Z"/>
      <path class="cls-136" d="M135.76,77.21c.03,5.32,.03,10.65,.11,15.97,.02,1.21-.36,2.17-1.06,3.08-8.3,2.77-14.95,7.95-19.56,15.19-3.75,5.89-4.62,12.79-3.83,19.79,1.38,12.27,8.4,20.48,18.85,26.24,2,.88,4.53,.39,6.09,2.4,.8,3.61,.43,7.27,.26,10.9-.1,2.17-2.21,2.74-4.56,1.51-5.15-2.69-9.92-5.96-14.37-9.68-4.32-3.95-7.89-8.53-11.01-13.45-1.65-2.6-2.73-5.52-3.28-8.59-.08-1.53,.35-3.14-.76-4.51-.14-.28-.24-.58-.29-.89-.15-4.73-.14-9.45-.02-14.17,.03-.3,.12-.6,.23-.88,1-1.2,.82-2.66,.88-4.07,.93-3.54,1.73-7.15,4.73-9.67,1.09-.88,2.12-1.8,2.22-3.35,.36-1.04,1.09-1.82,1.84-2.58,.59-.55,1.22-1.04,1.92-1.43,2.18-1.48,3.81-3.52,5.64-5.37,1.63-.95,2.22-3.56,4.79-3,1.93,.54,2.6-1.21,3.67-2.11,2.65-2.22,5.42-4.36,5.52-8.37,.03-1.14,.92-2.22,1.96-2.96Z"/>
      <path class="cls-78" d="M133.64,156.4c-8.7-4.33-14.8-10.9-17.63-20.32-4.32-14.39,.42-26.42,13.79-34.01,1.71-.97,3.51-1.79,5.27-2.67,1.59,1.32,1.77,4.71,.07,5.58-2.7,1.38-4.85,3.54-7.52,4.93-.21,.18-.44,.33-.68,.45-.88,.28-1.72,.64-2.33,1.38-6.52,7.49-8.97,15.82-5.3,25.42,.45,1.26,1.3,2.22,2.31,3.06,2.59,3.87,5.67,7.29,9.34,10.17,1.41,.98,3.18,1.12,4.61,2.02,1.13,.71,1.75,1.74,1.47,3.08-.3,1.39-1.33,1.68-2.59,1.41-.28-.14-.55-.3-.8-.49Z"/>
      <path class="cls-96" d="M126.92,109.9c2-2.46,4.77-3.89,7.4-5.48,2.07-1.25,2.39-2.93,.75-5.02,.4-.58,.92-.32,1.42-.2-.32,4.1,.56,8.23-.38,12.3-.4-.09-.61-.39-.73-.74q-.94-2.84-3.49-.88c-1.33,.75-1.99,2.59-3.89,2.44-.79-.61-.92-1.53-1.08-2.42Z"/>
      <path class="cls-71" d="M133.64,156.4c.26,0,.53,0,.79,.01,1.02,.7,2.78-.47,3.35,1.34,.69,5.8,.14,11.62,.33,17.43,.06,1.76-.27,3.57,.43,5.28,1.13,1.57-.75,2.72-.57,4.17-.52,.75-.88,2.09-2.04,.57-.78-4.26-.65-8.49,0-12.78,.62-4.14,.54-8.35,0-12.53-1.97-.6-4.03-.97-5.65-2.4,1.1-.43,2.75,.84,3.36-1.09Z"/>
      <path class="cls-151" d="M147.8,113.92c1.05,.25,2.02,.12,2.84-.64,.61,1.52-.58,1.82-1.54,2-1.83,.35-3.7,.53-5.37-.68-.32-4.98-.23-9.95,.07-14.93-.01-8.87-.03-17.73-.03-26.6,0-.84,.08-1.69,.12-2.53,.81,2.81,.27,5.7,.47,8.55,.37,.37,.36,.84,.34,1.31-.36,9.45,.92,18.86,.56,28.31-.05,1.22-.02,2.44,.48,3.58,.11,.65,.47,1.14,.94,1.58l1.1,.04Z"/>
      <path class="cls-124" d="M143.8,99.68c.04,4.9,.09,9.8,.13,14.69-.7,1.87-1.89,2.31-3.61,1.28,.03-.24,.07-.48,.1-.72,2.9-.18,2.67-2.55,2.82-4.37,.22-2.62,.04-5.26,.07-7.9,.01-1.01-.26-2.09,.49-2.99Z"/>
      <path class="cls-170" d="M142.81,45.36c.14,0,.29,.03,.43,.05,.01,4.85,.01,9.7,.06,14.56,0,.99-.33,2.07,.5,2.94,.04,.26,.08,.51,.12,.77-1.32-.17-1.15-1.16-1.15-2.07-.02-2.39-.05-4.78-.08-7.17,.05-3.02,.09-6.05,.14-9.07Z"/>
      <path class="cls-59" d="M140.32,115.65c1.47,.33,2.51-.57,3.61-1.28,1.65,.05,3.3,.15,4.95,.15,.82,0,1.73-.04,1.75-1.24,.07-.49,.14-.98,.2-1.47,.23-1,.89-.98,1.68-.75,1.5,.43,2.99,.89,4.18,1.97,1.04,1.07,2.06,2.17,3.41,2.85,2.2,1.1,2.99,3.21,3.89,5.27,4.63,7.78,1.74,18.25-3.89,21.78-1.44,.34-2.99,1.05-3.71-1.09,.16-1.54,1.09-2.81,1.52-4.26,.24-.61,.46-1.23,.63-1.87,.88-2.49-.23-4.72-.8-7.27-1.34,.88-1.05,2.08-1.22,3.1-.89,5.12-3.53,8.97-8.31,11.18-1.17,.54-1.75,1.63-2.65,2.43-1.18,.17-2.31-.18-3.05-1.01-.88-.99-.02-1.06,.58-1.11-.68-.26-1.42,.52-2.27,.43-1.53-.34-3.01-.44-4.22,.84-1.47,.71-2.36,2.45-4.26,2.41-4.72-2.99-8.29-6.8-9.57-12.48-.56-2.45,1.56-3.66,2.07-5.58,.27-1.65-.34-3.4,.58-4.98,.48-.48,.99-.6,1.55-.13,.53,.68,.26,1.44,.17,2.16-.28,2.13,1.09,3.05,2.72,3.72,1.43,.59,1.23-.54,1.28-1.35,0-.27,0-.54,0-.81,0-2.7,1.97-4.52,3.02-6.75,.56-1.41,2.07-1.71,3.07-2.61,1.02-.75,2.05-1.51,3.07-2.26Z"/>
      <path class="cls-184" d="M137.25,117.91c-.78,.93-1.56,1.86-2.34,2.8-.99,.86-1.55,2.07-2.45,3-.7,.73-1.56,1.09-2.51,.59-.88-.47-.9-1.35-.72-2.2,.3-1.45,.25-2.96,.85-4.35,.82-1.51,1.24-3.45,3.58-3.32-.04,.86,1.64,.75,.97,2.3-.37,.86,1.26,1.71,2.61,1.18Z"/>
      <path class="cls-183" d="M131.4,109.35c1.14-1.31,2.85-2.99,4.13-2.44,1.41,.61,.28,3,.58,4.59-.14,.61-.41,1.1-1.12,1.16-1.3-.22-1.59,1.7-2.94,1.39-2.97-.9-3.03-1.34-.65-4.7Z"/>
      <path class="cls-173" d="M132.57,113.32c.92,.18,1.32-1.51,2.42-.66-.44,.59-.88,1.18-1.32,1.77-1.24,.86-2.11,2.05-2.85,3.35-1.15,1.46-1.08,3.46-2.21,4.93-.47,.59-.64,1.52-1.67,1.47-.26-.44-.66-.64-1.16-.65-.09-.1-.18-.2-.28-.29-.44-1.29,.53-2.3,.68-3.47,1.56-2.7,3.8-4.74,6.39-6.43Z"/>
      <path class="cls-52" d="M124.61,90.64c-1.95,.55-2.55,2.88-4.5,3.42-.42,.33-.84,.31-1.27,.01-.58-1.45,.54-2.26,1.23-3.21,1.77-2.42,4.22-4.27,5.68-6.98,2.12-3.92,4.08-7.89,4.3-12.42,.26-5.52,2.26-10.87,1.48-16.47-.05-2.5-.21-5.01,.1-7.49,.13-1.05,.04-2.67,2.02-2.15,.02,4.91,.03,9.82,.05,14.73,0,2.73,.24,5.5-.07,8.2-.52,4.57-.69,9.23-2.28,13.62-.81,2.23-2.19,4.08-4.07,5.62-1.03,.84-2.55,1.42-2.65,3.12Z"/>
      <path class="cls-56" d="M133.63,45.36c-1.33,.3-1.06,1.38-1.07,2.28-.03,2.64-.03,5.28-.04,7.93-.77,1.7-.87,3.66-1.97,5.24-.53,.75-1.06,1.84-2.02,.35-1.03-5.12-.51-10.18,.6-15.22,1.13-4.9,2.25-9.8,3.38-14.7,.06-.68,.39-1.1,1.1-1.17,.03,2.27,.05,4.55,.08,6.82-.02,2.82-.04,5.65-.06,8.47Z"/>
      <path class="cls-150" d="M147.25,63.5c1.2,.53,1.14,1.59,1.14,2.64,0,7.53,.16,15.07-.08,22.59-.09,2.7-.53,5.4-.49,8.13-.85-1.07-.52-2.35-.53-3.53-.04-9.94-.04-19.89-.05-29.83Z"/>
      <path class="cls-46" d="M146.7,113.88l-1.62-.03c-.78-2.58-.34-5.22-.31-7.83,.05-4.02-.49-8.07,.3-12.07,.34,0,.67,0,1,0-.19,6.65,1.32,13.26,.62,19.93Z"/>
      <path class="cls-103" d="M145.07,93.95c0,6.63,0,13.27,0,19.9-.83-.63-.55-1.54-.56-2.35-.06-10.8-.1-21.61-.15-32.41,1.19,2.55,.44,5.25,.61,7.87,.15,2.32,.07,4.66,.08,6.98Z"/>
      <path class="cls-14" d="M168.21,68.58c3.69,10.26,9.17,19.47,16.18,27.79,2.15,2.55,3.21,5.73,4.86,8.57,4.14,7.13,5.96,14.92,6.5,23.03,.1,1.48-.04,3.17-.92,4.57-1.16-.8-1.54-2.09-1.26-3.25,.83-3.52-.59-6.46-2.05-9.42-.72-1.94-1.5-3.85-2.16-5.82-2.42-7.18-6.75-13.17-11.74-18.72-2.34-2.61-4.1-5.59-6.1-8.42-4.97-8.07-8.44-16.76-10.77-25.92-.31-1.22-.97-2.53,.12-3.74,2.61,1.91,3.12,5.18,4.9,7.64,.86,1.19,1.4,2.61,2.45,3.68Z"/>
      <path class="cls-172" d="M160.86,57.26c1.91,8.91,4.73,17.48,9.29,25.42,.75,1.3,1.35,2.68,2.02,4.02,1.03,2.28,2.79,4.35,2.04,7.14-1.77,.96-2.59-.54-3.38-1.52-3.21-3.96-5.78-8.34-8.17-12.82-.58-1.09-1.24-2.08-1.96-3.06-2.18-5.66-4.57-11.27-4.14-17.55,.22-2.35,.96-4.61,1.26-6.95,.11-.86,.49-1.63,1.34-2.05,1.25,2.3,.86,4.97,1.71,7.36Z"/>
      <path class="cls-126" d="M159.15,49.9c-.57,3.02-1.13,6.04-1.7,9.05-1.43-.02-1.46-1.26-1.74-2.16-.42-1.33-.8-2.67-1.3-3.98-.57-4.47-.2-8.98-.59-13.46-.2-2.32-.9-4.6-.61-6.96,.12-1.01-.12-2.1,.86-2.83,1.13,.93,2.25,1.86,3.38,2.79,.45,4.27,.79,8.55,1.4,12.79,.23,1.6,.21,3.17,.29,4.75Z"/>
      <path class="cls-182" d="M154.08,29.56c-.15,7.93,1.78,15.77,1.11,23.72,.64,1.32-.29,1.71-1.24,2.09-.52,.05-.98-.06-1.32-.5-.43-.91-.22-1.89-.28-2.84,0-5.3,0-10.6,0-15.89,0,5.35,0,10.7,0,16.06-.3,2.33,.84,4.7-.16,7.01-.22,.35-.51,.41-.86,.2,0-9.97-.02-19.94-.03-29.92,0-1.18-.07-2.37,1.67-2.24,.37,.77,.74,1.54,1.11,2.31Z"/>
      <path class="cls-156" d="M106.5,93.49c9.68-9.15,15.81-20.23,18.16-33.38,.41-2.3,1.09-4.54,1.65-6.82,.19,0,.38,0,.57,0,.84,.69,.91,1.66,.73,2.58-1.65,8.36-2.51,16.94-6.72,24.59-1.35,2.46-2.75,4.91-4.61,7.05-5.17,5.55-9.04,12.01-12.88,18.48-1.58,2.66-2.21,5.78-3.17,8.72-.4,1.23-.47,2.65-1.89,3.29-1.64,0-1.96-1.4-2.61-2.45,1.55-8.35,5.73-15.43,10.76-22.08Z"/>
      <path class="cls-132" d="M115.56,87.26c4.61-6.54,8.06-13.51,9.17-21.61,.57-4.13,1.9-8.15,2.15-12.36-.02-2.69,1.34-4.96,2.26-7.36,0,5.28,0,10.57,0,15.85,.98,.89,.95,2.06,.63,3.15-1.67,5.68-2.83,11.53-5.63,16.82-.49,.92-.95,1.84-1.76,2.53-1.66,.99-3.72,1.25-5.05,2.89-.41,.51-1.16,.61-1.78,.09Z"/>
      <path class="cls-177" d="M151.33,59.41c.14,.05,.28,.08,.43,.08,1.48,1.57,.68,3.51,.84,5.29,.11,1.19,.02,2.4,.02,3.6-.03,1.4,.07,2.8-.15,4.2-.71,5.89-.65,11.79-.01,17.68,.14,2.03,.71,4.03,.47,6.09-1.36,.12-2.27-.04-2.25-1.87,.11-10.39,.11-20.78,.15-31.17,.78-1.22,.15-2.62,.5-3.89Z"/>
      <path class="cls-133" d="M150.64,60.06c-.81-.12-1.05-.66-1.05-1.4-.01-4.12-.03-8.25-.06-12.37,0-.83,.19-1.31,1.13-.91,0,4.89-.01,9.79-.02,14.68Z"/>
      <path class="cls-133" d="M150.67,36.25c-1.65-1.1-1.68-2.19,0-3.27,0,1.09,0,2.18,0,3.27Z"/>
      <path class="cls-165" d="M151.79,72.54c0-1.32,0-2.64,.01-3.97,.5-.65,.18-1.42,.31-2.12,.11-.63,.36-1.04,1.07-.58,1.02,1.63,.41,3.44,.59,5.16,.15,3.74-.11,7.46,.85,11.21,.74,2.9,2.21,5.13,4.51,6.55,3.36,2.07,6,4.87,8.58,7.66,6.59,7.11,13.11,14.32,15.01,24.4,.76,4.05,.66,8.05,.32,12.09-.14,1.6-.36,3.18,.09,4.76,.46,2.49-1.63,4.59-1.06,7.09,.42,2.5-1.99,3.73-2.58,5.77-.8,1.16-2.16,2.02-2.06,3.69-1.06,2.72-3.9,4.11-5.03,6.78-.79,.63-1.83,.87-2.55,1.65-3.8,4.14-8.57,7.07-13.03,10.39-.9,.53-.76,1.43-.8,2.26-.03,.84-.05,1.68-.33,2.5-1,2.9-2.14,3.13-4.15,.84-.26-.15-.5-.33-.72-.54-.34-.34-.6-.73-.77-1.18-.1-.32-.16-.64-.18-.98-.08-3.55,0-7.09-.05-10.64-.03-2.13,.06-4.05,3.03-3.76,.42,.04,.85-.35,1.22-.64,5.01-2.38,9.65-5.22,13.43-9.44,6.57-7.34,9.79-15.83,8.65-25.58-1.69-14.46-9.96-24.04-23.21-29.58-1.93-1.58-.87-3.77-1.17-5.68-.41-6.04-.44-12.08,.02-18.11Z"/>
      <path class="cls-27" d="M154.07,160.93c-.11,.26-.22,.73-.33,.73-3.51,.04-3.13,2.45-3.09,4.82,.06,3.46-.05,6.93-.08,10.4-.36,.11-.7,.08-1.03-.09-.79-.67-.98-1.61-1-2.55-.13-5.56-.15-11.13,.01-16.69,.02-.66,.19-1.31,.52-1.88,1.12-.47,2.17-1.14,3.44-1.27,2.86-.29,4.94-1.94,6.78-3.98,2.75-2.45,5.27-5.08,6.55-8.65,.43-1,.84-2.02,1.47-2.92,.96-.8,.59-2.05,.99-3.04,.1-.39,.28-.75,.43-1.11,2.65-4.63,1.3-9.31,.15-13.98-.22-.91-.71-1.71-1.45-2.34-.98-1.17-2.15-2.21-2.55-3.77-.07-.41-.03-.82,.09-1.21,.56-.84,.47-2.1,1.63-2.57,6.18,8.25,7.71,17.45,4.48,27.09-3.03,9.03-8.84,16.03-17.77,19.98-1.36,.6-2.51,1.33-2.06,2.79,.54,1.77,1.88-.09,2.83,.26Z"/>
      <path class="cls-122" d="M166.59,110.82c-.79,.63,.5,2.18-1.09,2.46-1.27-.22-1.97-1.52-3.25-1.72-1.99-.73-2.88-2.97-4.96-3.59-1.05-.98-2.23-1.68-3.69-1.91-1.15-.18-2.14-.7-2.78-1.74-.26-6.25-.16-6.42,5.27-3.33,4.23,2.41,8.01,5.48,10.5,9.84Z"/>
      <path class="cls-3" d="M156.27,113.35c-1.8-.56-3.33-2.03-5.43-1.54-.02-1.74-.04-3.49-.06-5.23,2.54-1.74,4.01,.61,5.86,1.52,1.2,.77,2,1.86,2.57,3.15,.14,2.78-.19,3.01-2.94,2.09Z"/>
      <path class="cls-68" d="M156.26,108.66c-1.83-.68-3.22-2.52-5.48-2.08,.02-.76,.03-1.51,.05-2.27,2.23,1.15,5.29,.52,6.8,3.21-.13,.77-.84,.85-1.36,1.15Z"/>
      <path class="cls-37" d="M108.76,170.49c.19-.57,.38-1.13,.57-1.7,1.45-.36,2.03,.7,2.6,1.65,3.6,6,8.59,10.89,12.87,16.35,3.44,4.39,5.18,9.51,5.84,15.04,.56,4.68,.67,9.38,.51,14.07-.06,1.61,.97,2.56,1.53,3.79,.15,1.78,.24,3.56-.05,5.33-.03,.15-.06,.29-.1,.44,.37,.74,.75,1.49,1.12,2.23-1.55-.17-2.45,.31-2.27,2.09,.08,.81-.04,1.63-.07,2.45-1.81-.69-.75-2.27-1.05-3.42-2.41-8.63-2.16-17.55-2.81-26.37-.36-4.83-2.34-9.04-5.06-12.87-4.26-6.02-9.51-11.3-13.14-17.78-.22-.4-.33-.86-.49-1.29Z"/>
      <path class="cls-106" d="M144.97,258.25c.02-3.21,.03-6.42,.05-9.63,.48,.11,1.02,.31,.98,.84-.23,2.94,.02,5.95-1.03,8.79Z"/>
      <path class="cls-91" d="M139.37,223.69c-2.28,.59-4.56,1.18-6.84,1.77,0,0,.11-.16,.11-.16-1.36-5.92,.54-8.2,7.7-9.25,.78,.09,1.6,.04,2.28,.57,.53,2.21-.13,4.36-.29,6.54-.9,.61-2.05-.12-2.95,.53Z"/>
      <path class="cls-55" d="M155.04,219.74c-3.58-.77-5.41,.25-6.08,3.4-.94,0-1.88,.01-2.81,.02-1.15-1.15-.94-2.55-.6-3.89,.25-.99,.44-1.96,.47-2.97,.61-.69,1.46-.82,2.25-.66,2.12,.43,1.61-.86,1.39-2,.13-1.85-.37-3.81,.95-5.46,.81-.49,1.6-.48,2.4,.02,.93,.94,.65,2.18,.79,3.31,.07,1.68,.59,3.26,1.06,4.87,.31,1.06,1.23,2.2,.18,3.37Z"/>
      <path class="cls-50" d="M146.08,216.47c.14,.63,2,.25,1.03,1.34-1.48,1.67-.73,3.56-.96,5.34-2.24,.41-4.49,.73-6.78,.54,.77-.8,1.82-.43,2.73-.64,.96-1.96,1.73-3.94,.61-6.11-.74-.05-1.48-.09-2.22-.14,1.01-2.09,2.88-1,4.4-1.19,.51,.13,.95,.36,1.19,.87Z"/>
      <path class="cls-140" d="M155.04,219.74c-.64-2.66-2.43-5.03-1.97-7.95,.87-2.22-.03-4.44-.01-6.65,.02-2.52-.24-5.05,.28-7.55,1.29-2.43,2.27-4.97,2.18-7.78-.05-1.55,1.11-2.54,1.62-3.83,2.15-5.4,5.52-10.06,8.85-14.74,2.37-3.33,5.84-5.59,8.48-8.67,4.61-5.36,9.13-10.78,12.28-17.16,.96-1.94,2.21-3.69,3.05-5.72,2.29-5.6,2.33-11.36,1.79-17.22-.09-1-.48-2.07,.42-2.94,1.79,2.89,3.52,5.73,2.38,9.44-.32,1.05,.27,2.38,.45,3.58-.6,4.27-1.64,8.39-3.32,12.41-2.31,5.49-6.23,9.95-9.26,14.97-2.23,3.7-5.65,6.68-8.48,10.02-5.5,6.5-10.79,13.08-14.12,21.12-2.78,6.71-3.71,13.67-4.44,20.75-.23,2.24,.94,4.02,1.86,5.9,.99,2.02,.38,3.14-1.62,3.15-.13-.38-.27-.75-.4-1.13Z"/>
      <path class="cls-99" d="M95.74,115.57c.96,.55,1.71,1.3,2.26,2.26,.91,.95,.53,2.11,.53,3.22,.02,6.09-.74,12.22,1.07,18.22,.38,1.27,.79,2.51,1.57,3.59,.3,.55,.45,1.14,.47,1.76,.01,.85,.05,1.77,.48,2.47,2.87,4.59,4.43,9.86,7.63,14.3,2.85,3.95,5.63,7.94,8.58,11.81,.51,.68,.93,1.42,.99,2.3-.1,1.2-.47,2.35-1.76,2.58-1.53,.28-1.73-1.21-2.19-2.15-1.97-3.97-4.87-7.24-7.73-10.54-4.99-6.74-8.46-14.32-10.75-22.25-2.59-8.98-3.48-18.27-1.14-27.57Z"/>
      <path class="cls-36" d="M107.64,165.39c1.02-.16,2.08-.88,2.42,1.07,.3,1.72,1.35,3.16,2.93,4.28,1.44,1.02,2.17,2.73,2.75,4.46,.3,.88,.16,2.31,1.54,2.39,1.23,.07,.89-1.51,1.68-2,1.12-.4,1.81,.34,2.43,1.01,5.22,5.77,9.7,11.96,10.85,19.93,.15,1.07,.9,1.86,1.05,2.9,.29,5.89,.3,11.78,.43,17.67,.03,1.28-.3,2.33-1.68,2.74-1.56-.77-1.87-2.03-1.78-3.69,.29-5.25,.17-10.54-.63-15.71-.73-4.71-2.32-9.3-5.44-13.07-4.4-5.34-9.24-10.32-12.8-16.31-.53-.89-1.04-1.8-2.04-2.26,.04-1.44-1.75-1.96-1.7-3.4Z"/>
      <path class="cls-127" d="M133.13,217.48c-.89-.84-.57-1.93-.58-2.93-.03-5.25-.02-10.51-.02-15.76-.87-1.23-.69-2.67-.9-4.05-.7-4.53-2.57-8.88-5.31-12.23-3.78-4.64-7.27-9.54-11.28-14.01-3.62-4.05-6.69-8.51-8.92-13.53-1.2-2.7-3.22-5.04-3.23-8.23,0-1.12-1.49-1-2.06-1.73,0-.56,0-1.13-.01-1.69-1.88-5.1-2.62-10.37-2.04-15.78,.19-1.82,.42-3.94,3.2-3.64,1.04,1.63,.34,3.45,.54,5.18,.26,2.29-.56,4.66,.55,6.88h.01c1.24,1.28-.1,3.22,1.14,4.51,1,4.59,3.22,8.56,5.97,12.34,2.35,3.23,5.3,5.92,7.65,9.12,2.76,4.59,5.89,8.94,9.72,12.65,4.17,4.04,5.89,9.05,7.03,14.47,.58,2.78,.85,5.49,.08,8.32-1.08,4,1.13,7.67,1.49,11.54,.4,2.61-.19,5.12-.68,7.65-.47,1.13-1.18,1.67-2.37,.92Z"/>
      <path class="cls-47" d="M101.94,124.05c-2.18,.52-2.04,2.28-2.26,3.97-.67,5.19,1.33,10.16,1.15,15.29-2.88-2.56-3.08-6.22-3.26-9.54-.28-5.29-.63-10.66,.43-15.95,1.88-2.24,1.93-5.22,2.83-7.81,.9-2.6,2.06-4.99,3.46-7.24,3.39-5.42,6.6-11.01,11.26-15.52,2.17-.96,3.6-3.27,6.22-3.4,.81,1.09-.05,1.72-.71,2.35-4.25,4.05-6.5,9.23-8.36,14.63-.56,.76-1.12,1.51-1.69,2.27-.8,1.1-1.5,2.27-2.27,3.39-2.36,2.81-3.57,6.16-4.53,9.63-1.13,1.12,0,2.86-1.11,3.98h0c-1.13,1.1,.03,2.87-1.17,3.95Z"/>
      <path class="cls-142" d="M135.46,208.49c-.54-3.08-2.5-5.84-1.83-9.23,.32-1.62,.53-3.33,.68-4.94,.23-2.39-.56-4.89-.97-7.33-1.19-6.99-6.19-11.53-10.63-16.41-1.57-1.73-2.04-4.28-4.5-5.43-.88-.41-.32-2.1-.35-3.22,4.92,2.88,9.12,6.86,14.31,9.37,1.07,.52,1.98,1.16,3.08,.68,1.1-.48,.68-1.64,.69-2.52,.04-3.19,0-6.39-.01-9.58,.94,.41,.64,1.27,.65,1.96,.03,7.96,.02,15.93,.02,23.89,.96,2.91,.17,5.87,.22,8.81-.01,.33-.03,.66-.03,.98-.02,1.64,.07,3.28,0,4.92,.01,1-.05,2,.15,2.99-.22,1.76,.79,3.88-1.47,5.05Z"/>
      <path class="cls-152" d="M112.71,100.84c-.69-.57-.81-1.49-.44-2.05,1.7-2.59,2.53-5.58,4.09-8.26,1.49-2.57,3.89-4.23,5.41-6.67,4.23-6.77,6.17-14.3,7.37-22.08,1.35-1.95,1.43-4.59,3.38-6.22-.73,9.15-.59,18.43-4.92,26.95-1.64,3.22-4.02,5.78-6.35,8.42-.85,.97-1.9,1.81-2.3,3.12-.95,2.33-3.47,3.38-4.57,5.59-.56,.4-1.11,.8-1.67,1.2Z"/>
      <path class="cls-22" d="M101.94,124.05c.25-1.36-.57-3.03,1.17-3.95,0,5.29-.02,10.57-.03,15.86-1.47-.33-1.08-1.53-1.09-2.48-.05-3.14-.03-6.29-.04-9.43Z"/>
      <path class="cls-74" d="M114.38,99.63c.09-3.04,2.82-3.92,4.57-5.59,.39,0,.77,.01,1.16,.02-1.49,2.29-3.27,4.28-5.73,5.57Z"/>
      <path class="cls-30" d="M104.24,140.48c-2.17-1.06-.75-3.02-1.14-4.52,2.17,1.06,.74,3.02,1.14,4.52Z"/>
      <path class="cls-40" d="M108.76,106.5c-.15-1.74,.63-2.85,2.27-3.39,.21,1.77-.63,2.85-2.27,3.39Z"/>
      <path class="cls-22" d="M103.11,120.11c.26-1.36-.88-3.11,1.11-3.98-.26,1.36,.83,3.09-1.11,3.98Z"/>
      <path class="cls-134" d="M126.92,109.9c1.39,.28,.99,1.4,1.08,2.29,.48,1.19-.38,1.93-1,2.69-1.24,1.52-2.29,3.15-3.06,4.96-1.23,2.19-1.67,4.61-2.08,7.04-.72,5.49,.81,10.38,3.9,14.87,1.94,2.83,4.7,4.85,7.11,7.22,.12,.29,.17,.6,.15,.91-.47,1.55-1.45,1.48-2.62,.83-3.85-2.65-7.1-5.85-9.21-10.09-1.18-1.44-1.71-3.26-2.69-4.82,.18-2.13-1.19-3.95-1.21-6.03-.04-4.17,1.09-8.08,2.93-11.77,1.03-2.06,1.92-4.26,3.82-5.77,.86-.88,1.79-1.69,2.79-2.4l.11,.06Z"/>
      <path class="cls-130" d="M124.66,112.23c-3.69,4.24-5.49,9.28-6.53,14.72-.59,3.1,.97,5.87,.91,8.85,.36,.67,.49,1.33-.15,1.92-2.12-4.22-2.78-8.75-1.89-13.29,.69-3.52,2.39-6.78,4.17-9.95,.85-1.51,1.84-2.79,3.45-3.51,.32,.41,.34,.82,.04,1.25Z"/>
      <path class="cls-88" d="M130.39,150.7c.87-.17,2.03,.27,2.34-1.1,1.43-.28,2.97-.18,4.13-1.31,1.09,.64,1.07,1.7,.84,2.68-.22,.95-.08,1.82,.11,2.72,.11,1.13,.25,2.28-.76,3.14-.99,.58-1.87,.49-2.62-.42,.91-.04,2.05,.2,2.01-1.26-.03-1.08-.42-1.91-1.64-2.3-1.56-.5-3.36-.59-4.41-2.15Z"/>
      <path class="cls-53" d="M118.9,137.73c.05-.64,.1-1.28,.15-1.92,1.45,1.27,1.6,3.12,2.14,4.8-1.33-.51-2.02-1.52-2.28-2.88Z"/>
      <path class="cls-174" d="M124.66,112.23c-.01-.41-.03-.83-.04-1.25,.31-1.18,1.25-1.17,2.19-1.15-.62,.89-.93,2.05-2.15,2.4Z"/>
      <path class="cls-82" d="M123.45,119.29c.71-2.89,2.94-4.8,4.55-7.11,1.13-.94,2.27-1.89,3.4-2.83-.07,.44,0,1-.24,1.3-1.69,2.07-.7,2.65,1.41,2.67-1.33,2.73-4.4,4-5.71,6.75-.18,.21-.35,.44-.53,.66-.69,.83-1.2,2.31-2.53,1.74-1.54-.67-.71-2.05-.36-3.18Z"/>
      <path class="cls-115" d="M137.05,156.83c-.02-1.1-.03-2.19-.05-3.29-.55-1.76,.97-3.15,.88-4.85-.02-.43,.52-.83,1-.86,.68-.04,.93,.53,1.09,1.07,.22,.73,.19,1.49,.19,2.24,.01,8.95,.04,17.89-.03,26.84,0,1.17,.56,2.77-1.33,3.25-1.95,.12-1.7-1.27-1.7-2.48-.02-7.31-.04-14.62-.06-21.93Z"/>
      <path class="cls-157" d="M136.02,194.92c.08-3.07-.44-6.18,.57-9.19,.37-.54,.74-1.07,1.11-1.61,.12-1.37,1.37-1.9,2.09-2.83,.31-.33,.7-.53,1.14-.63,.81-.11,1.56-.03,2.11,.68,.08,4.09,.57,8.25-1.77,11.99-1.05,.91-2.26,1.53-3.57,1.97-.62,.13-1.19,.05-1.69-.38Z"/>
      <path class="cls-24" d="M139.88,181.84c-.73,.76-1.45,1.53-2.18,2.29-1.3-1.6,.6-1.97,1.1-2.88,.54-.51,.51-1.18,.51-1.84,0-10.07,0-20.14,0-30.21,0-.26-.13-.52-.37-1.38-.76,2.24-1.35,3.98-1.95,5.73-1.34-1.6,.89-3.51-.44-5.11-1.41-1.44-1.24-2.97-.25-4.55,.76-3.16,2.57-1.52,4.15-.9,.8,1.39,.59,2.93,.52,4.41-.52,10.13-.12,20.26-.24,30.39-.02,1.42,.02,2.83-.86,4.05Z"/>
      <path class="cls-62" d="M145.45,144.86c.26-.93-.02-2.04,1.35-2.49,5.31-1.72,7.79-5.83,9-10.95,1.18-1.51,2.09-.67,2.78,.43,.81,1.28,1.14,2.71,.65,4.22,.04,.61-.02,1.19-.55,1.61-1.84,3.46-5.7,5.21-7.39,8.8-.46,.71-.42,1.6-.84,2.33-.31,.54-.7,.98-1.36,1.08-.82,.01-1.43-.36-1.96-1.13,.04,8.83,.02,17.56,0,26.28,0,1.4,.15,2.83-.59,4.14-.22,.32-.51,.45-.89,.39-.99-.72-.9-1.81-.91-2.82-.04-9.86-.01-19.71-.02-29.57,0-.87,.03-1.69,.72-2.33Z"/>
      <path class="cls-116" d="M136.98,129.1c.03-4.23,3.49-7.76,7.66-7.8,3.72-.04,6.65,2.83,6.71,6.56,.06,4.18-4.01,8.53-7.88,8.43-3.56-.09-6.51-3.37-6.48-7.2Z"/>
      <path class="cls-87" d="M145.45,144.86c.61,4.95,.18,9.91,.22,14.86,.04,5.72-.11,11.44-.18,17.15-.01,.93-.16,1.89,.6,2.65-.15,1.07-.71,.91-1.37,.47-.93-1.33-.75-2.88-.75-4.36-.03-7.42,0-14.85-.03-22.27,0-.99,.22-2.01-.24-3.02-1.91,1.13-2.18,2.9-2.17,4.85,.02,7.24,.03,14.47,0,21.71,0,1.48,.19,3.04-.92,4.3-.24,.22-.47,.43-.71,.65,.07-12.32,.13-24.64,.22-36.95,0-.63,.24-1.27,.37-1.9,1.26-.05,2.53-.11,3.84-.17-.23,.97-1.12,.06-1.33,.84,.84,.15,1.98,.07,2.46,1.2Z"/>
      <path class="cls-145" d="M132.57,149.29c-6.96-4.55-11.29-10.72-11.73-19.24-.06-1.09-.32-2.24,.34-3.28,.42,.24,.61,.65,.72,1.09,.44,1.71,.86,.29,1.28-.01,1.84-1.49,1.82,.65,2.56,1.31-.03,.18-.04,.37-.09,.55-.46,1.45-2.85,1.95-2.1,3.93,1,2.64,1.44,5.58,3.59,7.65,1.77,1.7,3.65,3.27,5.49,4.9,.81,1.05,.87,2.08-.05,3.1Z"/>
      <path class="cls-137" d="M159.65,142.69c4.02-3.87,6.01-8.54,5.73-14.18-.13-2.65-1.46-4.88-2.18-7.32,.83-1.02-.31-2.67,1.12-3.5,2.04,.61,2.19,2.57,2.89,4.11,.58,1.26,.63,2.7,1.1,4.02,.73,6.97-1.26,13.09-5.75,18.43-1.07,.66-2.08,.7-3.01-.25-.22-.45-.24-.89,.09-1.31Z"/>
      <path class="cls-158" d="M164.25,117.79c-.34,1.14,.79,2.73-1.05,3.4-.97-2.48-2.7-4.25-4.97-5.62-.8-.48-1.75-1.1-1.96-2.22,1.68,.14,3.01-.06,2.18-2.31,.3-.24,.64-.4,1.02-.27,2.29,.78,4.99,4.76,4.78,7.02Z"/>
      <path class="cls-26" d="M128.08,122.37c.73-1.64,1.36-3.34,2.73-4.59-.25,1.47-.48,2.94-.77,4.4-.12,.63-.58,1.31,.28,1.7,.74,.34,1.22-.28,1.73-.67,1-.77,1.43-2.2,2.85-2.5-.78,2.33-2.92,4.08-2.93,6.75-2.18,1.09-3.14-.5-4.18-1.9-.54-1.12-.01-2.15,.28-3.19Z"/>
      <path class="cls-164" d="M132.57,149.29c.02-1.03,.03-2.07,.05-3.1,1.44-.43,1.84-2.54,3.7-2.3,.08,1.52,.16,3.03,.25,4.55-.62,2.83-.73,2.86-3.84,1.16-.06-.09-.11-.2-.15-.31Z"/>
      <path class="cls-16" d="M128.08,122.37c.5,.96-.39,1.88-.08,2.83,.3,2.41,2.28,2.44,4,2.83v3.11c-5.13-1.61-6.55-2.77-5.07-6.97,.38-.6,.77-1.2,1.15-1.81Z"/>
      <path class="cls-178" d="M159.65,142.69c.03,.4,.05,.79,.08,1.19,.62,2.05-1.02,2.74-2.25,2.62-1.67-.16-3.33,.31-4.97-.11-.07-2.34,1.56-4.16,4.35-4.84,.29,1.96,2.12,.13,2.79,1.14Z"/>
      <path class="cls-94" d="M159.23,136.07c-.6-1.95,.23-4.95-3.43-4.65,.34-1.53-.53-4.16,1.55-4.24,2.43-.09,1.69,2.68,1.97,4.28,.26,1.5,1.09,3.11-.09,4.61Z"/>
      <path class="cls-110" d="M156.86,141.55c-1.54,1.52-3.08,3.05-4.62,4.57-.54,.49-1.08,.49-1.6-.02,1.77-3.67,5.14-5.82,8.04-8.42-.09,1.53-1.21,2.58-1.82,3.86Z"/>
      <path class="cls-38" d="M132,128.03c-3.05,.61-4.47-.39-4-2.83,1.29,.82,2.2,2.31,3.98,2.26,0,.19,.01,.38,.02,.57Z"/>
      <path class="cls-173" d="M125.74,129.15c-1.11,.35-.88-1.92-2.22-1.13-.32-2.03-.26-3.87,2.21-4.55,0,0,.05,.04,.05,.04-.01,1.88-.03,3.76-.04,5.63Z"/>
      <path class="cls-181" d="M125.73,123.48c-1.66,1.07-.96,3.28-2.21,4.55-.07,.45-.08,.93-.24,1.34-.24,.61-.71,1.25-1.38,1.18-.87-.1-.62-.97-.66-1.57-.05-.73-.04-1.47-.06-2.2-.17-2.77,.69-5.23,2.27-7.47,.07,.89,.15,1.79,.22,2.73,1.55-.19,1.89-1.84,3.19-1.95-.38,1.13-.76,2.27-1.13,3.4Z"/>
      <path class="cls-120" d="M192,119.53c.98,4.71,1.19,9.52,.43,14.19-.56,3.4-1.66,6.78-3.66,9.87-2.07,3.2-3.43,6.87-5.84,9.91-4.41,5.58-8.91,11-14.15,15.93-4.44,4.18-7.29,9.89-10.31,15.33-1.9,3.42-1.68,7.17-3.15,10.56-.3,.7-.49,1.42-1.22,1.81-1.22-1-.91-2.37-.9-3.67-.15-.93-.03-1.83,.25-2.71,.52-.96,1.04-1.92,1.19-3.02,.09-.26,.21-.51,.34-.74,.6-6.65,5.3-11.13,8.53-16.42,2.32-3.8,5.06-7.13,8.62-9.78-.17-1.89,1.41-2.7,2.39-3.88,.76-.92,1.86-1.56,2.21-2.81,.66-.99,1.31-1.99,2.2-2.8,2.98-4.03,4.88-8.69,7.15-13.08,2.65-5.15,2.75-11.02,1.73-16.81-1.64-9.2-6.57-16.67-12.38-23.68-.87-1.05-2.14-1.96-1.54-3.65,.01-2.58-1.14-4.9-1.7-7.35,3.82,6.01,8.92,11.04,12.92,16.94,3.34,4.93,5.12,10.37,6.9,15.89Z"/>
      <path class="cls-138" d="M173.88,94.05c2.46,3.31,4.83,6.68,7.39,9.9,3.45,4.35,5.23,9.43,6.79,14.65,1.69,5.67,1.11,11.26,.12,16.99-.48,2.77-2.28,4.48-3.53,6.6-.58,.99-.87,1.91-1.22,2.95-.86,2.57-2.84,4.51-4.45,6.66-.32-.38-.34-.78-.06-1.19-.04-1.06,.24-1.99,1.11-2.69,.93-.75,1.31-1.74,1.2-2.92,.62-2.42,1.96-4.67,1.71-7.3-.09-1.4,.68-2.5,1.25-3.67,.3-.47,.67-.91,.71-1.51,.52-8.44,.21-16.78-4.65-24.11-3-4.52-6.5-8.71-9.91-12.95-2.65-3.29-5.13-6.72-7.6-10.15-.83-1.15-1.45-2.42-1.6-3.87-.12-1.66-1.29-3.38,.28-4.95,.98,.5,1.31,1.44,1.85,2.33,3.2,5.3,5.62,11.16,10.61,15.22Z"/>
      <path class="cls-61" d="M161.42,76.5c-.25,1.75,.41,3.39,.56,5.1-1.34,.3-1.74-.79-2.31-1.6-2.75-3.91-4.27-8.41-6.17-12.74-.33-3.04-.33-6.08-.28-9.13,.02-1.1-.07-2.24,.82-3.12,.37-.58,1.18-.88,1.14-1.73,1.68,1.52,.97,3.99,2.26,5.67-.39,6.24,2.22,11.8,3.96,17.55Z"/>
      <path class="cls-177" d="M151.81,52.16V31.68c.37,0,.74-.01,1.11-.02v20.5c-.37,.33-.74,.33-1.11,0Z"/>
      <path class="cls-177" d="M154.05,55.01c.01,4.33,.02,8.66,.04,13,.5,.84,.85,1.7,.41,2.69-.36,.58-.82,.97-1.57,.71,0-1.88-.01-3.77-.02-5.65-.86-3.6-.91-7.2,.03-10.79,.37,.01,.74,.03,1.11,.04Z"/>
      <path class="cls-125" d="M152.94,54.97c-.01,3.6-.02,7.2-.03,10.79-.97,.7-.11,2.12-1.11,2.81-.01-3.03-.02-6.06-.03-9.09,.01-2.44,.03-4.88,.04-7.32,.37,0,.74,0,1.11,0,0,.94,.01,1.87,.02,2.81Z"/>
      <path class="cls-125" d="M151.79,72.54c0,6.04-.01,12.08-.02,18.11-1.21-3.24-.43-6.6-.47-9.9-.03-2.73-.69-5.54,.49-8.21Z"/>
      <path class="cls-121" d="M152.93,71.41c.37-.19,.75-.37,1.12-.56,1.34,1.95,1.72,4.3,2.58,6.44,2.83,7.03,7.86,12.29,12.82,17.73,5.63,6.17,11.35,12.38,14.21,20.42,.91,2.55,1.8,5.34,1.55,8.22-.31,3.52,.64,7.12-.56,10.6,.28,1.35-1.07,2.16-1.13,3.4-.38,.33-.76,.33-1.14,0-.73-1.32-.66-2.72-.41-4.13,1.17-6.63,.29-13-2.28-19.19-1.8-4.34-4.51-8.04-7.63-11.5-2.73-3.05-5.6-6-8.32-9.01-2.14-2.36-4.93-3.56-7.1-5.75-2.62-2.65-3.12-5.81-3.61-9.02-.39-2.48-.08-5.08-.08-7.62Z"/>
      <path class="cls-11" d="M150.71,208.35c-.38,1.89,.51,3.93-.62,5.74-2.06,.58-2.37-.95-2.58-2.31-.33-2.13-.18-4.29-.14-6.43,.06-2.82-.11-5.6-1-8.29-.23-1.6-.7-3.19-.36-4.84,.69-1.93,1.64-3.75,2.63-5.53,1.01-1.81,1.35-3.63,1.16-5.62-.11-1.28-.22-2.56,.82-3.57,.39-.13,.52,.12,.62,.41,.99,.96,.77,2.21,.81,3.4,.07,2.21-.23,4.45,.49,6.61,.3,1.87,.36,3.75,.08,5.64-.03,.51-.06,1.03-.24,1.52-1.56,2.89-.64,6.02-.89,9.03-.12,1.44,.43,3.01-.78,4.25Z"/>
      <path class="cls-139" d="M172.12,160.76c-3.74,4.33-6.98,9.01-10.18,13.77-2.52,3.75-5.59,7.01-5.67,11.85-.01,.67-.48,.98-1.1,1.08-1.54-1.78-1.29-3.93-.71-5.82,.84-2.69,1.47-5.35,1.34-8.18-.02-.48,.23-.89,.54-1.25,4.35-3.11,8.96-5.89,12.66-9.84,.84-.9,1.73-1.74,3.11-1.6Z"/>
      <path class="cls-69" d="M156.35,172.2c.79,5.18-1.68,10.1-1.17,15.26,0,0,0,0,0,0-.9,.75-.23,2.09-1.06,2.87-.03,.93-.05,1.86-.08,2.78-.53,1-1.24,1.33-2.23,.61-.06-1.91-.11-3.82-.17-5.72-.12-3.37-.38-6.74,.16-10.1,1.36-.13,.82,1.52,1.78,1.91,1.14-1.44,1.75-2.98,1.65-4.86-.05-.99-.59-2.39,1.12-2.74Z"/>
      <path class="cls-72" d="M146.78,191.97c-.24,1.56,.09,3.06,.47,4.56-2.32-.23-1.91-2.67-3.09-3.82,.85-3.79,1.15-7.54-.79-11.13-.13-.55-1.16-.93-.38-1.63,.64-.57,1.37-.41,2.05,.02,.44,.07,.81-.02,1.05-.44,.05-.21,.09-.41,.14-.62,1.1-.92,2.23-1.77,3.75-1.78,.2-.08,.4-.16,.59-.24,.02,.21,.04,.41,.05,.62,.02,1.25,.03,2.5,.05,3.75-1.02,3.68-3.34,6.88-3.9,10.73Z"/>
      <path class="cls-81" d="M182.36,137.65c.38,0,.76,0,1.14,0,.04,2.7-.13,5.33-2.28,7.35-.67-2.61,1.42-4.8,1.14-7.35Z"/>
      <path class="cls-105" d="M151.8,177.9c-.05,3.37-.1,6.73-.16,10.1-.89-3.33-.18-6.72-.39-10.08,.18-.05,.37-.05,.55-.02Z"/>
      <path class="cls-148" d="M178.92,150.61c.02,.4,.04,.79,.06,1.19-.37,1.13-1.03,1.98-2.25,2.28-.18-1.74,.62-2.85,2.2-3.47Z"/>
      <path class="cls-17" d="M149.98,177.12c-.97,1.19-2.3,1.63-3.76,1.78,0-11.14,0-22.29,0-33.43,1.44,1.27,.71,3.82,3.23,4.06,1.37,1.12,.96,2.77,1.25,4.21-.07,.47-.25,.88-.67,1.15-.48,7.41-.51,14.82-.06,22.23Z"/>
      <path class="cls-34" d="M164.25,117.79c-1.32-2.77-2.92-5.32-5.8-6.75-.98-.56-1.07-1.94-2.19-2.38,.11-.79,.69-1.03,1.36-1.15,2.44,0,2.85,2.89,4.91,3.42,1.33,.9,2.02,2.32,2.91,3.58,.72,1.02,1.45,2.03,2.17,3.05,1.3,1.87,1.97,3.92,1.84,6.21,0,1.38-.19,2.58-2.07,2.07-.87-2.75-1.19-5.71-3.13-8.05Z"/>
      <path class="cls-39" d="M167.38,125.84c1.63-.17,1.33-1.49,1.5-2.53,2.37,2.7,1.59,5.78,1.04,8.82-.21,1.15-.91,2.21-.58,3.45-.05,.16-.15,.29-.3,.38-1.34,.74-.17,2.74-1.7,3.4,.13,.82-.22,1.45-.83,1.95-.97,2.22-1.93,4.45-4.31,5.59-.41-.49-.98-.71-1.56-.91-.43-1.25,1.09-1.29,1.32-2.12,4.13-5.31,6.21-11.23,5.41-18.02Z"/>
      <path class="cls-44" d="M169.35,135.58c-.9-.82-.28-1.72-.16-2.61,.46-3.23,.97-6.48-.31-9.66,.37-2.09-1.3-3.73-1.27-5.75,3.09,2.29,2.6,5.96,3.32,9.09,.71,3.1-.35,6.07-1.59,8.93Z"/>
      <path class="cls-29" d="M150.03,154.89c.02-.23,.04-.46,.06-.68,.15-.24,.34-.45,.56-.63,2.85-.81,5.11-2.98,8.08-3.51,.45,.07,.83,.26,1.09,.66-2.06,3.75-5.74,4.4-9.48,4.89-.07,0-.2-.47-.3-.72Z"/>
      <path class="cls-1" d="M159.82,150.72c-.49-.02-.98-.05-1.47-.07,.32-2.12,1.26-3.69,3.58-4.02,2.3-1.1,2.8-3.76,4.59-5.31-.6,4.3-3.57,6.91-6.7,9.41Z"/>
      <path class="cls-32" d="M165.45,114.52c-1.44-.81-2.36-2.04-2.91-3.58,1.43,.22,2.3,1.14,2.97,2.34-.02,.41-.03,.83-.05,1.24Z"/>
      <path class="cls-1" d="M167.35,139.36c.47-1.18,.23-2.71,1.7-3.4-.62,1.11,.7,3.18-1.7,3.4Z"/>
      <path class="cls-135" d="M133.13,217.48c.84,0,1.49-.25,1.69-1.17,1.78-2.33,4.37-2.64,7.01-2.86,.27,.05,.52,.16,.75,.3,.32,1.35,2.23,1.1,2.51,2.5-1.51,.41-3.15-.3-4.6,.56-.72,.19-1.44,.36-2.15,.57-5.6,1.6-6.01,2.17-5.7,7.94-1.57-1.67-.33-3.66-.62-5.47,.59-.68,.96-1.47,1.11-2.35Z"/>
      <path class="cls-49" d="M142.72,216.94c1.16-.07,2.5-.3,1.47,1.62-.46,.87-.35,1.81-.31,2.73,.07,1.3-.42,1.94-1.78,1.76-.81-2.14-.9-4.21,.61-6.11Z"/>
      <path class="cls-168" d="M145.09,216.24c-.62-.57-1.43-.29-2.14-.47-1.63-.4-.8-1-.09-1.56,.16-.43,.49-.67,.89-.85,1.45-.3,1.58-1.37,1.57-2.59-.02-2.26-.06-4.52,.01-6.78,.08-2.32-.15-4.36-2.86-5.11-.68-.19-1.3-.77-.9-1.48,.78-1.4-.33-2.76,.1-4.12,.16-.26,.38-.45,.65-.59,.77-.28,1.49-.26,2.1,.38,2.38-.03,1.17,2.89,2.84,3.45,1.98,4.79,1.01,9.84,1.31,14.77,.07,1.19-.29,2.58,1.53,2.79,.66,.71,1.88,1.33,1.28,2.43-.43,.78-1.49,.13-2.28,.04-.99-.11-2-.06-3.01-.08-.33-.08-.66-.16-.98-.23Z"/>
      <path class="cls-139" d="M151.81,193.72c.81,.04,1.55-.18,2.23-.61,.02,1.34,.04,2.67,.06,4.01-.02,3.75-.06,7.5-.04,11.25,0,1.25-.12,2.43-.98,3.42-.09-1.09-.17-2.18-.26-3.27-1.15-.97-1.7-2.15-1.6-3.7,.22-3.36-.4-6.76,.48-10.09,.04-.33,.07-.67,.11-1Z"/>
      <path class="cls-112" d="M151.7,194.72c.02,2.15,.1,4.3,.04,6.45-.07,2.52,.03,5,1.08,7.34-.7-.05-1.4-.11-2.1-.16,0-3.3,0-6.59,.01-9.89,0-1.33,.05-2.65,.97-3.74Z"/>
      <path class="cls-47" d="M100.84,145.01c.65-.06,1.33-.02,1.96-.19,1.01-.27,1.43-.06,1.25,1.06-.47,2.94,.64,5.35,2.15,7.84,2.45,4,4.27,8.46,7.52,11.88,4.66,4.92,8.35,10.6,12.73,15.75,3.14,3.7,5.08,8.46,5.51,13.55,.11,1.3,.38,2.59,.57,3.89-.87-.44-1.03-1.2-1.14-2.1-.74-6.08-3.67-11.17-7.47-15.79-1.54-1.87-2.78-4.06-4.98-5.32-3.9-5.49-8.31-10.71-11.55-16.57-2.47-4.47-5.74-8.71-6.56-14Z"/>
      <path class="cls-131" d="M142.05,213.97c-2.57,.28-4.83,1.51-7.23,2.34-.3-2.65,1.24-5.15,.63-7.82,.75-1.67,.18-3.49,.56-5.2,.12-2.03,.6-3.56,3.16-3.77,2.77-.23,3.92,.53,3.7,3.36-.25,3.2-.46,6.38,0,9.57,.1,.7,.02,1.33-.83,1.52Z"/>
      <path class="cls-35" d="M142.05,213.97c-.49-3.83-.72-7.65-.02-11.49,.16-.89,.26-2.2-.98-2.24-1.58-.04-3.45-.33-4.46,1.5-.26,.48-.39,1.03-.58,1.55,.01-.94,.03-1.88,.04-2.82,.2-.96,.65-1.69,1.61-2.12,3.25-1.48,7.87,1.32,7.89,4.83,.01,2.71-.03,5.42,.01,8.13,.02,1.33-.2,2.42-1.72,2.76-.33,.05-.67,.09-1,.14-.27-.08-.54-.16-.81-.24Z"/>
      <path class="cls-28" d="M143.86,214.07c.9-.68,1.17-1.57,1.14-2.69-.07-2.63,0-5.26,0-7.89,.02-3.56-.33-4.01-3.84-4.49-1.89-.26-3.75-.22-5.1,1.48,0-1.64,0-3.28,0-4.92,.8,.29,1.25-.06,1.46-.82,.99-.53,1.97-1.06,2.96-1.59,.57-.4,1.13-.46,1.7,0q1.02,2.91-.23,4.82c3.59,.46,4.41,2.77,4.19,5.95-.18,2.61-.08,5.23-.05,7.85,.02,1.57-.41,2.59-2.24,2.31Z"/>
      <path class="cls-35" d="M137.52,194.73c0,.88,.32,1.84-.55,2.54-.98-.23-.02-1.46-.91-1.71-.01-.21-.03-.42-.04-.63,.5-.06,1-.13,1.5-.19Z"/>
      <path class="cls-102" d="M145.04,179.96c.05,.91-2.28-.78-1.28,1.17-.12,.23-.3,.37-.55,.42-.25-.03-.46-.12-.65-.28-.66-.02-1.32-.05-1.97-.08-.03-9.5-.07-19.01-.08-28.51,0-2.26,2.62-2.98,3.11-5.08,.12-.53,1.19-.09,1.29,.74,.09,.74,.08,1.5,.08,2.25,.02,9.79,.03,19.58,.04,29.36Z"/>
      <path class="cls-6" d="M142.56,181.27c.21-.03,.42-.06,.62-.09,1.28,.61,1.67,1.74,1.64,3.03-.05,2.16-.14,4.32-.13,6.49,.01,1.73-1.16,2.17-2.56,2.37l.04,.08c-.57,0-1.13,0-1.7,0,1.86-1.53,1.1-3.83,1.57-5.75,.49-1.97,.37-4.08,.51-6.13Z"/>
      <path class="cls-12" d="M150.66,154.09c-.19,.04-.37,.08-.56,.12-.7-1.49-.48-3.11-.65-4.67,.17-.44-.03-1.04,.53-1.32,1.77-2.12,5.4-2.37,7.83-.54,.36,1.95-1.01,2.8-2.36,3.65-1.56,.98-3.4,1.49-4.79,2.76Z"/>
      <path class="cls-171" d="M157.42,148.53c-1.34-1.65-4.78-1.8-7.44-.31-.07-.8-.1-1.58,.65-2.12,.53,0,1.07,.01,1.6,.02,1.69-.21,3.23-1.69,5.17-.26,.47,.35,1.98-.75,2.31-1.98,.75,.03,1.5,.5,2.24-.02-.39,.72-.79,1.43-1.18,2.15-.66,1.46-1.19,3.08-3.37,2.52Z"/>
      <path class="cls-169" d="M148.81,128.17c-.03,2.81-2.29,5.23-4.85,5.19-2.71-.04-4.54-1.97-4.46-4.73,.07-2.42,2.77-5.08,5.12-5.04,2.67,.04,4.22,1.74,4.19,4.57Z"/>
      <path class="cls-139" d="M154.12,190.32c.15-1.03-.64-2.41,1.06-2.87-.16,1.03,.61,2.4-1.06,2.87Z"/>
      <path class="cls-75" d="M184.64,134.25c0-2.26-.08-4.53,0-6.78,.38-9.25-3.22-17.01-8.97-23.94-3.58-4.31-7.49-8.32-11.21-12.5-3.46-3.88-6.67-7.98-8.47-13.09-.83-2.35-2.39-4.4-1.95-7.08,.01-.95,.03-1.9,.04-2.84,1.38,.61,1.67,1.94,2.09,3.17,1.29,3.83,3.35,7.24,5.81,10.42,.36,2.37,2,4.03,3.34,5.8,5.02,6.65,10.34,13.1,15.14,19.9,3.25,4.6,5.19,9.88,5.29,15.66,.05,3.02,.02,6.04,0,9.05,0,.91,.22,1.98-1.12,2.24Z"/>
      <path class="cls-86" d="M146.78,191.97c.08-2.83-.19-5.75,2.3-7.88,.88-.75-.22-2.62,1.6-2.85,.58,4.26-2.11,7.33-3.9,10.73Z"/>
      <path class="cls-13" d="M142.14,193.06c1.12-.59,1.84-1.3,1.75-2.78-.11-1.93-.15-3.9,.42-5.81,.39-1.31-.37-2.32-1.13-3.29,.19-.02,.38-.03,.57-.05,2.23,2.61,2.58,9.04,.65,11.96-.76,0-1.51-.01-2.27-.02Z"/>
      <path class="cls-166" d="M157.42,148.53c1.48-.37,2.11-1.85,3.37-2.52,.48,.02,1.21-.43,1.14,.61-1.19,1.34-2.39,2.68-3.58,4.02-2.46,1.39-4.76,3.11-7.69,3.44-.36-1.37,.83-1.43,1.58-1.9,1.79-1.13,3.96-1.73,5.19-3.66Z"/>
    </g>
  </g>
</svg>