<?xml version="1.0" encoding="utf-8"?>
<!-- Generator: Adobe Illustrator 27.0.1, SVG Export Plug-In . SVG Version: 6.00 Build 0)  -->
<svg version="1.1" id="Layer_1" xmlns="http://www.w3.org/2000/svg" xmlns:xlink="http://www.w3.org/1999/xlink" x="0px" y="0px"
	 viewBox="0 0 9.9 11.3" style="enable-background:new 0 0 9.9 11.3;" xml:space="preserve">
<style type="text/css">
	.st0{fill:#FF5A00;}
</style>
<path class="st0" d="M8.5,4.9c0-1.1-0.2-1.9-0.7-2.4S6.2,1.7,5.3,1.7c-1,0-1.9,0.2-2.7,0.7c-0.1,0-0.1,0.1-0.1,0.1l0.1,1.2
	c0,0.1,0.1,0.2,0.2,0.2c0,0,0.1,0,0.1,0C4,3.1,5.4,3,6.2,3.3C6.5,3.6,6.8,4,6.8,4.4v0.2H4.8C4,4.6,1.4,4.9,1.4,7.3v0
	c0,0.7,0.3,1.4,0.8,1.9c0.6,0.4,1.3,0.6,2.1,0.6h3.9c0.1,0,0.2-0.1,0.2-0.2l0,0L8.5,4.9L8.5,4.9z M6.8,8.3H4.5
	c-0.3,0-0.6-0.1-0.8-0.3C3.4,7.9,3.2,7.6,3.2,7.3C3.2,6.9,3.5,6,4.9,6h1.8V8.3z"/>
</svg>
