<?xml version="1.0" encoding="utf-8"?>
<!-- Generator: Adobe Illustrator 27.0.1, SVG Export Plug-In . SVG Version: 6.00 Build 0)  -->
<svg version="1.1" id="Layer_1" xmlns="http://www.w3.org/2000/svg" xmlns:xlink="http://www.w3.org/1999/xlink" x="0px" y="0px"
	 viewBox="0 0 121.8 122.9" style="enable-background:new 0 0 121.8 122.9;" xml:space="preserve">
<style type="text/css">
	.st0{fill-rule:evenodd;clip-rule:evenodd;fill:#FFFFFF;}
</style>
<path class="st0" d="M42.2,72.8c-1.5-2.5-2.8-5.1-3.9-7.8c-8.4-4.7-9.7-25.7-4.6-24.1c0-0.8-0.1-3-0.1-4.5c0-34.1,54.7-34.1,54.7,0
	c0,1.6-0.2,3.7-0.1,4.5c5.2-1.6,3.8,19.4-4.6,24.1c-2.1,5.9-5.9,9.9-5.6,12.4c0,8.9-9.8,12.1-17,12.2c-0.7,0-1.3,0-2-0.1
	c1.6-0.4,3.1-1.1,4.5-1.9l0,0c3.1-1.9,5.2-4.7,5.2-8.1s-2.1-6.2-5.2-8.1l0,0c-2.9-1.7-6.1-2.6-9.4-2.6c-2.6,0-5.1,0.4-7.5,1.3
	c-1.5,0.6-2.8,1.5-4,2.6L42.2,72.8L42.2,72.8z M64.6,104.4h1.9c1.7,0,3-1.3,3-3v-5c0-1.7-1.3-3-3-3h-11c-1.6,0-3,1.4-3,3v5
	c0,1.6,1.4,3,3,3h1.9l-3.6,18.4h14.4L64.6,104.4L64.6,104.4z M0,122.9c1.4-18.5-2.2-17.8,13.3-23.6c7.9-2.9,15.6-6.6,22.8-11
	l13.3,34.6L0,122.9z M86.4,86.7c6.6,4.2,13.7,7.5,21.1,10c14.5,4.8,14.5,5.5,14.4,26.2H72.7L86.4,86.7z M100.4,31.6h-0.4
	C96.6,17.1,87.8,7,77.3,2.8C71.1,0.5,64.6-0.4,58,0.2c-6.5,0.5-12.7,2.3-18.4,5.4c-9.7,5.4-16.2,15.1-17.4,26.1h-0.7
	c-3.3,0-6.6,2.7-6.6,6v21.7c0,3.3,3.3,6,6.6,6h2c2.1,8.7,10.8,16.6,19.6,16.6h1.7c1.5,2.2,4.4,3.8,9.3,3.8s10.1-2.8,10.1-6.1
	S59,73.4,54,73.4s-8,1.6-9.4,3.9H43c-7.5,0-15-8-15.5-15.2V32c1.1-9.2,6.6-17.3,14.7-21.8c5-2.7,10.6-4.3,16.3-4.7
	C64.1,5,69.9,5.8,75.3,7.8c8.7,3.4,16.1,12,19.2,23.8h-0.1v33.7h6c3.3,0,6.6-2.7,6.6-6V37.6C107.1,34.3,103.7,31.6,100.4,31.6
	L100.4,31.6z"/>
</svg>
