<?xml version="1.0" encoding="utf-8"?>
<!-- Generator: Adobe Illustrator 27.0.1, SVG Export Plug-In . SVG Version: 6.00 Build 0)  -->
<svg version="1.1"
	 id="Layer_1" shape-rendering="geometricPrecision" image-rendering="optimizeQuality" text-rendering="geometricPrecision" xmlns:xodm="http://www.corel.com/coreldraw/odm/2003"
	 xmlns="http://www.w3.org/2000/svg" xmlns:xlink="http://www.w3.org/1999/xlink" x="0px" y="0px" viewBox="0 0 512 435"
	 style="enable-background:new 0 0 512 435;" xml:space="preserve">
<style type="text/css">
	.st0{fill:#FFFFFF;}
	.st1{fill:#00A912;}
	.st2{fill-rule:evenodd;clip-rule:evenodd;fill:#FFFFFF;}
</style>
<g id="Layer_x0020_1">
	<path class="st0" d="M65.1,79.9c-6.5,0-12.1-5.6-12.1-12.4c0-6.5,5.6-12.1,12.1-12.1h16.8c0.3,0,0.9,0,1.2,0
		c11.2,0.3,21.2,2.5,29.6,7.8c16.3,10.3,19.2,25.1,23.3,41.7H271c-1.6,7.3-2.5,15-2.5,22.8l0,1.5H142.9l27.7,104.3H367l0-0.2
		c2.4,0.2,4.8,0.3,7.3,0.3c6.1,0,12.1-0.5,18-1.5l-4.1,16.7c-1.2,5.6-6.2,9.3-11.8,9.3H177.2c4.4,16.2,8.7,24.9,14.6,29
		c7.2,4.7,19.6,5,40.5,4.7h0.3h140.7c6.9,0,12.1,5.6,12.1,12.1c0,6.9-5.6,12.1-12.1,12.1H232.6c-25.8,0.3-41.7-0.3-54.5-8.7
		c-13.1-8.7-19.9-23.7-26.8-50.7L109.6,98.6c0-0.3,0-0.3-0.3-0.6c-1.9-6.9-5-11.5-9.3-14c-4.4-2.8-10.3-4.1-17.1-4.1
		c-0.3,0-0.6,0-0.9,0L65.1,79.9L65.1,79.9z M246.7,156.8c0-3.8,3.8-6.9,8.5-6.9c4.7,0,8.5,3.1,8.5,6.9v46.9c0,3.8-3.8,6.9-8.5,6.9
		c-4.7,0-8.5-3.1-8.5-6.9V156.8z M196,156.8c0-3.8,3.8-6.9,8.5-6.9c4.7,0,8.5,3.1,8.5,6.9v46.9c0,3.8-3.8,6.9-8.5,6.9
		c-4.7,0-8.5-3.1-8.5-6.9V156.8z M336.9,330.2c16.5,0,29.9,13.4,29.9,29.9c0,16.5-13.4,29.9-29.9,29.9c-16.5,0-29.9-13.4-29.9-29.9
		C307,343.6,320.4,330.2,336.9,330.2z M205.8,330.2c16.5,0,29.9,13.4,29.9,29.9c0,16.5-13.4,29.9-29.9,29.9s-29.9-13.4-29.9-29.9
		C175.9,343.6,189.3,330.2,205.8,330.2z"/>
	<path class="st1" d="M374.4,45.1c23.4,0,44.5,9.5,59.8,24.8c15.3,15.3,24.8,36.5,24.8,59.8c0,23.4-9.5,44.5-24.8,59.8
		c-15.3,15.3-36.5,24.8-59.8,24.8c-23.4,0-44.5-9.5-59.8-24.8c-15.3-15.3-24.8-36.5-24.8-59.8c0-23.4,9.5-44.5,24.8-59.8
		C329.9,54.5,351,45.1,374.4,45.1z"/>
	<path class="st2" d="M348.3,114l15.8,14.9l34.3-34.8c3.1-3.1,5-5.7,8.8-1.7l12.4,12.7c4.1,4,3.9,6.4,0,10.1l-48.4,47.6
		c-8.1,7.9-6.7,8.4-14.9,0.3l-28.8-28.6c-1.7-1.8-1.5-3.7,0.3-5.6l14.3-14.9C344.3,111.7,346.1,111.9,348.3,114L348.3,114z"/>
</g>
</svg>
