<?xml version="1.0" encoding="utf-8"?>
<!-- Generator: Adobe Illustrator 27.0.1, SVG Export Plug-In . SVG Version: 6.00 Build 0)  -->
<svg version="1.1"
	 id="Layer_1" shape-rendering="geometricPrecision" text-rendering="geometricPrecision" image-rendering="optimizeQuality"
	 xmlns="http://www.w3.org/2000/svg" xmlns:xlink="http://www.w3.org/1999/xlink" x="0px" y="0px" viewBox="0 0 512 340.9"
	 style="enable-background:new 0 0 512 340.9;" xml:space="preserve">
<style type="text/css">
	.st0{fill-rule:evenodd;clip-rule:evenodd;fill:#FFFFFF;}
	.st1{fill:#10A64A;}
</style>
<path class="st0" d="M350.3,91.2l-36.7-0.2V41.4c0-7.4-3-14-7.9-18.9c-4.8-4.9-11.5-7.9-18.9-7.9H48.7c-8.1,0-15.4,3.7-20.3,9.4
	c-7,8.2-6.4,16.1-6.4,25.6v205.6c0,14.5,12,27.4,26.7,27.4h43.7c4,0,7.2-3.2,7.2-7.2s-3.2-7.2-7.2-7.2v0H48.7
	c-6.8,0-12.2-6.4-12.2-13V49.5c0-6.4-1.2-11.9,3.7-16.8c2.3-2.3,5.4-3.5,8.6-3.5h238.2c3.4,0,6.4,1.4,8.6,3.6
	c2.2,2.2,3.6,5.3,3.6,8.6v226.8h-57.5c-4,0-7.2,3.2-7.2,7.2s3.2,7.2,7.2,7.2h64.8c4,0,7.2-3.2,7.2-7.2v-8.2h29.3
	c3.3-75.4,111.6-85.8,122.6,0h23.8c6.1-73.5-30.2-102.1-85.4-108.6c-4-17.3-11.5-33.3-20.1-49.1C373.7,90.7,371.3,91.5,350.3,91.2
	L350.3,91.2z M167.8,54.6c5.6,0,11.2,0.6,16.5,1.8c5.5,1.2,10.7,3.1,15.6,5.4c0.5,0.3,0.8,0.9,0.5,1.4c-0.1,0.2-0.2,0.3-0.3,0.4
	l-5.6,4.5l-5.3,4.4c-0.3,0.3-0.7,0.3-1.1,0.2c-3.2-1.2-6.5-2.1-10-2.7c-3.3-0.6-6.8-0.9-10.3-0.9c-15.8,0-30.9,6.2-42.1,17.4
	c-11.2,11.2-17.4,26.2-17.4,42.1c0,24.1,14.6,45.8,36.7,55c30.4,12.6,65.3-2.1,77.7-32.2c3-7.2,4.5-14.9,4.5-22.8
	c0-3.9-0.4-7.6-1.1-11.4c-0.1-0.3,0-0.7,0.2-0.9l4.8-6.1l4.9-6.1c0.4-0.5,1-0.5,1.5-0.1c0.2,0.1,0.3,0.3,0.3,0.5
	c2.7,7.8,4,16,4,24.2c0,10-2,19.6-5.6,28.3c-15.5,37.5-59,55.9-96.9,40.2c-27.5-11.4-45.8-38.4-45.8-68.5c0-19.7,7.8-38.5,21.7-52.4
	S148.1,54.6,167.8,54.6L167.8,54.6z M166.1,228.1c-27.1,0-49.1,22-49.1,49.1s22,49.1,49.1,49.1s49.1-22,49.1-49.1
	C215.1,250,193.2,228.1,166.1,228.1z M166.1,258.3c-10.4,0-18.9,8.4-18.9,18.9c0,10.4,8.4,18.9,18.9,18.9c10.4,0,18.9-8.4,18.9-18.9
	C184.9,266.7,176.5,258.3,166.1,258.3L166.1,258.3z M404.1,220.8c-27.1,0-49.1,22-49.1,49.1c0,27.1,22,49.1,49.1,49.1
	c27.1,0,49.1-22,49.1-49.1S431.2,220.8,404.1,220.8L404.1,220.8z M385.2,269.9c0,10.4,8.4,18.9,18.9,18.9s18.9-8.4,18.9-18.9
	c0-10.4-8.4-18.9-18.9-18.9C393.7,251.1,385.2,259.5,385.2,269.9z M353.9,112.1l-22.1-0.4v47h46.8
	C372.8,142,364.3,126.6,353.9,112.1z"/>
<path class="st1" d="M134,117.7l16.6-0.2l1.2,0.3c3.3,1.9,6.5,4.1,9.4,6.6c2.1,1.8,4.2,3.8,6.1,5.9c6-9.6,12.3-18.4,19-26.4
	c7.3-8.9,15.1-16.9,23.3-24.2l1.6-0.6h18.1l-3.6,4.1c-11.2,12.5-21.4,25.3-30.6,38.6c-9.1,13.2-17.4,26.9-24.7,41.1l-2.3,4.4
	l-2.1-4.5c-3.9-8.3-8.5-15.9-14-22.7c-5.5-6.8-11.9-12.8-19.4-17.9L134,117.7L134,117.7z"/>
</svg>
