<?xml version="1.0" encoding="utf-8"?>
<!-- Generator: Adobe Illustrator 27.0.1, SVG Export Plug-In . SVG Version: 6.00 Build 0)  -->
<svg version="1.1" id="Layer_1" xmlns="http://www.w3.org/2000/svg" xmlns:xlink="http://www.w3.org/1999/xlink" x="0px" y="0px"
	 viewBox="0 0 92.3 122.9" style="enable-background:new 0 0 92.3 122.9;" xml:space="preserve">
<style type="text/css">
	.st0{fill-rule:evenodd;clip-rule:evenodd;fill:#FFFFFF;}
</style>
<path class="st0" d="M3.4,113.1L15,111l5.7,10.2c4.1,5.2,6.8-3.3,8-6.3l11-21c-2.6-0.9-5.7-3.5-8.9-6.3c-6.4,0.1-12.3-1-16.6-6.5
	L1.5,105.8l-1.1,2.4C-0.5,111.3,0,113.4,3.4,113.1L3.4,113.1z M46.8,27l3.8,8.9l9.6,0.9c0.4,0,0.7,0.4,0.7,0.8
	c0,0.2-0.1,0.4-0.3,0.5l0,0l-7.3,6.3l2.2,9.4c0.1,0.4-0.2,0.8-0.6,0.9c-0.2,0-0.4,0-0.6-0.1l-8.3-5l-8.3,5c-0.4,0.2-0.8,0.1-1-0.3
	c-0.1-0.2-0.1-0.4-0.1-0.6l0,0l2.2-9.4l-7.3-6.3c-0.3-0.3-0.3-0.7-0.1-1.1c0.1-0.2,0.3-0.2,0.5-0.3l9.6-0.9l3.8-8.9
	c0.2-0.4,0.6-0.6,1-0.4C46.5,26.7,46.7,26.8,46.8,27L46.8,27z M46.2,0c2,0,4,0.6,5.6,1.8c2.2,1.4,4.7,4.1,7.7,5.9
	c4.3,2.5,12.2-0.9,16.3,5.1c2.4,3.5,2.5,6.3,2.7,9c0.1,3.5,1.4,6.9,3.7,9.6c5,6.6,6,11,3.4,15.6c-1.8,3.1-5.4,4.8-6.3,6.8
	c-1.8,4.2,0.2,7.4-2.3,12.3c-1.6,3.3-4.5,5.7-7.9,6.8c-3,1-6-0.4-8.4,0.6c-4.2,1.8-7.3,5.9-10.7,6.9c-2.5,0.8-5.2,0.8-7.7,0
	c-3.3-1-6.5-5.2-10.7-6.9c-2.4-1-5.4,0.4-8.4-0.6c-3.5-1.1-6.4-3.5-7.9-6.8c-2.5-4.9-0.4-8.1-2.3-12.3c-0.9-2-4.6-3.7-6.3-6.8
	c-2.6-4.6-1.5-9,3.5-15.6c3-4,3.5-6.7,3.7-9.6c0.2-2.7,0.3-5.5,2.7-9c4.1-6,12-2.7,16.3-5.1c3-1.7,5.5-4.5,7.7-5.9
	C42.2,0.6,44.2,0,46.2,0z M46.1,16.9c13.3,0,24.1,10.8,24.1,24.1S59.4,65.2,46.1,65.2c-13.3,0-24.1-10.8-24.1-24.1
	C21.9,27.8,32.7,16.9,46.1,16.9C46.1,16.9,46.1,16.9,46.1,16.9L46.1,16.9z M89,113.1L77.4,111l-5.7,10.2c-4.2,5.2-6.8-3.3-8-6.3
	L52.6,94c2.6-0.9,5.7-3.5,8.8-6.3c6.3,0.1,12.3-1,16.6-6.5l12.8,24.8l1.1,2.3C92.9,111.3,92.4,113.4,89,113.1z"/>
</svg>
