<?xml version="1.0" encoding="utf-8"?>
<!-- Generator: Adobe Illustrator 27.0.1, SVG Export Plug-In . SVG Version: 6.00 Build 0)  -->
<svg version="1.1" id="Layer_1" xmlns="http://www.w3.org/2000/svg" xmlns:xlink="http://www.w3.org/1999/xlink" x="0px" y="0px"
	 viewBox="0 0 71.3 122.9" style="enable-background:new 0 0 71.3 122.9;" xml:space="preserve">
<style type="text/css">
	.st0{fill-rule:evenodd;clip-rule:evenodd;fill:#FFFFFF;}
</style>
<g>
	<path class="st0" d="M8,24.8h55.4v57.9H8V24.8L8,24.8z M34.1,33h5.1V43c0,1-0.2,1.9-0.5,2.8c-0.3,0.9-0.8,1.6-1.4,2.3
		c-0.7,0.7-1.3,1.1-2.1,1.4c-1,0.4-2.2,0.5-3.6,0.5c-0.8,0-1.7-0.1-2.6-0.2c-1-0.1-1.8-0.3-2.4-0.7c-0.6-0.3-1.2-0.8-1.8-1.4
		c-0.5-0.6-0.9-1.3-1.1-1.9c-0.3-1.1-0.5-2-0.5-2.8V33h5.1v10.2c0,0.9,0.2,1.6,0.8,2.1c0.5,0.5,1.2,0.8,2.1,0.8
		c0.9,0,1.6-0.2,2.1-0.8c0.5-0.5,0.8-1.2,0.8-2.1V33L34.1,33z M42.8,33H48v16.7h-5.2V33L42.8,33z M12.5,0h46.4
		c3.4,0,6.6,1.4,8.8,3.7s3.7,5.4,3.7,8.8v98c0,3.4-1.4,6.6-3.7,8.8s-5.4,3.7-8.8,3.7H12.5c-3.4,0-6.6-1.4-8.8-3.7
		C1.4,117,0,113.8,0,110.4v-98C0,9,1.4,5.9,3.7,3.7S9,0,12.5,0L12.5,0z M8,93h23.4v7.6h6.7V93h25.3v7.7h5V17.8H3v82.9l0,0h5V93L8,93
		z M28.9,113c-0.8,0-1.5-0.7-1.5-1.5c0-0.8,0.7-1.5,1.5-1.5h13.7c0.8,0,1.5,0.7,1.5,1.5c0,0.8-0.7,1.5-1.5,1.5H28.9L28.9,113z
		 M35.7,6.5c1.3,0,2.4,1.1,2.4,2.4s-1.1,2.4-2.4,2.4s-2.4-1.1-2.4-2.4S34.3,6.5,35.7,6.5L35.7,6.5z M68.3,103.7H3v6.7
		c0,2.6,1.1,5,2.8,6.7c1.7,1.7,4.1,2.8,6.7,2.8h46.4c2.6,0,5-1.1,6.7-2.8c1.7-1.7,2.8-4.1,2.8-6.7L68.3,103.7L68.3,103.7L68.3,103.7
		z M3,14.8h65.3v-2.3c0-2.6-1.1-5-2.8-6.7C63.8,4.1,61.4,3,58.8,3H12.5c-2.6,0-5,1.1-6.7,2.8C4.1,7.5,3,9.9,3,12.5V14.8L3,14.8
		L3,14.8z M29.1,57.3h5V67c0,0.9-0.2,1.9-0.5,2.7c-0.3,0.8-0.8,1.6-1.4,2.2c-0.6,0.6-1.3,1.1-2,1.3c-1,0.4-2.1,0.5-3.5,0.5
		c-0.8,0-1.6-0.1-2.6-0.2s-1.7-0.3-2.3-0.7c-0.6-0.3-1.2-0.8-1.7-1.4c-0.5-0.6-0.9-1.2-1.1-1.9c-0.3-1-0.5-1.9-0.5-2.7v-9.6h5v9.9
		c0,0.9,0.2,1.6,0.7,2.1c0.5,0.5,1.2,0.8,2,0.8c0.9,0,1.5-0.2,2-0.7c0.5-0.5,0.7-1.2,0.7-2.1L29.1,57.3L29.1,57.3z M36.3,57.3h5.5
		l2.9,5l2.8-5h5.5l-5,7.8l5.5,8.3h-5.6l-3.2-5.2l-3.2,5.2h-5.6l5.6-8.4L36.3,57.3L36.3,57.3z"/>
</g>
</svg>
