<?xml version="1.0" encoding="utf-8"?>
<!-- Generator: Adobe Illustrator 27.0.1, SVG Export Plug-In . SVG Version: 6.00 Build 0)  -->
<svg version="1.1" id="Layer_1" xmlns="http://www.w3.org/2000/svg" xmlns:xlink="http://www.w3.org/1999/xlink" x="0px" y="0px"
	 viewBox="0 0 122.9 102.1" style="enable-background:new 0 0 122.9 102.1;" xml:space="preserve">
<style type="text/css">
	.st0{fill-rule:evenodd;clip-rule:evenodd;fill:#FFFFFF;}
</style>
<path class="st0" d="M66.3,0c24.6,0,44.6,20,44.5,44.6c0,8.6-2.5,17.1-7.2,24.3l19.3,21l-13.3,12.2L91,81.6
	C73.3,93.4,49.8,91,34.8,76.1c-2.2-2.2-4.2-4.7-6-7.4l9.5-1.1c0.8,0.9,1.6,1.8,2.4,2.6C54.5,84.7,77.5,85.4,92,71.6
	s15.2-36.7,1.4-51.2c-0.5-0.5-0.9-1-1.4-1.4l0,0c-14.2-14.2-37.1-14.2-51.3,0c-2.5,2.5-4.6,5.3-6.3,8.4L24.6,29
	c2.2-6,5.7-11.5,10.2-16C43.2,4.6,54.5,0,66.3,0z M40.8,38.4L7,43.1l-7,9.1l9,6.9l5.2-6.8l7.5,5.7l5.7-7.5l7.2,5.5l7.2-5.2
	c1.7,4.9,4.8,9.2,8.9,12.4c11.2,8.7,27.2,6.9,35.5-4s6-26.7-5.3-35.3s-27.2-6.8-35.5,4C43.1,30.9,41.5,34.6,40.8,38.4z M67.8,29
	c6.4,0.9,11.5,6,12.3,12.5h4.3v4.1H80c-1,6.2-6,11.1-12.2,12v4.6h-4.1v-4.5c-6.3-0.9-11.2-5.8-12.2-12H47v-4.2h4.3
	c0.8-6.5,5.9-11.6,12.3-12.5v-4h4.1L67.8,29L67.8,29z M65.7,35.7c4.2,0,7.7,3.5,7.6,7.7s-3.5,7.7-7.7,7.6c-4.2,0-7.6-3.4-7.6-7.7
	C58,39.1,61.4,35.7,65.7,35.7L65.7,35.7z M74.1,35c-4.6-4.6-12.1-4.6-16.7,0s-4.6,12.1,0,16.7s12.1,4.6,16.7,0
	c2.2-2.2,3.5-5.2,3.5-8.4C77.5,40.2,76.3,37.2,74.1,35z"/>
</svg>
