<?xml version="1.0" encoding="utf-8"?>
<!-- Generator: Adobe Illustrator 27.0.1, SVG Export Plug-In . SVG Version: 6.00 Build 0)  -->
<svg version="1.1" id="Layer_1" xmlns="http://www.w3.org/2000/svg" xmlns:xlink="http://www.w3.org/1999/xlink" x="0px" y="0px"
	 viewBox="0 0 122.9 98.3" style="enable-background:new 0 0 122.9 98.3;" xml:space="preserve">
<style type="text/css">
	.st0{fill-rule:evenodd;clip-rule:evenodd;fill:#FFFFFF;}
</style>
<g>
	<path class="st0" d="M8.3,0h106.2c4.6,0,8.3,3.7,8.3,8.3V90c0,4.6-3.7,8.3-8.3,8.3H8.3C3.7,98.3,0,94.6,0,90V8.3C0,3.7,3.7,0,8.3,0
		L8.3,0z M80.3,67.8h3.3v-8.4c0-0.2-0.1-0.3-0.2-0.4c-0.1-0.1-0.3-0.2-0.4-0.2H63.5v9h3.3c1,0,1.9,0.8,1.9,1.9v7.6
		c0,1-0.8,1.9-1.9,1.9H56.1c-1,0-1.9-0.8-1.9-1.9v-7.6c0-1,0.8-1.9,1.9-1.9h3.3v-9H39.8c-0.2,0-0.3,0.1-0.4,0.2
		c-0.1,0.1-0.2,0.3-0.2,0.4v8.4h3.3c1,0,1.9,0.8,1.9,1.9v7.6c0,1-0.8,1.9-1.9,1.9H31.9c-1,0-1.9-0.8-1.9-1.9v-7.6
		c0-1,0.9-1.9,1.9-1.9h3.2v-8.4c0-1.3,0.5-2.5,1.4-3.3c0.8-0.8,2-1.4,3.3-1.4h19.6V42.7h-3.3c-1,0-1.9-0.8-1.9-1.9v-7.5
		c0-1,0.8-1.9,1.9-1.9h10.7c1,0,1.9,0.8,1.9,1.9v7.5c0,1-0.8,1.9-1.9,1.9h-3.3v12.1h19.6c1.3,0,2.5,0.5,3.3,1.4
		c0.8,0.8,1.4,2,1.4,3.3v8.4H91c1,0,1.9,0.8,1.9,1.9v7.6c0,1-0.8,1.9-1.9,1.9H80.4c-1,0-1.9-0.8-1.9-1.9v-7.5
		C78.5,68.7,79.3,67.8,80.3,67.8L80.3,67.8L80.3,67.8z M118,23.3H5.3v67.5c0,0.6,0.2,1.2,0.7,1.6c0.4,0.4,1,0.7,1.6,0.7h108
		c0.6,0,1.2-0.2,1.6-0.7c0.4-0.4,0.7-1,0.7-1.6L118,23.3L118,23.3L118,23.3z M106.6,9.4c2.3,0,4.1,1.8,4.1,4.1s-1.8,4.1-4.1,4.1
		c-2.3,0-4.1-1.8-4.1-4.1C102.5,11.2,104.4,9.4,106.6,9.4L106.6,9.4z M78.8,9.4c2.3,0,4.1,1.8,4.1,4.1s-1.8,4.1-4.1,4.1
		c-2.3,0-4.1-1.8-4.1-4.1S76.5,9.4,78.8,9.4L78.8,9.4z M92.7,9.4c2.3,0,4.1,1.8,4.1,4.1s-1.8,4.1-4.1,4.1c-2.3,0-4.1-1.8-4.1-4.1
		S90.4,9.4,92.7,9.4L92.7,9.4z"/>
</g>
</svg>
