<?xml version="1.0" encoding="utf-8"?>
<!-- Generator: Adobe Illustrator 27.0.1, SVG Export Plug-In . SVG Version: 6.00 Build 0)  -->
<svg version="1.1" id="Layer_1" xmlns="http://www.w3.org/2000/svg" xmlns:xlink="http://www.w3.org/1999/xlink" x="0px" y="0px"
	 viewBox="0 0 120.7 122.9" style="enable-background:new 0 0 120.7 122.9;" xml:space="preserve">
<style type="text/css">
	.st0{fill:#FFFFFF;}
	.st1{fill-rule:evenodd;clip-rule:evenodd;fill:#10A64A;}
</style>
<path class="st0" d="M60,0c7.9,0,15.7,1.5,23,4.6l0,0c14.7,6.1,26.4,17.8,32.5,32.5l0.1,0.2c5.4,13.1,5.9,27.7,1.6,41.1
	c-2.2-2.2-4.8-3.9-7.5-5.3c2.8-10.8,2.1-22.2-2.1-32.5l-0.1-0.2c-2.6-6.2-6.4-11.9-11.2-16.6l0,0C81.7,9.2,59.7,4.8,40.6,12.5
	l-0.2,0.1c-6.2,2.6-11.9,6.4-16.6,11.1l0,0C9.2,38.4,4.8,60.3,12.5,79.4l0.1,0.2c1.6,3.9,3.7,7.6,6.3,11.1c7-3.7,18.8-3.4,25.6-8.1
	c0.5-0.8,1-1.7,1.4-2.7c0.7-1.6,1.3-3.3,1.7-4.4c-1.6-2-3.1-4.1-4.5-6.4c-2.2-3.4-7-9.9-7.1-13.8c0-0.8,0.1-1.6,0.4-2.3
	c0.3-0.7,0.9-1.4,1.6-1.8c0.3-0.2,0.7-0.4,1.1-0.5c-0.3-4.3-0.4-8.7-0.2-13c0.1-1,0.3-2,0.6-2.9c1.3-4.1,4-7.5,7.7-9.7
	c2-1.3,4.1-2.2,6.4-2.9c1.4-0.4-1.2-5,0.3-5.1c7.2-0.8,18.8,5.8,23.8,11.2c2.7,3.1,4.3,7,4.4,11.1l-0.3,11.8l0,0
	c1.2,0.3,2.1,1.3,2.4,2.5c1.1,4.3-4.6,11.8-6.5,14.8c-1.7,3.2-3.9,6.1-6.3,8.7l0.7,1c0.7,1.1,1.5,2.1,2.3,3.2
	c-8.7,10.9-8.3,26.4,0.8,36.9c-12.6,3.3-26,2.3-38-2.6l0,0c-7.3-3-13.9-7.4-19.5-13l0,0C12,96.9,7.6,90.3,4.6,83l-0.1-0.2
	c-6-14.6-6-31.1,0.1-45.7l0,0c3-7.3,7.4-13.9,13-19.5l0,0c5.6-5.6,12.2-10,19.5-13l0.2-0.1C44.5,1.6,52.2,0,60,0z"/>
<path class="st1" d="M97,75.6c13.1,0,23.7,10.6,23.7,23.7s-10.6,23.7-23.7,23.7s-23.7-10.6-23.7-23.7c0,0,0,0,0,0
	C73.3,86.1,83.9,75.6,97,75.6C97,75.6,97,75.6,97,75.6z M90.2,95.8l3.6,3.3l9.4-9.5c0.8-0.8,1.3-1.5,2.3-0.5l3.3,3.4
	c1.1,1.1,1,1.7,0,2.7l-13.1,12.9c-2.2,2.1-1.8,2.2-4,0.1l-7-7c-0.4-0.4-0.4-1,0-1.4c0,0,0,0,0.1-0.1l3.8-4
	C89.2,95.1,89.6,95.2,90.2,95.8L90.2,95.8z"/>
</svg>
