<?xml version="1.0" encoding="utf-8"?>
<!-- Generator: Adobe Illustrator 27.0.1, SVG Export Plug-In . SVG Version: 6.00 Build 0)  -->
<svg version="1.1"
	 id="Layer_1" text-rendering="geometricPrecision" image-rendering="optimizeQuality" shape-rendering="geometricPrecision"
	 xmlns="http://www.w3.org/2000/svg" xmlns:xlink="http://www.w3.org/1999/xlink" x="0px" y="0px" viewBox="0 0 154.7 127.4"
	 style="enable-background:new 0 0 154.7 127.4;" xml:space="preserve">
<style type="text/css">
	.st0{fill:#FFFFFF;}
</style>
<path class="st0" d="M68.3,70.6V41.3c0-1.1,0.9-2,2-2h49.4c1.1,0,2,0.9,2,2v12.4L149.5,30L121.7,6.4v12.3c0,1.1-0.9,2-2,2H49.8v49.8
	H68.3L68.3,70.6z M72.3,43.3v29.3c0,1.1-0.9,2-2,2H47.8c-1.1,0-2-0.9-2-2V18.8c0-1.1,0.9-2,2-2h69.8V2c0-0.5,0.2-0.9,0.5-1.3
	c0.7-0.9,2-1,2.9-0.2l33,28c0.1,0.1,0.2,0.2,0.3,0.3c0.7,0.9,0.6,2.1-0.2,2.9l-32.9,27.9c-0.8,0.8-2.1,0.8-2.9,0
	c-0.4-0.4-0.6-0.9-0.6-1.4V43.3L72.3,43.3L72.3,43.3z M86.4,56.8v29.3c0,1.1-0.9,2-2,2H35c-1.1,0-2-0.9-2-2V73.8L5.2,97.4L33,121
	v-12.3c0-1.1,0.9-2,2-2h69.8V56.8H86.4z M82.4,84.1V54.8c0-1.1,0.9-2,2-2h22.5c1.1,0,2,0.9,2,2v53.8c0,1.1-0.9,2-2,2H37v14.7
	c0,0.5-0.2,0.9-0.5,1.3c-0.7,0.9-2,1-2.9,0.2l-33-28c-0.1-0.1-0.2-0.2-0.3-0.3c-0.7-0.9-0.6-2.1,0.2-2.9l32.9-27.9
	c0.8-0.8,2.1-0.8,2.9,0c0.4,0.4,0.6,0.9,0.6,1.4v14.7L82.4,84.1L82.4,84.1z"/>
</svg>
