<?xml version="1.0" encoding="utf-8"?>
<!-- Generator: Adobe Illustrator 27.0.1, SVG Export Plug-In . SVG Version: 6.00 Build 0)  -->
<svg version="1.1"
	 id="Layer_1" text-rendering="geometricPrecision" image-rendering="optimizeQuality" shape-rendering="geometricPrecision"
	 xmlns="http://www.w3.org/2000/svg" xmlns:xlink="http://www.w3.org/1999/xlink" x="0px" y="0px" viewBox="0 0 157.6 114"
	 style="enable-background:new 0 0 157.6 114;" xml:space="preserve">
<style type="text/css">
	.st0{fill-rule:evenodd;clip-rule:evenodd;fill:#FFFFFF;}
</style>
<path class="st0" d="M4.2,48.9l3,36.7c0.4,3.8,1.2,6.2,2.4,7.6c0.9,1.1,2.2,1.4,3.7,1.1c0.1,0,0.2,0,0.4,0l14.3,0l0.2,0
	c2,0,3.4-0.6,4.3-1.7c1-1.3,1.5-3.4,1.6-6l0-40.4c-0.1-0.2-0.1-0.4-0.1-0.6c0-0.1,0-0.1,0-0.2c-0.2-1.3-0.8-2.2-1.6-2.7
	c-1.2-0.7-2.9-1-5-1h0v0L9,41.6c-1.9,0.1-3.3,0.5-4.1,1.5c-0.9,1-1.2,2.8-0.8,5.6L4.2,48.9L4.2,48.9z M120,47.3c0-0.6,0-1.3,0.1-1.8
	l-6.7-4.5c-1-0.6-2-1.4-3.1-2.1c-1.8-1.3-3.7-2.6-5.5-3.7c0.7-1.1,1.2-2.3,1.7-3.6c2.1,1.2,4.1,2.6,6.1,4c1,0.7,2,1.4,3,2.1l6,4
	c0.3-0.4,0.7-0.8,1-1.2c1.7-1.5,4.2-2.3,7.3-2.3v0l17,0c3.6,0,6.5,0.6,8.5,2.2c2.2,1.7,3.3,4.3,2.8,8.1l-3.8,38.9
	c-0.3,3.5-1.2,6.2-2.8,8.1c-1.7,2-4.2,3-7.3,2.9l-15.3,0c-2.1,0.1-4-0.5-5.5-1.7c-1.1-0.9-2-2.1-2.8-3.6h-5.3
	c0.7,2.1,0.7,4.1,0.1,5.8c-0.6,1.8-1.7,3.4-3.2,4.5c-1.4,1.1-3.2,1.9-5,2.2c-1.8,0.3-3.6,0.1-5.4-0.6c-2,2.1-4.1,3.4-6.3,4
	c-2.2,0.6-4.5,0.5-6.7-0.3c-2.2,2.4-4.5,3.9-7.2,4.5c-2.7,0.6-5.5,0.2-8.5-1.2c-0.9,0.7-1.9,1.3-2.9,1.7c-1.5,0.6-3,0.9-4.6,0.8
	c-3.8-0.1-6.4-1.2-8.4-3.1c-2-1.7-3.3-4-4.7-6.6l-8.4-14.7h-6.6c-0.4,1.9-1,3.5-2,4.8c-1.7,2.2-4.1,3.3-7.5,3.2l-14.3,0
	c-2.8,0.5-5.3-0.2-7.2-2.4c-1.7-1.9-2.8-5.1-3.3-9.8l0-0.2l-3-36.6c-0.6-3.9,0.1-6.7,1.6-8.7c1.6-1.9,4-2.8,7-2.9l0.2,0h18.1v0
	c2.9,0,5.3,0.4,7.2,1.6c1.5,1,2.6,2.3,3.1,4.2h12.3c3.1-2.1,6-3.7,9.2-4.7c0.5-0.1,1-0.3,1.4-0.4c0.7,0.8,1.4,1.6,2.1,2.4
	c0.4,0.4,0.8,0.7,1.2,1.1c-1.2,0.1-2.4,0.4-3.5,0.7c-2.9,0.9-5.6,2.5-8.5,4.5c-0.3,0.3-0.8,0.4-1.2,0.4H37.9v38.7h7.3
	c0.8,0,1.4,0.4,1.8,1.1l9,15.7c1.3,2.3,2.5,4.3,3.9,5.6c1.4,1.2,3.2,2,5.9,2.1c1,0,2-0.2,3-0.5c0.6-0.2,1.1-0.6,1.7-1l-5.8-10.9
	c-0.5-1-0.2-2.2,0.8-2.7c0,0,0,0,0,0c1-0.5,2.2-0.2,2.7,0.8c0,0,0,0,0,0l6.4,11.9c2.4,1.2,4.5,1.6,6.4,1.2c1.8-0.4,3.4-1.4,5-3.2
	l-9.2-14.4c-0.6-0.9-0.3-2.1,0.6-2.7c0,0,0,0,0,0c0.9-0.6,2.1-0.3,2.7,0.6c0,0,0,0,0,0l9.7,15.2c1.7,0.7,3.3,0.8,4.9,0.4
	c1.5-0.4,3-1.4,4.4-2.9l-8.7-16.5c-0.5-1-0.1-2.2,0.8-2.7c1-0.5,2.2-0.1,2.7,0.8l9,17c1.2,0.7,2.5,0.9,3.9,0.6
	c1.1-0.2,2.2-0.7,3.1-1.4c0.9-0.7,1.5-1.6,1.9-2.6c0.4-1.1,0.3-2.4-0.3-3.9c-0.1-0.3-0.2-0.6-0.2-0.9c-0.6-0.2-1-0.7-1.1-1.3
	L90.3,55.7c-2.2-3.7-4.2-3.8-6.1-2.6c-1.4,0.8-2.8,2.1-4.2,3.4c-0.9,0.8-1.7,1.6-2.5,2.2l-3.5,2.9c-2.5,2-5.2,3-7.8,3.2
	c-1.7,0.1-3.4-0.1-5-0.7c-1.6-0.6-3-1.5-4-2.9c-1.1-1.4-1.9-3.2-2-5.3c0-0.6,0.2-1.2,0.6-1.6l9.6-11.4c1.1,0.8,2.2,1.5,3.3,2.2
	l-9.4,11.2c0.2,0.9,0.6,1.7,1.1,2.4c0.6,0.7,1.4,1.3,2.3,1.6c1,0.4,2.1,0.5,3.3,0.4c1.9-0.2,3.9-0.9,5.7-2.4l3.5-2.9
	c0.9-0.7,1.6-1.4,2.3-2.1c1.6-1.5,3.2-2.9,4.9-3.9c3.9-2.3,7.8-2.4,11.6,4l19.6,35.4h6.7L120,47.3L120,47.3z M81.5,0
	c12,0,21.8,9.8,21.8,21.8c0,12-9.8,21.8-21.8,21.8c-12,0-21.8-9.7-21.8-21.8C59.7,9.7,69.5,0,81.5,0z M75.4,19.7
	c0.8,0.4,1.4,0.8,2,1.3c0.4,0.3,0.9,0.7,1.3,1.1c1-1.5,3-4,5-6.1c1.6-1.7,3.3-3.2,4.4-3.6l0.1,0h5.8l-0.8,0.9
	c-3,3.4-5.4,6.2-7.6,9.1c-2.2,3-4.1,6.1-6.2,10.2l-0.5,0.9l-0.4-1c-1.1-2.3-2.1-4.3-3.4-6c-1.3-1.7-2.8-3.3-5-4.7l-1-0.7l6.2-1.4
	L75.4,19.7L75.4,19.7z M20.3,77.2c1.9,0,3.4,1.5,3.4,3.4c0,1.9-1.5,3.4-3.4,3.4c-1.9,0-3.4-1.5-3.4-3.4
	C16.9,78.8,18.4,77.2,20.3,77.2z M137.5,77.2c1.9,0,3.4,1.5,3.4,3.4c0,1.9-1.5,3.4-3.4,3.4c-1.9,0-3.4-1.5-3.4-3.4
	C134,78.8,135.6,77.2,137.5,77.2z"/>
</svg>
