<?xml version="1.0" encoding="UTF-8"?>
<svg id="Layer_2" data-name="Layer 2" xmlns="http://www.w3.org/2000/svg" viewBox="0 0 986.67 1199.39">
  <defs>
    <style>
      .cls-1 {
        fill: #fff;
      }
    </style>
  </defs>
  <g id="Layer_1-2" data-name="Layer 1">
    <g>
      <path class="cls-1" d="M503.43,0c5.07,12.98,10,26.01,15.22,38.93,40.18,99.4,80.43,198.78,120.64,298.16,33.98,83.99,67.81,168.03,102,251.94,17.75,43.56,47.17,77.34,88.16,100.53,17.11,9.68,36.25,13.99,55.62,16.78,33.45,4.82,66.06,1.19,97.85-10.17,.9-.32,1.84-.52,3.47-.97-35.25,74.83-38.41,150.49-9.72,227.36-6.31-1.5-12.17-3.28-18.16-4.23-17.45-2.77-33.68,2.19-49.46,8.81-17.44,7.32-32.69,17.97-45.13,32.25-13.64,15.66-30.63,27.11-47.57,38.6-73.42,49.79-153.82,82.83-240.87,99.81-8.77,1.71-17.62,3-26.52,4.06,27.07-6.45,53.58-14.53,79.08-25.65,27.78-12.12,55.45-24.44,79.21-43.88,18.86-15.43,35.31-33.07,47.81-53.94,8.09-13.51,12-28.82,14.24-44.4,4.42-30.7-1.17-59.59-14.02-87.83-14.18-31.15-26.67-63.07-39.84-94.68-77.02-184.91-154.02-369.83-231.03-554.74-.57-1.36-1.22-2.69-2.17-4.81-.79,1.79-1.4,2.95-1.85,4.18-56.45,154.21-112.87,308.43-169.35,462.63-19.78,54-39.53,108.01-59.66,161.89-5.87,15.72-12.88,30.97-16.23,47.57-11.55,57.24,5.06,105.97,43.95,148.3,22.15,24.11,50.25,39.06,79.32,52.66,28.39,13.28,57.72,24,87.84,32.63,.61,.18,1.23,.34,1.66,1.48-9.02-1.54-18.07-2.93-27.05-4.65-62.07-11.95-120.67-33.36-176.36-63.29-22.15-11.9-44.91-22.69-64.83-38.2-12.33-9.6-23.69-20.43-35.92-30.17-15.74-12.54-31.39-25.29-48.01-36.57-21.13-14.33-44.57-16.21-68.84-8.7-1.35,.42-2.67,.91-4.93,1.69,14.09-37.53,20.76-75.36,19.67-114.57-1.09-39.24-9.78-76.69-25.94-113.56,2.11,1.04,3.36,1.57,4.53,2.24,31.69,18.32,65.86,26.59,102.4,24.82,19.59-.95,36.56-9.26,52.78-19.49,39.25-24.73,64.77-60.01,82.02-102.66,50.47-124.83,101.73-249.34,152.68-373.97C440.88,150.97,471.64,75.73,502.39,.49c.06-.14,.02-.33,.03-.49,.33,0,.67,0,1,0Z"/>
      <path class="cls-1" d="M496.37,1095.47c5.17,8.12,9.79,17.26,16.14,24.98,13.06,15.89,30.73,23.5,50.93,26.71,60.03,9.54,117.53,.84,173.69-21.44,76.09-30.19,144.48-72.42,204.3-128.26,14.22-13.28,27.36-27.71,40.99-41.62,1.14-1.16,2.24-2.37,4.24-2.88-5.12,6.58-10.12,13.26-15.38,19.72-33.41,41.08-72.1,76.41-115.02,107.43-31.51,22.78-63.79,44.1-98.68,61.35-42.85,21.19-87.56,37.36-134.35,46.94-21.78,4.46-44.15,6.33-66.34,8.46-32.55,3.13-65.24,3.16-97.85,1.02-75.81-4.98-149.47-18.94-218.31-52.94-28.76-14.21-55.21-32.09-81.92-49.63-60.01-39.41-111.98-87.39-155.5-144.47-.95-1.25-1.81-2.58-3.31-3.16,5.99,5.4,12.26,10.51,17.91,16.24,36.5,36.98,76.58,69.61,119.32,99.12,51.2,35.35,106.69,61.19,167.05,76.34,26.99,6.78,54.21,12.57,82.23,12.61,24.55,.03,48.49-4.16,71.29-13.18,18.66-7.38,30.97-21.4,37.55-40.37,.46-1.33,.91-2.68,1.01-2.99Z"/>
    </g>
  </g>
</svg>