<?xml version="1.0" encoding="utf-8"?>
<!-- Generator: Adobe Illustrator 27.0.1, SVG Export Plug-In . SVG Version: 6.00 Build 0)  -->
<svg version="1.1" id="katman_1" xmlns="http://www.w3.org/2000/svg" xmlns:xlink="http://www.w3.org/1999/xlink" x="0px" y="0px"
	 viewBox="0 0 3176.7 1747.6" style="enable-background:new 0 0 3176.7 1747.6;" xml:space="preserve">
<style type="text/css">
	.st0{fill:#FFFFFF;}
</style>
<g>
	<g>
		<path class="st0" d="M2979.7,819.4c-4.8-5.5-10.1-7.4-17.2-7c-155.8,10.4-225.2-155-310-256.8c-29.2-39.4-58.4-78.6-87.8-117.9
			c-10.5-15.3-25.3-24.5-42.2-31.9c52.2-46.2,105.7-90.6,158.4-136.2c34.5-35.1,80.8-50.5,129-51.9c-23.3-28.3-109.9-9.6-139.9,3.5
			c-12.6,5-25,10.8-35.7,19.4c-70.7,60-140.4,121-211.5,180.5c-2-40.5-0.1-81.5-0.8-122.2c-0.2-21,42.2-23.6,57.6-22.8
			c3.4,0.1,6.1-0.7,8.5-3.2c9.9-11,22.7-19.3,33.5-28.4c-5.3-1.4-278.5-1.8-289.9-0.5c9.5,9.1,18.6,17.2,26.8,25.9
			c4.1,4.2,8.5,5.8,14.2,6.1c16.1,1.8,50.6,3.2,50.1,25.4c-0.1,122.8,0.1,245.5-0.1,368.3c-1.8,21.1-36,21.2-52,23.6
			c-4.6,0.3-8.3,1.8-11.4,5.2c-8,9.1-17.3,16.3-24.6,26h288.7c-9.2-6-17.6-12.9-25.3-20.6c-12.8-12.3-8-10.4-25.8-10.8
			c-13.4-0.3-26.5-2.3-38.8-8c-7.6-3.6-11.7-9.1-11.7-18.2c1.7-62.5-2.8-125.5,2-187.7c10.5-32.5,60.9,19.6,71.5,34.7
			c88.8,113.1,164.2,250.8,302.2,310.2c25.7,11.6,52.4,19.4,80.8,19.4c44.2,0,88.5,0,132.7,0v-8.4
			C2999.8,831.9,2988,828.7,2979.7,819.4z"/>
		<path class="st0" d="M777.1,794.2c13,10.4,27.7,16.8,42.4,23.6v21.7c-5.8,1.7-625.2,2.6-652,0.9c-0.1-0.5-0.5-1.1-0.2-1.2
			c8.7-7,22.3-26.4,32.6-27.5c57.2-3.3,95.4-40.9,104.1-96.7c7.6-65.8,7.4-132.1,7.9-198.2c-1.5-114.3,5.4-229.5-8.8-343.1
			c-9.1-52.8-48.4-89-102.5-90.6c-2-0.3-4.6-0.5-6-1.8c-9.5-8.8-18.7-18-29-28c156.9-1.4,313.7-0.5,470.6-0.1
			c76-0.1,156.7,46.7,175.1,124.1c26.8,97.7-17.8,197.1-118.6,225.3c70.9,15.5,144.2,49.2,176.1,118.6
			C914.4,622.8,878.6,743,777.1,794.2z M416.7,434.6c0,73.1,0,145.9,0,218.9c-0.5,30,10.4,58.3,27.5,82.7c19,28.9,46.5,58,83.8,57.4
			c73.3-0.9,137.3,10.5,192.2-50.4c28.4-33.4,43.8-75.9,43.6-119.6c2.2-27.9-0.3-55.2-9.5-81.7C703.6,404,532.9,438.9,416.7,434.6z
			 M416.7,390.8c73.2-4.2,151.2,12.9,220.2-17.7c62-25.6,86.8-94.6,76.1-157.7C692.3,76.6,523.5,87.6,416.7,89.9L416.7,390.8z"/>
		<path class="st0" d="M1603.7,724c8-8.5,15.4-16.2,22.5-24c2-2.3,4.4-2.4,7.1-2.7c13.6-1.9,27.7-1.5,40.5-7.1
			c-0.8-6.5-4-11.1-6.8-15.7c-15.1-24.9-30.2-49.7-45.5-74.5c-17.2-28.1-34.5-56.2-51.9-84.3c-5-8.2-11.1-15.3-19.5-20.2
			c-4.3-2.5-8.7-4.1-13.7-4.1c-38.6-0.1-76.7-0.3-115.4-0.2c-23.3,41.3-44.5,83.9-67.8,125.3c-1.4,2.3-3.3,4.1-5.5,5.3
			c-22.9,11.1-45.9,22.1-68.9,32.8c-7.9,3.3-14,6.9-22.8,8.7c69.7-135.7,144.7-268.1,215.3-403.3h194.8
			c-9.4,9.1-15.7,19.9-25.9,26.4c-18.1,3.6-29.4-3.6-48.7,9.9c-13.7,8.9-13.1,27.1-4.6,39.3c70.1,115.2,140.7,230,211.7,344.8
			c5.7,9.2,17.8,11.7,27.4,14.4c12.6,3.5,28.4-0.7,39.6,6.2c10.8,7.8,21.5,14.8,32.5,22.4C1890.6,725.2,1613.6,725.7,1603.7,724z
			 M1479,382.9l-40.8,75.2C1535.7,461.3,1526.9,462.2,1479,382.9z"/>
		<path class="st0" d="M2264.1,398.7c-11.3-1-25.5,2.8-34.2-3.1c-11.8-8.2-26.2-13.7-35.1-25.1c-18.9-31.1-44.6-58.2-81.8-64.8
			c-92.2-25.6-178.6,48.9-201.4,135.2c-38.5,128.4,75.8,302.5,219,239.7c40.1-18.5,48.8-40.5,57.5-81.2c0.6-2,2.6-4.1,4.4-5.4
			c14.5-10.1,29.1-20.2,43.8-30c10.8-5.9,22.9-4.2,35.3-6.1c-8.8,37.3-20.4,73.5-29.8,110.7c-2.4,8.9-7,15.1-14.6,19.7
			c-89.4,53.7-207.3,57.6-302.4,17c-232.2-111-158.8-418.9,88.5-444c75.9-7.7,159.8,0.2,221.5,49c5.3,4.4,8,9.3,9.2,16.4
			C2247.4,351.9,2254.9,375.1,2264.1,398.7z"/>
		<path class="st0" d="M1176.7,243.2l0.7,1.7c-5.9,6-11.7,12-17.7,17.9c-4.3,4.3-8.2,9.9-13.4,12c-5.2,2.2-11.9,0.7-17.9,1
			c-17.3,1.8-46.4,2.8-46.2,26.3c1.5,108.4-2.2,217,1.7,325.3c2.9,33.8,35.8,58.9,68.7,58.6c44.4-0.5,88.8-0.1,133.3-0.1
			c26.6,0.8,50.3-11.6,72.1-25.6c14-9.1,24.8-21.6,35.3-34.3c3.9-4.6,7.9-8.3,13.8-10c30.4-9.4,64.4-18,94.5-2.7
			c-11.8,6.7-23.4,11.2-35.4,17.1c-35.6,17.3-44.6,60.9-73.3,85.8c-8.2,6.8-17.2,10.5-28,10.5c-146.9-0.1-293.8-0.1-440.6-0.1v-26.8
			c27.7-9.1,50.2-33.9,51.9-63.4c4.3-109.5,1.2-219.3,2.6-328.9c1.9-19.7-10.5-24.8-27.4-28.8c-6.5-0.2-10.5-3.9-14.6-8.2
			c-8-8.9-17.6-16.9-25.4-25.8C998.3,240.7,1088.7,244.5,1176.7,243.2z"/>
	</g>
	<line class="st0" x1="1588.3" y1="843.6" x2="1588.3" y2="843.6"/>
	<g>
		<path class="st0" d="M680,956.1C624.3,915.6,556.3,889,487.2,887c-134,0.6-267.6-0.6-401.6,0.5c9.1,8.4,17,14.5,25.3,23
			c5.1,5.5,10.9,7.4,18,7.9c28.2,3.1,80.4,10.8,84.3,45.8c1.2,210.4-0.2,420.7,0.1,631.1c0,10.5-4.2,18.7-11.9,25.4
			c-21.9,17.6-51,21.6-78,24.1c-3.6,0.1-7,1.7-9.5,4.2c-9.7,8.6-22.1,17.8-35.4,18v8.4c118.4,0,236.8,0.1,355.2,0
			c92.5-3.7,192.2-39.1,263.9-98.3c67.2-56.4,105.7-141.1,116.3-227.2C831,1208.5,802.2,1044.2,680,956.1z M459.8,1618.2
			c-32.7-2-129.7,12.6-131.2-34.5c-4.5-217.2-0.2-434.8-1.7-652.1c72.7,2.5,150.3-12.2,217.8,21.1c100,46.9,146.1,159.8,151.3,264.9
			C711,1394.5,661.8,1588.2,459.8,1618.2z"/>
		<path class="st0" d="M2007.7,1074.1c103.4,0,206.7,0,310,0c66.5,0.8,150.6,30.2,162,104.5c15,77.5-34.1,133-107.8,149.3
			c30.2,42.7,60.3,84.6,90.6,127.1c40.7,52,71.6,113.7,124.7,154.4c12.1,9.1,24.9,16.8,39.4,21.4c10.4,2.6,16.5,11.2,23,19l1.6-0.9
			c0.8-203.3,2.7-407.3-0.7-610.7c-9.1-36.2-99.9-30.2-130.8-30.9l29.7,57.9c-11.9,1.2-23.9-0.5-35.9-0.2c-2.9,0-4.8-0.9-6.2-3.9
			c-6.7-13-16.8-23.1-28.5-31.5c-24.4-17.2-51.4-26.7-81.5-26.7c-2.7,0-5.1-0.5-7.1-2.6c-13.3-13.5-25.9-27.5-42-38.1l0.3-1.5
			c180-0.5,359.8-0.1,539.8-0.1c25,0.2,29.4-16.9,9.3-31.3c14.3-9.2,21.9-23.7,31.5-37.4c36.9,79.7,99.7,145.6,169.5,197.9
			c-18.6,0.7-36,0-54.5,0.3c-3.4,0.1-6.7-1-9.3-3.1c-23.9-17.4-48-34.5-74-49c-19.5-10.9-40-19.7-61-27.1c-6-1.9-12.2-2.9-18.6-2.9
			c-38.7,0-77.5-1.2-116.2,0c-0.6,137.3-0.5,274.6,0.3,411.9c0.8,34.7,2.5,69.3,6.5,103.7c0.8,25.9,7.8,51.1,21.3,73.2
			c20.8,35.7,55.6,41.2,92,48.7c9.7,10,21.1,17.9,33.3,24.5c0.3,0.2,0.5,0.7,1.1,1.8c-100.3,1.5-200.8,0.1-301.3,0.3
			c-16.2,0-31.4-5.4-46.4-11.2c-127.4-49.5-193.2-177.8-271.1-281.6c-15.5-19.1-34-44.4-61-44.8c-10.2,0.5-20.4,0.1-30.6,0.1
			c-12-0.3-18.1,8.8-17.3,20.2c0.3,65-0.7,130,0.5,195c0.2,4.3-1.2,7-5.4,9.1c-33.3,16.2-48.4,53.6-54.9,87.9
			c-1.4,6.8-1.4,13.9-1.6,21c-0.1,3.4-1,6-3.4,8.4c-12.7,13-25.1,26.2-38.2,39.8c-2.4-194.6,0-389.7-0.8-584.4
			c0-10.4-2.5-14.4-12.2-18c-8-2.9-16.3-5.1-24.9-4.4c-5.9,0.5-9.6-1.6-13.7-5.9C2028,1093.5,2018.2,1084.4,2007.7,1074.1z
			 M2191.5,1116.6c0.1,55.5,0.2,110.9,0.2,166.4c0,12.2,5.4,17.6,17.8,17.7c16,0,32.1-0.3,48,0.1c49.5,0.3,105.6-28.8,109.4-83.1
			C2371.8,1127.3,2261,1111.4,2191.5,1116.6z"/>
		<path class="st0" d="M1201.4,1074.1c-1.8,43.2,10.6,81.1,35.2,116.1c-71.1-10.5-38.4-9.7-82.9-48.6c-43-35.6-77.8-30.9-129.2-31.4
			c-33.5-0.9-29.4,33.8-29.4,55.8c-0.1,26.2,0,52.3-0.2,78.6c0,14.3,6.7,33.6,23.7,33.3c26.5-0.2,52.9-0.2,79.4,0
			c6,0,10.1-2.5,11.9-7.7c3.7-9.7,5-20.7,8.9-30.4c8.4-10.8,16.2-21.9,25.5-31.9c1.8,5.5,2.5,157.7,0.8,173.2
			c-7.8-8.3-15.1-16.3-22.9-24.4c-3.2-3.3-4.8-6.8-5.7-11.3c-8.4-36.2-7.9-30.1-42.6-30.5c-17,0-34,0-51,0c-14.4,0-22,5.3-25.9,19.4
			c-5.4,50.3-0.1,101.8-1.5,152.6c0.5,13.6,9.7,29,24.6,28.1c37-1.9,76.7,6.8,111.4-9.1c28.2-11,49.3-32.3,67.5-55.8
			c2.5-2.9,4.8-5.1,8.5-6.1c12.7-3.3,25.3-6.7,38.8-10.4c-1.6,11.4-3.4,22-10.1,31.8c-18.5,27.6-19.8,59.7-23.6,92.2
			c-132.5,0.2-275.2,1.5-410.6-0.6c11.7-11.4,24.8-21.3,36.6-32.6c5.8-5.4,11.4-8.6,19.7-8.3c12.7,0.1,34.2-4.2,33.6-20.6
			c-0.2-122,0.8-244.1-0.1-366c0-8.4-2.6-12.5-10.5-15.4c-9.2-3.4-18.6-5.8-28.4-5.1c-4.3,0.3-7.2-1.1-10.1-4.3
			c-9.4-10.2-19-20-28.9-30.5C939.9,1073.6,1072.3,1074.4,1201.4,1074.1z"/>
		<path class="st0" d="M2030.8,1190.1c-70.2-10.4-37.9-10.6-82.3-48.8c-39.8-33.4-79.8-31.8-128.7-30.7
			c-32.7-0.7-29.8,31.7-29.4,55.6c-0.1,26.2,0,52.3-0.2,78.6c0.1,14.3,6.7,33.6,23.7,33.4c26.5-0.2,52.9-0.2,79.4,0
			c6,0,10.1-2.5,11.9-7.6c3.7-9.7,5.1-20.7,8.9-30.4c8.4-10.8,16.2-21.9,25.5-31.9c1.8,5.4,2.5,156.6,0.9,173.2
			c-7.9-8.2-15.1-16.3-22.9-24.4c-3.2-3.3-4.8-6.8-5.7-11.3c-8.5-35-6.6-30.5-41.1-30.5c-17.7,0-35.4,0-53.1,0
			c-13.3,0-20.7,5.1-24.8,18c-6.3,50.6-0.2,102.8-1.9,153.9c0.5,13.6,9.7,29,24.6,28.1c37-1.9,76.7,6.8,111.4-9.1
			c28.2-11,49.3-32.3,67.5-55.8c2.5-2.9,4.8-5.1,8.5-6.1c12.7-3.3,25.3-6.7,38.4-10.3c-0.1,12.5-4.8,24.1-11.4,34.8
			c-17.4,26.7-18,57.8-21.7,89c-132.3,0.1-275.2,1.5-410.6-0.6c11.6-11.6,24.8-21.3,36.6-32.6c5.8-5.4,11.4-8.7,19.7-8.3
			c12.8,0,34.2-4.2,33.8-20.6c-0.3-122,0.8-244.1-0.1-366c0-8.4-2.6-12.5-10.5-15.5c-9.2-3.4-18.6-5.8-28.4-5.1
			c-4.2,0.2-7.2-1.1-10.2-4.3c-9.6-9.9-19.5-19.6-28.1-30.5l-1.1,1.1c126.8-4.1,258.1,0,386.3-1.4
			C1997.8,1123.1,2004.8,1148.3,2030.8,1190.1z"/>
		<path class="st0" d="M1225.4,1564.5c30.6-40.1,67-83.1,59.7-136.4c-0.6-6.9-0.1-13.8-0.1-22.3c6.2,6.7,13.1,11.1,16.9,18.6
			c4.8,9.3,9.5,18.5,16.5,26.4c42.1,43.4,114.7,81.2,174,52.1c28.9-12.9,46.9-49.6,29.6-78.6c-21.6-46.8-124.4-73.8-170-107
			c-55.3-31.4-75-87.8-59.9-148.4c12.3-45.2,52.4-77.5,96.7-88.7c40.8-11.1,83.7-7.2,122.3,9.9c23.4,11.6,44.4,0.8,63.7-13.6
			c1,31.6-3.3,63.2,7.1,93.8c10.6,30.5,16.1,34.7,10.1,69.1c-41.7-62.7-136.8-170.2-213.4-99.1c-8.8,10.5-20,25.7-14.6,40.2
			c36.6,79.1,182,68.1,235.5,155.3c20.6,28.8,20.3,64.9,19,98.8c-5.8,85.3-99.3,131-176.8,125c-61.4-0.2-121.4-47.6-179.1-5.8
			C1250.8,1561.5,1239.6,1562.4,1225.4,1564.5z"/>
	</g>
</g>
</svg>
