<?xml version="1.0" encoding="UTF-8"?>
<svg id="Layer_2" data-name="Layer 2" xmlns="http://www.w3.org/2000/svg" viewBox="0 0 240.28 246.01">
  <defs>
    <style>
      .cls-1 {
        fill: #40463d;
      }

      .cls-2 {
        fill: #eee32d;
      }

      .cls-3 {
        fill: #dbd8d3;
      }

      .cls-4 {
        fill: #252722;
      }

      .cls-5 {
        fill: #ededeb;
      }

      .cls-6 {
        fill: #191717;
      }

      .cls-7 {
        fill: #d8d4ce;
      }

      .cls-8 {
        fill: #424241;
      }

      .cls-9 {
        fill: #af9823;
      }

      .cls-10 {
        fill: #d8d3cd;
      }

      .cls-11 {
        fill: #d4d0cc;
      }

      .cls-12 {
        fill: #c2beba;
      }

      .cls-13 {
        fill: #dedddc;
      }

      .cls-14 {
        fill: #c9c9c8;
      }

      .cls-15 {
        fill: #0d0a08;
      }

      .cls-16 {
        fill: #2f2f2f;
      }

      .cls-17 {
        fill: #4f0608;
      }

      .cls-18 {
        fill: #e2deda;
      }

      .cls-19 {
        fill: #aeaca6;
      }

      .cls-20 {
        fill: #a4a4a4;
      }

      .cls-21 {
        fill: #e5e1d9;
      }

      .cls-22 {
        fill: #898c35;
      }

      .cls-23 {
        fill: #c6ba2f;
      }

      .cls-24 {
        fill: #343831;
      }

      .cls-25 {
        fill: #282828;
      }

      .cls-26 {
        fill: #030303;
      }

      .cls-27 {
        fill: #040303;
      }

      .cls-28 {
        fill: #1e1e19;
      }

      .cls-29 {
        fill: #ebe7e3;
      }

      .cls-30 {
        fill: #090807;
      }

      .cls-31 {
        fill: #2d2f2a;
      }

      .cls-32 {
        fill: #626254;
      }

      .cls-33 {
        fill: #a6a19b;
      }

      .cls-34 {
        fill: #230305;
      }

      .cls-35 {
        fill: #f5b845;
      }

      .cls-36 {
        fill: #6f6f6f;
      }

      .cls-37 {
        fill: #191a16;
      }

      .cls-38 {
        fill: #eaeaea;
      }

      .cls-39 {
        fill: #aca89d;
      }

      .cls-40 {
        fill: #a6a231;
      }

      .cls-41 {
        fill: #d5d0cb;
      }

      .cls-42 {
        fill: #e4e4e4;
      }

      .cls-43 {
        fill: #464b41;
      }

      .cls-44 {
        fill: #595758;
      }

      .cls-45 {
        fill: #f40a18;
      }

      .cls-46 {
        fill: #726d69;
      }

      .cls-47 {
        fill: #acaa65;
      }

      .cls-48 {
        fill: #340508;
      }

      .cls-49 {
        fill: #2c2c2c;
      }

      .cls-50 {
        fill: #230507;
      }

      .cls-51 {
        fill: #1d1d1d;
      }

      .cls-52 {
        fill: #151512;
      }

      .cls-53 {
        fill: #373737;
      }

      .cls-54 {
        fill: #dcdcdc;
      }

      .cls-55 {
        fill: #353535;
      }

      .cls-56 {
        fill: #e5e2dd;
      }

      .cls-57 {
        fill: #dcd32b;
      }

      .cls-58 {
        fill: #474544;
      }

      .cls-59 {
        fill: #2b2e28;
      }

      .cls-60 {
        fill: #f3ea1f;
      }

      .cls-61 {
        fill: #353932;
      }

      .cls-62 {
        fill: #111110;
      }

      .cls-63 {
        fill: #171514;
      }

      .cls-64 {
        fill: #6f713f;
      }

      .cls-65 {
        fill: #878931;
      }

      .cls-66 {
        fill: #535c3a;
      }

      .cls-67 {
        fill: #f6f922;
      }

      .cls-68 {
        fill: #7b7b7b;
      }

      .cls-69 {
        fill: #12110d;
      }

      .cls-70 {
        fill: #4f564a;
      }

      .cls-71 {
        fill: #f40b19;
      }

      .cls-72 {
        fill: #ddc128;
      }

      .cls-73 {
        fill: #0e0e0d;
      }

      .cls-74 {
        fill: #fcfc0a;
      }

      .cls-75 {
        fill: #1f1d1d;
      }

      .cls-76 {
        fill: #4f060b;
      }

      .cls-77 {
        fill: #d7d6c6;
      }

      .cls-78 {
        fill: #d2d2d2;
      }

      .cls-79 {
        fill: #0e0c0b;
      }

      .cls-80 {
        fill: #373e2e;
      }

      .cls-81 {
        fill: #362911;
      }

      .cls-82 {
        fill: #660808;
      }

      .cls-83 {
        fill: #51504f;
      }

      .cls-84 {
        fill: #141010;
      }

      .cls-85 {
        fill: #320609;
      }
    </style>
  </defs>
  <g id="Layer_1-2" data-name="Layer 1">
    <g>
      <path class="cls-30" d="M87.12,245.83c-20.32,0-40.63,0-60.95-.01-3.99-1.28-7.97-2.49-11.96-.03-1.31-.03-2.63-.06-3.94-.09-2.27-5.89-2.08-12.14-1.31-18.09,.99-7.74,.16-15.58,1.8-23.22-.2-5.28,1.54-9.83,5.17-13.66,2.8,3.22,2.37,6.99,1.87,10.8-.61,4.65-2.13,9.33,.22,14.94,1.44-3.58,2.86-6.26,4.34-8.9,2.22-3.96,4.62-4.99,8.52-2.77,7.63,4.32,16.1,3.37,24.24,3.94,5.07,.35,8.84-4.24,13.55-5.82,.97-.32,.96-1.48,.32-2.08-7.13-6.77-7.01-15.59-7.06-24.39-.02-4.41-.51-8.63-4.49-11.58-1.09-.81-1.39-2.28-1.34-3.63,.19-4.65-.57-9.29-.19-13.93,.49-5.94,3.17-7.99,8.93-6.4,3.06,.84,5.53,.02,8.02-1.46,1.02-.39,2.06-.45,3.13-.29,2.79,.69,5.71,.69,8.43,1.71,1.95,.84,4.08,.85,6.13,1.26,4.84,.54,9.62,1.57,14.52,1.51,2.22-.07,4.43,.08,6.65,.03,.84-.02,1.67,0,2.51-.05,1.4-.02,2.79,.1,4.19-.02,4.75-.11,9.51,.31,14.24-.42,.83-.13,1.66-.15,2.5-.11,6.2-.65,12.47,.14,18.65-.94,2.36-.42,4.72-.85,7.04-1.42,3.77-1.35,7.8-.62,11.63-1.45,2.15-.46,4.31-.88,6.27-1.98,1.98-.87,3.86-1.99,6.04-2.35,3.4-.64,6.81-1.23,9.5-3.71,.56-.5,1.2-.86,1.92-1.07,3.84-.26,7.64-.17,11.22,1.54,.6,.61,1.01,1.27,.76,2.17-1.75,2.17-4.19,3.17-6.72,4.06-11.77,4.11-23.95,6.57-36.03,9.51-9.95,2.42-20.04,2-30.05,2.93-2.96,.28-5.98-.32-8.91,.54-.54,.15-1.09,.23-1.65,.27-8.23-.43-16.41-1.9-24.7-.83-3.84,.5-7.53-1.1-11.35-1.07-.53-.04-1.05-.14-1.56-.27-3.34-1-6.69-2.08-10.25-1.38-4.73,.93-6.4,3.66-5.14,8.33,.09,.32,.1,.71,.3,.94,5.82,6.87,8.49,15.7,14.1,22.66,2.19,2.71,4.47,5.28,6.27,8.31,2.05,3.44,4.58,6.54,3.83,10.95-1.26,7.33-1.53,15.12-6.86,20.94-3.45,3.76-6.31,7.66-7.87,12.5-1.06,3.3-3.2,5.36-6.63,6.04-4.7,.93-9.04,3.57-14.58,2.74,7.38,2.26,14.39,2.82,21.53,2.63,1.88-.05,4.49-.88,5.22,2.2Z"/>
      <path class="cls-62" d="M87.12,245.83c-.99-1.23-2.41-1.07-3.69-.94-8.18,.84-16.1-1.17-24.13-2.03-1.01-.11-2.29-.18-2.35-1.34-.08-1.58,1.43-1.76,2.52-1.59,5.7,.86,10.6-2.23,15.94-3.07,2.61-.41,4.01-1.96,4.76-4.44,1.6-5.32,4.07-10.11,8.58-13.64,3.75-2.93,3.58-7.73,5-11.66,3.42-9.47,.17-17.68-6.59-24.56-3.32-3.37-6.06-6.87-7.57-11.46-1.13-3.44-2.9-6.72-5.9-9.07-3.04-2.39-3.72-5.98-3.88-9.36-.21-4.68,3.7-5.95,7.35-6.54,3.42-.56,6.89,0,9.98,1.88-1.79,1.75-4.28,1.64-6.42,2.44-3.66,1.37-4.43,3.2-1.78,5.8,4.87,4.77,9.08,10.12,13.95,14.9,5.17,5.07,10.72,10.23,13.51,17.03,2.68,6.52,4.56,13.6,.19,20.42-1.59,2.48-1.51,5.02-.51,7.63,1.47,3.81,.54,6.8-2.91,9.03-3.76,2.42-5.15,6.15-4.76,10.31,.37,3.98-1.1,6.01-5.6,6.61,5.58,1.14,10.57,1.51,15.62,1.5,1.73,0,4.16-.73,4.68,2.18-8.66,0-17.33-.01-25.99-.02Z"/>
      <path class="cls-52" d="M113.11,245.85c-3.22-2.01-6.77-.66-10.16-.96-4.46-.39-8.89-.82-13.35-2.09,.97-2.1,2.23-1.92,3.35-1.92,3.61,0,4.76-1.26,4.21-5.21-.62-4.45,.49-8.96,5.13-11.33,3.26-1.67,4.31-4.04,2.72-7.29-1.89-3.88-1.06-7.1,1.26-10.61,3.43-5.19,1.14-10.94-.21-16.04-1.13-4.27-4.68-7.67-7.75-11.21-6.91-7.97-14.41-15.35-21.46-23.15-2.42-2.68-1.47-4.87,1.65-6.16,2.75-1.13,5.62-1.94,8.65-1.88,.33,0,.66,0,1,0,.47,.45,1.21,.65,1.35,1.41-.05,.47-.27,.85-.66,1.13-.62,.33-1.29,.5-1.98,.58-1.88,.28-4.26,.07-4.83,2.37-.52,2.1,1.41,3.42,2.7,4.84,1.16,1.22,2.4,2.34,3.9,3.16,5.1,1.39,8.7,4.57,11.39,9.05,3,4.99,8.54,7.2,12.68,11,4.55,4.18,9.3,8.02,11.75,13.91,1.04,2.5,2.09,2.34,3.82,.3,2.18-2.57,3.62-2.07,4.61,1.16,1.12,3.64-.23,7.18-3.9,7.89-6.55,1.27-8.35,5.89-9.29,11.41-1.16,6.83-4.03,13.36-3.42,20.5,.13,1.54-1.07,2.74-1.94,4.66,6.33,.96,12.45,2.17,18.68,2.07,16.61-.29,33.21,.12,49.84-.5,11.01-.41,22.2-1.76,33.28,.4,2.95,.58,5.87-.09,8.76-1.25,4.28-1.71,7.18-.71,9.1,2.57-.29,.14-.58,.26-.88,.37-3.19,1.08-6.49,.98-9.78,.98-36.73-.05-73.46-.11-110.19-.16Z"/>
      <path class="cls-4" d="M12.18,203.92c-.97,10.66-1.91,21.32-1.99,32.04-.02,3.25,1.01,6.49,.07,9.74-.71,.1-1.43,.21-2.15,.31-.98-.38-1.96-.76-2.94-1.14-.66-1.22-1.73-2.22-1.95-3.67-.22-5.26-2.25-10.4-1.06-15.74,.1-.31,.19-.8,.41-.85,6.35-1.5,5.3-7.08,6.23-11.47,.37-1.73-.07-3.64,.47-5.36,.49-1.57,.38-3.76,2.91-3.85Z"/>
      <path class="cls-26" d="M14.2,245.79c3.33-3.82,6.07-3.81,11.96,.03-3.99,0-7.98-.02-11.96-.03Z"/>
      <path class="cls-28" d="M233.96,244.66c-2.43-2.81-6.18-2.84-8.43-1.4-3.74,2.41-7.46,1.81-11.03,1.36-7.62-.97-15.14-.3-22.73-.19-6.22,.09-12.46,.37-18.69,.41-13.14,.07-26.28-.05-39.42,.05-7.77,.06-15.23-2.11-23.27-2.64,4.83-2.05,4.78-5.84,4.78-9.9,0-8.18,3.16-15.76,5.22-23.52,.6-2.28,2.69-4.2,5.31-4.84,7.14-1.74,7.54-2.44,4.91-9.33-.39,.24-.95,.38-1.09,.71-.75,1.69-.21,4.37-3.07,4.43-3.05,.07-2.51-2.8-3.56-4.49-1.95-3.13-3.77-6.3-6.62-9.01-6.26-5.97-14.73-9.52-19.06-17.61-2.09-3.9-6.49-4.81-10.08-6.72,4.81-2.45,7.94,.61,10.72,3.63,6.94,7.54,14.83,13.65,24.36,17.59,1.93,.8,3.55,1.3,5.64,.3,3.49-1.67,7.45-.73,11.16-1.66,7.98-1.98,14.83-5.83,20-12.09,2.99-3.62,5.82-7.12,10-9.44,2.17-1.2,3.82-3.18,5.38-5.13,.98-1.23,1.53-2.62,.58-4.12-.8-1.27-2.1-1.51-3.49-1.46-2.23,.07-4.59,1.35-6.61-.67,0-1.27,.92-1.62,1.91-1.94,4.8-1.53,9.79-1.99,14.76-2.1,4.24-.09,5.4,2.33,2.91,5.79-3.18,4.41-5.36,9.62-10.15,12.81-1.37,.91-2.14,2.56-2.76,4.11-1.57,3.93-3.89,7.31-6.95,10.24-2.21,2.11-3.7,4.74-4.58,7.64-1.49,4.9,.64,7.5,5.72,6.63,4.29-.73,8.2,1.11,12.34,1.2,1.78,.04,2.02,2.57,3.82,2.74,.25-.37,.43-.76,.25-1.02-4.15-6.21-.64-10.73,3.54-14.79,4.64-4.5,9.44-8.93,16.24-10.06,2.25-.37,4.45-.29,6.11,1.33,2.14,2.08,4.58,2.95,7.51,3.41,4.79,.74,4.76,.98,8.6-.36,.84,.16,1.36,.7,1.7,1.44,.71,2,.35,4.19,1.14,6.18,.63,5.11,1.66,10.05,4.28,14.64,1.99,3.48,2.42,7.54,3.07,11.47,.11,2.54,.2,5.07,.16,7.61,.51,8.72,.93,17.45,1.48,26.16,.28,.54,.24,1.07-.1,1.58-.63,.34-1.26,.68-1.89,1.02Z"/>
      <path class="cls-32" d="M235.85,243.64c.02-.23,.02-.46,0-.69-1.73-3.19-.21-6.32,.16-9.48,1.4-7.14,.04-14.34,.49-21.5-.32-6.81,.72-13.65-.39-20.45-.63-5.77-2.02-11.41-2.96-17.13-.39-1.55-.57-3.16-1.09-4.68-1.01-4.95-1.87-9.92-3.02-14.84-.54-4.07-1.94-7.95-2.45-12.02-.2-1.58-.98-3.2,.36-4.67,.37-.4,.75-.81,1.12-1.21,3.94,12.76,5.72,26.02,8.82,38.98,3.05,12.77,4.12,25.87,2.88,38.89-.91,9.64,.77,19.58-2.86,28.95-.36-.05-.71-.1-1.06-.15Z"/>
      <path class="cls-26" d="M93.23,6.41c8.27-2.1,16.39-4.86,24.93-5.76,14.16-1.5,28.08-.55,41.5,4.6,1.2,.46,2.25,1.34,3.37,2.03,3.2,2.23,4.76,6.23,8.52,7.84,1.15,.77,2.21,1.66,3.21,2.62,2.46,2.5,4.97,4.95,7.49,7.4,9.44,10.66,14.92,23.03,16.14,37.24,.29,3.35,2.1,6.29,2.53,9.6,.02,2.04-.83,3.66-2.84,4.13-2,.47-2.91-1.28-3.74-2.66-1.65-2.75-3.86-5.04-6.39-6.86-3.75-2.7-7.92-4.14-12.59-2.21-1.7,.7-3.49,1.02-5.31,1.21-7.99,1.28-11.07-1.23-11.25-9.41-.07-3.23-.24-6.25-2.94-8.59-1.52-1.31-1.13-2.97-.17-4.51,1.23-2.18,3.25-3.71,4.75-5.67,1.9-2.48,1.93-5.05-.69-6.92-7.63-5.44-14.95-11.37-23.42-15.57-1.75-1.03-2.61-3.04-4.43-3.99-1.54-.91-3.01-1.93-4.4-3.05-3.92-1.8-5.57-.82-8.08,4.77-.11,.94-.21,1.88-.57,2.77-.45,.96-1.24,1.43-2.26,1.57-2.16-.18-3.86,.51-5.14,2.36-2.68,3.85-6.31,6.83-9.52,10.2-1.15,1.09-2.28,2.2-3.37,3.35-2.42,3.06-6.56,4.8-7.05,9.3,.18,2.54,2.49,2.85,4.08,3.89,2.63,1.72,5.41,3.24,7.64,5.53,1.64,1.57,2.81,3.19,1.34,5.57-.92,1.48-.37,3.2-.41,4.83-.14,5.65-5.73,9.49-11.34,7.85-6.98-6.2-18.23-8.02-25.31,1.07-2.22,2.84-5.29,4.95-7.39,7.95-1.33,2.89-2.31,6-2.33,9.09-.02,4.58,2.19,8.39,6.32,10.54,4.83,2.51,9.43,5.6,15.01,6.44,1.93,.29,3.54,1.2,3.7,3.39,.16,2.15-1.35,3.26-3.03,4.13-2.09,1.08-4.36,1.54-6.67,1.92-1.11,.18-2.59,.17-2.89,1.5-.33,1.47,1.24,1.74,2.15,2.32,1.11,.72,2.34,1.29,3.19,2.35,1.12,1.41,1.88,2.86-.21,4.14-.78,.28-1.66,.5-2.38,.18-4.33-1.92-8.46-1.18-12.52,.8-3.48-.68-5.74-3.72-9.23-4.58-2.57-.63-4.16,.02-5.44,2.03-1.41,2.22-2,4.69-.44,6.98,1.4,2.05,3.31,1.62,5.21,.36,3.78-2.51,6.85-1.54,9.3,2.08,1.95,4.07,5.57,5.12,9.65,5.36,1.49,.32,2.94,.71,3.67,2.25-2.44,3.01-5.33,3.45-8.88,1.93-4.16-1.77-6.84-.15-7.04,4.34-.22,5.09-.04,10.19-.04,15.28,0,1.25,.34,2.45,1.52,2.92,4.29,1.71,4.29,5.53,4.4,9.1,.13,4.4,.87,8.69,.34,13.24-.53,4.55,2.93,8.48,5.92,11.97,1.04,1.22,3.11,1.89,2.47,3.86-.58,1.78-2.47,2.14-4.16,2.06-2.99-.14-3.93,2.95-6.23,3.73-3.86,1.31-7.74,2.63-11.96,1.32-6.47-2-13.93,.92-19.89-4.48-1.93-1.74-5.28-1.14-5.93,2.61-.53,3.03-4.44,4.82-2.88,8.75,.42,1.05-1.74,1.09-2.84,1.01-1.77-.13-2.92-1.26-2.62-2.96,.61-3.41-.5-6.81,.65-10.31,1.44-4.39,.85-9.09,.21-13.66-2.23-2.78-.81-5.45,.53-7.86,5.98-10.73,9.21-22.33,10.63-34.41,.75-6.41,1.97-12.75,2.51-19.18,.13-2.44,.75-4.74,2.09-6.81,.94-1.25,1.63-2.66,2.52-3.94,1.7-3.63,2.56-7.45,2.31-11.45-.39-6.16,2.33-11.87,2.42-17.95,1.29-3.86,.99-8.12,2.96-11.81,3.22-3.07,3.03-7.38,3.44-11.19,.69-6.48,1.78-12.85,3.57-19.07,1.19-4.13,1.53-8.1,.3-12.2,.65-3.84,3.74-5.89,6.15-8.45,8.8-7.57,18.97-12.96,29.2-18.26,2.67-1.29,5.38-2.41,8.45-1.89Z"/>
      <path class="cls-69" d="M224.15,174.73c-2.34,1.1-3.47,3.25-4.69,6.4-1.06-4.52-3.46-5.82-7.05-5.22-1.21,.2-2.2-.45-3.13-1.25-5.32-4.61-8.64-4.24-14.53-.13-4.41,3.08-8.3,6.39-11.6,10.65-1.91,2.46-2.82,4.3-.63,6.94,1.04,1.25,1.9,2.85,1.35,4.61-.22,.71-.84,1.44-1.48,1.83-.74,.46-1.66,.25-2.09-.65-3.03-6.29-9.03-3.9-13.84-4.47-2.29-.27-5,1.47-6.88-.89-2.03-2.55-1.99-5.5-.58-8.45,1.44-3.01,2.9-5.98,5.58-8.14,2.52-2.05,4.16-4.73,5.3-7.72,1.2-3.15,2.85-5.82,5.86-7.71,4.39-2.76,5.07-8.42,8.76-11.92,1.5-1.42-.27-2.76-2.05-2.55-5.83,.69-11.87,.28-17.37,2.94-.96,1.12-2.29,1.38-3.63,1.32-7.16-.33-14.2,1.64-21.37,1.09-4.64-.62-9.55,1.35-13.97-1.42,.69-.89,1.67-1.05,2.68-.98,8.97,.67,17.94-.37,26.77-1.28,9.92-1.02,19.76-3.6,29.37-6.4,4.88-1.42,9.98-2.12,14.72-4.22,2.86-1.26,5.7-2.48,8.38-4.09,3.6-.2,4.4,2.79,5.82,5.08,2.1,6.26,5.22,12.15,6.8,18.6,.09,1.04-.15,1.93-1.04,2.62-.48,.37-1.93,.81-.05,1.46,4.44,1.54,3.63,4.71,2.48,8.06-.35,1-2.75,3.42,1.25,2.4,.43-.11,.91,.87,1.19,1.48,.21,.72,.17,1.41-.33,2.02Z"/>
      <path class="cls-67" d="M212.97,138.03c-1.57-1.75-2.45-4.17-4.94-5.01-.34-.33-.68-.65-1.01-.98-.9-3.22,1.34-2.55,3.05-2.41,4.58,.38,5.22-.23,4.27-4.62-.63-2.91-1.65-5.7-2.97-8.38-.92-2.21-2.88-3.97-2.91-6.58,.09-.48,.33-.89,.69-1.21,4.44,1.23,6.73-.64,6.8-5.48,.03-2.22-.81-4.63,1.22-6.49,1.31,6.7,2.61,13.4,3.92,20.1,.83,7.76,3.55,15.09,5.13,22.68,.23,1.13,.84,2.2,.75,3.39-.27,3.42-1.04,7.26-4.49,8.17-3.66,.96-4.72-2.88-5.79-5.61-1.03-2.64-2.25-5.16-3.71-7.57Z"/>
      <path class="cls-24" d="M31.21,129.03c-1.77,13.55-2.95,27.24-6.85,40.39-1.48,4.99-4.24,9.62-6.61,14.32-1.16,2.3-1.8,4.61-1.58,7.16-1.22,4.37-4.88,8-3.98,13.03-1.44,1.72-2.24,3.84-1.92,5.93,1.03,6.69-3.24,12.15-3.5,18.34-3.05,.43,.39-4.94-3.61-3.28-.17,0-.42,.06-.48-.02-2.17-2.81-2.42-16.96,.12-19.22,4.43-3.94,6.55-9.25,8.67-14.33,7.07-16.92,14.52-33.75,15.87-52.48,.24-3.38-.38-7.74,3.86-9.83Z"/>
      <path class="cls-18" d="M104.97,144.55c-5.03,.22-10.02-.05-14.93-1.31-3.7-.66-6.19-2.6-6.88-6.47,.73-5.81,2.94-7.66,8.4-6.71,3.56,.62,7.18,.98,10.67,2.02,.53,.21,.98,.53,1.37,.94,1.54,3.71,3.53,7.38,1.37,11.53Z"/>
      <path class="cls-69" d="M212.07,115.97c2.53,3.74,3.83,7.91,4.26,12.36,.31,3.22-1.2,4.04-4.16,3.21-1.72-.48-3.76-2.82-5.15,.5-3.74-.38-7.48-.75-11.22-1.13-.32-1.03,.11-1.92,.48-2.83,2.17-5.28-.49-8.93-6.28-8.65-1.73,.08-3.55,1.17-5.14-.44,.74-3.35,3.56-3.22,5.9-3.11,4.68,.22,9.21,1.65,14-.48,1.95-.87,4.82,.49,7.31,.57Z"/>
      <path class="cls-56" d="M161.02,141.87c-2.14,.98-4.42,1.18-6.72,1.23-2.75,.83-5.59,.51-8.34,.32-4.87-.33-5.53-4.41-6.47-8.08,.3-2.1,2.08-2.54,3.62-3.27,4.3-1.48,8.81-1.79,13.29-2.29,5.09,1.65,6.81,6.17,4.62,12.1Z"/>
      <path class="cls-29" d="M179.13,138.2c-1.73,1.36-3.81,1.66-5.9,1.93-1.53,.64-3.13,.28-4.7,.32-4.92-5.18-5.22-6.66-2.35-11.43,.38-.37,.81-.67,1.28-.91,2.59-1.07,5.35-1.69,7.89-2.89,6.03-2.85,7.61-2.08,9.09,4.51,2.35,5.4-2.65,6.2-5.31,8.46Z"/>
      <path class="cls-7" d="M73.14,140.17c-1.3-.41-2.6-.83-3.9-1.24-4.04-1.17-8.72-1.41-9.76-6.85,.21-1.86,1.33-3.15,3.03-3.53,1.63-.36,3.2-.43,3.61-2.47,.06-.29,.44-.54,.77-.57,4.54-.45,8.42,1.66,12.09,3.74,2.97,1.68,2.43,4.75,1.05,7.52-1,1.58-.96,4.43-4.11,3.4-.92,0-1.85,0-2.77,0Z"/>
      <path class="cls-21" d="M133.19,144.15c-4.95,1.49-10,1.4-15.07,.95-.12-.11-.23-.24-.37-.32-2.81-1.69-6.2-3.28-5.15-7.32,.98-3.78,4.56-3.64,7.67-3.86,1.31-.17,2.57-.66,3.91-.63,.81,0,1.6,.14,2.37,.39,6.77,2.92,7.72,4.47,6.64,10.78Z"/>
      <path class="cls-3" d="M179.13,138.2c.47-.63,.81-1.64,1.42-1.83,3.58-1.11,3.66-3.45,2.51-6.35,2.21-1.24,1.55-3.49,1.81-5.36,.41-2.98,1.86-4.86,4.84-5.58,2.98-.72,4.64,1.01,6.22,3.08,1.68,2.21,2.26,4.28,.24,6.7-.94,1.12-1.83,2.36-2.53,3.69-2.74,1.75-5.94,2.25-8.92,3.34-1.86,.77-3.72,1.54-5.58,2.32Z"/>
      <path class="cls-11" d="M193.1,132.18c1.52-3.23,5.79-6.03,1.38-10.14-1.45-1.35-2.47-3.02-4.95-2.03-2.29,.91-3.51,2.3-3.48,4.78,.01,1.32,.07,2.65-.11,3.95-.25,1.8-1.39,2.04-2.88,1.29-.65-5.62-1.95-6.33-6.59-3.92-2.92,1.52-6.02,2.66-9.35,2.96-.33-.38-.49-.82-.47-1.32,1.59-2.76,4.67-2.95,7.19-4.03,2.91-1.25,5.82-2.47,8.5-4.16,.85-.46,1.69-1.04,2.71-.45,.49-.02,1.03,.08,1.45-.09,4.21-1.69,7.96-1.81,11.12,2.23,3.18,4.07-.05,6.68-1.82,9.68-.29,.24-.58,.49-.88,.73-.35,1.04-1.05,.9-1.82,.54Z"/>
      <path class="cls-12" d="M79.14,136.02c1.97-3.9,.88-6.22-3.48-7.11-1.58-.33-3.02-1.34-4.59-1.71-1.37-.32-2.82-1.8-4.16-.63-1.52,1.33,1.68,2.29,.42,4.18-2.83-2.06-5.55-2.36-7.28,1.46-.59,.19-1.02,.02-1.31-.53-.33-1.04-.55-2.08-.13-3.15,1.65-3.3,4.55-5.09,8-4.65,6.58,.84,12.88,3.25,19.5,4.08,.78,1.88-1.2,2.43-1.81,3.65-.92,1.83-1.67,3.58-.19,5.45,1.39,2.63,3.09,4.96,5.93,6.2-2.04-.13-4.09-.23-5.9-1.37-1.08-2.44-5.97-1.65-5-5.85Z"/>
      <path class="cls-10" d="M140.04,134.91c1.75,7.95,7.52,8.92,14.27,8.19-6.35,1.6-12.78,1.67-19.25,.98-1.75-2.57-1.97-5.16,.04-7.67,1.27-1.59,2.69-3,4.94-1.5Z"/>
      <path class="cls-62" d="M89.14,149c-.33-.33-.67-.67-1-1,12.26,1.78,24.74-.34,36.97,2,.35,.5,.37,1.02,.06,1.54-.49,.74-1.2,1.17-2.02,1.43-3.91,.57-7.83,.56-11.75,.03-2.4-.89-4.99-.5-7.43-1.07-3.22-1.06-6.61-.2-9.85-.85-1.78-.36-3.57-.78-4.96-2.09Z"/>
      <path class="cls-33" d="M124.29,133.85c-.95,.35-1.91,.69-2.86,1.04-3.16-1-6.22-.08-9.29,.47-3.62,1.23-4.56,3.63-2.56,6.36,.81,1.11,2.84,1.28,2.54,3.24-2.39-.14-4.77-.27-7.16-.41-.57-3.9-1.13-7.8-1.7-11.7,6.4-2.51,12.94-1.46,19.45-.72,.85,.1,1.4,.81,1.57,1.71Z"/>
      <path class="cls-33" d="M140.04,134.91c-6.24,.57-4.85,5.28-4.98,9.17-.62,.02-1.24,.04-1.86,.07-.39-4.75-2.06-8.62-7.08-10.16,5.44-4.22,11.19-3.01,16.99-.94-1.02,.62-2.04,1.24-3.07,1.86Z"/>
      <path class="cls-19" d="M167.01,127.89c.04,.39,.07,.78,.11,1.16,0,0-.02,.01-.02,.01-1.27,.99-3.79,1.91-3.56,2.99,.62,2.96,.41,6.83,4.63,7.78,1.69,.1,3.38,.2,5.07,.29-3.9,1.76-8.28,.15-12.21,1.74-.37-2.87-.69-5.74-1.12-8.59-.34-2.21-2.29-1.89-3.8-2.24,2.89-3.61,6.75-3.88,10.9-3.14Z"/>
      <path class="cls-18" d="M111.14,134.1c3.44,.07,6.96-.94,10.28,.78-1.15,.04-2.31,.17-3.46,.12-2.04-.08-3.6,.71-4.46,2.51-.94,1.96,.74,2.97,1.8,4.19,.97,1.11,1.89,2.27,2.83,3.4-1.35,.41-2.68,.42-4.01-.08-5.42-4.77-5.71-5.84-2.97-10.92Z"/>
      <path class="cls-41" d="M111.14,134.1c-1.79,4.39,1.04,7.53,2.97,10.92-.66-.02-1.33-.04-1.99-.06-5.19-2.81-6.32-5.68-3.97-9.69,.77-1.32,1.84-1.19,2.99-1.17Z"/>
      <path class="cls-39" d="M79.14,136.02c.28,.72,.79,2.07,.81,2.06,3.81-1.36,2.93,2.41,4.18,3.79-2.74-.56-5.48-1.13-8.22-1.69,2.74-.09,1.59-3.21,3.23-4.15Z"/>
      <path class="cls-28" d="M125.1,150.99c0-.33,0-.66,0-.99,.33,0,.66,0,.99,0,4.66,0,9.32,.02,13.98,.02,.07,.95-.41,1.67-1.28,1.79-4.62,.65-9.27,1.61-13.71-.81Z"/>
      <path class="cls-69" d="M193.1,132.18c.61-.18,1.21-.36,1.82-.54-2.38,3.87-6.44,3.69-10.2,4.24,2.3-2.36,5.99-1.56,8.38-3.71Z"/>
      <path class="cls-75" d="M125.1,150.99c4.98-.55,10.11,1.18,14.99-.98,8.36,.39,16.61-1.74,24.98-1.02,2,.04,3.92-.14,5.88-.73,2.27-.69,4.46,.23,5.61,2.21,1.2,2.07,.53,4.14-1.28,5.81-2.67,2.47-4.91,5.4-8.44,6.88-1.33,.56-2.93,1.49-3.5,2.68-3.35,7.04-9.66,10.6-15.95,14.29-5.03,2.95-10.35,4.28-16.16,3.47-.32-.04-.73-.19-.96-.05-8.67,5.19-14.37-2.02-20.23-5.69-4.84-3.03-9.97-6.46-13.32-11.67-2.13-3.3-5.73-4.32-9.59-4.21-1.35-.65-2.35-1.65-3-3-4.36-6-4-7.08,3-8.98,.67,0,1.33,0,2,0,4.95,1.07,10.05-.07,15,.99,2.33,.38,4.89-.9,7,.98-2.81,2.36-6.5,.79-9.54,2.16-1.47,.66-3.69,.57-4.04,2.44-.36,1.89,1.6,2.77,2.93,3.65,10.74,7.08,22.29,10.08,35.27,8.05,9.69-1.52,18.01-5.54,25.79-11.14,1.06-.76,2.51-1.49,1.82-3.1-.7-1.64-2.45-1.79-3.89-1.59-7.09,.95-14.28,.46-21.35,1.44-3.16,.44-6.3,.48-9.45,.38-1.82-.06-3.74-.12-4.57-2.27,.33-.33,.67-.66,1-.99Z"/>
      <path class="cls-28" d="M104.13,150.99c-4.97-.71-10.16,1.86-15-.99,0-.33,0-.66,0-1,4.91,1.29,10.16,.13,15,1.99Z"/>
      <path class="cls-28" d="M87.13,150c-5.33,1.55-5.61,4.78-3,8.98-2.3-1.33-4.31-3.37-3.65-5.93,.79-3.06,3.93-3.06,6.65-3.05Z"/>
      <path class="cls-43" d="M31.21,129.03c-3.09,5.84-3.09,12.4-3.86,18.66-.93,7.6-2.89,14.83-5.62,21.88-4.09,10.55-8.03,21.18-13.36,31.2-.54,1-.79,2.36-1.61,2.98-7.89,5.96-4.05,13.83-3.59,21.15,.35,5.65,.7,11.3,1.05,16.94-3.35-3.74-3.48-8.63-3.78-13.06-.94-14.03-.49-28.06,2.73-41.86,1.16-1.13,2.69-1.2,4.16-1.47,1.82-.33,3.16-1.35,3.32-3.22,.5-5.72,4.23-10.49,4.59-16.25,.1-1.5,.98-2.81,1.84-4.05,5.78-8.33,7.82-17.64,8.53-27.68,.49-6.96,.21-13.53-2.06-20.05-.33-.95-.65-2.07-.23-2.93,2.72-5.5,.45-10.3-1.87-15.15-.79-1.64-1.43-3.38-1.23-5.28,.03-1.43,.25-2.76,1.69-3.5,4.18-1.33,6.26,.58,7.12,4.52,1.36,6.28,3.7,12.41,1.34,19.05-.82,2.32,.18,4.91,1.49,7.13,.89,1.52,2.36,2.9,1.31,4.93-1.26,1.82-1.87,3.86-1.96,6.06Z"/>
      <path class="cls-74" d="M217.16,96.87c-.03,2.13-.39,4.32,0,6.38,.42,2.26,.86,4.1-1.78,5.27-1.58,.7-1.04,2.65-2.04,4.22-1.43-1.28-2.81-2.52-4.19-3.75-2.04-2.5-3.62-5.34-3.35-8.56,.89-10.68-2.51-20.53-5.48-30.48-1.71-5.72-3.04-11.52-4.1-17.39-1.01-5.58-2.77-10.9-5.98-15.66-.76-1.13-1.52-2.61-.11-3.51,1.6-1.02,2.1,.98,3.02,1.75,11.45,17.44,18.29,36.76,23.21,56.85,.39,1.6,.55,3.25,.81,4.88Z"/>
      <path class="cls-60" d="M193.13,35.14c-.85-.46-1.7-.93-2.61-1.42,8.86,24.55,15.78,49.41,18.61,75.27-.05,.38-.1,.77-.15,1.15-4.9-2.07-4.75-6.82-5.12-10.82-.52-5.57-.5-11.19-1.72-16.68-.6-3.62-1.94-7.11-1.96-10.84-2.69-4.93-3.28-10.45-4-15.82-1.61-12-7.96-21.51-15.19-30.65-.61-1.6-2.21-2.51-2.94-3.97-.82-1.64-.68-2.97,1.77-2.07,5.68,4.24,10.48,9.23,13.32,15.85Z"/>
      <path class="cls-2" d="M212.97,138.03c3.56,2.16,3.94,6.28,5.83,9.47,.83,1.41,1.47,3.23,3.46,3.04,1.64-.16,1.23-2.15,1.95-3.05,3.62-4.45,.89-8.83-.03-13.12-1.25-5.77-3.4-11.37-3.1-17.41,1.96,7.07,3.92,14.14,5.88,21.2,1.06,5.57,2.13,11.13,3.19,16.7,.59,2.17,.94,4.48-1.5,5.63-2.98,1.41-5.44,.07-7.51-2.18-.35-.42-.72-.81-1.14-1.16-2.35-6.38-4.69-12.76-7.04-19.13Z"/>
      <path class="cls-81" d="M171.11,16.15c-3.13-2.56-6.56-4.85-8.08-8.87,3.81,.14,5.82,2.38,6.79,5.82,1.5,.56,2.24,1.45,1.29,3.05Z"/>
      <path class="cls-72" d="M179.81,19.29c-1.76,.23-1.84,1.08-.82,2.29,.94,1.11,2.23,2.02,1.98,3.76-2.34-2.33-4.69-4.66-7.03-6.99-.61-2.07-.15-3.06,2.18-2.17,1.21,1.06,3.05,1.38,3.68,3.12Z"/>
      <path class="cls-9" d="M176.13,16.17c-1.43,.02-2,.9-2.18,2.17-.95-.73-1.89-1.46-2.84-2.2-.43-1.02-.86-2.03-1.29-3.05,3.28-1.4,4.46,1.52,6.3,3.07Z"/>
      <path class="cls-70" d="M21.16,91.03c.83,2.38,1.39,4.91,2.56,7.11,2.18,4.12,3.69,7.91,.91,12.57-1.78,2.98,.94,6.23,1.93,8.89,2.4,6.49,.33,12.72,.07,18.92-.38,9.12-3.93,17.43-9,25.37-2.84,4.45-3.68,10.49-5.18,15.83-1.99,7.06-1.39,7.23-9.28,7.21,.88-10.43,4.08-20.44,5.51-30.77,1.11-8.03,3.12-15.96,2.47-24.17,.07-.3,.11-.6,.12-.91,2.34-9.42,3.36-19.11,5.95-28.47,.88-3.19,1.33-6.48,2.33-9.64,.27-.85,.07-2.13,1.62-1.94Z"/>
      <path class="cls-68" d="M21.16,91.03c-3.2,10.05-5.16,20.38-7.09,30.73-.58,3.13,.62,6.99-2.81,9.32,.19-10.84,3.59-21.08,5.86-31.53,3.45-15.85,7.51-31.52,14.05-46.45,3.29-5.01,5.49-10.75,10.01-14.94,.02,.34,.04,.68,.05,1.03,1.22,3.79-2.82,5.37-3.51,8.36-4.91,7.76-8.01,16.3-10.71,25.01-1.75,5.13-1.48,10.9-4.95,15.48-1.04,.77-.9,1.9-.91,2.99Z"/>
      <path class="cls-64" d="M237.21,190.95c1.74,6.92,.35,13.95,.78,20.92-3.16,.57-4.01-1.76-4.97-3.95-.29-6.94-4.75-12.52-6.26-19.08-.52-2.28-.88-4.52-.84-6.84,2.29-.35,2.03,1.64,2.6,2.84,1.51,3.14,2.77,6.38,4.11,9.58,.64,1.29,.64,2.9,2.19,4.04,1.19-1.55,.77-3.39,1.04-5.05,.16-.98,.37-1.93,1.35-2.46Z"/>
      <path class="cls-40" d="M224.15,174.73c-.07-.59-.14-1.19-.21-1.78-1.22-2.39-2.05-4.84-1.34-7.57,.24-.53,.65-.76,1.23-.68,2.19,6.77,7.32,11.69,11.06,17.49,1.21,3.78,2.17,7.59,1.44,11.61-2.15,1.62-3.4,0-4.73-1.31-2.02-5.58-5.14-10.73-6.61-16.54-.28-.41-.56-.81-.84-1.22Z"/>
      <path class="cls-66" d="M233.01,207.91c1.66,1.32,3.32,2.64,4.97,3.95-.48,7.34,1.15,14.76-.9,22.03-2.03-5.85-2.76-11.99-4.03-18.01-.01-2.66-.03-5.32-.04-7.97Z"/>
      <path class="cls-80" d="M233.06,215.88c1.75,5.91,5.2,11.45,4.03,18.01-.41,3.02-.82,6.03-1.23,9.05-1.66-.37-1.94-1.6-1.83-3.01,.59-8.05-.89-16.02-.97-24.05Z"/>
      <path class="cls-65" d="M224.99,175.95c2.56,5.24,5.72,10.21,7.03,15.99,.69,1.01,.89,2.01-.01,3.01-2.94-3.9-3.69-8.82-6.1-12.96-1.17-1.88-.95-3.98-.92-6.04Z"/>
      <path class="cls-57" d="M223.98,165.01c-.31-.03-.63-.04-.94-.03-1.28-2.49-3.17-4.81-2.14-7.92,.56,.33,1.24,.55,1.66,1.01,1.47,1.62,3.22,2.32,5.33,1.73,2.64-.73,1.93-3.09,2.26-4.93,1.61,4.88,2.56,9.89,2.99,15.01,.61,1.79-.08,3.03-1.66,1.59-2.45-2.22-5.54-3.69-7.49-6.46Z"/>
      <path class="cls-23" d="M223.98,165.01c2.99,1.35,5.92,2.7,7.91,5.56,1.08,1.55,.92-.26,1.24-.69,1.2,1.1,.81,2.58,.92,3.93,.56,2.73,1.02,5.46-.06,8.17-4.22-5.14-10.18-9.26-10.01-16.98Z"/>
      <path class="cls-47" d="M233.99,181.99c.02-2.72,.04-5.45,.06-8.17,1.75,5.58,2.57,11.33,3.15,17.13-.08,1.02-.16,2.05-.23,3.07-.37,.27-.69,.21-.97-.15,.55-4.17-.82-8.01-2.01-11.88Z"/>
      <path class="cls-15" d="M167.01,127.89c-3.63,1.05-7.27,2.1-10.9,3.14-4.34,.67-8.67,1.34-13.01,2.01-5.65,.58-11.41-.96-16.99,.94-.61-.05-1.21-.09-1.82-.14-6.91-2.31-14.03-.28-21.02-.99,0,0-.1,.13-.1,.13-1.85-.73-3.96-.64-5.69-1.76-5.61-1.63-11.12-3.55-17.06-3.88-2.06-.12-4.74-.32-5.39-3.27,2.02-1.77,.03-2.63-.96-3.42-1.15-.91-2.62-1.41-3.91-2.15-1.1-.63-2.78-.92-2.58-2.61,.21-1.79,1.97-2.3,3.33-2.55,2.6-.47,5.28-.51,7.72-1.63,1.6-.74,3.78-1.22,3.26-3.68-.45-2.12-2.56-1.49-4.01-2.07-7.51-3.03-15.99-4.45-20.25-12.84-2.81-5.53-.1-10.15,1.54-15.04,.89,.71,1.09,1.73,1.22,2.77,.07,.5,.09,1.01,.09,1.52-1.75,8.39,2.96,13.05,9.62,16.56,3.09,1.63,6.13,1.84,9.59,.63,4.94-1.73,10.2-2.27,15.38-3.07,2.99,2.27,2.81,5.27,1.25,8.02-2.66,4.7-6.01,8.75-11.77,10.04-2.49,.56-5.17,.98-7.73,3.18,4.69,1.86,8.39,4.82,13.24,4.92,9.39,2.07,19.1,2.11,28.44,4.5,6.58,1.69,12.72-1.44,19.09-2.01,2.4-.22,5.01-.28,7.16-1.8,1.55-.6,3.18-.68,4.81-.83,7.23-2.43,14.71-4.05,21.94-6.47,1.1-.32,2.29-.39,3.28-1.09,2.32-1.64,2.91-3.35-.11-4.73-4.15-1.9-6.68-5.41-9.2-8.9-1.59-2.2-2.3-4.56,.97-6.15,2.04-.45,4.25-.07,5.83,.79,5.3,2.86,10.69,2.73,16.27,1.57,.16,2.97,.12,3-2.8,4.25-1.41,.61-3.74,.32-3.66,2.59,.08,2.41,2.21,3,4.18,3.52,2.09,.55,4.68,1,4.81,3.54,.15,2.81-2.3,4.16-4.6,5.23-1.05,.49-2.23,.6-3.32,.96-3.98,1.3,1.12,1.58,.29,2.54-4.98,3.62-11.06,4.87-16.41,7.71Z"/>
      <path class="cls-38" d="M90.16,42.14c.59-4.91,4.92-6.93,7.79-10.07,1.92-.36,2.71,2.87,4.93,1.54,.33-1.9-2.61-2.49-1.83-4.58,3.66-4.03,7.39-8,10.95-12.11,1.33-1.53,2.59-1.78,4.23-.77,8.33,2.76,15.06,8.31,22.32,12.92,1.2,.76,2.23,1.98,2.1,3.68-.27,1.21-1.02,2.31-2.09,2.6-3.99,1.06-5.05,4.15-5.7,7.62-.21,.45-.48,.86-.8,1.24-4.54,2.98-8.2,1.88-11.71-3.5,0-2.34,2.04-3.69,2.77-5.67,.91-3.43-1.91-4.17-3.95-5.4-2.03-1.23-3.57-.04-4.74,1.44-2.31,2.91-6.27,4.47-7.02,8.61,.83,1.72,3.26,2.33,3.23,4.64-.64,2.38,.95,3.29,2.71,4.04,4.07,1.73,6.9,4.48,7.71,9.01,.44,2.46,2.57,3.78,3.93,5.63,1.07,1.46,2.58,3.18-.74,3.88-1.22-.03-2.29-.52-3.33-1.09-3.91-2.39-7.03-5.86-11.1-8.02-2.36-1.42-4.23-3.44-6.37-5.14-2.09-3.35-5.92-4.44-8.85-6.7-1.55-1.2-3.18-2.27-4.46-3.78Z"/>
      <path class="cls-84" d="M103.99,52.32c2.06,1.56,4.11,3.12,6.17,4.68,.54,.65,1.25,1.1,1.92,1.58,7.9,5.79,9.38,14.71,3.4,22.72-5.39,7.23-8.7,15.67-14.01,22.95-3.27,4.49-6.51,8.84-11.67,11.29-3.1,1.48-5.03,3.09-1.03,5.86,.84,.58,1.21,1.59,.4,2.6-4.78-.19-8.4-3.57-12.9-4.74-2.61-.68-1.65-2.92,.4-3.82,1.94-.85,4.07-1.47,6.17-1.72,5.91-.71,9.18-4.74,12.24-9.16,1.74-2.51,1.23-4.99,.05-7.49,.88-3.18,1.82-6.33,2.28-9.61,.65-4.63-.17-8.86-2.98-12.67-1.23-1.67-3.08-3.28-1.3-5.67,5.99,1.16,10.53-3.11,9.45-8.99-.18-.98-.74-2.18,.09-2.76,3.15-2.2,.37-3.68-.49-5.41,.7-.39,1.34-.47,1.8,.36Z"/>
      <path class="cls-5" d="M136.16,13.98c1.88,.1,3.47,.8,5.02,1.9,6.34,4.5,12.77,8.89,19.13,13.38,4.03,2.84,4.2,5.56,.7,9.27-1.35,1.44-2.7,2.88-4.05,4.32-4.37,5.2-8.85,10.3-12.9,15.77-.44,.56-.97,1.03-1.56,1.43-.81,.51-1.68,.87-2.61,1.06q-6.9,.01-8.55,7.32c-.17,.73-.69,1.04-1.36,1.21-.51,0-.97-.14-1.41-.4-1.74-2.92-2.88-6.13-4.34-9.18-1.26-2.64-.58-4.88,2.9-5.22,.99-.19,1.96-.53,2.59-1.35,5.51-7.24,11.99-13.69,17.09-21.23-.49-2.99-3.32-3.42-5.27-4.79-2.78-1.96-6.39-2.88-7.92-6.39,.58-1.99,1.32-3.95,1.67-6.01,.2-.44,.5-.81,.9-1.08Z"/>
      <path class="cls-79" d="M148.08,32.16c-5.91,8.62-12.2,16.92-19.98,23.97-6.64-3.06-13.08-6.4-17.91-12.12-1.42-1.22-2.85-2.44-4.27-3.66,1.88-4.96,6.27-7.75,10-10.98,1.97-1.71,7.1,2.18,8.48,6.05-1.09,1.6-2.18,3.19-3.27,4.79-.9,4.51,3.61,4.37,5.66,5.93,2.24,1.69,3.89-1.32,5.48-2.87l-.03,.03c1.61-4.12,5.35-6.62,7.75-10.14-1.2-4.03-5-5.17-8.03-7.12-5.21-3.35-10.47-6.6-15.72-9.89,.78-.04,1.5-.2,1.89-.99,1.02-.49,1.86,.05,2.73,.46,9.77,4.38,18.63,10.24,27.22,16.55Z"/>
      <path class="cls-73" d="M143.15,58.12c3.75-5.86,8.1-11.18,13.81-15.29-.51,1.65-2.44,3.19,.65,4.71,3.83,1.89,2.33,5.83,2.42,8.98,.2,7.3,2.94,9.45,10.02,7.58,.61,2.46-1.4,3.56-2.73,4.85-2.43,2.36-4.34,4.97-5.33,8.22-2.81,5.73-3.99,5.7-9.27,2.13-5.27-3.56-8.03-7.58-6.14-14.11,.9-3.12-1.01-5.35-3.44-7.09Z"/>
      <path class="cls-61" d="M40.2,89.12c-1.47,9.56-1.17,19.37-3.86,28.76-.21,.74-.8,1.37-1.21,2.06-5.03-1.86-4.4-6.02-4.01-10.02,.65-6.59,1.45-13.16,1.7-19.79,.23-6.21-.69-11.87-5.32-16.42,.3-5.3,1.44-10.26,5.73-13.93,8.73,4.09,9.73,5.96,8.61,15.24-.57,4.7-.71,9.45-1.64,14.11Z"/>
      <path class="cls-50" d="M93.13,69.12c-.34,2.3,1.25,3.57,2.55,5.1,4.83,5.64,4.49,17.56-.56,22.86-5.25,2.7-11.49,1.55-16.72,4.32-1.71,.91-3.44,.71-5.28,.19-9.64-2.76-14.01-8.79-13.96-19.49,2.6,.08,2.04,2.23,2.21,3.66,.57,4.73,3.2,7.37,7.73,8.54,3.72,.96,7.45,1.32,11.27,1.63,6.02,.48,9.89-2.82,12.62-7.16,2.75-4.36,.65-9.13-1.68-13.11-4.3-7.36-8.76-9.59-14.75-8.09-2.79,.7-5.35,1.84-6.75,4.61-.8,1.72-1.79,3.3-3.33,4.47-2.6,1.22-4.11,4.24-7.33,4.46,0-1-.01-2-.02-3,5.53-5.44,9.43-13.16,18.06-14.4,5.98-.86,11.75,.29,15.92,5.42Z"/>
      <path class="cls-34" d="M161.07,76.1c1.13-5.39,6.3-7.76,8.99-11.98,1.15-.1,2.36,0,3.44-.33,9.35-2.82,16.41-.03,21.69,8.57,.7,1.14,.67,3.38,2.7,2.98,1.59-.31,2.06-2,2.29-3.54,1.45,3.3,2.97,6.58,2.93,10.3-3.06-.68-3.73,.77-3.96,3.63-.56,6.96-3.95,10.84-10.11,12.35-7.07,4.33-13.46-.02-20.08-1.54-.95-.22-1.93-.31-2.89-.46-3.54-1.46-4.88-3.93-3.5-7.64,2.22-1.5,2.84,.82,3.85,1.78,2.69,2.56,5.44,4.84,9.42,4.78,.47,.06,.94,.16,1.39,.27,6.21,.81,13.65-1.92,15.39-6.37,2.85-7.28,3.49-10.78-3.37-17.7-.39-.26-.75-.55-1.1-.85-1.85-2.44-4.54-1.74-7.04-2.25-6.94-1.41-11.15,1.3-14.31,7.16-.92,1.71-2.19,3.75-4.65,4.03-1.25-.76-.41-2.23-1.07-3.19Z"/>
      <path class="cls-1" d="M28.15,73.04c9.2,6.92,5.66,16.71,5.59,25.61-.04,4.76-.88,9.52-1.6,14.25-.46,3.08,1.44,4.93,2.99,7.04-.65,1.01-1.3,2.02-1.95,3.03,.02-1.48-1.15-2.28-1.85-3.38-2.26-3.53-3.57-6.99-1.85-11.49,2.55-6.67-1.6-12.82-2.84-19.17-.3-1.56-2.98-.64-4.57-.89,.8-5.48,2.4-10.76,4.06-16.02,1.14-.59,1.47,.43,2.02,1.02Z"/>
      <path class="cls-31" d="M40.2,89.12c.44-5.82-.2-11.66,.74-17.51,.51-3.16,.37-6.87-4.28-8.02-1.34-.33-2.31-2.21-3.45-3.37-1.26-3.04,1.33-5.09,1.98-7.64,1.22-1.83,1.24-4.87,4.59-4.57,7.61,3.77,7.95,4.3,6.93,12.7-.71,5.88-.77,11.9-3.58,17.35-1.91,3.44-.8,7.68-2.94,11.06Z"/>
      <path class="cls-37" d="M43.13,78.06c1.07-6.49,2.6-12.9,3.09-19.5,.31-4.19-.81-7.2-5.16-8.31-1.13-.29-1.73-.87-1.85-2-1.14-2.61,1.35-3.94,2.06-5.9,.24-.38,.51-.74,.8-1.08,1.47-1.58,2.75-3.33,4.18-4.94,1-1.12,1.79-3.02,3.94-1.96,3.43,5.07,1.21,10.25-.21,15.11-2.18,7.46-2.61,15.14-3.92,22.7-.37,2.15-.43,4.7-2.94,5.89Z"/>
      <path class="cls-6" d="M59.16,129.03c.03,.96,.06,1.91,.09,2.87,.44,.56,.33,.97-.35,1.21-2.32-3.13-4.67-4.15-8.23-1.27-3.52,2.84-7.18,.81-7.51-3.68-.27-3.66,1-6.95,4.15-8.36,3.36-1.5,6.57,.88,9.54,2.52,1.27,.7,2.3,1.85,3.43,2.79,.12,1.45-.63,2.65-1.12,3.93Z"/>
      <path class="cls-46" d="M59.16,129.03c-.59-1.58,.54-2.68,1.12-3.93,4.6-5,9.74-1.93,14.75-1.01,4.58,3.69,10.29,2.93,15.56,3.84,2.81,.49,5.42,1.11,7.57,3.07-4.35,1.48-8.09-.81-12-1.98-6.27-.67-12.3-2.46-18.41-3.85-3.79-.86-6.73,.31-8.57,3.85Z"/>
      <path class="cls-42" d="M118.23,12.08c2.47-6.9,5.57-8.41,9.82-4.79,.52,2.49-.06,5.12,1.99,7.4,1.44,1.6,.28,3.06-1.84,3.41-1.82,.09-3.14-.95-4.47-1.96-1.72-1.51-4.18-2-5.5-4.05Z"/>
      <path class="cls-14" d="M127.86,17.34c1.55-.32,2.94-1.31,1.17-2.49-3.49-2.34-2.36-4.82-.99-7.55,1.42,.92,2.84,1.85,4.26,2.77-.34,2.9,2.65,3.31,3.82,5.08-.02,2.19,.31,4.49-1.98,5.91-3.27,.74-4.97-1.16-6.28-3.72Z"/>
      <path class="cls-68" d="M55.2,26.21c.43,.38,.87,.77,1.3,1.15-2.1,2.34-4.2,4.67-6.3,7.01-3.76,1.51-4.37,6.23-8,7.86-1.36-3.18,2.35-3.88,2.98-6.08,2.83-3.83,6.39-6.91,10.02-9.94Z"/>
      <path class="cls-78" d="M101.05,29.02c.32,.36,.58,.83,.97,1.06,1.83,1.07,2.8,2.7,2.89,4.75,.04,1-1.16,1.57-1.7,1.09-1.64-1.46-4.95-.66-5.26-3.86,1.03-1.01,2.07-2.03,3.1-3.04Z"/>
      <path class="cls-20" d="M103.99,52.32c-.6-.12-1.2-.24-1.8-.36-3-2.38-6.16-4.53-9.64-6.12-1.7-.78-2.9-1.63-2.39-3.71,5.04,2.81,10.04,5.68,13.83,10.19Z"/>
      <path class="cls-54" d="M136.13,15.15q-5.51-1.33-3.82-5.08c2.11,.49,2.88,2.3,3.85,3.91,0,.39-.02,.78-.03,1.17Z"/>
      <path class="cls-58" d="M58.9,133.1c.12-.4,.23-.8,.35-1.21,.27,.09,.54,.2,.8,.31,.8,5.33,6.27,4.29,9.19,6.73-4.59,.07-8.54-.98-10.34-5.83Z"/>
      <path class="cls-36" d="M118.23,12.08c2.05,.83,4.22,1.43,5.77,3.15-1.04,1.41-2.34,1.82-3.94,1.01-.65-.36-1.29-.73-1.94-1.09,.04-1.02,.07-2.05,.11-3.07Z"/>
      <path class="cls-28" d="M220.89,157.06c-.14,2.87,1.71,5.2,2.14,7.92,.3,2.66,.6,5.31,.91,7.97-.7,.14-1.06-2.33-1.92-.35-.58,1.34-1.17,2.31-3.2,2.17,.68-2.26,1.13-4.52,2.03-6.58,1.75-3.97,1.36-4.89-2.8-5.56-.56-.09-1.21-.54-1.52-1.01-.67-1.01,.25-1.82,.58-2.7,.51-1.37,2.91,.42,2.89-1.76,.28-.17,.58-.2,.89-.1Z"/>
      <path class="cls-27" d="M189.04,98.08c5.91-3.32,9.8-7.82,9.07-15.15-.11-1.16,.33-2.59,1.41-2.98,1.79-.66,2.33,1.5,3.59,2.15,2.08,5.52,1.71,11.35,2.11,17.08,.28,4.02,1.07,7.8,3.76,10.97,.62,2.16,3.02,3.37,3.09,5.82-.1,.13-.2,.39-.28,.38-5.48-.51-10.58,3.1-16.17,1.42-3.7-1.11-7.38-1.87-10.56,1.32-.54,.36-1.09,.73-1.63,1.09-1.57-.27-3.15-.54-5.17-.88,1.56-2.07,3.55-2.89,5.75-3.2,1.31-.19,2.7-.07,3.63-1.2,.98-1.19,3.19-1.87,2.57-3.76-.46-1.4-2.28-1.94-3.74-1.97-2.14-.06-3.82-.72-5.16-2.39-2.18-2.72-1.48-5.06,1.91-5.64,2.35-.4,4.54-.79,5.83-3.06Z"/>
      <path class="cls-7" d="M86.14,129.02c4.14-.18,7.76,2.81,12,1.98,1.67,.66,3.35,1.33,5.02,1.99-3.85,.34-7.49-.9-11.19-1.57-5.59-1.02-6.8-.28-7.88,5.63-3.01-3.65-2.49-5.69,2.04-8.03Z"/>
      <path class="cls-59" d="M201.06,119.67c6.28-.81,7.23,3.28,8.77,6.53,.46,.97,.2,2.93-1.33,2.29-1.82-.76-5.59,1.02-5.23-2.75,.22-2.31-.31-4-2.2-6.06Z"/>
      <path class="cls-11" d="M168.16,139.84c-1.88-.22-4.87,1.49-4.97-2.08-.09-3.34-2.89-8.3,3.9-8.69-4.25,4.05,.66,7.19,1.07,10.77Z"/>
      <path class="cls-49" d="M124.1,151.98c4.16,1.88,8.53,1.03,12.79,.81,7.75-.41,15.49-1.18,23.23-1.79,2.48-.19,4.98,.16,5.65,2.9,.67,2.71-1.96,3.4-3.7,4.61-7.93,5.56-16.32,9.94-26.15,11.04-6.81,.77-13.62,.26-20.43,.32-.16,0-.37-.02-.48-.12-5.39-4.94-13.2-5.69-18.52-10.83-2.53-2.44-1.99-3.69,.96-4.94,4.4-1.86,8.98-2.24,13.67-2.02,4.32,0,8.64,0,12.96,0Z"/>
      <path class="cls-68" d="M45.18,36.15c.2,2.61-3.25,3.44-2.98,6.08,0,0,.04-.08,.04-.08-1.72,1.53-2.29,4.04-4.42,5.22-.22-.08-.44-.17-.65-.25-.04-3.36,3.51-4.88,4.07-7.93,1.31-1.02,2.63-2.03,3.94-3.05Z"/>
      <path class="cls-68" d="M36.16,53.1c-.98,2.37-1.96,4.74-2.95,7.12-2.3,4.03-4.18,8.23-5.07,12.82-.67-.34-1.35-.68-2.02-1.02,2.53-8.81,4.99-17.65,11.04-24.89,0,0,.22,.18,.22,.18,1.04,2.24-2.05,3.61-1.23,5.8Z"/>
      <path class="cls-22" d="M236,193.87c.33,.04,.65,.08,.97,.15,.01,.32,.07,.65,.02,.97-.31,1.91,.13,4.92-2.26,4.94-2.29,.02-2.68-2.79-2.72-4.97,0-1,0-2.01,.01-3.01,1.38,.53,2.22,2.18,3.98,1.93Z"/>
      <path class="cls-51" d="M89.16,124.01c-.15-.47-.16-1.1-.48-1.37-5.52-4.82-5.58-4.91,.84-8.27,8.6-4.5,12.56-12.95,16.98-20.68,2.78-4.86,5.64-9.66,8.85-14.21,3.95-5.6,2.81-15.5-2.65-19.54-1.07-.8-2.15-1.56-2.55-2.93,4.27,1.86,7.72,4.83,10.96,8.09,2.11,1.54,4.16,3.16,6.19,4.8,2.01,1.62,3.92,1.6,4.95-1.27,1.14-1.93,2.33-3.79,4.94-3.8,3.22,.91,3.29,3.48,2.85,5.99-.52,2.94,.42,4.95,2.57,6.98,6.17,5.83,10.15,13.42,15.59,19.88,3.96,4.7,7.57,9.49,13.25,12.42,4.06,2.1,3.99,3.99,.61,6.94-7.33,2.32-14.66,4.64-21.99,6.97,.29-4.79,4.4-5.18,7.62-6.58,1.72-.75,4.4-.26,4.68-2.92,.26-2.41-1.94-3.29-3.63-4.28-6.89-4.03-11.79-10.2-17.27-15.76-4.72-4.78-11.09-6.34-15.25-3.2-2.76,2.09-5.75,4.15-7.78,6.97-5.2,7.24-11.02,13.69-18.86,18.23-3.7,2.14-1.1,4.03,1.1,4.83,7.06,2.56,14.25,4.71,21.92,2.82,1.32-.25,2.63-.21,3.94,.07,4.11,.77,8.12,.83,12.13-.74,2.14-.84,4.49-1.28,6.47,.63-1.34,2.79-4.08,1.58-6.19,2.17-10.54,2.97-20.9,2.93-31.7,.33-5.77-1.39-12.04-1.71-18.08-2.56Z"/>
      <path class="cls-25" d="M145.12,124.06c-5.03-1.01-9.36,2.99-14.41,1.98-1.55-.31-3.32,.49-4.62-1.01,4.94-1.63,10.22-2.07,15.02-4.25,.73-.33,1.64-.26,2.41-.59,1.95-.83,4.5-1.22,4.74-3.81,.23-2.47-1.78-3.85-3.73-4.81-3.43-1.67-6.81-3.43-10.15-5.28-2.35-1.29-4.97-1.37-7.07,.34-4.52,3.67-9.44,6.73-14.3,9.9-2.99,1.95-2.53,3.54,.29,5.53,2.73,1.92,6.28,.85,8.81,2.96-8.84,2.6-16.82-.2-24.51-4.15-2.71-1.39-2.21-3.62,.16-4.87,8.45-4.45,14.54-11.24,19.97-18.91,1.95-2.75,4.84-4.93,7.58-7,4.37-3.29,12.29-1.77,16.66,2.92,5.98,6.4,11.49,13.32,19.6,17.34,1.97,.98,2.76,2.78,2.44,5.01-.35,2.42-2.17,2.4-4.04,2.74-3.98,.72-7.73,2.03-9.9,5.88-1.65,.02-3.3,.04-4.95,.06Z"/>
      <path class="cls-63" d="M172.06,117.03c2.01-2.25,2.47-4.51-.79-5.83-9.41-3.81-13.46-12.82-19.51-19.85-3.94-4.58-6.58-10.22-11.61-13.98-1.74-1.3-2.39-3.38-1.43-5.8,.99-2.5,.53-4.87-1.81-6.6,.07-.21,.14-.42,.21-.63,1.16-2.2,3.67-3.11,4.96-5.19,.35-.35,.71-.69,1.06-1.04,4.54,.56,5.73,2.64,4.85,8.47-.8,5.27,3.59,12.71,8.67,14.13,3.92,1.09,3.01-2.99,4.4-4.62,1.18,.71,.96,1.89,1.01,2.99,2.01,2.81,1.55,5.9,1.01,9-.72,3.3,1,5.69,2.99,7.98-1.44,1.22-1.41,2.85-.3,3.96,3,3.01,4.76,7.12,9.07,9.02,5.42,2.39,5.36,3.84,.52,7.15-1.05,.72-2.13,.84-3.3,.83Z"/>
      <path class="cls-85" d="M69.15,72.1c-.58-3.41,2.45-4,4.36-4.86,8.75-3.95,18.53,1.37,20.6,10.97,.99,4.6,2.88,9.1-1.21,13.46-5.74,6.12-12.6,6.31-20.04,4.79-4.93-1.01-9.75-1.94-12.19-7.27-1.06-2.33,.55-5.09-1.51-7.11,0-.33,0-.66,0-.99,2.25-1.77,3.89-4.39,6.98-5,.63,2.35-.96,4.12-1.71,6.06-1.26,3.25-.48,5.84,1.93,8.12,4.8,4.55,16.15,5.02,21.3,.89,4.55-3.65,4.71-11.67,.3-15.66-.74-.67-1.51-1.3-2.14-2.08-4.48-5.54-6.64-5.92-13.02-2.26-1.14,.66-2.18,1.61-3.65,.94Z"/>
      <path class="cls-13" d="M110.18,44.01c5.97,4.04,11.94,8.08,17.91,12.12-3.96-.72-3.99,2.22-2.66,3.97,2.11,2.79,2.44,6.03,3.67,9.01-3.67,2.7-3.97-1.17-5.43-2.78,2.02-.26,2.17-1.01,.76-2.42-2.4-2.4-4.63-4.55-5.11-8.54-.37-3.05-3.81-5.04-7.09-6.27-2.22-.83-5.11-1.91-2.05-5.1Z"/>
      <path class="cls-44" d="M124.39,35.41c-1.21-2.59-3.87-3.33-5.99-4.79-1.6-1.1-2.55-.72-3.72,.54-2.87,3.11-5.84,6.12-8.77,9.18-1.72-1.18-.3-1.94,.42-2.69,2.4-2.52,4.75-5.11,7.34-7.43,1.26-1.13,1.94-3.99,4.65-2.29,2.68,1.68,6.54,2.12,6.84,6.33,.03,.36-.5,.77-.77,1.15Z"/>
      <path class="cls-77" d="M132.26,43.26c-1.24,2.15-2.53,6.26-5.06,4.31-2.22-1.71-8.53-1.47-6.08-7.36,4.66,5.37,6.23,5.8,11.14,3.06Z"/>
      <path class="cls-77" d="M139.98,33.14c-.97,4.61-4.99,6.9-7.75,10.14-1.54-6.52,3.71-7.87,7.75-10.14Z"/>
      <path class="cls-83" d="M123.67,66.33c1.84,.87,2.53,3.99,5.43,2.78,.17,.23,.38,.3,.65,.21,1.16,.56,2.13-.81,3.28-.32-.77,4.59-3.45,4.23-6.23,2.08-2.15-1.67-4.32-3.49-5.68-5.99,.85,.41,1.7,.82,2.55,1.24Z"/>
      <path class="cls-8" d="M120.06,16.24c1.31-.34,2.63-.67,3.94-1.01,1.28,.7,2.57,1.4,3.85,2.1,2.09,1.24,4.19,2.48,6.28,3.72,3.52,3.3,8,5.14,11.91,7.84,1.03,.72,3.43,.91,2.02,3.26-5.14-1.8-9.55-4.94-13.84-8.13-4.4-3.28-9.77-4.63-14.17-7.79Z"/>
      <path class="cls-13" d="M133.03,69.01c-1.05,.58-2.03,1.8-3.28,.32,1.42-.87,.35-2.05,.35-3.07,.03-4.63,2.81-7.03,7.12-6.19,.94,.18,1.95,.06,2.92,.08,.14,2.44-2.25,3.19-3.24,4.88,0,0,.02-.04,.02-.04-1.65,1-2.94,2.35-3.89,4.03Z"/>
      <path class="cls-51" d="M136.9,65.02c1.08-1.63,2.16-3.25,3.24-4.88,.65-.33,1.3-.65,1.95-.98-.63,2.93-2.72,4.56-5.19,5.86Z"/>
      <path class="cls-17" d="M69.15,72.1c1.19-.87,2.38-1.74,3.59-2.6,5.29-3.8,10.12-2.78,13.63,2.81,.42,.67,1.08,1.22,1.7,1.73,6.19,5.13,6.52,14.01-.12,18.39-3.79,2.5-8.5,5.38-13.66,2.24-2.03-1.24-4.53-.09-6.66-1.59-6.25-4.38-6.73-8.8-1.48-16.99,1-1.33,2.01-2.66,3.01-3.99Z"/>
      <path class="cls-76" d="M177.06,96.08c-.33,0-.66-.02-.98-.02-4.18-1.87-8.81-2.87-11.3-7.51-2.93-5.46-2.43-8.86,2.67-12.31,1.84-1.25,3.25-2.75,4.49-4.57,2.73-3.98,9.14-5.55,13.62-3.43,.43,.2,.59,.78,.74,1.25-.34,1.16-1.35,1.61-2.3,1.35-6.08-1.66-8.8,1.76-10.55,6.77-.2,.41-.44,.81-.68,1.2-.15,.29-.29,.6-.5,.84-4.21,4.89-3.49,7.25,2.94,9.62,2.16,.25,1.86-1.63,2.38-2.79,1.05-1.6,2.82-1.44,4.38-1.83,6.57-1.64,8.17-5.21,5.05-11.21-.58-1.11-1.7-2.11-.8-3.56,1.01-.66,1.94-.42,2.83,.24h0c9.43,8.88,6.52,21.19-5.94,24.88-1.94,.58-3.78,2.17-6.04,1.08Z"/>
      <path class="cls-48" d="M185.99,70.2c-4.15-3.8-9.98-3.09-12.81,1.82-1.44,2.5-2.81,4.57-5.78,5.67-2.38,.88-3.83,3.2-3.3,6.05,.68,3.68,2.03,6.98,5.73,8.71,2.19,1.02,4.95,1.06,6.25,3.62-6.36,.65-9.5-3.94-12.99-7.97-1.69-2.85-.81-5.98-1.01-9,1.2-1.37,2.95-2.54,3.5-4.13,3.38-9.76,11.67-8.19,19.11-8.46,2.26-.08,3.26,1.98,4.36,3.62-1.02,.02-2.04,.04-3.07,.06v.02Z"/>
      <path class="cls-48" d="M177.06,96.08c3.69-1.38,7.77-2.03,10.9-4.5,7.04-5.57,7.25-11.96,1.09-21.46,4.52,2.08,6.89,6.26,6.72,10.58-.19,4.83-.37,10.57-6.19,13.12-3.98,1.74-7.81,4.48-12.52,2.27Z"/>
      <path class="cls-68" d="M36.16,53.1c-1.72-2.38,1.22-3.78,1.23-5.8,2.01-1.34,2.32-4.29,4.85-5.15-.05,2.5-2.5,3.82-3.02,6.09-1.02,1.62-2.04,3.23-3.06,4.85Z"/>
      <path class="cls-16" d="M52.95,125.94c-.94,1.81-1.66,4.22-4.03,4.35-2.2,.12-2.74-1.93-2.73-3.87,0-2.25,1.11-3.95,3.32-4.19,2.31-.25,2.68,1.96,3.44,3.71Z"/>
      <path class="cls-55" d="M128.65,153.86c5.89,.95,12.12-1.08,18.36,.14,1.46,.28,3.29,.33,3.55,2.07,.25,1.61-1.59,1.89-2.69,2.5-9.68,5.37-20.1,5.63-30.75,4.42-1.64-.19-2.63-1.33-3.94-1.98-1.52-.76-2.22-1.94-1.95-3.64,.25-1.55,1.41-2.02,2.74-2.51,4.71-1.74,9.57-.4,14.68-1Z"/>
      <path class="cls-53" d="M122.11,125.04c-4.53,.61-8.47-.69-11.97-3.58-1.72-1.43-2.19-2.35-.03-4.14,5.47-4.53,12.02-7.5,17.27-12.32,1.4-1.29,3.66-1.51,5.22-.77,5.17,2.48,10.48,4.88,15.11,8.19,4.03,2.89,3.53,5.95-1.04,7.68-6.61,2.5-13.08,6.01-20.58,4.94-1.33,0-2.65,0-3.98,0Z"/>
      <path class="cls-71" d="M77.28,72.91c5.91,.03,9.01,3.27,8.92,9.35-.08,5.26-3.63,7.99-10.33,7.92-5.61-.05-9.79-3.7-9.68-8.42,.13-5.16,4.79-8.88,11.09-8.85Z"/>
      <path class="cls-45" d="M185.98,70.18c.39,.52,.72,1.1,1.19,1.55,2.61,2.49,3.62,5.47,2.48,8.92-1.18,3.58-4.35,4.64-7.6,5.44-1.4,.34-2.98-.17-4.25,.86-4.23-1.48-4.49-5.33-5.29-8.86,2.47-9.16,3.71-9.88,13.49-7.9,0,0-.01-.02-.01-.02Z"/>
      <path class="cls-35" d="M172.5,78.09c2.64,2.43,2.39,6.59,5.29,8.86,.23,1.35,2.04,2.67,.85,3.93-1.07,1.13-2.28-.54-3.46-.86-4.47-2.96-4.91-4.72-3.01-11.89l.34-.04Z"/>
      <path class="cls-82" d="M172.17,78.13c-.75,4.41,.26,8.37,3.01,11.89-4.38,.87-5.75-3.03-7.53-5.41-1.6-2.15,.58-3.58,2.91-4.25,.69-.2,1.08-1.45,1.6-2.23Z"/>
    </g>
  </g>
</svg>