<?xml version="1.0" encoding="utf-8"?>
<!-- Generator: Adobe Illustrator 27.0.1, SVG Export Plug-In . SVG Version: 6.00 Build 0)  -->
<svg version="1.1" id="Layer_1" xmlns="http://www.w3.org/2000/svg" xmlns:xlink="http://www.w3.org/1999/xlink" x="0px" y="0px"
	 viewBox="0 0 106.5 122.9" style="enable-background:new 0 0 106.5 122.9;" xml:space="preserve">
<style type="text/css">
	.st0{fill:#FFFFFF;}
</style>
<path class="st0" d="M53.2,26.6c6,0,12,0.4,17.9,1.3l-3,4.7c-4.9-0.6-9.9-0.9-14.9-0.9c-4.2,0-8.5,0.2-12.7,0.7l-3.1-4.8
	C42.8,26.9,48,26.6,53.2,26.6L53.2,26.6z M65.8,45.3c-4.1,0-7.5,3.4-7.5,7.5s3.4,7.5,7.5,7.5c4.1,0,7.5-3.4,7.5-7.5
	c0-1.3-0.3-2.6-1-3.7l27.4-36.8c3.2-5.6-4.1-9.4-7.5-4.7L67.7,45.5C67.1,45.4,66.4,45.3,65.8,45.3z M39.5,39.8
	c4.1,0,7.5,3.3,7.5,7.4s-3.3,7.5-7.4,7.5s-7.5-3.3-7.5-7.4c0-1.3,0.3-2.6,1-3.7L5.6,6.8c-3.2-5.6,4.1-9.4,7.5-4.7L37.6,40
	C38.2,39.8,38.8,39.8,39.5,39.8L39.5,39.8z M21.1,79.3h0.2V68.1c-1.7-0.5-3.4-1.1-4.9-1.8c-4.2-1.6-8-3.8-11.4-6.8v40.5
	c2,5.5,8.1,9.7,16.3,12.7v-10.5h-0.2c-1.4,0-2.5-1.1-2.5-2.5V81.8C18.6,80.4,19.8,79.3,21.1,79.3z M26.6,79.3h0.2
	c1.4,0,2.5,1.1,2.5,2.5v17.9c0,1.4-1.1,2.5-2.5,2.5h-0.2v11.5c0,0.2,0,0.4-0.1,0.7l0.6,0.2c7.6,1.9,15.4,3,23.3,3.2v-11.7h-0.1
	c-1.4,0-2.5-1.1-2.5-2.5V85.6c0-1.4,1.1-2.5,2.5-2.5h0.1V72.5c-8-0.1-16-1.1-23.8-2.9C26.6,69.5,26.6,79.3,26.6,79.3z M79.6,79.3
	h0.2v-9.8C72,71.4,64,72.3,56,72.5v10.6h0.1c1.4,0,2.5,1.1,2.5,2.5v17.9c0,1.4-1.1,2.5-2.5,2.5H56v11.7h0.2c8-0.1,16-1.1,23.8-3.1
	c-0.1-0.3-0.2-0.7-0.2-1v-11.5h-0.2c-1.4,0-2.5-1.1-2.5-2.5V81.8C77.1,80.4,78.2,79.3,79.6,79.3z M85.1,79.3h0.2
	c1.4,0,2.5,1.1,2.5,2.5v17.9c0,1.4-1.1,2.5-2.5,2.5h-0.2v10.9c8.4-3,14.6-7.3,16.3-13V59.6c-3.4,2.9-7.2,5.2-11.4,6.8
	c-1.6,0.6-3.2,1.2-4.9,1.8L85.1,79.3L85.1,79.3z M106.5,50v50.5l0,0c0,0.2,0,0.4-0.1,0.7c-2.1,7.9-10,13.7-20.7,17.2
	c-8.5,2.8-18.9,4.3-29.4,4.5c-10.2,0.2-20.4-0.9-30.4-3.4c-12.7-3.4-22.7-9.4-25.7-18c-0.1-0.3-0.2-0.7-0.2-1V50c0-0.1,0-0.3,0-0.4
	c0-6.8,6.3-12.7,16.5-16.8h0.1l3.1,4.2l-1.3,0.5c-8.2,3.2-13.3,7.5-13.3,12s5.1,8.8,13.2,12.1c8.9,3.6,21.2,5.8,34.9,5.8
	c3.2,0,6.3-0.1,9.3-0.3c3.4-0.2,6.8-0.7,10.2-1.2c5.3-0.9,10.5-2.3,15.5-4.2c8.2-3.3,13.2-7.6,13.2-12.1c0-4.3-4.7-8.5-12.3-11.7
	l3.1-4.2c8.9,4,14.3,9.6,14.3,15.9C106.5,49.7,106.5,49.8,106.5,50L106.5,50z"/>
</svg>
