<?xml version="1.0" encoding="UTF-8"?>
<svg id="Layer_2" data-name="Layer 2" xmlns="http://www.w3.org/2000/svg" viewBox="0 0 706.81 297.5">
  <defs>
    <style>
      .cls-1 {
        fill: #a9262f;
      }

      .cls-2 {
        fill: #d62b1e;
      }

      .cls-3 {
        fill: #493a3b;
      }

      .cls-4 {
        fill: #be2429;
      }

      .cls-5 {
        fill: #f40706;
      }

      .cls-6 {
        fill: #720708;
      }

      .cls-7 {
        fill: #f41a0e;
      }

      .cls-8 {
        fill: #ec060a;
      }

      .cls-9 {
        fill: #ef0a06;
      }

      .cls-10 {
        fill: #020000;
      }

      .cls-11 {
        fill: #fb0306;
      }

      .cls-12 {
        fill: #fa0304;
      }

      .cls-13 {
        fill: #c60704;
      }

      .cls-14 {
        fill: #e10f09;
      }

      .cls-15 {
        fill: #050000;
      }

      .cls-16 {
        fill: #c52e31;
      }

      .cls-17 {
        fill: #f4140b;
      }

      .cls-18 {
        fill: #af5e60;
      }

      .cls-19 {
        fill: #812c31;
      }

      .cls-20 {
        fill: #736e6f;
      }

      .cls-21 {
        fill: #010000;
      }

      .cls-22 {
        fill: #f90306;
      }

      .cls-23 {
        fill: #ed0e10;
      }

      .cls-24 {
        fill: #cc1919;
      }

      .cls-25 {
        fill: #cc1a1a;
      }

      .cls-26 {
        fill: #68494b;
      }

      .cls-27 {
        fill: #83393c;
      }

      .cls-28 {
        fill: #060000;
      }

      .cls-29 {
        fill: #ea100b;
      }

      .cls-30 {
        fill: #9c070c;
      }

      .cls-31 {
        fill: #d86167;
      }

      .cls-32 {
        fill: #ee0d0d;
      }

      .cls-33 {
        fill: #f70406;
      }

      .cls-34 {
        fill: #8c3b37;
      }

      .cls-35 {
        fill: #c6100f;
      }

      .cls-36 {
        fill: #b52d36;
      }

      .cls-37 {
        fill: #4e1b1e;
      }

      .cls-38 {
        fill: #c56268;
      }

      .cls-39 {
        fill: #f20a10;
      }

      .cls-40 {
        fill: #e80f11;
      }

      .cls-41 {
        fill: #c20409;
      }

      .cls-42 {
        fill: #b7222a;
      }
    </style>
  </defs>
  <g id="Layer_1-2" data-name="Layer 1">
    <g>
      <path class="cls-11" d="M184.75,174.51c-.73,.41-1.46,.81-2.19,1.22-5.81,1.8-11.82,1.25-17.73,1.31-20.7,.22-41.4,.18-62.1-.16-.83-.01-1.65-.11-2.46-.32-.98-.31-1.74-.89-2.23-1.81-.29-4.52-2.74-9.38,1.97-13.16,4.12-1.03,8.41-.05,12.54-1.01,4.6-.29,7.07-3.49,9.34-6.93,2.24-5.12,1.37-10.6,1.88-15.93,.67-3.16-1.53-7.15,2.69-9.28,7.39-1.54,14.87-1.56,22.35-1.39,3.51,.08,6.96-.47,10.42-.86,1.98-.15,3.97-.14,5.96-.11,4.31,.21,8.62,.07,12.93,.05,2.09,0,4.06-.26,4.5-2.88,.32-1.12,.92-1.99,2.07-2.38,2.11-.79,2.81-2.71,3.61-4.53,1.93-4.42,4.12-8.71,5.98-13.16,1.72-4.1,4.69-6.06,9.3-6.06,13.45,0,26.91,.08,40.36-.1,5.21-.07,8.79,2.06,10.25,6.92,2.33,7.72,7.86,9.84,15.19,10.15,29.7,1.27,59.42,.87,89.13,1.1,5.02,.04,9.91-.58,14.78-1.66,3.52-.61,7.06-.27,10.6-.37,1.14-.04,2.26,.12,3.37,.35,4.37,1.25,8.83,.49,13.25,.55,2.19,.03,3.11-1.25,3.53-3.33,1.28-6.46,.25-12.74-1.22-19-.45-.9-.88-1.81-.89-2.84,1.46-4.03-.58-7.56-2.07-10.92-3.07-6.91-7.69-12.71-14.22-16.78-5.37-3.01-11.05-5.06-17.18-5.83-6.52-.7-13.05-.09-19.57-.31-5.84,.04-6.33,.36-6.01,6.07,.33,5.91,1.22,11.78,.98,17.73-.13,3.18,1.86,4.72,4.43,5.84,1.22,.83,2.29,1.76,2.35,3.39-2.03,2.59-4.67,1.81-7.25,1.31-2.08-1-2.49-3.04-2.88-4.97-1.99-9.82-2.76-19.75-2.45-29.76,.11-3.38,1.55-5.43,5.09-5.39,9.78,.13,19.58-.84,29.33,1.13,18.6,3.76,29.41,15.42,35.09,33.01,2.8,8.67,1.99,17.42,2.14,26.19,.11,6.26,.26,6.5,6.42,6.52,5.82,.03,11.64-.04,17.46,.02,3.42,.03,5.11-1.22,5.36-4.89,1.69-24.64-6.35-47.1-30.24-59.92-9.77-5.24-20.24-9.19-31.5-10.25-3.65-.34-7.24-.99-10.85-1.63-2.29-.68-4.63-.45-6.95-.45-22.76-.02-45.53,.03-68.29-.07-2.24-.01-6.09,1.05-6.14-2.05-.04-2.34,3.81-1.67,5.99-1.67,26.42-.07,52.84-.03,79.25-.06,8.07-.02,15.79,1.92,23.43,4.22,8.2,3.13,16.66,5.74,23.85,11.08,4.25,3.04,7.73,6.91,11.38,10.6,2.4,3.49,5.5,6.46,7.55,10.22,1.7,3.06,3.07,6.26,4.16,9.58,4.74,7.8,4.7,16.4,3.98,25.04-.38,4.6,.61,8.14,5.3,9.87,1.07,1.36,1.55,2.83,.89,4.52-7.58,2.21-10.38,8.22-12.17,15.15-.53,2.07-2,3.78-3.09,5.63-.52,1.02-1.63,2.16-1.32,3.1,1.74,5.21-1.52,6.78-5.44,7.99-4.97,4.03-10.05,7.89-15.35,11.47-8.62,5.22-17.78,9.08-27.73,10.97-5.47,1.35-11.12,1.43-16.65,2.31-3.86,.07-7.71,.19-11.57,.11-4.08-.25-8.17-.04-12.25,0-5.59-.31-11.2-.24-16.8-.06-7.26,.24-8.99,3.07-6.31,9.82,1.31,3.23,2.51,6.51,4.09,9.63,1.73,5.07,4.08,9.89,6.1,14.84,1.79,3.94,3.27,8,4.96,11.98,1.41,3.01,2.53,6.15,3.89,9.18,.73,2.27,1.78,4.41,2.61,6.64,2.45,5.76,4.95,11.49,7.35,17.26,.86,2.99,2.53,5.65,3.56,8.57,1.15,2.84,2.1,5.77,3.56,8.48,1.78,3.11,3.39,6.3,4.04,9.87,1.55,2.99,2.28,6.24,3.02,9.48,.2,1.72,1.07,3.74-1.29,4.59-2.19,.79-3.18-.89-4.14-2.46-.5-.82-1.11-1.58-1.67-2.37-2.17-4.05-4.35-8.1-6.52-12.15-5.08-8.29-10.15-16.57-15.23-24.86-5.85-6.42-8.94-14.6-13.72-21.7-.8-1.81-1.95-3.48-2.04-5.55,.15-1.09,.49-1.99,1.83-1.96,1.98,.91,2.71,2.87,3.7,4.57,4.42,7.63,9.19,15.05,13.39,22.82,.63,1.16,1.15,3.34,3.05,2.47,1.5-.69,1.35-2.66,.82-4.07-1.41-3.73-2.73-7.51-4.32-11.17-12.55-29.01-24.07-58.46-36.88-87.36-2.97-6.69-6.21-13.27-8.82-20.11-1.33-3.49-3.7-4.77-7.33-4.59-6.62,.32-13.18,1.63-19.85,1.35-1.15-.54-1.53-1.49-1.43-2.7,.48-1.92,1.89-2.74,3.67-3.1,4-.53,8-1.1,11.98-1.76,4.16-.83,8.47,.03,12.64-1.12-5.05-.8-10.13-.49-15.21-.44-3.72,0-7.43,.1-11.15-.07-8.12,.17-13.66-3.28-15.98-11.33-1.46-5.06-4.77-6.91-10.08-6.7-13.09,.52-26.2-.48-39.28,.36-2.47,1.07-3.02,3.45-3.83,5.65-1.23,3.11-2.99,5.97-4.17,9.11-.24,.62,.09-.15-.17,.47-2.76,6.66-2.76,6.61,4.26,6.78,2.23,.05,4.71-.65,6.47,1.54,.25,1.27-.35,2.05-1.43,2.57-4.47,.61-8.94,1.22-13.45,1.52-2.64,.03-5.29-.07-7.85,.74-5.44,1.51-10.99,2.66-16.28,4.74-3.8,1.5-5.56,4.09-4.95,8.14,.8,5.3,1.72,10.59,6.36,14.18,3.16,2.69,6.95,2.59,10.76,2.42,1.71-.02,3.41-.05,5.1,.31,2.56,.87,3.66,2.53,3.02,5.29-.59,2.55,.36,5.24-.56,7.78Z"/>
      <path class="cls-33" d="M1.01,48.48c-1.81-3.77-.32-7.83-1.01-11.71,1.22-1.14,2.5-2.16,4.23-2.41,1.7-.14,3.4-.25,5.1-.18,2.1,.12,4.19-.16,6.28-.04,20.88-.27,41.75-.24,62.62,0,3.19-.03,6.53-.45,8.41,3.1,.3,.77,.42,1.58,.48,2.4,.54,8.45-.38,9.59-8.72,10.72-.81,.11-1.62,.26-2.42,.37-4.13,.16-8.15,.7-11.26,3.86-2.88,5.62-4.44,11.41-2.01,17.6,.92,2.33,.89,4.43-.34,6.64-1.76,3.18-.34,5.02,2.82,5.86,6.39,1.7,12.85,3.09,19.48,3.44,6.29,1,12.66,.83,18.98,1.2,5.21,1.22,10.5,.68,15.77,.71,2.01,.01,3.74-.65,3.72-3.01-.1-9.54,1.27-19.15-1.39-28.56-.36-1.28-.87-2.49-1.84-3.45-3.75-3.61-8.28-5.13-13.42-5.11-2.12,0-4.28,.24-6.3-.72-3.91-3.35-2.83-7.63-2.2-11.84,2.54-3.98,6.58-3.13,10.33-3.21,23.01-.19,46.02-.26,69.03-.03,2.95,.03,6.09-.37,7.98,2.76,1.04,3.38,1.14,6.78,.19,10.19-1.3,2.63-3.78,2.85-6.24,2.87-3.78,.03-7.43,.7-11.01,1.8-4.23,1.31-5.87,4.7-6.85,8.61-2.2,7.28-1.19,14.74-1.24,22.13-.01,2.17,1,3.87,3.23,4.43,5.61,1.4,11.25,2.54,17.08,2.41,1.62-.03,2.84-.7,3.74-2.01,2.04-2.59,2.2-6.56,5.83-7.98,1.25,.48,1.4,1.53,1.38,2.68-.08,.66-.25,1.29-.47,1.92-2.34,6.76-1.64,7.9,5.77,8.15,8.9,.3,17.8,.04,26.71,.08,8.8,.06,17.59-.04,26.38,.05,2.08,.02,4.41-.45,5.87,1.75-.85,2.24-2.9,1.89-4.62,2.03-15.53,1.24-31.12,.88-46.67,1.52-3.47,.14-6.93,.53-10.41,.57-9.41,.11-11.8,2.21-13.46,11.63-.14,.84-.44,1.59-1.14,2.12-.47,.22-.97,.27-1.48,.18-3.81-4-3.81-4.13-.02-13.02-2.03-.55-3.85,.03-5.67,.64-.31,.13-.64,.2-.94,.32-11.54,4.62-11.43,3.86-11.32,15.83,.01,1.48,.02,2.98-.65,4.38-.3,.51-.73,.86-1.29,1.04-1.26,.22-2.37,.08-3.07-1.16-1.64-4.62-.36-9.22,.1-13.83,.55-5.56,.07-6.42-5.44-6.03-23.54,1.66-47.15,1.43-70.71,2.65-10.94,.56-21.9,1.26-32.87,1.26-3.85,0-7.62,.48-11.41,1.03-2.76,.4-4.14,1.86-4.16,4.64,0,.83-.05,1.66-.05,2.5-.08,7.52,.13,7.74,7.83,7.76,4.16,0,8.32,0,12.47-.03,3.1-.02,4.33-1.47,4.6-4.55,.76-8.89,1.38-9.56,10.28-9.35,9.5,.23,18.89-1.31,28.39-1.15,9.48,.16,18.89,1.45,28.39,1.22,4.97-.12,6.39,1.64,6.81,6.64,.17,1.98-.04,4.01,.73,5.9,.07,1.84,4,1.68,2.32,4.43-2.37,1.09-4.69,1.04-6.97-.27-1.67-1.44-2.07-3.43-1.99-5.42,.18-4.22-2.02-5.36-5.83-5.39-14.59-.14-29.18-.13-43.77,.01-2.65,.03-5.31,.06-7.96,.07-2.86,.01-4.02,1.35-4.35,4.2-1.02,8.81-2.1,9.78-10.84,9.74-7.29-.03-14.59,.42-21.87-.3-3.21-.82-3.81-3.13-3.6-6.06,.38-5.41,.58-10.82,.06-16.24,.33-2,1.35-3.41,3.36-4,14.99-.41,29.94-2.02,44.96-1.42,2.46,.1,4.96,.24,7.4-.37,12.1-.05,24.21-.23,30.41-.46-6.5,.45-18.91,.17-31.3,.58-3.85-.14-8.02,1.73-11.33-1.81,.79-1.63,2.37-1.74,3.83-1.78,6.96-.19,13.89-.84,17.54-.91-6.31,.35-15.92,1.09-25.57-.21-6.75-.91-8.87-2.57-8.99-9.35-.13-7.31-.27-14.61,.91-21.9,1.7-10.47,7.29-15.76,17.93-16.7,2.36-.21,6.46,1.11,6.27-2.76-.18-3.69-4.19-2.25-6.55-2.26-21.1-.11-42.21-.11-63.31-.01-2.28,.01-6.11-1.04-6.26,2.1-.18,3.71,3.84,2.72,6.27,2.9,9.2,.71,13.73,3.56,15.84,10.24-.05,.56-.26,1.04-.64,1.46-3.17,.99-4.43-2.04-6.6-3.14-2.14-1.56-4.34-2.99-7.16-2.87-3.24-.91-6.63-.65-9.9-1.35-.47-.25-.88-.57-1.24-.96Z"/>
      <path class="cls-21" d="M1.11,171.12c-.56-1.88,1.2-3.32,.99-5.13,.74-2.1,2.63-1.65,4.17-1.76,2.3-.17,4.58-.33,6.85-.82,8.05-1.75,11.97-5.71,13.33-13.81,.27-1.62,.25-3.29,.64-4.91,.45-1.46,.36-2.97,.42-4.46,.23-5.96,1.37-7.45,7.24-7.88,6.79-.5,13.62-.25,20.44-.19,3.49,.03,5.28,1.86,4.53,5.48-.76,3.64-.52,7.3-.39,10.94,.28,7.94,5.22,13.38,12.98,14.54,2.46,.37,4.87,.96,7.38,1.11,2.69,.16,4.26,1.63,4.34,4.46,.08,2.61-.82,4.47-3.53,5.28-2.1,.63-4.21,.93-6.38,.93-21.94,.02-43.89,.02-65.83,0-3.03,0-6.17,.12-7.18-3.78Z"/>
      <path class="cls-32" d="M1.11,171.12c1.49,1.38,3.07,2.13,5.27,2.12,23.46-.11,46.92-.05,70.38-.14,3.24-.01,7.61,.79,6.23-5.19-.34-1.49-.7-2.54-2.45-2.41-.49,.04-1-.02-1.49-.06-17.82-1.33-24.34-9.81-20.69-27.67,.89-4.34-.35-4.75-4.01-4.52-6.14,.37-12.31,.27-18.46,.5-6.95,.25-6.93,.31-7.19,7.48-.05,1.47,.23,3.02-.69,4.36-.2-.18-.4-.36-.61-.54-1.22-2.97-1.01-6.11-1.04-9.21-.02-1.93,.51-3.58,2.58-4.29,10.97-1.24,21.95-2.42,33.01-2.48,2.28-.01,4.66-.27,6.67,1.23,1.04,2.49-1.28,2.74-2.52,3.37-3.73,1.89-5.12,4.83-4.99,8.92,.12,3.7,.65,7.28,1.97,10.71,1.47,3.8,4.05,6.42,8.28,7.03,4.18,1.13,8.71,.65,12.69,2.75,2.09,1.71,2.13,4.07,2.05,6.48-.29,3.44-1.96,5.82-5.31,6.91-7.24,1.01-14.54,.52-21.8,.63-13.07,.19-26.16,.52-39.2-.28-6.23-.38-12.49-.47-18.7-1.18-.64-1.5-.33-3,.02-4.49Z"/>
      <path class="cls-40" d="M2.96,162.48c2.03-.07,4.06-.14,6.09-.21,2.86-.72,5.44-2.24,8.34-2.83,4.22-1.84,6.16-5.47,7.67-9.52,.61-1.63,.14-4.08,2.83-4.41,0,0,.12,.06,.12,.06-.47,13.31-6.29,19.2-19.55,19.81-2.12,.1-4.31-.37-6.35,.61-.03-1.25-.44-2.59,.86-3.51Z"/>
      <path d="M367.35,38.47c8.91,1.05,17.9,1.84,26.4,4.86,14.52,5.16,27.9,12.04,36.74,25.55,9,13.75,11.11,28.91,9.89,44.9-.21,2.78-1.24,3.72-3.98,3.71-8.14-.04-16.29,.01-24.43,.27-3.09,.1-4.23-.8-3.72-3.96,1.12-6.87,1.46-14.24,.3-20.64-1.82-10.04-4.87-20.3-12.4-28.33-7.16-7.63-15.83-11.85-26.03-13.43-9.26-1.44-18.58-.57-27.87-.87-2.09-.07-3.02,.72-3.03,2.88-.04,11.67,.9,23.24,3.44,34.65,.05,.22,.51,.35,.78,.52,2.41,.97,4.88,.58,7.32,.2,1.39-.21,3.29-.28,3.45,1.03,.23,1.95-1.89,1.95-3.31,2.07-6.13,.52-12.28,.16-18.42,.15-5.15-.1-10.31,.05-15.46,.02-5.79-.03-6.92-1.19-7.01-7.1-.11-6.97-.09-13.92-.89-20.89-1.25-10.92-5.95-15.62-17-16-1.82-.06-3.69,.1-5.44-.51-3.11-1.08-3.61-3.59-3.33-6.47,.26-2.65,2-2.98,4.25-2.98,26.11,.05,52.21,0,78.32,.04,.52,0,.97,.19,1.44,.36Z"/>
      <path class="cls-22" d="M691.89,138.44c1.34,.02,2.67,.04,4.01,.06,2.64,.84,5.68-.53,8.12,1.46-1.49,2.81-4.45,1.31-6.57,2.28-1.57,.41-3.21,.39-4.77,.87-.22,.07-.43,.13-.65,.2-.43,.15-.87,.28-1.3,.4-1.31,.36-2.61,.78-3.96,.98-4.68,1.22-9.91,1.23-13.03,5.91-.82,1.1-1.6,2.23-2.23,3.47-5.28,9.9-13.1,17.26-22.75,22.79-8.45,4-17.2,6.56-26.68,5.63-6.89-.91-13.93-.98-20.44-3.85-3.98-1.95-8.12-3.67-11.76-6.2-3.26-2.27-4.63-.96-5.67,2.17-.91,2.75-1.13,5.95-4.34,7.39-4.73,1.64-9.1,1.56-12.85-2.34-2.56-2.66-5.97-2.58-9.31-2.58-25.22-.01-50.45,.17-75.67-.07-12.93-.12-25.85,.23-38.78-.09-1.82-.05-3.66,.11-5.43-.51-1.22-.52-1.99-1.46-2.47-2.66-.27-.79-.37-1.61-.41-2.44-.44-8.61,.67-9.89,9.17-10.23,2.86-.11,5.59-.72,8.27-1.6,5.75-1.43,6.14-6.83,8.15-11.04,1.04-1.46,2.17-2.83,3.46-4.08,.66-.51,1.42-.82,2.23-1,6.8-.21,13.52-1.7,20.35-1.27,3.93,.25,5.35-1.49,5.17-5.29-.2-4.31,0-8.64-.09-12.96-.05-2.46-1.21-3.85-3.73-3.42-7.4,1.27-14.96-.14-22.33,1.42-.6,.07-1.19,.1-1.79,.11-4.54-.26-9.28,1.39-13.56-1.39-.32-1.37-.65-2.75-.97-4.12,1.81-1.63,3.93-1.15,5.99-.83,3.38,.52,6.74,.76,10.1-.11,6.77-.81,13.57-.33,20.36-.37,3.28-.02,5.94-.33,6.35-4.43,.21-2.06,1.75-3.22,3.77-3.34,7.79-.46,15.59-.92,23.04,2.18,2.99,1.25,5.36,3.25,7.25,5.86,.3,.45,.51,.95,.66,1.47,.43,3.78,1.79,7.41,1.73,11.29-.06,3.6,2.97,2.81,5.06,3.33,.83,.24,1.56,.61,1.92,1.47-1.85,4.91-5.57,2.71-8.81,2.34-3.08-2.8-1.99-6.84-2.81-10.26-1.51-6.38-4.68-10.54-11.43-11.38-14.55-2.43-14.84-2.19-14.85,12.37,0,7.49-.35,14.98,1.85,22.31,.53,1.77,.71,3.59,2.37,4.73,4.39,3.15,9.43,3.26,14.52,3.1,8.1-.35,16.23,.59,24.31-.68,6.99-1.09,12.66-3.79,14.96-11.19,.75-2.42,2.61-3.77,5.18-4.01,4.74-.45,9.41-1.66,14.22-.98-4.19-.86-5.52-3.61-5.06-7.57,.17-1.48,.45-2.95,.59-4.44,.76-8.41,1.59-9.16,10.05-9.03,4.27,.45,6.55,2.9,7.04,7.09,.71,6.04,3.15,11.53,5.47,17.03,5.15,12.21,22.19,20.75,36.24,18.44,3.95-.65,7.6-2.4,11.58-2.84,.85,.23,1.36,.76,1.45,1.66-2.51,4.35-6.78,5.6-11.29,6.11-16.88,1.92-30.76-3.25-40.77-17.51-2.3-3.28-10.37-4.73-14-2.87-1.21,.62-1.78,1.65-1.74,2.8,.19,6.5-1.45,12.9-1.14,19.4,.08,1.59-.28,3.61,1.89,4.12,2.27,.54,3.24-1.15,4.01-2.91,.33-.76,.58-1.56,.96-2.3,1.94-3.76,3.9-4.68,7.05-2.14,5.02,4.05,10.85,6.44,16.61,8.86,22.16,9.32,53.54,1.54,63.76-24.31,2.09-5.29,5.59-6.97,10.58-7.32,1.73-.12,3.56,.34,5.16-.64,.6-.39-.5-.71-.05-.22,.2,.22,.12,.38-.25,.43-6.43,.94-12.9,.78-19.36,.72-4.69-.04-9.28,.51-13.76,1.87-1.18,.2-2.2,1.87-3.57,.43-1.3-3.79,1.1-5.52,4.07-5.88,5.17-.62,10.41-.21,15.62-.24-4.73-.04-9.46-.15-14.19,0-5.38,.19-10.01-1.25-14.19-4.8-5.19-4.41-10.9-8.07-17.33-10.58-2.72-1.06-5.68-2.24-6.02-5.91,1.39-3.25,3.3-1.71,5.16-.56,8.54,4.69,17.54,8.58,24.64,15.7,3.58,3.59,8.77,2.39,13.37,2.23,3.14-.1,6.22-.96,9.39-.93,2.72,.03,3.48-1.36,2.63-3.89-1.38-4.11-3.94-7.24-7.52-9.62-1.5-1-3.36-1.5-4.39-3.16-.02-1.33,.93-1.69,1.95-1.98,3.42-.11,6.96,1.33,10.23-.78,.99-.29,1.99-.36,3.01-.18,3.01,1.08,4.64,2.47,1.02,4.92-.88,.6-1.38,1.23-1.29,2.43,.78,9.97,4.12,13.79,14.04,15.97,1.76,.39,3.7,.16,5.18,1.52Z"/>
      <path d="M266.55,129.55c7.8-1.95,15.79-1.6,23.72-1.87,2.69-.09,2.9,2.36,3.69,4.08,11.87,26,22.86,52.38,33.84,78.77,5.54,13.3,11.12,26.58,16.68,39.87,.06,.15,.12,.31,.19,.46,1.52,3.11,.83,6.88-1.47,8.12-2.7,1.46-3.58-2.76-4.48-4.5-4.97-9.61-11.02-18.56-16.32-27.96-4.46-4.4-6.8-10.2-9.83-15.47-14.64-25.45-29.62-50.69-45.15-75.6-1.04-1.68-3.76-3.48-.88-5.89Z"/>
      <path d="M375.43,171.66c-6.34,1.72-12.87,1.21-19.3,1.41-11.31,.36-22.63,.06-33.94,.24-3.11,.05-5.15-.78-5.89-3.94-.04-.16-.12-.31-.21-.45-6.88-10.42-5.73-21.9-4.94-33.55,.72-10.62,.21-10.63,11.15-10.96,4.32-.13,8.65-.31,12.95-.7,3.27-.3,4.38,.81,4.23,4.17-.32,7.31-.63,14.65,.6,21.93,1.29,7.61,4.23,10.28,11.97,10.69,11.43,.61,22.6-.48,33.18-5.27,2.55,.34,4.6-.93,6.26-2.5,2.69-2.54,5.22-3.31,8.95-1.95,3.52,1.28,7.53-.42,11.29,.47,1.42,.34,3.22,.09,3.83,1.76,.73,1.98-.85,3.09-2.22,3.98-8.24,5.38-17.18,9.15-26.71,11.63-3.74,.98-7.9,.45-11.21,3.04Z"/>
      <path d="M165.27,131.09c-.87,1.43-1.97,1.28-2.89,1.52-6.06,1.56-7.14,2.92-6.35,9.07,.53,4.1,.55,8.27,1.91,12.28,1.95,5.73,5.82,9.62,11.66,10.32,4.4,.53,6.62,2.02,6.4,6.79,1.43-1.92-.69-4.62,2.03-5.46,1.01-.31,2.7-.31,3.3,.31,1.34,1.37,.86,3.41,.75,5.19-.09,1.47-1.28,1.75-2.54,1.79-2.97,.1-5.93,.31-8.9,.32-21.43,.02-42.87,.02-64.3,0-2.43,0-4.86,.55-5.02-3.54-.12-3.34,.5-4.28,3.88-4.37,15.59-.44,20.3-4.82,22.09-20.29,.42-3.62,.42-7.3,.37-10.96-.03-2.24,.52-3.36,3-3.42,9.96-.24,19.92-.63,29.88-.95,1.68-.05,3.27,.23,4.73,1.43Z"/>
      <path class="cls-10" d="M179.69,110.6c-1.98-6.4,2.9-13.52,9.75-13.86,9.93-.49,19.88-.75,29.82-1.08,12.09-.39,24.19-.74,36.28-1.11,2.23-2.01,4.98-1.26,7.54-1.35,4.43-.15,8.87,.13,13.29-.24,2.53,.2,3.55,2.1,4.46,4.07,.83,1.79,1.83,3.5,2.66,5.28,2.87,6.18,7.93,8.9,14.4,9.57,12.24,.57,24.48,.32,36.7,.2,9.92-.09,19.75,1.77,29.68,1.05,3.05,.48,6.5-1.14,9.08,1.75-3.32,1.28-6.82,1.29-10.29,1.31-23.42,.1-46.84,.23-70.26,.17-8.79-.02-17.59-.35-26.37-.89-5.75-.35-10.91-2.35-12.51-8.68-1.7-6.74-5.78-8.33-12.4-8.04-13.1,.57-26.24,.28-39.36,.12-3.13-.04-4.86,.98-6.07,3.86-2.58,6.12-5.47,12.11-8.18,18.18-.87,1.95-1.67,3.59-3.43,.67-3.46-2.85-4.12-6.92-4.78-10.99Z"/>
      <path d="M375.43,171.66c.05-2.35,1.35-3.02,3.56-3.1,7.76-.31,14.97-3.03,21.84-6.24,4.27-2,8.98-3.46,12.59-6.81,.61-.56,1.57-.98,1.42-1.85-.22-1.31-1.48-1.17-2.42-1.09-3.24,.27-7.34,.71-9.56-.14-6.25-2.37-9.96,.57-14.21,3.77-1.07,.81-2.59,.49-3.42-.95,11.8-7.07,18.76-17.5,21.36-30.92,.43-2.21,1.64-2.91,3.82-2.96,8.31-.19,16.62-.42,24.91-.89,3.66-.21,4.23,.98,3.11,4.24-2.75,8.03-5.34,16.1-12.09,21.9-1.62,1.04-3.38,1.01-5.24,.98-7.2-.15-14.4-.27-21.52,1.07,6.51-1.24,13.09-1.19,19.68-1.1,1.68,.02,3.37,.03,4.14,1.97-.44,3.01-3.04,4.22-5.06,5.79-12.64,9.78-26.95,15.24-42.9,16.35Z"/>
      <path class="cls-29" d="M369.36,35.58c.78,.29,1.55,.58,2.33,.87-28.7,0-57.4,0-87.4,0,2.97,1.58,4.81,1.09,6.55,1.1,23.76,.04,47.52,.02,71.29,.06,1.76,0,3.69-.63,5.23,.86-25.94,0-51.89,.07-77.83-.09-3.6-.02-5.22,.66-4.85,4.6,.22,2.35,1.01,3.33,3.3,3.24,1.16-.04,2.33,.02,3.49,.08,12.66,.65,17.81,5.74,19.18,18.32,.78,7.15,.89,14.3,.6,21.43-.17,4.11,1.31,5.14,5.13,4.93,5.3-.29,10.63-.08,15.95-.08-.7,2.41-2.79,1.76-4.43,1.93-2.07,.22-4.25-.21-6.08,1.22-1.88,.86-3.96,.76-5.92,1.27-1.19,.25-2.38,.37-3.56,.01-.42-.17-.77-.43-1.06-.76-2.26-1.73-4.71-.58-7.03-.3-2.48,.3-4.91,.67-7.38,.06-1.55-.51-3.19-.22-4.73-.61-1.23-.31-3.07-.24-2.46-2.48,3.35-2.04,7.1-.86,10.65-1.34,6.18-.83,6.76-1.22,6.65-7.33-.11-5.77,.65-11.55-.32-17.29-.62-2.82-.4-5.87-2.27-8.36-2.22-3.96-5.66-5.83-10.12-6.06-1.98-.1-3.9-.83-5.88-.81-4.68,.04-6.56-2.34-6.29-6.81,.05-2.3-.27-4.67,1.39-6.63,.69-.38,1.39-.76,2.08-1.15,.31-.11,.62-.32,.94-.33,22.7-.64,45.4-1.79,68.12-1.13,4.92,.14,9.83,1,14.74,1.55Z"/>
      <path class="cls-8" d="M321.46,93.35c.68-2.69,2.89-1.55,4.53-1.78,2.1-.3,4.32,.59,6.32-.66,7.03-.86,14.14,.58,21.54-.66-3.57-1.62-7.27,.11-10.41-1.69,2.31-.43,4.88,.9,6.98-.99,2.73-.38,5.2,1.6,7.97,.87,4.53,1.32,9.47-.03,13.88,2.09-1.15,3.65-4.24,2.04-6.58,2.44-3.79,.09-7.61-.23-11.36,.56-1.96,.31-3.96,.46-5.78,1.4-3.3,1.72-5.53,3.83-5.14,8.16,.38,4.24,2.39,6.32,6.34,7,.98,.17,1.96,.39,2.93,.62,3.75,.81,7.7,.62,11.29,2.26,.19,.19,.37,.37,.56,.56-.06,.26-.11,.52-.17,.78-21.91-.34-43.82-.67-65.73-1.04-.79-.01-1.57-.37-2.36-.57-.41-2.35-2.58-1.52-3.92-2.17-1.06-.52-2.88-.62-1.43-2.56,2.12-1.04,4.37-.76,6.6-.67,3.15,1.38,6.31,2.76,9.85,2.75,2,.91,1.7-.7,1.75-1.7,.21-4.38-.04-8.76-.02-13.15,.58-1.03,1.32-1.44,2.38-.61l.11,.14c2.34,3.67,1.15,7.76,1.16,11.64,.02,3.71,1.31,4.95,4.98,4.8,5.78-.24,11.59,.09,17.38-.02,1.44-.03,3.69,.71,3.15-2.25-.45-2.81-.52-5.65-.31-8.44,.3-4.2-1.62-5.43-5.58-5.47-3.66-.03-7.65,1.29-10.93-1.62Z"/>
      <path class="cls-17" d="M263.46,130.53c-.16-1.59,.4-2.68,2.06-3.04,.04,.84,.22,1.61,1.03,2.06-.6,1.2-.14,2.16,.51,3.23,9.5,15.64,19.55,30.95,28.61,46.87,8.75,15.38,17.78,30.6,26.67,45.9,.15,.25,.05,.64,.07,.97-.78,.44-.89,1.2-.96,1.98-3.09-5-6.19-9.99-9.28-14.99-3.54-6.02-7.08-12.03-10.61-18.05-3.52-10.31-10.84-18.44-16.01-27.8-5.29-9.58-10.89-18.99-16.46-28.4-1.76-2.97-3-6.3-5.62-8.72Z"/>
      <path class="cls-20" d="M268.57,125.49c.58-2.4-2.11-3.75-1.95-6.02,4.01,.1,8.01,.2,12.02,.3,2.27,.51,3.38,1.6,1.96,3.95-3.97,.92-7.94,1.79-12.04,1.77Z"/>
      <path class="cls-26" d="M280.61,123.72c.22-1.75-.65-2.96-1.97-3.95,6.09,0,12.18,0,19.5,0-5.65,5.68-12.07,2.81-17.54,3.95Z"/>
      <path class="cls-30" d="M423.39,149.52c-6.82-1.95-13.74-1-20.59-.44-1.81,.15-3.01-.29-4.89-1.15,9.77-1.15,19.06-1.94,28.42-1.33-.78,1.17-1.42,2.49-2.95,2.91Z"/>
      <path class="cls-3" d="M316.04,120.96c-4.9,1.07-9.85,1.85-14.93,1.67-.98-.03-2.17-.04-2.29-1.35-.15-1.63,1.16-1.85,2.34-1.86,4.94-.05,9.89-.02,14.83-.02,.02,.52,.03,1.04,.05,1.56Z"/>
      <path class="cls-38" d="M403.4,90.47c-3.02,.05-6.03,.11-9.05,.16-.99-.71-3.9,1.35-2.99-2.09,3.7,.04,7.4,.08,11.1,.13,.31,.6,.63,1.2,.94,1.8Z"/>
      <path class="cls-2" d="M183.61,123.55c-1.69-3.96-3.38-7.92-5.07-11.88,.38-.36,.77-.71,1.15-1.07,2.11,3.44,3.45,7.21,4.78,10.99-.29,.65-.57,1.31-.86,1.96Z"/>
      <path class="cls-34" d="M327.47,120c-2.71,.28-5.37,1.63-9.64,.2,4.13-1.24,6.88-.72,9.64-.2Z"/>
      <path class="cls-19" d="M696.56,141.52c2.16-2.06,5.14-.25,7.46-1.56,.22-.04,.44-.08,.66-.12,.71,.51,1.41,1.02,2.12,1.53-3.4,1.21-6.82,.8-10.24,.16Z"/>
      <path d="M222.39,93.41c-7.09,.04-14.18,.08-21.27,.12-.82,0-1.65,.02-2.47,.01-12.06-.03-13.03-1.5-7.96-12.02,.34-4.33,2.67-7.89,4.46-11.68,1.6-3.37,3.87-6.47,4.32-10.33,1-3.79,2.73-7.23,5.04-10.39,1.96-2.3,3.44-4.81,3.57-7.93,.61-2.82,2-5.25,3.74-7.5,3.98-5.48,5.75-12.05,8.83-17.97,1.54-3.13,3.25-6.18,4.56-9.42,1.25-3.09,3.28-4.84,6.73-4.93,3.52-.09,5.5,1.8,6.83,4.78,4.52,10.17,9.44,20.15,14.06,30.27,7.32,16.01,14.97,31.85,22.46,47.78,1.18,2.5,3.02,4.91,1.7,7.97-1.67,1.98-3.97,1.36-6.04,1.37-14.55,.05-29.09-.85-43.64-.47-1.64,.04-3.31-.31-4.91,.35Z"/>
      <path d="M26.12,56.52c-1.68-5.22-5.19-8.43-10.6-9.31-3.1-.5-6.26-.85-9.4-.9-3.11-.05-3.95-1.53-3.99-4.36-.05-2.98,1.35-3.63,3.99-3.59,7.15,.12,14.3,.05,21.46,.05,17.13,0,34.27,.03,51.4-.06,2.74-.01,4.37,.35,4.27,3.71-.08,2.91-.9,4.33-3.99,4.26-3.15-.07-6.28,.21-9.41,.88-7.22,1.55-10.75,6.6-11.9,13.19-1.43,8.2-1.28,16.56-1.04,24.89,.13,4.58,2.3,6.41,6.87,6.54,9.44,.26,18.84,1.77,28.33,.2,2.19-.36,4.57,.45,6.86,.72,.01,.49,.03,.98,.04,1.47-10.11,.45-20.23,.9-30.34,1.35-2.62,2.23-5.78,1.26-8.73,1.49-8.48-.24-16.97,0-25.45-.12-5.89-.08-6.86-1.09-7.03-7.07-.05-1.66-.03-3.33-.01-5,.07-7.83,.4-8.2,8.31-9.26-6.36,.33-7.28-.38-8.39-6.27-.8-4.24-1.51-8.47-1.24-12.81Z"/>
      <path d="M172.63,95.72c-13.8,0-27.61-.08-41.41,.06-3.11,.03-3.48-1.36-3.46-3.93,.07-8.82,.6-17.68-.56-26.45-1.95-14.73-6.16-18.41-21.06-19.12-2.25-.11-4.61,.43-4.85-3.3-.22-3.45,.49-4.68,4.19-4.65,24.12,.15,48.24,.11,72.36,.06,2.61,0,4.57,.13,4.51,3.58-.05,2.85-.93,4.68-4,4.27-6.05-.82-11.36,2.62-17.22,2.82-.37,.01-.95,.36-1.06,.67-4.26,12.31-4.85,25.07-4.13,37.9,.18,3.17,3.72,3.48,6.11,4.23,3.54,1.11,7.23,1.73,10.85,2.55-.09,.44-.18,.87-.28,1.31Z"/>
      <path d="M155.57,120.39c-2.9,.08-5.81,.16-8.71,.23-5.99,.62-11.98,1.29-17.99,.2-2.29-2.8-.8-6.06-.96-9.08-.13-2.55-.53-3.94-3.53-4.08-21.45-1.01-42.89-.98-64.34,.04-2.72,.13-3.21,1.36-3.28,3.76-.31,10.08-.38,10.07-10.68,10.17-4.49,.04-8.99-.06-13.47,.21-3.16,.2-4.24-1.01-3.84-4.01,.13-.98,.05-2,.07-2.99,.19-11.43,.18-11.59,12.06-12.2,14.45-.74,28.91-1.24,43.37-1.73,22.77-.79,45.54-1.41,68.31-2.29,3.96-.15,5.57,.09,4.49,4.92-1.23,5.45-1.06,11.22-1.5,16.85Z"/>
      <path class="cls-14" d="M32.83,98.45c-6.78-.07-6.88-.07-6.71-6.85,.11-4.4-.51-8.76,1.55-13.14,1.67-3.56-1.97-6.99-1.94-10.98,.02-3.52-.46-7.23-.92-10.84,.44-.04,.87-.08,1.31-.12,2.51,4.2,2.15,9,2.45,13.55,.24,3.58,1.61,4.61,4.89,4.4,2.96-.19,5.93-.04,9.71-.04-3.25,3.54-6.85,2.12-9.85,2.55-3.6,.51-4.89,1.83-4.55,5.41,.29,3.13,.24,6.32,.02,9.46-.22,3.15,1.09,3.94,4.05,3.89,8.96-.15,17.92-.04,26.89-.03-.68,2.71-3,2.12-4.82,2.27-7.35,.6-14.7,1.66-22.09,.46Z"/>
      <path class="cls-41" d="M222.39,93.41c5.72-1.2,11.51-.61,17.27-.72,10.91-.19,21.83-.18,32.74-.35,1.6-.02,3.84,1.01,4.42-1.77,1.92,.8,1.62,1.97,.53,3.26-7.25,.94-14.53,.83-21.81,.71-1.46-1.59-3.39-.94-5.11-.96-9.35-.11-18.7-.13-28.05-.17Z"/>
      <path class="cls-25" d="M189.92,79.67c3.6-6.87,7.19-13.74,10.79-20.61-1.93,8.12-6.41,15.09-10.04,22.45-.25-.61-.5-1.23-.75-1.84Z"/>
      <path class="cls-18" d="M60.64,86.65c5.38,1.35,10.76,2.7,16.13,4.05-5.93,.75-11.52,.1-16.13-4.05Z"/>
      <path class="cls-42" d="M128.87,120.82c5.99-.07,11.99-.13,17.98-.2-4.67,1.15-9.36,2.14-14.23,1.72-1.25-.51-2.51-1.02-3.76-1.52Z"/>
      <path class="cls-6" d="M117.8,94.33h-13.08c0-.2,0-.4,0-.6h13.08c0,.2,0,.4,0,.6Z"/>
      <path class="cls-22" d="M650.1,35.99c2.55-5.9,7.62-5.86,12.84-5.48,1.48,.85,2.52,2.05,2.86,3.77-.5,5.79,2.03,9.86,7.09,12.5-.09,.29-.05,.56,.13,.81,.08,1.53-1.1,1.69-2.15,1.98-3.67,.25-4.94,2.68-5.48,5.89-1.01,6.05-1.04,12.14-1.12,18.24-.05,3.75-.04,7.67-3.32,10.47-2.37,1.07-4.89,.75-7.37,.79-4.23,.14-6.26-2.08-7.02-6.12-1.4-7.44-4.02-14.27-9.48-19.91-8.76-9.04-18.86-10.99-30.43-6.65-10.92,3.97-11.01,15.4-1.23,21.87,7.34,4.86,15.43,8.34,23.24,12.33,5.01,2.56,9.92,5.33,15.24,7.24,4.95,2.94,10.23,5.33,14.72,9.03,2.1,1.52,4.18,3.09,5.77,5.15,1.13,1.46,2.75,2.91,1.27,5.07-4.59,.82-7.35-2.44-10.37-4.87-6.05-4.87-12.53-8.98-19.48-12.44-9.67-4.81-19.85-8.6-29.02-14.42-1.69-1.07-3.37-2.14-5-3.3-7.23-5.17-10.45-12.51-8.47-19.26,1.99-6.77,9.96-12.51,17.78-13.38,24.06-2.69,35.3,12.29,39.51,28.42,.17,.64,.34,1.29,.47,1.94,.49,2.57,2.06,3.66,4.62,3.46,2.8-.22,2.85-2.24,2.96-4.33,.36-7.09-.89-14.48,1.49-21.19,1.98-5.6,0-11.02,1.09-16.43,.24-1.19-.23-2.34-1.59-2.76-1.21-.37-2.3-.04-3.27,.73-1.33,1.07-2,2.64-2.99,3.97-4.29,5.74-5.89,5.99-12.44,2.5-14.64-7.8-29.98-9.14-45.28-2.93-27.95,11.33-27.53,41.92-11.98,56.3,5.82,5.38,11.63,10.19,19.27,12.86,3.78,1.32,7.62,3.31,10.47,6.51,.3,.76,.28,1.51-.1,2.24-1.51,1.29-3.11,.8-4.6,.09-5.61-2.67-11.57-4.62-16.75-8.19-7.47-4.17-12.56-10.83-17.92-17.21-7.8-13.25-8.82-26.68-1.07-40.33,3.47-5.11,7.67-9.51,12.8-13,2.45-1.67,5.05-3.07,7.64-4.51,15.53-5.56,30.94-5.39,45.99,1.5,3.65,1.67,6.9,2.93,10.69,1.05Z"/>
      <path class="cls-12" d="M238.29,1.74c.42,.63,.85,1.26,1.27,1.89,.34,.66,.68,1.33,1.02,1.99,.83,2.92,2.2,5.57,3.92,8.06,3.58,3.45,4.72,8.31,7.2,12.41,2.45,4.71,4.57,9.58,6.76,14.42,6.56,7.43,7.75,17.35,12,25.85,2.4,5.06,4.75,10.17,6.8,15.37,1.65,4.19,3.85,7.18,8.59,7.76,1.46,.18,2.91,.68,3.66,2.19,2.3,2.2,5.67-.34,7.99,1.8-1.54,2.58-4.31,2.08-6.64,2.62-6.01,1.39-6.8,3.47-3.26,8.61,.93,1.35,2.57,2.17,2.92,3.93,1.32,1.47,3.09,.76,4.67,.97,2.41,.31,2.98,1.26,1.12,3.1-6.81-.17-10.74-4.25-13.92-9.76-1.74-3-2.5-6.54-5.02-9.1,.14-1.14,.59-2.33-.53-3.26-12.98-27.68-25.98-55.35-38.94-83.04-1.21-2.59-2.1-5.12-5.91-4.9-2.64,.15-4.31,.78-5.4,3.31-1.57,3.66-3.47,7.18-5.23,10.75-.76,0-1.19-.23-.83-1.08,.78-2.3,1.56-4.59,2.34-6.89,.86-2.04,1.71-4.09,2.57-6.13-.34-.43-.26-.76,.23-.99,.33-.36,.66-.73,.99-1.09,3.64-.49,7.28-.99,10.87,.31,.26,.3,.52,.61,.78,.91Z"/>
      <path d="M465.06,116.3c-.01-.18-.06-.36-.14-.53-.99-3.08-.56-6.27-.67-9.42-.48-13.95,1.06-27.94-.98-41.86-1.77-12.09-6.48-16.35-18.74-16.93-2.73-.13-5.87,.47-6.71-3.48-1.14-5.4,.15-6.95,6.35-6.96,31.59-.05,63.19-.02,94.78-.02,4.82,0,9.64,0,14.47,.02,3.7,.02,5.68,1.48,6.24,5.48,1.45,10.2,1.03,20.51,2.23,30.71,.24,2.06-.89,3.58-2.88,4.14-2.64,.74-4.97,.31-6.29-2.48-.31-.51-.54-1.07-.71-1.64-.51-3.13-1.53-6.12-2.72-9.04-2.22-5.4-6.07-9.05-11.87-10.35-4.52-1.02-9.08-1.88-13.75-1.9-8.3-.03-16.61,0-24.91-.02-2.5,0-4.13,.48-4.12,3.52,.04,11.8,.02,23.61,0,35.41,0,2.39,1.02,3.26,3.29,3.22,2.32-.04,4.65-.01,6.97,0,1.48,0,2.97,.08,4.45-.03,11.52-.88,15.71-5.17,16.44-16.75,.13-2.12-.11-4.62,2.38-5.5,2.66-.94,5.5-1.39,7.7,1.26,1.18,2.71,.7,5.58,.71,8.38,.06,9.48,.03,18.95,.02,28.43,0,1.83,.03,3.67-.75,5.39-2.86,3.47-6.22,3.11-9.77,1.28-8.22-9.83-19.67-7.69-30.4-8.19-2.8-.13-2.85,1.86-2.57,3.7,.59,3.92-1.18,4.86-4.76,4.64-7.76-.46-15.56,.7-23.32-.47Z"/>
      <path d="M613,114.64c-4.69-1.68-8.75-4.59-13.33-6.59-14.71-6.42-28.41-20.02-27.83-38.94,.34-11.05,4.8-19.78,13.51-25.98,17.93-12.75,36.88-12.27,55.99-2.77,6.52,3.24,7.93,3.09,11.88-3.24,.85-1.36,1.05-3.17,2.85-3.92,4.29-1.79,6.89,.17,6.43,4.92q-.67,6.84,2.83,9.18c-3.02,0-3.7,1.56-3.83,4.03-.43,8.18-1.09,16.35-1.64,24.53-.16,2.43,.46,5.22-3.6,4.96-2.96-.19-5.78,.59-6.3-4.08-.69-6.16-3.38-11.77-6.93-16.93-7.94-11.54-22.53-16.71-35.62-12.39-6.28,2.07-11.54,5.61-13.01,12.54-1.45,6.81,1.94,11.93,6.99,16.05,7.16,5.85,15.71,9.29,23.9,13.31,4.62,2.27,9.41,4.22,13.97,6.61,5.66,2.97,11.32,5.97,15.93,10.59,3.1,3.1,6.98,5.06,10.97,6.79,1.46-.77,2.65-.81,3.11,1.14-2.61,4.41-6.13,.68-9.2,1.04-11.13,.82-22.29,.29-33.43,.5-4.61,.09-9.11-.64-13.62-1.35Z"/>
      <path d="M519.05,173.2c-13.64,0-27.32,.65-40.91-.2-11.65-.73-23.18,.89-34.78,.25-2.87-.16-5,.03-5.03-4.13-.04-4,2-3.72,4.63-3.8,13.03-.39,19.13-3.97,21.06-15.78,.37-2.26,1.56-2.97,3.74-3.01,7.81-.15,15.62-.4,23.43-.73,2.24-.1,3.34,.71,3.85,2.88,1.6,6.88,6.29,10.49,13.03,11.2,12.62,1.33,25.24,1.33,37.72-1.33,6.32-1.35,10.95-5.17,12.87-11.32,1.4-4.49,4.65-3.9,7.55-3.44,3.38,.53,1.52,3.54,1.45,5.36-.28,6.65-1.1,13.27-1.26,19.92-.08,3.37-1.27,4.22-4.43,4.19-14.3-.13-28.61-.06-42.92-.06Z"/>
      <path d="M648.83,142.59c2.01-1.52,4.42-1.42,6.71-1.44,9.79-.09,19.58-.04,30.13-.04-3.87,1.91-7.82,1.53-11.4,2.31-2.44,.53-3.66,1.37-4.43,3.83-6.38,20.49-28.65,33.11-51.44,30.79-6.33-.64-12.39-2.07-18.36-5.33-3.82-2.09-8.11-3.76-11.83-6.29-5.22-3.55-5.57-3.63-7.53,2.68-1.01,3.26-2.49,4.68-5.98,4.33-2.1-.22-2.94-.77-2.8-2.98,.52-7.97,.89-15.95,1.37-23.93,.05-.79,.26-1.74,.75-2.3,1.95-2.19,14.76-.88,16.35,1.65,9.33,14.85,22.94,20.51,40.01,18.7,4.39-.46,8.38-1.98,11.58-5.18,1.59-2.35,3.84-4.22,5.03-6.87l-.02,.03c1.52-3.16,.11-6.86,1.84-9.98Z"/>
      <path class="cls-10" d="M465.38,120.6c8.34-1.93,16.89-.78,25.3-1.84,2.12-.27,2.43,1.06,2.45,2.77,.1,6.32,.21,12.64,.46,18.95,.1,2.62-1.33,2.93-3.41,3-8.3,.29-16.6,.68-24.89,1.03-.75-.41-1.64-.98-1.59-1.79,.47-7.38-.99-14.92,1.69-22.13Z"/>
      <path class="cls-21" d="M657.99,116.5c6.83,2.15,11.33,6.58,13.31,13.52,.84,2.94,.55,4.69-3.26,4.69-5.63,0-11.27,.5-16.9,.76-2.74,.13-5.51-.24-7.41-2.27-6.87-7.37-15.78-11.44-24.6-15.7-1.04-1.84,.06-2.49,1.58-2.37,11.5,.95,23.02,.12,34.53,.45,1.01,.03,1.96,.23,2.75,.91Z"/>
      <path class="cls-15" d="M573.91,130.11c1.5-2.71-1.94-7.65,4.46-7.71,3.67-.04,5.69,.82,5.6,4.77-.02,.82,.21,1.65,.39,2.46,.5,2.31,2.09,5.94,.6,6.7-2.38,1.21-5.88,.89-8.74,.34-4.14-.8-1.29-4.43-2.31-6.55Z"/>
      <path class="cls-28" d="M533.06,132.46c-4.97,.77-6.87-1.33-6.03-6.27,.5-2.94-1.63-5.67-.91-8.68,3.15-.86,6.37-.35,9.55-.49,1.98,2.13-.07,4.21-.09,6.31-1.11,2.97,.59,6.71-2.52,9.13Z"/>
      <path class="cls-13" d="M657.99,116.5c-11.89,.39-23.78,.16-35.65-.5-1.52-.08-3.02-.93-3.21,1.5-1.32-.58-2.11-3.11-4.12-1.09-.64-.08-1.29-.16-1.93-.23-.03-.52-.06-1.03-.08-1.55,14.08,.06,28.15,.1,42.23,.18,1.62,0,3.33-.4,4.82,.66-.69,.34-1.37,.68-2.06,1.01Z"/>
      <path class="cls-23" d="M465.38,120.6c-.18,7.97-.69,15.94-.1,23.92-.37,.38-.73,.75-1.1,1.13-2.5-2.14-2.05-5.03-2-7.83,.1-5.79-.03-11.59,1.85-17.19,.45-.01,.9-.02,1.35-.04Z"/>
      <path class="cls-4" d="M647,149.43c.07-1.67,.15-3.33,.22-5,.54-.62,1.07-1.23,1.6-1.85,.11,3.46,.97,7.06-1.84,9.98,0-1.04,0-2.09,.01-3.13Z"/>
      <path class="cls-37" d="M673.28,150.26c1.14,.42,3.75-.56,3.1,1.49-.65,2.07-3.33,1.97-5.46,1.6-.1-1.71,.95-2.54,2.36-3.09Z"/>
      <path class="cls-4" d="M647.02,152.53c-.24,3.35-2.65,5.09-5.03,6.87-.31-.31-.62-.62-.93-.93,1.99-1.98,3.97-3.96,5.96-5.94Z"/>
      <path class="cls-35" d="M535.93,117.85c-3.27-.11-6.54-.23-9.81-.34,0-.3,0-.6-.01-.9,2.89-.89,6.13,.69,8.87-1.28,1.06,.56,1.89,1.2,.96,2.52Z"/>
      <path class="cls-35" d="M533.06,132.46c2.4-2.67,0-6.36,1.94-9.13,1.12,2.16,.74,4.36,.21,6.57-.03,.85-.06,1.71-.1,2.56-.69,0-1.37,0-2.06,0Z"/>
      <path class="cls-39" d="M559.85,79.45c-4.08,.09-7.79-.23-6.72-5.96,1.04,2.82,3.11,3.6,5.85,2.84,2.22-.62,1.81-2.34,1.66-4.06-.6-6.66-1.16-13.32-1.63-20-.31-4.45,1.02-10.21-1.7-12.94-2.8-2.81-8.54-.85-12.98-.86-33.61-.08-67.22-.07-100.84-.03-2.25,0-5.08-1.09-5.15,3.25-.07,3.97,1.62,4.59,5.06,4.67,14.94,.34,19.94,5.04,21.1,19.97,1.27,16.46,.58,32.96,.42,49.44-1.9-1.46-1.4-3.56-1.42-5.49-.1-10.23-.17-20.47-.25-30.7,.35-5.81,.74-11.62-1.93-17.09-.6-3.87-1.25-7.73-4.9-10.12-5.42-3.86-12.04-3.21-18.06-4.83-.6-1.99-1.19-3.98-1.79-5.97-.14-1.66-.29-3.33-.43-4.99,.43-.97,1.45-.7,2.18-1.05,3.11-.53,6.25-.86,9.37-1.36,35.21-.43,70.41-.08,105.61-.1,1.67,0,3.32-.04,4.94,.45,2.71,1.02,3.93,3.11,4.18,5.88,.09,3.86,.32,7.72,1.02,11.54-.04,7.38,1.59,14.67,1.18,22.09-.18,3.23-1.21,5.34-4.77,5.43Z"/>
      <path class="cls-1" d="M456.56,101.26c-2.25,1.6-3.6,1.35-5.37,.68,1.57-2.09,3-1.55,5.37-.68Z"/>
      <path class="cls-21" d="M321.46,93.35c4.49,0,8.99,.23,13.45-.06,3.39-.22,4.89,.45,4.4,4.27-.5,3.95-.47,7.98,.3,11.94-5.35,3.4-14,2.96-18.61-1.18-1.99-1.79-2.98-1.47-3.94,.85-.67,1.61-1.95,3.04-3.75,2.6-2.29-.55-1.19-2.75-1.28-4.23-.15-2.78,.61-5.52,.05-8.36-.48-2.44,1.24-3.86,3.34-4.75,1.81-1.48,4.07-.44,6.03-1.08Z"/>
      <path class="cls-10" d="M315.43,94.43c-4.6,4.58-1.58,10.53-2.79,15.73-.13,.56,.62,1.21,1.4,.86,1.27-.57,2.26-1.5,2.29-2.98,.02-1.24-.93-2.77,1.03-3.28,1.61-.42,3.45,.37,3.98,1.49,3.34,6.96,9.35,3.72,14.4,3.98,1.27,.07,2.58-.48,3.87-.74,1.7,1.9,1.98,3.24-1.25,3.24-7.8-.01-15.6-.04-23.41-.02-2.12,0-3.49-.51-3.42-3.06,.12-4.98,.06-9.96,.07-14.93,1.28-.1,2.55-.19,3.83-.29Z"/>
      <path class="cls-12" d="M306.39,106.5c2.22-.69,2.26-2.38,2.22-4.34-.04-2.22-.97-4.62,.83-6.63,2.11,5,.65,10.22,.92,15.33,.06,1.19-.96,1.6-2.04,1.59-1.78-.02-.96-1.23-.91-2.08-.52-1.25-1.5-2.37-1.02-3.88Z"/>
      <path class="cls-27" d="M306.39,106.5c.95,1.13,3.06,1.96,1.02,3.88-3.14,.17-6.76,2.62-8.92-1.88,2.46-1.33,5.1-2,7.9-2Z"/>
      <path class="cls-5" d="M244.35,86.84c-12.91,0-25.01-.02-37.12,.02-2.25,0-3.08-.57-1.97-2.91,6.2-13.04,12.32-26.11,18.85-39.98,6.83,14.47,13.32,28.21,20.24,42.88Z"/>
      <path class="cls-16" d="M220.51,15.62c.28,.36,.55,.72,.83,1.08-2.95,6.03-4.46,12.81-9.22,17.9,.54-1.63,1.09-3.26,1.63-4.89,2.49-4.1,4.19-8.55,5.73-13.07,.34-.34,.69-.68,1.03-1.02Z"/>
      <path class="cls-36" d="M205.87,46.75c.95-1.84,1.91-3.68,2.86-5.53,.7,3.61-.99,6.19-3.59,8.38,.24-.95,.49-1.9,.73-2.85Z"/>
      <path class="cls-9" d="M553.18,73.61c-4.49-16.23-16.67-20.34-31.61-20.13-2.48,.04-4.95,.1-7.43,.14-3.26,2.33-6.99,1.05-10.51,1.4-2.18,.22-4.77-.57-5.86,2.36-.19,9.74-.04,19.47-.04,29.2,0,2.13-.1,4.38,2.21,5.63,1.5,1.46,4.62,.3,5.22,3.2q-12.1,.95-12.09-11.24c0-9.82-.02-19.63,.01-29.45,0-1.89-.58-4.28,2.64-4.22,13.27,.28,26.62-1.05,39.77,1.54,11.05,2.18,16.34,8.84,17.69,21.56Z"/>
      <path class="cls-7" d="M535.21,129.91c-.07-2.19-.14-4.38-.21-6.57,.31-1.83,.62-3.65,.93-5.48-.32-.84-.64-1.68-.96-2.52,.02-14.18,.03-28.35,.05-42.53-2.77-1.75-5.89-.07-8.75-.91-.74-.69-.62-1.49-.31-2.32q11.38-.95,12.08,9.96c0,6.33,0,12.66,0,18.99,2.59,3.21,1.38,6.99,1.35,10.5-.03,3.07,.84,5.09,3.72,6.16,.57,.67,.65,1.43,.37,2.24-1.46,1.63-3.32,1.67-5.28,1.31-2.69,3.27-1.09,7.68-2.98,11.16Z"/>
      <path class="cls-24" d="M526.12,71.64c2.98,.29,6.22-1.4,8.91,1.17q-7.47-1.39-7.87,5.77c-.7,12.65-6.95,17.44-22,16.84-1.29-1.64-3.73-.03-4.98-1.78,1.73-1.84,3.93-1.33,6.02-1.15,3.14,.28,6.22,.1,9.22-.94,6.47-2.56,8.72-7.91,9.37-14.28,.2-1.94,.05-3.94,1.32-5.62Z"/>
      <path class="cls-31" d="M543.04,115.64c2.17-.35,4.13,.21,7.05,1.9-3.03,0-5,0-6.96,0-.03-.63-.06-1.27-.09-1.9Z"/>
    </g>
  </g>
</svg>