<?xml version="1.0" encoding="utf-8"?>
<!-- Generator: Adobe Illustrator 27.0.1, SVG Export Plug-In . SVG Version: 6.00 Build 0)  -->
<svg version="1.1" id="Layer_1" xmlns="http://www.w3.org/2000/svg" xmlns:xlink="http://www.w3.org/1999/xlink" x="0px" y="0px"
	 viewBox="0 0 101.5 122.9" style="enable-background:new 0 0 101.5 122.9;" xml:space="preserve">
<style type="text/css">
	.st0{fill:#FFFFFF;}
	.st1{fill-rule:evenodd;clip-rule:evenodd;fill:#EFAA3A;}
	.st2{fill-rule:evenodd;clip-rule:evenodd;fill:#25A700;}
	.st3{fill-rule:evenodd;clip-rule:evenodd;fill:#E22952;}
	.st4{fill-rule:evenodd;clip-rule:evenodd;fill:#FFFFFF;}
	.st5{fill-rule:evenodd;clip-rule:evenodd;fill:#42A3CC;}
</style>
<path class="st0" d="M42.6,114.5c8.1,1.1,16.3,0,23.8-3.1c2.9-1.2,5.7-2.7,8.4-4.4l0.7,6.9c-2.2,1.2-4.4,2.3-6.7,3.3
	c-8.5,3.5-17.8,4.7-27,3.5c-9.9-1.4-19-6-26-13.2C8.4,100,3.3,90.5,1.2,80.2c-2.7-12.6-0.6-25.8,5.7-37c6.4-11.4,16.6-20,28.8-24.5
	c3.9-1.6,8.2-2.2,12.4-1.8c3.7,0.4,7.1,2.4,9.3,5.4c0.1,0.2,0.2,0.4,0.3,0.6c2.9,6.6-0.6,10.8-4,14.8c-2,2.3-3.8,4.5-2.7,6.6
	c0.5,0.9,1.6,1.6,3.3,2c2.6,0.6,5.3,0.6,7.9,0.1c2.6-0.4,5.3-1,7.8-1.5c1.5-0.3,3-0.7,4.5-0.9l-2,6.8l-1.2,0.3
	c-2.5,0.5-5.2,1.1-8.1,1.6c-3.5,0.6-7,0.6-10.5-0.2c-3.4-0.9-5.9-2.7-7.2-5.2c-3-5.8,0.1-9.6,3.5-13.5c2.1-2.4,4.2-5,3.2-7.9
	c-1.2-1.5-3-2.4-4.9-2.6c-3.2-0.3-6.5,0.2-9.5,1.4C27,28.5,18,36.2,12.3,46.2c-5.6,9.9-7.4,21.5-5,32.7c1.9,9.1,6.4,17.5,12.9,24.2
	C26.2,109.3,34.1,113.3,42.6,114.5z"/>
<path class="st1" d="M22.1,55.7c1.8,4.6,7,6.9,11.7,5.1s6.9-7,5.1-11.7c-1.8-4.6-7-6.9-11.6-5.1c-4.6,1.8-7,7-5.2,11.6
	C22.1,55.6,22.1,55.7,22.1,55.7z"/>
<path class="st2" d="M16.8,82.5c1.8,4.7,7.1,7,11.8,5.2s7-7.1,5.2-11.8c-1.8-4.7-7.1-7-11.8-5.2C17.3,72.6,15,77.8,16.8,82.5
	L16.8,82.5z"/>
<path class="st3" d="M62.1,81.7c1.7,4.4,6.1,7.1,10.8,6.6l-2.1-20.7c-0.9,0.1-1.8,0.3-2.7,0.7C62.7,70.3,60,76.3,62.1,81.7
	C62,81.6,62,81.6,62.1,81.7L62.1,81.7z"/>
<path class="st4" d="M89.5,0c-0.8,12.2-16.8,19.7-11.1,32.4c1.6,3.6,4.7,6.3,8.5,7.6c2.2,0.7,4.5,0.5,6.6-0.4
	c8.3-3.8,9.3-13.9,6.8-21.8C98,10.5,93.1,4.2,89.5,0z M100.2,62.9c-6.5,1.5-13.3,1.6-19.9,0.2l5.4,52.9c0,1.1,0.2,2.3,0.6,3.4
	c0.9,2.7,3.9,4.1,6.6,3.2c0.7-0.3,1.4-0.7,1.9-1.2c0.9-1.1,1.4-2.5,1.4-3.9L100.2,62.9L100.2,62.9z M94.8,45.1c-2.5,1-7,1.6-10.2,0
	l-4.2,14.5c7,1.6,13.8,1.8,20.4,0C97.5,53.2,97.2,52.6,94.8,45.1L94.8,45.1z"/>
<path class="st5" d="M40.8,101.6c1.8,4.7,7.1,7,11.8,5.2s7-7.1,5.2-11.8c-1.8-4.7-7.1-7-11.7-5.2C41.3,91.6,39,96.9,40.8,101.6
	L40.8,101.6z"/>
</svg>
