<?xml version="1.0" encoding="utf-8"?>
<!-- Generator: Adobe Illustrator 27.0.1, SVG Export Plug-In . SVG Version: 6.00 Build 0)  -->
<svg version="1.1" id="Layer_1" xmlns="http://www.w3.org/2000/svg" xmlns:xlink="http://www.w3.org/1999/xlink" x="0px" y="0px"
	 viewBox="0 0 1000 1000" style="enable-background:new 0 0 1000 1000;" xml:space="preserve">
<style type="text/css">
	.st0{fill:#FFFFFF;}
</style>
<g>
	<g transform="translate(0.000000,512.000000) scale(0.100000,-0.100000)">
		<path class="st0" d="M6863,5001c-637.9-126.4-1078.5-737.5-986.6-1363.9c24.9-176.2,86.2-354.4,162.8-475.1l51.7-82.4
			l-944.4-944.4l-946.3-946.3l-143.7,143.7l-143.7,143.7L2127.5-311.1C890-1550.5,330.6-2123.3,298.1-2182.6
			c-36.4-70.9-44.1-114.9-44.1-258.6c0-149.4,7.7-185.8,51.7-270.1c67.1-128.4,220.3-264.4,341-304.6
			c53.6-17.2,153.3-32.6,224.1-30.6c256.7,1.9,159-86.2,2132.1,1888.8l1772,1772L4631.2,758l-143.7,143.7l946.3,946.3l946.3,946.3
			l88.1-57.5c231.8-143.7,584.3-201.1,863.9-141.8c457.9,95.8,842.9,467.4,946.3,911.8c17.2,69,30.6,197.3,30.6,287.3
			c0,342.9-111.1,609.2-354.4,854.4c-120.7,122.6-187.7,172.4-316.1,235.6C7391.7,5004.8,7102.4,5048.9,6863,5001z M7366.8,4560.4
			c206.9-72.8,402.3-262.4,484.6-473.2c61.3-157.1,61.3-429.1,0-586.2c-197.3-500-821.8-680-1249-358.2
			c-132.2,99.6-235.6,241.4-285.4,394.6c-63.2,187.7-47.9,429.1,34.5,603.4c109.2,228,350.6,415.7,590,457.8
			C7064.1,4619.8,7240.4,4604.5,7366.8,4560.4z M4056.6,470.5l-143.7-143.7l-143.7,143.7l-143.7,143.7l143.7,143.7l143.7,143.7
			l143.7-143.7l143.7-143.7L4056.6,470.5z M2313.3-1274.6c-722.2-722.2-1335.2-1325.6-1363.9-1341c-82.4-44.1-160.9-34.5-229.9,28.7
			c-53.6,47.9-63.2,69-63.2,143.7v88.1l1341,1340.9l1340.9,1341l143.7-143.7l143.7-143.7L2313.3-1274.6z"/>
		<path class="st0" d="M9123.4,3213.7c-47.9-47.9-67.1-84.3-67.1-124.5c0-32.6,51.7-316.1,114.9-630.2
			c63.2-314.2,114.9-582.4,114.9-593.9c0-19.2-101.5-24.9-448.3-24.9c-266.3,0-471.3-7.7-503.8-19.2
			c-28.7-11.5-574.7-542.1-1226-1193.4L5933.9-544.8l-143.7,143.7l-143.7,143.7L3865-2039C1876.6-4025.5,1978.1-3910.5,1980-4174.9
			c0-187.7,53.6-310.3,187.7-436.8c124.5-118.8,247.1-166.7,423.4-166.7c272,0,126.4-128.4,2120.6,1865.8l1796.9,1793l-143.7,143.7
			l-143.7,143.7L7347.6,292.4l1124.5,1124.5l580.4,5.8l582.4,5.7l55.5,63.2c32.6,36.4,55.5,84.3,55.5,114.9
			c0,28.7-67,392.7-151.3,806.5c-168.6,839.1-166.7,837.1-323.7,858.2C9200,3280.8,9184.7,3275,9123.4,3213.7z M5796-981.5
			l137.9-137.9l-143.7-143.7l-143.7-141.8l-143.7,141.8l-143.7,143.7L5497-981.5c76.6,76.6,143.7,139.8,149.4,139.8
			S5719.3-904.9,5796-981.5z M5221.3-1556.2l137.9-137.9L4031.6-3019.8C3303.7-3749.6,2683-4355,2654.3-4364.6
			c-130.3-47.9-264.4,51.7-264.4,195.4v80.4l1335.2,1335.2C4460.7-2018,5066-1416.5,5071.8-1416.5
			C5077.6-1416.4,5144.6-1479.6,5221.3-1556.2z"/>
	</g>
</g>
</svg>
