<?xml version="1.0" encoding="utf-8"?>
<!-- Generator: Adobe Illustrator 27.0.1, SVG Export Plug-In . SVG Version: 6.00 Build 0)  -->
<svg version="1.1"
	 id="Layer_1" image-rendering="optimizeQuality" text-rendering="geometricPrecision" shape-rendering="geometricPrecision"
	 xmlns="http://www.w3.org/2000/svg" xmlns:xlink="http://www.w3.org/1999/xlink" x="0px" y="0px" viewBox="0 0 736 512"
	 style="enable-background:new 0 0 736 512;" xml:space="preserve">
<style type="text/css">
	.st0{fill:#FEFEFE;}
	.st1{fill:#C8102E;}
	.st2{fill:#012169;}
</style>
<g>
	<path class="st0" d="M38.3,512h659.5c21.2-1.2,38.3-18.9,38.3-40.4V40.4c0-22.1-18-40.3-40.1-40.4H40.1C18,0.1,0,18.3,0,40.4v431.1
		C0,493.1,17.1,510.8,38.3,512L38.3,512z"/>
	<polygon class="st1" points="316.5,307.1 316.5,512 418.9,512 418.9,307.1 736,307.1 736,204.7 418.9,204.7 418.9,0 316.5,0 
		316.5,204.7 0,204.7 0,307.1 	"/>
	<path class="st2" d="M453.1,165.7V0h243.1c16.8,0.3,31.2,10.8,37.1,25.6L453.1,165.7L453.1,165.7z"/>
	<path class="st2" d="M453.1,346.3V512h244.7c16.1-0.9,29.7-11.3,35.5-25.6L453.1,346.3L453.1,346.3z"/>
	<path class="st2" d="M282.4,346.3V512H38.3c-16.1-0.9-29.9-11.3-35.5-25.9L282.4,346.3L282.4,346.3z"/>
	<path class="st2" d="M282.4,165.7V0H39.9C23.1,0.3,8.5,10.9,2.8,25.9L282.4,165.7L282.4,165.7z"/>
	<polygon class="st2" points="0,170.7 102,170.7 0,119.6 	"/>
	<polygon class="st2" points="736,170.7 633.5,170.7 736,119.3 	"/>
	<polygon class="st2" points="736,341.3 633.5,341.3 736,392.7 	"/>
	<polygon class="st2" points="0,341.3 102,341.3 0,392.4 	"/>
	<polygon class="st1" points="736,43.3 482,170.7 538.8,170.7 736,72 	"/>
	<polygon class="st1" points="253.5,341.3 196.7,341.3 0,439.7 0,468.4 254,341.3 	"/>
	<polygon class="st1" points="140.3,170.8 197.1,170.8 0,72.1 0,100.7 	"/>
	<polygon class="st1" points="595.1,341.2 538.3,341.2 736,440.3 736,411.7 	"/>
</g>
</svg>
