<?xml version="1.0" encoding="utf-8"?>
<!-- Generator: Adobe Illustrator 27.0.1, SVG Export Plug-In . SVG Version: 6.00 Build 0)  -->
<svg version="1.1" id="Layer_1" xmlns="http://www.w3.org/2000/svg" xmlns:xlink="http://www.w3.org/1999/xlink" x="0px" y="0px"
	 viewBox="0 0 115 122.9" style="enable-background:new 0 0 115 122.9;" xml:space="preserve">
<style type="text/css">
	.st0{fill:#5C546A;}
	.st1{fill:#FFFFFF;}
	.st2{fill:#F4BB2C;}
</style>
<circle class="st0" cx="58" cy="55" r="26.1"/>
<g>
	<path class="st0" d="M68.7,116.3c-1.2,2.1-2.9,3.7-4.8,4.8c-1.7,1-3.6,1.6-5.5,1.7s-3.9-0.2-5.7-1.1c-1.2-0.6-2.4-1.4-3.4-2.5
		L68.7,116.3L68.7,116.3L68.7,116.3L68.7,116.3z M71.4,95.8l-0.6,2.9l-0.2,2.1l-25.3,3.8c-0.1-1.5-0.3-3.1-0.7-4.8L71.4,95.8
		L71.4,95.8L71.4,95.8L71.4,95.8z M70.6,105.5v1.3v0.4c0.1,0.8,0.1,1.7,0,2.5l-0.4,1.8L46.7,115l-0.4-0.9l-0.9-3.8v-1.1L70.6,105.5
		L70.6,105.5L70.6,105.5L70.6,105.5z"/>
	<path class="st1" d="M56.8,3.8c0-1.1,0.5-2.1,1.2-2.8c0.7-0.6,1.7-1,2.7-1l0,0c0.1,0,0.2,0,0.3,0c1,0.1,1.9,0.5,2.5,1.2
		c0.7,0.7,1.1,1.7,1.1,2.8l0,0c0,0.1,0,0.1,0,0.2l-0.2,8.4l0,0c0,0.1,0,0.2,0,0.3c-0.1,1-0.5,1.9-1.2,2.5c-0.7,0.7-1.7,1.1-2.8,1.1
		l0,0c-0.1,0-0.2,0-0.3,0c-1-0.1-1.9-0.5-2.5-1.2c-0.7-0.7-1.1-1.7-1.1-2.8l0,0c0-0.1,0-0.1,0-0.2L56.8,3.8L56.8,3.8L56.8,3.8
		L56.8,3.8z M14.3,18.5c-0.8-0.7-1.2-1.7-1.2-2.7s0.3-2,1-2.8s1.7-1.2,2.7-1.2s2,0.3,2.8,1l6.3,5.8c0.8,0.7,1.2,1.7,1.2,2.7
		s-0.3,2-1,2.8s-1.7,1.2-2.7,1.2s-2-0.3-2.8-1L14.3,18.5L14.3,18.5L14.3,18.5L14.3,18.5z M4,61.7c-1.1,0-2-0.4-2.8-1.1
		C0.5,59.9,0,58.9,0,57.9c0-1.1,0.4-2.1,1.1-2.8s1.7-1.2,2.7-1.2l8.6-0.3c1.1,0,2.1,0.4,2.8,1.1c0.7,0.7,1.2,1.7,1.2,2.7v0.1l0,0
		v0.1c0,1-0.4,1.9-1.1,2.6c-0.7,0.7-1.6,1.2-2.7,1.2h-0.1l0,0h-0.1L4,61.7L4,61.7L4,61.7L4,61.7z M110.7,49.5L110.7,49.5
		c1.1-0.1,2.1,0.3,2.8,0.9c0.8,0.6,1.3,1.6,1.4,2.6l0,0v0.1c0.1,1-0.3,2-0.9,2.7c-0.6,0.8-1.6,1.3-2.6,1.4l-8.5,0.9
		c-1.1,0.1-2.1-0.2-2.9-0.9c-0.8-0.6-1.3-1.6-1.4-2.6s0.2-2.1,0.9-2.9c0.6-0.8,1.6-1.3,2.6-1.4C105,50.1,107.8,49.8,110.7,49.5
		L110.7,49.5L110.7,49.5L110.7,49.5L110.7,49.5z M93.8,15.4c0.6-0.9,1.5-1.5,2.5-1.7s2,0,2.9,0.6l0,0c0.9,0.6,1.5,1.5,1.7,2.5
		s0,2-0.6,2.9l-4.8,7.1c-0.6,0.9-1.5,1.5-2.5,1.7s-2,0-2.9-0.6s-1.5-1.5-1.7-2.5s0-2,0.6-2.9L93.8,15.4L93.8,15.4L93.8,15.4
		L93.8,15.4z"/>
	<path class="st2" d="M36.4,82.5c-2.9-3.3-5.9-6.7-8.2-11.7s-3.6-10.1-3.5-15.4c0-5.3,1.4-10.8,4.3-16.5c0,0,0-0.1,0.1-0.1l0,0
		c3.9-6.5,9.2-10.9,15.2-13.3c5-2.1,10.5-2.8,15.9-2.3c5.3,0.5,10.6,2.2,15.1,4.9c5.8,3.4,10.6,8.5,13.2,15
		c1.4,3.5,2.4,7.4,2.5,11.6s-0.6,8.8-2.6,13.7c-3,7.4-10,15.4-14.6,22.7C73.5,91,73.3,91,73,91c-9.9,1.5-19.8,2.9-29.7,4.4
		C41.7,90.6,39.2,85.7,36.4,82.5L36.4,82.5L36.4,82.5L36.4,82.5z M68.5,37c-0.5-0.3-1-0.5-1.5-0.4s-1,0.4-1.3,0.8L63.8,40
		c-0.7-0.3-1.3-0.5-2-0.7s-1.4-0.3-2.1-0.4l-0.6-3.3c-0.1-0.6-0.4-1-0.8-1.3c-0.5-0.3-1-0.4-1.5-0.3l-4.2,0.8
		c-0.5,0.1-1,0.4-1.3,0.8c-0.3,0.5-0.5,1-0.4,1.5l0.5,3.1c-0.7,0.3-1.3,0.6-1.9,1c-0.6,0.4-1.2,0.8-1.7,1.2l-2.8-2
		c-0.5-0.3-1-0.5-1.5-0.4s-1,0.4-1.3,0.9l-2.4,3.5c-0.3,0.5-0.5,1-0.4,1.5c0.1,0.6,0.4,1,0.9,1.3l2.5,1.8c-0.3,0.6-0.5,1.3-0.7,2
		s-0.3,1.4-0.4,2.1l-3.3,0.6c-0.6,0.1-1,0.4-1.3,0.8c-0.3,0.5-0.4,1-0.3,1.5l0.8,4.2c0.1,0.5,0.4,1,0.8,1.3c0.5,0.3,1,0.5,1.5,0.4
		l3.1-0.5c0.3,0.7,0.6,1.3,1,1.9c0.4,0.6,0.8,1.2,1.2,1.8l-2,2.8c-0.3,0.5-0.5,1-0.4,1.5s0.4,1,0.8,1.3l3.5,2.4
		c0.5,0.3,1,0.4,1.5,0.3s1-0.4,1.3-0.8l1.8-2.6c0.7,0.3,1.3,0.5,2,0.7s1.4,0.3,2.1,0.4l0.6,3.3c0.1,0.6,0.4,1,0.8,1.3
		c0.5,0.3,1,0.4,1.5,0.3l4.2-0.8c0.5-0.1,1-0.4,1.3-0.8c0.3-0.5,0.5-1,0.4-1.5l-0.5-3.1c0.7-0.3,1.3-0.6,1.9-1s1.2-0.8,1.8-1.2
		l2.8,2c0.5,0.3,1,0.5,1.5,0.4c0.6-0.1,1-0.4,1.3-0.8l2.4-3.5c0.3-0.5,0.4-1,0.3-1.5s-0.4-1-0.8-1.3L72.8,61c0.3-0.6,0.5-1.3,0.7-2
		s0.3-1.4,0.4-2.1l3.3-0.6c0.6-0.1,1-0.4,1.3-0.8c0.3-0.4,0.4-0.9,0.3-1.5L78,49.8c-0.1-0.5-0.4-1-0.8-1.3c-0.5-0.3-1-0.5-1.5-0.4
		l-3.1,0.5c-0.3-0.7-0.6-1.3-1-1.9c-0.4-0.7-0.8-1.2-1.2-1.7l2-2.8c0.3-0.5,0.5-1,0.4-1.5s-0.4-1-0.8-1.3L68.5,37L68.5,37L68.5,37
		L68.5,37z M56.3,46.9c1.1-0.2,2.2-0.2,3.3,0.1c1.1,0.2,2,0.7,2.9,1.3c0.8,0.6,1.6,1.4,2.2,2.3c0.6,0.9,1,2,1.2,3.1s0.2,2.2-0.1,3.3
		c-0.2,1.1-0.7,2-1.3,2.9c-0.6,0.8-1.4,1.6-2.3,2.2c-0.9,0.6-2,1-3.1,1.2s-2.2,0.2-3.3-0.1c-1.1-0.2-2-0.7-2.9-1.3
		c-0.8-0.6-1.6-1.4-2.2-2.3c-0.6-0.9-1-2-1.2-3.1s-0.2-2.2,0.1-3.3c0.2-1.1,0.7-2,1.3-2.9c0.6-0.8,1.4-1.6,2.3-2.2
		C54.2,47.4,55.2,47,56.3,46.9L56.3,46.9L56.3,46.9z"/>
</g>
</svg>
