<?xml version="1.0" encoding="utf-8"?>
<!-- Generator: Adobe Illustrator 27.0.1, SVG Export Plug-In . SVG Version: 6.00 Build 0)  -->
<svg version="1.1" id="Layer_1" xmlns="http://www.w3.org/2000/svg" xmlns:xlink="http://www.w3.org/1999/xlink" x="0px" y="0px"
	 viewBox="0 0 122.9 122.9" style="enable-background:new 0 0 122.9 122.9;" xml:space="preserve">
<style type="text/css">
	.st0{fill-rule:evenodd;clip-rule:evenodd;fill:#FBD433;}
	.st1{fill-rule:evenodd;clip-rule:evenodd;}
</style>
<path class="st0" d="M45.5,2.1c32.8-8.8,66.4,10.7,75.2,43.4s-10.7,66.4-43.4,75.2C44.5,129.5,10.9,110,2.1,77.3S12.8,10.9,45.5,2.1
	L45.5,2.1z"/>
<path class="st1" d="M45.8,32.3c4.3,0,7.8,5,7.8,11.3s-3.5,11.3-7.8,11.3s-7.8-5-7.8-11.3S41.5,32.3,45.8,32.3z"/>
<path class="st1" d="M77.1,32.3c4.3,0,7.8,5,7.8,11.3s-3.5,11.3-7.8,11.3s-7.8-5-7.8-11.3S72.8,32.3,77.1,32.3z"/>
<path d="M28.8,70.8c2.5,3.2,5.5,6.1,8.8,8.4c7.3,5.1,16.1,7.7,25,7.5c8.7,0,17.2-2.9,24.1-8.1c2.9-2.2,5.4-4.9,7.5-7.9
	c0.1-0.1,0.2-0.1,0.3,0l2.5,2.4c0.1,0.1,0.1,0.2,0,0.3c-3.5,6.1-8.3,11.2-14.1,15.2C77,92.6,70,94.8,62.8,95
	c-7.3,0.1-14.4-1.8-20.7-5.6c-6.6-4-12.1-9.4-16.3-15.9c-0.1-0.1-0.1-0.2,0-0.3l2.5-2.5C28.5,70.7,28.6,70.7,28.8,70.8
	C28.7,70.8,28.7,70.8,28.8,70.8L28.8,70.8L28.8,70.8z"/>
</svg>
