<?xml version="1.0" encoding="utf-8"?>
<!-- Generator: Adobe Illustrator 27.0.1, SVG Export Plug-In . SVG Version: 6.00 Build 0)  -->
<svg version="1.1" id="Layer_1" xmlns="http://www.w3.org/2000/svg" xmlns:xlink="http://www.w3.org/1999/xlink" x="0px" y="0px"
	 viewBox="0 0 119.1 122.9" style="enable-background:new 0 0 119.1 122.9;" xml:space="preserve">
<style type="text/css">
	.st0{fill:#FFFFFF;}
	.st1{fill:#F4BB2C;}
	.st2{fill-rule:evenodd;clip-rule:evenodd;fill:#FFFFFF;}
</style>
<g>
	<path class="st0" d="M87.3,77.1c-0.8,1.3-1.9,2.3-3.2,3c-1.1,0.6-2.3,0.9-3.6,1c-1.2,0-2.5-0.2-3.6-0.8c-0.8-0.4-1.5-1-2.1-1.7
		L87.3,77.1L87.3,77.1L87.3,77.1L87.3,77.1z M82.1,2.4c0-0.7,0.3-1.3,0.8-1.7C83.4,0.2,84,0,84.7,0v0c0.1,0,0.1,0,0.2,0
		c0.6,0.1,1.2,0.4,1.6,0.8c0.4,0.5,0.7,1.1,0.6,1.8h0c0,0,0,0.1,0,0.1l-0.3,5.3h0c0,0.1,0,0.1,0,0.2c-0.1,0.6-0.4,1.2-0.8,1.6
		c-0.5,0.4-1.1,0.7-1.8,0.6v0c-0.1,0-0.1,0-0.2,0c-0.6-0.1-1.2-0.4-1.6-0.8c-0.4-0.5-0.7-1.1-0.6-1.8h0c0,0,0-0.1,0-0.1L82.1,2.4
		L82.1,2.4L82.1,2.4L82.1,2.4z M54.7,10.9c-0.5-0.5-0.7-1.1-0.7-1.8c0-0.6,0.2-1.3,0.7-1.8c0.5-0.5,1.1-0.7,1.8-0.7
		c0.6,0,1.3,0.2,1.8,0.7l3.9,3.9c0.5,0.5,0.7,1.1,0.7,1.8s-0.2,1.3-0.7,1.8c-0.5,0.5-1.1,0.7-1.8,0.7c-0.7,0-1.3-0.2-1.8-0.7
		L54.7,10.9L54.7,10.9L54.7,10.9L54.7,10.9z M47.3,38.2c-0.7,0-1.3-0.3-1.7-0.7c-0.5-0.5-0.7-1.1-0.7-1.8c0-0.7,0.3-1.3,0.7-1.8
		s1.1-0.7,1.8-0.7l5.5,0c0.7,0,1.3,0.3,1.8,0.7s0.7,1.1,0.7,1.8v0h0l0,0.1c0,0.6-0.3,1.2-0.7,1.6c-0.5,0.5-1.1,0.7-1.8,0.7h0v0h-0.1
		H47.3L47.3,38.2L47.3,38.2L47.3,38.2z M115.6,32.6L115.6,32.6c0.7,0,1.3,0.2,1.8,0.6c0.5,0.4,0.8,1,0.9,1.7v0c0,0,0,0.1,0,0.1
		c0,0.7-0.2,1.2-0.6,1.7c-0.4,0.5-1,0.8-1.7,0.9l-5.5,0.4c-0.7,0-1.3-0.2-1.8-0.6c-0.5-0.4-0.8-1-0.9-1.7c-0.1-0.7,0.2-1.3,0.6-1.8
		s1-0.8,1.7-0.9C111.9,32.8,113.8,32.7,115.6,32.6L115.6,32.6L115.6,32.6L115.6,32.6L115.6,32.6z M105.5,10.5c0.4-0.6,1-0.9,1.6-1
		c0.6-0.1,1.3,0,1.9,0.4l0,0c0.6,0.4,0.9,1,1,1.6s0,1.3-0.4,1.9l-3.2,4.5c-0.4,0.6-1,0.9-1.6,1c-0.6,0.1-1.3,0-1.9-0.4
		c-0.6-0.4-0.9-1-1-1.6c-0.1-0.6,0-1.3,0.4-1.9L105.5,10.5L105.5,10.5L105.5,10.5L105.5,10.5z M28.9,110.5V74.7H45
		c6.8,1.2,13.6,4.9,20.5,9.2H78c5.7,0.3,8.6,6.1,3.1,9.8c-4.4,3.2-10.2,3-16.1,2.5c-4.1-0.2-4.3,5.3,0,5.3c1.5,0.1,3.1-0.2,4.5-0.2
		c7.4,0,13.5-1.4,17.2-7.3l1.9-4.4l18.6-9.2c9.3-3.1,15.9,6.7,9.1,13.4c-13.5,9.8-27.3,17.9-41.4,24.4c-10.3,6.2-20.5,6-30.8,0
		L28.9,110.5L28.9,110.5L28.9,110.5L28.9,110.5z M0,71.3h24.1v42.8H0V71.3L0,71.3L0,71.3z M89.4,64L89,65.9l-0.1,1.3l-16.2,1.9
		c0-1-0.2-2-0.4-3.1L89.4,64L89.4,64L89.4,64L89.4,64z M88.7,70.2l0,0.8l0,0.3c0,0.5,0,1.1,0,1.6L88.4,74l-15.1,1.8l-0.2-0.6
		l-0.5-2.4l0-0.7L88.7,70.2L88.7,70.2L88.7,70.2L88.7,70.2z"/>
	<path class="st1" d="M67.3,54.8c-1.8-2.2-3.6-4.4-5-7.7c-1.4-3.2-2.1-6.5-2-9.9c0.1-3.4,1.1-6.9,3.1-10.4c0,0,0,0,0-0.1l0,0
		c2.6-4.1,6.1-6.8,10-8.2c3.2-1.2,6.8-1.5,10.2-1.1c3.4,0.4,6.7,1.6,9.6,3.4c3.6,2.3,6.6,5.7,8.1,9.8c0.8,2.2,1.4,4.8,1.4,7.5
		c0,2.7-0.6,5.6-1.9,8.7c-2.1,4.7-6.7,9.6-9.8,14.2c-0.2,0-0.3,0-0.5,0c-6.3,0.7-12.7,1.5-19,2.2C70.6,60.1,69.1,56.9,67.3,54.8
		L67.3,54.8L67.3,54.8L67.3,54.8z"/>
	<path class="st2" d="M73,51.8L73,51.8c-0.8-1.3-0.4-2.9,0.7-3.6c0.4-0.2,0.9-0.3,1.3-0.3l0,0c1.7,0.4,2.6-0.3,2.3-1.5l-2.1-3.6
		c-0.2-0.4-0.1-0.9,0.3-1.2l3.3-1.9c1.6-0.1,1.1,1.4,1.3,2.4c0.4,2.3,4,2.3,5.8,1.1c0.4-0.3,0.7-0.7,0.9-1.1
		c0.9-1.8,0.2-3.3-1.4-4.2c-0.8-0.5-1.5-0.8-0.7-1.7l3.2-1.8c0.4-0.2,0.9-0.1,1.2,0.3l1.8,3.2c1.1,1.4,2.2,1.1,2.8-0.8l0,0
		c0.2-0.4,0.5-0.8,0.9-1c1.2-0.7,2.7-0.2,3.5,1.1l0,0c0.8,1.3,0.4,2.9-0.8,3.6c-0.4,0.2-0.9,0.3-1.3,0.3l0,0c-1.9-0.4-2.8,0.4-2.1,2
		l1.8,3.2c0.2,0.4,0.1,0.9-0.3,1.2l-3.3,1.9c-1.5,0.5-2.6-0.8-2.1-2.6l0,0c0-0.5,0.2-0.5,0-0.9c-0.7-1.2-2.5-2-3.8-1.2
		c-1.3,0.8-2.4,3.3-1.8,4.4c0.2,0.4,0.6,0.7,1,0.9l-0.1,0c1.8,0.6,2.2,1.7,0.9,2.7l-3.3,1.9c-0.4,0.2-0.9,0.1-1.2-0.3l-2.1-3.6
		c-0.9-0.9-1.9-0.5-2.5,1.2l0,0c-0.2,0.4-0.5,0.8-0.9,1C75.3,53.6,73.8,53.1,73,51.8L73,51.8L73,51.8L73,51.8z M65.4,37.3
		c0.8,1.3,2.3,1.8,3.5,1.1c0.4-0.2,0.7-0.6,0.9-1l0,0.1c0.5-1.7,1.5-2.1,2.5-1.2l2.1,3.6c0.2,0.4,0.8,0.5,1.2,0.3l3.2-1.8
		c2.3-1,2.2,0.3,2.2,1.8c-0.1,3.6,4.8,3.1,4.9,0.2c0.1-2.3-2.2-2-2.7-3.3c-0.2-0.5,0.1-1.2,0.8-1.7l3.2-1.8c0.4-0.2,0.6-0.8,0.3-1.2
		l-1.8-3.2c-0.7-1.6,0.2-2.5,2.1-2l0-0.1c0.5,0,0.9,0,1.3-0.3c1.2-0.7,1.5-2.3,0.8-3.6c-0.8-1.3-2.3-1.8-3.5-1.1
		c-0.4,0.2-0.7,0.6-0.9,1l0,0c-0.6,1.9-1.8,2.2-2.8,0.8l-1.8-3.2c-0.2-0.4-0.8-0.5-1.2-0.3l-3.3,1.9c-1.2,1-0.9,2.1,0.9,2.7l0,0
		c0.4,0.2,0.8,0.5,1,0.9c0.7,1.2,0.2,2.7-1.1,3.5c-1.3,0.8-2.9,0.4-3.6-0.8c-0.2-0.4-0.3-0.9-0.3-1.3l-0.1,0
		c0.4-1.9-0.4-2.7-1.9-2.2L68,27.1c-0.4,0.2-0.6,0.8-0.3,1.2l2.1,3.6c0.3,1.3-0.6,1.9-2.3,1.5l0,0c-0.5,0-0.9,0-1.3,0.3
		C65,34.4,64.7,36,65.4,37.3L65.4,37.3L65.4,37.3L65.4,37.3z"/>
</g>
</svg>
