<?xml version="1.0" encoding="UTF-8"?>
<svg id="Layer_2" data-name="Layer 2" xmlns="http://www.w3.org/2000/svg" viewBox="0 0 54.08 76.13">
  <defs>
    <style>
      .cls-1 {
        fill: #fff;
      }

      .cls-2 {
        fill: #f7f8f8;
      }

      .cls-3 {
        fill: #f0bf21;
      }

      .cls-4 {
        fill: #ebebeb;
      }

      .cls-5 {
        fill: #e6a42a;
      }
    </style>
  </defs>
  <g id="Layer_1-2" data-name="Layer 1">
    <g>
      <g>
        <path class="cls-5" d="M54.08,14.92H0l5.07,54.98,21.97,6.23,21.97-6.23,5.08-54.98Z"/>
        <path class="cls-3" d="M27.04,19.4v52.07l17.8-5.04,4.33-47.03H27.04Z"/>
        <path class="cls-1" d="M21.78,6.81h-4.81v3.46h8.26V0h-3.44V6.81ZM37.11,.05h-8.39V3.65c1.12,1.12,1.71,1.66,3.36,3.28h-3.36v3.28h8.39v-3.27l-3.36-3.28h3.36V.05Z"/>
      </g>
      <g>
        <polygon class="cls-4" points="10.25 26.14 25.12 26.14 25.12 63.22 8.64 60.01 7.67 49.6 14.37 49.66 14.88 54.86 18.6 55.44 18.49 32.84 10.99 32.78 10.25 26.14"/>
        <polygon class="cls-2" points="28.9 26.14 46.41 26.14 45.66 32.78 35.88 32.78 35.82 39.7 45.09 39.7 43.26 60.01 28.9 63.22 28.9 56.47 37.2 54.86 37.94 46.28 28.9 46.34 28.9 26.14"/>
      </g>
    </g>
  </g>
</svg>