<?xml version="1.0" encoding="UTF-8"?>
<svg id="Layer_2" data-name="Layer 2" xmlns="http://www.w3.org/2000/svg" xmlns:xlink="http://www.w3.org/1999/xlink" viewBox="0 0 572.75 807.68">
  <defs>
    <style>
      .cls-1 {
        fill: url(#linear-gradient-2);
      }

      .cls-2 {
        fill: url(#linear-gradient-6);
      }

      .cls-3 {
        fill: url(#linear-gradient-11);
      }

      .cls-4 {
        fill: url(#linear-gradient-10);
      }

      .cls-5 {
        fill: url(#linear-gradient-5);
      }

      .cls-6 {
        fill: url(#linear-gradient-7);
      }

      .cls-7 {
        fill: url(#linear-gradient-9);
      }

      .cls-8 {
        fill: url(#linear-gradient-3);
      }

      .cls-9 {
        fill: url(#linear-gradient);
      }

      .cls-10 {
        fill: url(#linear-gradient-4);
      }

      .cls-11 {
        fill: url(#linear-gradient-8);
      }
    </style>
    <linearGradient id="linear-gradient" x1="-1083.21" y1="-1184.44" x2="-1017.37" y2="-1184.44" gradientTransform="translate(-819.66 -447.81) rotate(-180)" gradientUnits="userSpaceOnUse">
      <stop offset="0" stop-color="#8b7250"/>
      <stop offset="1" stop-color="#493c2a"/>
    </linearGradient>
    <linearGradient id="linear-gradient-2" x1="-1131.43" y1="-1203.85" x2="-1078.78" y2="-1203.85" xlink:href="#linear-gradient"/>
    <linearGradient id="linear-gradient-3" x1="-1194.17" y1="-1184.44" x2="-1128.33" y2="-1184.44" xlink:href="#linear-gradient"/>
    <linearGradient id="linear-gradient-4" x1="-4586.36" y1="-3163.74" x2="-4586.36" y2="-2975.17" gradientTransform="translate(-2727.78 5171.72) rotate(90)" xlink:href="#linear-gradient"/>
    <linearGradient id="linear-gradient-5" x1="-4731.59" y1="-3012.15" x2="-4731.59" y2="-2932.08" gradientTransform="translate(-2727.78 5171.72) rotate(90)" xlink:href="#linear-gradient"/>
    <linearGradient id="linear-gradient-6" x1="-4609.39" y1="-3011.31" x2="-4609.39" y2="-2932.09" gradientTransform="translate(-2727.78 5171.72) rotate(90)" xlink:href="#linear-gradient"/>
    <linearGradient id="linear-gradient-7" x1="-4586.41" y1="-3050.17" x2="-4586.41" y2="-2861.7" gradientTransform="translate(-2727.78 5171.72) rotate(90)" xlink:href="#linear-gradient"/>
    <linearGradient id="linear-gradient-8" x1="-4731.57" y1="-3093.31" x2="-4731.57" y2="-3013.09" gradientTransform="translate(-2727.78 5171.72) rotate(90)" xlink:href="#linear-gradient"/>
    <linearGradient id="linear-gradient-9" x1="-4609.32" y1="-3093.3" x2="-4609.32" y2="-3014.13" gradientTransform="translate(-2727.78 5171.72) rotate(90)" xlink:href="#linear-gradient"/>
    <linearGradient id="linear-gradient-10" x1="-1130.77" y1="-1103.33" x2="-1078.57" y2="-1103.33" xlink:href="#linear-gradient"/>
    <linearGradient id="linear-gradient-11" x1="60" y1="526.39" x2="545.77" y2="195.83" gradientTransform="translate(-117.47 690.22) rotate(-90)" xlink:href="#linear-gradient"/>
  </defs>
  <g id="Warstwa_1" data-name="Warstwa 1">
    <g>
      <g>
        <path class="cls-9" d="M201.57,741.39c-1.68,.64-2.93,1.87-3.55,3.84-.59,1.94-.39,4.6,1.17,7.61,1.56,2.99,4.75,6.23,9.35,8.52,4.57,2.33,10.44,3.48,16.16,3.11,2.9-.11,6.52-.83,10.37-2.16,3.84-1.33,7.82-3.4,11.38-6.08,3.58-2.67,6.76-5.93,9.28-9.46,2.53-3.53,4.41-7.32,5.68-11.02,1.21-3.73,1.85-7.34,2.08-10.62,.08-1.64,.09-3.2,.03-4.65-.12-1.45-.21-2.8-.41-4.02-.22-1.22-.45-2.32-.68-3.28-.24-.96-.57-1.78-.83-2.44-.55-1.33-1.05-2.06-1.47-2.06-.37,0-.88,.72-1.49,1.98-.63,1.41-1.42,3.14-2.31,5.12-.48,1.04-1.08,2.15-1.64,3.32-.63,1.16-1.31,2.36-2.04,3.59-1.52,2.43-3.33,4.9-5.37,7.18-2.1,2.25-4.43,4.3-6.86,5.95-2.42,1.66-4.93,2.93-7.26,3.79-2.32,.88-4.46,1.34-6.2,1.56-.43,.1-.84,.09-1.23,.14-.39,.04-.75,.1-1.08,.09-.33,.01-.65,.04-.94,.07-.28,0-.54,0-.78,.02-1.92,.11-3.47,.21-5.01,.27-1.54,.06-3.23,.1-5.08-.11-3.71-.33-7.88-1.56-11.28-.28Z"/>
        <path class="cls-1" d="M259.12,768.07c10.3-20.25,13.07-48.67,13.4-52.42,.02-.24,.18-.41,.37-.41l10.05-9.86c1.33-1.3,3.68-1.3,5.01,0l10.05,9.86c.19,0,.35,.17,.37,.41,.33,3.75,2.66,29.98,13.4,52.42,.08,.17-20.71,32.37-25.39,39.1-.47,.68-1.39,.68-1.87,0-4.68-6.73-25.48-38.93-25.39-39.1Z"/>
        <path class="cls-8" d="M370.66,741.39c1.68,.64,2.93,1.87,3.55,3.84,.59,1.94,.39,4.6-1.17,7.61-1.56,2.99-4.75,6.23-9.35,8.52-4.57,2.33-10.44,3.48-16.16,3.11-2.9-.11-6.52-.83-10.37-2.16-3.84-1.33-7.82-3.4-11.38-6.08-3.58-2.67-6.76-5.93-9.28-9.46-2.53-3.53-4.41-7.32-5.68-11.02-1.21-3.73-1.85-7.34-2.08-10.62-.08-1.64-.09-3.2-.03-4.65,.12-1.45,.21-2.8,.41-4.02,.22-1.22,.45-2.32,.68-3.28,.24-.96,.57-1.78,.83-2.44,.55-1.33,1.05-2.06,1.47-2.06,.37,0,.88,.72,1.49,1.98,.63,1.41,1.42,3.14,2.31,5.12,.48,1.04,1.08,2.15,1.64,3.32,.63,1.16,1.31,2.36,2.04,3.59,1.52,2.43,3.33,4.9,5.37,7.18,2.1,2.25,4.43,4.3,6.86,5.95,2.42,1.66,4.93,2.93,7.26,3.79,2.32,.88,4.46,1.34,6.2,1.56,.43,.1,.84,.09,1.23,.14,.39,.04,.75,.1,1.08,.09,.33,.01,.65,.04,.94,.07,.28,0,.54,0,.78,.02,1.92,.11,3.47,.21,5.01,.27,1.54,.06,3.23,.1,5.08-.11,3.71-.33,7.88-1.56,11.28-.28Z"/>
        <path class="cls-10" d="M370.48,709.87c-.92-.93-.97-2.48-.32-4.48,.65-2.01,2.05-4.53,3.94-7.52,1.02-1.54,2.1-3.18,3.24-4.86,.59-.89,1.24-1.78,1.89-2.66,.59-.98,1.24-1.92,1.94-2.9,1.4-1.96,2.7-4.06,4.15-6.26,1.35-2.2,2.86-4.49,4.15-6.91,2.75-4.86,5.23-10.09,6.96-15.6,.75-2.76,1.51-5.56,1.78-8.41,.22-1.45,.22-2.9,.32-4.3,0-1.45,.05-2.9-.16-4.39-.38-5.84-2.21-11.87-5.28-18.22-3.13-6.31-7.49-12.89-13.05-19.48-5.39-6.59-13.48-15.23-24.16-24.9-.7-.65-1.4-1.26-2.1-1.92-5.5-5-11.7-10.23-18.33-15.7-5.66-4.72-11.7-9.58-17.96-14.58-10.41-8.32-21.51-17.05-32.68-26.49-4.48-3.83-8.95-7.71-13.43-11.77-2.91-2.71-5.93-5.47-8.73-8.32-.97-.89-1.83-1.73-2.7-2.62-1.83-1.92-3.67-3.83-5.5-5.84l-1.35-1.5-1.35-1.64c-.92-1.07-1.83-2.15-2.7-3.27-.59-.75-1.13-1.49-1.67-2.29,3.4-5.79,7.22-11.82,11.05-17.94,1.08-1.73,2.21-3.5,3.29-5.28,2.75,4.06,5.82,7.9,9.17,11.45,.75,.79,1.56,1.54,2.32,2.29l1.19,1.12,1.29,1.21c1.73,1.54,3.56,3.13,5.39,4.67,1.19,1.03,2.48,2.06,3.72,3.04,2.48,2.06,5.07,4.02,7.66,5.98,4.74,3.6,9.65,7.15,14.56,10.61,10.35,7.33,20.87,14.39,31,21.3,.86,.61,1.73,1.17,2.59,1.78,8.68,5.93,17.09,11.82,24.91,17.57,6.42,4.72,12.51,9.39,18.06,13.97,12.51,10.19,22.59,20.14,29.55,28.59,6.96,8.36,12.94,17.61,17.09,27.56,4.15,9.9,6.31,20.65,5.61,30.84-.11,2.57-.49,5.05-.86,7.48-.54,2.43-.97,4.86-1.78,7.1-1.29,4.63-3.29,8.83-5.34,12.75-4.26,7.8-9.49,14.11-14.67,19.25-2.59,2.62-5.28,4.81-7.76,6.91-2.64,1.96-5.01,3.88-7.5,5.42-1.19,.75-2.37,1.5-3.5,2.24-1.13,.65-2.26,1.31-3.34,1.87-2.21,1.21-4.21,2.24-6.15,3.04-3.77,1.64-6.96,2.57-9.44,2.9-2.43,.33-4.15,.05-5.01-.89Z"/>
        <g>
          <path class="cls-5" d="M204.3,540.79c-.05-6.17,.7-13.5,2.7-21.44,2.48-9.9,6.69-20.74,12.89-31.54,4.74-8.32,10.46-16.12,16.39-23.83,1.94-2.52,3.83-5,5.77-7.52,1.02-1.35,2.1-2.71,3.13-4.06,2.53-3.32,5.07-6.68,7.44-10,3.94-5.42,7.55-10.89,10.57-16.45,2.8-5.14,5.28-10.33,6.9-15.56,1.67-5.19,2.97-10.47,3.4-15.46,1.13-10.05-.05-19.76-.59-28.08-.38-4.16-.49-7.99-.54-11.35,0-3.41,.27-6.35,.43-8.69,.81-4.77,1.46-7.34,1.83-7.34,.38,0,.7,2.71,1.02,7.34,.38,2.29,.75,5.09,1.35,8.36,.7,3.22,1.4,6.87,2.43,10.93,1.89,8.04,4.64,17.75,4.91,29.15,.43,11.31-2.1,23.78-7.06,35.74-2.32,5.7-5.18,11.26-8.2,16.68-2.37,4.16-4.85,8.18-7.33,12.15-1.08,1.78-2.21,3.55-3.29,5.28-3.83,6.12-7.66,12.15-11.05,17.94-2.64,4.39-4.96,8.69-6.9,12.85-4.21,8.97-6.96,17.71-8.57,25.46-.92,.61-1.83,1.26-2.75,1.87-8.68,5.93-17.04,11.82-24.86,17.57Z"/>
          <path class="cls-2" d="M251.32,600.36c-1.24-.37-2.48-.75-3.77-1.12-1.24-.42-2.48-.93-3.83-1.45-2.59-.98-5.18-2.34-7.87-3.69-5.28-2.99-10.62-6.82-15.26-11.68-1.62-1.68-3.18-3.5-4.48-5.42-2.8-3.6-5.07-7.52-6.85-11.68-2.75-6.35-4.26-13.22-4.8-20.14-.11-1.4-.16-2.85-.16-4.39,7.82-5.75,16.18-11.63,24.86-17.57,.92-.61,1.83-1.26,2.75-1.87-.16,.7-.32,1.35-.43,2.01-1.51,8.27-1.62,15.23-1.29,20.42,.49,6.4,1.94,12.29,4.21,17.52,1.4,3.18,3.18,6.12,5.18,8.74,2.64,3.5,5.77,6.49,9.06,9.2,1.73,1.26,3.29,2.57,5.12,3.64,.86,.56,1.67,1.17,2.59,1.64,.86,.51,1.73,1.03,2.59,1.5,6.9,3.88,13.37,6.45,17.79,8.74,4.53,2.06,7.06,3.92,6.79,5.47-.27,1.5-3.34,2.57-8.9,3.04-5.5,.23-13.53-.14-23.29-2.9Z"/>
        </g>
        <path class="cls-6" d="M194.38,710.76c-2.48-.33-5.66-1.26-9.44-2.9-1.94-.79-3.99-1.82-6.15-3.04-1.08-.56-2.21-1.21-3.34-1.87-1.19-.75-2.32-1.5-3.5-2.24-2.48-1.54-4.91-3.46-7.49-5.42-2.53-2.1-5.18-4.3-7.76-6.91-5.18-5.14-10.41-11.45-14.67-19.25-2.1-3.92-4.04-8.13-5.39-12.75-.75-2.24-1.19-4.67-1.73-7.1-.38-2.43-.75-4.91-.86-7.48-.7-10.19,1.46-20.93,5.55-30.84,4.21-9.95,10.19-19.2,17.15-27.56,6.96-8.46,17.04-18.41,29.49-28.59,5.61-4.58,11.65-9.25,18.06-14.02,7.82-5.75,16.18-11.63,24.86-17.57,.92-.61,1.83-1.26,2.75-1.87,10.03-6.91,20.49-13.92,30.73-21.16,4.96-3.5,9.87-7.05,14.67-10.7,2.53-1.92,5.07-3.88,7.49-5.89,1.35-1.03,2.59-2.1,3.88-3.18,1.78-1.54,3.61-3.08,5.34-4.67l1.29-1.17,1.13-1.12c.81-.79,1.62-1.5,2.32-2.29,3.4-3.55,6.47-7.38,9.17-11.45,1.13,1.82,2.26,3.64,3.4,5.42,3.83,6.07,7.66,12.01,11.05,17.75-.54,.79-1.13,1.59-1.73,2.34-.86,1.07-1.78,2.15-2.7,3.27l-1.35,1.59-1.35,1.5c-1.78,2.01-3.67,3.92-5.5,5.84-.92,.93-1.83,1.87-2.75,2.76-2.86,2.8-5.77,5.51-8.68,8.22-4.48,4.11-9,8.04-13.53,11.87-11.11,9.44-22.11,18.13-32.46,26.4-6.25,5.05-12.29,9.9-17.95,14.62-6.63,5.47-12.83,10.75-18.28,15.7-.75,.65-1.46,1.31-2.16,1.92-10.68,9.72-18.71,18.36-24.16,24.95-5.5,6.59-9.87,13.17-13.05,19.48-3.02,6.35-4.85,12.38-5.28,18.22-.16,1.5-.11,2.94-.11,4.39,.11,1.4,.05,2.85,.32,4.3,.27,2.85,1.02,5.65,1.78,8.41,1.67,5.51,4.21,10.75,6.9,15.6,1.35,2.43,2.86,4.72,4.21,6.91,1.46,2.2,2.75,4.3,4.15,6.26,.65,.98,1.29,1.92,1.94,2.9,.65,.89,1.24,1.78,1.89,2.66,1.08,1.68,2.16,3.32,3.23,4.86,1.89,2.99,3.29,5.51,3.94,7.52,.65,2.01,.59,3.55-.32,4.48-.92,.93-2.59,1.21-5.01,.89Z"/>
        <g>
          <path class="cls-11" d="M365.52,540.84c-7.82-5.75-16.23-11.63-24.91-17.57-.86-.61-1.73-1.17-2.59-1.78-1.62-7.76-4.42-16.59-8.74-25.6-1.94-4.2-4.31-8.5-6.9-12.99-3.4-5.75-7.22-11.68-11.05-17.75-1.13-1.78-2.26-3.6-3.4-5.42-2.91-4.63-5.77-9.34-8.41-14.2-2.64-4.72-5.01-9.53-7.01-14.48-5.01-11.96-7.55-24.43-7.17-35.79,.32-11.4,3.07-21.12,4.96-29.2,1.02-4.02,1.73-7.66,2.43-10.93,.59-3.22,.97-6.03,1.35-8.32,.38-4.63,.76-7.34,1.13-7.34,.05,0,.11,.05,.16,.14,.38,.51,.92,3.04,1.62,7.2,.16,2.34,.38,5.28,.38,8.64-.05,3.36-.16,7.24-.54,11.4-.54,8.27-1.78,17.99-.65,28.08,.43,5.05,1.73,10.28,3.45,15.51,1.62,5.23,4.1,10.42,6.9,15.56,2.97,5.51,6.58,10.98,10.51,16.35,2,2.76,4.1,5.56,6.2,8.32,1.51,1.92,3.02,3.88,4.53,5.84,1.89,2.43,3.77,4.86,5.61,7.34,5.93,7.76,11.75,15.6,16.5,23.97,6.25,10.79,10.51,21.63,12.99,31.54,1.94,7.94,2.7,15.32,2.64,21.49Z"/>
          <path class="cls-7" d="M295.21,603.25c-5.5-.47-8.57-1.54-8.84-3.04-.27-1.54,2.26-3.41,6.79-5.47,4.42-2.29,10.89-4.86,17.79-8.74,.86-.47,1.73-.98,2.59-1.5,.92-.47,1.73-1.07,2.59-1.64,1.78-1.07,3.4-2.38,5.12-3.64,3.29-2.71,6.42-5.7,9.06-9.2,1.99-2.62,3.72-5.51,5.12-8.69,2.32-5.23,3.77-11.12,4.21-17.57,.38-5.19,.27-12.15-1.24-20.42-.11-.61-.22-1.21-.38-1.87,.86,.61,1.73,1.17,2.59,1.78,8.68,5.93,17.09,11.82,24.91,17.57,0,1.54-.05,2.99-.16,4.34-.49,6.91-2.05,13.78-4.74,20.14-1.78,4.2-4.1,8.13-6.85,11.73-1.35,1.92-2.86,3.69-4.48,5.37-4.64,4.86-9.97,8.69-15.26,11.68-2.7,1.35-5.28,2.71-7.93,3.69-1.29,.51-2.53,1.03-3.83,1.45-1.24,.37-2.48,.75-3.72,1.12-9.76,2.76-17.79,3.13-23.35,2.9Z"/>
        </g>
        <path class="cls-4" d="M258.91,655.51c0-12.49,11.69-22.62,26.1-22.62,14.42,0,26.1,10.13,26.1,22.62,0,12.49-11.69,22.62-26.1,22.62-14.41,0-26.1-10.13-26.1-22.62Z"/>
      </g>
      <path class="cls-3" d="M56.94,525.28s10.41-27.28,15.15-40.27c4.31,2.48,10.14,2.57,14.67-.09,1.13-.65,2.1-1.45,2.86-2.34h.05c1.19,0,2.48-.14,3.77-.37l139.27-27.38c-1.4-4.02-2.37-8.04-3.29-12.01-.97-4.86-1.73-9.62-1.99-14.39-.7-9.44-.22-18.64,1.4-27.28,3.07-17.29,10.3-32.24,18.76-43.31,2.1-2.8,4.37-5.28,6.47-7.66,2.32-2.24,4.42-4.39,6.63-6.21,2.1-1.92,4.31-3.46,6.25-4.95,1.99-1.45,3.99-2.62,5.72-3.74,3.56-2.01,6.42-3.46,8.52-4.25,2.05-.79,3.18-1.12,3.34-.89,.54-.33,.75,0,.75,0,.16-.19,1.29,.14,3.34,.98,2.05,.79,4.91,2.24,8.46,4.3,1.67,1.12,3.67,2.29,5.66,3.74,1.94,1.5,4.15,3.04,6.25,4.95,2.21,1.82,4.26,3.97,6.58,6.21,2.1,2.34,4.37,4.86,6.42,7.66,8.46,11.03,15.64,25.93,18.76,43.22,1.62,8.6,2.05,17.75,1.4,27.24-.27,4.72-1.02,9.48-2,14.34-.81,3.6-1.73,7.29-2.91,10.93l43.19,9.39,50.09,10.84,45.51,9.9c2,.42,3.99,.51,5.82,.33h.05c.54,.51,1.19,.89,1.89,1.26,2.16,1.12,4.53,1.64,6.85,1.64,2.8,0,5.55-.75,7.82-2.2,5.55,12.71,17.58,39.53,17.58,39.53,10.41-6.07,56.67-5.56,56.67-5.65,.75,.05-21.78-35.32-20.43-46.16,0,0-33.05,3.13-48.58,4.77,.81-4.44-1.51-9.02-6.2-11.49-.86-.47-1.73-.79-2.64-1.03-.22-.51-.54-1.03-.86-1.54l-77.7-117.5c-26.74-40.41-46.8-83.86-59.53-129.09l-31.22-110.63c28.31-10.93,56.67,5.75,27.01,23.83,1.46-18.97-21.95,4.11-5.93,10.37,26.85,11.96,53.43-21.4,36.02-41.21-11.75-15.6-40.98-19.76-60.17-10.84,3.51-39.29-27.98-82.98-31.81-88.11v-.09h-.05c-4.15,5.28-39.42,49.62-35.86,89.89-30.36-22.8-91.82,1.64-67.61,37.33,7.76,11.73,32.62,19.02,40.28,4.39,3.13-9.16-13.21-18.03-11.11-4.58-31.97-23.08,8.73-35.55,36.23-19.2l-49.12,136.75c-9.38,26.07-21.73,51.21-36.99,75.08l-90.69,142.08c-.65,1.07-1.13,2.15-1.51,3.18-.81,.28-1.56,.61-2.32,1.07-3.77,2.2-5.77,5.79-5.77,9.48,0,.75,.11,1.54,.27,2.29-15.64-.93-48.8-2.57-48.8-2.57C19.63,485.94-.11,522.24,0,522.19c-.32,.61,46.15-2.48,56.94,3.08ZM287.71,43.08c23.29,40.51-1.24,52.09-1.24,52.09-28.58-13.55,1.24-52.09,1.24-52.09Zm168.33,414.55s-22.54,18.5-56.02-29.48c0,0,61.79,1.5,56.02,29.48Zm-64.97-39.15c2.26,1.21,2.97,3.74,1.62,5.7-1.4,1.96-4.31,2.57-6.58,1.4-2.26-1.21-2.97-3.74-1.62-5.7,1.4-1.96,4.31-2.57,6.58-1.4Zm-96.35-103.77c1.89,.79,4.64,1.87,8.09,3.08,3.45,1.26,7.55,2.66,12.13,4.53,1.13,.51,2.32,1.03,3.45,1.59,1.19,.61,2.43,1.26,3.56,1.92,2.21,1.31,4.53,2.66,6.74,4.16,9,5.89,17.85,13.27,24.37,20.84,6.63,7.52,10.95,15,13.1,19.72,4.26,9.48,5.55,18.73,5.18,25.28-.05,1.12-.16,2.15-.32,3.08-.05,.47-.11,.93-.22,1.4-.32,1.31-.65,2.43-1.08,3.36-.81,1.82-1.83,2.9-3.02,2.94-1.13,.09-2.32-.75-3.5-2.24,0-.05-.05-.09-.11-.14-.65-.79-1.24-1.78-1.83-2.94-.65-1.12-1.29-2.38-1.94-3.83-2.59-5.65-5.5-13.32-9.17-21.49-1.89-4.06-4.85-10.7-9.6-17.89-4.74-7.24-11.43-14.86-18.6-21.58-1.78-1.68-3.67-3.22-5.45-4.81-.86-.7-1.78-1.4-2.64-2.06-.86-.7-1.83-1.31-2.75-1.92-3.72-2.48-7.39-4.63-10.46-6.54-3.13-1.96-5.55-3.74-7.06-5.14-1.51-1.4-2.21-2.24-2.05-2.43,.16-.19,1.29,.28,3.18,1.12Zm-34.45-26.91c0-11.17,10.46-20.28,23.4-20.28s23.46,9.11,23.46,20.28-10.51,20.32-23.46,20.32c-12.94,0-23.4-9.11-23.4-20.32Zm-61.95,115.87c-.38-.93-.75-2.06-1.02-3.36-.27-1.31-.43-2.8-.54-4.49-.05-.42-.05-.89-.05-1.35-.16-6.4,1.24-15.04,5.23-23.92,2.16-4.72,6.47-12.19,13.05-19.72,6.47-7.62,15.31-15,24.32-20.93,2.26-1.5,4.58-2.8,6.74-4.16,1.19-.65,2.43-1.31,3.56-1.92,1.19-.56,2.37-1.03,3.51-1.54,4.53-1.92,8.68-3.32,12.13-4.58,3.45-1.21,6.15-2.29,8.09-3.04,1.89-.84,3.02-1.26,3.18-1.07,.16,.14-.54,.98-2.05,2.38-1.56,1.36-3.99,3.13-7.06,5.09-3.07,1.92-6.79,4.06-10.51,6.54-.92,.61-1.89,1.21-2.75,1.92-.86,.65-1.73,1.35-2.64,2.06-1.73,1.59-3.67,3.18-5.45,4.86-7.17,6.73-13.86,14.39-18.55,21.63-4.75,7.2-7.71,13.83-9.6,17.89-3.67,8.18-6.58,15.84-9.17,21.49-.59,1.45-1.29,2.71-1.94,3.83-.16,.37-.38,.7-.54,1.03-.43,.75-.81,1.35-1.24,1.92-1.24,1.59-2.48,2.48-3.67,2.38-1.19-.05-2.16-1.12-3.02-2.94Zm-24.26,15.89c-1.46-1.87-.92-4.44,1.29-5.75,2.16-1.26,5.12-.79,6.63,1.12,1.51,1.87,.92,4.44-1.24,5.75-2.21,1.26-5.18,.79-6.69-1.12Zm-61.41,36.11s-10.08-25.46,54.19-31.96c0,0-27.18,48.08-54.19,31.96Z"/>
    </g>
  </g>
</svg>