<?xml version="1.0" encoding="UTF-8"?>
<svg id="Layer_2" data-name="Layer 2" xmlns="http://www.w3.org/2000/svg" viewBox="0 0 94.07 101.3">
  <defs>
    <style>
      .cls-1 {
        fill: #5c2700;
      }

      .cls-1, .cls-2 {
        fill-rule: evenodd;
      }
    </style>
  </defs>
  <g id="Layer_2-2" data-name="Layer 2">
    <g id="layer1">
      <path id="path2308" class="cls-1" d="M36.78,0l-.25,.05-.25,2.55-8.87,19.99-10.27-6.32L2.07,35.61l-.05,8.47-1.85,1.17-.17,28.31,19.31,14.02,9.1-5.53,.03,12.19,9.87,7.05,10.92-4.73,.17-.6,33.13-12.82,.18,.52,11.37-4.87V35.33l-10.67-24.79-.3-2.6-.25,.05-.25,2.55c-3.21,7.23-6.6,14.83-9.47,22.39l.02,17.74-.67-.42,.13-19.69-10.7-17.17-9.07,3.4-7.75,3.82L37.06,2.45l-.28-2.45h0Zm0,2.6h.05l10.14,24.36-7.05,3.7-1.05-2.37-.3-2.6-.25,.05-.25,2.55-1.7,3.95,.4-29.63Zm-.2,.03l-.65,29.78-8.89-7.55S36.58,2.62,36.58,2.62Zm-1.77,5.17l-2.1,5.5,.3,.15,2.05-5.55s-.25-.1-.25-.1Zm3,.25l-.3,.02,4.17,11.09-1.65,.47-.63-2.32-.22,.05,.62,2.32-2,.57-.1-7.37-.25,.05,.18,7.37-.3,.1,.03,.32,.3-.08,.05,2.4h.15l-.02-2.45,2.07-.62,1.97,7.25-1.97,.72,.1,.28,1.92-.77,.23,.8,.22-.1-.22-.77,1.37-.55v-.2l-1.42,.52-1.97-7.22,1.65-.5,2.65,7.02,.2,.02-2.62-7.1,.97-.3-.28-.22-.8,.22s-4.1-11.04-4.1-11.04Zm45.32,2.9l10.39,24.51-10.71,5.27,.32-29.78Zm-.3,.18l-.55,29.63-8.64-7.9s9.2-21.74,9.2-21.74Zm-47.85,1.75l-.4,3.42-2.7-1.05-.2,.05,2.87,1.27-.32,2.7h.35l.25-2.57,.65,.3-.1-.4-.52-.2,.32-3.52h-.2Zm26.74,.8l-16.09,8.05-.63-.52,7.8-3.97s8.92-3.55,8.92-3.55Zm.1,.45l10.09,16.82-15.89,8.7-7.57-4.72-.75-8.25-1.9-4.35s16.02-8.2,16.02-8.2Zm22.51,.1l-.1,.1,4.25,13.09h.15s-4.3-13.19-4.3-13.19Zm-2.37,.4l-.68,18.17-1.62-1.37c.21-.74,.41-1.49,.62-2.22h-.1c-.22,.73-.45,1.41-.68,2.1l-2.34-2.02,3.22-7.92-.2-.05-3.2,7.82-.68-.57-.1,.3,.67,.55-.8,1.95,.2,.1,.78-1.9,2.37,1.95c-.32,.96-.63,1.92-.9,2.95l.26,.15c.26-1,.52-1.98,.8-2.97l1.67,1.4-.1,2.85,.3,.05,.1-2.67,.34,.3,.06-.15-.4-.35,.59-18.42s-.19,0-.19,0Zm-64.77,2l9.89,6.72-.75,1.2,.4,7.82-6.1,2.1-.03,.02h-.02l-11.09,5.55-6.67-4.4,14.37-19.01h0Zm42.58,.07l-.25,.05,4.22,6.42-4.15,2.12,.2,.2,4.1-2.07,2.85,4.32-8.55,4.02-4.3-7.8c1.81-.74,3.62-1.5,5.42-2.25v-.1c-1.87,.68-3.76,1.31-5.62,2l-.12-.25-.35,.1,.15,.25c-1.63,.61-3.23,1.28-4.77,2.1l.1,.2c1.63-.62,3.25-1.26,4.87-1.92l4.37,7.8-5.92,2.77,.3,.1,5.72-2.7,1.12,2,.2-.15-1.07-1.95,8.57-4.02,.7,1.05,.15-.15-.65-1,.7-.32-.1-.2-.72,.35-2.85-4.35,1.55-.77-.15-.25-1.55,.77s-4.17-6.37-4.17-6.37Zm-28.21,1.7l-1.95,4.85-.95-.75-.15,.05,1.05,.87-.5,1.22,.1,.15,.52-1.27,3.92,3.27-.62,2.5,.15,.15,.63-2.52,1.1,.92,.2-.3-1.22-.95,.65-2.6-.2,.05-.6,2.42-3.95-3.12,2.02-4.95s-.2,0-.2,0Zm52.19,.25c.1,3.87-.05,7.78,.06,11.64l.4,.1c-.1-3.87-.06-7.88-.15-11.74h-.3Zm-66.19,.97c-.65,.93-1.32,1.86-1.97,2.8l-.62-.4-.2,.05,.75,.47c-3,4.27-6.07,8.57-9.27,12.52l.25,.2c3.51-4,6.26-8.24,9.2-12.57l6.87,4.47-3.1,4.02,.3,.05,3.02-3.92,1.82,1.2,.2-.2-1.87-1.2,1.77-2.27-.15-.25-1.85,2.37-6.92-4.42c.61-.91,1.23-1.81,1.87-2.72,0,0-.1-.2-.1-.2Zm9.62,6.02l8.65,7.75-1.87,4.2-4.12-5.97-2.32,.5s-.32-6.47-.32-6.47Zm20.19,2.05l.35,6.77-4.17-2.6-2.07,2.27-1.35-3.05,7.25-3.4Zm-30.18,.47c-.69,.84-1.4,1.68-2.12,2.5l-1.13-.85-.3,.05,1.27,.95c-1.69,1.91-3.4,3.81-4.9,5.87l.15,.05c1.49-1.9,3.19-3.86,4.9-5.8l3.37,2.52,.1-.15-3.32-2.52c.71-.81,1.44-1.64,2.12-2.42,0,0-.15-.2-.15-.2Zm21.16,.12l-.67,30.13-8.65-7.87s9.32-22.26,9.32-22.26Zm.3,.18l10.27,24.69-10.44,4.9s.18-29.58,.18-29.58Zm49.95,2.1l-.2,.2,1.85,3.52-6.15,3.02,.1-3.87h-.25l-.08,3.97-.25,.12-.1,.25,.35-.18-.02,1.02,.2,.05,.02-1.17,6.3-2.97,.62,1.17,.2-.25-.55-1.05,.67-.33-.14-.25-.68,.32s-1.9-3.6-1.9-3.6Zm-16.42,1.1l-.12,18.32-4.9-3.27c.59-.25,1.2-.45,1.8-.67v-.02h.05l.02-6.87-2.42-2.15-1.92,3.75-.3,4.32-7.95-5.07s15.74-8.32,15.74-8.32Zm-43.05,.33l-20.54,9.97-7.37,3.12,19.62-10.39,1.22-.4c-.9,.44-1.77,.89-2.62,1.35l-.5,.1-.1,.15,.2-.02c-2.93,1.58-5.67,3.19-8.82,4.7l.3,.25c3.39-1.6,6.21-3.35,9.32-5.07l2.1-.3,.35-.3-1.97,.35c.67-.37,1.34-.73,2.05-1.1l-.18-.13,6.95-2.27h0Zm.55,.17l4.02,6-5.27,11.84-.1,5.8-8.17,4-10.99-17.57s20.51-10.07,20.51-10.07Zm13.82,.2l20.69,12.92-14.72,18.14v-10.39l-7.67-18.07s1.7-2.6,1.7-2.6Zm30.08,1.32l8.42,7.55,.1,15.47-8.29-5.57-.23-17.44Zm-37.28,.9l-1.45,3.52-.2-.08-.15,.15,.28,.12-3.05,7.35-.22-.18-.15,.15,.3,.22-1.25,3.02,.3,.25,1.22-3.07,1.32,.97-.55,1.45,.35,.3,.55-1.5,2.12,1.57-.6,4.72,.35,.1,.55-4.62,.97,.73-.05-.25-.9-.67,.82-7.07-.25,.1-.87,6.75-2.07-1.55,.87-2.4-.35-.2-.87,2.35-1.3-.97,3-7.42,.97,.45,.15-.25-1.05-.42,1.4-3.47s-.2-.15-.2-.15Zm-8.15,.07l-.2,.1,1.55,2.4-7.95,3.7-.92-1.8-.3,.25,.9,1.7-2.92,1.35,.25,.15,2.8-1.3,2.35,4.37c-1.16,.53-2.35,1.01-3.62,1.35l-.5,.3c1.44-.41,2.82-.93,4.2-1.5l2.35,4.37,.2-.05-2.3-4.42c2.28-.96,4.51-2.07,6.72-3.15l-.15-.25c-2.31,.96-4.43,2.21-6.65,3.25l-2.3-4.42,7.97-3.72,1.62,2.52,.25-.25-1.62-2.4,1.27-.6-.15-.15-1.25,.57s-1.6-2.37-1.6-2.37Zm12.32,.38l-.15,.2c1.03,5.54,3.58,10.57,5.7,15.77l-4.82,1.92-1.17-6.57-.25-.05,1.2,6.72-.95,.38v.2l.97-.4,.28,1.5h.25l-.27-1.57,4.85-1.92c.17,.41,.34,.81,.5,1.22l.15-.05c-.16-.41-.32-.82-.47-1.22l.85-.35v-.25l-.95,.38c-2.03-5.25-4.07-10.5-5.7-15.89Zm3.2,.45l-.15,.25c.74,.45,5.94,3.73,9.4,5.92l-2.02,2.75c-.48-.28-1.26-.73-1.42-.82l-.2,.15c.16,.09,1,.56,1.5,.85l-1.32,1.82,.2,.15,1.3-1.85c1.57,.9,2.87,1.62,4.42,2.52l-4.3,4.95,.3,.05,4.17-4.87c.65,.38,1.97,1.12,1.97,1.12l.05-.2s-1.28-.74-1.9-1.1l2.1-2.45-.1-.15-2.17,2.5c-1.52-.89-2.85-1.67-4.42-2.57l1.95-2.8c1.28,.81,3.25,2.07,3.25,2.07l.15-.15s-1.99-1.27-3.27-2.1l.65-.92-.05-.1-.7,.97c-3.47-2.23-8.67-5.58-9.37-6h0Zm-41,.38l6.05,4.57-5.95,3.22s-.1-7.8-.1-7.8Zm90.95,.05l-.1,42.5-10.51,4.45-.4-41.38s11.02-5.57,11.02-5.57Zm-26.79,1.55l1.8,2.02,.1,6.15c-.29,.1-1.32,.46-2.05,.75l-1.8-1.17,.3-4.27s1.65-3.47,1.65-3.47Zm-58.1,4.97l10.52,17.44v26.71l-6.37-4.65,.08-11.45-4.2-10.17-5.25,4.45-.38,10.44-2.77-1.72,.2-27.76,8.17-3.3h0Zm4.2,.05l-.2,.05,6.55,10.77c-.22,.07-.43,.14-.65,.2l-.05,.22c.28-.08,.55-.17,.82-.25l1.72,2.85,.2-.05-1.75-2.85c2.07-.62,4.09-1.39,6.12-2.12l-.1-.2c-2,.68-4.08,1.49-6.12,2.12,0,0-6.55-10.74-6.55-10.74Zm75.49,1.92l-2.35,5.27-.02,9.82c1.77-.79,3.53-1.58,5.29-2.37v-9.74s-2.92-2.97-2.92-2.97Zm.15,.8l2.34,2.55v9.05c-1.25,.54-3.08,1.31-4.32,1.87l-.15-8.67,2.13-4.8Zm-24.09,.27l17.61,12.17,.22,24.69-9.99,4.17v-16.02l-6.77-6.67-5.57,10.24-.05,17.25-10.47,4.14v-31.13s15.02-18.84,15.02-18.84Zm-56.22,3.72c-1.57,.18-2.15,2.29-2.3,3.95,0,2.93,1.53,6.09,3.47,7,1.94,.91,3.5-.82,3.5-3.75s-1.56-6.09-3.5-7c-.31-.12-.59-.19-.85-.2-.11,0-.22-.01-.32,0Zm.5,.6s.07,0,.1,0l.1,2.65c-.47,.35-.72,.78-.77,1.3l-1.77-.97c.14-1.5,.98-2.89,2.35-2.97Zm.42,.05c.08,.01,.17,0,.25,.02,1.04,.49,2.08,2.11,2.65,3.87l-1.67,.05c-.02-.52-.22-.99-.97-1.42l-.25-2.52Zm19.71,1.07l8.52,8.45,.4,40.96-9-6.4,.07-43.01Zm36.43,.47c-2.23,.43-3.97,3.21-3.97,6.12s1.75,4.98,3.97,4.55c2.23-.43,3.97-3.21,3.97-6.12-.06-2.77-1.33-4.34-3.97-4.55Zm-.05,.4c.17,0,.32-.02,.47,0-.01,.85-.19,1.94-.18,2.77-.06-.02-.11-.04-.17-.05-.62,.15-.93,.34-1.15,.62l-1.45-1.3c.67-1.07,1.56-1.87,2.47-2.05Zm.93,.1c1.23,.34,1.97,1.46,2.37,2.72l-1.6,.9c-.13-.41-.47-.66-1.02-.85,0-.82,.23-1.93,.25-2.77Zm-56.97,.8c.72,.79,.76,1.81,.85,2.82,.09,.58-.21,1.07-.4,1.55-.49-.55-.79-1.41-1.07-2.12-.2-.82,.02-1.52,.63-2.25Zm-2.85,.45l1.8,1.03c0,.29,.04,.61,.1,.95,.03,.18,.06,.33,.1,.5l-1.2,1.2c-.47-1.14-.8-2.41-.8-3.52,0-.05,0-.1,0-.15Zm42.35,.63l.37,42.43-10.69,4.4-.33-41.73,10.64-5.1Zm-36.56,.27c.21,.74,.35,1.5,.35,2.2,0,.76-.16,1.42-.4,2l-1.72-1.9c0-.25,0-.53,.03-.87-.08-.5-.02-.94,0-1.35l1.75-.08Zm50.37,.25l1.45,1.22c-.12,.26-.21,.59-.38,.97-.11,.54-.15,1.04-.05,1.5l-1.57,.95c-.16-.5-.28-1.02-.28-1.57,0-1.05,.33-2.14,.82-3.07Zm2.85,.62c1.18,.15,1.19,.95,1.17,1.97-.2,1.12-.73,1.65-1.67,2.1-.83-.56-1.03-1.5-.85-2.4,.15-.92,.66-1.26,1.35-1.67Zm3.27,.08c.1,.37,.18,.74,.22,1.1,0,.78-.18,1.56-.47,2.3l-1.65-.87c.06-.16,.11-.32,.18-.5,.07-.41,.12-.76,.1-1.05,0,0,1.62-.97,1.62-.97Zm-60.17,1.07c.16,.54,.37,.97,.85,1.2l-.3,2.27c-.61-.46-1.18-1.27-1.65-2.25,0,0,1.1-1.22,1.1-1.22Zm19.81,.57l.08,24.49-8.65,5.69,.3-26.56s8.27-3.62,8.27-3.62Zm-17.96,.05l1.6,1.97c-.55,.99-1.44,1.49-2.32,1.2l.2-2.52c.32-.19,.46-.41,.52-.65Zm56.27,1.17l1.65,.95c-.55,1.19-1.42,2.17-2.32,2.62l-.67-2.15c.79-.21,1.07-.7,1.35-1.42Zm-2.9,.5c.18,.37,.47,.73,.97,1.02,.11,0,.2-.03,.3-.05l.42,2.3s-.07,.02-.1,.02c-1.23,.24-2.45-.73-3.1-2.15l1.5-1.15Zm-20.09,2.52l-2.35,5.3-.02,9.82c1.77-.79,3.53-1.61,5.3-2.4v-9.75s-2.92-2.97-2.92-2.97Zm-18.09,.05l-1.92,3.75-.05,6.95c1.44-.54,2.88-1.12,4.32-1.65v-.02h.05l.02-6.87s-2.42-2.15-2.42-2.15Zm-16.97,.08l3.92,9.57-.07,11.02-.45-.33v-10.42l-3.55-9.27-3.97,3.67-.28,10.59-.67-.42,.4-10.22,4.67-4.2Zm24.56,.18l-2.75,3.15-.1,9.15,5.27,2.35,.02-9.22s-2.45-5.42-2.45-5.42Zm-7.37,.22l1.85,2.07,.1,6.25c-.44,.16-2.55,.97-3.9,1.5l.25-6.3,1.7-3.52Zm7.4,.2l2,5.1,.02,8.5-4.65-2,.2-8.77s2.42-2.82,2.42-2.82Zm10.62,.12l2.32,2.35v9.17c-1.25,.54-3.18,1.59-4.42,2.15l-.02-9.04,2.12-4.62h0Zm-35.78,.65l-.3,16.02-3.07-2.17,.27-10.79,3.1-3.05Zm.3,.15l3.15,8.5-.05,9.99-3.17-2.25,.07-16.24Zm57.3,1.9l6.35,6.2-.08,16.04-.38,.18v-16.36l-5.72-5.22-4.82,9.37-.05,16.29-.6,.22,.08-16.97s5.22-9.75,5.22-9.75Zm.3,1.4l5.12,4.97-.05,16.24-4.95,1.9-.13-23.12Zm-.22,.45l.05,22.78-4.42,1.7,.18-15.89s4.2-8.6,4.2-8.6Z"/>
      <path id="path2624" class="cls-2" d="M5.55,66.34l-.22-.05,2.07,2.7,.08-.28-1.92-2.37Z"/>
      <path id="path2626" class="cls-2" d="M5.35,68.69l-.12,.15,1.77,3.15,.38-.05-2.02-3.25Z"/>
      <path id="path2628" class="cls-2" d="M5.12,71.36l-.18,.07,2.37,3.52,.18-.15-2.37-3.45Z"/>
      <path id="path2630" class="cls-2" d="M5.2,74.79l-.12,.18,1.97,2.3,.12-.07-1.97-2.4Z"/>
      <path id="path2632" class="cls-2" d="M6.35,64.44l-.07,.02,1.1,1.8,.15-.12-1.17-1.7Z"/>
      <path id="path2634" class="cls-2" d="M8.5,66.52l.05,.15,1.13-.65-.35-.1-.82,.6Z"/>
      <path id="path2636" class="cls-2" d="M10.07,68.36l-1.47,.62v.22l1.6-.67s-.12-.17-.12-.17Z"/>
      <path id="path2638" class="cls-2" d="M10.99,71.39l-2.35,.55,.12,.28,2.27-.55s-.05-.27-.05-.27Z"/>
      <path id="path2640" class="cls-2" d="M10.84,74.06l-2.3,.73,.13,.2,2.35-.73-.17-.2Z"/>
      <path id="path2642" class="cls-2" d="M11.07,77.19l-2.5,.97v.2l2.55-.95-.05-.22Z"/>
      <path id="path2644" class="cls-2" d="M70.66,71.26l-3.9,3.85,.22,.12,3.75-3.75s-.08-.23-.08-.23Z"/>
      <path id="path2646" class="cls-2" d="M70.46,74.41l-3.82,3.82,.27,.2,3.67-3.87s-.12-.15-.12-.15Z"/>
      <path id="path2648" class="cls-2" d="M70.69,80.08l-4.02,4.68,.22,.22,3.85-4.68-.05-.22Z"/>
      <path id="path2650" class="cls-2" d="M70.31,84.81c-1.25,.73-1.99,1.98-2.9,3.09l.25,.15c.74-1.06,1.83-2.4,2.82-3.22,0,0-.18-.02-.18-.02Z"/>
      <path id="path2652" class="cls-2" d="M68.34,68.66l-1.92,2.12,.22,.15,1.82-2.17s-.12-.1-.12-.1Z"/>
      <path id="path2654" class="cls-2" d="M63.99,70.56l-.22,.02,1.65,.7,.07-.1s-1.5-.62-1.5-.62Z"/>
      <path id="path2656" class="cls-2" d="M62.44,73.91l-.05,.25,2.92,.97,.15-.25s-3.02-.97-3.02-.97Z"/>
      <path id="path2658" class="cls-2" d="M62.04,77.33l-.05,.25,3.35,.87,.1-.27-3.4-.85Z"/>
      <path id="path2660" class="cls-2" d="M62.02,84.65l-.2,.13,3.02,.8,.2-.27s-3.02-.66-3.02-.66Z"/>
      <path id="path2662" class="cls-2" d="M61.79,87.9l.1,.08,2.97,1.05-.02-.25-3.05-.88Z"/>
      <path id="path2744" class="cls-2" d="M62.12,81.46l-.15,.13,3.02,.8,.1-.22s-2.97-.7-2.97-.7Z"/>
      <path id="path2746" class="cls-2" d="M70.59,76.99l-4.12,4.82,.12,.07,4.05-4.72s-.05-.18-.05-.18Z"/>
    </g>
  </g>
</svg>