<?xml version="1.0" encoding="UTF-8"?>
<svg id="Layer_2" data-name="Layer 2" xmlns="http://www.w3.org/2000/svg" xmlns:xlink="http://www.w3.org/1999/xlink" viewBox="0 0 59.45 61.48">
  <defs>
    <style>
      .cls-1 {
        fill: url(#linear-gradient-75);
      }

      .cls-2 {
        fill: url(#linear-gradient-2);
      }

      .cls-3 {
        fill: url(#linear-gradient-51);
      }

      .cls-4 {
        fill: url(#linear-gradient-17);
      }

      .cls-5 {
        fill: url(#linear-gradient-87);
      }

      .cls-6 {
        fill: url(#linear-gradient-93);
      }

      .cls-7 {
        fill: url(#linear-gradient-92);
      }

      .cls-8 {
        fill: url(#linear-gradient-80);
      }

      .cls-9 {
        fill: url(#linear-gradient-43);
      }

      .cls-10 {
        fill: url(#linear-gradient-15);
      }

      .cls-11 {
        fill: url(#linear-gradient-58);
      }

      .cls-12 {
        fill: url(#linear-gradient-69);
      }

      .cls-13 {
        fill: url(#linear-gradient-81);
      }

      .cls-14 {
        fill: url(#linear-gradient-18);
      }

      .cls-15 {
        fill: url(#linear-gradient-56);
      }

      .cls-16 {
        fill: url(#linear-gradient-40);
      }

      .cls-17 {
        fill: url(#linear-gradient-52);
      }

      .cls-18 {
        fill: url(#linear-gradient-28);
      }

      .cls-19 {
        fill: url(#linear-gradient-14);
      }

      .cls-20 {
        fill: url(#linear-gradient-36);
      }

      .cls-21 {
        fill: url(#linear-gradient-78);
      }

      .cls-22 {
        fill: url(#linear-gradient-20);
      }

      .cls-23 {
        fill: url(#linear-gradient-6);
      }

      .cls-24 {
        fill: url(#linear-gradient-53);
      }

      .cls-25 {
        fill: url(#linear-gradient-91);
      }

      .cls-26 {
        fill: url(#linear-gradient-60);
      }

      .cls-27 {
        fill: url(#linear-gradient-84);
      }

      .cls-28 {
        fill: url(#linear-gradient-104);
      }

      .cls-29 {
        fill: url(#linear-gradient-35);
      }

      .cls-30 {
        fill: url(#linear-gradient-48);
      }

      .cls-31 {
        fill: url(#linear-gradient-32);
      }

      .cls-32 {
        fill: url(#linear-gradient-97);
      }

      .cls-33 {
        fill: url(#linear-gradient-11);
      }

      .cls-34 {
        fill: url(#linear-gradient-50);
      }

      .cls-35 {
        fill: url(#linear-gradient-63);
      }

      .cls-36 {
        fill: url(#linear-gradient-67);
      }

      .cls-37 {
        fill: url(#linear-gradient-95);
      }

      .cls-38 {
        fill: url(#linear-gradient-86);
      }

      .cls-39 {
        fill: url(#linear-gradient-39);
      }

      .cls-40 {
        fill: url(#linear-gradient-10);
      }

      .cls-41 {
        fill: url(#linear-gradient-59);
      }

      .cls-42 {
        fill: url(#linear-gradient-49);
      }

      .cls-43 {
        fill: url(#linear-gradient-37);
      }

      .cls-44 {
        fill: url(#linear-gradient-82);
      }

      .cls-45 {
        fill: url(#linear-gradient-16);
      }

      .cls-46 {
        fill: url(#linear-gradient-31);
      }

      .cls-47 {
        fill: url(#linear-gradient-85);
      }

      .cls-48 {
        fill: url(#linear-gradient-61);
      }

      .cls-49 {
        fill: url(#linear-gradient-68);
      }

      .cls-50 {
        fill: url(#linear-gradient-103);
      }

      .cls-51 {
        fill: url(#linear-gradient-62);
      }

      .cls-52 {
        fill: url(#linear-gradient-41);
      }

      .cls-53 {
        fill: url(#linear-gradient-76);
      }

      .cls-54 {
        fill: url(#linear-gradient-98);
      }

      .cls-55 {
        fill: url(#linear-gradient-21);
      }

      .cls-56 {
        fill: url(#linear-gradient-72);
      }

      .cls-57 {
        fill: url(#linear-gradient-25);
      }

      .cls-58 {
        fill: url(#linear-gradient-89);
      }

      .cls-59 {
        fill: url(#linear-gradient-5);
      }

      .cls-60 {
        fill: url(#linear-gradient-64);
      }

      .cls-61 {
        fill: url(#linear-gradient-102);
      }

      .cls-62 {
        fill: url(#linear-gradient-83);
      }

      .cls-63 {
        fill: url(#linear-gradient-54);
      }

      .cls-64 {
        fill: url(#linear-gradient-45);
      }

      .cls-65 {
        fill: url(#linear-gradient-55);
      }

      .cls-66 {
        fill: url(#linear-gradient-34);
      }

      .cls-67 {
        fill: url(#linear-gradient-65);
      }

      .cls-68 {
        fill: url(#linear-gradient-70);
      }

      .cls-69 {
        fill: none;
      }

      .cls-70 {
        fill: url(#linear-gradient-79);
      }

      .cls-71 {
        fill: url(#linear-gradient-88);
      }

      .cls-72 {
        fill: url(#linear-gradient-7);
      }

      .cls-73 {
        fill: url(#linear-gradient-66);
      }

      .cls-74 {
        fill: url(#linear-gradient-96);
      }

      .cls-75 {
        fill: url(#linear-gradient-24);
      }

      .cls-76 {
        fill: url(#linear-gradient-73);
      }

      .cls-77 {
        fill: url(#linear-gradient-100);
      }

      .cls-78 {
        fill: url(#linear-gradient-105);
      }

      .cls-79 {
        fill: url(#linear-gradient-9);
      }

      .cls-80 {
        fill: url(#linear-gradient-22);
      }

      .cls-81 {
        fill: url(#linear-gradient-74);
      }

      .cls-82 {
        fill: url(#linear-gradient-42);
      }

      .cls-83 {
        fill: url(#linear-gradient-99);
      }

      .cls-84 {
        fill: url(#linear-gradient-3);
      }

      .cls-85 {
        fill: url(#linear-gradient);
      }

      .cls-86 {
        fill: url(#linear-gradient-27);
      }

      .cls-87 {
        fill: url(#linear-gradient-33);
      }

      .cls-88 {
        fill: url(#linear-gradient-38);
      }

      .cls-89 {
        fill: url(#linear-gradient-94);
      }

      .cls-90 {
        fill: url(#linear-gradient-29);
      }

      .cls-91 {
        fill: url(#linear-gradient-30);
      }

      .cls-92 {
        fill: url(#linear-gradient-23);
      }

      .cls-93 {
        fill: url(#linear-gradient-19);
      }

      .cls-94 {
        fill: url(#linear-gradient-71);
      }

      .cls-95 {
        fill: url(#linear-gradient-4);
      }

      .cls-96 {
        fill: url(#linear-gradient-77);
      }

      .cls-97 {
        fill: url(#linear-gradient-8);
      }

      .cls-98 {
        fill: url(#linear-gradient-90);
      }

      .cls-99 {
        fill: url(#linear-gradient-44);
      }

      .cls-100 {
        fill: url(#linear-gradient-57);
      }

      .cls-101 {
        fill: url(#linear-gradient-47);
      }

      .cls-102 {
        fill: url(#linear-gradient-46);
      }

      .cls-103 {
        fill: url(#linear-gradient-12);
      }

      .cls-104 {
        fill: url(#linear-gradient-13);
      }

      .cls-105 {
        fill: url(#linear-gradient-26);
      }

      .cls-106 {
        fill: url(#linear-gradient-101);
      }
    </style>
    <linearGradient id="linear-gradient" x1="26.09" y1="65.2" x2="68.79" y2="11.37" gradientUnits="userSpaceOnUse">
      <stop offset="0" stop-color="#1d140e"/>
      <stop offset="1" stop-color="#593f29"/>
    </linearGradient>
    <linearGradient id="linear-gradient-2" x1="24.91" y1="64.34" x2="67.66" y2="10.43" xlink:href="#linear-gradient"/>
    <linearGradient id="linear-gradient-3" x1="12.33" y1="54.36" x2="55.08" y2=".46" xlink:href="#linear-gradient"/>
    <linearGradient id="linear-gradient-4" x1="14.65" y1="44.39" x2="17.04" y2="44.39" gradientUnits="userSpaceOnUse">
      <stop offset="0" stop-color="#593e2b"/>
      <stop offset="1" stop-color="#875831"/>
    </linearGradient>
    <linearGradient id="linear-gradient-5" x1="14.35" y1="45.54" x2="15.02" y2="45.54" xlink:href="#linear-gradient-4"/>
    <linearGradient id="linear-gradient-6" x1="28.2" y1="27.2" x2="22.03" y2="34.74" gradientUnits="userSpaceOnUse">
      <stop offset="0" stop-color="#261a12"/>
      <stop offset="1" stop-color="#54361e"/>
    </linearGradient>
    <linearGradient id="linear-gradient-7" x1="-3.13" y1="19.69" x2="60.89" y2="31.97" gradientUnits="userSpaceOnUse">
      <stop offset="0" stop-color="#8f7c63"/>
      <stop offset=".3" stop-color="#927f66"/>
      <stop offset=".58" stop-color="#9c8971"/>
      <stop offset=".85" stop-color="#ad9a84"/>
      <stop offset="1" stop-color="#b9a692"/>
    </linearGradient>
    <linearGradient id="linear-gradient-8" x1="-3.41" y1="21.17" x2="60.61" y2="33.44" xlink:href="#linear-gradient-7"/>
    <linearGradient id="linear-gradient-9" x1="22.86" y1="22.83" x2="16.69" y2="30.36" xlink:href="#linear-gradient-6"/>
    <linearGradient id="linear-gradient-10" x1="23.88" y1="23.67" x2="17.71" y2="31.2" xlink:href="#linear-gradient-6"/>
    <linearGradient id="linear-gradient-11" x1="19.01" y1="35.93" x2="24.17" y2="35.93" xlink:href="#linear-gradient-4"/>
    <linearGradient id="linear-gradient-12" x1="13.48" y1="32.87" x2="17.01" y2="32.87" xlink:href="#linear-gradient-4"/>
    <linearGradient id="linear-gradient-13" x1="16.06" y1="27.05" x2="19.08" y2="27.05" xlink:href="#linear-gradient-4"/>
    <linearGradient id="linear-gradient-14" x1="19.08" y1="30.93" x2="23.82" y2="30.93" xlink:href="#linear-gradient-4"/>
    <linearGradient id="linear-gradient-15" x1="24.01" y1="36.64" x2="26.81" y2="36.64" gradientUnits="userSpaceOnUse">
      <stop offset="0" stop-color="#b29b7b"/>
      <stop offset=".29" stop-color="#b59e7e"/>
      <stop offset=".56" stop-color="#bea789"/>
      <stop offset=".82" stop-color="#cdb79c"/>
      <stop offset="1" stop-color="#dcc6ae"/>
    </linearGradient>
    <linearGradient id="linear-gradient-16" x1="24.32" y1="32.58" x2="26.5" y2="32.58" xlink:href="#linear-gradient-15"/>
    <linearGradient id="linear-gradient-17" x1="23.07" y1="26.96" x2="25.91" y2="26.96" xlink:href="#linear-gradient-15"/>
    <linearGradient id="linear-gradient-18" x1="16.68" y1="21.24" x2="23.66" y2="21.24" xlink:href="#linear-gradient-15"/>
    <linearGradient id="linear-gradient-19" x1="10.97" y1="19.49" x2="16.5" y2="19.49" xlink:href="#linear-gradient-15"/>
    <linearGradient id="linear-gradient-20" x1="10.23" y1="21.77" x2="12.09" y2="21.77" xlink:href="#linear-gradient-15"/>
    <linearGradient id="linear-gradient-21" x1="10.99" y1="26.33" x2="13.35" y2="26.33" xlink:href="#linear-gradient-15"/>
    <linearGradient id="linear-gradient-22" x1="11.91" y1="30.17" x2="14.08" y2="30.17" xlink:href="#linear-gradient-15"/>
    <linearGradient id="linear-gradient-23" x1="32.06" y1="3.96" x2="38.45" y2="3.96" gradientUnits="userSpaceOnUse">
      <stop offset="0" stop-color="#db9b64"/>
      <stop offset="1" stop-color="#9e896d"/>
    </linearGradient>
    <linearGradient id="linear-gradient-24" x1="45.42" y1="36.11" x2="31.99" y2="11.35" xlink:href="#linear-gradient-15"/>
    <linearGradient id="linear-gradient-25" x1="46.11" y1="29.39" x2="59.02" y2="29.39" xlink:href="#linear-gradient-4"/>
    <linearGradient id="linear-gradient-26" x1="53.66" y1="23.79" x2="23.13" y2="44.04" xlink:href="#linear-gradient-4"/>
    <linearGradient id="linear-gradient-27" x1="52.86" y1="22.6" x2="22.34" y2="42.85" xlink:href="#linear-gradient-4"/>
    <linearGradient id="linear-gradient-28" x1="52.85" y1="22.59" x2="22.33" y2="42.84" xlink:href="#linear-gradient-4"/>
    <linearGradient id="linear-gradient-29" x1="53.68" y1="23.83" x2="23.15" y2="44.08" xlink:href="#linear-gradient-4"/>
    <linearGradient id="linear-gradient-30" x1="54.34" y1="24.82" x2="23.81" y2="45.07" xlink:href="#linear-gradient-4"/>
    <linearGradient id="linear-gradient-31" x1="50.84" y1="25.09" x2="51.96" y2="25.09" xlink:href="#linear-gradient-4"/>
    <linearGradient id="linear-gradient-32" x1="54.5" y1="25.07" x2="23.97" y2="45.32" xlink:href="#linear-gradient-4"/>
    <linearGradient id="linear-gradient-33" x1="53.29" y1="25.43" x2="56.57" y2="25.43" xlink:href="#linear-gradient-4"/>
    <linearGradient id="linear-gradient-34" x1="52.29" y1="25.04" x2="58.21" y2="25.04" xlink:href="#linear-gradient-4"/>
    <linearGradient id="linear-gradient-35" x1="57.01" y1="30.76" x2="58.15" y2="30.76" xlink:href="#linear-gradient-4"/>
    <linearGradient id="linear-gradient-36" x1="55" y1="28.63" x2="57.96" y2="28.63" xlink:href="#linear-gradient-4"/>
    <linearGradient id="linear-gradient-37" x1="51.38" y1="29.46" x2="53.98" y2="29.46" xlink:href="#linear-gradient-4"/>
    <linearGradient id="linear-gradient-38" x1="52.26" y1="29.66" x2="55.18" y2="29.66" xlink:href="#linear-gradient-4"/>
    <linearGradient id="linear-gradient-39" x1="53.75" y1="32.26" x2="56.75" y2="32.26" xlink:href="#linear-gradient-4"/>
    <linearGradient id="linear-gradient-40" x1="52.08" y1="34.17" x2="53.11" y2="34.17" xlink:href="#linear-gradient-4"/>
    <linearGradient id="linear-gradient-41" x1="48.28" y1="33.28" x2="51.28" y2="33.28" xlink:href="#linear-gradient-4"/>
    <linearGradient id="linear-gradient-42" x1="49.97" y1="29.59" x2="52.21" y2="29.59" xlink:href="#linear-gradient-4"/>
    <linearGradient id="linear-gradient-43" x1="49.2" y1="29.55" x2="49.76" y2="29.55" xlink:href="#linear-gradient-4"/>
    <linearGradient id="linear-gradient-44" x1="48.52" y1="31.12" x2="50.25" y2="31.12" xlink:href="#linear-gradient-4"/>
    <linearGradient id="linear-gradient-45" x1="47.92" y1="27.46" x2="51.01" y2="27.46" xlink:href="#linear-gradient-4"/>
    <linearGradient id="linear-gradient-46" x1="53.74" y1="23.92" x2="23.21" y2="44.17" xlink:href="#linear-gradient-4"/>
    <linearGradient id="linear-gradient-47" x1="54.53" y1="25.11" x2="24" y2="45.36" xlink:href="#linear-gradient-4"/>
    <linearGradient id="linear-gradient-48" x1="47.14" y1="30.57" x2="50.55" y2="30.57" xlink:href="#linear-gradient-4"/>
    <linearGradient id="linear-gradient-49" x1="45.05" y1="29.59" x2="52.91" y2="29.59" xlink:href="#linear-gradient-4"/>
    <linearGradient id="linear-gradient-50" x1="52.96" y1="22.75" x2="22.43" y2="43" xlink:href="#linear-gradient-4"/>
    <linearGradient id="linear-gradient-51" x1="53.75" y1="23.94" x2="23.23" y2="44.19" xlink:href="#linear-gradient-4"/>
    <linearGradient id="linear-gradient-52" x1="54.61" y1="25.23" x2="24.08" y2="45.48" xlink:href="#linear-gradient-4"/>
    <linearGradient id="linear-gradient-53" x1="25.74" y1="42.85" x2="38.65" y2="42.85" xlink:href="#linear-gradient-4"/>
    <linearGradient id="linear-gradient-54" x1="24.68" y1="43.05" x2="32.54" y2="43.05" xlink:href="#linear-gradient-4"/>
    <linearGradient id="linear-gradient-55" x1="53.08" y1="22.93" x2="22.55" y2="43.18" xlink:href="#linear-gradient-4"/>
    <linearGradient id="linear-gradient-56" x1="53.9" y1="24.17" x2="23.38" y2="44.42" xlink:href="#linear-gradient-4"/>
    <linearGradient id="linear-gradient-57" x1="54.8" y1="25.52" x2="24.27" y2="45.77" xlink:href="#linear-gradient-4"/>
    <linearGradient id="linear-gradient-58" x1="15.91" y1="39.84" x2="17.96" y2="36.67" xlink:href="#linear-gradient-4"/>
    <linearGradient id="linear-gradient-59" x1="15.49" y1="39.57" x2="17.54" y2="36.4" xlink:href="#linear-gradient-4"/>
    <linearGradient id="linear-gradient-60" x1="14.82" y1="39.14" x2="16.86" y2="35.97" xlink:href="#linear-gradient-4"/>
    <linearGradient id="linear-gradient-61" x1="13.86" y1="43.24" x2="14.95" y2="40" xlink:href="#linear-gradient-4"/>
    <linearGradient id="linear-gradient-62" x1="15.08" y1="43.65" x2="16.17" y2="40.41" xlink:href="#linear-gradient-4"/>
    <linearGradient id="linear-gradient-63" x1="16.51" y1="44.13" x2="17.6" y2="40.9" xlink:href="#linear-gradient-4"/>
    <linearGradient id="linear-gradient-64" x1="9.39" y1="31.77" x2="11.99" y2="31.77" xlink:href="#linear-gradient-4"/>
    <linearGradient id="linear-gradient-65" x1="7.74" y1="31.83" x2="11.79" y2="31.83" xlink:href="#linear-gradient-4"/>
    <linearGradient id="linear-gradient-66" x1="10.39" y1="41.93" x2="11.94" y2="41.93" xlink:href="#linear-gradient-4"/>
    <linearGradient id="linear-gradient-67" x1="8.23" y1="40.97" x2="12.51" y2="40.97" xlink:href="#linear-gradient-4"/>
    <linearGradient id="linear-gradient-68" x1="7.17" y1="40.53" x2="11.81" y2="40.53" xlink:href="#linear-gradient-4"/>
    <linearGradient id="linear-gradient-69" x1="11.56" y1="59.18" x2="12.59" y2="59.18" xlink:href="#linear-gradient-4"/>
    <linearGradient id="linear-gradient-70" x1="7.88" y1="57.19" x2="12.51" y2="57.19" xlink:href="#linear-gradient-4"/>
    <linearGradient id="linear-gradient-71" x1="4.32" y1="52.04" x2="15.55" y2="52.04" xlink:href="#linear-gradient-4"/>
    <linearGradient id="linear-gradient-72" x1="6.85" y1="58.31" x2="12" y2="58.31" xlink:href="#linear-gradient-4"/>
    <linearGradient id="linear-gradient-73" x1="2.73" y1="51.75" x2="15.02" y2="51.75" xlink:href="#linear-gradient-4"/>
    <linearGradient id="linear-gradient-74" x1="1.74" y1="54.37" x2="6.04" y2="54.37" xlink:href="#linear-gradient-4"/>
    <linearGradient id="linear-gradient-75" x1=".33" y1="55.45" x2="5.72" y2="55.45" xlink:href="#linear-gradient-4"/>
    <linearGradient id="linear-gradient-76" x1="16.27" y1="57.53" x2="59.05" y2="3.59" xlink:href="#linear-gradient"/>
    <linearGradient id="linear-gradient-77" x1="44.69" y1="18.06" x2="49.95" y2="18.06" xlink:href="#linear-gradient-23"/>
    <linearGradient id="linear-gradient-78" x1="18.96" y1="59.62" x2="61.71" y2="5.72" xlink:href="#linear-gradient"/>
    <linearGradient id="linear-gradient-79" x1="32.92" y1="38.89" x2="36.2" y2="38.89" xlink:href="#linear-gradient-4"/>
    <linearGradient id="linear-gradient-80" x1="54.74" y1="25.43" x2="24.21" y2="45.68" xlink:href="#linear-gradient-4"/>
    <linearGradient id="linear-gradient-81" x1="53.87" y1="24.12" x2="23.34" y2="44.37" xlink:href="#linear-gradient-4"/>
    <linearGradient id="linear-gradient-82" x1="30.47" y1="38.55" x2="31.59" y2="38.55" xlink:href="#linear-gradient-4"/>
    <linearGradient id="linear-gradient-83" x1="54.43" y1="24.96" x2="23.9" y2="45.21" xlink:href="#linear-gradient-4"/>
    <linearGradient id="linear-gradient-84" x1="27.55" y1="40.92" x2="30.64" y2="40.92" xlink:href="#linear-gradient-4"/>
    <linearGradient id="linear-gradient-85" x1="53.85" y1="24.08" x2="23.32" y2="44.33" xlink:href="#linear-gradient-4"/>
    <linearGradient id="linear-gradient-86" x1="53.05" y1="22.88" x2="22.52" y2="43.13" xlink:href="#linear-gradient-4"/>
    <linearGradient id="linear-gradient-87" x1="53.39" y1="23.39" x2="22.86" y2="43.64" xlink:href="#linear-gradient-4"/>
    <linearGradient id="linear-gradient-88" x1="53.02" y1="22.84" x2="22.49" y2="43.09" xlink:href="#linear-gradient-4"/>
    <linearGradient id="linear-gradient-89" x1="53.83" y1="24.05" x2="23.3" y2="44.3" xlink:href="#linear-gradient-4"/>
    <linearGradient id="linear-gradient-90" x1="54.67" y1="25.33" x2="24.14" y2="45.58" xlink:href="#linear-gradient-4"/>
    <linearGradient id="linear-gradient-91" x1="55.03" y1="25.87" x2="24.5" y2="46.12" xlink:href="#linear-gradient-4"/>
    <linearGradient id="linear-gradient-92" x1="31.92" y1="38.5" x2="37.84" y2="38.5" xlink:href="#linear-gradient-4"/>
    <linearGradient id="linear-gradient-93" x1="36.64" y1="44.22" x2="37.78" y2="44.22" xlink:href="#linear-gradient-4"/>
    <linearGradient id="linear-gradient-94" x1="34.63" y1="42.09" x2="37.58" y2="42.09" xlink:href="#linear-gradient-4"/>
    <linearGradient id="linear-gradient-95" x1="31.88" y1="43.12" x2="34.81" y2="43.12" xlink:href="#linear-gradient-4"/>
    <linearGradient id="linear-gradient-96" x1="31.01" y1="42.92" x2="33.61" y2="42.92" xlink:href="#linear-gradient-4"/>
    <linearGradient id="linear-gradient-97" x1="33.38" y1="45.72" x2="36.38" y2="45.72" xlink:href="#linear-gradient-4"/>
    <linearGradient id="linear-gradient-98" x1="31.7" y1="47.63" x2="32.74" y2="47.63" xlink:href="#linear-gradient-4"/>
    <linearGradient id="linear-gradient-99" x1="27.91" y1="46.74" x2="30.91" y2="46.74" xlink:href="#linear-gradient-4"/>
    <linearGradient id="linear-gradient-100" x1="29.59" y1="43.05" x2="31.83" y2="43.05" xlink:href="#linear-gradient-4"/>
    <linearGradient id="linear-gradient-101" x1="28.32" y1="44.55" x2="29.85" y2="44.55" xlink:href="#linear-gradient-4"/>
    <linearGradient id="linear-gradient-102" x1="26.77" y1="44.03" x2="30.17" y2="44.03" xlink:href="#linear-gradient-4"/>
    <linearGradient id="linear-gradient-103" x1="8.12" y1="51" x2="50.85" y2="-2.88" xlink:href="#linear-gradient"/>
    <linearGradient id="linear-gradient-104" x1="28.32" y1="21.33" x2="34.67" y2="21.33" xlink:href="#linear-gradient-23"/>
    <linearGradient id="linear-gradient-105" x1="20.09" y1="60.55" x2="62.88" y2="6.6" xlink:href="#linear-gradient"/>
  </defs>
  <g id="Layer_2-2" data-name="Layer 2">
    <g>
      <path class="cls-69" d="M15.68,43.29l-.28,.49c.21-.09,.41-.2,.61-.31l-.33-.18Z"/>
      <path class="cls-69" d="M9.28,38.48c0,.07,0,.15,.02,.21l.1-.02-.11-.2Z"/>
      <path class="cls-69" d="M13.73,42.25l-1.51-.79-.98,1.66c.41,.38,.9,.67,1.46,.84l1.03-1.71Z"/>
      <path class="cls-69" d="M9.57,38.97l-.23,.07c.15,1.02,.46,2.01,.94,2.86,.27-.35,.52-.69,.77-1.03l-.49-.26-.98-1.63Z"/>
      <path class="cls-69" d="M36.36,38.69l-1.43,1-1.26,1.54c.14,.24,.25,.48,.31,.72l2.94-.69c0-.11,0-.22-.02-.36-.07-.82-.22-1.55-.54-2.22Z"/>
      <path class="cls-69" d="M12.2,31.9l-.13-.69c-.44,.42-.83,.89-1.17,1.4l1.3-.71Z"/>
      <path class="cls-69" d="M52.7,27.28c.11,0,.22,0,.38,.03l2.13-3.89c-.62-.36-1.27-.73-2.06-.9l-.45,4.76Z"/>
      <path class="cls-69" d="M56.49,24.79l-2.44,2.99c.14,.24,.25,.48,.31,.72l2.94-.69c0-.11,.01-.22-.02-.36-.08-1-.28-1.88-.79-2.66Z"/>
      <path class="cls-69" d="M47.91,31.42l-.67,.18c.15,1.02,.46,2.01,.94,2.86,.74-.96,1.38-1.87,2.03-2.84l-2.3-.2Z"/>
      <path class="cls-69" d="M55.38,29.53c-.08,.51-.13,.83-.58,1.21l-.31,.02,2.33,1.87c.35-.99,.54-2.07,.57-3.14l-2.02,.03Z"/>
      <path class="cls-69" d="M51.44,31.78l-2.32,3.91c.71,.65,1.61,1.03,2.76,.98l-.06-4.92c-.12,.01-.26,.02-.38,.03Z"/>
      <path class="cls-69" d="M52.96,31.57l.33,4.78c1.2-.54,2.18-1.38,2.94-2.38l-2.66-2.82c-.19,.18-.4,.34-.61,.43Z"/>
      <path class="cls-69" d="M27.71,44.83l-.85,.23c.15,1.02,.46,2.01,.94,2.86,.75-.98,1.4-1.9,2.07-2.89l-2.15-.2Z"/>
      <path class="cls-69" d="M31.06,45.24l-2.31,3.91c.71,.65,1.61,1.03,2.76,.99l-.07-4.93c-.12,.01-.25,.02-.38,.03Z"/>
      <path class="cls-69" d="M32.59,45.03l.33,4.78c1.21-.54,2.18-1.38,2.94-2.38l-2.66-2.82c-.19,.18-.4,.34-.61,.43Z"/>
      <path class="cls-69" d="M35,42.99c-.08,.51-.13,.83-.57,1.22l-.31,.02,2.33,1.87c.35-.99,.54-2.07,.57-3.14l-2.02,.03Z"/>
      <path class="cls-85" d="M54.52,30.22l-.25-.02c-.68-.46-.41-.97-.03-1.31l.22,.02c-.14,.41-.35,.82,.06,1.31Z"/>
      <path class="cls-2" d="M53.32,21.78c-.23,.01-.46,.03-.7,.07-4.04,1.26-5.57,4.99-5.81,8.93,.03,3.67,1.94,6.72,5.85,6.17,4.04-1.26,5.62-5.21,5.87-9.16-.03-3.45-1.75-6.14-5.21-6.01Zm1.68,6.85l2.77-.64c.2,.15,.34,.81-.11,1.21l-2.34,.07c-.05-.26-.16-.48-.32-.64Zm.18,.88c.03,.24-.15,.71-.38,.97l-2.25,.1c-.21-.28-.29-.72-.29-.93,0-.23,.14-.64,.39-.86l2.13-.06c.13,.09,.36,.54,.4,.78Zm2.11-1.7l-2.93,.69c-.07-.25-.18-.49-.31-.73l2.44-2.98c.5,.77,.71,1.66,.79,2.66,.02,.14,.02,.24,.01,.36Zm-.77-3.48l-2.63,3.28c-.21-.14-.41-.24-.6-.28,.82-1.33,1.5-2.87,2.44-4.07,.47-.11,1.01,.8,.79,1.07Zm-3.45,2.99c-.16-.04-.27-.03-.37-.04l.44-4.76c.8,.18,1.45,.54,2.07,.9l-2.14,3.9Zm-.54-.05c-.11,0-.21,.03-.34,.05,0-.57,0-1.08-.02-1.6l.41-.28-.09,1.78,.04,.05Zm-.36-1.6c-.01-.57-.03-1.16-.05-1.74l.58-.39-.12,1.85-.41,.28Zm.53-2.28l-.58,.4c-.01-.45-.04-.88-.04-1.37,.12,0,.24-.02,.35-.01,.11,0,.23,.02,.33,.03l-.06,.95Zm-.89-.95c.04,1.64,.11,3.39,.15,5.02,.05,.15-.68,.47-.62,.1l-.5-4.55c.31-.21,.63-.4,.97-.57Zm-.71,5.02c-.23-.09-.3,.16-.45,.23l-.56-.52,.92-.63,.09,.92Zm-.11-1l-.95,.67-1.1-1.05,1.87-1.24,.18,1.62Zm-.97-2.77c.14-.12,.49-.31,.64-.43l.13,1.44-1.93,1.32-.38-.36c.45-.8,.85-1.37,1.54-1.97Zm-1.64,2.13l2.63,2.48c-.02,.41-.02,.8-.39,.79l-2.7-2.28c.14-.34,.29-.67,.46-.99Zm-.56,1.25l1.04,.85-1.55,1.05c.12-.65,.29-1.29,.51-1.9Zm-.52,2l1.6-1.1,.99,.81c-.05,.1-.08,.2-.1,.31l-1,.69-1.61,.13c.03-.28,.07-.56,.12-.84Zm2.46,.28c-.01,.12-.01,.23-.02,.35l-.54,.04,.56-.39Zm-2.61,.77l3.22-.24c.2,.18,.26,.38,.03,.57l-3.22,.81c-.06-.35-.04-.79-.03-1.14Zm2.8,.72c.08,.16,.17,.34,.3,.55l-1.73-.15,1.43-.4Zm-2.72,.76l.68-.18,2.29,.2c-.65,.97-1.29,1.87-2.03,2.84-.48-.85-.79-1.84-.94-2.86Zm1.05,3.07c.88-1.04,1.66-2.3,2.43-3.41,.08-.11,.16-.15,.25-.15,.24-.01,.45,.35,.23,.52l-2.32,3.83c-.21-.24-.41-.51-.59-.79Zm.84,1.02l2.32-3.91c.12-.01,.25-.02,.37-.03l.07,4.92c-1.15,.04-2.05-.34-2.76-.98Zm2.39-4.07c.11-.52-.58-.63-.81-.71-.09,.14-.18,.26-.27,.39-.11-.16-.2-.34-.28-.52l.48-.13c.27-.42,.05-.78-.13-.99l-.52,.04c-.04-.2,.02-.37,.07-.55l.17-.11,.48,.39c.28-.21,.58-.61,.47-1.23l-.43-.39,.36-.25,.04,.23c.31,.47,.68,.1,.9-.16h.17c-.24,.17-.47,.4-.7,.67-.58,1.01-.62,2.05,0,3.02,.15,.11,.28,.19,.42,.25l-.42,.05Zm.2-.46c-.55-.79-.34-2.04,.05-2.86,.25-.34,.61-.68,.96-.72,.34-.05,.79,.18,1.13,.38,.11,.16,.08,.37,.13,.55l-1.46-.03c-.39,.31-.61,.7-.61,1.12s.19,.82,.51,1.21l1.15-.03-.03,.02c-.5,.52-1.21,.72-1.83,.36Zm.95,5.43c-.18,.03-.36,.05-.54,.07l-.04-4.95c.2-.01,.4-.03,.6-.04l.43,4.74c-.15,.06-.29,.13-.45,.18Zm.63-.25l-.33-4.77c.21-.09,.41-.25,.61-.43l2.66,2.82c-.76,1-1.74,1.84-2.94,2.38Zm3.05-2.59l-2.59-2.77c.06-.07,.12-.13,.18-.2l.39-.02,2.43,2.09c-.11,.31-.26,.61-.41,.9Zm-1.85-2.99h.31c.44-.4,.5-.72,.58-1.23l2.01-.03c-.03,1.07-.22,2.14-.57,3.13l-2.33-1.87Zm2.52,1.96c.31-1.05,.48-2.13,.56-3.22h.33c.12-.19,.2-.45,.25-.71-.14,1.39-.51,2.73-1.14,3.93Zm.92-5.06l-.31,.07v-.37c-.08-1.01-.45-1.93-1-2.74l.28-.34c.06-.45-.85-1.49-1.45-1.31l-.14,.27c-.86-.78-1.91-.94-3.02-1.01,.33-.18,.68-.19,1.05-.23,3.27-.2,4.68,2.99,4.87,5.97,0,.04,0,.08,0,.12-.03-.25-.12-.43-.27-.43Z"/>
      <path class="cls-84" d="M57.49,22.06c-1.17-1.11-2.42-1.52-3.64-1.49-.31-.04-.6-.07-.87-.1l-1.58-12.51C48.78,4.57,45.03-.02,40.37,0c-.48,0-.98,.06-1.48,.16-1.24,.37-2.34,1.22-3.23,2.58-.66,2.14-2.88,3.67-4.53,5.24-1.54,1.12-3.17,2.19-4.8,3.15-5.13,3.03-10.75,5.72-14.26,7.3-1.81,1.25-1.46,1.25-2.1,1.96l1.67,8.6c-.28,.22-.56,.45-.85,.71-1.47,1.27-2.59,2.84-3.3,4.79l-.43,.23,.04,.05-.14-.07,.32,.51c-.64,2.46-.38,4.88,.29,7.32,.78,1.73,1.92,2.78,4.01,3.27l-5.45,8.98-3.45-1.59-1.41,.19-1.27,2.12,4.29,1.94-2.02,3.1,1.74,.94,1-.5,1.72-2.49,4.52,1.7,.82-.11,.84-1.86-4.6-2.36,5.93-10.03c1.13-.31,2.17-.9,3.03-1.64,.02,0,.03-.03,.05-.05l6.4,3.37,.94-.66c-.13,.38,.28,1.21,.43,1.71,.95,2.12,2.44,3.21,5.56,3.51,1.56-.16,3-.88,4.14-1.86,.88-.66,1.67-1.48,2.33-2.38,1.95-3.17,2.64-7.12,1.12-10.45l6.71-4.68c.12,.8,.29,1.59,.51,2.4,.95,2.12,2.45,3.21,5.57,3.51,1.56-.16,3-.88,4.13-1.86,.88-.66,1.67-1.49,2.33-2.38,2.33-3.78,2.88-8.68,0-12.31ZM36.23,2.3c.65-.76,1.45-1.31,2.22-1.64-.2,.36-.48,.77-.8,1.18-.27,.01-.58-.04-.87-.05,.18,.04,.42,.14,.7,.24-.32,.4-.66,.81-1.05,1.22l-.41-.02c.12,.03,.22,.07,.33,.1-.42,.45-.88,.89-1.35,1.33l-.15,.03s.07,.03,.1,.04c-.95,.9-1.96,1.77-2.89,2.52,1.27-1.22,3.51-2.96,4.17-4.95Zm-9.83,8.88c1.68-.99,3.35-2.09,4.94-3.24,.44-.17,.74-.5,1.09-.78,1-.77,1.93-1.57,2.79-2.37,.32,.13,.7,.38,1.06,.61l-.05-.16-.9-.55c.45-.42,.88-.84,1.28-1.28,.93,.36,1.47,.9,2.22,1.35v-.12c-.86-.69-1.53-1.11-2.1-1.36,.35-.39,.67-.77,.96-1.16,1.37,.57,3.48,1.72,4.65,2.46l.02-.03c-1.5-1.05-2.99-1.98-4.48-2.68,.32-.44,.61-.89,.85-1.33,.54-.22,1.14-.23,1.72-.25,.2,0,.41,.02,.61,.04h.05c.19,.02,.38,.05,.57,.09,.4,.08,.8,.19,1.19,.33,.26,.1,.52,.2,.77,.32s.5,.25,.75,.39c.09,.05,.18,.11,.26,.16,.09,.05,.18,.11,.27,.17,.13,.08,.26,.17,.39,.26,.17,.12,.35,.24,.52,.37,.23,.18,.46,.36,.69,.55,1.8,1.52,3.37,3.43,4.65,5.02l1.48,12.45c-.09,0-.21-.02-.28-.02-1.6,.05-2.54,.84-3.69,1.84-1.31,1.14-2.34,2.5-3.06,4.17-3.19,2.25-8.03,5.43-11.23,7.66-.3-.05-.61-.07-.91-.06-.57-.08-1.16-.16-1.48-.15-1.6,.06-2.55,.84-3.7,1.84-.43,.37-.81,.79-1.18,1.21l-1.41-11.31c-2.09-3.33-5.11-5.66-8.52-7.53-.89-.39-1.82-.47-2.77-.41,3.31-1.58,7.41-3.8,11.98-6.5Zm-14.31,9.75c1.86,.76,2.89-.04,3.8-1.12l.66,8.26-2.18,1.56c-.16-.45-.47-.92-.87-1.46,.3-1.86-.09-3.07-1.46-4.3,.84-.82,.31-2.12,.05-2.94Zm9.83,3c.28,.09,.58,.16,.89,.22-.26,1.31-.03,2.52,.44,3.66-1.36,1.51-2.77,2.74-4.19,3.95l-.42-5.07,3.28-2.76Zm-3.32,2.35l-.41-4.92c.95,1.13,2.05,1.99,3.45,2.48l-3.04,2.44Zm4.71,1.71c.15,.34,.33,.67,.51,1l-4.58,4.88-.16-1.78c1.44-1.15,2.87-2.75,4.23-4.1Zm-4.05,6.33l4.51,2.4h.02c.07,.24,.19,.52,.38,.82l-5.16-2.51c.24-.21,.22-.5,.25-.71Zm4.48,2.06l-4.32-2.19,4.49-5.05c.21,.36,.44,.72,.68,1.06-.47,1.27-.8,2.73,.05,4.49-.63,.61-.93,1.12-.9,1.69Zm.97-6.06l1.21-.03,.58,4.58-1.66-.25c-.73-1.28-.61-2.82-.13-4.3Zm.07-.23c-1.21-1.78-1.9-3.81-1.66-6.07l.69-.22c.52,.61,1.04,1.23,1.54,1.92l.56,4.4-1.13-.03Zm-1.74-6.12c-2.8-1.02-4.82-2.55-6.36-5.08l.05-.39c.09,.03,.19,.05,.28,.08,2.08,.78,4.44,2.53,6.65,5.04l-.62,.35Zm-5.03-2.73l1.07,13.43c-.62,.54-1.63,.54-1.86-.44l-1.16-14.58c.19-.24,.34-.34,.52-.59,.31,.63,1.01,1.61,1.43,2.18Zm-3.54,8.75l2.11-1.53,.36,4.68-2.95-1.49c.45-.6,.57-1.12,.48-1.66Zm2.51,3.58l.03,.39-3.53-1.74c.15-.15,.26-.3,.38-.44l3.12,1.79Zm-3.76-1.48l-.72-.36h-.02l-.57-2.86,1.49-.62c.94,1.4,.94,2.65-.18,3.84Zm-1.02-.19l-1.3,.7c.34-.51,.73-.97,1.17-1.39l.13,.69Zm-.21-1.09c-.69,.61-1.24,1.32-1.68,2.12l-.92,.51c.21-.46,.42-.9,.66-1.33,.5-.76,1.12-1.45,1.81-2.02l.13,.72Zm-.99,1.99l.04,.11,14.1,7.24c-.03,.08-.06,.16-.09,.23-.42,.29-.92,.61-1.41,.92l-14.59-7.37,1.95-1.13Zm14.07,7.25l-14.03-7.27,1.41-.82,4.53,2.28c.09,.52,.93,1.24,1.74,.87l7.12,3.6c-.26,.45-.48,.92-.69,1.43l-.08-.09Zm-.52-2.33c-1.18-1.27-.13-1.97,.24-2.89l1.76,.35,.26,2.1c-.29,.37-.55,.76-.8,1.16l-1.46-.72ZM14.7,18.07c.61,.01,1.19,.17,1.8,.36l-.03,.55c-1.31,1.99-2.9,2.18-4.6,1.72l-.9-1.25c.95-.96,2.33-1.4,3.73-1.38Zm-4.47,2.4c.16-.31,.35-.59,.58-.84l.9,1.04c.33,1.13,.56,1.99,.18,3.13l-.97,.1-.69-3.43Zm.76,3.76l.96-.26c1.27,1.11,1.26,2.68,1.4,4.22l-1.48,.49-.88-4.45Zm.09,5.55c.2-.17,.4-.33,.61-.48l.1,.51c-.73,.6-1.39,1.31-1.95,2.07-.36,.58-.67,1.19-.94,1.82l-1.16,.66c.72-1.83,2.01-3.42,3.34-4.58Zm-2.13,4.22h0s14.59,7.37,14.59,7.37c-.5,.32-1,.64-1.44,.93l-14.73-7.38,1.58-.92Zm14,11.42l-12.83-6.2-1.32-2.07,13.68,6.78,.47,1.49Zm-.03-1.59l1.58-1.07c-.07,.62-.09,1.23-.07,1.84l-1.07,.74-.44-1.51Zm-14.58-6.88l.59,.99c0,.09-.01,.18-.01,.28,.02,2.86,1.21,5.35,3.59,6.04l-.44,.72c-.67-.23-1.33-.61-1.94-1.2-1.69-2.01-2.13-4.43-1.79-6.83Zm-.62-1.54c4.56,2.34,9.74,5,14.35,7.24l.37,1.16-13.74-6.84-.98-1.56Zm1.56,3.07l.11,.19-.09,.02c-.02-.06-.02-.14-.02-.21Zm1.95,4.64l.99-1.65,1.51,.78-1.04,1.71c-.55-.16-1.04-.46-1.46-.84Zm-.24-.23c-.22-.23-.42-.5-.6-.78,.31-.36,.6-.74,.88-1.14l.67,.35-.95,1.57Zm-.71-1c-.48-.84-.78-1.83-.94-2.85l.23-.07,.99,1.63,.49,.26c-.25,.34-.5,.68-.77,1.03Zm-2.28,.56c-.81-1.8-1.08-4.38-.58-6.99l.66,1.05c-.47,2.67-.04,5.42,1.76,7.68,.63,.6,1.3,.99,1.97,1.23l-.12,.18c-1.64-.44-2.68-1.43-3.69-3.15Zm-5.37,10.97l3.41,1.51-.24,.39-4.06-1.74,.89-.16Zm-2.3,2.02l1.09-1.78,4.3,1.86-1.27,1.72-4.12-1.8Zm3.61,5.63l-1.21-.63,1.95-3.1,1.3-1.92,8.04-13,1,.52-6.4,11.31-4.68,6.82Zm7.24-1.09l-4.33-1.82,.98-1.53,4.17,2.02-.82,1.33Zm.79-.16l-.41,.08,.74-1.33,.29-.11-.62,1.36Zm.54-1.56l-.23,.1-4.4-1.84,.28-.51,4.35,2.25Zm-4.17-2.74l-2.18,3.53-1.26,1.74-.58,.21,1.48-2.21,2.33-3.34,7.16-12.38,.26,.14-.16,.27c-2.35,4.02-3.41,6.48-7.05,12.04Zm7.34-12.23l.33,.18c-.2,.11-.4,.22-.61,.31l.28-.49Zm-1.33,2.36l.02-.06c.22-.05,.44-.1,.65-.17-.22,.09-.44,.17-.67,.23Zm.3-.54l.47-.85c.46-.17,.89-.36,1.28-.59l.64,.32c-.75,.54-1.56,.93-2.39,1.12Zm-3.8-4.7l-.67-1.08,12.82,6.26,.48,1.46-12.63-6.64Zm13.01,6.57l-.46-1.54,1.03-.71c.03,.57,.1,1.15,.2,1.73l-.77,.52Zm.64-4.3l-1.63,1-.38-1.26c.84-.55,1.57-1.02,2.38-1.51-.17,.59-.3,1.18-.37,1.77Zm6.14,9.19c-2.55-.21-3.84-1.22-5.13-3.4-.87-1.95-1.13-4.85-.42-7.69,.68-2,2.08-3.73,3.51-4.98,1-.87,2.21-1.45,3.58-1.57-1.85,.52-3.58,1.99-4.83,3.67-2.32,3.79-2.88,8.69,0,12.31,1.67,1.58,3.49,1.8,5.19,1.24-.59,.25-1.2,.37-1.9,.42Zm6.17-4.18c-2.11,3.18-6.19,5.02-9.16,2.11-2.89-3.42-2.15-8.06-.08-11.67,1.33-2.03,3.47-3.57,5.66-3.67,.15-.01,.28-.01,.43,0,1.06,.04,2.14,.43,3.12,1.28,2.86,3.42,2.09,8.35,.03,11.95Zm1.31-10.56c-.21-.43-.46-.85-.75-1.26l7.43-5.09c.01,.55,.05,1.11,.12,1.66l-6.8,4.69Zm6.68-6.43l-7.48,5.1c-.07-.09-.13-.19-.2-.28-.31-.29-.62-.53-.94-.74l8.75-5.94c-.09,.62-.13,1.24-.13,1.86Zm-8.75,4c-.37-.22-.76-.38-1.15-.49,3.14-2.16,7.44-5.02,10.48-7.17-.04,.08-.07,.17-.1,.26-.14,.46-.24,.92-.31,1.38l-8.92,6.02Zm14.96,3.71c-2.55-.21-3.84-1.22-5.12-3.4-.88-1.95-1.14-4.85-.43-7.69,.68-2,2.08-3.73,3.51-4.98,1-.87,2.21-1.45,3.58-1.57-1.85,.52-3.58,1.99-4.82,3.67-2.33,3.79-2.89,8.69,0,12.31,1.67,1.58,3.49,1.8,5.18,1.24-.59,.24-1.2,.37-1.9,.42Zm6.17-4.18c-2.1,3.17-6.19,5.02-9.16,2.11-2.89-3.42-2.15-8.06-.08-11.67,1.34-2.03,3.46-3.57,5.64-3.67,.15-.01,.3-.01,.45,0,1.06,.04,2.14,.43,3.12,1.28,2.86,3.42,2.09,8.35,.03,11.95Z"/>
      <path class="cls-95" d="M17.04,43.99c-.75,.54-1.56,.93-2.39,1.12l.47-.85c.46-.17,.89-.36,1.28-.59l.64,.32Z"/>
      <path class="cls-59" d="M15.02,45.42c-.22,.09-.44,.17-.67,.23l.02-.06c.22-.05,.44-.1,.65-.17Z"/>
      <path class="cls-23" d="M24.64,34.69c-.63,.61-.93,1.12-.9,1.69l-4.32-2.19,4.49-5.05c.21,.36,.44,.72,.68,1.06-.47,1.27-.8,2.73,.05,4.49Z"/>
      <path class="cls-72" d="M21.64,23.84l-3.04,2.44-.41-4.92c.95,1.13,2.05,1.99,3.45,2.48Z"/>
      <path class="cls-97" d="M16.55,28.07l-2.18,1.56c-.16-.45-.47-.92-.87-1.46,.3-1.86-.09-3.07-1.46-4.3,.84-.82,.31-2.12,.05-2.94,1.86,.76,2.89-.04,3.8-1.12l.66,8.26Z"/>
      <path class="cls-79" d="M13.99,31.65c.45-.6,.57-1.12,.48-1.66l2.11-1.53,.36,4.68-2.95-1.49Z"/>
      <path class="cls-40" d="M23.25,27.81c-1.36,1.51-2.77,2.74-4.19,3.95l-.42-5.07,3.28-2.76c.28,.09,.58,.16,.89,.22-.26,1.31-.03,2.52,.44,3.66Z"/>
      <path class="cls-33" d="M24.17,37.54l-5.16-2.51c.24-.21,.22-.5,.25-.71l4.51,2.4h.02c.07,.24,.19,.52,.38,.82Z"/>
      <path class="cls-103" d="M17.01,33.96l-3.53-1.74c.15-.15,.26-.3,.38-.44l3.12,1.79,.03,.39Z"/>
      <path class="cls-104" d="M19.08,34.67c-.62,.54-1.63,.54-1.86-.44l-1.16-14.58c.19-.24,.34-.34,.52-.59,.31,.63,1.01,1.61,1.43,2.18l1.07,13.43Z"/>
      <path class="cls-19" d="M23.82,28.99l-4.58,4.88-.16-1.78c1.44-1.15,2.87-2.75,4.23-4.1,.15,.34,.33,.67,.51,1Z"/>
      <path class="cls-10" d="M26.81,37.28c-.29,.37-.55,.76-.8,1.16l-1.46-.72c-1.18-1.27-.13-1.97,.24-2.89l1.76,.35,.26,2.1Z"/>
      <path class="cls-45" d="M26.5,34.87l-1.66-.25c-.73-1.28-.61-2.82-.13-4.3l1.21-.03,.58,4.58Z"/>
      <path class="cls-4" d="M25.91,30.12l-1.13-.03c-1.21-1.78-1.9-3.81-1.66-6.07l.69-.22c.52,.61,1.04,1.23,1.54,1.92l.56,4.4Z"/>
      <path class="cls-14" d="M23.66,23.62l-.62,.35c-2.8-1.02-4.82-2.55-6.36-5.08l.05-.39c.09,.03,.19,.05,.28,.08,2.08,.78,4.44,2.53,6.65,5.04Z"/>
      <path class="cls-93" d="M16.5,18.43l-.03,.55c-1.31,1.99-2.9,2.18-4.6,1.72l-.9-1.25c.95-.96,2.33-1.4,3.73-1.38,.61,.01,1.19,.17,1.8,.36Z"/>
      <path class="cls-22" d="M11.89,23.8l-.97,.1-.69-3.43c.16-.31,.35-.59,.58-.84l.9,1.04c.33,1.13,.56,1.99,.18,3.13Z"/>
      <path class="cls-55" d="M13.35,28.19l-1.48,.49-.88-4.45,.96-.26c1.27,1.11,1.26,2.68,1.4,4.22Z"/>
      <path class="cls-80" d="M13.22,32.09l-.72-.36h-.02l-.57-2.86,1.49-.62c.94,1.4,.94,2.65-.18,3.84Z"/>
      <path class="cls-92" d="M37.65,1.84c-.27,.01-.58-.04-.87-.05,.18,.04,.42,.14,.7,.24-.32,.4-.66,.81-1.05,1.22l-.41-.02c.12,.03,.22,.07,.33,.1-.42,.45-.88,.89-1.35,1.33l-.15,.03s.07,.03,.1,.04c-.95,.9-1.96,1.77-2.89,2.52,1.27-1.22,3.51-2.96,4.17-4.95,.65-.76,1.45-1.31,2.22-1.64-.2,.36-.48,.77-.8,1.18Z"/>
      <path class="cls-75" d="M51.17,7.99c-1.28-1.59-2.85-3.5-4.65-5.02-.23-.19-.46-.37-.69-.55-.17-.13-.35-.25-.52-.37-.13-.09-.26-.18-.39-.26-.09-.06-.18-.12-.27-.17-.08-.05-.17-.11-.26-.16-.25-.14-.5-.27-.75-.39-.25-.11-.51-.22-.77-.32-.39-.14-.79-.25-1.19-.33-.19-.04-.38-.07-.57-.09h-.05c-.2-.02-.41-.04-.61-.04-.58,.02-1.18,.03-1.72,.25-.24,.44-.53,.89-.85,1.33,1.49,.7,2.98,1.63,4.48,2.68l-.02,.03c-1.17-.74-3.28-1.89-4.65-2.46-.29,.39-.61,.77-.96,1.16,.57,.25,1.24,.67,2.1,1.36v.12c-.75-.45-1.29-.99-2.22-1.35-.4,.44-.83,.86-1.28,1.28l.9,.55,.05,.16c-.36-.23-.74-.48-1.06-.61-.86,.8-1.79,1.6-2.79,2.37-.35,.28-.65,.61-1.09,.78-1.59,1.15-3.26,2.25-4.94,3.24-4.57,2.7-8.67,4.92-11.98,6.5,.95-.06,1.88,.02,2.77,.41,3.41,1.87,6.43,4.2,8.52,7.53l1.41,11.31c.37-.42,.75-.84,1.18-1.21,1.15-1,2.1-1.78,3.7-1.84,.32,0,.91,.07,1.48,.15,.3-.01,.61,.01,.91,.06,3.2-2.23,8.04-5.41,11.23-7.66,.72-1.67,1.75-3.03,3.06-4.17,1.15-1,2.09-1.79,3.69-1.84,.07,0,.19,.01,.28,.02l-1.48-12.45Zm-16.63,13.43l.02,.13s-.32-.21-.61-.47l-.9,.64,.24,.29v.1s-.31-.34-.31-.34l-.9,.64c.19,.25,.35,.49,.35,.49l-.15,.1s-.14-.25-.3-.51l-1.15,.8,.33,.5-.1,.11-.34-.52-1.56,1.11c-.29-.52-.32-.95-.43-1.38l-.43,.27v-.07s.42-.3,.42-.3c-.1-.32-.27-.66-.68-1.03l.92-.57-.16-.22,.1-.03,.14,.2,1.2-.76-.47-.66,.09-.08,.48,.68,1.18-.74-.39-.55,.11-.14,.38,.64,.99-.61c-.13-.17-.26-.33-.42-.48h.12c.15,.15,.26,.28,.38,.41l1.16-.72c-.12,1.08,.02,1.38,.25,1.55l.34-.22,.12,.05-.33,.26c.18,.1,.4,.18,.58,.48l-.71,.51c.22,.23,.44,.44,.44,.44Zm15.63-2.81l-.92,.6,.38,1.18-.15,.08-.36-1.18-.9,.59c.16,.5,.27,1.02,.34,1.57h-.11c-.12-.48-.29-.96-.46-1.42l-.92,.6,.18,.63-.18,.05-.18-.56-1.55,1-.26-1.2-.51,.31-.16-.11,.64-.4-.2-.93-.52,.28v-.15l.49-.25-.35-1.62,1.63-1.07-.33-1.2,.18-.08,.33,1.17,1.33-.87-.49-1.32,.21-.03,.41,1.26,.75-.49-.35-.97,.16-.04,.33,.91,.9-.59,.13,.92,.51-.31,.07,.15-.55,.34,.22,1.38,1.05-.64,.07,.15-1.09,.69,.23,1.57Zm-18.2,17.26l-.34,.19c0-.07,.07-.11,.07-.18,.09,0,.18,0,.27,0Zm-1.7,1.08l-1.24,.86c.36-.43,.76-.81,1.21-1.15l.03,.29Z"/>
      <path class="cls-57" d="M57.15,22.28c-.98-.85-2.06-1.24-3.12-1.28-.15-.01-.3-.01-.45,0-2.18,.1-4.3,1.64-5.64,3.67-2.07,3.61-2.81,8.25,.08,11.67,2.97,2.91,7.06,1.06,9.16-2.11,2.06-3.6,2.83-8.53-.03-11.95Zm-4.49,14.67c-3.91,.55-5.82-2.5-5.85-6.17,.24-3.94,1.77-7.67,5.81-8.93,.24-.04,.47-.06,.7-.07,3.46-.13,5.18,2.56,5.21,6.01-.25,3.95-1.83,7.9-5.87,9.16Z"/>
      <path class="cls-105" d="M52.7,23.54l-.12,1.85-.41,.28c-.01-.57-.03-1.16-.05-1.74l.58-.39Z"/>
      <path class="cls-86" d="M52.76,22.44l-.06,.95-.58,.4c-.01-.45-.04-.88-.04-1.37,.12,0,.24-.02,.35-.01,.11,0,.23,.02,.33,.03Z"/>
      <path class="cls-18" d="M50.79,24.7l-1.93,1.32-.38-.36c.45-.8,.85-1.37,1.54-1.97,.14-.12,.49-.31,.64-.43l.13,1.44Z"/>
      <polygon class="cls-90" points="50.99 26.46 50.04 27.13 48.94 26.08 50.81 24.84 50.99 26.46"/>
      <path class="cls-91" d="M51.1,27.46c-.23-.09-.3,.16-.45,.23l-.56-.52,.92-.63,.09,.92Z"/>
      <path class="cls-46" d="M51.96,27.46c.05,.15-.68,.47-.62,.1l-.5-4.55c.31-.21,.63-.4,.97-.57,.04,1.64,.11,3.39,.15,5.02Z"/>
      <path class="cls-31" d="M52.49,27.22l.04,.05c-.11,0-.21,.03-.34,.05,0-.57,0-1.08-.02-1.6l.41-.28-.09,1.78Z"/>
      <path class="cls-87" d="M56.52,24.33l-2.63,3.28c-.21-.14-.41-.24-.6-.28,.82-1.33,1.5-2.87,2.44-4.07,.47-.11,1.01,.8,.79,1.07Z"/>
      <path class="cls-66" d="M58.21,27.97s0,.08,0,.12c-.03-.25-.12-.43-.27-.43l-.31,.07v-.37c-.08-1.01-.45-1.93-1-2.74l.28-.34c.06-.45-.85-1.49-1.45-1.31l-.14,.27c-.86-.78-1.91-.94-3.02-1.01,.33-.18,.68-.19,1.05-.23,3.27-.2,4.68,2.99,4.87,5.97Z"/>
      <path class="cls-29" d="M58.15,28.79c-.14,1.39-.51,2.73-1.14,3.93,.31-1.05,.48-2.13,.56-3.22h.33c.12-.19,.2-.45,.25-.71Z"/>
      <path class="cls-20" d="M57.66,29.2l-2.34,.07c-.05-.26-.16-.48-.32-.64l2.77-.64c.2,.15,.34,.81-.11,1.21Z"/>
      <path class="cls-43" d="M52.42,30.81l1.15-.03-.03,.02c-.5,.52-1.21,.72-1.83,.36-.55-.79-.34-2.04,.05-2.86,.25-.34,.61-.68,.96-.72,.34-.05,.79,.18,1.13,.38,.11,.16,.08,.37,.13,.55l-1.46-.03c-.39,.31-.61,.7-.61,1.12s.19,.82,.51,1.21Z"/>
      <path class="cls-88" d="M54.78,28.73l-2.13,.06c-.25,.22-.39,.63-.39,.86,0,.21,.08,.65,.29,.93l2.25-.1c.23-.26,.41-.73,.38-.97-.04-.24-.27-.69-.4-.78Zm-.51,1.47c-.68-.46-.41-.97-.03-1.31l.22,.02c-.14,.41-.35,.82,.06,1.31l-.25-.02Z"/>
      <path class="cls-39" d="M56.75,32.85c-.11,.31-.26,.61-.41,.9l-2.59-2.77c.06-.07,.12-.13,.18-.2l.39-.02,2.43,2.09Z"/>
      <path class="cls-16" d="M53.11,36.41c-.15,.06-.29,.13-.45,.18-.18,.03-.36,.05-.54,.07l-.04-4.95c.2-.01,.4-.03,.6-.04l.43,4.74Z"/>
      <path class="cls-52" d="M51.19,31.63l-2.32,3.83c-.21-.24-.41-.51-.59-.79,.88-1.04,1.66-2.3,2.43-3.41,.08-.11,.16-.15,.25-.15,.24-.01,.45,.35,.23,.52Z"/>
      <path class="cls-82" d="M51.51,31.32c.15,.11,.28,.19,.42,.25l-.42,.05c.11-.52-.58-.63-.81-.71-.09,.14-.18,.26-.27,.39-.11-.16-.2-.34-.28-.52l.48-.13c.27-.42,.05-.78-.13-.99l-.52,.04c-.04-.2,.02-.37,.07-.55l.17-.11,.48,.39c.28-.21,.58-.61,.47-1.23l-.43-.39,.36-.25,.04,.23c.31,.47,.68,.1,.9-.16h.17c-.24,.17-.47,.4-.7,.67-.58,1.01-.62,2.05,0,3.02Z"/>
      <path class="cls-9" d="M49.76,29.35c-.01,.12-.01,.23-.02,.35l-.54,.04,.56-.39Z"/>
      <path class="cls-99" d="M50.25,31.39l-1.73-.15,1.43-.4c.08,.16,.17,.34,.3,.55Z"/>
      <path class="cls-64" d="M51.01,28.3c-.02,.41-.02,.8-.39,.79l-2.7-2.28c.14-.34,.29-.67,.46-.99l2.63,2.48Z"/>
      <path class="cls-102" d="M48.86,27.92l-1.55,1.05c.12-.65,.29-1.29,.51-1.9l1.04,.85Z"/>
      <path class="cls-101" d="M49.89,28.78c-.05,.1-.08,.2-.1,.31l-1,.69-1.61,.13c.03-.28,.07-.56,.12-.84l1.6-1.1,.99,.81Z"/>
      <path class="cls-30" d="M50.4,30.45l-3.22,.81c-.06-.35-.04-.79-.03-1.14l3.22-.24c.2,.18,.26,.38,.03,.57Z"/>
      <path class="cls-42" d="M52.91,37.99c-.59,.24-1.2,.37-1.9,.42-2.55-.21-3.84-1.22-5.12-3.4-.88-1.95-1.14-4.85-.43-7.69,.68-2,2.08-3.73,3.51-4.98,1-.87,2.21-1.45,3.58-1.57-1.85,.52-3.58,1.99-4.82,3.67-2.33,3.79-2.89,8.69,0,12.31,1.67,1.58,3.49,1.8,5.18,1.24Z"/>
      <path class="cls-34" d="M45.38,27.04c-.04,.08-.07,.17-.1,.26-.14,.46-.24,.92-.31,1.38l-8.92,6.02c-.37-.22-.76-.38-1.15-.49,3.14-2.16,7.44-5.02,10.48-7.17Z"/>
      <path class="cls-3" d="M44.93,28.84c-.09,.62-.13,1.24-.13,1.86l-7.48,5.1c-.07-.09-.13-.19-.2-.28-.31-.29-.62-.53-.94-.74l8.75-5.94Z"/>
      <path class="cls-17" d="M44.92,32.44l-6.8,4.69c-.21-.43-.46-.85-.75-1.26l7.43-5.09c.01,.55,.05,1.11,.12,1.66Z"/>
      <path class="cls-24" d="M36.78,35.74c-.98-.85-2.06-1.24-3.12-1.28-.15-.01-.28-.01-.43,0-2.19,.1-4.33,1.64-5.66,3.67-2.07,3.61-2.81,8.25,.08,11.67,2.97,2.91,7.05,1.07,9.16-2.11,2.06-3.6,2.83-8.53-.03-11.95Zm-4.49,14.67c-3.92,.55-5.82-2.5-5.86-6.17,.25-3.94,1.78-7.67,5.81-8.93,.25-.03,.48-.06,.71-.07,3.45-.13,5.17,2.56,5.2,6.01-.24,3.95-1.82,7.9-5.86,9.16Z"/>
      <path class="cls-63" d="M32.54,51.45c-.59,.25-1.2,.37-1.9,.42-2.55-.21-3.84-1.22-5.13-3.4-.87-1.95-1.13-4.85-.42-7.69,.68-2,2.08-3.73,3.51-4.98,1-.87,2.21-1.45,3.58-1.57-1.85,.52-3.58,1.99-4.83,3.67-2.32,3.79-2.88,8.69,0,12.31,1.67,1.58,3.49,1.8,5.19,1.24Z"/>
      <path class="cls-65" d="M24.87,40.91c-.17,.59-.3,1.18-.37,1.77l-1.63,1-.38-1.26c.84-.55,1.57-1.02,2.38-1.51Z"/>
      <path class="cls-15" d="M24.5,42.76c-.07,.62-.09,1.23-.07,1.84l-1.07,.74-.44-1.51,1.58-1.07Z"/>
      <path class="cls-100" d="M24.63,46.46l-.77,.52-.46-1.54,1.03-.71c.03,.57,.1,1.15,.2,1.73Z"/>
      <path class="cls-11" d="M25.84,38.71c-.26,.45-.48,.92-.69,1.43l-.08-.09-14.03-7.27,1.41-.82,4.53,2.28c.09,.52,.93,1.24,1.74,.87l7.12,3.6Z"/>
      <path class="cls-41" d="M25.14,40.15c-.03,.08-.06,.16-.09,.23-.42,.29-.92,.61-1.41,.92l-14.59-7.37,1.95-1.13,.04,.11,14.1,7.24Z"/>
      <path class="cls-26" d="M23.54,41.37c-.5,.32-1,.64-1.44,.93l-14.73-7.38,1.58-.92h0s14.59,7.37,14.59,7.37Z"/>
      <path class="cls-48" d="M22.44,43.81l-13.74-6.84-.98-1.56c4.56,2.34,9.74,5,14.35,7.24l.37,1.16Z"/>
      <polygon class="cls-51" points="22.95 45.42 10.12 39.22 8.8 37.15 22.48 43.93 22.95 45.42"/>
      <polygon class="cls-35" points="23.48 47.05 10.85 40.41 10.18 39.33 23 45.59 23.48 47.05"/>
      <path class="cls-60" d="M11.99,30.81c-.69,.61-1.24,1.32-1.68,2.12l-.92,.51c.21-.46,.42-.9,.66-1.33,.5-.76,1.12-1.45,1.81-2.02l.13,.72Z"/>
      <path class="cls-67" d="M11.79,29.81c-.73,.6-1.39,1.31-1.95,2.07-.36,.58-.67,1.19-.94,1.82l-1.16,.66c.72-1.83,2.01-3.42,3.34-4.58,.2-.17,.4-.33,.61-.48l.1,.51Z"/>
      <path class="cls-73" d="M11.94,41.32l-.95,1.57c-.22-.23-.42-.5-.6-.78,.31-.36,.6-.74,.88-1.14l.67,.35Z"/>
      <path class="cls-36" d="M12.51,44.26l-.44,.72c-.67-.23-1.33-.61-1.94-1.2-1.69-2.01-2.13-4.43-1.79-6.83l.59,.99c0,.09-.01,.18-.01,.28,.02,2.86,1.21,5.35,3.59,6.04Z"/>
      <path class="cls-49" d="M11.81,45.42l-.12,.18c-1.64-.44-2.68-1.43-3.69-3.15-.81-1.8-1.08-4.38-.58-6.99l.66,1.05c-.47,2.67-.04,5.42,1.76,7.68,.63,.6,1.3,.99,1.97,1.23Z"/>
      <polygon class="cls-12" points="12.59 58.46 11.97 59.82 11.56 59.9 12.3 58.57 12.59 58.46"/>
      <polygon class="cls-68" points="12.51 58.26 12.28 58.36 7.88 56.52 8.16 56.01 12.51 58.26"/>
      <path class="cls-94" d="M15.55,43.21l-.16,.27c-2.35,4.02-3.41,6.48-7.05,12.04l-2.18,3.53-1.26,1.74-.58,.21,1.48-2.21,2.33-3.34,7.16-12.38,.26,.14Z"/>
      <polygon class="cls-56" points="12 58.65 11.18 59.98 6.85 58.16 7.83 56.63 12 58.65"/>
      <polygon class="cls-76" points="15.02 42.94 8.62 54.25 3.94 61.07 2.73 60.44 4.68 57.34 5.98 55.42 14.02 42.42 15.02 42.94"/>
      <polygon class="cls-81" points="6.04 54.93 5.8 55.32 1.74 53.58 2.63 53.42 6.04 54.93"/>
      <polygon class="cls-1" points="5.72 55.52 4.45 57.24 .33 55.44 1.42 53.66 5.72 55.52"/>
      <path class="cls-53" d="M49.94,17.04l1.09-.69-.07-.15-1.05,.64-.22-1.38,.55-.34-.07-.15-.51,.31-.13-.92-.9,.59-.33-.91-.16,.04,.35,.97-.75,.49-.41-1.26-.21,.03,.49,1.32-1.33,.87-.33-1.17-.18,.08,.33,1.2-1.63,1.07,.35,1.62-.49,.25v.15l.52-.28,.2,.93-.64,.4,.16,.11,.51-.31,.26,1.2,1.55-1,.18,.56,.18-.05-.18-.63,.92-.6c.17,.46,.34,.94,.46,1.42h.11c-.07-.55-.18-1.07-.34-1.57l.9-.59,.36,1.18,.15-.08-.38-1.18,.92-.6-.23-1.57Zm-.77,1.92l-.17-.53-.1,.15,.16,.46-.92,.63c-.12-.32-.24-.63-.41-.94l-.16,.08c.1,.35,.21,.67,.34,1l-.91,.63-.11-.38-.2,.11,.13,.38-1.36,.92-.21-1.02,.36-.23-.07-.18-.34,.22-.2-.92,.38-.2v-.13l-.4,.2-.29-1.37,1.47-1,.3,1.1,.23-.06-.34-1.17,1.32-.92,.1,.26,.12-.05-.1-.29,.76-.51,.11,.31,.13-.1-.11-.31,.69-.46,.11,.76-.26,.16,.05,.17,.24-.15,.22,1.38-.32,.18,.02,.21,.33-.2,.19,1.28-.78,.53Z"/>
      <path class="cls-96" d="M49,18.43l-.1,.15,.16,.46-.92,.63c-.12-.32-.24-.63-.41-.94l-.16,.08c.1,.35,.21,.67,.34,1l-.91,.63-.11-.38-.2,.11,.13,.38-1.36,.92-.21-1.02,.36-.23-.07-.18-.34,.22-.2-.92,.38-.2v-.13l-.4,.2-.29-1.37,1.47-1,.3,1.1,.23-.06-.34-1.17,1.32-.92,.1,.26,.12-.05-.1-.29,.76-.51,.11,.31,.13-.1-.11-.31,.69-.46,.11,.76-.26,.16,.05,.17,.24-.15,.22,1.38-.32,.18,.02,.21,.33-.2,.19,1.28-.78,.53-.17-.53Z"/>
      <path class="cls-21" d="M32.95,35.24c-.23,.01-.46,.04-.71,.07-4.03,1.26-5.56,4.99-5.81,8.93,.04,3.67,1.94,6.72,5.86,6.17,4.04-1.26,5.62-5.21,5.86-9.16-.03-3.45-1.75-6.14-5.2-6.01Zm-1.25,.64c.09,0,.18,0,.27,0l-.34,.19c0-.07,.07-.11,.07-.18Zm2.93,6.21l2.77-.64c.19,.15,.34,.81-.12,1.21l-2.33,.07c-.06-.26-.16-.48-.32-.64Zm.18,.89c.03,.23-.15,.7-.38,.96l-2.25,.1c-.21-.28-.3-.72-.3-.93,.01-.23,.14-.64,.4-.86l2.13-.06c.13,.09,.36,.54,.4,.79Zm-.83-1.02c-.06-.25-.17-.49-.31-.72l1.27-1.55,1.42-1c.33,.67,.48,1.4,.55,2.22,.02,.14,.02,.25,.01,.36l-2.94,.69Zm1.55-2.99l.59-.72c.04,.06,.08,.13,.11,.19l-.7,.53Zm.62-1.18l-2.62,3.28c-.22-.14-.42-.24-.61-.28,.82-1.33,1.49-2.87,2.44-4.07,.47-.11,1,.8,.79,1.07Zm-3.45,2.99c-.45-.1-.59-.03-.88,0v-1.1l2.38-1.65-1.5,2.75Zm1.6-2.91l-2.48,1.71c-.01-.6-.03-1.19-.05-1.77l2.1-1.45c.34,.16,.66,.34,.97,.53l-.54,.98Zm-2.53-.25c-.02-.42,0-.9-.03-1.34l.55-.4c.56,.06,1.04,.23,1.48,.43l-2,1.31Zm-.33-1.72c.04,1.64,.1,3.39,.15,5.02,.05,.15-.68,.47-.63,.1l-.49-4.55c.3-.21,.63-.4,.97-.57Zm-.71,5.02c-.23-.09-.3,.16-.46,.23l-.26-.24,.68-.45,.04,.46Zm-.06-.57l-.72,.49-1.12-1.03,1.64-1.12,.2,1.66Zm-.43-3.69l.03,.29-1.24,.86c.36-.43,.76-.81,1.21-1.15Zm-1.62,1.69l1.69-1.05,.15,1.21-1.7,1.22-.65-.61c.15-.27,.33-.52,.51-.77Zm-.61,.93l2.63,2.48c-.02,.41-.02,.8-.4,.79l-2.69-2.28c.14-.34,.29-.67,.46-.99Zm-.56,1.25l.07,.05-.12,.1c.02-.05,.03-.1,.05-.15Zm-.1,.28l.25-.17,1.2,.99-1.94,1.31c.1-.73,.26-1.44,.49-2.13Zm-.51,2.26l2.02-1.37,.66,.54c-.15,.29-.13,.6-.15,.92l-2.56,.21c.01-.1,.02-.2,.03-.3Zm-.06,.51l3.22-.24c.2,.19,.25,.38,.03,.57l-3.22,.81c-.06-.35-.04-.79-.03-1.14Zm2.81,.73c.06,.14,.15,.3,.26,.47l-1.53-.13,1.27-.34Zm-2.73,.75l.85-.23,2.15,.2c-.66,.99-1.31,1.91-2.06,2.89-.48-.85-.79-1.84-.94-2.86Zm1.05,3.07c.88-1.04,1.66-2.3,2.43-3.41,.08-.11,.16-.15,.25-.15,.24,0,.45,.35,.23,.52l-2.32,3.83c-.22-.23-.41-.51-.59-.79Zm.84,1.02l2.31-3.91c.13-.01,.26-.02,.38-.03l.07,4.92c-1.15,.05-2.05-.34-2.76-.98Zm2.39-4.07c.11-.52-.59-.63-.82-.71-.09,.14-.17,.26-.26,.4-.12-.17-.2-.34-.28-.53l.48-.13c.27-.42,.05-.78-.13-.99l-.53,.04c-.04-.27,.08-.5,.15-.74l.57,.47c.29-.21,.59-.61,.48-1.23l-.43-.39,.36-.25,.04,.23c.31,.47,.68,.11,.9-.16h.16c-.23,.17-.47,.4-.69,.67-.58,1.01-.62,2.05,0,3.02,.15,.11,.28,.19,.42,.25l-.42,.05Zm.2-.46c-.55-.79-.34-2.04,.05-2.86,.24-.34,.6-.68,.95-.72,.35-.05,.78,.18,1.12,.38,.11,.16,.09,.37,.15,.55l-1.46-.03c-.39,.31-.61,.7-.61,1.12s.19,.82,.51,1.21l1.15-.03-.04,.02c-.49,.52-1.2,.72-1.82,.36Zm.95,5.43c-.18,.04-.36,.05-.54,.07l-.05-4.94c.21-.02,.41-.04,.61-.05l.43,4.74c-.15,.06-.29,.13-.45,.18Zm.63-.25l-.33-4.77c.21-.09,.41-.25,.61-.43l2.66,2.82c-.76,1-1.74,1.84-2.94,2.38Zm3.05-2.59l-2.59-2.77c.06-.07,.12-.13,.18-.2l.39-.02,2.43,2.09c-.12,.31-.26,.61-.41,.9Zm-1.85-2.99h.31c.44-.4,.5-.71,.57-1.23l2.02-.03c-.03,1.07-.23,2.14-.57,3.13l-2.33-1.87Zm2.52,1.96c.3-1.05,.48-2.13,.56-3.22h.33c.11-.19,.2-.45,.25-.71-.14,1.39-.51,2.73-1.14,3.93Zm.92-5.06l-.31,.07v-.36c-.08-1.02-.45-1.94-1-2.75l.28-.34c.05-.45-.85-1.49-1.45-1.31l-.14,.28c-.86-.79-1.92-.95-3.02-1.02,.32-.18,.68-.19,1.05-.23,3.27-.2,4.68,2.99,4.87,5.97,0,.04,0,.08,0,.12-.03-.25-.12-.43-.27-.43Z"/>
      <path class="cls-70" d="M36.15,37.79l-2.62,3.28c-.22-.14-.42-.24-.61-.28,.82-1.33,1.49-2.87,2.44-4.07,.47-.11,1,.8,.79,1.07Z"/>
      <path class="cls-8" d="M29.52,42.24c-.15,.29-.13,.6-.15,.92l-2.56,.21c.01-.1,.02-.2,.03-.3l2.02-1.37,.66,.54Z"/>
      <path class="cls-13" d="M28.8,41.63l-1.94,1.31c.1-.73,.26-1.44,.49-2.13l.25-.17,1.2,.99Z"/>
      <path class="cls-44" d="M31.59,40.92c.05,.15-.68,.47-.63,.1l-.49-4.55c.3-.21,.63-.4,.97-.57,.04,1.64,.1,3.39,.15,5.02Z"/>
      <path class="cls-62" d="M30.73,40.92c-.23-.09-.3,.16-.46,.23l-.26-.24,.68-.45,.04,.46Z"/>
      <path class="cls-27" d="M30.64,41.76c-.02,.41-.02,.8-.4,.79l-2.69-2.28c.14-.34,.29-.67,.46-.99l2.63,2.48Z"/>
      <polygon class="cls-47" points="30.67 40.35 29.95 40.84 28.83 39.81 30.47 38.69 30.67 40.35"/>
      <path class="cls-38" d="M30.46,38.51l-1.7,1.22-.65-.61c.15-.27,.33-.52,.51-.77l1.69-1.05,.15,1.21Z"/>
      <path class="cls-5" d="M27.52,40.58l-.12,.1c.02-.05,.03-.1,.05-.15l.07,.05Z"/>
      <path class="cls-71" d="M33.77,36.31l-2,1.31c-.02-.42,0-.9-.03-1.34l.55-.4c.56,.06,1.04,.23,1.48,.43Z"/>
      <path class="cls-58" d="M34.84,36.89l-.54,.98-2.48,1.71c-.01-.6-.03-1.19-.05-1.77l2.1-1.45c.34,.16,.66,.34,.97,.53Z"/>
      <path class="cls-98" d="M34.2,38.03l-1.5,2.75c-.45-.1-.59-.03-.88,0v-1.1l2.38-1.65Z"/>
      <path class="cls-25" d="M36.23,38.44l-.7,.53,.59-.72c.04,.06,.08,.13,.11,.19Z"/>
      <path class="cls-7" d="M37.84,41.43s0,.08,0,.12c-.03-.25-.12-.43-.27-.43l-.31,.07v-.36c-.08-1.02-.45-1.94-1-2.75l.28-.34c.05-.45-.85-1.49-1.45-1.31l-.14,.28c-.86-.79-1.92-.95-3.02-1.02,.32-.18,.68-.19,1.05-.23,3.27-.2,4.68,2.99,4.87,5.97Z"/>
      <path class="cls-6" d="M37.78,42.25c-.14,1.39-.51,2.73-1.14,3.93,.3-1.05,.48-2.13,.56-3.22h.33c.11-.19,.2-.45,.25-.71Z"/>
      <path class="cls-89" d="M37.28,42.66l-2.33,.07c-.06-.26-.16-.48-.32-.64l2.77-.64c.19,.15,.34,.81-.12,1.21Z"/>
      <path class="cls-37" d="M34.41,42.19l-2.13,.06c-.26,.22-.39,.63-.4,.86,0,.21,.09,.65,.3,.93l2.25-.1c.23-.26,.41-.73,.38-.96-.04-.25-.27-.7-.4-.79Zm-.51,1.48c-.68-.47-.41-.98-.03-1.32l.21,.02c-.13,.41-.34,.82,.07,1.31h-.25Z"/>
      <path class="cls-74" d="M32.05,44.27l1.15-.03-.04,.02c-.49,.52-1.2,.72-1.82,.36-.55-.79-.34-2.04,.05-2.86,.24-.34,.6-.68,.95-.72,.35-.05,.78,.18,1.12,.38,.11,.16,.09,.37,.15,.55l-1.46-.03c-.39,.31-.61,.7-.61,1.12s.19,.82,.51,1.21Z"/>
      <path class="cls-32" d="M36.38,46.31c-.12,.31-.26,.61-.41,.9l-2.59-2.77c.06-.07,.12-.13,.18-.2l.39-.02,2.43,2.09Z"/>
      <path class="cls-54" d="M32.74,49.87c-.15,.06-.29,.13-.45,.18-.18,.04-.36,.05-.54,.07l-.05-4.94c.21-.02,.41-.04,.61-.05l.43,4.74Z"/>
      <path class="cls-83" d="M30.82,45.09l-2.32,3.83c-.22-.23-.41-.51-.59-.79,.88-1.04,1.66-2.3,2.43-3.41,.08-.11,.16-.15,.25-.15,.24,0,.45,.35,.23,.52Z"/>
      <path class="cls-77" d="M31.14,44.78c.15,.11,.28,.19,.42,.25l-.42,.05c.11-.52-.59-.63-.82-.71-.09,.14-.17,.26-.26,.4-.12-.17-.2-.34-.28-.53l.48-.13c.27-.42,.05-.78-.13-.99l-.53,.04c-.04-.27,.08-.5,.15-.74l.57,.47c.29-.21,.59-.61,.48-1.23l-.43-.39,.36-.25,.04,.23c.31,.47,.68,.11,.9-.16h.16c-.23,.17-.47,.4-.69,.67-.58,1.01-.62,2.05,0,3.02Z"/>
      <path class="cls-106" d="M29.85,44.78l-1.53-.13,1.27-.34c.06,.14,.15,.3,.26,.47Z"/>
      <path class="cls-61" d="M30.03,43.91l-3.22,.81c-.06-.35-.04-.79-.03-1.14l3.22-.24c.2,.19,.25,.38,.03,.57Z"/>
      <path class="cls-50" d="M34.1,20.98l.71-.51c-.18-.3-.4-.38-.58-.48l.33-.26-.12-.05-.34,.22c-.23-.17-.37-.47-.25-1.55l-1.16,.72c-.12-.13-.23-.26-.38-.42h-.12c.16,.16,.29,.32,.42,.49l-.99,.61-.38-.64-.11,.14,.39,.55-1.18,.74-.48-.68-.09,.08,.47,.66-1.2,.76-.14-.2-.1,.03,.16,.22-.92,.57c.41,.37,.58,.71,.68,1.03l-.43,.3v.07s.44-.27,.44-.27c.11,.43,.14,.86,.43,1.38l1.56-1.11,.34,.52,.1-.11-.33-.5,1.15-.8c.16,.26,.3,.51,.3,.51l.15-.1s-.16-.24-.35-.49l.9-.64,.3,.34v-.1s-.23-.29-.23-.29l.9-.64c.29,.26,.61,.47,.61,.47l-.02-.13s-.22-.21-.44-.44Zm-.23-.25l-.16,.08c.04,.06,.09,.12,.14,.17l-.9,.64-.11-.15-.05,.08,.09,.12-.88,.62c-.07-.09-.14-.18-.22-.26l-.08,.05c.07,.08,.15,.17,.22,.28l-1.17,.82-.15-.21-.11,.08,.15,.21-1.27,.9c-.3-.33-.45-.72-.56-1.08l.61-.36s.01,0,0-.02c-.01,0,.01,.03-.11-.11l-.55,.38c-.11-.38-.2-.71-.44-.92l.76-.5,.42,.58,.09-.05-.43-.58,1.16-.77,.18,.25,.1-.08-.16-.25,1.15-.75,.41,.55,.05,.02-.38-.64,.97-.62c.1,.14,.2,.28,.29,.42l.12-.05c-.11-.18-.21-.31-.31-.44l.97-.64c-.02,.15-.03,.29-.03,.43,0,.43,.1,.78,.32,1.03l-.13,.08,.03,.18,.22-.16c.15,.14,.32,.26,.55,.33l-.67,.47-.13-.13Z"/>
      <path class="cls-28" d="M34.67,20.39l-.67,.47-.13-.13-.16,.08c.04,.06,.09,.12,.14,.17l-.9,.64-.11-.15-.05,.08,.09,.12-.88,.62c-.07-.09-.14-.18-.22-.26l-.08,.05c.07,.08,.15,.17,.22,.28l-1.17,.82-.15-.21-.11,.08,.15,.21-1.27,.9c-.3-.33-.45-.72-.56-1.08l.61-.36s.01,0,0-.02c-.01,0,.01,.03-.11-.11l-.55,.38c-.11-.38-.2-.71-.44-.92l.76-.5,.42,.58,.09-.05-.43-.58,1.16-.77,.18,.25,.1-.08-.16-.25,1.15-.75,.41,.55,.05,.02-.38-.64,.97-.62c.1,.14,.2,.28,.29,.42l.12-.05c-.11-.18-.21-.31-.31-.44l.97-.64c-.02,.15-.03,.29-.03,.43,0,.43,.1,.78,.32,1.03l-.13,.08,.03,.18,.22-.16c.15,.14,.32,.26,.55,.33Z"/>
      <path class="cls-78" d="M34.15,43.68h-.25c-.68-.48-.41-.99-.03-1.33l.21,.02c-.13,.41-.34,.82,.07,1.31Z"/>
    </g>
  </g>
</svg>