<?xml version="1.0" encoding="UTF-8"?>
<svg id="Layer_2" data-name="Layer 2" xmlns="http://www.w3.org/2000/svg" viewBox="0 0 95.56 89.54">
  <defs>
    <style>
      .cls-1 {
        fill: #4a2412;
        fill-rule: evenodd;
      }
    </style>
  </defs>
  <g id="Layer_2-2" data-name="Layer 2">
    <g id="layer1">
      <path id="path2308" class="cls-1" d="M34.92,0l-15.11,8.81-.37,15.8-12.97,8.26,.02,19.97-6.5,2.23,.05,4.86,44.17,29.62,51.32-18.08,.02-4.96-8.18-5.73c-.05-.28-.18-.55-.37-.72l-3.79-2.93v-4.29l-.02-14.09-14.49-10.27-.62-12.62-15.21-10.29v-.17c2.81,.76,5.57,.67,8.38,.37-.79-.54-1.83-.67-2.85-1.64,1.86-.09,3.16-1.46,4.32-2.13-3.28,.47-6.52,1.41-9.85,0v-.89c-.2-.4-.21-.3-.55,.1l-.02,3.99L44.65,0h-9.72Zm.82,.3l8.73,.07,2.8,1.89-8.31,.07-3.22-2.03Zm-.84,.12l3.25,2.06-13.99,8.83-3.67-2.41L34.9,.42Zm4.19,1.98h8.41l3.52,2.36-8.48-.2s-3.45-2.16-3.45-2.16Zm13.79,.03c2.22,.71,6.02,1.07,8.68,.05-.43,.78-2.81,1.32-3.72,1.31,.37,.58,1.46,1.37,2.51,1.71-2.22,.54-5.08,.05-7.47-.42V2.43Zm-14.51,.17l3.27,2.06-13.07,9.52-4.29-2.8S38.37,2.6,38.37,2.6Zm4.32,2.08l8.53,.22,1.09,.74v1.56l-6.08-.3s-3.55-2.23-3.55-2.23Zm-.84,.1l3.7,2.33-12.3,10.09-4.54-2.95,13.15-9.48Zm11.04,1.24l1.94,1.31-1.94-.1v-1.22Zm-6.52,.97l5.95,.35-.03,2.38-2.11-.32s-3.82-2.41-3.82-2.41Zm-.62,.25l3.7,2.33-10.74,11.21-5.33-3.5s12.38-10.05,12.38-10.05Zm7.14,.15l2.18,.12,4.99,3.35-7.17-1.07v-2.41Zm-32.57,1.96l6.03,3.99v1.29l-2.68-1.79v1.29l-3.4-2.26s.05-2.53,.05-2.53Zm30.01,.15l1.96,.3v.94l-1.96-1.24Zm-.69,.2l2.65,1.66-8.98,12.43-4.51-2.95,10.84-11.14Zm3.25,.2l7.42,1.12,5.28,3.57-12.65-3.45-.05-.02v-1.22Zm-.25,1.59l.1,.02,5.28,7.54-6.6,2.26-2.83-4.07s4.04-5.75,4.04-5.75Zm.42,.12l7.94,2.26,2.65,3.27-5.51,1.89s-5.09-7.42-5.09-7.42Zm-32.79,.5l2.8,1.84v2.38l-2.85-1.89s.05-2.33,.05-2.33Zm6.23,1.34l10.12,6.72v1.27l-3.57-2.38v1.24l-4.22-2.75v-1.27l-2.36-1.56s.02-1.27,.02-1.27Zm-2.41,.07l4.34,2.9,.07,11.61-4.56-3.1s.15-11.41,.15-11.41Zm37.28,.45l6.33,1.81-3.92,1.34-2.41-3.15Zm-38.15,.07l.45,.3-.02,2.36-.45-.3s.03-2.36,.03-2.36Zm-3,.57l2.85,1.89v.03l.07,.02,.5,.32-.02,2.26-3.42-2.23s.02-2.28,.02-2.28Zm4.44,.37v9.57l3.08,2.21-.1-9.77s-2.98-2.01-2.98-2.01Zm.25,.45l2.48,1.74,.1,9.18-2.58-1.91V15.43Zm42.81,.89c.05,.9,.08,1.82,.1,2.68l-2.93,.97v-1.64l-.74,.25v-1.04s3.57-1.22,3.57-1.22Zm-47.55,.77l2.7,1.76v1.93l-2.73-1.79s.03-1.91,.03-1.91Zm28.28,.32l2.85,3.94-7.39,2.51s4.54-6.45,4.54-6.45Zm15.55,.17l.03,1.04-4.29,1.49-.03,1.54-4.41,1.46,.02-2.55s8.68-2.98,8.68-2.98Zm-35.17,.17l1.76,1.17v2.36l-1.76-1.17v-2.36Zm35.62,1.14v11.61l-4.44,1.34,.17-11.33s4.27-1.61,4.27-1.61Zm-41.42,.02l.6,.4-.03,1.93-.6-.4,.03-1.93Zm7.71,.1l2.31,1.51-.02,2.33-2.31-1.51s.02-2.33,.02-2.33Zm37.11,.12l.12,2.53-3.07,.99v-2.55c.98-.33,1.97-.65,2.95-.97Zm-47.7,.05l3.45,2.26v1.86l-3.47-2.26s.02-1.86,.02-1.86Zm13.32,.52l4.34,2.9,.07,11.61-4.56-3.1,.15-11.41Zm3.3,.55l6.28,4.17-.02,2.46-4.81-3.17v-1.24l-1.46-.97,.02-1.24Zm26.94,0l-2.98,1.02v9.42l3.07-.92s-.1-9.52-.1-9.52Zm-34.87,.05l1.76,1.17v.02l2.43,1.59-.02,2.18-4.17-2.73s0-2.23,0-2.23Zm26.34,.32v2.53l-2.75,.92v-1.76l-5.16,1.79-.02,1.69-.52,.17,.02-2.46,8.43-2.88Zm8.18,.15l.22,8.76-2.58,.79-.05-8.9s2.41-.65,2.41-.65Zm-29.32,.4v9.57l3.08,2.21-.1-9.77s-2.98-2.01-2.98-2.01Zm-13.91,.05l2.75,1.81v2.46l-2.8-1.84,.05-2.43Zm14.16,.4l2.48,1.74,.1,9.18-2.58-1.91v-9Zm25.42,.2v2.53l-7.29,2.36v-2.48s7.29-2.41,7.29-2.41Zm8.26,0l.1,2.06-3.17,1.02v-2.06l3.07-1.02Zm-39.14,.92l1.84,1.22h-.07v1.86l-1.76-1.14v-1.94Zm23.14,.15v11.61l-4.44,1.34,.15-11.34,4.29-1.61Zm-28.95,.25l.57,.37-.02,1.64,5.26,3.65v-1.84l1.76,1.14v2.48l-7.59-4.99s.03-2.46,.03-2.46Zm23.56,.42v2.41l.07,.02-3.2,1.04,.02-2.41s3.1-1.07,3.1-1.07Zm-26.51,.3l6.03,3.99v1.12l-6.05-4.22s.02-.89,.02-.89Zm18.13,.1l1.74,1.14v2.36l-1.74-1.14v-2.36Zm-7.47,.05l2.26,1.49-.02,1.89-2.26-1.46,.02-1.91Zm37.33,.02l.12,2.18-3.3,1.09v-2.23l3.17-1.04Zm-16.84,.22l-2.98,1.02v9.43l3.08-.92-.1-9.52Zm8.48,.25l-.02,2.08-4.39,1.41,.02-2.08,4.39-1.41Zm-8.83,.27l.2,8.76-2.58,.82-.02-8.9s2.41-.67,2.41-.67Zm-22.05,.12l1.76,1.14v.05h.07l2.31,1.51v1.84l-4.14-2.68s0-1.86,0-1.86Zm-9.13,.22l2.43,1.69-11.38,8.16-3.22-2.08,12.18-7.76Zm20.39,.07l2.93,1.93-.02,2.33-2.93-1.94s.03-2.33,.03-2.33Zm7.14,.72v2.46l-3.8,1.24,.03-2.43,3.77-1.27Zm7.94,.05v2.08l-2.75,.89v-2.08l2.75-.89Zm13.02,.42l.07,1.81-3.37,1.12v-1.86s3.3-1.07,3.3-1.07Zm-29.99,.15l4.76,3.15-.02,2.08-4.74-3.1s0-2.13,0-2.13Zm21.48,.22l-.02,2.26-7.24,2.36v-2.28l7.27-2.33Zm-37.35,.2l3.55,2.48-11.26,8.01-3.75-2.41s11.46-8.09,11.46-8.09Zm3.92,.99l10.32,6.82v1.51l-10.34-7.22s.02-1.12,.02-1.12Zm4.49,.25l2.23,1.46-.02,1.69,5.26,3.65v-1.89l1.79,1.17v2.53l-9.28-6.13,.02-2.48Zm37.55,.15l.1,2.33-5.26,1.71-2.68,.3,.02-.55,4.42-1.41v-1.27s3.4-1.12,3.4-1.12Zm-21.06,.17l-.03,2.11-.47,.15v-2.11s.5-.15,.5-.15Zm-.65,.2l.02,2.11-3.2,1.04,.02-2.11s3.15-1.04,3.15-1.04Zm-8.38,.17l1.74,1.14v1.91l-1.74-1.14s0-1.91,0-1.91Zm21.46,.27l-.03,1.86-4.44,1.44,.02-1.86s4.44-1.44,4.44-1.44Zm9.08,.32l1.34,.92-1.32-.15s-.02-.77-.02-.77Zm-42.66,.07l3.32,2.31-11.11,7.94-3.55-2.28,11.33-7.96Zm14.01,.57l2.85,1.89-.02,1.89-2.85-1.89,.03-1.89Zm28.7,.35l1.59,.15,5.68,3.92-17.44-.64-.89-.62,11.11-1.26-.05-1.54Zm-13.72,.17v1.86l-2.65,.87v-1.86l2.65-.87Zm-7.86,.07l-.05,4.41-3.82,1.24,.1-4.42,3.77-1.24Zm21.18,.12l.05,.94-4.56,.52s4.51-1.46,4.51-1.46Zm-30.19,.17l4.71,3.1-.02,1.81-4.69-3.05s0-1.86,0-1.86Zm21.43,.15v1.24l.7-.22v.52l-3.42,.37-5.43,3.1v-1.17l.94-.3v-1.19s7.22-2.36,7.22-2.36Zm-30.06,.84l3.6,2.5-10.96,7.81-3.79-2.43s11.16-7.89,11.16-7.89Zm-22.52,1.36l4.02,2.6v2.28l-3.99-2.6h-.03s0-2.28,0-2.28Zm49.83,.12l1.02,.69-23.04,16.27-4.22-2.7,10.72-7.54,1.71,1.19s13.82-7.91,13.82-7.91Zm2.06,.64l17.29,.52,5.21,3.6-19.84-2.26s-2.65-1.86-2.65-1.86Zm-.87,.17l2.8,1.91-21.73,17.02-4.19-2.7s23.12-16.22,23.12-16.22Zm-17.93,.05l2.75,1.81-.02,2.5-2.75-1.81,.02-2.5Zm-6.77,.27l3.7,2.58-10.79,7.74-3.94-2.55s11.04-7.76,11.04-7.76Zm3.35,.22l6.15,4.07-.03,1.71-1.27-.87-3.89-2.73-.02-.02-.15-.12-.03,.02-.79-.57s.03-1.49,.03-1.49Zm14.61,.2l.02,1.17-7.99,2.58,.03-2.33,3.77-1.24v1.17s4.17-1.34,4.17-1.34Zm-44.27,.77l7.74,5.04v2.63l-.25-.17v-1.96l-5.16-3.42-.02,2.03-2.31-1.51v-2.63Zm4.17,.25l7.69,4.96v2.31l-7.71-5.01s.02-2.26,.02-2.26Zm50.2,.25l8.38,1.04,3.4,4.51-6.42,2.21-5.36-7.76Zm-.17,.12l5.41,7.66-6.23,2.16-4.14-5.85-.15,.15,4.17,5.73-7.37,2.53-2.7-3.62,6.05-4.79s4.96-3.97,4.96-3.97Zm-10.39,.07l-4.12,2.36v-1.02s4.12-1.34,4.12-1.34Zm-13.62,.82l3.92,2.73-10.64,7.61-4.14-2.68s10.86-7.66,10.86-7.66Zm32.89,.05l7.34,.92,1.32,1.64-5.46,1.89s-3.2-4.44-3.2-4.44Zm-23.54,.52l.02,1.04-3.27,1.86,.02-1.86s3.22-1.04,3.22-1.04Zm31.16,.42l4.24,.52-3.05,1.04-1.19-1.56Zm-67.94,.27l4.34,2.9,.07,14.39-3.03-2.06,.02-.82,2.23,1.61-.1-12.5-2.98-2.01v12.3l.69,.5v.84l-1.41-.97,.15-14.19Zm-2.75,.05l.15,.1v2.31l-.15-.1v-2.31Zm.3,.2l2.01,1.31v2.31l-2.03-1.34s.03-2.28,.03-2.28Zm75.25,.1l.02,3-9.13,3.1,.02-2.9s9.08-3.2,9.08-3.2Zm-71.98,1.61l2.48,1.74,.1,11.91-2.58-1.91v-11.73Zm4.32,.4l8.58,5.58v.57l-4.41-2.93-.02,2.11-4.17-2.73s.02-2.6,.02-2.6Zm4.12,.17l8.78,5.68v2.33l-8.81-5.73s.03-2.28,.03-2.28Zm-12.01,.02l2.31,1.51-.02,2.7-2.31-1.49s.02-2.73,.02-2.73Zm75.58,.94l.02,2.5-4.54,1.54,.03-2.53,4.48-1.51Zm-9.25,.1v2.88l-8.66,2.95,.02-2.8,2.16-.74,.02-.03s6.45-2.26,6.45-2.26Zm-58.83,1.34l4.41,2.88h-.05v2.26l-4.39-2.83,.02-2.31Zm63.45,.12v2.53l-9.06,3.08,.02-2.53,9.03-3.08Zm-70.96,.42l.17,.12v2.41l-.07-.05-.1,.03s0-2.5,0-2.5Zm.32,.2l1.98,1.29-.03,2.41-1.98-1.29,.03-2.41Zm75.3,.5l.02,2.46-9.22,3.13,.02-2.48s9.18-3.1,9.18-3.1Zm-63.12,.07l4.34,2.9,.07,14.39-4.56-3.1s.15-14.19,.15-14.19Zm45.07,.42v2.8l-4.64,1.56h-.12v.05l-4.39,1.49,.02-2.68,9.13-3.22Zm-14.53,.05l2.73,3.55-7.59,2.63-1.12-1.41s5.98-4.76,5.98-4.76Zm-35.54,.72l.27,.17v2.7l-.27-.17v-2.7Zm.42,.27l4.14,2.7-.02,2.68-4.14-2.7,.02-2.68Zm5.16,.05v12.3l3.08,2.21-.1-12.5s-2.98-2.01-2.98-2.01Zm-1.04,.1l.02,.02v2.31l-.05-.02,.03-2.31Zm4.61,.17l8.04,5.26v.47l-2.48-1.64v2.16l-4.96-3.25v-2.03l-.62-.4s.02-.57,.02-.57Zm-16.64,.05l2.28,1.49v2.6l-2.28-1.46v-2.63Zm61.79,.1v2.53l-8.85,3,.02-2.53,8.83-3Zm-48.47,.02l2.48,1.74,.1,11.91-2.58-1.91v-11.73Zm7.64,.1l8.04,5.18v2.38l-8.06-5.23s.03-2.33,.03-2.33Zm54.69,.47l.02,2.75-4.59,1.56,.03-2.78s4.53-1.54,4.53-1.54Zm-9.35,.55v2.48l-8.61,2.9,.02-2.48,8.58-2.9Zm-18.01,.62v2.68l-8.66,2.93,.02-2.58,6.45-2.26s2.18-.77,2.18-.77Zm-40.8,.4l4.39,2.88v2.41l-4.39-2.85s0-2.43,0-2.43Zm63.47,.03v2.75l-1.21,.42-1.52-1.17c-.41,.17-1.37,.28-.77,1.56l.32,.25-2.9,.99v-.79l-2.93,.99,.02-1.96s8.98-3.05,8.98-3.05Zm-70.96,.55l.17,.1v2.43l-.17-.12v-2.41Zm.32,.2l1.96,1.27-.02,2.03,1.79,1.22v.32l-3.75-2.43,.03-2.41Zm52.48,.12v2.5l-8.95,3.05,.02-2.53,8.93-3.03Zm-35.57,.02c1.19,.78,2.38,1.55,3.57,2.33v2.28l-3.6-2.31s.02-2.31,.02-2.31Zm19.67,.35l1.09,1.34-4.91,1.69,3.82-3.03Zm38.76,.1l.03,2.53-3.52,1.19-2.31-1.79s5.8-1.94,5.8-1.94Zm-18.1,.57v2.48l-9.15,3.1,.02-2.48,9.13-3.1Zm10.77,.42l11.51,9.1c.22,.39,.42,1.05-.35,.74l-.44-.32,.59-.42-.37-.17-.48,.4-10.94-8.16c-.63-.68-.03-1.15,.47-1.17Zm-45.71,.1l4.34,2.9,.07,14.39-4.56-3.1s.15-14.19,.15-14.19Zm-15.13,.17l.27,.17v2.63l-.3-.2,.02-2.6Zm32.02,.05v2.58l-6.99,2.36-.02-2.46,7.02-2.48Zm-31.6,.22l4.09,2.68v2.58l-4.12-2.65,.02-2.6Zm16.92,.12l6.9,4.51,.02,2.6-4.39-2.88v-2.06l-2.55-1.69s.02-.5,.02-.5Zm37.01,.1v1.96l-8.9,3.03,.02-1.98s8.88-3,8.88-3Zm-61.84,.05l7.84,5.11h-.07v2.11l-7.76-5.16v-2.06Zm29.14,.05l2.55,1.66,.02,2.41-2.6-1.69,.02-2.38Zm-8.18,.12c.4,.26,.81,.53,1.22,.79v2.26l-1.24-.79,.03-2.26Zm-3.75,.1c1.64,1.06,3.28,2.11,4.91,3.17l.03,2.73-4.94-3.22v-2.68Zm5.98,.52v12.3l3.08,2.21-.1-12.5-2.98-2.01Zm20.54,0v2.53l-7.96,2.7,.02-2.55,7.94-2.68Zm24.23,0l2.3,1.76-3.82,1.29,.02-2.55,1.49-.5Zm7.74,.1v2.43l-1.17,.4-2.18-1.71,3.35-1.12Zm-76.22,.17v1.34l32.57,21.73,19.5-6.92,3.47,2.75v.05l-2.95,1.1,4.39,4.06-19.35,6.99L.84,55.16l5.66-1.96Zm23.96,.17l2.48,1.74,.1,11.91-2.58-1.91v-11.73Zm42.89,.1v2.55l-1.46,.5,.02-2.55,1.44-.5Zm-1.96,.27v10.39l-.47,.2-.15-10-7.66,2.58,.05,10.17-.72,.25v-10.14l-7.74,2.75v10.1l-.6,.22v-10.62l17.29-5.9h0Zm-16.07,.3v2.48l-5.85,1.98-.1-.05v.07l-2.7,.92,.02-2.48,8.63-2.93Zm-44.13,.3l3.3,2.23v-2.18l4.41,2.88v2.38l-7.71-5.01v-.3Zm59.33,.4v.57l-6.97,11.14v-1.02l6.65-10.59,.32-.1Zm6.92,.05l.55,.42-.06,1.88-6.05,2.03v-2.46l5.56-1.89Zm-7.42,.12l-6.5,10.27v-1.14l5.56-8.8,.94-.32Zm-10.19,.22v1.96l-6.18,2.11v.79l-2.78,.94,.02-2.78,8.93-3.03Zm9.08,.15l-5.38,8.53v-1.14l4.44-7.07s.94-.32,.94-.32Zm-44.67,.02c1.18,.77,2.41,1.58,3.6,2.36v2.38l-3.6-2.33v-2.41Zm54.15,.2l6.87,5.23,.06,3.99-7.07-4.69,.15-4.54Zm-7.86,.03l.02,1.07-6.42,10.14-.57,.2v-.25s6.97-11.16,6.97-11.16Zm-69.9,.07l43.31,29.22,.07,3.97L.64,59.6l-.02-3.99h0Zm82.1,.02l.02,1.12-1.02-.77,.99-.35Zm-40.06,.02v2.53l-3.13,1.07v-2.53s3.13-1.07,3.13-1.07Zm25.1,.02l-4.24,6.75-.02-1.12,3.37-5.33,.89-.3Zm-1.09,.37l-3.17,5.01v-1.24l2.16-3.42,1.02-.35Zm-32.29,.42l1.64,1.07v2.31l-1.64-1.07v-2.31Zm31.08,0l-1.96,3.1-.03-1.27,.97-1.49s1.02-.35,1.02-.35Zm5.08,.35v1.14l-5.33,8.38-.87,.32s6.2-9.85,6.2-9.85Zm-6.32,.07l-.74,1.17v-.92l.74-.25Zm-17.69,.12v2.48l-2.11,.72-.07-.07-.1,.12-4.69,1.59-.02-2.45s6.99-2.38,6.99-2.38Zm31.4,.22l-.05,2.58-4.44,1.49,.02-2.55,4.46-1.51Zm-63,.05l8.58,5.58v2.31l-8.61-5.73s.02-2.16,.02-2.16Zm21.23,.35l2.6,1.71,.02,2.28-2.65-1.71s.02-2.28,.02-2.28Zm25.92,0v.82l-.64-.6,.64-.22Zm-34.08,.12c.38,.25,.81,.53,1.17,.77l-.03,2.36-1.19-.77,.05-2.36Zm-3.77,.17l4.91,3.17v2.58l-4.94-3.17,.02-2.58Zm37.01,0l.84,.77,.03,1.27-1.84-1.69s.97-.35,.97-.35Zm9.3,.25l.03,1.19-4.19,6.55-.97,.35,5.13-8.09Zm-19.79,.02v2.78l-.07,.02-.22-.72-.69-.32,.52-1.09-.64-.3,1.12-.37Zm9.33,.15l2.03,1.86v1.24l-3-2.75s.97-.35,.97-.35Zm19.47,.07l-.08,2.16,3.22,1.98,2.02-1.44-1.52,.22,.2-1.24-1.17,.35-.07-1.88-.84,1.34-.63-1.24-.47,.99-.67-1.24h0Zm-30.21,.25l-.05,1.09-.52-.25-.47,.47,.84,.42-.65,1.34-1.17,.4-1.39-.92,.79-.89-.94,.03-.52,.6-.72-.65s4.79-1.64,4.79-1.64Zm.25,.03l.47,.3-.4,.72-.17-.07,.1-.94Zm9.33,.07l3.2,2.93,.02,1.22-4.17-3.82s.94-.32,.94-.32Zm14.41,.02v2.55l-1.46,.5,.02-2.55s1.44-.5,1.44-.5Zm-38.94,.2l4.41,2.88,.03,2.7-4.44-2.9s0-2.68,0-2.68Zm23.39,.17l4.37,3.97v1.24l-5.31-4.86,.94-.35Zm-38.74,.12l5.18,3.47v-2.06l3.62,2.36v2.38l-8.81-5.73s0-.42,0-.42Zm37.63,.3l5.48,5.01v1.14l-6.35-5.85,.87-.3Zm13.92,0v1.19l-3,4.74-.99,.35,3.99-6.28Zm-21.8,.12l1.61,.69,.25,.6-1.36-.69-.05-.02-.74-.37,.3-.2Zm6.8,.25l6.6,6v1.09l-7.07-6.55v-.37s.47-.17,.47-.17Zm22.32,.02v.37l.13,.07v1.41l-6.15,2.16v-1.98s6.03-2.03,6.03-2.03Zm-24.23,.15v2.58l-3.6,1.22-1.14-.77,.47-1.59,1.27-.42,.1,.05-.02-.07s2.93-.99,2.93-.99Zm-9.23,.27l.6,.57-.15,.15-.84-.35,.4-.37Zm2.08,0l-1.04,1.12-.05,.05-.52,.6-.12-.35,1.09-1.34s.64-.07,.64-.07Zm-2.45,.07l-.35,.42,1.24,.45-.37,.45,.32,.57,.64-.69,.87,.77-3.62,1.24,.02-2.78s1.24-.42,1.24-.42Zm5.18,.02l.17,.05,.15,.05-.77,2.48-.32-.22,.3-.84-.05-.02-.3,.84-.2-.12s1.02-2.21,1.02-2.21Zm28.92,.02l1.26,.82-1.29,.45s.02-1.27,.02-1.27Zm-28.48,.12l.79,.42-1.04,.35s.25-.77,.25-.77Zm5.41,.1l7.07,6.52v.15l-.67,.22-6.37-5.88s-.02-1.02-.02-1.02Zm-12.43,.2v2.78l-3.08,1.04-.02-2.78s3.1-1.04,3.1-1.04Zm27.93,.07v1.22l-1.81,2.83-1.02,.37s2.83-4.42,2.83-4.42Zm15.11,.02l.87,.67c.36-.08,.56-.23,.7-.4l7.09,5.01-16.47,6.15-4.79-4.39-2.9,1.07-3.45-2.73,13.25-4.71,5.71,3.72v-4.39h0Zm-39.86,.27l5.41,3.6,.64,.99,.03,.07-4.94-3.52-.05,.05,4.89,3.6-1.36-.35-4.81-4.19,.1-.12,.1-.12h0Zm-11.46,.6l1.64,1.07v2.36l-1.64-1.07v-2.36Zm14.01,.03l-.32,.67-.57-.37,.89-.3Zm6.72,.07l6.23,5.71-.92,.32-5.31-4.84s0-1.19,0-1.19Zm15.48,.45l.02,1.22-.64,.97-.99,.35,1.61-2.53Zm-24.06,.1v2.53l-3.79,1.31h-.07v.03l-3.08,1.04v-2.55l6.94-2.36h0Zm.15,.12l.97,.84v.02l-.72,1.44-.27,.1,.02-2.41Zm6.97,.17l-.02,2.46-1.66,.57-.57-1.09-.5-.32v-.67s2.75-.94,2.75-.94Zm-29.99,.1l8.09,5.28v2.38l-8.11-5.38,.02-2.28Zm12.5,.12l2.68,1.74,.02,2.38-2.73-1.79s.02-2.33,.02-2.33Zm-8.18,.07l1.17,.77-.02,1.88,5.26,3.5v-1.96l1.64,1.07v2.35l-8.06-5.23,.03-2.38Zm27.13,.3l5.08,4.66-.89,.32-4.19-3.84v-1.14Zm-7.34,.2l.22,.22-1.41,3.79-.02-1.41,1.22-2.6Zm2.98,.2v.52l-.52-.35s.52-.17,.52-.17Zm-2.65,.07l.3,.3-.82,2.58-.87,.99,1.39-3.87Zm22.52,0v.5l-.42,.15s.42-.64,.42-.64Zm-22.07,.42l1.81,1.61,.4,.07v.25l-3.65,1.22,.65-.6s.79-2.55,.79-2.55Zm-14.16,.17l4.49,2.93,.03,2.58-4.51-2.93s0-2.58,0-2.58Zm20.74,.35l3.97,3.62-.84,.32-3.1-2.83-.02-1.12Zm-8.26,.3l-.52,1.07,.15,1.51-3.7,1.24,.02-2.45s4.04-1.36,4.04-1.36Zm6.77,.3v2.58l-6.97,2.35,.02-2.48,.17-.15,4.64-1.59,.7,.15-.17-.32,1.61-.55Zm-2.75,.6l.35,.07-.35,.12v-.2Zm4.27,.17l2.88,2.63-.97,.34-1.91-1.73v-1.24Zm11.43,.25l3.45,2.73-7.84,2.88v-.07l-3.45-2.75,7.84-2.78Zm-23.91,.1v2.45l-3.05,1.05-.03-2.46s3.08-1.04,3.08-1.04Zm52.46,.05l.05,4.47-17.18,6.08v-4.44s17.14-6.1,17.14-6.1Zm-39.98,1.12l1.69,1.54-.99,.37-.67-.63-.03-1.29Zm-8.66,.17l.02,.17,.02-.03v2.38l-6.92,2.33v-2.56s6.87-2.3,6.87-2.3Zm7.14,.27v2.24l-2.75,.96,.02-2.28,2.73-.92Zm-21.73,.12l7.02,4.59,.02,2.51-7.07-4.69s.02-2.41,.02-2.41Zm4.27,.2l2.73,1.76,.02,2.38-2.78-1.81s.02-2.33,.02-2.33Zm36.68,.02l.1,1.52-2.36,.84-.15-1.49s2.41-.87,2.41-.87Zm.32,0l4.42,4.14,.05,3.55-.79-.37-.07-.97-1.24-.72-.03-1.17-1.09-.59,.02-1.47-1.19-.75-.07-1.66Zm-22.42,.62v2.29l-7.96,2.83,.02-2.43,7.94-2.68Zm4.42,.13l.47,.42-.47,.17v-.6Zm15.11,.2l.17,1.46-8.01,2.85-.05-.05-.15-1.33s8.04-2.93,8.04-2.93Zm2.7,.87l1.02,.67-2.31,.83-.97-.7,2.26-.79Zm-2.41,.84l.94,.7-7.91,2.8v-.07l-.89-.65s7.86-2.78,7.86-2.78Zm3.6,.06v1.09l-2.13,.77-.17-1.04s2.31-.82,2.31-.82Zm-31.5,.64v2.43l-3.03,1.06-.02-2.45s3.05-1.04,3.05-1.04Zm29.04,.22l.15,1.04-8.04,2.86-.17-1.07,8.06-2.83Zm-9.62,.35l.15,1.33,.05,.06-1.46,.52-1.17-1.02s2.43-.89,2.43-.89Zm12.3,.07l.74,.4-2.38,.84-.67-.42,2.31-.82Zm.84,.7l.02,.84-2.06,.72-.1-.77-.05-.02,2.18-.77Zm-3.32,.2l.67,.42-7.81,2.8-.67-.48,7.81-2.75Zm-9.35,.6l.92,.69v.02l-1.61,.57-.84-.75,1.54-.54Zm10.34,.02l.05,.02,.07,.79-8.01,2.85-.12-.87s8.01-2.8,8.01-2.8Zm2.53,.27l.82,.52-2.21,.79-.77-.55,2.16-.77Zm-11.93,.67l.15,1.07v.02l-.67,.22-.92-.82,1.44-.5Zm12.95,.13l-.02,.7-2.11,.71-.05-.64s2.18-.77,2.18-.77Zm-3.35,.02l.79,.55-7.86,2.8v-.02l-.79-.55,7.86-2.78Zm1.07,.77l.05,.64-8.11,2.78-.05-.6,8.11-2.83Zm2.46,.1l.82,.42-2.36,.82-.74-.42v-.05l2.28-.77Zm-12.7,.25l.69,.44-.84,.3-.57-.5s.72-.25,.72-.25Zm13.74,.4v.79l-2.03,.69,.02-.56-.25-.13s2.26-.79,2.26-.79Zm-3.42,.17v.05l.74,.42-7.91,2.75-.87-.52s8.04-2.7,8.04-2.7Zm-9.5,.07l.07,.87v.03l-.74,.25,.2-.6-.3-.27,.77-.28Zm10.57,.57l.17,.1-.02,.62-8.06,2.78,.02-.72-.02-.02s7.91-2.75,7.91-2.75Zm-11.71,.22v4.39l-19.15,6.92-.1-4.32,19.25-6.99Zm1.49,.28l.84,.56-1.84,.65v-.87l.99-.34Zm.84,.82l.05,.6-1.86,.62-.02-.57s1.84-.64,1.84-.64Zm.12,.82l.89,.47-2.83,.99v-.82l1.93-.64Zm1.19,.67l-.02,.75-3.03,1.04-.05-.69,3.1-1.1Z"/>
    </g>
  </g>
</svg>