<?xml version="1.0" encoding="UTF-8"?>
<svg id="Layer_2" data-name="Layer 2" xmlns="http://www.w3.org/2000/svg" viewBox="0 0 123.12 111.84">
  <defs>
    <style>
      .cls-1 {
        fill: #4a2412;
        fill-rule: evenodd;
      }
    </style>
  </defs>
  <g id="Layer_2-2" data-name="Layer 2">
    <g id="layer1">
      <path id="path3156" class="cls-1" d="M63.72,0l-2.94,1.28,.25,1.66-1.16,.56-.09-.97-1.44-.5-3.03,1.28,.22,1.69-1.16,.47v-.38l-1.41-1.12-4,1.47,.03,11.25-.91,.41,.06,2.44-.31,.09-2.81-1.25-5.09,1.75,.25,2.53-3.22-.75-4.97,1.5,.09,2.44-.06,.03-3.34-1.31-4.78,2.06,.09,2.41-.12,.03-3.56-.66-.28,.22-3.13,1.47v-.09l-2.16-1.53-2.94,1.28,.25,1.66-1.16,.56-.09-.97-1.44-.5-3.03,1.28,.22,1.69-1.16,.47v-.38l-1.41-1.12-4,1.47,.12,35.44,12.47,9.28,2.72-1.22,.06-.12,28.75,20.44,.03,4.84,12.47,9.28,15.25-6.9-.06-3.38,9.94-3.97,1.47,.5,.5-.09,14.32-5.78v-1.06l8.09-3.22,1.75,1.28,15.25-6.91-.56-36.37-3.41-1.28-1.72,.84-.84-.41,.13-1.91-2.88-1.81-1.38,.81,.04,.53-.28-.25-.04-1.88-2.15-1.53-2.94,1.28,.25,1.66-1.16,.56-.09-.97-1.44-.5-.37,.16-3.75-2.5-.1-.09-1.65,1.22-.13-4.75-3.9-2.5-2.12,1.44-.16-3.06-4.28-3.34-2,1-.12-2.38-4.69-2.88-1.62,.69-.47-.25-.16-3.47-2.69-1.66-.19-11.84-3.41-1.28-1.72,.84-.84-.41,.12-1.91-2.87-1.81-1.38,.81,.03,.53-.28-.25-.03-1.88-2.16-1.53h0Zm0,.19l1.94,1.44-1.12,.69-1.06-1-1.25,.69-1.16-.59s2.66-1.22,2.66-1.22Zm-.31,1.34l.13,9.31-1.47,.53-1.19-.78-1.81,.97,.06,.44-.56-.25-.03-2.19-2.81-1.34-1.81,.62-.12-1.72-1.81-1.12,2.09-.78,.06,2.31,3.44-1.53-.31-1.91,2.31-1.16,.22,2.12,2.72-1.12-.28-1.75s1.19-.66,1.19-.66Zm-2.34,.03l1,.56,.22,1.56-1-.75s-.22-1.38-.22-1.38Zm2.56,.03l.66,.81,.06,1.84,2.19,1.5-.06-2.12,2.03,1.31-.06,1.91,1.91,1.16-.34,.12,.06,1.66-2.56-.69-2.59,1.03-.06,1.44-1.09-.78s-.12-9.19-.12-9.19Zm2.09,.16l.06,1.56-1.19,.69-.09-1.5,1.22-.75Zm-7.38,.44l1.28,.44-2.72,1.34-1.19-.59s2.62-1.19,2.63-1.19Zm9.25,.31l2.5,1.62-1.44,.62-2.37-1.5s1.31-.75,1.31-.75Zm-6.47,.62l1.06,.69-2.22,.94-.09-1.06,1.25-.56Zm4.66,.44l.47,.34,.06,1.47-1.59-1.19s1.06-.63,1.06-.63Zm-10.16,.03l1.38,.69,.28,1.34-1.5-.66-.16-1.38Zm-2.66,.59l1.06,.84-2.5,.91,1.69,1.12-1.66,.38-2.38-1.78,3.78-1.47Zm17.25,.06l-.12,1.78-1.44,.72,.06-1.81,1.5-.69Zm-14.47,.91l1.53,.66-2.84,1.25-.03-1.28,1.34-.62Zm17.16,.59l3.19,1.31-3.12,1.59-2.47-.47,1.94-.75-1.5-.59s1.97-1.09,1.97-1.09Zm-23.62,.31l1.97,1.59-.09,2.03,2.63,1.62,.16-2,2.34,1.38-.25,2,3.25,1.5,.06-2.31,2.28,1.25-.22,19.62-2.12-1.34-3.78,.91V16.28l.03-.06h-.03l-3.66-.78-2.59,1.16s.03-10.53,.03-10.53Zm20.94,.16l.66,.38-.59,.28,.03,.88-1.44-.88s1.34-.66,1.34-.66Zm.34,.75l1.41,.47-1.38,.47-.03-.94Zm-16.97,.34l.06,1.44-2.22,.75,.16-1.78,2-.41Zm22.19,.31l.22,10.81-.62-.38-5.19,1.13v19.12l-8.31-5.25,.06-20.09,2.62-.81,.06,1.94,3.44-1.5-.22-1.47,2.25-.91,.12,2.06,2.84-1.38,.03-1.91s2.69-1.38,2.69-1.38Zm-5.56,.66l2.62,.59v1.62l-2.56-.69c-.03-.45-.09-1.05-.06-1.53Zm-14.5,.19l2.62,1.19-1.84,.81-2.53-1.47,1.75-.53Zm-2.06,.47l-.06,2-2.12-1.25,2.19-.75Zm13.88,.34s1.72,.45,2.44,.66l-2.31,1-2.19-.84,2.06-.81Zm-9.25,.66l.06,1.81-2.06,.72,.19-1.75,.03,.09,1.78-.87Zm12.06,.06l2.5,.72-2.41,1.19-.09-1.91Zm-5.25,.25l2.5,.88,.06,1.31c-.54-.16-2.34-.77-2.56-.84v-1.34Zm-4.22,.56l1.22,.78,1.59-.66,.97,.81-2.97,1.16-2.38-1.28s1.56-.81,1.56-.81Zm4.03,.94c.74,.17,1.91,.65,2.69,.88l-2.66,1.03s-.03-1.91-.03-1.91Zm-6.47,.25l.66,.38-.06,1.41-2.47-1.12s1.88-.66,1.88-.66Zm-6.56,3.72l3.19,.69-4,1.66c-.14-.06-1.6-.65-2.5-.97l3.31-1.38Zm3.38,.94l-.06,15.72-7.41,1.78-19.66,10.62,.28,11.22-.78-.47-.34-20.19-3.41-1.28-1.72,.84-.84-.41,.12-1.91-1.91-1.22,4.22-1.81,.09,3.34,3.75-1.56-.19-3.12,4.5-1.94,.25,3.34,4.66-2.09-.31-3.03,3.69-1.59,.19,3.56,4.06-1.94-.38-3.34,3.88-1.25,.19,.09,.12,2.88,3.31-1.25-.28-3.38s3.97-1.62,3.97-1.63Zm-6.94,.59c.78,.26,2.3,.91,2.59,1.03l.28,2.87-2.69-1.41s-.19-2.5-.19-2.5Zm26.97,1.12l3.5,2.09-4.5,1.63-3.78-2.78s4.78-.94,4.78-.94Zm-30.28,.25l2.66,1.09-3.81,1.25-3.38-.84s4.53-1.5,4.53-1.5Zm25.56,1.16l3.56,2.59-.16,3.69,4.03,3.22-.16-3.78,3.56,2.5,.06,3.69,3,2.41-.19-3.69,4.06,3.03v3.34l2.97,2.19,.09-3.06,3.34,2.56-.19,3.5,3.06,1.66-2.34,.88,.22,13.91-1.03-.56-2.38,.91-.16-6.62-21.41-13.59s.03-18.75,.03-18.75Zm-22.09,.22l2.69,1.41-2.59,1.12s-.09-2.53-.09-2.53Zm-8.22,.5l3.47,.81,.31,2.84-3.5-1.5s-.28-2.16-.28-2.16Zm38.47,.28l.25,2.94-4.69,1.81,.09-3.09s4.34-1.66,4.34-1.66Zm-41.78,1.31l2.84,.75-3.44,1.53-3.78-.97s4.38-1.31,4.37-1.31Zm3.62,.78l3.5,1.44-3.28,1.69-.22-3.12Zm40.78,.81l4.09,2.53-3.88,1.56-3.56-2.56,3.34-1.53Zm-48.97,.03l3.91,.97,.25,2.59-.13,.06-4.09-1s.06-2.62,.06-2.62Zm46.75,.34l.28,.19-1.72,.72-.06,3.53-3.22-2.53s4.72-1.91,4.72-1.91Zm-50.44,.78l2.88,1.22-4.38,1.88h-.03l-2.72-1.28s4.25-1.81,4.25-1.81Zm3.41,1.06l.06,.03-.06,.03v-.06Zm53.72,.47l.12,2.53-1.84,.94v.38l-2.31,1.19v-3.41l4.03-1.62Zm-53.66,.16l4.06,1-3.84,1.66s-.22-2.66-.22-2.66Zm-7.87,.34l2.72,1.38,.03-.03,.19,2.69-2.84-1.69-.09-2.34Zm63.97,1.12l3.72,3-3.47,2.19-.03,.06-4.12-3.22,3.91-2.03Zm-73.5,.66l1.94,1.44-1.12,.69-1.06-1-1.25,.69-1.16-.59s2.66-1.22,2.66-1.22Zm5.66,.03l2.97,.62-4.09,1.91-.72-.44-1.38,.81,.03,.53-.28-.25-.03-1.47,3.5-1.72Zm3.75,.78l3,1.69-2.91,1.28-.09-2.97Zm-9.72,.53l.16,9.28-1.5,.56-1.19-.78-1.81,.97,.06,.44-.56-.25-.03-2.19-2.81-1.34-1.81,.62-.12-1.72-1.81-1.12,2.09-.78,.06,2.31,3.44-1.53-.31-1.91,2.31-1.16,.22,2.12,2.72-1.12-.28-1.75s1.19-.66,1.19-.66Zm-2.34,.03l1,.56,.22,1.56-1-.75-.22-1.38Zm2.62,.03l.59,.81,.06,1.84,2.19,1.5-.06-2.12,2.03,1.31-.06,1.91,1.91,1.16-.34,.12,.06,1.66-2.56-.69-2.59,1.03-.06,1.44-.78-.78-.31,.03-.06-9.22Zm2.03,.16l.06,1.56-1.19,.69-.09-1.5,1.22-.75Zm-7.38,.44l1.28,.44-2.72,1.34-1.19-.59s2.62-1.19,2.62-1.19Zm74.72,0l.06,2.75-2.25-1.78,2.19-.97Zm-65.47,.31l2.5,1.62-1.44,.62-2.38-1.5,1.31-.75Zm73.53,.25l.19,3-1.31,1,.16,.44-2.59,1-.12-3.16s3.69-2.28,3.69-2.28Zm-80,.38l1.06,.69-2.22,.94-.09-1.06,1.25-.56Zm47.06,.12l31.25,19.88-21.19-.62-21.22-16.69s11.16-2.56,11.16-2.56Zm-42.41,.31l.47,.34,.06,1.47-1.59-1.19s1.06-.62,1.06-.63Zm-10.16,.03l1.38,.69,.28,1.34-1.5-.66s-.16-1.38-.16-1.38Zm-2.66,.59l1.06,.84-2.5,.91,1.69,1.12-1.66,.38-2.38-1.78,3.78-1.47Zm55.41,.03l-5.78,1.59c-.11-.09-.35-.12-.47-.16,.09,.07,.26,.18,.31,.22l-2.47,.75,.09,.16,2.53-.75c1.47,1.11,2.87,2.32,4.28,3.5l-1.56,.72,.16,.06,1.66-.56c1.04,.87,2.02,1.69,3.13,2.62,3.71,3.15,7.25,6.22,7.25,6.22l.22-.25s-3.66-2.85-7.38-6c-1.05-.89-1.88-1.85-2.88-2.69l2.09-.72,2.09,1.34,.03-.16-1.75-1.31,2.94-1.03,6,4.19-2.5,.62-1.09-.56,.03,.09,.72,.56-1.28,.34,.06,.28,1.53-.56,4.34,3.47-.47,.34,.06,.03,.75-.09,.66,.5,.12-.03-.38-.53,3.16-.41,6.53,4.28-14.16-.81v.09l14.53,.97,1.84,1.22,.03-.03-1.28-1.16h2.25l-.09-.16-2.69-.19-6.78-4.22,1.88-.38-.06-.16-1.94,.25-.97-.41-.06,.06,.84,.47-3.34,.44-4.62-3.53,2.59-.78,1.44,1.12,.06-.06-1.12-1,1.06-.5-.31-.03-1.09,.31-6.06-4.09,1.16-.38-.41-.19-1.06,.38-1.09-.5-.12,.03,.88,.59-2.78,.91-2-1.47-.09,.09,1.72,1.5-2.19,.84c-1.39-1.2-2.88-2.48-4.31-3.62l5.62-1.66v-.06h0Zm-38.16,.03l-.12,1.78-1.44,.72,.06-1.81,1.5-.69Zm73.53,.12l3.34,2.31-3.37,2.78-3.5-2.53,3.53-2.56Zm-88,.78l1.53,.66-2.84,1.25-.03-1.28,1.34-.62Zm17.16,.59l3.19,1.31-3.12,1.59-2.47-.47,1.94-.75-1.5-.59,1.97-1.09Zm23.81,.16l21.31,16.84-8.09,13.22-.03-1.22-2.16-1.53-2.94,1.28,.19,1.19-27.34-19.31s19.06-10.47,19.06-10.47Zm-47.44,.16l1.97,1.59-.09,2.03,2.62,1.62,.16-2,2.34,1.38-.25,2,3.25,1.5,.06-2.31,2.28,1.25-.41,36.22L.56,68.75S.31,34.53,.31,34.53Zm20.94,.16l.66,.37-.59,.28,.03,.88-1.44-.88s1.34-.66,1.34-.66Zm.34,.75l1.41,.47-1.38,.47-.03-.94Zm76.81,.12l.16,4.47-1.1,.94-2.66,.78,.25-3.41s3.34-2.78,3.34-2.78Zm-93.78,.22l.06,1.44-2.22,.75,.16-1.78,2-.41Zm86.53,.16l-.16,2.34-2.06-1.47c.77-.21,1.49-.55,2.22-.87Zm-64.34,.16l.5,19.25-.78-.47-1.63,.69-.47-.25-.16-3.47-3.75-2.31-5.19,1.12v26.22l-2.47,1.12,.09-36.56,2.62-.81,.06,1.94,3.44-1.5-.22-1.47,2.25-.91,.12,2.06,2.84-1.38,.03-1.91s2.69-1.38,2.69-1.38Zm-5.56,.66l2.62,.59v1.62l-2.56-.69c-.02-.46-.09-1.05-.06-1.53Zm-14.5,.19l2.62,1.19-1.84,.81-2.53-1.47,1.75-.53Zm38.44,.12l-1.53,.88c-.3-.24-.81-.47-.91-.56h-.16c.29,.06,.51,.38,.78,.59l-12.59,6.97v.09l12.81-6.94c.57,.44,1.24,1,1.81,1.44-3.01,1.78-6.11,3.79-9.25,5.34,.01,0,.02,0,.03,.03,3.17-1.6,6.22-3.42,9.25-5.25,1.78,1.35,3.71,2.63,5.5,3.97l-2.34,1.97,.16,.06,2.25-1.78c.26,.19,1.19,.88,1.19,.88l.06-.03s-.76-.85-1-1.03l1.12-1.13-.09-.06-1.28,1c-1.76-1.35-3.67-2.79-5.44-4.12,1.63-.99,2.97-1.84,2.97-1.84l-.03-.09s-1.94,1.16-3.06,1.84c-.57-.43-1.13-.87-1.69-1.31l1.47-.81s-.03-.09-.03-.09Zm-40.5,.34l-.06,2-2.12-1.25,2.19-.75Zm13.88,.34s1.72,.45,2.44,.66l-2.31,1-2.19-.84s2.06-.81,2.06-.81Zm-9.25,.66l.06,1.81-2.06,.72,.19-1.75,.03,.09s1.78-.88,1.78-.88Zm12.06,.06l2.5,.72-2.41,1.19s-.09-1.91-.09-1.91Zm-5.25,.25l2.5,.88,.06,1.31c-.54-.16-2.34-.77-2.56-.84v-1.34Zm84.31,.34l3.5,2.34-2.31,.97,.22,1.69-.47,.19-3.62-3.16s2.68-2.03,2.68-2.03Zm9.6,.19l1.93,1.44-1.12,.69-1.06-1-1.25,.69-1.16-.59,2.66-1.22Zm-98.13,.03l1.22,.78,1.78-.72,.94,.88-3.12,1.16-2.38-1.28,1.56-.81Zm4.03,.94c.74,.17,1.91,.65,2.69,.88l-2.66,1.03-.03-1.91Zm-6.47,.25l.66,.38-.06,1.41-2.47-1.12,1.88-.66Zm100.26,.12l.12,9.38-1.47,.47-1.19-.78-1.81,.97,.06,.44-.56-.25-.03-2.19-2.81-1.34-1.81,.62-.13-1.72-1.81-1.13,2.09-.78,.06,2.31,3.44-1.53-.31-1.91,2.31-1.16,.22,2.12,2.72-1.12-.28-1.75,1.19-.66h0Zm-2.35,.03l1,.56,.22,1.56-1-.75-.22-1.38Zm2.53,.06l.69,.78,.06,1.84,2.19,1.5-.06-2.12,2.03,1.31-.06,1.91,1.9,1.16-.34,.13,.06,1.66-2.56-.69-2.59,1.03-.07,1.44-.93-.78-.29,.03-.03-9.19h0Zm2.13,.12l.06,1.56-1.19,.69-.09-1.5,1.22-.75Zm-7.31,.47l1.12,.44-2.53,1.28-1.28-.59s2.69-1.12,2.69-1.12Zm-7.22,.06l.06,2.06-2.44-1.44,2.38-.62Zm.31,.06l3.37,2.94-.5,.19v-.38l-1.4-1.12-1.57,.56,.09-2.19Zm16.09,.16l2.5,1.63-1.44,.62-2.37-1.5s1.31-.75,1.31-.75Zm-6.47,.63l1.07,.69-2.22,.94-.1-1.06,1.25-.56Zm4.66,.44l.47,.34,.06,1.47-1.59-1.19s1.06-.62,1.06-.63Zm-10.16,.03l1.38,.69,.28,1.34-1.5-.66s-.16-1.38-.16-1.38Zm-2.65,.59l1.06,.84-2.5,.91,1.69,1.12-1.66,.38-2.37-1.78s3.78-1.47,3.78-1.47Zm17.25,.06l-.13,1.78-1.44,.72,.07-1.81,1.5-.69Zm-14.47,.91l1.53,.66-2.84,1.25-.03-1.28,1.34-.62Zm17.16,.59l3.18,1.31-3.12,1.59-2.47-.47,1.94-.75-1.5-.59s1.97-1.09,1.97-1.09Zm-74.25,.06s-.87,.59-1.56,1.06l-.91-.72-.12,.09,.88,.72c-1.1,.8-2.33,1.81-3.5,2.5l.03,.06c1.26-.66,2.53-1.59,3.69-2.41l6.53,5.31-1.75,1.56,.06,.09,1.72-1.5,.84,.69,.19-.22-.81-.66,4.84-4.41-.06-.06-5,4.28-6.38-5.12c.64-.44,1.44-1.25,1.44-1.25,0,0-.12-.03-.13-.03Zm-16.53,.12l27.66,19.56v.06l-1.16,.56-.09-.97-1.44-.5-3.03,1.28,.22,1.69-1.16,.47v-.38l-1.41-1.12-4,1.47v4.25l-.09-.03-.12-4.75-3.91-2.5-2.12,1.44-.16-3.06-4.28-3.34-2,1-.12-2.38-1.94-1.19-.38-.25-.16-.09-.31-11.22Zm67.16,.12l1.97,1.59-.09,2.03,2.62,1.62,.16-2,2.34,1.38-.25,2,3.25,1.5,.06-2.31,2.28,1.25-.15,36.34-1.35-.87-.09-29.34,.03-.06h-.03l-3.66-.78-3.75,1.66,.07,2.44-1.1-.44v-1.41l-2.18-1.19-.12-13.41Zm20.94,.16l.65,.38-.59,.28,.03,.87-1.44-.87,1.35-.66Zm.34,.75l1.41,.47-1.38,.47s-.03-.94-.03-.94Zm-16.97,.34l.06,1.44-2.21,.75,.15-1.78s2-.41,2-.41Zm-93.78,.22c-1.06,.28-1.4,.98-1.84,1.91l-.38,2.66,4.5,3.19c-.17-1.61-.13-3.23-.22-4.84,0-1.77-1.1-2.25-2.06-2.91Zm115.97,.09l.72,35.22-14.66,6.68,.1-36.56,2.62-.81,.06,1.94,3.44-1.5-.22-1.47,2.25-.91,.13,2.06,2.84-1.38,.03-1.91s2.69-1.37,2.69-1.37Zm-115.91,.34c.85,.39,1.62,1.53,1.62,2.59,0,.68,.26,2.88,.28,3.87l-3.69-2.5c.09-.69,.28-1.84,.41-2.38-.21-.65,.64-1.38,1.37-1.59Zm110.35,.31l2.62,.59v1.62l-2.56-.69c-.02-.46-.09-1.05-.06-1.53Zm-14.5,.19l2.62,1.19-1.84,.81-2.53-1.47s1.75-.53,1.75-.53Zm-2.07,.47l-.06,2-2.12-1.25,2.18-.75Zm13.88,.34s1.72,.44,2.44,.66l-2.32,1-2.18-.84s2.06-.81,2.06-.81Zm-9.25,.66l.06,1.81-2.06,.72,.19-1.75,.03,.09s1.78-.88,1.78-.88Zm12.06,.06l2.5,.72-2.4,1.19-.1-1.91Zm-5.25,.25l2.5,.88,.06,1.31c-.53-.16-2.33-.77-2.56-.84,0,0,0-1.34,0-1.34Zm-49.75,.06l-4.78,4.34-2.72-2.41-.09,.06,2.66,2.38-5.41,4.84,.12,.06,5.53-4.69,1.84,1.66,.09-.16-1.91-1.72,4.75-4.31s-.09-.06-.09-.06Zm-41.22,.47l3.5,2.09-4.5,1.62-3.78-2.78,4.78-.94Zm86.75,.03l1.22,.78,1.6-.66,.96,.81-2.96,1.16-2.38-1.28s1.56-.81,1.56-.81Zm4.04,.94c.74,.17,1.91,.65,2.68,.88l-2.65,1.03s-.03-1.91-.03-1.91Zm-6.47,.25l.65,.38-.06,1.41-2.47-1.12s1.88-.66,1.88-.66Zm-89.04,.19l3.56,2.59-.16,3.69,4.03,3.22-.16-3.78,3.56,2.5,.06,3.69,3,2.41-.19-3.69,4.06,3.03v3.34l2.97,2.19,.09-3.06,3.34,2.56-.19,3.5,3.38,2.06-.12-2.62,1.09,1.06,.06,23.28-28.47-20.25s.06-25.72,.06-25.72Zm53.56,.06l21.87,.75-27.41,12.66-1.16-.72-1.38,.81,.03,.53-.28-.25v-.22l8.31-13.56h0Zm12.19,.91l-.06,.16,.66,.97-4.25,1.91-1.41-1.62-.09,.03,1.22,1.72-4.47,2.03-3.19-4.88-.12,.06,3.03,4.91-3.81,1.72-1.06-2.09-.12,.06,.91,2.16-3.91,1.78,.03,.09,3.91-1.72,.75,1.38h.09l-.53-1.53,3.84-1.69,.41,.41,.09-.16-.19-.38,4.44-2.03,.78,1.06,.16,.03-.75-1.16,4.44-2.06,1.41,1.72,.16-.03-1.25-1.66,1.47-.88-.06-.06-1.62,.72-.88-.97h0Zm-57.59,.03l.25,2.94-4.69,1.81,.09-3.09s4.34-1.66,4.34-1.66Zm67.69,0l.19,6.66-1.56,.59-.44,.19-.41,.16,.22,2.47-2.06,.91-2.69-1.66-6.53,2.72-.13,2.91-3.41,1.47,.09,2.41-.12,.03-3.38-.62-.03-1.91-3.41-1.28-1.72,.84-.84-.41,.12-1.91-1.53-.97,27.62-12.59h0Zm-27.62,.5l-7.16,7.88h.09l7.09-7.88h-.03Zm-37.44,2.41l4.09,2.53-3.88,1.56-3.56-2.56s3.34-1.53,3.34-1.53Zm-2.22,.38l.28,.19-1.72,.72-.06,3.53-3.22-2.53s4.72-1.91,4.72-1.91Zm78.44,2.22l3.18,.69-4,1.66c-.14-.06-1.59-.65-2.5-.97l3.32-1.38Zm-71.75,.09l.12,2.53-1.84,.94v.38l-2.31,1.19v-3.41s4.03-1.62,4.03-1.62Zm63.44,.31l3.28,1.84-4.91,2.09,.09,1.62-3-1.41-.19-2.12s4.72-2.03,4.72-2.03Zm20.85,.22c-1.27,1.04-1.74,2.38-2.1,3.91l.03,4.12,5.5-2.19c-.13-1.11-.32-2.2-.59-3.28-.67-1.07-1.36-2.14-2.84-2.56Zm-9.16,.31l.09,28.84-8.09,3.22-.06,.13-.13-28.75,.03,.06,1.03-.34,.13,3.09,3.31-1.25-.28-3.38s3.97-1.62,3.97-1.62Zm9.34,.03c.94,.41,1.84,1.45,2.1,2.16,.24,.68,.73,2.27,.84,3.09l-4.78,1.91c-.04-.89-.02-2.95,.06-3.75,.1-.94,.9-2.47,1.78-3.41Zm-16.28,.56c.78,.26,2.3,.9,2.6,1.03l.28,2.88-2.69-1.41s-.19-2.5-.19-2.5Zm-65.75,.19l3.72,3-3.47,2.19-.03,.06-4.12-3.22,3.91-2.03Zm64.31,.75v1.09l.06,30.66-2.13,.87-.09-14.4c-1.37-1.35-2.86-1.93-4.75-2.09-2.02,1.14-3,3.4-3.91,5.59l-.12,14.5-3.16,1.28-.38-31,5-2.22,.25,1.94,4.56-2.28v-1.84s4.66-2.09,4.66-2.09Zm.18,1.19l.85,.34-.85,.19v-.53Zm-39.12,.47l1.94,1.44-1.12,.69-1.06-1-1.25,.69-1.16-.59,2.66-1.22Zm26.09,.03l3.44,2.22-5.31,2.34-4.28-2.12,6.16-2.44Zm14.47,.16l2.66,1.38-2.6,1.12s-.06-2.5-.06-2.5Zm-70.09,.06l.06,2.75-2.25-1.78,2.19-.97Zm60.62,.41l3,1.44-4.12,1.94-.06-1.66-.03-.34-.81-.41s2.03-.97,2.03-.97Zm-52.56,.16l.19,3-1.31,1,.16,.44-2.59,1-.12-3.16s3.69-2.28,3.69-2.28Zm21.16,.53l-.03,.06v9.31l-1.31,.47-1.19-.78-1.81,.97,.06,.44-.56-.25-.03-2.19-2.81-1.34-1.81,.62-.12-1.72-1.81-1.12,2.09-.78,.06,2.31,3.44-1.53-.31-1.91,2.31-1.16,.22,2.12,2.72-1.12-.28-1.75,1.19-.66h0Zm-2.34,.03l1,.56,.22,1.56-1-.75-.22-1.38Zm2.5,.06l.72,.78,.06,1.84,2.19,1.5-.06-2.13,2.03,1.31-.06,1.91,1.91,1.16-.34,.12,.06,1.66-2.56-.69-2.59,1.03-.06,1.44-.97-.81-.31,.09s0-9.22,0-9.22Zm2.16,.13l.06,1.56-1.19,.69-.09-1.5s1.22-.75,1.22-.75Zm-7.38,.44l1.28,.44-2.72,1.34-1.19-.59,2.62-1.19Zm9.25,.31l2.5,1.62-1.44,.63-2.38-1.5,1.31-.75Zm-22.72,.12l3.34,2.31-3.38,2.78-3.5-2.53s3.53-2.56,3.53-2.56Zm38.47,.31l4.53,2.16,.28,31-1.19-.28,.16-.06s-.28-.06-.28-.06c0,0-.06-.02-.09-.04l-.31-28.46,.06-.03-.06-.03v-.16l-2.78-1.5c-.04-.05-.08-.09-.12-.16l-.06,.03-.13-2.41h0Zm-22.22,.19l1.06,.69-2.22,.94-.09-1.06,1.25-.56Zm4.66,.44l.47,.34,.06,1.47-1.59-1.19s1.06-.62,1.06-.63Zm-10.16,.03l1.38,.69,.28,1.34-1.5-.66s-.16-1.38-.16-1.38Zm-2.66,.59l1.06,.84-2.5,.91,1.69,1.12-1.66,.38-2.38-1.78,3.78-1.47Zm17.25,.06l-.13,1.78-1.44,.72,.06-1.81s1.5-.69,1.5-.69Zm-14.47,.91l1.53,.66-2.84,1.25-.03-1.28,1.34-.62Zm-7.25,.19l.16,4.5-1.09,.91-2.72,.59,.31-3.22s3.34-2.78,3.34-2.78Zm34.81,.34l2.47,1.41-2.81,1.19h-.03l-2.72-1.28s3.09-1.31,3.09-1.31Zm-42.06,.03l-.16,2.34-2.06-1.47c.77-.21,1.49-.55,2.22-.88Zm31.66,.03l3.19,1.31-3.12,1.59-2.47-.47,1.94-.75-1.5-.59s1.97-1.09,1.97-1.09Zm-23.62,.31l1.97,1.59-.09,2.03,2.62,1.62,.16-2,2.34,1.38-.25,2,3.25,1.5,.06-2.31,2.28,1.25-.41,36.22-11.69-9.06s-.25-34.22-.25-34.22Zm20.94,.16l.66,.38-.59,.28,.03,.88-1.44-.88,1.34-.66Zm.34,.75l1.41,.47-1.38,.47-.03-.94Zm9.5,.25l2.72,1.38,.03-.03,.19,2.69-2.84-1.69-.09-2.34Zm-26.47,.09l.06,1.44-2.22,.75,.16-1.78s2-.41,2-.41Zm32.56,0h.03l.28,28.28-9.72,3.84-.44-28.15,3.22-1.38,.09,3.34,3.75-1.56-.19-3.12s2.97-1.25,2.97-1.25Zm-10.25,.16l.59,35.37-14.66,6.69,.09-36.56,2.62-.81,.06,1.94,3.44-1.5-.22-1.47,2.25-.91,.13,2.06,2.84-1.38,.03-1.91,2.81-1.53h0Zm-5.69,.81l2.62,.59v1.63l-2.56-.69c-.03-.46-.09-1.05-.06-1.53Zm-14.5,.19l2.62,1.19-1.84,.81-2.53-1.47s1.75-.53,1.75-.53Zm-2.06,.47l-.06,2-2.12-1.25,2.19-.75Zm22.62,.12l2.88,.59-2.84,1.25-.03-1.84Zm-8.75,.22s1.72,.44,2.44,.66l-2.31,1-2.19-.84,2.06-.81Zm12.41,.53l3,1.69-2.91,1.28-.09-2.97Zm-21.66,.12l.06,1.81-2.06,.72,.19-1.75,.03,.09s1.78-.88,1.78-.88Zm-9.28,.03v1.84l-1.16-.94,1.16-.91Zm21.34,.03l2.5,.72-2.41,1.19s-.09-1.91-.09-1.91Zm-5.25,.25l2.5,.87,.06,1.31c-.54-.16-2.34-.77-2.56-.84,0,0,0-1.34,0-1.34Zm-4.22,.56l1.22,.78,1.56-.66,1,.81-2.97,1.16-2.38-1.28s1.56-.81,1.56-.81Zm-13.28,.31l.06,2.06-2.44-1.44s2.37-.63,2.37-.63Zm17.31,.63c.74,.17,1.91,.65,2.69,.87l-2.66,1.03s-.03-1.91-.03-1.91Zm-6.47,.25l.66,.37-.06,1.41-2.47-1.12s1.88-.66,1.88-.66Zm37.47,3c1.58,.06,3.38,1.1,4.31,1.94v14.35l-7.84,3.22-.31-14.07c.87-2.08,2.32-4.49,3.84-5.44Zm1,.5l.12,1.25-1.38,.37-.03-1.41-1.09,.78v.69l-.31,.16,.03,1.09h.47l-.06,1.69-.53,.19-.06-1.62-1.16,.97-.09,1.12-.38,.22-.03,1.22,.41-.06v1.25l-.47,.16,.06,1.25h.59l-.16,1.44-.37,.12v1.32l.41-.07v1.22l-.38,.13,.06,1.37,.31-.09v1.18l-.31,.1v1.47l.31-.16,.03,.94,1.25-.44v-1.03l.59-.25,.09,1.19,1.22-.41-.03-1.31,.84-.34,.03,1.24,1.22-.5s.06-.86,.06-1.28l.34-.15,.06,1.28,1.19-.56s.03-.82,.03-1.22l.22-.22,.03-1.28-.25,.09v-.78l.22-.12v-1.25h-.22c0-.43,0-.75,0-1.31l.31-.09-.06-1.09-.28-.09c-.06-.43,.03-1.08,.03-1.56l.25-.09-.03-1.09-.25,.03c-.06-.29,.03-1,.03-1.34v-.12l.22-.12,.03-1.25-.28,.03-.16-.91-1-.19-.16-.78-.44-.09-.19-.75s-.94-.09-.94-.09Zm.84,.28l.09,1,.38-.03,.09,.56-.53,.22c.02,.6,0,.99,0,1.59l.94-.25c.05-.39,.01-1.11,.03-1.5l.62,.13c.04,.35,.05,.71,.06,1.06l.41-.06c.02,.32,.14,.72,.03,.91-.09,.15-.22,.16-.34,.25,0,.4,.03,1.16,.03,1.62h.22l.06,.72-.28,.22c0,.67-.03,1.11-.03,1.81l.38-.03,.03,.87-.38,.28c0,.91,0,.79,0,1.59l.22-.09,.03,.94-.31,.16c0,.51,.03,.84,.03,1.22l.38-.07v.72l-.34,.16v1.34l-.75,.35c0-.27-.03-1.05-.03-1.19l-.81,.25c0,.23-.03,1.05-.03,1.34l-.78,.28c0-.27,.03-1.08,.03-1.22l-1.41,.57v1.22l-.66,.28-.03-1.28-1.19,.53,.03,.97-.78,.28v-.97l-.41,.09-.03-.93,.5-.16-.03-1.69-.34,.13-.09-.82,.47-.22v-1.65l-.53,.15-.06-.87,.5-.19,.03-1.81-.56,.09,.06-.91,.38-.09,.03-1.75-.38,.12v-.84l.47-.22v-1.31l.66-.41-.06,1.28,1.12-.25,.06-2.19-.47,.16,.09-.53,.28-.09v-1.12l.53-.38v1.31l1.88-.41c0-.21-.09-1.01-.09-1.22l.59-.03h0Zm.69,1.78c.07,.39,.03,.79,.03,1.19l-.38,.12c0-.41-.02-.81-.03-1.22l.38-.09Zm-1.34,.19l-1.53,.28-.03,1.88,1.59-.53c.04-.58-.01-1.04-.03-1.62Zm-.31,.22c.04,.46,.02,.92,.03,1.38l-.91,.31-.03-1.44,.91-.25Zm-41.69,.16c-1.06,.28-1.4,.98-1.84,1.91l-.38,2.66,4.5,3.19c-.17-1.61-.13-3.23-.22-4.84,0-1.77-1.1-2.25-2.06-2.91Zm.06,.44c.85,.39,1.62,1.53,1.62,2.59,0,.68,.26,2.88,.28,3.88l-3.69-2.5c.09-.69,.28-1.84,.41-2.38-.21-.64,.63-1.38,1.38-1.59Zm13.78,.75c-1.27,1.04-1.74,2.38-2.09,3.91l.03,4.12,5.5-2.19c-.14-1.11-.32-2.2-.59-3.28-.67-1.07-1.36-2.14-2.84-2.56Zm.19,.34c.94,.41,1.84,1.45,2.09,2.16,.24,.68,.74,2.27,.84,3.09l-4.78,1.91c-.04-.89-.02-2.95,.06-3.75,.1-.94,.89-2.47,1.78-3.41Zm29.72,.25l-1,.34c0,.55,0,.93,0,1.53l.94-.28c0-.56,.07-1.11,.06-1.59Zm-.34,.25c0,.38,0,.78,0,1.19l-.38,.12c0-.41-.03-.81-.03-1.19l.41-.12Zm-1.34,.25l-1.5,.56v1.56l1.53-.47c0-.6-.02-1.09-.03-1.66Zm-.31,.34c0,.38,0,.77,0,1.19l-.91,.31-.03-1.19,.94-.31Zm-1.94,.53l-1.06,.31v1.59l1-.38,.06-1.53Zm-.31,.28l.03,1.19-.5,.16v-1.19l.47-.16Zm4.22,.97l-.94,.31c0,.6,0,1.18,0,1.78l.94-.31c0-.72,0-1.06,0-1.78Zm-.28,.25c0,.46,0,.92,0,1.41l-.38,.12c0-.47-.02-.94-.03-1.41l.41-.12Zm-1.38,.28l-1.5,.56v1.81l1.47-.56c0-.66,.03-1.16,.03-1.81Zm-.28,.31c0,.48,0,.96,0,1.44l-.91,.34-.03-1.47s.94-.31,.94-.31Zm-1.94,.53l-1.06,.38-.03,1.78,1.09-.38s0-1.78,0-1.78Zm-.31,.22l.03,1.47-.5,.16v-1.44s.47-.19,.47-.19Zm4.19,1.25l-.91,.31c0,.9,0,.86,0,1.62l.91-.31c0-.78,0-.72,0-1.63Zm-.28,.22v1.28l-.34,.13c0-.41-.03-.75-.03-1.28l.38-.12Zm-1.38,.31l-1.44,.53v1.6l1.44-.44c0-.74,0-.8,0-1.69Zm-.28,.28v1.29l-.88,.28-.03-1.25,.91-.31Zm-1.91,.56l-1.06,.37-.06,1.57,1.16-.38s-.03-1.56-.03-1.56Zm-.31,.25l.03,1.22-.53,.18v-1.25l.5-.15Zm4.09,1.06l-.78,.25c0,.52,0,.91,0,1.28l.81-.25c0-.35-.03-.76-.03-1.28Zm-.22,.22v.84l-.34,.16c0-.27,0-.55,0-.88l.34-.12Zm-1.38,.31l-1.38,.47v1.47l1.38-.6c0-.34,0-.83,0-1.34Zm-.28,.28v.94l-.84,.34-.03-1,.88-.28Zm-1.84,.44l-1.19,.38,.06,1.5,1.12-.38v-1.5Zm-.34,.31l.03,1.07-.56,.21v-1.09s.53-.19,.53-.19Z"/>
    </g>
  </g>
</svg>