<?xml version="1.0" encoding="UTF-8"?>
<svg id="Layer_2" data-name="Layer 2" xmlns="http://www.w3.org/2000/svg" xmlns:xlink="http://www.w3.org/1999/xlink" viewBox="0 0 117.09 74.99">
  <defs>
    <style>
      .cls-1 {
        fill: url(#linear-gradient-4);
      }

      .cls-1, .cls-2, .cls-3, .cls-4 {
        fill-rule: evenodd;
      }

      .cls-5 {
        fill: url(#linear-gradient-2);
      }

      .cls-2 {
        fill: url(#linear-gradient-6);
      }

      .cls-3 {
        fill: url(#linear-gradient-5);
      }

      .cls-6 {
        fill: url(#linear-gradient-3);
      }

      .cls-7 {
        fill: url(#linear-gradient);
      }

      .cls-4 {
        fill: url(#linear-gradient-7);
      }
    </style>
    <linearGradient id="linear-gradient" x1="51.92" y1="8.59" x2="13.88" y2="57.95" gradientUnits="userSpaceOnUse">
      <stop offset="0" stop-color="#957858"/>
      <stop offset="1" stop-color="#453d2f"/>
    </linearGradient>
    <linearGradient id="linear-gradient-2" x1="92.59" y1="36.43" x2="116.86" y2="36.43" gradientUnits="userSpaceOnUse">
      <stop offset="0" stop-color="#958065"/>
      <stop offset="1" stop-color="#454035"/>
    </linearGradient>
    <linearGradient id="linear-gradient-3" x1=".05" y1="37.49" x2="117.09" y2="37.49" gradientUnits="userSpaceOnUse">
      <stop offset="0" stop-color="#957254"/>
      <stop offset="1" stop-color="#453c2d"/>
    </linearGradient>
    <linearGradient id="linear-gradient-4" x1="67.01" y1="-1.35" x2="56.92" y2="54.56" gradientUnits="userSpaceOnUse">
      <stop offset="0" stop-color="#523c2e"/>
      <stop offset="1" stop-color="#291c0f"/>
    </linearGradient>
    <linearGradient id="linear-gradient-5" x1="78.37" y1="40.1" x2="99.39" y2="40.1" xlink:href="#linear-gradient-3"/>
    <linearGradient id="linear-gradient-6" x1="98.65" y1="58.08" x2="111.15" y2="58.08" xlink:href="#linear-gradient-3"/>
    <linearGradient id="linear-gradient-7" x1="44.19" y1="63.63" x2="71.15" y2="63.63" xlink:href="#linear-gradient-3"/>
  </defs>
  <g id="Layer_2-2" data-name="Layer 2">
    <g>
      <path class="cls-7" d="M44.65,24.57c-5.86,10.97-10.35,22.26-10,34.96-.03,.19,.56,2.56-.44,3.07-3.55,1.78-9.45,2.38-9.53,3.12-.02,.19,1.38-.08,3.28-.5,.74-.16,.7,4.29,1.53,4.09,.33-.07-.46-4.26-.12-4.34,3.09-.71,4.82-1.28,4.81-1-.05,3.11-1.7,7.6-3.22,9.44l.6,.47C-5.05,54.25,.27,36.78,.27,36.78c.65-.94,2.29-2.97,3.1-3.81,.24-.25,1.18,4.81,1.43,4.56,.32-.3-.92-4.74-.59-5.03,.97-.83,1.97-1.61,3-2.34,1.45-1.56,2.11-3.31,2.75-4.97,.66-1.64,1.14-2.53,2.44-3.78,.29,1.51,1.06,2.75,1.65,4.94,.68,2.49,1.35,5.11,1.5,7.06-.54,4.85,1.76,9.22,2.88,13.69l.22-.07c-1.2-4.48-2.57-9.01-2.1-13.71-.16-2.1-.85-4.75-1.53-7.25-.65-2.43-1.3-4.7-1.53-6.1,6.53-3.97,14.48-8.14,22-9.65,.16-.04-.76,2.92-2.97,5.43-3.96,4.53-11.62,10.02-11.34,9.97,.31-.05,7.28-5.07,11.78-9.62,2.83-2.86,3.93-6.08,4.13-6.1,4.32-1.63,8.71-2.78,13.37-3.03,1.61-.61,3.19-1.29,4.81-1.87-4.77,5.79-7.79,12.52-10.62,19.47Z"/>
      <path class="cls-5" d="M116.86,53.98c-2.24-1.66-3.79-4.5-5.46-6.73-2.36-3.04-4.62-6.35-5.47-7.81-2.51-4.7-5.71-8.88-8.91-13.12-1.87-2.58-2.42-5-4.43-7.44,3.09,1.6,6.21,2.6,9.62,3.4,1.53,.59,3.28,2.43,4.66,3.94,1.39,1.53,3.25,3.47,3.25,5.16,1.76,8.89,5.93,20.41,6.74,22.6Z"/>
      <path class="cls-6" d="M116.86,53.98c-2.24-1.66-3.79-4.5-5.46-6.73-2.36-3.04-4.62-6.35-5.47-7.81-2.51-4.7-5.71-8.88-8.91-13.12-1.87-2.58-2.42-5-4.43-7.44,3.09,1.6,6.21,2.6,9.62,3.4,1.53,.59,3.28,2.43,4.66,3.94,1.39,1.53,3.25,3.47,3.25,5.16l.12-.13c0-2.06-1.12-4.07-2.62-5.72-1.55-1.48-3.16-2.9-5.22-3.62-4.13-1.28-8.43-3.7-12.06-5.22-2.54-2.57-5.27-4.89-8.75-6.06-3.43-.97-6.39-2.94-9.16-5.31-2.77-2.38-5.37-5.16-9.34-5.32l-4.63,1.72c-2.35,1.6-4.76,3.02-7.44,4-4.87,.87-9.77,1.8-14.31,3.85-8.91,1.99-17.64,4.57-24.91,10.37-1.44,1.5-2.1,3.24-2.75,4.91-.65,1.66-1.31,3.33-2.56,4.65C3.82,31.5,1.77,33.84,.05,36.63l.22,.15c.65-.94,2.29-2.97,3.1-3.81,.24-.25,1.18,4.81,1.43,4.56,.32-.3-.92-4.74-.59-5.03,.97-.83,1.97-1.61,3-2.34,1.45-1.56,2.11-3.31,2.75-4.97,.66-1.64,1.14-2.53,2.44-3.78,.29,1.51,1.06,2.75,1.65,4.94,.68,2.49,1.35,5.11,1.5,7.06-.54,4.85,1.76,9.22,2.88,13.69l.22-.07c-1.2-4.48-2.57-9.01-2.1-13.71-.16-2.1-.85-4.75-1.53-7.25-.65-2.43-1.3-4.7-1.53-6.1,6.53-3.97,14.48-8.14,22-9.65,.16-.04-.76,2.92-2.97,5.43-3.96,4.53-11.62,10.02-11.34,9.97,.31-.05,7.28-5.07,11.78-9.62,2.83-2.86,3.93-6.08,4.13-6.1,4.32-1.63,8.71-2.78,13.37-3.03,1.61-.61,3.19-1.29,4.81-1.87-4.77,5.79-7.79,12.52-10.62,19.47-5.86,10.97-10.35,22.26-10,34.96-.03,.19,.56,2.56-.44,3.07-3.55,1.78-9.45,2.38-9.53,3.12-.02,.19,1.38-.08,3.28-.5,.74-.16,.7,4.29,1.53,4.09,.33-.07-.46-4.26-.12-4.34,3.09-.71,4.82-1.28,4.81-1-.05,3.11-1.7,7.6-3.22,9.44l.6,.47s30.65,3.99,54.12-3.19c23.48-7.18,26.15-7.51,31.31-16.34l.1-.19c-.08-.05-.15-.11-.23-.18Zm-11.9,7.21h-.06c-1.11,.55-3.2,.33-4.91,.31-3.81-1.95,1.49-3.09,3.47-4.22,1.04-1.37,2.07-2.63,3.91-2.68,1.85,.51,3.83,2.5,3.78,4.37-1.13,1.78-4.17,1.59-6.19,2.22Zm-8.69-2.37c1.63-3.74,1.01-6.91,1.44-10.35-3.55-5.61-6.84-11.87-10.69-16.75-.52-1.48-.96-2.99-1.96-4.31-2.47-1.75-4.54-3.69-6.69-5.59l.69-.69,5.46,3.59c2.07,1.44,2.35,3.39,3.38,5.13l11.19,18.03,.3,6.78-1.93,4.41-1.19-.25Zm-51.09,4.43c1.48-2.06,2.45-2.9,3.63-3.28,2.79,1.62,7.44,5.24,11.78,5.72l.12-.13c-8.24-2.33-7.68-4.14-10.12-5.84,1.17-.02,4.49,1.76,5.65,1.72,4.24-1.23,6.74-4.43,10.97-4.31,.28,.01,.58,.02,.88,.06,2.93,2.86,4.24,6.34,1.72,9.9-2.44,.14-4.83,.89-7.22,.97-2.77-.61-4.7-.16-6.47,.47-1.95,.72-4.46,1.6-6.56,1.6-3.89-.42-7.05-2.89-4.38-6.88Z"/>
      <g id="layer1">
        <path id="path2308" class="cls-1" d="M68.34,56.19c-.31-.03-.62-.03-.91-.03-4.37,.05-6.86,3.38-11.25,4.81-2.48,0-6.25-2.4-7.69-1.94-1.44,.47-2.59,1.51-4.12,3.63-2.02,5.36,1.24,7.21,6.53,8.03,2.74-.05,3.82-.59,5.56-1.22s3.38-1.06,6.03-.44h.1c2.54-.17,5.33-.4,7.56-1.68,1.97-4.32,2.25-8.01-1.81-11.16Zm1.47,10.9c-2.44,.14-4.83,.89-7.22,.97-2.77-.61-4.7-.16-6.47,.47-1.95,.72-4.46,1.6-6.56,1.6-3.89-.42-7.05-2.89-4.38-6.88,1.48-2.06,2.45-2.9,3.63-3.28,2.79,1.62,7.44,5.24,11.78,5.72l.12-.13c-8.24-2.33-7.68-4.14-10.12-5.84,1.17-.02,4.49,1.76,5.65,1.72,4.24-1.23,6.74-4.43,10.97-4.31,.28,.01,.58,.02,.88,.06,2.93,2.86,4.24,6.34,1.72,9.9Zm36.46-13.37c-1.42,.35-2.67,1.44-3.53,2.88-.83,.27-2.16,.71-3.31,1.31,.4-.99,.57-2.18,.63-3.41,0-1.94-.18-4.78-.25-6.72,0-.33,6.21-.57,6.21-.9-.06-.14-2.06-.13-3.43-.1-.33,.01,.2-2.38-.13-2.37-.24,.01-.55,2.4-.78,2.41-1.18,.02-2.16,.02-2.22-.1-3.2-6.26-8.58-10.92-10.81-17.4-.78-2.15-1.7-4.17-3.88-5.16-1.82-.8-3.44-1.96-4.71-3.31-1.2-.01-1.75,.19-2.47,.72-.62-.94-1.69-5.48-1.28-7.1-.62-.48,.17,4.12-.75,5-.62,.59-3.07-2.29-3.29-2.78-1.69-.69-2.41-2.91-3.84-4.31l1.34,2.31c.5,.74,1.02,1.67,1.63,2.5,.02,.05,.04,.08,.06,.13h.03c.2,.42,.45,.78,.72,1.12-4.16,.37-10.07-.25-14.15-3.25l-.6,.19c4.75,2.85,10.53,4.42,15.97,3.47,.41,.37,.42,1.13,.84,1.43,.78,.59,1.68,3,1.63,3.91-.62,1.25-.74,.92-.94,2.28-1.85,6.18-3.39,12.46-2.5,18.97-.34,6,.42,11.67,1.13,18.06,.05,.52-1.23,3.14-2.44,4.97-.14,.2-2.33,.54-2.44,.75-.13,.26,2.22-.19,2.1,.06-.82,1.62-1.82,3.53-1.82,3.71l4.35-6.33,1.75,2.56-1.44-2.87,1.25-2.13,9.59-1.4c2.08-1.06,4.04-2.17,6.03-2.79,2.27-.44,4.67-1.06,6.88-.46-.03,.18-.14,.81-.09,1,.72,.89,1.33,1.72,2.53,1.93,1.82,.06,3.78,.29,5.47-.37,2.19-.79,5.28-.93,6.18-3.31-.07-2.88-1.87-5.31-5.22-5.1Zm-8.81,5.35l-1.19-.25c1.63-3.74,1.01-6.91,1.44-10.35-3.55-5.61-6.84-11.87-10.69-16.75-.52-1.48-.96-2.99-1.96-4.31-2.47-1.75-4.54-3.69-6.69-5.59l.69-.69,5.46,3.59c2.07,1.44,2.35,3.39,3.38,5.13l11.19,18.03,.3,6.78-1.93,4.41Zm7.5,2.12h-.06c-1.11,.55-3.2,.33-4.91,.31-3.81-1.95,1.49-3.09,3.47-4.22,1.04-1.37,2.07-2.63,3.91-2.68,1.85,.51,3.83,2.5,3.78,4.37-1.13,1.78-4.17,1.59-6.19,2.22Zm11.9-7.21c-2.24-1.66-3.79-4.5-5.46-6.73-2.36-3.04-4.62-6.35-5.47-7.81-2.51-4.7-5.71-8.88-8.91-13.12-1.87-2.58-2.42-5-4.43-7.44,3.09,1.6,6.21,2.6,9.62,3.4,1.53,.59,3.28,2.43,4.66,3.94,1.39,1.53,3.25,3.47,3.25,5.16l.12-.13c0-2.06-1.12-4.07-2.62-5.72-1.55-1.48-3.16-2.9-5.22-3.62-4.13-1.28-8.43-3.7-12.06-5.22-2.54-2.57-5.27-4.89-8.75-6.06-3.43-.97-6.39-2.94-9.16-5.31-2.77-2.38-5.37-5.16-9.34-5.32l-4.63,1.72c-2.35,1.6-4.76,3.02-7.44,4-4.87,.87-9.77,1.8-14.31,3.85-8.91,1.99-17.64,4.57-24.91,10.37-1.44,1.5-2.1,3.24-2.75,4.91-.65,1.66-1.31,3.33-2.56,4.65C3.82,31.5,1.77,33.84,.05,36.63l.22,.15c.65-.94,2.29-2.97,3.1-3.81,.24-.25,1.18,4.81,1.43,4.56,.32-.3-.92-4.74-.59-5.03,.97-.83,1.97-1.61,3-2.34,1.45-1.56,2.11-3.31,2.75-4.97,.66-1.64,1.14-2.53,2.44-3.78,.29,1.51,1.06,2.75,1.65,4.94,.68,2.49,1.35,5.11,1.5,7.06-.54,4.85,1.76,9.22,2.88,13.69l.22-.07c-1.2-4.48-2.57-9.01-2.1-13.71-.16-2.1-.85-4.75-1.53-7.25-.65-2.43-1.3-4.7-1.53-6.1,6.53-3.97,14.48-8.14,22-9.65,.16-.04-.76,2.92-2.97,5.43-3.96,4.53-11.62,10.02-11.34,9.97,.31-.05,7.28-5.07,11.78-9.62,2.83-2.86,3.93-6.08,4.13-6.1,4.32-1.63,8.71-2.78,13.37-3.03,1.61-.61,3.19-1.29,4.81-1.87-4.77,5.79-7.79,12.52-10.62,19.47-5.86,10.97-10.35,22.26-10,34.96-.03,.19,.56,2.56-.44,3.07-3.55,1.78-9.45,2.38-9.53,3.12-.02,.19,1.38-.08,3.28-.5,.74-.16,.7,4.29,1.53,4.09,.33-.07-.46-4.26-.12-4.34,3.09-.71,4.82-1.28,4.81-1-.05,3.11-1.7,7.6-3.22,9.44l.6,.47c2.03-3.87,3.81-9.95,4.09-14.35-.08-12.67,3-23.8,9.47-34.75v-.03h.03c1.72-3.82,4.03-8.94,6.09-12.59,.11-.19,2.94,3.74,4.85,8.47,.48,1.19,.85,2.51,1.18,3.81,.08,.3-1.53,2.98-1.46,3.28,.09,.41,1.76-2.62,1.84-2.22,.59,3.08,.89,6.82,.97,6.82,.12-.2-.14-6.94-1.91-12.29-1.67-5.05-4.86-8.72-4.75-8.9,1.23-1.95,2.59-3.81,4.16-5.53,1.02-2.09,2.8-2,4.94-2.53,4.05-2.53,7.8-.36,11.03,2.46,2.79,2.43,5.64,5.17,9.28,6.22,7.11,2.58,10.8,8.76,15.22,14.82,3.01,4.28,6.59,8.41,8.59,13.18,.91,1.56,3.05,5.06,5.44,8.13,1.85,2.35,3.73,4.97,6.37,6.47l.1-.19c-.08-.05-.15-.11-.23-.18Z"/>
        <path class="cls-3" d="M99.39,54.66l-1.93,4.41-1.19-.25c1.63-3.74,1.01-6.91,1.44-10.35-3.55-5.61-6.84-11.87-10.69-16.75-.52-1.48-.96-2.99-1.96-4.31-2.47-1.75-4.54-3.69-6.69-5.59l.69-.69,5.46,3.59c2.07,1.44,2.35,3.39,3.38,5.13l11.19,18.03,.3,6.78Z"/>
        <path class="cls-2" d="M111.15,58.97c-1.13,1.78-4.17,1.59-6.19,2.22h-.06c-1.11,.55-3.2,.33-4.91,.31-3.81-1.95,1.49-3.09,3.47-4.22,1.04-1.37,2.07-2.63,3.91-2.68,1.85,.51,3.83,2.5,3.78,4.37Z"/>
        <path class="cls-4" d="M69.81,67.09c-2.44,.14-4.83,.89-7.22,.97-2.77-.61-4.7-.16-6.47,.47-1.95,.72-4.46,1.6-6.56,1.6-3.89-.42-7.05-2.89-4.38-6.88,1.48-2.06,2.45-2.9,3.63-3.28,2.79,1.62,7.44,5.24,11.78,5.72l.12-.13c-8.24-2.33-7.68-4.14-10.12-5.84,1.17-.02,4.49,1.76,5.65,1.72,4.24-1.23,6.74-4.43,10.97-4.31,.28,.01,.58,.02,.88,.06,2.93,2.86,4.24,6.34,1.72,9.9Z"/>
      </g>
    </g>
  </g>
</svg>