<?xml version="1.0" encoding="UTF-8"?>
<svg id="Layer_2" data-name="Layer 2" xmlns="http://www.w3.org/2000/svg" xmlns:xlink="http://www.w3.org/1999/xlink" viewBox="0 0 218.01 133.72">
  <defs>
    <style>
      .cls-1 {
        fill: url(#linear-gradient-75);
      }

      .cls-2 {
        fill: url(#linear-gradient-119);
      }

      .cls-3 {
        fill: url(#linear-gradient-2);
      }

      .cls-4 {
        fill: url(#linear-gradient-51);
      }

      .cls-5 {
        fill: url(#linear-gradient-122);
      }

      .cls-6 {
        fill: url(#linear-gradient-17);
      }

      .cls-7 {
        fill: url(#linear-gradient-87);
      }

      .cls-8 {
        fill: url(#linear-gradient-93);
      }

      .cls-9 {
        fill: url(#linear-gradient-92);
      }

      .cls-10 {
        fill: url(#linear-gradient-80);
      }

      .cls-11 {
        fill: url(#linear-gradient-109);
      }

      .cls-12 {
        fill: url(#linear-gradient-43);
      }

      .cls-13 {
        fill: url(#linear-gradient-125);
      }

      .cls-14 {
        fill: url(#linear-gradient-15);
      }

      .cls-15 {
        fill: url(#linear-gradient-58);
      }

      .cls-16 {
        fill: url(#linear-gradient-69);
      }

      .cls-17 {
        fill: url(#linear-gradient-81);
      }

      .cls-18 {
        fill: url(#linear-gradient-18);
      }

      .cls-19 {
        fill: url(#linear-gradient-56);
      }

      .cls-20 {
        fill: url(#linear-gradient-40);
      }

      .cls-21 {
        fill: url(#linear-gradient-52);
      }

      .cls-22 {
        fill: url(#linear-gradient-28);
      }

      .cls-23 {
        fill: url(#linear-gradient-14);
      }

      .cls-24 {
        fill: url(#linear-gradient-36);
      }

      .cls-25 {
        fill: url(#linear-gradient-78);
      }

      .cls-26 {
        fill: url(#linear-gradient-20);
      }

      .cls-27 {
        fill: url(#linear-gradient-6);
      }

      .cls-28 {
        fill: url(#linear-gradient-53);
      }

      .cls-29 {
        fill: url(#linear-gradient-91);
      }

      .cls-30 {
        fill: url(#linear-gradient-60);
      }

      .cls-31 {
        fill: url(#linear-gradient-108);
      }

      .cls-32 {
        fill: url(#linear-gradient-84);
      }

      .cls-33 {
        fill: url(#linear-gradient-104);
      }

      .cls-34 {
        fill: url(#linear-gradient-128);
      }

      .cls-35 {
        fill: url(#linear-gradient-35);
      }

      .cls-36 {
        fill: url(#linear-gradient-48);
      }

      .cls-37 {
        fill: url(#linear-gradient-32);
      }

      .cls-38 {
        fill: url(#linear-gradient-120);
      }

      .cls-39 {
        fill: url(#linear-gradient-97);
      }

      .cls-40 {
        fill: url(#linear-gradient-11);
      }

      .cls-41 {
        fill: url(#linear-gradient-50);
      }

      .cls-42 {
        fill: url(#linear-gradient-106);
      }

      .cls-43 {
        fill: url(#linear-gradient-111);
      }

      .cls-44 {
        fill: url(#linear-gradient-63);
      }

      .cls-45 {
        fill: url(#linear-gradient-67);
      }

      .cls-46 {
        fill: url(#linear-gradient-95);
      }

      .cls-47 {
        fill: url(#linear-gradient-86);
      }

      .cls-48 {
        fill: url(#linear-gradient-39);
      }

      .cls-49 {
        fill: url(#linear-gradient-110);
      }

      .cls-50 {
        fill: url(#linear-gradient-124);
      }

      .cls-51 {
        fill: url(#linear-gradient-10);
      }

      .cls-52 {
        fill: url(#linear-gradient-59);
      }

      .cls-53 {
        fill: url(#radial-gradient);
      }

      .cls-54 {
        fill: url(#linear-gradient-117);
      }

      .cls-55 {
        fill: url(#linear-gradient-49);
      }

      .cls-56 {
        fill: url(#linear-gradient-37);
      }

      .cls-57 {
        fill: url(#linear-gradient-82);
      }

      .cls-58 {
        fill: url(#linear-gradient-16);
      }

      .cls-59 {
        fill: url(#linear-gradient-31);
      }

      .cls-60 {
        fill: url(#linear-gradient-85);
      }

      .cls-61 {
        fill: url(#linear-gradient-127);
      }

      .cls-62 {
        fill: url(#linear-gradient-112);
      }

      .cls-63 {
        fill: url(#linear-gradient-61);
      }

      .cls-64 {
        fill: url(#linear-gradient-114);
      }

      .cls-65 {
        fill: url(#linear-gradient-68);
      }

      .cls-66 {
        fill: url(#linear-gradient-103);
      }

      .cls-67 {
        fill: url(#linear-gradient-62);
      }

      .cls-68 {
        fill: url(#linear-gradient-107);
      }

      .cls-69 {
        fill: url(#linear-gradient-41);
      }

      .cls-70 {
        fill: url(#linear-gradient-76);
      }

      .cls-71 {
        fill: url(#linear-gradient-98);
      }

      .cls-72 {
        fill: url(#linear-gradient-21);
      }

      .cls-73 {
        fill: url(#linear-gradient-72);
      }

      .cls-74 {
        fill: url(#linear-gradient-25);
      }

      .cls-75 {
        fill: url(#linear-gradient-121);
      }

      .cls-76 {
        fill: url(#linear-gradient-89);
      }

      .cls-77 {
        fill: url(#linear-gradient-5);
      }

      .cls-78 {
        fill: url(#linear-gradient-64);
      }

      .cls-79 {
        fill: url(#linear-gradient-102);
      }

      .cls-80 {
        fill: url(#linear-gradient-83);
      }

      .cls-81 {
        fill: url(#linear-gradient-54);
      }

      .cls-82 {
        fill: url(#linear-gradient-45);
      }

      .cls-83 {
        fill: url(#linear-gradient-113);
      }

      .cls-84 {
        fill: url(#linear-gradient-55);
      }

      .cls-85 {
        fill: url(#linear-gradient-34);
      }

      .cls-86 {
        fill: url(#linear-gradient-118);
      }

      .cls-87 {
        fill: url(#linear-gradient-65);
      }

      .cls-88 {
        fill: url(#linear-gradient-70);
      }

      .cls-89 {
        fill: none;
      }

      .cls-90 {
        fill: url(#linear-gradient-79);
      }

      .cls-91 {
        fill: url(#linear-gradient-88);
      }

      .cls-92 {
        fill: url(#linear-gradient-7);
      }

      .cls-93 {
        fill: url(#linear-gradient-66);
      }

      .cls-94 {
        fill: url(#linear-gradient-96);
      }

      .cls-95 {
        fill: url(#linear-gradient-24);
      }

      .cls-96 {
        fill: url(#linear-gradient-73);
      }

      .cls-97 {
        fill: url(#linear-gradient-100);
      }

      .cls-98 {
        fill: url(#linear-gradient-105);
      }

      .cls-99 {
        fill: url(#linear-gradient-9);
      }

      .cls-100 {
        fill: url(#linear-gradient-129);
      }

      .cls-101 {
        fill: url(#linear-gradient-22);
      }

      .cls-102 {
        fill: url(#linear-gradient-74);
      }

      .cls-103 {
        fill: url(#linear-gradient-42);
      }

      .cls-104 {
        fill: url(#linear-gradient-99);
      }

      .cls-105 {
        fill: url(#linear-gradient-3);
      }

      .cls-106 {
        fill: url(#linear-gradient-123);
      }

      .cls-107 {
        fill: url(#linear-gradient);
      }

      .cls-108 {
        fill: url(#linear-gradient-27);
      }

      .cls-109 {
        fill: url(#linear-gradient-116);
      }

      .cls-110 {
        fill: url(#linear-gradient-33);
      }

      .cls-111 {
        fill: url(#linear-gradient-38);
      }

      .cls-112 {
        fill: url(#linear-gradient-94);
      }

      .cls-113 {
        fill: url(#linear-gradient-29);
      }

      .cls-114 {
        fill: url(#linear-gradient-30);
      }

      .cls-115 {
        fill: url(#linear-gradient-126);
      }

      .cls-116 {
        fill: url(#linear-gradient-23);
      }

      .cls-117 {
        fill: url(#linear-gradient-19);
      }

      .cls-118 {
        fill: url(#linear-gradient-71);
      }

      .cls-119 {
        fill: url(#linear-gradient-4);
      }

      .cls-120 {
        fill: url(#linear-gradient-77);
      }

      .cls-121 {
        fill: url(#linear-gradient-115);
      }

      .cls-122 {
        fill: url(#linear-gradient-8);
      }

      .cls-123 {
        fill: url(#linear-gradient-90);
      }

      .cls-124 {
        fill: url(#linear-gradient-44);
      }

      .cls-125 {
        fill: url(#linear-gradient-57);
      }

      .cls-126 {
        fill: url(#linear-gradient-47);
      }

      .cls-127 {
        fill: url(#linear-gradient-46);
      }

      .cls-128 {
        fill: url(#linear-gradient-12);
      }

      .cls-129 {
        fill: url(#linear-gradient-13);
      }

      .cls-130 {
        fill: url(#linear-gradient-26);
      }

      .cls-131 {
        fill: url(#linear-gradient-101);
      }
    </style>
    <linearGradient id="linear-gradient" x1="65.05" y1="37.41" x2="69.61" y2="37.41" gradientUnits="userSpaceOnUse">
      <stop offset="0" stop-color="#443021"/>
      <stop offset="1" stop-color="#724b29"/>
    </linearGradient>
    <linearGradient id="linear-gradient-2" x1="62.68" y1="31.32" x2="65.11" y2="31.32" xlink:href="#linear-gradient"/>
    <linearGradient id="linear-gradient-3" x1="124.52" y1="101.04" x2="125.96" y2="101.04" xlink:href="#linear-gradient"/>
    <linearGradient id="linear-gradient-4" x1="122.3" y1="101.44" x2="124.08" y2="101.44" xlink:href="#linear-gradient"/>
    <linearGradient id="linear-gradient-5" x1="118.58" y1="95.55" x2="121.74" y2="95.55" xlink:href="#linear-gradient"/>
    <linearGradient id="linear-gradient-6" x1="119.83" y1="101.41" x2="122.27" y2="101.41" xlink:href="#linear-gradient"/>
    <linearGradient id="linear-gradient-7" x1="116.24" y1="100.24" x2="119.8" y2="100.24" xlink:href="#linear-gradient"/>
    <linearGradient id="linear-gradient-8" x1="113.55" y1="94.9" x2="116.93" y2="94.9" xlink:href="#linear-gradient"/>
    <linearGradient id="linear-gradient-9" x1="113.96" y1="99.07" x2="116.08" y2="99.07" xlink:href="#linear-gradient"/>
    <linearGradient id="linear-gradient-10" x1="61.93" y1="50.79" x2="83.24" y2="50.79" xlink:href="#linear-gradient"/>
    <linearGradient id="linear-gradient-11" x1="22.02" y1="115.41" x2="39.52" y2="115.41" xlink:href="#linear-gradient"/>
    <linearGradient id="linear-gradient-12" x1="94.86" y1="74.73" x2="99.46" y2="74.73" xlink:href="#linear-gradient"/>
    <linearGradient id="linear-gradient-13" x1="95.43" y1="74.19" x2="103.93" y2="74.19" gradientUnits="userSpaceOnUse">
      <stop offset="0" stop-color="#271c13"/>
      <stop offset="1" stop-color="#55381f"/>
    </linearGradient>
    <linearGradient id="linear-gradient-14" x1="98.49" y1="70.91" x2="101.58" y2="70.91" xlink:href="#linear-gradient-13"/>
    <linearGradient id="linear-gradient-15" x1="102.24" y1="65.63" x2="102.93" y2="65.63" xlink:href="#linear-gradient"/>
    <linearGradient id="linear-gradient-16" x1="103.14" y1="63.27" x2="105.99" y2="63.27" xlink:href="#linear-gradient"/>
    <linearGradient id="linear-gradient-17" x1="96.02" y1="66.01" x2="102.89" y2="66.01" xlink:href="#linear-gradient"/>
    <linearGradient id="linear-gradient-18" x1="99.24" y1="63.12" x2="104.74" y2="63.12" xlink:href="#linear-gradient"/>
    <linearGradient id="linear-gradient-19" x1="104.64" y1="62.99" x2="106.68" y2="62.99" xlink:href="#linear-gradient"/>
    <linearGradient id="linear-gradient-20" x1="102.49" y1="66.2" x2="107.33" y2="66.2" xlink:href="#linear-gradient-13"/>
    <linearGradient id="linear-gradient-21" x1="103.99" y1="68.27" x2="108.11" y2="68.27" xlink:href="#linear-gradient-13"/>
    <linearGradient id="linear-gradient-22" x1="106.18" y1="70.22" x2="107.86" y2="70.22" xlink:href="#linear-gradient-13"/>
    <linearGradient id="linear-gradient-23" x1="110.52" y1="71.19" x2="112.83" y2="71.19" xlink:href="#linear-gradient-13"/>
    <linearGradient id="linear-gradient-24" x1="108.08" y1="69.66" x2="110.83" y2="69.66" xlink:href="#linear-gradient"/>
    <linearGradient id="linear-gradient-25" x1="98.71" y1="74.95" x2="106.39" y2="74.95" xlink:href="#linear-gradient-13"/>
    <linearGradient id="linear-gradient-26" x1="104.89" y1="75.24" x2="107.96" y2="75.24" xlink:href="#linear-gradient"/>
    <linearGradient id="linear-gradient-27" x1="102.52" y1="79.24" x2="104.14" y2="79.24" xlink:href="#linear-gradient"/>
    <linearGradient id="linear-gradient-28" x1="99.46" y1="77.03" x2="105.49" y2="77.03" xlink:href="#linear-gradient-13"/>
    <linearGradient id="linear-gradient-29" x1="102.61" y1="78.51" x2="110.68" y2="78.51" xlink:href="#linear-gradient-13"/>
    <linearGradient id="linear-gradient-30" x1="96.58" y1="70.32" x2="113.33" y2="70.32" xlink:href="#linear-gradient"/>
    <linearGradient id="linear-gradient-31" x1="108.43" y1="76.91" x2="113.55" y2="76.91" xlink:href="#linear-gradient-13"/>
    <linearGradient id="linear-gradient-32" x1="112.21" y1="76.98" x2="114.96" y2="76.98" xlink:href="#linear-gradient-13"/>
    <linearGradient id="linear-gradient-33" x1="111.77" y1="78.66" x2="114.74" y2="78.66" xlink:href="#linear-gradient-13"/>
    <linearGradient id="linear-gradient-34" x1="109.68" y1="79.04" x2="111.86" y2="79.04" xlink:href="#linear-gradient-13"/>
    <linearGradient id="linear-gradient-35" x1="112.77" y1="72.79" x2="113.83" y2="72.79" xlink:href="#linear-gradient"/>
    <linearGradient id="linear-gradient-36" x1="114.15" y1="67.99" x2="115.86" y2="67.99" xlink:href="#linear-gradient-13"/>
    <linearGradient id="linear-gradient-37" x1="110.55" y1="69.52" x2="114.77" y2="69.52" xlink:href="#linear-gradient-13"/>
    <linearGradient id="linear-gradient-38" x1="110.86" y1="67.98" x2="112.8" y2="67.98" xlink:href="#linear-gradient-13"/>
    <linearGradient id="linear-gradient-39" x1="110.08" y1="57.77" x2="126.9" y2="57.77" xlink:href="#linear-gradient"/>
    <linearGradient id="linear-gradient-40" x1="113.08" y1="59.06" x2="127.24" y2="59.06" xlink:href="#linear-gradient"/>
    <linearGradient id="linear-gradient-41" x1="115.08" y1="60.2" x2="127.46" y2="60.2" xlink:href="#linear-gradient"/>
    <linearGradient id="linear-gradient-42" x1="107.61" y1="66.27" x2="118.02" y2="66.27" xlink:href="#linear-gradient"/>
    <linearGradient id="linear-gradient-43" x1="113.62" y1="69.27" x2="115.68" y2="69.27" xlink:href="#linear-gradient"/>
    <linearGradient id="linear-gradient-44" x1="113.77" y1="64.77" x2="127.55" y2="64.77" xlink:href="#linear-gradient"/>
    <linearGradient id="linear-gradient-45" x1="114.15" y1="68.3" x2="124.93" y2="68.3" xlink:href="#linear-gradient"/>
    <linearGradient id="linear-gradient-46" x1="115.12" y1="66.04" x2="128.33" y2="66.04" xlink:href="#linear-gradient"/>
    <linearGradient id="linear-gradient-47" x1="95.24" y1="55.61" x2="104.33" y2="55.61" xlink:href="#linear-gradient"/>
    <linearGradient id="linear-gradient-48" x1="107.49" y1="56.55" x2="126.3" y2="56.55" xlink:href="#linear-gradient"/>
    <linearGradient id="linear-gradient-49" x1="106.77" y1="55.09" x2="125.65" y2="55.09" xlink:href="#linear-gradient"/>
    <linearGradient id="linear-gradient-50" x1="106.02" y1="53.07" x2="124.62" y2="53.07" xlink:href="#linear-gradient"/>
    <linearGradient id="linear-gradient-51" x1="96.43" y1="53.71" x2="123.71" y2="53.71" xlink:href="#linear-gradient"/>
    <linearGradient id="linear-gradient-52" x1="102.8" y1="46.21" x2="120.43" y2="46.21" xlink:href="#linear-gradient"/>
    <linearGradient id="linear-gradient-53" x1="101.77" y1="44.57" x2="118.12" y2="44.57" xlink:href="#linear-gradient"/>
    <linearGradient id="linear-gradient-54" x1="100.33" y1="43.55" x2="115.86" y2="43.55" xlink:href="#linear-gradient"/>
    <linearGradient id="linear-gradient-55" x1="108.14" y1="35.23" x2="112.4" y2="35.23" xlink:href="#linear-gradient"/>
    <linearGradient id="linear-gradient-56" x1="96.61" y1="41.8" x2="106.52" y2="41.8" xlink:href="#linear-gradient"/>
    <linearGradient id="linear-gradient-57" x1="79.99" y1="43.65" x2="101.52" y2="43.65" xlink:href="#linear-gradient"/>
    <linearGradient id="linear-gradient-58" x1="50.52" y1="28.09" x2="53.49" y2="28.09" xlink:href="#linear-gradient"/>
    <linearGradient id="linear-gradient-59" x1="52.64" y1="35.18" x2="53.36" y2="35.18" xlink:href="#linear-gradient"/>
    <linearGradient id="linear-gradient-60" x1="49.7" y1="34.55" x2="59.02" y2="34.55" gradientUnits="userSpaceOnUse">
      <stop offset="0" stop-color="#b29b7b"/>
      <stop offset=".29" stop-color="#b59e7e"/>
      <stop offset=".56" stop-color="#bea789"/>
      <stop offset=".82" stop-color="#cdb79c"/>
      <stop offset="1" stop-color="#dcc6ae"/>
    </linearGradient>
    <linearGradient id="linear-gradient-61" x1="50.61" y1="43.71" x2="53.24" y2="43.71" xlink:href="#linear-gradient"/>
    <linearGradient id="linear-gradient-62" x1="49.74" y1="49.96" x2="58.99" y2="49.96" xlink:href="#linear-gradient-60"/>
    <linearGradient id="linear-gradient-63" x1="50.71" y1="53.43" x2="52.99" y2="53.43" xlink:href="#linear-gradient"/>
    <linearGradient id="linear-gradient-64" x1="49.68" y1="63.74" x2="52.86" y2="63.74" xlink:href="#linear-gradient"/>
    <linearGradient id="linear-gradient-65" x1="36.96" y1="57.8" x2="39.21" y2="57.8" xlink:href="#linear-gradient"/>
    <linearGradient id="linear-gradient-66" x1="37.24" y1="61.62" x2="85.18" y2="61.62" xlink:href="#linear-gradient"/>
    <linearGradient id="linear-gradient-67" x1="40.67" y1="63.2" x2="44.11" y2="63.2" xlink:href="#linear-gradient"/>
    <linearGradient id="linear-gradient-68" x1="36.42" y1="60.41" x2="41.6" y2="60.41" xlink:href="#linear-gradient-60"/>
    <linearGradient id="linear-gradient-69" x1="36.73" y1="64.92" x2="39.24" y2="64.92" xlink:href="#linear-gradient"/>
    <linearGradient id="linear-gradient-70" x1="36.4" y1="69.15" x2="43.43" y2="69.15" xlink:href="#linear-gradient-60"/>
    <linearGradient id="linear-gradient-71" x1="36.83" y1="71.99" x2="39.27" y2="71.99" xlink:href="#linear-gradient"/>
    <linearGradient id="linear-gradient-72" x1="36.64" y1="79.41" x2="39.08" y2="79.41" xlink:href="#linear-gradient"/>
    <linearGradient id="linear-gradient-73" x1="28.8" y1="77.02" x2="51.74" y2="77.02" xlink:href="#linear-gradient"/>
    <linearGradient id="linear-gradient-74" x1="78.46" y1="105.24" x2="81.52" y2="105.24" xlink:href="#linear-gradient"/>
    <linearGradient id="linear-gradient-75" x1="74.52" y1="105.83" x2="78.58" y2="105.83" xlink:href="#linear-gradient"/>
    <linearGradient id="linear-gradient-76" x1="69.89" y1="106.52" x2="74.8" y2="106.52" xlink:href="#linear-gradient"/>
    <linearGradient id="linear-gradient-77" x1="65.55" y1="106.94" x2="70.24" y2="106.94" xlink:href="#linear-gradient"/>
    <linearGradient id="linear-gradient-78" x1="61.52" y1="107.23" x2="66.43" y2="107.23" xlink:href="#linear-gradient"/>
    <linearGradient id="linear-gradient-79" x1="58.08" y1="107.21" x2="62.08" y2="107.21" xlink:href="#linear-gradient"/>
    <linearGradient id="linear-gradient-80" x1="54.14" y1="107.11" x2="58.68" y2="107.11" xlink:href="#linear-gradient"/>
    <linearGradient id="linear-gradient-81" x1="50.71" y1="106.85" x2="54.96" y2="106.85" xlink:href="#linear-gradient"/>
    <linearGradient id="linear-gradient-82" x1="47.24" y1="106.35" x2="51.43" y2="106.35" xlink:href="#linear-gradient"/>
    <linearGradient id="linear-gradient-83" x1="43.36" y1="105.64" x2="47.86" y2="105.64" xlink:href="#linear-gradient"/>
    <linearGradient id="linear-gradient-84" x1="41.18" y1="104.63" x2="43.52" y2="104.63" xlink:href="#linear-gradient"/>
    <linearGradient id="linear-gradient-85" x1="89.61" y1="89.13" x2="110.33" y2="89.13" xlink:href="#linear-gradient"/>
    <linearGradient id="linear-gradient-86" x1="83.77" y1="88.62" x2="109.21" y2="88.62" xlink:href="#linear-gradient"/>
    <linearGradient id="linear-gradient-87" x1="78.46" y1="89.73" x2="102.64" y2="89.73" xlink:href="#linear-gradient"/>
    <linearGradient id="linear-gradient-88" x1="73.86" y1="89.32" x2="101.49" y2="89.32" xlink:href="#linear-gradient"/>
    <linearGradient id="linear-gradient-89" x1="69.58" y1="89.22" x2="99.68" y2="89.22" xlink:href="#linear-gradient"/>
    <linearGradient id="linear-gradient-90" x1="65.52" y1="86.4" x2="98.86" y2="86.4" xlink:href="#linear-gradient"/>
    <linearGradient id="linear-gradient-91" x1="61.8" y1="85.09" x2="99.14" y2="85.09" xlink:href="#linear-gradient"/>
    <linearGradient id="linear-gradient-92" x1="57.77" y1="83.73" x2="98.02" y2="83.73" xlink:href="#linear-gradient"/>
    <linearGradient id="linear-gradient-93" x1="54.49" y1="82.41" x2="96.77" y2="82.41" xlink:href="#linear-gradient"/>
    <linearGradient id="linear-gradient-94" x1="108.44" y1="99.18" x2="77.25" y2="57.76" gradientUnits="userSpaceOnUse">
      <stop offset="0" stop-color="#443021"/>
      <stop offset=".26" stop-color="#4a3322"/>
      <stop offset=".61" stop-color="#5b3d25"/>
      <stop offset=".94" stop-color="#724b29"/>
    </linearGradient>
    <linearGradient id="linear-gradient-95" x1="47.61" y1="89.35" x2="72.3" y2="89.35" xlink:href="#linear-gradient"/>
    <linearGradient id="linear-gradient-96" x1="43.36" y1="88.18" x2="69.55" y2="88.18" xlink:href="#linear-gradient"/>
    <linearGradient id="linear-gradient-97" x1="33.58" y1="86.93" x2="59.18" y2="86.93" xlink:href="#linear-gradient"/>
    <linearGradient id="linear-gradient-98" x1="40.27" y1="87.59" x2="66.11" y2="87.59" xlink:href="#linear-gradient"/>
    <linearGradient id="linear-gradient-99" x1="31.68" y1="91.94" x2="112.55" y2="91.94" xlink:href="#linear-gradient"/>
    <radialGradient id="radial-gradient" cx="142.04" cy="46.24" fx="142.04" fy="46.24" r="322.39" gradientUnits="userSpaceOnUse">
      <stop offset="0" stop-color="#9ca1a6"/>
      <stop offset="1" stop-color="#4389c7"/>
    </radialGradient>
    <linearGradient id="linear-gradient-100" x1="20.68" y1="35.1" x2="128.74" y2="35.1" gradientUnits="userSpaceOnUse">
      <stop offset="0" stop-color="#302e2e"/>
      <stop offset="1" stop-color="#171717"/>
    </linearGradient>
    <linearGradient id="linear-gradient-101" y1="101.46" y2="101.46" xlink:href="#linear-gradient-100"/>
    <linearGradient id="linear-gradient-102" y1="50.88" y2="50.88" xlink:href="#linear-gradient-100"/>
    <linearGradient id="linear-gradient-103" y1="115.24" y2="115.24" xlink:href="#linear-gradient-100"/>
    <linearGradient id="linear-gradient-104" y1="67.07" y2="67.07" xlink:href="#linear-gradient-100"/>
    <linearGradient id="linear-gradient-105" x1="0" y1="31.99" x2="36.6" y2="31.99" xlink:href="#linear-gradient-100"/>
    <linearGradient id="linear-gradient-106" x1="36.67" y1="62.18" x2="43.67" y2="62.18" xlink:href="#linear-gradient-100"/>
    <linearGradient id="linear-gradient-107" y1="63.11" y2="63.11" xlink:href="#linear-gradient-100"/>
    <linearGradient id="linear-gradient-108" x1="36.66" y1="63.11" x2="43.67" y2="63.11" xlink:href="#linear-gradient-100"/>
    <linearGradient id="linear-gradient-109" y1="62.59" y2="62.59" xlink:href="#linear-gradient-100"/>
    <linearGradient id="linear-gradient-110" x1="36.66" y1="62.59" x2="43.67" y2="62.59" xlink:href="#linear-gradient-100"/>
    <linearGradient id="linear-gradient-111" y1="62.34" y2="62.34" xlink:href="#linear-gradient-100"/>
    <linearGradient id="linear-gradient-112" x1="36.66" y1="62.34" x2="43.67" y2="62.34" xlink:href="#linear-gradient-100"/>
    <linearGradient id="linear-gradient-113" y1="61.18" y2="61.18" xlink:href="#linear-gradient-100"/>
    <linearGradient id="linear-gradient-114" x1="36.66" y1="61.18" x2="43.67" y2="61.18" xlink:href="#linear-gradient-100"/>
    <linearGradient id="linear-gradient-115" x1="13.35" y1="60.98" x2="170.88" y2="60.98" xlink:href="#linear-gradient-100"/>
    <linearGradient id="linear-gradient-116" x1="36.65" y1="60.98" x2="46.87" y2="60.98" xlink:href="#linear-gradient-100"/>
    <linearGradient id="linear-gradient-117" x1="42.65" y1="63.2" x2="49.36" y2="63.2" xlink:href="#linear-gradient-100"/>
    <linearGradient id="linear-gradient-118" y1="62.97" y2="62.97" xlink:href="#linear-gradient-100"/>
    <linearGradient id="linear-gradient-119" x1="42.65" y1="62.97" x2="49.36" y2="62.97" xlink:href="#linear-gradient-100"/>
    <linearGradient id="linear-gradient-120" x1="53" y1="63.45" x2="59.41" y2="63.45" xlink:href="#linear-gradient-100"/>
    <linearGradient id="linear-gradient-121" y1="63.23" y2="63.23" xlink:href="#linear-gradient-100"/>
    <linearGradient id="linear-gradient-122" x1="53" y1="63.23" x2="59.41" y2="63.23" xlink:href="#linear-gradient-100"/>
    <linearGradient id="linear-gradient-123" x1="66.04" y1="58.97" x2="97.07" y2="58.97" xlink:href="#linear-gradient-100"/>
    <linearGradient id="linear-gradient-124" x1="126.13" y1="98.39" x2="217.41" y2="98.39" xlink:href="#linear-gradient-100"/>
    <linearGradient id="linear-gradient-125" x1="7.76" y1="29.6" x2="31.05" y2="29.6" xlink:href="#linear-gradient-100"/>
    <linearGradient id="linear-gradient-126" x1="15.16" y1="29.09" x2="25.16" y2="29.09" xlink:href="#linear-gradient-100"/>
    <linearGradient id="linear-gradient-127" x1="147.69" y1="97.83" x2="215.94" y2="97.83" xlink:href="#linear-gradient-100"/>
    <linearGradient id="linear-gradient-128" x1="172.16" y1="73.16" x2="213.49" y2="73.16" xlink:href="#linear-gradient-100"/>
    <linearGradient id="linear-gradient-129" x1="172.16" y1="92.45" x2="213.49" y2="92.45" xlink:href="#linear-gradient-100"/>
  </defs>
  <g id="Layer_2-2" data-name="Layer 2">
    <g>
      <g>
        <path class="cls-89" d="M66.24,63.02l.41-.59c-.16,.04-.32,.07-.48,.1l.07,.49Z"/>
        <path class="cls-89" d="M85.52,69.4c2.85-2.54,5.74-5.04,8.84-7.38l2.31-5.64c-9.43,.75-18.58,3.65-28.04,5.65l16.89,7.37Z"/>
        <path class="cls-89" d="M80.8,73.65c-2.72,2.44-5.5,4.86-8.44,7.18l-6.72-3.12c-2.26,.26-4.92,1.21-7.78,2.75l-1.15-.88,2.28-2.18,.47-.79-.5-1.4c-2.42,1.24-4.71,2.64-6.91,4.15l-12.53-5.75v-2.06c1.54,.6,3.12,1.11,4.72,.97-2.13-1.03-3.49-2.36-4.72-3.75v-3.44l-2.22-.87,1.56-.28-.4-.63,1.03-.12v-.82c1.62,.84,3.27,1.59,5.44,1.16-.16-.09-.31-.18-.47-.27,1.65,.23,3.27,.38,4.88,.46v.37s.93-.06,.93-.06v1.31l1.81,.47,.75,3.38,.17-5.41c2.16-.03,4.3-.19,6.4-.44h0l21.39,10.07Z"/>
        <path class="cls-89" d="M36.68,61s.01,.02,.02,.03c0-.01-.01-.02-.02-.03,0,0,0,0,0,0Z"/>
        <path class="cls-89" d="M42.25,62.61c.21,.12,.41,.24,.63,.36-.21-.11-.42-.23-.63-.36Z"/>
        <path class="cls-89" d="M45.24,87.61l1.62,.85c.85-.77,1.69-1.49,2.53-2.19l-1.59-.94-2.56,2.28Z"/>
        <path class="cls-89" d="M42.15,62.54s-.09-.06-.14-.08c.06,.04,.12,.07,.17,.11-.01,0-.02,0-.03-.02Z"/>
        <path class="cls-89" d="M49.93,83.52l1.78,.94c1.17-.88,2.32-1.71,3.47-2.44l-2-.97-3.25,2.47Z"/>
        <path class="cls-89" d="M40.46,92.02l1.72,1.13c.75-.83,1.53-1.64,2.31-2.41l-1.47-.81-2.56,2.09Z"/>
        <path class="cls-89" d="M35.96,96.08l1,1.16,2.62-1.09c.32-.39,.64-.78,.97-1.16l-1.97-.94-2.62,2.03Z"/>
        <polygon class="cls-107" points="69.61 38.49 68.96 41.33 67.83 38.99 67.24 42.58 65.05 35.58 66.64 32.24 69.61 38.49"/>
        <polygon class="cls-3" points="65.11 30.52 64.89 35.3 62.68 30.24 62.93 27.33 63.71 30.11 65.11 30.52"/>
        <path class="cls-105" d="M125.96,94.3l-.5,13.47c-.31-.13-.62-.25-.94-.38l.25-12.43,1.19-.66Z"/>
        <polygon class="cls-119" points="124.08 95.61 123.99 107.27 122.3 106.46 122.46 96.68 124.08 95.61"/>
        <polygon class="cls-77" points="121.74 96.49 121.24 96.83 118.58 94.86 119.62 94.27 121.74 96.49"/>
        <polygon class="cls-27" points="122.27 96.8 121.99 106.3 119.83 105.27 119.96 96.52 121.21 97.49 122.27 96.8"/>
        <polygon class="cls-92" points="119.8 96.4 119.65 105.18 116.24 103.52 116.33 97.74 116.58 98.05 118.36 95.3 119.8 96.4"/>
        <polygon class="cls-122" points="116.93 96.21 116.46 96.74 113.55 93.43 114.49 93.05 116.93 96.21"/>
        <polygon class="cls-99" points="116.08 97.43 116.05 103.43 114.3 102.58 113.96 94.71 116.08 97.43"/>
        <polygon class="cls-51" points="81.89 49.86 78.96 50.65 80.18 51.49 63.3 54.05 65.36 52.52 63.39 52.24 65.08 51.3 61.93 50.15 83.24 47.52 80.33 49.52 81.89 49.86"/>
        <path class="cls-40" d="M39.52,114.02l-1.38,1.68-.18,.63c-5.28,1.09-7.83,2.79-12.5,4.81l.5-1.34-3.03,.47,1.56-1.66-2.47,.03,15.06-8.97-2.19,4.13,3.57-1.72-.94,1.75,2,.19Z"/>
        <polygon class="cls-128" points="99.46 73.49 94.96 77.21 94.86 77.21 99.27 72.24 99.46 73.49"/>
        <path class="cls-129" d="M103.93,72.43l-5.57,4.93-2.93-.12,4.4-3.59-.09-.88,1.94-1.75c.73,.46,1.47,.93,2.25,1.41Z"/>
        <path class="cls-23" d="M101.58,70.96l-1.84,1.65-.1-.81,.16-.19-1.31-2.4c.96,.44,2.01,1.07,3.09,1.75Z"/>
        <path class="cls-14" d="M102.93,65.27l-.29,.72-.4-.09c.23-.21,.46-.42,.69-.63Z"/>
        <path class="cls-58" d="M105.99,60.49l-2.63,6.87c-.07-.05-.14-.66-.22-1.03l2.5-7.15,.35,1.31Z"/>
        <path class="cls-6" d="M102.89,66.46c-.05,.38-.05,.88-.18,.84l-6.41-2.06-.28-.53,6.87,1.75Z"/>
        <path class="cls-18" d="M104.74,60.4l-1.72,4.62c-.32,.28-.65,.54-.97,.81l-2.81-.72c1.83-1.57,3.66-3.14,5.5-4.71Z"/>
        <polygon class="cls-117" points="106.68 63.24 104.64 65.18 106.05 60.8 106.68 63.24"/>
        <path class="cls-26" d="M107.33,65.96l-3.44,3c-.47-.41-.93-.84-1.4-1.28l1.22,.4,.84-2.65,2.16-2,.4,1.59,.22,.94Z"/>
        <path class="cls-72" d="M108.11,66.18l-.25,2.72-1.81,1.62c-.73-.45-1.4-.95-2.06-1.5l3.34-2.97v-.03l.78,.16Z"/>
        <path class="cls-101" d="M107.86,69.08l-.22,2.28c-.51-.22-1-.5-1.46-.78l1.68-1.5Z"/>
        <path class="cls-116" d="M112.83,72.55c-.83-.05-1.6-.17-2.31-.31v-.13l.03-.03,2.19-2.25-.31,.88,.4,1.84Z"/>
        <path class="cls-95" d="M110.83,66.74l-.47,5.5c-.15,.25-.3,.47-.47,.62-1.13,.46-1.34,.04-1.81-1l.41-5.59,2.34,.47Z"/>
        <path class="cls-74" d="M106.39,73.83l-1.62,1.69-.41-.06,.75-1.85-6.09,3.79h-.31l5.34-4.91c.78,.47,1.55,.94,2.34,1.34Z"/>
        <path class="cls-130" d="M107.96,74.52l-2.03,2.06-1.04-.25,.66-.68-.56-.1,1.56-1.65c.46,.23,.94,.44,1.41,.62Z"/>
        <polygon class="cls-108" points="104.14 78.43 102.55 80.05 102.52 79.96 104.14 78.43"/>
        <polygon class="cls-22" points="105.49 76.74 102.39 79.65 101.52 77.49 99.46 77.4 104.36 74.4 104.14 75.52 104.96 75.83 104.21 76.27 105.49 76.74"/>
        <path class="cls-113" d="M110.68,75.24l-2.44,2.69-1.44-1.22-3.28,5.72-.91-2.22,5.5-5.63c.87,.34,1.72,.57,2.57,.66Z"/>
        <path class="cls-114" d="M113.33,74.77c-4.36,1.01-10.72-3.61-15.12-6.06l-1.63-3,5.1,1.69c1.29,1.3,2.8,2.4,4.37,3.28h.03c.52,.28,1.04,.57,1.56,.81,.17,1.81,1,2.17,2.66,1.44l.19-.38c.82,.21,1.61,.31,2.37,.35l.47,1.87Z"/>
        <path class="cls-59" d="M113.55,75.77l-1.59,1.84h-.03l-2.66,1.19-.84-.72,2.62-2.81c.78,.05,1.54,0,2.28-.25l.22,.75Z"/>
        <polygon class="cls-37" points="114.96 78.02 112.21 77.65 113.58 75.93 113.68 76.27 114.96 78.02"/>
        <polygon class="cls-110" points="114.74 79.36 111.77 78.05 111.96 77.96 114.68 78.18 114.74 79.36"/>
        <path class="cls-85" d="M111.86,78.36c-.09,.11-.18,.21-.28,.32-.36,.4-.7,.79-1.06,1.18l-.84-.71,1.78-.94,.4,.15Z"/>
        <polygon class="cls-35" points="113.83 76.02 112.77 70.74 113.12 69.55 113.83 76.02"/>
        <polygon class="cls-24" points="115.86 67.77 114.15 68.4 114.93 67.58 115.86 67.77"/>
        <polygon class="cls-56" points="113.83 68.49 113.02 68.8 113.05 68.99 112.86 69.49 110.55 71.86 110.86 69.36 112.93 67.18 114.77 67.55 113.83 68.49"/>
        <polygon class="cls-111" points="112.8 67.15 110.86 69.15 111.14 66.8 112.8 67.15"/>
        <path class="cls-48" d="M126.9,51.99c-4.61,4.62-9.27,9.18-13.97,13.62l-2.85-.53c5.48-4.99,10.92-10.03,16.28-15.15,.21,.68,.39,1.37,.54,2.06Z"/>
        <path class="cls-20" d="M127.24,53.8c-4.11,4.15-8.24,8.17-12.38,12.16l-1.78-.31c4.72-4.41,9.36-8.9,13.88-13.5,.12,.55,.19,1.1,.28,1.65Z"/>
        <path class="cls-69" d="M127.46,55.61c-3.28,3.63-6.6,7.25-10,10.82l-2.38-.44c4.07-3.94,8.13-7.94,12.19-12.03,.09,.55,.13,1.1,.19,1.65Z"/>
        <polygon class="cls-103" points="118.02 66.96 116.74 67.43 107.83 65.8 107.61 65.11 118.02 66.96"/>
        <path class="cls-12" d="M115.68,68.27c-.65,.67-1.29,1.33-1.94,2l-.12-1.09,2.06-.91Z"/>
        <path class="cls-124" d="M127.55,56.27c-.6,1.23-1.23,2.44-1.9,3.63-1.18,1.5-5.45,6.84-11.53,13.78l-.35-3.22c.78-.8,1.57-1.58,2.35-2.38l3-1.34-1.47-.28c3.34-3.5,6.61-7.03,9.84-10.6,.01,.14,.05,.27,.06,.41Z"/>
        <path class="cls-82" d="M124.93,61.08c-2.97,5.04-6.53,9.76-10.6,14.44l-.18-1.56c5.44-6.2,9.07-10.73,10.78-12.88Z"/>
        <path class="cls-127" d="M128.33,58.55c-2.52,5.43-4.62,10.41-7.65,15.22-.46,.35-1.65,.26-2.22,.31-.48,.21-.78,1.11-1.19,1.41-.75-.43-1.33-.33-2.15-.19,4.46-5.2,8.7-10.99,12.96-18.72l.25,1.97Z"/>
        <path class="cls-126" d="M104.33,54.83c-3.56,1.81-6.07,4.32-9.09,6.53l4.84-11.5,4.25,4.97Z"/>
        <path class="cls-36" d="M126.3,49.71c-5.4,5.16-10.87,10.27-16.41,15.34l-2.34-.44-.06-.21c6.13-5.41,12.21-10.84,18.22-16.35,.22,.55,.42,1.1,.59,1.66Z"/>
        <path class="cls-55" d="M125.65,47.93c-6.01,5.5-12.07,10.94-18.19,16.34l-.69-2.37c6.02-5.31,12.01-10.63,17.94-16,.36,.66,.66,1.35,.94,2.03Z"/>
        <path class="cls-41" d="M124.62,45.77c-5.91,5.35-11.86,10.68-17.88,15.97l-.72-2.47c5.8-4.96,11.68-9.92,17.75-14.87,.3,.45,.59,.91,.85,1.37Z"/>
        <path class="cls-4" d="M123.71,44.27c-6.07,4.95-11.96,9.9-17.75,14.84l-.32-1.15-.78,2.12c-1.94,1.67-3.88,3.31-5.81,4.97l-2.62-.69c8.38-7.37,16.86-14.76,25.84-22,.53,.62,1.01,1.27,1.44,1.91Z"/>
        <path class="cls-21" d="M120.43,40.49c-6.09,4.14-11.22,8.63-16.04,13.22l-1.59-1.81c6.52-7.15,10.74-9.54,15.44-13.19,.8,.57,1.52,1.17,2.19,1.78Z"/>
        <path class="cls-28" d="M118.12,38.61c-4.68,3.64-8.73,5.91-15.38,13.22l-.97-1.09c2.47-4.3,6.64-8.93,14.35-13.44,.7,.42,1.37,.87,2,1.31Z"/>
        <path class="cls-81" d="M115.86,37.15c-7.7,4.53-11.69,9.13-14.18,13.46l-1.35-1.53c1.82-3.05,3.4-5.33,5.35-7.22h.03s-.01-.02,0-.03c2.21-2.12,4.89-3.74,8.97-5.34,.41,.22,.8,.43,1.18,.66Z"/>
        <path class="cls-84" d="M110.46,36.21l1.34,1.03c-.37,.18-.73,.37-1.09,.56l-.94-.78-.56,.56-.25-.75-.82,.13,3.1-4.31,.15,.9,1.01,.38-1.94,2.28Z"/>
        <path class="cls-19" d="M103.33,39.86l-1.69,2.1,1.72,1.69c-.39,.44-.79,.9-1.15,1.37-.13-.11-.55-.37-2.19-1.22l-2.38,2.69-.21-.91-.82,.25c1.82-3.97,4.33-5.77,8.13-8.72l.44,.41,.03,.66-.57,.59,1.88,1.81c-.31,.26-.61,.52-.91,.78l-2.28-1.5Z"/>
        <path class="cls-125" d="M101.52,45.99c-.71,1.01-1.37,2.06-1.97,3.19l-19.56-9.13,1.06-.28,1.34,.06-.21-.93,1.87,.53-.97-1.22,1.72-.1,3.72,1.75-.13,1.75,.63-.43,.16,2.81,1.15-3.28,6.81,3.22c-.38,.63-.75,1.33-1.09,2.12l.34,.22c.03-.06,.07-.1,.1-.16l.75-.06,.47,.94,1.59-2.03,2.22,1.03Z"/>
        <path class="cls-15" d="M53.49,29.36c-.02,.64-.02,1.26-.03,1.88-1.02-1.52-1.84-3.06-2.94-4.69v-1.62l.34,1.75,.53-.63,.54,1.06,.56-1.68,1,3.93Z"/>
        <path class="cls-52" d="M53.36,34.9c0,.32-.02,.64-.03,.96-.22-.45-.43-.9-.69-1.37,.25,.13,.49,.27,.72,.41Z"/>
        <path class="cls-30" d="M51.96,33.83c1.2,2.28,2.78,6.46,4.84,8.16-2.74-.27-4.69-2.27-6.28-3.34-.6-2.14-1.49-8.25,0-11.54,2.31,3.5,4.1,7.28,8.5,9.69-1.74,.89-4.91-2.2-7.06-2.97Z"/>
        <path class="cls-63" d="M53.24,40.77c-.01,.34-.03,.63-.03,1-.01,.21-1.03,.42-1.03,.63,0,.18,.62,.31,.62,.5,0,.27-.21,.5-.22,.78l.56,.56-.09,4.16c-.8-.8-1.59-1.64-2.41-2.5l-.03-6.88c.89,.51,1.75,1.15,2.63,1.75Z"/>
        <path class="cls-67" d="M58.99,53.24c-2.26,1.47-6.27-1.06-8.56-1.88-.91-1.77-.92-3.53,0-5.15,2.59,2.4,5.13,5.62,8.56,7.03Z"/>
        <path class="cls-44" d="M52.99,52.65l-.06,2.53-2.22-.97v-2.53c.77,.25,1.52,.61,2.28,.97Z"/>
        <polygon class="cls-78" points="52.86 60.49 52.74 68.3 52.18 65.52 50.55 65.11 50.46 63.93 49.68 64.05 50.05 59.18 52.86 60.49"/>
        <path class="cls-87" d="M39.21,60.15c-.81-.59-1.57-1.21-2.25-1.85,0-.22,0-.4,.03-.62l.22-.69,.78,.16,.09-1.69c.18-.15,.57,1.16,.75,1.09l.35-.25,.03,3.85Z"/>
        <path class="cls-93" d="M85.18,69.71c-1.32,1.17-2.63,2.35-3.94,3.53l-43.16-20.22-.84-.78,2.78,1.03-1.16-1.69,1.19-.12-.12-1.47,24.78,10.78,.31,1.69,.69-.38,.56,1.91,.75-1.91,.97,.13,17.19,7.5Z"/>
        <path class="cls-45" d="M44.11,63.58c-.18,.02-.38,.02-.6-.01-.09,0-.18-.01-.28-.03-.02,0-.03,0-.05,0-.13-.01-.27-.04-.41-.07-.2-.04-.4-.1-.6-.16-.21-.06-.42-.12-.63-.2-.23-.07-.46-.15-.69-.24-.03,0-.06-.02-.09-.03-.03-.01-.06-.03-.09-.04,.49,.11,.99,.22,1.48,.31,.51,.1,1.01,.19,1.52,.28-.08-.05-.17-.09-.25-.14,.23,.12,.45,.23,.69,.34Z"/>
        <path class="cls-65" d="M41.6,62.21c-1.64-.32-3.26-.73-4.93-1.24h-.01c-.54-.9,.02-1.59,.08-2.36,1.5,1.21,3.1,2.5,4.86,3.6Z"/>
        <path class="cls-16" d="M39.24,65.4v3.03c-.81-.94-1.6-1.88-2.5-2.78-.01-1.39,.02-2.83,.06-4.25,.84,.28,1.62,.66,2.41,1.06v.72l-1.03,.31,.31,.59-1.63,.35,2.38,.97Z"/>
        <path class="cls-88" d="M43.43,72.21c-2.52-.32-4.75-1.28-6.79-2.19-.55-1.35,.05-2.74,.04-3.94,2.15,2.17,4.16,4.82,6.75,6.13Z"/>
        <path class="cls-118" d="M39.27,71.43v2.06l-2.41-1.13c-.01-.73-.02-1.21-.03-1.87,.8,.29,1.62,.61,2.44,.94Z"/>
        <polygon class="cls-73" points="39.08 78.61 39.02 81.36 38.55 80.36 37.83 80.36 37.36 79.55 36.64 79.77 36.74 77.46 39.08 78.61"/>
        <path class="cls-96" d="M51.74,79.55c-1.4,.97-2.73,2.01-4.06,3.06l-18.88-9.43,.53-.25,4.5,.18-.69-1.31,1.1-.37,17.5,8.12Z"/>
        <path class="cls-102" d="M81.52,104.9c-.96,.22-1.89,.45-2.78,.68l-.28-.53c1.01-.04,2.04-.09,3.06-.15Z"/>
        <path class="cls-1" d="M78.58,105.61c-1.27,.34-2.43,.68-3.59,1-.17-.48-.33-.97-.47-1.46,1.24-.02,2.5-.05,3.75-.1l.31,.56Z"/>
        <path class="cls-70" d="M74.8,106.68c-1.52,.43-3,.83-4.37,1.21l-.54-2.74c1.43,.01,2.85,.01,4.29,0,.14,.55,.4,1.02,.62,1.53Z"/>
        <path class="cls-120" d="M70.24,107.96c-1.21,.33-2.38,.62-3.53,.87-.36-1.15-.92-2.75-1.16-3.78,1.37,.05,2.75,.08,4.13,.1l.56,2.81Z"/>
        <path class="cls-25" d="M66.43,108.89c-.94,.2-1.86,.38-2.79,.5-.43,.06-.87,.09-1.31,.13l-.81-4.59c1.29,.05,2.57,.08,3.87,.12,.05,1.31,.65,2.57,1.04,3.84Z"/>
        <path class="cls-90" d="M62.08,109.55c-1.02,.09-2.06,.15-3.12,.12l-.88-4.93c1.08,.05,2.14,.11,3.22,.16l.78,4.65Z"/>
        <path class="cls-10" d="M58.68,109.67c-1.13-.03-2.3-.14-3.5-.34l-1.04-4.78c1.2,.06,2.4,.13,3.6,.19l.94,4.93Z"/>
        <path class="cls-17" d="M54.96,109.3c-1.03-.18-2.1-.43-3.22-.75l-1.03-4.15c1.05,.05,2.13,.1,3.18,.15l1.07,4.75Z"/>
        <path class="cls-57" d="M51.43,108.46c-1.04-.31-2.1-.66-3.22-1.1l-.97-3.12c1.09,.05,2.18,.07,3.28,.12l.91,4.1Z"/>
        <path class="cls-80" d="M47.86,107.2c-1.3-.51-2.68-1.11-4.12-1.84l-.38-1.28c1.21,.04,2.42,.08,3.63,.13l.87,2.99Z"/>
        <path class="cls-32" d="M43.52,105.24c-.76-.38-1.54-.78-2.34-1.22,.66,.01,1.33,.05,2,.06l.34,1.16Z"/>
        <path class="cls-60" d="M110.33,80.08c-5.91,6.51-11.51,11.66-17.87,18.32-.97,.21-1.91,.4-2.85,.59,6.66-6.41,13.33-12.73,19.6-19.53,.05-.06,.1-.13,.15-.19l.97,.81Z"/>
        <path class="cls-47" d="M109.21,79.15s-.09,.08-.13,.12c-6.13,6.69-13.41,13.34-19.72,19.75-1.92,.38-3.79,.69-5.59,.94,6.38-6.05,12.72-12.13,18.94-18.28l.81,1.97,3.44-6.38,2.25,1.88Z"/>
        <path class="cls-7" d="M102.64,81.49c-6.26,6.22-12.64,12.38-19.09,18.5-1.75,.24-3.44,.43-5.09,.56,7.72-7.27,15.41-14.42,23.09-21.65l1.09,2.59Z"/>
        <path class="cls-91" d="M101.49,78.71c-7.81,7.31-15.65,14.51-23.47,21.87-1.42,.11-2.81,.21-4.16,.25,8.78-7.77,17.36-15.24,25.91-23.03l1.37,.1,.35,.81Z"/>
        <path class="cls-76" d="M99.68,77.8c-8.63,7.67-17.43,15.27-26.25,23.03-1.31,.04-2.6,.06-3.85,.03,9-7.76,17.82-15.5,26.63-23.31l3.47,.25Z"/>
        <path class="cls-123" d="M94.24,77.43l1.81,.12c-8.78,7.83-17.67,15.59-26.62,23.31-1.33-.02-2.64-.13-3.91-.21,11.21-9.61,22.34-19.14,33.34-28.72l-4.62,5.5Z"/>
        <path class="cls-29" d="M99.14,71.52c-11.14,9.72-22.43,19.37-33.81,29.13-1.2-.09-2.37-.19-3.53-.32,12.23-10.16,24.34-20.42,36.28-30.81l1.06,2Z"/>
        <path class="cls-9" d="M98.02,69.36c-12.03,10.45-24.22,20.77-36.47,30.94-1.28-.14-2.54-.28-3.78-.47,13.6-10.65,26.25-21.64,39.06-32.68l1.19,2.21Z"/>
        <path class="cls-8" d="M96.77,67.02c-12.87,11.09-25.57,22.09-39.22,32.78-1.03-.15-2.05-.35-3.06-.53,14.7-10.85,27.85-22.52,41.19-34.25l1.09,2Z"/>
        <path class="cls-112" d="M96.3,64.33l-1.12-.28,.46,.88c-13.45,11.78-26.71,23.44-41.46,34.31-.9-.16-1.78-.33-2.66-.5l20.97-17.47,.22,.09c8.04-6.26,13.55-12.62,22.03-18.87h.03s-.01-.03,0-.03c3.23-2.39,6.19-5.28,10.59-7.63l-.9-1.03c4.79-4.57,10-9.14,16.03-13.25,.62,.58,1.2,1.15,1.72,1.75-9.01,7.26-17.5,14.67-25.91,22.03Z"/>
        <path class="cls-46" d="M72.3,81.18l-21.12,17.5c-1.2-.24-2.38-.5-3.57-.75,6.36-6.3,14.14-12.19,22.07-17.85l.03-.06,2.59,1.16Z"/>
        <path class="cls-94" d="M69.55,79.96c-7.92,5.65-15.86,11.52-22.28,17.9-1.3-.27-2.61-.53-3.91-.81,6.46-6.7,13.61-13.45,22.88-18.56l3.31,1.47Z"/>
        <path class="cls-39" d="M58.86,77.15l-2.72,2.43,1.22,1.16c-.59,.33-1.2,.68-1.81,1.06l-2.34-1.12-3.78,2.9,2,1.1c-.58,.43-1.18,.87-1.75,1.34l-1.85-1.06-3.06,2.72,1.84,1.03c-.62,.58-1.25,1.17-1.87,1.78l-1.81-.94-2.85,2.63,1.85,1.25c-.37,.39-.71,.81-1.07,1.22l-2.15-1.1-3.57,2.63,1.41,1.22-1.41,.59c-.43-.33-.48-.8-.65-1.28-.29-.4-.77-.31-.91-.63,7.83-6.78,14.58-14.62,25.03-20.22l.57,.82-.32,.47Z"/>
        <path class="cls-71" d="M66.11,78.43c-9.44,5.21-16.65,11.7-23.22,18.53-.87-.19-1.74-.39-2.62-.56,5.96-6.94,13.25-14.95,25.31-18.19l.53,.22Z"/>
        <path class="cls-104" d="M112.55,81.74c-.17,.46-1.03,.94-1.19,1.41,.35,.8,.23,1.42,.19,2.21-4.84,5.52-10.94,11.17-19.03,17.44-21.69,4.74-43.2-.78-59.41,.72l2.91-2.28-1.81-.06,1.18-1.72-3.71,.47c2.51-1.03,5.09-1.87,7.5-3.16,14.75,4.35,29.11,5.25,43.93,3.81,3.21-.31,6.44-.73,9.69-1.25,6.74-8.06,12.19-12.74,18.84-20.22,.06,.62,.03,1.38,.1,1.85,.04,.29,.81,.59,.81,.78Z"/>
      </g>
      <path class="cls-53" d="M22.6,2.11c-1.11,.11-2.21,.41-3.21,.91C7.69,8.92-4.31,20.42,2.36,34.31c.81,1.66,1.93,3.43,2.97,4.92,1.1,1.38,2.5,3.1,3.78,4.35,4.29,4.41,9.31,8.13,14.52,11.37,4.36,2.71,8.59,4.63,12.72,5.93-.3-.89,.11-1.87,.33-2.83,0-.33-.01-.52,0-.87l.31-.53c.13-.08,.72,.54,.84,.25,.22-.53-.06-1.7,.16-1.82,.31-.17,.58,.86,.9,1.16,.18,.16,.43-.28,.6-.34v4.46c1.02,.73,2.09,1.41,3.16,2.07,2.27,.39,4.5,.62,6.71,.71l.1-4.24-11.85-5.57-1.31-1.53,2.72,.85-.72-2.22,1.34,.72,.13-1.69,10.37,4.5v-2.44c-1.03-1.79-.66-4.13,.07-6.09l.03-6.63c-1.17-3.19-.91-8.4,.09-12.44v-2.34l.78,2.13,.57-1.25,.25,1.46,.68-1.53,1.07,4.13-.04,2.56c1.36,1.96,3.11,3.87,6.38,5.78-2.58,.25-4.47-1.1-6.44-2.28l-.03,1.28c.89,1.86,1.75,3.72,3.75,5.94-1.36,.16-2.6-.48-3.81-1.28l-.03,.94-1,.53,.62,.47-.19,.75,.5,.62-.06,4.41c1.95,1.91,3.99,3.59,6.6,4.87-2.42,1.19-4.55,.2-6.69-.81l-.03,2.56,11.62,5.06,.31,1.72,.79-1.22,.11,.8c10.56-2.03,20.72-5.45,31.03-6.26l2.29-5.6-20.28-9.69,1.78-.59,1.35,.16-.19-1,1.59,.34-.84-1,2-.09,3.81,1.72,.06,1.59,.6-.41-.03,2.44c.11,.07,.86-2.91,1.06-2.84l7.06,3.18c1.8-2.83,4.12-4.35,7.25-6.78l.1-.22,.87,.79,.06,.78-.56,.59,1.84,1.53c1.09-.85,2.24-1.62,3.47-2.31l-.56-.63-.72,.63-.31-.78-1.31-.03,3.84-5,.34,1.28,.98,.34-1.63,2.13,1.34,1.06c.78-.36,1.58-.7,2.41-1,10.43,5.69,11.77,10.84,13.44,19.41h.03l.12,.75,.41,2.31-2.22,4.59c1.84,1.24,3.7,2.66,5.58,4.27,4,3.47,9.62,9.17,13.41,12.9,13.2,13.05,25.75,26.81,39.52,39.25,7.7,6.52,19.18,17.14,29.81,13.28,1.62-.59,2.7-2.12,2.84-3.83,1.66-19.88,4.53-146.73-195.08-126.82ZM62.61,26.52l1.63,3.38,1.31,.43-.59,5.16,1.87-3.88,3.03,6.54-.72,4.15-1.12-1.69-.78,3.07-5-13.53,.37-3.63Zm21.63,20.53l-3.19,2.35,2.5,.53-4,.68,1.25,1.07-19.37,3.03,2.96-1.97-1.68-.53,1.15-.66-3.43-1.72,23.81-2.78Zm21.09-5.44c-.58,.54-1.15,1.11-1.69,1.69l-1.56-1.53,1.25-1.5,2,1.34Zm-3.4,3.79c-.06,.07-.11,.14-.16,.21l-2.22-1,.44-.53,1.94,1.32Zm-44.04,17.47c-1.6,.16-3.22,.27-4.86,.3l.08-2.56,4.78,2.26Z"/>
      <g>
        <path class="cls-97" d="M66.83,31.61l-1.87,3.88,.59-5.16-1.31-.43-1.63-3.38-.37,3.63,5,13.53,.78-3.07,1.12,1.69,.72-4.15-3.03-6.54Zm-4.15-1.37l.25-2.91,.78,2.78,1.4,.41-.22,4.78-2.21-5.06Zm6.28,11.09l-1.13-2.34-.59,3.59-2.19-7,1.59-3.34,2.97,6.25-.65,2.84Z"/>
        <path class="cls-131" d="M125.71,107.86l.5-13.87-1.44,.56-2.72,1.75-2.15-2.28-1.57,.66-1.28,1.37-2.5-3.19-1.15,.41,.18,8.53c-.73,.28-1.34-.27-2-.53-1.53-.6-3.06-.68-4.59-.62,2.53,.26,4.95,.65,6.59,1.78,3.8,2.61,6.13,3.21,10.32,5.12,1.69,.71,3.61,1.24,4.68,2.5-.39-.94-1.53-1.61-2.87-2.19Zm-6.09-13.59l2.12,2.22-.5,.34-2.66-1.97,1.04-.59Zm-6.07-.84l.94-.38,2.44,3.16-.47,.53-2.91-3.31Zm2.5,10l-1.75-.85-.34-7.87,2.12,2.72-.03,6Zm3.6,1.75l-3.41-1.66,.09-5.78,.25,.31,1.78-2.75,1.44,1.1-.15,8.78Zm2.34,1.12l-2.16-1.03,.13-8.75,1.25,.97,1.06-.69-.28,9.5Zm2,.97l-1.69-.81,.16-9.78,1.62-1.07-.09,11.66Zm.53,.12l.25-12.43,1.19-.66-.5,13.47c-.31-.13-.62-.25-.94-.38Z"/>
        <path class="cls-79" d="M81.05,49.4l3.19-2.35-23.81,2.78,3.43,1.72-1.15,.66,1.68,.53-2.96,1.97,19.37-3.03-1.25-1.07,4-.68-2.5-.53Zm-.87,2.09l-16.88,2.56,2.06-1.53-1.97-.28,1.69-.94-3.15-1.15,21.31-2.63-2.91,2,1.56,.34-2.93,.79,1.22,.84Z"/>
        <path class="cls-66" d="M40.08,113.8l-1.65-.53,.71-1.75-3.25,1.44,2.1-4.29-17.31,10.16,2.71,.19-.96,1.53,2.65-.22-.03,1.47c6.18-2.71,6.9-3.96,13.97-5.03l-.44-1.1,1.5-1.87Zm-2.12,2.53c-5.28,1.09-7.83,2.79-12.5,4.81l.5-1.34-3.03,.47,1.56-1.66-2.47,.03,15.06-8.97-2.19,4.13,3.57-1.72-.94,1.75,2,.19-1.38,1.68-.18,.63Z"/>
        <path class="cls-33" d="M128.33,56.15l-.12-.75h-.03c-1.67-8.57-3.01-13.72-13.44-19.41-.83,.3-1.63,.64-2.41,1l-1.34-1.06,1.63-2.13-.98-.34-.34-1.28-3.84,5,1.31,.03,.31,.78,.72-.63,.56,.63c-1.23,.69-2.38,1.46-3.47,2.31l-1.84-1.53,.56-.59-.06-.78-.87-.79-.1,.22c-3.13,2.43-5.45,3.95-7.25,6.78l-7.06-3.18c-.2-.07-.95,2.91-1.06,2.84l.03-2.44-.6,.41-.06-1.59-3.81-1.72-2,.09,.84,1-1.59-.34,.19,1-1.35-.16-1.78,.59,20.28,9.69-2.29,5.6-.4,.98-2.31,5.64c-3.1,2.34-5.99,4.84-8.84,7.38l-16.89-7.37-1.3-.57-.68,.97-.41,.59-.07-.49-.13-.87-.11-.8-.79,1.22-.31-1.72-11.62-5.06,.03-2.56c2.14,1.01,4.27,2,6.69,.81-2.61-1.28-4.65-2.96-6.6-4.87l.06-4.41-.5-.62,.19-.75-.62-.47,1-.53,.03-.94c1.21,.8,2.45,1.44,3.81,1.28-2-2.22-2.86-4.08-3.75-5.94l.03-1.28c1.97,1.18,3.86,2.53,6.44,2.28-3.27-1.91-5.02-3.82-6.38-5.78l.04-2.56-1.07-4.13-.68,1.53-.25-1.46-.57,1.25-.78-2.13v2.34c-1,4.04-1.26,9.25-.09,12.44l-.03,6.63c-.73,1.96-1.1,4.3-.07,6.09v2.44l-10.37-4.5-.13,1.69-1.34-.72,.72,2.22-2.72-.85,1.31,1.53,11.85,5.57-.1,4.24-.02,.82v.37s.93-.06,.93-.06v1.31l1.81,.47,.75,3.38,.17-5.41,.03-.85,.08-2.56,4.78,2.26h.01l1.5,.71h0l21.39,10.07c-2.72,2.44-5.5,4.86-8.44,7.18l-6.72-3.12c-2.26,.26-4.92,1.21-7.78,2.75l-1.15-.88,2.28-2.18,.47-.79-.5-1.4c-2.42,1.24-4.71,2.64-6.91,4.15l-12.53-5.75v-2.06c1.54,.6,3.12,1.11,4.72,.97-2.13-1.03-3.49-2.36-4.72-3.75v-3.44l-2.22-.87,1.56-.28-.4-.63,1.03-.12v-.82c1.62,.84,3.27,1.59,5.44,1.16-.16-.09-.31-.18-.47-.27-.01-.01-.03-.01-.04-.01-.59-.34-1.18-.7-1.77-1.06-1.07-.66-2.14-1.34-3.16-2.07v-4.46c-.17,.06-.42,.5-.6,.34-.32-.3-.59-1.33-.9-1.16-.22,.12,.06,1.29-.16,1.82-.12,.29-.71-.33-.84-.25l-.31,.53c-.01,.35,0,.54,0,.87-.22,.96-.63,1.94-.33,2.83,.01,.05,.03,.1,.06,.15,.03,.09,.08,.18,.14,.27h0c.02,.14,.03,.27,.05,.4,.12,1.18,.05,2.6,.04,3.82-.39,.04-.86,3.67-.06,4.88-.01,.61-.01,1.15-.03,1.84l-2.5-1.16-1.03,.53,.41,1.25-4.16-.06-.91,.47,7.91,3.97,.03,2.87,1-.31,.31,.85h.78l.75,1.21,.19-3.12,8.1,4.06c-5.19,4.13-9.96,8.82-14.75,13.44,.22,.53,1.18,.32,1.46,.66,0,.45,.22,1.01,.29,1.4l-3.54,1.75,.04,.13,3.25,.09-1.04,1.34,2.13-.25-3.81,2.79c2.78-.14,5.57-.16,8.37-.13,10.66,6.06,17.41,6.65,23.94,5.78,.91-.12,1.83-.28,2.78-.47,5.49-1.11,11.71-3.25,19.59-4.81,2.23-.24,4.47-.54,6.72-.94,7.17-5.11,13.4-11.17,19.44-17.56-.09-.99-.25-1.79-.5-2.81,.6-.74,.96-.73,1.22-1.38,0-.29-.89-.57-.94-.9-.19-1.12-.18-1.79-.12-2.19l.18-.25,2.79,1.16,.19-1.41h.12l-.88-1.94c.27-.16,.56-.41,.79-.69,.68-.11,1.6,.42,2.28,.29,.51-.14,.7-1.17,1.09-1.47,1.03,.06,1.8,.42,2.56-.13l5.05-10.44,.39-.81,2.22-4.59-.41-2.31Zm-.78,.12c-.6,1.23-1.23,2.44-1.9,3.63-1.18,1.5-5.45,6.84-11.53,13.78l-.35-3.22c.78-.8,1.57-1.58,2.35-2.38l3-1.34-1.47-.28c3.34-3.5,6.61-7.03,9.84-10.6,.01,.14,.05,.27,.06,.41Zm-14.5,12.72l-.19,.5-2.31,2.37,.31-2.5,2.07-2.18,1.84,.37-.94,.94-.81,.31,.03,.19Zm-.22,3.56c-.83-.05-1.6-.17-2.31-.31v-.13l.03-.03,2.19-2.25-.31,.88,.4,1.84Zm-14.34-3.34c.96,.44,2.01,1.07,3.09,1.75l-1.84,1.65-.1-.81,.16-.19-1.31-2.4Zm.97,4.28l-4.5,3.72h-.1l4.41-4.97,.19,1.25Zm.37,.16l-.09-.88,1.94-1.75c.73,.46,1.47,.93,2.25,1.41l-5.57,4.93-2.93-.12,4.4-3.59Zm4.22-1.16c.78,.47,1.55,.94,2.34,1.34l-1.62,1.69-.41-.06,.75-1.85-6.09,3.79h-.31l5.34-4.91Zm.94,3.06l1.56-1.65c.46,.23,.94,.44,1.41,.62l-2.03,2.06-1.04-.25,.66-.68-.56-.1Zm-.63-1.15l-.22,1.12,.82,.31-.75,.44,1.28,.47-3.1,2.91-.87-2.16-2.06-.09,4.9-3Zm-.22,4.03l-1.59,1.62-.03-.09,1.62-1.53Zm3.97-3.85c.87,.34,1.72,.57,2.57,.66l-2.44,2.69-1.44-1.22-3.28,5.72-.91-2.22,5.5-5.63Zm-9.9-5.87l-1.63-3,5.1,1.69c1.29,1.3,2.8,2.4,4.37,3.28h.03c.52,.28,1.04,.57,1.56,.81,.17,1.81,1,2.17,2.66,1.44l.19-.38c.82,.21,1.61,.31,2.37,.35l.47,1.87c-4.36,1.01-10.72-3.61-15.12-6.06Zm7.97,1.87l1.68-1.5-.22,2.28c-.51-.22-1-.5-1.46-.78Zm1.9,1.28l.41-5.59,2.34,.47-.47,5.5c-.15,.25-.3,.47-.47,.62-1.13,.46-1.34,.04-1.81-1Zm2.78-2.71l.28-2.35,1.66,.35-1.94,2Zm4.82-.88c-.65,.67-1.29,1.33-1.94,2l-.12-1.09,2.06-.91Zm-1.53,.13l.78-.82,.93,.19-1.71,.63Zm-6.32-2.6l-.22-.69,10.41,1.85-1.28,.47-8.91-1.63Zm.28,.38l-.25,2.72-1.81,1.62c-.73-.45-1.4-.95-2.06-1.5l3.34-2.97v-.03l.78,.16Zm-4.22,2.78c-.47-.41-.93-.84-1.4-1.28l1.22,.4,.84-2.65,2.16-2,.4,1.59,.22,.94-3.44,3Zm.75-3.78l1.41-4.38,.63,2.44-2.04,1.94Zm-1.28,2.18c-.07-.05-.14-.66-.22-1.03l2.5-7.15,.35,1.31-2.63,6.87Zm-.34-2.34c-.32,.28-.65,.54-.97,.81l-2.81-.72c1.83-1.57,3.66-3.14,5.5-4.71l-1.72,4.62Zm-.09,.25l-.29,.72-.4-.09c.23-.21,.46-.42,.69-.63Zm-.04,1.19c-.05,.38-.05,.88-.18,.84l-6.41-2.06-.28-.53,6.87,1.75Zm-6.12,.56c-12.87,11.09-25.57,22.09-39.22,32.78-1.03-.15-2.05-.35-3.06-.53,14.7-10.85,27.85-22.52,41.19-34.25l1.09,2Zm.06,.13l1.19,2.21c-12.03,10.45-24.22,20.77-36.47,30.94-1.28-.14-2.54-.28-3.78-.47,13.6-10.65,26.25-21.64,39.06-32.68Zm1.25,2.37l1.06,2c-11.14,9.72-22.43,19.37-33.81,29.13-1.2-.09-2.37-.19-3.53-.32,12.23-10.16,24.34-20.42,36.28-30.81Zm.78,2.41l-4.62,5.5,1.81,.12c-8.78,7.83-17.67,15.59-26.62,23.31-1.33-.02-2.64-.13-3.91-.21,11.21-9.61,22.34-19.14,33.34-28.72Zm-2.65,5.62l3.47,.25c-8.63,7.67-17.43,15.27-26.25,23.03-1.31,.04-2.6,.06-3.85,.03,9-7.76,17.82-15.5,26.63-23.31Zm3.56,.25l1.37,.1,.35,.81c-7.81,7.31-15.65,14.51-23.47,21.87-1.42,.11-2.81,.21-4.16,.25,8.78-7.77,17.36-15.24,25.91-23.03Zm1.78,1.1l1.09,2.59c-6.26,6.22-12.64,12.38-19.09,18.5-1.75,.24-3.44,.43-5.09,.56,7.72-7.27,15.41-14.42,23.09-21.65Zm1.16,2.78l.81,1.97,3.44-6.38,2.25,1.88s-.09,.08-.13,.12c-6.13,6.69-13.41,13.34-19.72,19.75-1.92,.38-3.79,.69-5.59,.94,6.38-6.05,12.72-12.13,18.94-18.28Zm6.5-2.22c.05-.06,.1-.13,.15-.19l.97,.81c-5.91,6.51-11.51,11.66-17.87,18.32-.97,.21-1.91,.4-2.85,.59,6.66-6.41,13.33-12.73,19.6-19.53Zm.47-.31l1.78-.94,.4,.15c-.09,.11-.18,.21-.28,.32-.36,.4-.7,.79-1.06,1.18l-.84-.71Zm-.41-.35l-.84-.72,2.62-2.81c.78,.05,1.54,0,2.28-.25l.22,.75-1.59,1.84h-.03l-2.66,1.19Zm3.5-8.06l.35-1.19,.71,6.47-1.06-5.28Zm14.69-15.13c-3.28,3.63-6.6,7.25-10,10.82l-2.38-.44c4.07-3.94,8.13-7.94,12.19-12.03,.09,.55,.13,1.1,.19,1.65Zm-.22-1.81c-4.11,4.15-8.24,8.17-12.38,12.16l-1.78-.31c4.72-4.41,9.36-8.9,13.88-13.5,.12,.55,.19,1.1,.28,1.65Zm-.34-1.81c-4.61,4.62-9.27,9.18-13.97,13.62l-2.85-.53c5.48-4.99,10.92-10.03,16.28-15.15,.21,.68,.39,1.37,.54,2.06Zm-.6-2.28c-5.4,5.16-10.87,10.27-16.41,15.34l-2.34-.44-.06-.21c6.13-5.41,12.21-10.84,18.22-16.35,.22,.55,.42,1.1,.59,1.66Zm-.65-1.78c-6.01,5.5-12.07,10.94-18.19,16.34l-.69-2.37c6.02-5.31,12.01-10.63,17.94-16,.36,.66,.66,1.35,.94,2.03Zm-1.03-2.16c-5.91,5.35-11.86,10.68-17.88,15.97l-.72-2.47c5.8-4.96,11.68-9.92,17.75-14.87,.3,.45,.59,.91,.85,1.37Zm-.91-1.5c-6.07,4.95-11.96,9.9-17.75,14.84l-.32-1.15-.78,2.12c-1.94,1.67-3.88,3.31-5.81,4.97l-2.62-.69c8.38-7.37,16.86-14.76,25.84-22,.53,.62,1.01,1.27,1.44,1.91Zm-3.28-3.78c-6.09,4.14-11.22,8.63-16.04,13.22l-1.59-1.81c6.52-7.15,10.74-9.54,15.44-13.19,.8,.57,1.52,1.17,2.19,1.78Zm-2.31-1.88c-4.68,3.64-8.73,5.91-15.38,13.22l-.97-1.09c2.47-4.3,6.64-8.93,14.35-13.44,.7,.42,1.37,.87,2,1.31Zm-8.35-1.59l-.56,.56-.25-.75-.82,.13,3.1-4.31,.15,.9,1.01,.38-1.94,2.28,1.34,1.03c-.37,.18-.73,.37-1.09,.56l-.94-.78Zm4.91-.53c.41,.22,.8,.43,1.18,.66-7.7,4.53-11.69,9.13-14.18,13.46l-1.35-1.53c1.82-3.05,3.4-5.33,5.35-7.22h.03s-.01-.02,0-.03c2.21-2.12,4.89-3.74,8.97-5.34Zm-12.91,9.12l-2.22-1,.44-.53,1.94,1.32c-.06,.07-.11,.14-.16,.21Zm1.87-2.31l-1.56-1.53,1.25-1.5,2,1.34c-.58,.54-1.15,1.11-1.69,1.69Zm1.1-6.19l.44,.41,.03,.66-.57,.59,1.88,1.81c-.31,.26-.61,.52-.91,.78l-2.28-1.5-1.69,2.1,1.72,1.69c-.39,.44-.79,.9-1.15,1.37-.13-.11-.55-.37-2.19-1.22l-2.38,2.69-.21-.91-.82,.25c1.82-3.97,4.33-5.77,8.13-8.72Zm-24.75,2.94l1.06-.28,1.34,.06-.21-.93,1.87,.53-.97-1.22,1.72-.1,3.72,1.75-.13,1.75,.63-.43,.16,2.81,1.15-3.28,6.81,3.22c-.38,.63-.75,1.33-1.09,2.12l.34,.22c.03-.06,.07-.1,.1-.16l.75-.06,.47,.94,1.59-2.03,2.22,1.03c-.71,1.01-1.37,2.06-1.97,3.19l-19.56-9.13Zm20.09,9.81l4.25,4.97c-3.56,1.81-6.07,4.32-9.09,6.53l4.84-11.5Zm-46.87-8.09c-.01,.21-1.03,.42-1.03,.63,0,.18,.62,.31,.62,.5,0,.27-.21,.5-.22,.78l.56,.56-.09,4.16c-.8-.8-1.59-1.64-2.41-2.5l-.03-6.88c.89,.51,1.75,1.15,2.63,1.75-.01,.34-.03,.63-.03,1Zm-2.69-16.84l.34,1.75,.53-.63,.54,1.06,.56-1.68,1,3.93c-.02,.64-.02,1.26-.03,1.88-1.02-1.52-1.84-3.06-2.94-4.69v-1.62Zm0,2.18c2.31,3.5,4.1,7.28,8.5,9.69-1.74,.89-4.91-2.2-7.06-2.97,1.2,2.28,2.78,6.46,4.84,8.16-2.74-.27-4.69-2.27-6.28-3.34-.6-2.14-1.49-8.25,0-11.54Zm2.84,7.79c0,.32-.02,.64-.03,.96-.22-.45-.43-.9-.69-1.37,.25,.13,.49,.27,.72,.41Zm-2.93,11.31c2.59,2.4,5.13,5.62,8.56,7.03-2.26,1.47-6.27-1.06-8.56-1.88-.91-1.77-.92-3.53,0-5.15Zm2.56,6.44l-.06,2.53-2.22-.97v-2.53c.77,.25,1.52,.61,2.28,.97Zm-.25,15.65l-.56-2.78-1.63-.41-.09-1.18-.78,.12,.37-4.87,2.81,1.31-.12,7.81Zm-14.66-15.28l-.84-.78,2.78,1.03-1.16-1.69,1.19-.12-.12-1.47,24.78,10.78,.31,1.69,.69-.38,.56,1.91,.75-1.91,.97,.13,17.19,7.5c-1.32,1.17-2.63,2.35-3.94,3.53l-43.16-20.22Zm34.41,28.25l.22,.09c8.04-6.26,13.55-12.62,22.03-18.87h.03s-.01-.03,0-.03c3.23-2.39,6.19-5.28,10.59-7.63l-.9-1.03c4.79-4.57,10-9.14,16.03-13.25,.62,.58,1.2,1.15,1.72,1.75-9.01,7.26-17.5,14.67-25.91,22.03l-1.12-.28,.46,.88c-13.45,11.78-26.71,23.44-41.46,34.31-.9-.16-1.78-.33-2.66-.5l20.97-17.47Zm-2.78-1.25l2.59,1.16-21.12,17.5c-1.2-.24-2.38-.5-3.57-.75,6.36-6.3,14.14-12.19,22.07-17.85l.03-.06Zm-.16-.06c-7.92,5.65-15.86,11.52-22.28,17.9-1.3-.27-2.61-.53-3.91-.81,6.46-6.7,13.61-13.45,22.88-18.56l3.31,1.47Zm-3.97-1.75l.53,.22c-9.44,5.21-16.65,11.7-23.22,18.53-.87-.19-1.74-.39-2.62-.56,5.96-6.94,13.25-14.95,25.31-18.19Zm-26,17.94l-2.62,1.09-1-1.16,2.62-2.03,1.97,.94c-.33,.38-.65,.77-.97,1.16Zm2.6-3l-1.72-1.13,2.56-2.09,1.47,.81c-.78,.77-1.56,1.58-2.31,2.41Zm4.68-4.69l-1.62-.85,2.56-2.28,1.59,.94c-.84,.7-1.68,1.42-2.53,2.19Zm4.85-4l-1.78-.94,3.25-2.47,2,.97c-1.15,.73-2.3,1.56-3.47,2.44Zm-12.5-21.28l-1.03,.31,.31,.59-1.63,.35,2.38,.97v3.03c-.81-.94-1.6-1.88-2.5-2.78-.01-1.39,.02-2.83,.06-4.25,.84,.28,1.62,.66,2.41,1.06v.72Zm-2.22-5.5l.22-.69,.78,.16,.09-1.69c.18-.15,.57,1.16,.75,1.09l.35-.25,.03,3.85c-.81-.59-1.57-1.21-2.25-1.85,0-.22,0-.4,.03-.62Zm-.33,3.29c-.54-.9,.02-1.59,.08-2.36,1.5,1.21,3.1,2.5,4.86,3.6h.01c.13,.09,.27,.17,.4,.25,.06,.03,.12,.07,.17,.1,.01,.01,.02,.02,.03,.02,0,.01,.03,.02,.05,.03,.2,.12,.41,.24,.62,.35,.03,.02,.07,.04,.1,.06,.12,.07,.24,.14,.37,.19,.02,.01,.05,.02,.07,.03,.23,.12,.45,.23,.69,.34-.18,.02-.38,.02-.6-.01-.09,0-.18-.01-.28-.03-.02,0-.03,0-.05,0-.13-.01-.27-.04-.41-.07-.2-.04-.4-.1-.6-.16-.21-.06-.42-.12-.63-.2-.23-.07-.46-.15-.69-.24-.03,0-.06-.02-.09-.03-.03-.01-.06-.03-.09-.04h-.01s-.03,0-.04,0c-1.19-.46-2.4-1.02-3.34-1.46-.05-.02-.1-.05-.15-.07s-.1-.05-.15-.07c-.09-.04-.18-.08-.27-.12h0s-.01-.03-.01-.03c-.01-.01-.02-.02-.02-.04-.01,0-.01-.01-.02-.02Zm.02,5.11c2.15,2.17,4.16,4.82,6.75,6.13-2.52-.32-4.75-1.28-6.79-2.19-.55-1.35,.05-2.74,.04-3.94Zm2.59,5.35v2.06l-2.41-1.13c-.01-.73-.02-1.21-.03-1.87,.8,.29,1.62,.61,2.44,.94Zm-.25,9.93l-.47-1h-.72l-.47-.81-.72,.22,.1-2.31,2.34,1.15-.06,2.75Zm-10.22-8.18l.53-.25,4.5,.18-.69-1.31,1.1-.37,17.5,8.12c-1.4,.97-2.73,2.01-4.06,3.06l-18.88-9.43Zm4.78,22.9c7.83-6.78,14.58-14.62,25.03-20.22l.57,.82-.32,.47-2.72,2.43,1.22,1.16c-.59,.33-1.2,.68-1.81,1.06l-2.34-1.12-3.78,2.9,2,1.1c-.58,.43-1.18,.87-1.75,1.34l-1.85-1.06-3.06,2.72,1.84,1.03c-.62,.58-1.25,1.17-1.87,1.78l-1.81-.94-2.85,2.63,1.85,1.25c-.37,.39-.71,.81-1.07,1.22l-2.15-1.1-3.57,2.63,1.41,1.22-1.41,.59c-.43-.33-.48-.8-.65-1.28-.29-.4-.77-.31-.91-.63Zm7.6,7.94c.66,.01,1.33,.05,2,.06l.34,1.16c-.76-.38-1.54-.78-2.34-1.22Zm2.56,1.34l-.38-1.28c1.21,.04,2.42,.08,3.63,.13l.87,2.99c-1.3-.51-2.68-1.11-4.12-1.84Zm4.47,2l-.97-3.12c1.09,.05,2.18,.07,3.28,.12l.91,4.1c-1.04-.31-2.1-.66-3.22-1.1Zm3.53,1.19l-1.03-4.15c1.05,.05,2.13,.1,3.18,.15l1.07,4.75c-1.03-.18-2.1-.43-3.22-.75Zm3.44,.78l-1.04-4.78c1.2,.06,2.4,.13,3.6,.19l.94,4.93c-1.13-.03-2.3-.14-3.5-.34Zm3.78,.34l-.88-4.93c1.08,.05,2.14,.11,3.22,.16l.78,4.65c-1.02,.09-2.06,.15-3.12,.12Zm4.68-.28c-.43,.06-.87,.09-1.31,.13l-.81-4.59c1.29,.05,2.57,.08,3.87,.12,.05,1.31,.65,2.57,1.04,3.84-.94,.2-1.86,.38-2.79,.5Zm3.07-.56c-.36-1.15-.92-2.75-1.16-3.78,1.37,.05,2.75,.08,4.13,.1l.56,2.81c-1.21,.33-2.38,.62-3.53,.87Zm3.72-.94l-.54-2.74c1.43,.01,2.85,.01,4.29,0,.14,.55,.4,1.02,.62,1.53-1.52,.43-3,.83-4.37,1.21Zm4.56-1.28c-.17-.48-.33-.97-.47-1.46,1.24-.02,2.5-.05,3.75-.1l.31,.56c-1.27,.34-2.43,.68-3.59,1Zm3.75-1.03l-.28-.53c1.01-.04,2.04-.09,3.06-.15-.96,.22-1.89,.45-2.78,.68Zm33.81-23.84c-.17,.46-1.03,.94-1.19,1.41,.35,.8,.23,1.42,.19,2.21-4.84,5.52-10.94,11.17-19.03,17.44-21.69,4.74-43.2-.78-59.41,.72l2.91-2.28-1.81-.06,1.18-1.72-3.71,.47c2.51-1.03,5.09-1.87,7.5-3.16,14.75,4.35,29.11,5.25,43.93,3.81,3.21-.31,6.44-.73,9.69-1.25,6.74-8.06,12.19-12.74,18.84-20.22,.06,.62,.03,1.38,.1,1.85,.04,.29,.81,.59,.81,.78Zm-.78-3.69l.19-.09,2.72,.22,.06,1.18-2.97-1.31Zm3.19-.03l-2.75-.37,1.37-1.72,.1,.34,1.28,1.75Zm-.63-2.5l-.18-1.56c5.44-6.2,9.07-10.73,10.78-12.88-2.97,5.04-6.53,9.76-10.6,14.44Zm6.35-1.75c-.46,.35-1.65,.26-2.22,.31-.48,.21-.78,1.11-1.19,1.41-.75-.43-1.33-.33-2.15-.19,4.46-5.2,8.7-10.99,12.96-18.72l.25,1.97c-2.52,5.43-4.62,10.41-7.65,15.22Z"/>
        <path class="cls-98" d="M36.55,61.3c-.06-.09-.11-.18-.14-.27-.03-.05-.05-.1-.06-.15-4.13-1.3-8.36-3.22-12.72-5.93-5.21-3.24-10.23-6.96-14.52-11.37-1.28-1.25-2.68-2.97-3.78-4.35-1.04-1.49-2.16-3.26-2.97-4.92C-4.6,19.81,8.77,7.92,20.91,2.28,8.53,7.8-5.06,19.8,1.89,34.53c1.69,3.48,4.1,6.69,6.81,9.45,4.31,4.46,9.35,8.23,14.59,11.53,4.6,2.85,9.03,4.85,13.31,6.19-.02-.13-.03-.26-.05-.39h0Z"/>
        <path class="cls-42" d="M43.67,63.38c-.51-.08-1.01-.18-1.52-.28-.49-.09-.99-.2-1.48-.31h-.01s-.03,0-.04,0c-1.19-.46-2.4-1.02-3.34-1.46-.05-.02-.1-.05-.15-.07s-.1-.05-.15-.07c-.1-.05-.19-.09-.27-.13-.01-.01-.01-.02-.01-.02-.01-.01-.02-.02-.02-.04-.01,0-.01-.01-.01-.02,1.67,.51,3.29,.92,4.93,1.24h.01c.13,.09,.27,.17,.4,.25,.06,.03,.12,.07,.17,.1,.01,.01,.02,.02,.03,.02,0,.01,.03,.02,.05,.03,.2,.12,.41,.24,.62,.35,.03,.02,.07,.04,.1,.06,.12,.07,.24,.14,.37,.19,.02,.01,.05,.02,.07,.03,.08,.05,.17,.09,.25,.14Z"/>
        <path class="cls-68" d="M43.35,63.21s.05,.02,.07,.03c-.18-.09-.36-.18-.54-.28,.03,.02,.07,.04,.1,.06,.12,.07,.24,.14,.37,.19Z"/>
        <path class="cls-31" d="M43.35,63.21s.05,.02,.07,.03c-.18-.09-.36-.18-.54-.28,.03,.02,.07,.04,.1,.06,.12,.07,.24,.14,.37,.19Z"/>
        <path class="cls-11" d="M42.25,62.61s-.05-.03-.07-.04c0,0,.02,.02,.03,.02,.01,0,.03,.02,.05,.03Z"/>
        <path class="cls-49" d="M42.25,62.61s-.05-.03-.07-.04c0,0,.02,.02,.03,.02,.01,0,.03,.02,.05,.03Z"/>
        <path class="cls-43" d="M42.01,62.46c-.13-.08-.27-.16-.4-.24,0,0,0,0-.01,0,0,0,0,0,.01,0,.13,.08,.27,.16,.4,.24Z"/>
        <path class="cls-62" d="M42.01,62.46c-.13-.08-.27-.16-.4-.24,0,0,0,0-.01,0,0,0,0,0,.01,0,.13,.08,.27,.16,.4,.24Z"/>
        <path class="cls-83" d="M36.71,61.05s0-.02-.01-.02c0,0,0,.02,.02,.03,.17,.08,.37,.17,.57,.26-.07-.03-.14-.07-.21-.1-.13-.06-.25-.12-.36-.17Z"/>
        <path class="cls-64" d="M36.71,61.05s0-.02-.01-.02c0,0,0,.02,.02,.03,.17,.08,.37,.17,.57,.26-.07-.03-.14-.07-.21-.1-.13-.06-.25-.12-.36-.17Z"/>
        <path class="cls-121" d="M36.68,60.99s-.01-.01-.02-.02h.01s0,.02,.01,.02Z"/>
        <path class="cls-109" d="M36.68,60.99s-.01-.01-.02-.02h.01s0,.02,.01,.02Z"/>
        <path class="cls-54" d="M49.34,63.96l.02-.82c-2.21-.09-4.44-.32-6.71-.71,.61,.36,1.21,.72,1.81,1.07,1.65,.23,3.27,.38,4.88,.46Z"/>
        <path class="cls-86" d="M44.46,63.5c-.6-.35-1.2-.71-1.81-1.07,.59,.36,1.18,.72,1.77,1.06,.01,0,.03,0,.04,.01Z"/>
        <path class="cls-2" d="M44.46,63.5c-.6-.35-1.2-.71-1.81-1.07,.59,.36,1.18,.72,1.77,1.06,.01,0,.03,0,.04,.01Z"/>
        <path class="cls-38" d="M59.4,63.58c-2.1,.25-4.24,.41-6.4,.44l.03-.85c1.64-.03,3.26-.14,4.86-.3h.01l1.5,.71Z"/>
        <polygon class="cls-75" points="59.4 63.58 59.41 63.58 57.9 62.87 57.89 62.87 57.9 62.87 59.4 63.58"/>
        <polygon class="cls-5" points="59.4 63.58 59.41 63.58 57.9 62.87 57.89 62.87 57.9 62.87 59.4 63.58"/>
        <path class="cls-106" d="M66.65,62.43l.68-.97,1.3,.57c9.46-2,18.61-4.9,28.04-5.65l.4-.98c-10.31,.81-20.47,4.23-31.03,6.26l.13,.87c.16-.03,.32-.06,.48-.1Z"/>
        <path class="cls-50" d="M185.03,119.47c-13.77-12.44-26.32-26.2-39.52-39.25-3.79-3.73-9.41-9.43-13.41-12.9-1.88-1.61-3.74-3.03-5.58-4.27l-.39,.81c4.43,3.01,8.47,6.69,12.22,10.4,6.41,6.25,13.52,13.28,19.75,19.64,12.09,11.49,34.29,37.76,50.44,39.74,3.1,.34,6.27-.45,8.87-2.12-11.31,6.84-24.06-5-32.38-12.05Z"/>
        <path class="cls-13" d="M31.05,53.96C17.91,46.74-.15,31.33,12.48,15.77c3.38-4.31,7.86-7.64,12.52-10.54-2.1,1.26-4.96,3.08-6.89,4.55C-3.47,26.38,12.54,44.44,31.05,53.96Z"/>
        <path class="cls-115" d="M24.59,15.23c-14.11,7.59-11.1,19.49,.57,27.71-10.97-8.81-14.04-19.43-.57-27.71Z"/>
        <path class="cls-61" d="M180.85,101c4.71,5.92,9.31,11.99,14.86,17.16,2.79,2.54,5.99,4.82,9.69,5.83,3.63,1.12,7.94,.31,10.54-2.52-2.65,2.76-6.91,3.45-10.47,2.28-3.63-1.03-6.78-3.29-9.53-5.84-5.49-5.19-10.05-11.29-14.69-17.22-9.26-11.56-18.6-25.15-33.55-29.49,14.78,4.7,23.99,18.15,33.16,29.8Z"/>
        <path class="cls-34" d="M173.29,73.38c-.37-.16-.74-.31-1.13-.44,.38,.12,.75,.28,1.13,.44Z"/>
        <path class="cls-100" d="M183.28,82.39c2.98,3.94,5.65,8.12,8.35,12.27,3.94,5.78,13.61,22.21,21.86,15.11-8.18,6.66-17.55-9.71-21.45-15.38-4.86-6.96-10.54-17.62-18.75-21.02,4.18,1.81,7.22,5.51,9.99,9.01Z"/>
      </g>
    </g>
  </g>
</svg>