<?xml version="1.0" encoding="UTF-8"?>
<svg id="Layer_2" data-name="Layer 2" xmlns="http://www.w3.org/2000/svg" viewBox="0 0 71.33 60.51">
  <defs>
    <style>
      .cls-1 {
        fill: #4a2412;
      }
    </style>
  </defs>
  <g id="Layer_2-2" data-name="Layer 2">
    <g id="layer1">
      <path id="path2310" class="cls-1" d="M45.69,0c-.75,.07-1.36,.8-1.55,1.93v.02c-.08,.49-.31,.8-.62,1.13-.31,.34-.71,.69-1.04,1.19l-.02,.04-.02,.06c-.2,.68-.25,2.03-.28,3.42-.03,1.38-.02,2.74-.02,3.35v.04c-.27,1.87-.44,3.78-.19,5.69-1.21-.02-2.12,.53-2.91,1.36-.18,.6,.19,.84,.53,1.25,.37,.67,.98,.89,1.68,1.12,.63-.04,1.26,0,1.89,0,.15,.16,.31,.31,.51,.45v.02c1.68,1.15,3.68,.9,5.43,.23,.17,.49,.47,.76,.96,1,1,.11,1.85-.16,2.65-.72,1.09-1.12,.78-2.17-.21-3.14l-.02-.02h-.02c-.35-.23-.73-.44-1.13-.55,0-.37-.05-.84-.13-1.19-.63-1.29-1.16-2.64-1.7-3.97-.11-3.04-.33-8.19-1.97-11.03,0-.02-.01-.03-.02-.06h-.02c-.17-.53-.4-.95-.7-1.23-.31-.29-.7-.43-1.08-.4h0Zm.06,.61c.19-.02,.39,.05,.61,.25,.21,.2,.44,.51,.59,1v.04l.02,.04c1.51,2.57,1.8,7.84,1.91,10.87l-.62,1.25-.25,1.78-.95,.89,.04,.08,1.15-.47,.23,.4,.11-.04-.09-.47,.06-2,.51-.87c.47,1.16,.95,2.34,1.53,3.48,.09,.4,.09,.65,.06,.98-.56,.03-1.11,.34-1.51,1.02-.13,.61-.15,1.25-.15,1.87-1.67,.67-3.47,.9-4.97-.13-.56-.41-.84-.81-1.02-1.31-.19-.49-.27-1.09-.36-1.8v-.02c-.38-2.06-.19-4.11,.11-6.2v-.06c0-.61-.01-1.98,.02-3.37,.03-1.37,.13-2.74,.27-3.23,.28-.4,.61-.72,.95-1.08,.11-.12,.21-.24,.3-.38l.62,.95-.04,1.13-.51,.83v.02l.68-.66,.15-.95,1.04,.23,.02-.04-1-.53,.02-.08-.68-1.44c.07-.17,.14-.36,.17-.57,.17-.97,.62-1.38,1-1.42h0ZM14.22,3.22c-2.75-.03-3.31,3.23-3.59,5.52-.33,2.17,.84,4.43,.51,6.6-.87,1.56-1.44,3.32-1.42,5.05v.06c.53,1.73,1.23,3.31,2.33,4.75,2.19,.71,4.13-.19,6.05-1.23h.02v-.02c.35-.34,.57-.71,.74-1.12,.48,.04,1.05,.16,1.65-.11v.02c.64-.18,1.33-.25,1.68-1-.31-.66-.74-1.23-1.19-1.8-.62-.34-1.18-.24-1.8-.06,0-.1,0-.2,0-.3v-.02s0-.01,0-.02c.24-1.78-.48-2.81-1.19-4.31-.84-1.95-.3-4.59-.3-6.83-.6-2.12-1.25-4.44-3.48-5.18Zm-.08,.34c1.99,.51,2.37,3.2,2.95,4.9,0,1.4-.15,2.9,0,4.37l.09,3.56,.57,1.53-1.29,3.54h.06l1.1-2.42-.13,.68-.19,2.12-1.27,2.4h.11l1.51-2.21,.11-2.23,.32-1.82v-.04l-.66-1.61,.08-1.63c.05,.15,.09,.31,.15,.45,.75,1.38,1.04,2.78,.95,4.33,.17,1.43,0,2.86-.68,4.12-1.71,1.18-3.55,1.81-5.64,1.55-.55-.88-.32-1.28-.42-1.89l.76-1.29-.13-.15-.87,1.42-.02,.98c-.77-1.24-.76-2.51-1.29-3.9-.01-1.43,.16-2.97,.72-4.27l-.08,1.68,.81,1.04,.08-.08-.7-.93,.21-2.36s.02-.08,.02-.11v-.09l.93-.96,.02-.19-.91,.79c.14-1.98-.17-4-.19-5.99v-.06c.27-1.47,.61-3.85,1.87-4.82l-.21,.98,.15,.09,.45-1.3c.2-.09,.41-.16,.64-.19h0Zm27.63,13.92c.09,0,.18,.01,.27,.02,0,.01,0,.03,0,.04h-.02c.09,.71,.18,1.34,.4,1.93,.08,.2,.17,.4,.28,.59-.47,.1-.97,.31-1.42,.32-.71-.12-.81-.66-1.25-1.25-.23-.11-.6-.51-.76-.7,.66-.67,1.53-.95,2.5-.95Zm9.02,.64c.39,0,.82,.49,1.27,.78,.94,.72,1.06,1.63,.38,2.53-.59,.49-1.55,.23-2.29,.28-.38-.11-.67-.32-.83-.62,0-.52,.31-1.49,.38-2,.34-.54,.71-.97,1.1-.96Zm13.71,.95c-1.19,.17-1.69,1.03-2.14,2.06-.82,1.71-1.74,3.38-2.46,5.14-.07,1.93,.24,3.85,.42,5.77-.13,.74-.74,1.49-1.17,2.16-2.39-7.8-12.66-13.65-24.93-13.65-9.11,0-17.07,3.23-21.56,8.09-.28-.83-.68-1.6-1.21-2.25v-.06l-.08-.04c-.5-.58-1.11-1.06-1.89-1.36l-.04-.02h-.04c-3-.21-3.49,3.25-3.69,5.58-.45,2.83-1.92,5.34-2.95,7.98-.25,2.97-.23,5.95-.02,8.93l.02,.04,.02,.04c.19,.52,.43,.93,.7,1.27l-1.76-.55c-1.04,.29-1.4,1-1.74,1.95-.01,.83,.56,1.21,1.17,1.65,1.58,.2,2.94-.4,4.26-1.21-.08-.3-.26-.58-.45-.83,.42,.14,.88,.23,1.42,.27,2.02-.12,3.86-.8,5.62-1.76l.04-.02,.02-.04c.34-.39,.59-.82,.76-1.29,4.5,4.75,12.34,7.92,21.29,7.94-.04,.35-.08,.71-.09,1.1-.71,.07-1.21,.68-1.72,1.04-.84,.49-1.17,.76-1.36,1.64,.23,1.21,1.11,1.82,2.25,1.88,1.1,.01,2.31-.7,3.03-1.33,1.3,.38,2.71,.31,4.01,.81,1.22,.61,2.54,.49,3.84,.21,1.15-.41,2.09-1.3,2.5-2.67,.82-.1,1.59-.31,2.19-.85,.1-.63,0-1.32-.04-1.97-.09-.33-.46-.35-.74-.45-.77,0-1.48-.05-2.23-.21-.13-.32-.26-.63-.4-.95,7.23-2.38,12.55-7,13.96-12.52,.37,.75,.96,1.38,1.85,1.82,1.89,.72,3.68,1.07,5.66,.62,.13-.08,.27-.15,.39-.25,.45,.48,.83,.71,1.48,.61,.91-.25,2,.1,2.64-1.06-.51-.61-1.07-1.19-.61-2.29-.59-.38-1.19-.37-1.79-.3,.24-1.31,.11-2.74-.21-3.95-.41-1.38-1.29-2.56-1.65-3.97-.27-2.2,.48-4.62,.59-6.92,.22-1.54,.24-2.77-.36-4.22l-.02-.04-.02-.02c-.9-1-1.85-1.59-2.77-1.55h0Zm.1,.13c.06,0,.13,.02,.19,.04l-1.17,2.25,.13,1.99,.11,.06,.11-1.97,1.17-2.19c.5,.3,1.04,.96,1.64,1.63,.71,1.24,.34,2.53,.27,3.88-.22,2.31-.47,4.58-.32,6.9,.3,1.18,.75,2.31,1.16,3.46l-.72,2.19-1.55,2.59-.97,.23,.02,.02,.89-.08,1.93-2.65v-.02l.02-.04,.57-1.7c.02,.06,.04,.11,.05,.17,.67,2.39,.62,5.34-1.43,6.85-1.34,.5-2.84,.07-4.24-.36l1.87,.04,3.09-1.12,.62-1.53h-.02l-.7,1.25-3.12,1.15-2.89-.15c-2.45-1.08-2.09-5.14-1.78-7.39,.38-.56,.65-1.15,.85-1.76,.66-.55,1.25-1.05,1.7-2.16l-.09,.02c-.01,.63-.82,.94-1.38,1.34-.12-1.9-.37-3.91-.32-5.81,.64-1.77,1.86-3.2,2.64-4.96v-.04c.28-.93,.82-1.83,1.66-2.14Zm-44.14,.85c.16-.01,.3,0,.42,.02,.33,.38,.6,1.29,.83,1.72-.26,.23-1.01,.55-1.47,.72-.4,.18-.79-.13-1.21-.25,.14-.59,.17-1.21,.17-1.83,.34-.17,.85-.34,1.27-.38Zm13.62,.74c12.1,0,22.59,6.25,24.79,14.09h.04c-.19,1.76-.36,3.7,.19,5.24-1.14,5.6-6.57,10.28-13.9,12.67,0,0,0-.01,0-.02-.31-2.98-.13-5.98-.32-8.96-.03-.95-.15-1.88-.34-2.8l13.35-1.7-15.19-4.6c-.03-.13-.41-1.32-.45-1.46l2.53-9.91-12.25,8.04-15.49-4.8,7.91,9.7-11.78,7.77c0-.36-.02-.72-.04-1.08-.11-1.91-.29-3.83,.08-5.5,.28-2.72,.05-5.45-.32-8.15v-.02c-.03-.11-.06-.23-.09-.34,4.43-4.86,12.37-8.17,21.29-8.17Zm10.53,2.78l-2.57,9.47c-.14-.18-.3-.35-.51-.49-.97,.01-1.98,.41-2.63,.79l-6.24-1.97,11.95-7.81Zm-35.25,1.49c.54,.22,.98,.6,1.36,1.04l.78,3.27-.27,2.5-.78,3.39,.17,.06,.87-2.87,.74,2.21-.85,2.16,1.21-2-.89-3.4,.17-1.99-.26-1.91c.29,.62,.5,1.28,.68,1.93,.58,2.64,.69,5.33,.64,8.02-.36,1.9-.44,3.71-.3,5.62,.11,1.85,.02,3.5-1,4.69-.66,.41-1.34,.8-2.04,1.13l-.95-.7-.32-.76-.27-1.78-.04-.08-.15,1.89,.06,.13-1.51,.13v.11l1.66,.08,.26,.53,.78,.62c-.89,.38-1.8,.67-2.74,.76-1.61,.07-2.31-1.3-3.01-2.59-.38-2.63-.39-6.08-.32-8.79,.35-1.03,.85-1.99,1.36-2.93-.26,.72-.48,1.4-.25,2.48l.17-.02c-.21-1.37,.34-2.49,.7-3.63,.61-1.17,1.14-2.37,1.31-3.78v-.04c.11-1.99,.57-5.43,3.03-5.47Zm7.94,1.68l15.07,4.71-7.17,4.92s-7.9-9.63-7.9-9.63Zm15.28,4.73l6.09,2c-.92,.73-1.55,1.84-2.08,3.16-.72,1.63-.66,3.42-.57,5.14l-6.07,.57-4.65-6s7.28-4.88,7.28-4.88Zm8.47,1.53c.63,.49,.85,1.17,1.06,1.91,.12,.77,.55,1.76,1.06,2.5,.88,2.08,1.13,4.22,1.25,6.49,.2,3,.21,6.15,.49,9.15,1.11,1.17,1.03,3.12,1.06,4.31-.35,1.19-1.12,2.25-2.1,2.59-1,.35-2.22-.01-3.37-.47-.07-.04-.14-.08-.21-.11h1.47l2.21-1.08,.04-.13,1.15-.68-.06-.1-1.02,.44,.42-1.63-.13-.08-.59,2-2.12,.91h-.06l.15-1.31-.04-.05-.53,1.36-2.08-.04c-1.17-.22-2.41-.1-3.52-.68-.41-.29-.96-.76-1.21-1.57-.03-2.79,.91-4.52,1.55-6.26l.02-.06v-.04c.03-2.82,.41-4.32,.45-7.21-.05-.51-.07-1-.08-1.49l.06-.06h-.06c0-1.62,.24-3.19,.79-4.75,.1-.69,.31-1.25,.59-1.72-.16,.78-.25,1.62-.17,2.63l.13-.04c-.1-1.32,.59-2.45,.98-3.65,.64-.49,1.45-.82,2.38-1.1h0Zm1.66,1.89l14.6,4.39-12.77,1.49c-.31-.97-.77-2.55-1.19-3.71-.44-.66-.52-1.42-.64-2.18Zm-17.59,1.44l4.75,6.2-16.7,1.53s11.95-7.73,11.95-7.73Zm44.26,3.82c.35-.01,.63,.15,.83,.44,.07,.46-.3,.77,.38,1.42,.1,.93-1.29,.92-2.06,1.19-.45,.11-.66-.4-.98-.72,.62-.59,1.03-1.34,1.26-2.18v-.02c.2-.09,.4-.13,.57-.13Zm-33.36,1.76c.02,.4,.04,.81,.06,1.21-.04,2.27-.46,3.87-.64,5.82l-5.31-6.51,5.9-.53Zm-6.01,.78l5.41,6.43c-.03,.38-.05,.77-.06,1.19-.45,1.21-.96,2.5-1.21,4.18-8.82-.02-16.74-3.23-21.22-7.98,.2-.71,.25-1.48,.25-2.27,0,0,16.83-1.55,16.83-1.55ZM1.66,48.53c.59,.07,1.58,.54,2.1,.81,.57,.24,.77,.97,1.1,1.48-.75,.38-1.88,.25-2.74,.57-.54,.2,.24-1.02,.3-1.12,.09-.15-.96,1.11-1.13,1.12-.43-.18-.78-.79-.98-1.13,.35-.72,.66-1.4,1.36-1.72Zm44.25,5.94c.65,.2,1.47-.03,2.19,.06,.28,.33,.21,1.6,.23,2.06-.43,.44-1.18,.35-1.8,.44-.09-.87-.32-1.73-.62-2.55Zm-11.91,2.1c0,.06,0,.12,0,.19,.15,.85,.71,1.43,1.27,2.05,.17,.09,.35,.15,.53,.22-.82,.49-1.63,1-2.59,1.06-.92,0-1.45-.59-1.82-1.34-.03-.45,.39-1.1,1.13-1.53,.44-.39,.93-.54,1.48-.64Z"/>
    </g>
  </g>
</svg>