<?xml version="1.0" encoding="UTF-8"?>
<svg id="Layer_2" data-name="Layer 2" xmlns="http://www.w3.org/2000/svg" xmlns:xlink="http://www.w3.org/1999/xlink" viewBox="0 0 123.12 111.84">
  <defs>
    <style>
      .cls-1 {
        fill: url(#linear-gradient-75);
      }

      .cls-2 {
        fill: url(#linear-gradient-119);
      }

      .cls-3 {
        fill: url(#linear-gradient-2);
      }

      .cls-4 {
        fill: url(#linear-gradient-51);
      }

      .cls-5 {
        fill: url(#linear-gradient-138);
      }

      .cls-6 {
        fill: url(#linear-gradient-168);
      }

      .cls-7 {
        fill: url(#linear-gradient-122);
      }

      .cls-8 {
        fill: url(#linear-gradient-17);
      }

      .cls-9 {
        fill: url(#linear-gradient-158);
      }

      .cls-10 {
        fill: url(#linear-gradient-157);
      }

      .cls-11 {
        fill: url(#linear-gradient-87);
      }

      .cls-12 {
        fill: url(#linear-gradient-150);
      }

      .cls-13 {
        fill: url(#linear-gradient-93);
      }

      .cls-14 {
        fill: url(#linear-gradient-92);
      }

      .cls-15 {
        fill: url(#linear-gradient-147);
      }

      .cls-16 {
        fill: url(#linear-gradient-80);
      }

      .cls-17 {
        fill: url(#linear-gradient-192);
      }

      .cls-18 {
        fill: url(#linear-gradient-188);
      }

      .cls-19 {
        fill: url(#linear-gradient-109);
      }

      .cls-20 {
        fill: url(#linear-gradient-43);
      }

      .cls-21 {
        fill: url(#linear-gradient-125);
      }

      .cls-22 {
        fill: url(#linear-gradient-133);
      }

      .cls-23 {
        fill: url(#linear-gradient-164);
      }

      .cls-24 {
        fill: url(#linear-gradient-151);
      }

      .cls-25 {
        fill: url(#linear-gradient-205);
      }

      .cls-26 {
        fill: url(#linear-gradient-203);
      }

      .cls-27 {
        fill: url(#linear-gradient-174);
      }

      .cls-28 {
        fill: url(#linear-gradient-15);
      }

      .cls-29 {
        fill: url(#linear-gradient-173);
      }

      .cls-30 {
        fill: url(#linear-gradient-58);
      }

      .cls-31 {
        fill: url(#linear-gradient-202);
      }

      .cls-32 {
        fill: url(#linear-gradient-69);
      }

      .cls-33 {
        fill: url(#linear-gradient-81);
      }

      .cls-34 {
        fill: url(#linear-gradient-170);
      }

      .cls-35 {
        fill: url(#linear-gradient-18);
      }

      .cls-36 {
        fill: url(#linear-gradient-179);
      }

      .cls-37 {
        fill: url(#linear-gradient-56);
      }

      .cls-38 {
        fill: url(#linear-gradient-167);
      }

      .cls-39 {
        fill: url(#linear-gradient-187);
      }

      .cls-40 {
        fill: url(#linear-gradient-40);
      }

      .cls-41 {
        fill: url(#linear-gradient-131);
      }

      .cls-42 {
        fill: url(#linear-gradient-52);
      }

      .cls-43 {
        fill: url(#linear-gradient-28);
      }

      .cls-44 {
        fill: url(#linear-gradient-186);
      }

      .cls-45 {
        fill: url(#linear-gradient-160);
      }

      .cls-46 {
        fill: url(#linear-gradient-14);
      }

      .cls-47 {
        fill: url(#linear-gradient-208);
      }

      .cls-48 {
        fill: url(#linear-gradient-36);
      }

      .cls-49 {
        fill: url(#linear-gradient-78);
      }

      .cls-50 {
        fill: url(#linear-gradient-20);
      }

      .cls-51 {
        fill: url(#linear-gradient-6);
      }

      .cls-52 {
        fill: url(#linear-gradient-130);
      }

      .cls-53 {
        fill: url(#linear-gradient-53);
      }

      .cls-54 {
        fill: url(#linear-gradient-165);
      }

      .cls-55 {
        fill: url(#linear-gradient-91);
      }

      .cls-56 {
        fill: url(#linear-gradient-60);
      }

      .cls-57 {
        fill: url(#linear-gradient-108);
      }

      .cls-58 {
        fill: url(#linear-gradient-84);
      }

      .cls-59 {
        fill: url(#linear-gradient-199);
      }

      .cls-60 {
        fill: url(#linear-gradient-191);
      }

      .cls-61 {
        fill: url(#linear-gradient-136);
      }

      .cls-62 {
        fill: url(#linear-gradient-104);
      }

      .cls-63 {
        fill: url(#linear-gradient-128);
      }

      .cls-64 {
        fill: url(#linear-gradient-35);
      }

      .cls-65 {
        fill: url(#linear-gradient-48);
      }

      .cls-66 {
        fill: url(#linear-gradient-210);
      }

      .cls-67 {
        fill: url(#linear-gradient-32);
      }

      .cls-68 {
        fill: url(#linear-gradient-120);
      }

      .cls-69 {
        fill: url(#linear-gradient-146);
      }

      .cls-70 {
        fill: url(#linear-gradient-201);
      }

      .cls-71 {
        fill: url(#linear-gradient-97);
      }

      .cls-72 {
        fill: url(#linear-gradient-185);
      }

      .cls-73 {
        fill: url(#linear-gradient-182);
      }

      .cls-74 {
        fill: url(#linear-gradient-11);
      }

      .cls-75 {
        fill: url(#linear-gradient-50);
      }

      .cls-76 {
        fill: url(#linear-gradient-106);
      }

      .cls-77 {
        fill: url(#linear-gradient-111);
      }

      .cls-78 {
        fill: url(#linear-gradient-169);
      }

      .cls-79 {
        fill: url(#linear-gradient-189);
      }

      .cls-80 {
        fill: url(#linear-gradient-63);
      }

      .cls-81 {
        fill: url(#linear-gradient-67);
      }

      .cls-82 {
        fill: url(#linear-gradient-207);
      }

      .cls-83 {
        fill: url(#linear-gradient-148);
      }

      .cls-84 {
        fill: url(#linear-gradient-95);
      }

      .cls-85 {
        fill: url(#linear-gradient-86);
      }

      .cls-86 {
        fill: url(#linear-gradient-39);
      }

      .cls-87 {
        fill: url(#linear-gradient-141);
      }

      .cls-88 {
        fill: url(#linear-gradient-137);
      }

      .cls-89 {
        fill: url(#linear-gradient-156);
      }

      .cls-90 {
        fill: url(#linear-gradient-110);
      }

      .cls-91 {
        fill: url(#linear-gradient-124);
      }

      .cls-92 {
        fill: url(#linear-gradient-135);
      }

      .cls-93 {
        fill: url(#linear-gradient-10);
      }

      .cls-94 {
        fill: url(#linear-gradient-59);
      }

      .cls-95 {
        fill: url(#linear-gradient-143);
      }

      .cls-96 {
        fill: url(#linear-gradient-159);
      }

      .cls-97 {
        fill: url(#linear-gradient-171);
      }

      .cls-98 {
        fill: url(#linear-gradient-190);
      }

      .cls-99 {
        fill: url(#linear-gradient-117);
      }

      .cls-100 {
        fill: url(#linear-gradient-49);
      }

      .cls-101 {
        fill: url(#linear-gradient-37);
      }

      .cls-102 {
        fill: url(#linear-gradient-152);
      }

      .cls-103 {
        fill: url(#linear-gradient-82);
      }

      .cls-104 {
        fill: url(#linear-gradient-16);
      }

      .cls-105 {
        fill: url(#linear-gradient-161);
      }

      .cls-106 {
        fill: url(#linear-gradient-31);
      }

      .cls-107 {
        fill: url(#linear-gradient-85);
      }

      .cls-108 {
        fill: url(#linear-gradient-154);
      }

      .cls-109 {
        fill: url(#linear-gradient-127);
      }

      .cls-110 {
        fill: url(#linear-gradient-112);
      }

      .cls-111 {
        fill: url(#linear-gradient-61);
      }

      .cls-112 {
        fill: url(#linear-gradient-114);
      }

      .cls-113 {
        fill: url(#linear-gradient-68);
      }

      .cls-114 {
        fill: url(#linear-gradient-194);
      }

      .cls-115 {
        fill: url(#linear-gradient-103);
      }

      .cls-116 {
        fill: url(#linear-gradient-62);
      }

      .cls-117 {
        fill: url(#linear-gradient-107);
      }

      .cls-118 {
        fill: url(#linear-gradient-41);
      }

      .cls-119 {
        fill: url(#linear-gradient-76);
      }

      .cls-120 {
        fill: url(#linear-gradient-98);
      }

      .cls-121 {
        fill: url(#linear-gradient-21);
      }

      .cls-122 {
        fill: url(#linear-gradient-72);
      }

      .cls-123 {
        fill: url(#linear-gradient-25);
      }

      .cls-124 {
        fill: url(#linear-gradient-121);
      }

      .cls-125 {
        fill: url(#linear-gradient-89);
      }

      .cls-126 {
        fill: url(#linear-gradient-144);
      }

      .cls-127 {
        fill: url(#linear-gradient-5);
      }

      .cls-128 {
        fill: url(#linear-gradient-64);
      }

      .cls-129 {
        fill: url(#linear-gradient-206);
      }

      .cls-130 {
        fill: url(#linear-gradient-198);
      }

      .cls-131 {
        fill: url(#linear-gradient-102);
      }

      .cls-132 {
        fill: url(#linear-gradient-184);
      }

      .cls-133 {
        fill: url(#linear-gradient-83);
      }

      .cls-134 {
        fill: url(#linear-gradient-54);
      }

      .cls-135 {
        fill: url(#linear-gradient-45);
      }

      .cls-136 {
        fill: url(#linear-gradient-113);
      }

      .cls-137 {
        fill: url(#linear-gradient-55);
      }

      .cls-138 {
        fill: url(#linear-gradient-175);
      }

      .cls-139 {
        fill: url(#linear-gradient-34);
      }

      .cls-140 {
        fill: url(#linear-gradient-118);
      }

      .cls-141 {
        fill: url(#linear-gradient-140);
      }

      .cls-142 {
        fill: url(#linear-gradient-65);
      }

      .cls-143 {
        fill: url(#linear-gradient-70);
      }

      .cls-144 {
        fill: none;
      }

      .cls-145 {
        fill: url(#linear-gradient-195);
      }

      .cls-146 {
        fill: url(#linear-gradient-79);
      }

      .cls-147 {
        fill: url(#linear-gradient-153);
      }

      .cls-148 {
        fill: url(#linear-gradient-88);
      }

      .cls-149 {
        fill: url(#linear-gradient-7);
      }

      .cls-150 {
        fill: url(#linear-gradient-134);
      }

      .cls-151 {
        fill: url(#linear-gradient-149);
      }

      .cls-152 {
        fill: url(#linear-gradient-163);
      }

      .cls-153 {
        fill: url(#linear-gradient-197);
      }

      .cls-154 {
        fill: url(#linear-gradient-66);
      }

      .cls-155 {
        fill: url(#linear-gradient-96);
      }

      .cls-156 {
        fill: url(#linear-gradient-162);
      }

      .cls-157 {
        fill: url(#linear-gradient-204);
      }

      .cls-158 {
        fill: url(#linear-gradient-24);
      }

      .cls-159 {
        fill: url(#linear-gradient-73);
      }

      .cls-160 {
        fill: url(#linear-gradient-155);
      }

      .cls-161 {
        fill: url(#linear-gradient-139);
      }

      .cls-162 {
        fill: url(#linear-gradient-100);
      }

      .cls-163 {
        fill: url(#linear-gradient-105);
      }

      .cls-164 {
        fill: url(#linear-gradient-9);
      }

      .cls-165 {
        fill: url(#linear-gradient-129);
      }

      .cls-166 {
        fill: url(#linear-gradient-22);
      }

      .cls-167 {
        fill: url(#linear-gradient-74);
      }

      .cls-168 {
        fill: url(#linear-gradient-42);
      }

      .cls-169 {
        fill: url(#linear-gradient-99);
      }

      .cls-170 {
        fill: url(#linear-gradient-172);
      }

      .cls-171 {
        fill: url(#linear-gradient-200);
      }

      .cls-172 {
        fill: url(#linear-gradient-166);
      }

      .cls-173 {
        fill: url(#linear-gradient-196);
      }

      .cls-174 {
        fill: url(#linear-gradient-3);
      }

      .cls-175 {
        fill: url(#linear-gradient-123);
      }

      .cls-176 {
        fill: url(#linear-gradient);
      }

      .cls-177 {
        fill: url(#linear-gradient-181);
      }

      .cls-178 {
        fill: url(#linear-gradient-193);
      }

      .cls-179 {
        fill: url(#linear-gradient-177);
      }

      .cls-180 {
        fill: url(#linear-gradient-176);
      }

      .cls-181 {
        fill: url(#linear-gradient-27);
      }

      .cls-182 {
        fill: url(#linear-gradient-116);
      }

      .cls-183 {
        fill: url(#linear-gradient-132);
      }

      .cls-184 {
        fill: url(#linear-gradient-33);
      }

      .cls-185 {
        fill: url(#linear-gradient-142);
      }

      .cls-186 {
        fill: url(#linear-gradient-38);
      }

      .cls-187 {
        fill: url(#linear-gradient-178);
      }

      .cls-188 {
        fill: url(#linear-gradient-94);
      }

      .cls-189 {
        fill: url(#linear-gradient-29);
      }

      .cls-190 {
        fill: url(#linear-gradient-30);
      }

      .cls-191 {
        fill: url(#linear-gradient-126);
      }

      .cls-192 {
        fill: url(#linear-gradient-23);
      }

      .cls-193 {
        fill: url(#linear-gradient-19);
      }

      .cls-194 {
        fill: url(#linear-gradient-71);
      }

      .cls-195 {
        fill: url(#linear-gradient-4);
      }

      .cls-196 {
        fill: url(#linear-gradient-77);
      }

      .cls-197 {
        fill: url(#linear-gradient-115);
      }

      .cls-198 {
        fill: url(#linear-gradient-209);
      }

      .cls-199 {
        fill: url(#linear-gradient-8);
      }

      .cls-200 {
        fill: url(#linear-gradient-90);
      }

      .cls-201 {
        fill: url(#linear-gradient-44);
      }

      .cls-202 {
        fill: url(#linear-gradient-57);
      }

      .cls-203 {
        fill: url(#linear-gradient-180);
      }

      .cls-204 {
        fill: url(#linear-gradient-47);
      }

      .cls-205 {
        fill: url(#linear-gradient-46);
      }

      .cls-206 {
        fill: url(#linear-gradient-145);
      }

      .cls-207 {
        fill: url(#linear-gradient-183);
      }

      .cls-208 {
        fill: url(#linear-gradient-12);
      }

      .cls-209 {
        fill: url(#linear-gradient-13);
      }

      .cls-210 {
        fill: url(#linear-gradient-26);
      }

      .cls-211 {
        fill: url(#linear-gradient-101);
      }
    </style>
    <linearGradient id="linear-gradient" x1="-.11" y1="88.66" x2="123.17" y2="88.66" gradientUnits="userSpaceOnUse">
      <stop offset="0" stop-color="#302e2e"/>
      <stop offset="1" stop-color="#171717"/>
    </linearGradient>
    <linearGradient id="linear-gradient-2" x1=".06" y1="83.16" x2="123.11" y2="83.16" xlink:href="#linear-gradient"/>
    <linearGradient id="linear-gradient-3" x1="-.31" y1="91.25" x2="123.23" y2="91.25" xlink:href="#linear-gradient"/>
    <linearGradient id="linear-gradient-4" x1=".31" y1="90.52" x2="123.03" y2="90.52" xlink:href="#linear-gradient"/>
    <linearGradient id="linear-gradient-5" x1="0" y1="85.94" x2="123.13" y2="85.94" xlink:href="#linear-gradient"/>
    <linearGradient id="linear-gradient-6" x1=".02" y1="86.33" x2="123.11" y2="86.33" xlink:href="#linear-gradient"/>
    <linearGradient id="linear-gradient-7" x1=".28" y1="88.03" x2="123.03" y2="88.03" xlink:href="#linear-gradient"/>
    <linearGradient id="linear-gradient-8" x1="-.15" y1="91.94" x2="123.18" y2="91.94" xlink:href="#linear-gradient"/>
    <linearGradient id="linear-gradient-9" x1="0" y1="62.4" x2="123.12" y2="62.4" xlink:href="#linear-gradient"/>
    <linearGradient id="linear-gradient-10" x1="0" y1="55.92" x2="123.12" y2="55.92" xlink:href="#linear-gradient"/>
    <linearGradient id="linear-gradient-11" x1="87.13" y1="86.44" x2="95.29" y2="86.44" gradientUnits="userSpaceOnUse">
      <stop offset="0" stop-color="#bdafaa"/>
      <stop offset="1" stop-color="#706864"/>
    </linearGradient>
    <linearGradient id="linear-gradient-12" x1="87.66" y1="86.33" x2="95.01" y2="86.33" gradientUnits="userSpaceOnUse">
      <stop offset="0" stop-color="#726a67"/>
      <stop offset="1" stop-color="#252321"/>
    </linearGradient>
    <linearGradient id="linear-gradient-13" x1="75.3" y1="36.85" x2="65.17" y2="47.07" gradientUnits="userSpaceOnUse">
      <stop offset="0" stop-color="#381a13"/>
      <stop offset=".27" stop-color="#3b1b14"/>
      <stop offset=".52" stop-color="#462017"/>
      <stop offset=".76" stop-color="#59291d"/>
      <stop offset="1" stop-color="#733525"/>
      <stop offset="1" stop-color="#743626"/>
    </linearGradient>
    <linearGradient id="linear-gradient-14" x1="44.51" y1="54.99" x2="56.17" y2="42.31" xlink:href="#linear-gradient-13"/>
    <linearGradient id="linear-gradient-15" x1="77.8" y1="61.27" x2="71.87" y2="52.06" xlink:href="#linear-gradient-13"/>
    <linearGradient id="linear-gradient-16" x1="76.74" y1="53.39" x2="79.81" y2="69.03" gradientUnits="userSpaceOnUse">
      <stop offset="0" stop-color="#8e7971"/>
      <stop offset="1" stop-color="#413834"/>
    </linearGradient>
    <linearGradient id="linear-gradient-17" x1="43.12" y1="52.45" x2="38.72" y2="64.73" xlink:href="#linear-gradient-16"/>
    <linearGradient id="linear-gradient-18" x1="70.5" y1="20.24" x2="78.78" y2="20.24" xlink:href="#linear-gradient-11"/>
    <linearGradient id="linear-gradient-19" x1="74.28" y1="23.16" x2="78.97" y2="23.16" xlink:href="#linear-gradient-11"/>
    <linearGradient id="linear-gradient-20" x1="74.41" y1="26.28" x2="79.41" y2="26.28" xlink:href="#linear-gradient-11"/>
    <linearGradient id="linear-gradient-21" x1="78" y1="25.74" x2="85.44" y2="25.74" xlink:href="#linear-gradient-11"/>
    <linearGradient id="linear-gradient-22" x1="81.78" y1="28.9" x2="85.94" y2="28.9" xlink:href="#linear-gradient-11"/>
    <linearGradient id="linear-gradient-23" x1="81.91" y1="32.04" x2="84.16" y2="32.04" xlink:href="#linear-gradient-11"/>
    <linearGradient id="linear-gradient-24" x1="84.34" y1="30.62" x2="91.97" y2="30.62" xlink:href="#linear-gradient-11"/>
    <linearGradient id="linear-gradient-25" x1="88.47" y1="33.94" x2="92.34" y2="33.94" xlink:href="#linear-gradient-11"/>
    <linearGradient id="linear-gradient-26" x1="88.94" y1="37.11" x2="91.16" y2="37.11" xlink:href="#linear-gradient-11"/>
    <linearGradient id="linear-gradient-27" x1="91.25" y1="35.4" x2="98.12" y2="35.4" xlink:href="#linear-gradient-11"/>
    <linearGradient id="linear-gradient-28" x1="94.81" y1="38.66" x2="98.56" y2="38.66" xlink:href="#linear-gradient-11"/>
    <linearGradient id="linear-gradient-29" x1="97.75" y1="41.66" x2="103.93" y2="41.66" xlink:href="#linear-gradient-11"/>
    <linearGradient id="linear-gradient-30" x1="97.72" y1="42.97" x2="101.19" y2="42.97" xlink:href="#linear-gradient-11"/>
    <linearGradient id="linear-gradient-31" x1="95.13" y1="42.38" x2="97.57" y2="42.38" xlink:href="#linear-gradient-11"/>
    <linearGradient id="linear-gradient-32" x1="100.73" y1="45.18" x2="103.6" y2="45.18" xlink:href="#linear-gradient-11"/>
    <linearGradient id="linear-gradient-33" x1="101.94" y1="43.68" x2="103.6" y2="43.68" xlink:href="#linear-gradient-11"/>
    <linearGradient id="linear-gradient-34" x1="102.04" y1="42.14" x2="105.85" y2="42.14" xlink:href="#linear-gradient-11"/>
    <linearGradient id="linear-gradient-35" x1="106.19" y1="43" x2="108.51" y2="43" xlink:href="#linear-gradient-11"/>
    <linearGradient id="linear-gradient-36" x1="107.38" y1="41.69" x2="108.6" y2="41.69" xlink:href="#linear-gradient-11"/>
    <linearGradient id="linear-gradient-37" x1="107.37" y1="40.32" x2="111.96" y2="40.32" xlink:href="#linear-gradient-11"/>
    <linearGradient id="linear-gradient-38" x1="110.82" y1="41.94" x2="112.1" y2="41.94" xlink:href="#linear-gradient-11"/>
    <linearGradient id="linear-gradient-39" x1="111.04" y1="43.54" x2="112.63" y2="43.54" xlink:href="#linear-gradient-11"/>
    <linearGradient id="linear-gradient-40" x1="112.6" y1="42.69" x2="116.41" y2="42.69" xlink:href="#linear-gradient-11"/>
    <linearGradient id="linear-gradient-41" x1="114.97" y1="44.56" x2="116.54" y2="44.56" xlink:href="#linear-gradient-11"/>
    <linearGradient id="linear-gradient-42" x1="115.19" y1="46.05" x2="117.19" y2="46.05" xlink:href="#linear-gradient-11"/>
    <linearGradient id="linear-gradient-43" x1="116.88" y1="46.5" x2="118.29" y2="46.5" xlink:href="#linear-gradient-11"/>
    <linearGradient id="linear-gradient-44" x1="116.82" y1="46.27" x2="122.41" y2="46.27" xlink:href="#linear-gradient-11"/>
    <linearGradient id="linear-gradient-45" x1="116.53" y1="48.46" x2="119.16" y2="48.46" xlink:href="#linear-gradient-11"/>
    <linearGradient id="linear-gradient-46" x1="116.66" y1="50.02" x2="119.16" y2="50.02" xlink:href="#linear-gradient-11"/>
    <linearGradient id="linear-gradient-47" x1="109.91" y1="45.66" x2="116.66" y2="45.66" xlink:href="#linear-gradient-12"/>
    <linearGradient id="linear-gradient-48" x1="111.79" y1="49.18" x2="116.29" y2="49.18" xlink:href="#linear-gradient-11"/>
    <linearGradient id="linear-gradient-49" x1="111.41" y1="50.41" x2="113.97" y2="50.41" xlink:href="#linear-gradient-11"/>
    <linearGradient id="linear-gradient-50" x1="111.23" y1="51.77" x2="113.91" y2="51.77" xlink:href="#linear-gradient-11"/>
    <linearGradient id="linear-gradient-51" x1="105.63" y1="50.93" x2="110.97" y2="50.93" xlink:href="#linear-gradient-11"/>
    <linearGradient id="linear-gradient-52" x1="102.88" y1="51.96" x2="105.41" y2="51.96" xlink:href="#linear-gradient-11"/>
    <linearGradient id="linear-gradient-53" x1="102.6" y1="50.27" x2="104.66" y2="50.27" xlink:href="#linear-gradient-11"/>
    <linearGradient id="linear-gradient-54" x1="100.29" y1="48.53" x2="104.66" y2="48.53" xlink:href="#linear-gradient-11"/>
    <linearGradient id="linear-gradient-55" x1="97.79" y1="49" x2="99.97" y2="49" xlink:href="#linear-gradient-11"/>
    <linearGradient id="linear-gradient-56" x1="98.29" y1="45.83" x2="109.85" y2="45.83" xlink:href="#linear-gradient-12"/>
    <linearGradient id="linear-gradient-57" x1="95.51" y1="44.88" x2="100.35" y2="44.88" xlink:href="#linear-gradient-11"/>
    <linearGradient id="linear-gradient-58" x1="97.76" y1="47.47" x2="99.97" y2="47.47" xlink:href="#linear-gradient-11"/>
    <linearGradient id="linear-gradient-59" x1="99.41" y1="58.93" x2="105.91" y2="58.93" xlink:href="#linear-gradient-11"/>
    <linearGradient id="linear-gradient-60" x1="99.16" y1="61.24" x2="102.04" y2="61.24" xlink:href="#linear-gradient-11"/>
    <linearGradient id="linear-gradient-61" x1="99.35" y1="63.31" x2="102.01" y2="63.31" xlink:href="#linear-gradient-11"/>
    <linearGradient id="linear-gradient-62" x1="97.91" y1="61.68" x2="98.76" y2="61.68" xlink:href="#linear-gradient-11"/>
    <linearGradient id="linear-gradient-63" x1="89.69" y1="60.94" x2="97.69" y2="60.94" xlink:href="#linear-gradient-11"/>
    <linearGradient id="linear-gradient-64" x1="87.85" y1="64.22" x2="92.88" y2="64.22" xlink:href="#linear-gradient-11"/>
    <linearGradient id="linear-gradient-65" x1="78.73" y1="64.19" x2="88.32" y2="64.19" xlink:href="#linear-gradient-11"/>
    <linearGradient id="linear-gradient-66" x1="75.29" y1="68.68" x2="80.85" y2="68.68" xlink:href="#linear-gradient-11"/>
    <linearGradient id="linear-gradient-67" x1="75.13" y1="70.93" x2="78.07" y2="70.93" xlink:href="#linear-gradient-11"/>
    <linearGradient id="linear-gradient-68" x1="75.01" y1="72.99" x2="78.01" y2="72.99" xlink:href="#linear-gradient-11"/>
    <linearGradient id="linear-gradient-69" x1="71.35" y1="71.68" x2="74.23" y2="71.68" xlink:href="#linear-gradient-11"/>
    <linearGradient id="linear-gradient-70" x1="59.79" y1="66.16" x2="61.38" y2="66.16" xlink:href="#linear-gradient-11"/>
    <linearGradient id="linear-gradient-71" x1="61.35" y1="65.32" x2="65.16" y2="65.32" xlink:href="#linear-gradient-11"/>
    <linearGradient id="linear-gradient-72" x1="63.73" y1="67.19" x2="65.29" y2="67.19" xlink:href="#linear-gradient-11"/>
    <linearGradient id="linear-gradient-73" x1="63.94" y1="68.68" x2="65.94" y2="68.68" xlink:href="#linear-gradient-11"/>
    <linearGradient id="linear-gradient-74" x1="65.63" y1="69.13" x2="67.04" y2="69.13" xlink:href="#linear-gradient-11"/>
    <linearGradient id="linear-gradient-75" x1="65.57" y1="68.9" x2="71.16" y2="68.9" xlink:href="#linear-gradient-11"/>
    <linearGradient id="linear-gradient-76" x1="65.28" y1="71.08" x2="67.91" y2="71.08" xlink:href="#linear-gradient-11"/>
    <linearGradient id="linear-gradient-77" x1="65.41" y1="72.65" x2="67.91" y2="72.65" xlink:href="#linear-gradient-11"/>
    <linearGradient id="linear-gradient-78" x1="60.54" y1="71.8" x2="65.04" y2="71.8" xlink:href="#linear-gradient-11"/>
    <linearGradient id="linear-gradient-79" x1="60.16" y1="73.04" x2="62.73" y2="73.04" xlink:href="#linear-gradient-11"/>
    <linearGradient id="linear-gradient-80" x1="59.98" y1="74.4" x2="62.66" y2="74.4" xlink:href="#linear-gradient-11"/>
    <linearGradient id="linear-gradient-81" x1="54.38" y1="73.55" x2="59.73" y2="73.55" xlink:href="#linear-gradient-11"/>
    <linearGradient id="linear-gradient-82" x1="58.63" y1="68.28" x2="65.41" y2="68.28" xlink:href="#linear-gradient-12"/>
    <linearGradient id="linear-gradient-83" x1="59.57" y1="64.57" x2="60.85" y2="64.57" xlink:href="#linear-gradient-11"/>
    <linearGradient id="linear-gradient-84" x1="56.13" y1="64.32" x2="57.35" y2="64.32" xlink:href="#linear-gradient-11"/>
    <linearGradient id="linear-gradient-85" x1="56.13" y1="62.94" x2="60.73" y2="62.94" xlink:href="#linear-gradient-11"/>
    <linearGradient id="linear-gradient-86" x1="54.94" y1="65.63" x2="57.26" y2="65.63" xlink:href="#linear-gradient-11"/>
    <linearGradient id="linear-gradient-87" x1="50.79" y1="64.77" x2="54.69" y2="64.77" xlink:href="#linear-gradient-11"/>
    <linearGradient id="linear-gradient-88" x1="50.69" y1="66.3" x2="52.35" y2="66.3" xlink:href="#linear-gradient-11"/>
    <linearGradient id="linear-gradient-89" x1="49.48" y1="67.8" x2="52.35" y2="67.8" xlink:href="#linear-gradient-11"/>
    <linearGradient id="linear-gradient-90" x1="47.04" y1="68.46" x2="58.48" y2="68.46" xlink:href="#linear-gradient-12"/>
    <linearGradient id="linear-gradient-91" x1="51.63" y1="74.58" x2="54.16" y2="74.58" xlink:href="#linear-gradient-11"/>
    <linearGradient id="linear-gradient-92" x1="51.35" y1="72.9" x2="53.41" y2="72.9" xlink:href="#linear-gradient-11"/>
    <linearGradient id="linear-gradient-93" x1="49.04" y1="71.16" x2="53.41" y2="71.16" xlink:href="#linear-gradient-11"/>
    <linearGradient id="linear-gradient-94" x1="46.54" y1="71.63" x2="48.73" y2="71.63" xlink:href="#linear-gradient-11"/>
    <linearGradient id="linear-gradient-95" x1="46.51" y1="70.1" x2="48.73" y2="70.1" xlink:href="#linear-gradient-11"/>
    <linearGradient id="linear-gradient-96" x1="44.26" y1="67.51" x2="49.1" y2="67.51" xlink:href="#linear-gradient-11"/>
    <linearGradient id="linear-gradient-97" x1="42.91" y1="72.58" x2="44.07" y2="72.58" xlink:href="#linear-gradient-11"/>
    <linearGradient id="linear-gradient-98" x1="40.29" y1="73.85" x2="42.73" y2="73.85" xlink:href="#linear-gradient-11"/>
    <linearGradient id="linear-gradient-99" x1="39.91" y1="70.03" x2="43.73" y2="70.03" xlink:href="#linear-gradient-11"/>
    <linearGradient id="linear-gradient-100" x1="36.41" y1="66.86" x2="43.29" y2="66.86" xlink:href="#linear-gradient-11"/>
    <linearGradient id="linear-gradient-101" x1="34.1" y1="68.58" x2="36.32" y2="68.58" xlink:href="#linear-gradient-11"/>
    <linearGradient id="linear-gradient-102" x1="33.63" y1="65.41" x2="37.51" y2="65.41" xlink:href="#linear-gradient-11"/>
    <linearGradient id="linear-gradient-103" x1="29.51" y1="62.1" x2="37.13" y2="62.1" xlink:href="#linear-gradient-11"/>
    <linearGradient id="linear-gradient-104" x1="27.07" y1="63.51" x2="29.32" y2="63.51" xlink:href="#linear-gradient-11"/>
    <linearGradient id="linear-gradient-105" x1="26.94" y1="60.37" x2="31.1" y2="60.37" xlink:href="#linear-gradient-11"/>
    <linearGradient id="linear-gradient-106" x1="23.16" y1="57.21" x2="30.6" y2="57.21" xlink:href="#linear-gradient-11"/>
    <linearGradient id="linear-gradient-107" x1="19.57" y1="57.75" x2="24.57" y2="57.75" xlink:href="#linear-gradient-11"/>
    <linearGradient id="linear-gradient-108" x1="19.44" y1="54.62" x2="24.13" y2="54.62" xlink:href="#linear-gradient-11"/>
    <linearGradient id="linear-gradient-109" x1="15.66" y1="51.71" x2="23.94" y2="51.71" xlink:href="#linear-gradient-11"/>
    <linearGradient id="linear-gradient-110" x1="15.53" y1="31.35" x2="16.81" y2="31.35" xlink:href="#linear-gradient-11"/>
    <linearGradient id="linear-gradient-111" x1="15.75" y1="32.94" x2="17.34" y2="32.94" xlink:href="#linear-gradient-11"/>
    <linearGradient id="linear-gradient-112" x1="17.31" y1="32.1" x2="21.12" y2="32.1" xlink:href="#linear-gradient-11"/>
    <linearGradient id="linear-gradient-113" x1="19.69" y1="33.97" x2="21.25" y2="33.97" xlink:href="#linear-gradient-11"/>
    <linearGradient id="linear-gradient-114" x1="19.91" y1="35.46" x2="21.91" y2="35.46" xlink:href="#linear-gradient-11"/>
    <linearGradient id="linear-gradient-115" x1="21.59" y1="35.91" x2="23" y2="35.91" xlink:href="#linear-gradient-11"/>
    <linearGradient id="linear-gradient-116" x1="21.53" y1="35.68" x2="27.13" y2="35.68" xlink:href="#linear-gradient-11"/>
    <linearGradient id="linear-gradient-117" x1="21.24" y1="37.86" x2="23.88" y2="37.86" xlink:href="#linear-gradient-11"/>
    <linearGradient id="linear-gradient-118" x1="21.38" y1="39.43" x2="23.88" y2="39.43" xlink:href="#linear-gradient-11"/>
    <linearGradient id="linear-gradient-119" x1="16.5" y1="38.58" x2="21" y2="38.58" xlink:href="#linear-gradient-11"/>
    <linearGradient id="linear-gradient-120" x1="16.13" y1="39.82" x2="18.69" y2="39.82" xlink:href="#linear-gradient-11"/>
    <linearGradient id="linear-gradient-121" x1="15.94" y1="41.18" x2="18.63" y2="41.18" xlink:href="#linear-gradient-11"/>
    <linearGradient id="linear-gradient-122" x1="10.34" y1="40.33" x2="15.84" y2="40.33" xlink:href="#linear-gradient-11"/>
    <linearGradient id="linear-gradient-123" x1="7.31" y1="39.68" x2="9.38" y2="39.68" xlink:href="#linear-gradient-11"/>
    <linearGradient id="linear-gradient-124" x1="7.59" y1="41.36" x2="10.13" y2="41.36" xlink:href="#linear-gradient-11"/>
    <linearGradient id="linear-gradient-125" x1="5" y1="37.94" x2="9.38" y2="37.94" xlink:href="#linear-gradient-11"/>
    <linearGradient id="linear-gradient-126" x1="2.5" y1="38.41" x2="4.69" y2="38.41" xlink:href="#linear-gradient-11"/>
    <linearGradient id="linear-gradient-127" x1="2.47" y1="36.88" x2="4.69" y2="36.88" xlink:href="#linear-gradient-11"/>
    <linearGradient id="linear-gradient-128" x1=".22" y1="34.29" x2="5.06" y2="34.29" xlink:href="#linear-gradient-11"/>
    <linearGradient id="linear-gradient-129" x1="5.44" y1="34.58" x2="8.31" y2="34.58" xlink:href="#linear-gradient-11"/>
    <linearGradient id="linear-gradient-130" x1="6.66" y1="33.08" x2="8.31" y2="33.08" xlink:href="#linear-gradient-11"/>
    <linearGradient id="linear-gradient-131" x1="6.75" y1="31.55" x2="10.66" y2="31.55" xlink:href="#linear-gradient-11"/>
    <linearGradient id="linear-gradient-132" x1="12.09" y1="31.1" x2="13.31" y2="31.1" xlink:href="#linear-gradient-11"/>
    <linearGradient id="linear-gradient-133" x1="10.91" y1="32.41" x2="13.22" y2="32.41" xlink:href="#linear-gradient-11"/>
    <linearGradient id="linear-gradient-134" x1="12.09" y1="29.72" x2="16.69" y2="29.72" xlink:href="#linear-gradient-11"/>
    <linearGradient id="linear-gradient-135" x1="16.91" y1="30.41" x2="23.37" y2="30.41" xlink:href="#linear-gradient-11"/>
    <linearGradient id="linear-gradient-136" x1="24.16" y1="30.96" x2="27.16" y2="30.96" xlink:href="#linear-gradient-11"/>
    <linearGradient id="linear-gradient-137" x1="24.28" y1="28.9" x2="27.22" y2="28.9" xlink:href="#linear-gradient-11"/>
    <linearGradient id="linear-gradient-138" x1="24.44" y1="26.4" x2="31.56" y2="26.4" xlink:href="#linear-gradient-11"/>
    <linearGradient id="linear-gradient-139" x1="32.16" y1="27.86" x2="36.22" y2="27.86" xlink:href="#linear-gradient-11"/>
    <linearGradient id="linear-gradient-140" x1="32.31" y1="25.54" x2="36.53" y2="25.54" xlink:href="#linear-gradient-11"/>
    <linearGradient id="linear-gradient-141" x1="32.56" y1="23.24" x2="39.78" y2="23.24" xlink:href="#linear-gradient-11"/>
    <linearGradient id="linear-gradient-142" x1="40.56" y1="24.44" x2="44.06" y2="24.44" xlink:href="#linear-gradient-11"/>
    <linearGradient id="linear-gradient-143" x1="40.25" y1="22.33" x2="44.03" y2="22.33" xlink:href="#linear-gradient-11"/>
    <linearGradient id="linear-gradient-144" x1="40.47" y1="19.8" x2="47.66" y2="19.8" xlink:href="#linear-gradient-11"/>
    <linearGradient id="linear-gradient-145" x1="48.47" y1="21.27" x2="51.16" y2="21.27" xlink:href="#linear-gradient-11"/>
    <linearGradient id="linear-gradient-146" x1="48.31" y1="19.21" x2="51.19" y2="19.21" xlink:href="#linear-gradient-11"/>
    <linearGradient id="linear-gradient-147" x1="48.56" y1="16.89" x2="55.06" y2="16.89" xlink:href="#linear-gradient-11"/>
    <linearGradient id="linear-gradient-148" x1="55.72" y1="3.08" x2="59.62" y2="3.08" xlink:href="#linear-gradient-11"/>
    <linearGradient id="linear-gradient-149" x1="55.62" y1="4.62" x2="57.28" y2="4.62" xlink:href="#linear-gradient-11"/>
    <linearGradient id="linear-gradient-150" x1="54.41" y1="6.11" x2="57.28" y2="6.11" xlink:href="#linear-gradient-11"/>
    <linearGradient id="linear-gradient-151" x1="49.19" y1="5.82" x2="54.03" y2="5.82" xlink:href="#linear-gradient-11"/>
    <linearGradient id="linear-gradient-152" x1="51.44" y1="8.41" x2="53.66" y2="8.41" xlink:href="#linear-gradient-11"/>
    <linearGradient id="linear-gradient-153" x1="51.47" y1="9.94" x2="53.66" y2="9.94" xlink:href="#linear-gradient-11"/>
    <linearGradient id="linear-gradient-154" x1="53.97" y1="9.47" x2="58.34" y2="9.47" xlink:href="#linear-gradient-11"/>
    <linearGradient id="linear-gradient-155" x1="56.28" y1="11.21" x2="58.34" y2="11.21" xlink:href="#linear-gradient-11"/>
    <linearGradient id="linear-gradient-156" x1="56.56" y1="12.89" x2="59.09" y2="12.89" xlink:href="#linear-gradient-11"/>
    <linearGradient id="linear-gradient-157" x1="59.31" y1="11.86" x2="64.66" y2="11.86" xlink:href="#linear-gradient-11"/>
    <linearGradient id="linear-gradient-158" x1="64.91" y1="12.71" x2="67.59" y2="12.71" xlink:href="#linear-gradient-11"/>
    <linearGradient id="linear-gradient-159" x1="65.09" y1="11.35" x2="67.66" y2="11.35" xlink:href="#linear-gradient-11"/>
    <linearGradient id="linear-gradient-160" x1="65.47" y1="10.11" x2="69.97" y2="10.11" xlink:href="#linear-gradient-11"/>
    <linearGradient id="linear-gradient-161" x1="70.34" y1="10.96" x2="72.84" y2="10.96" xlink:href="#linear-gradient-11"/>
    <linearGradient id="linear-gradient-162" x1="70.21" y1="9.39" x2="72.84" y2="9.39" xlink:href="#linear-gradient-11"/>
    <linearGradient id="linear-gradient-163" x1="70.5" y1="7.21" x2="76.09" y2="7.21" xlink:href="#linear-gradient-11"/>
    <linearGradient id="linear-gradient-164" x1="70.56" y1="7.44" x2="71.97" y2="7.44" xlink:href="#linear-gradient-11"/>
    <linearGradient id="linear-gradient-165" x1="68.87" y1="6.99" x2="70.87" y2="6.99" xlink:href="#linear-gradient-11"/>
    <linearGradient id="linear-gradient-166" x1="68.66" y1="5.5" x2="70.22" y2="5.5" xlink:href="#linear-gradient-11"/>
    <linearGradient id="linear-gradient-167" x1="66.28" y1="3.62" x2="70.09" y2="3.62" xlink:href="#linear-gradient-11"/>
    <linearGradient id="linear-gradient-168" x1="64.72" y1="4.47" x2="66.31" y2="4.47" xlink:href="#linear-gradient-11"/>
    <linearGradient id="linear-gradient-169" x1="59.87" y1="3.94" x2="62.19" y2="3.94" xlink:href="#linear-gradient-11"/>
    <linearGradient id="linear-gradient-170" x1="61.06" y1="2.63" x2="62.28" y2="2.63" xlink:href="#linear-gradient-11"/>
    <linearGradient id="linear-gradient-171" x1="64.5" y1="2.88" x2="65.78" y2="2.88" xlink:href="#linear-gradient-11"/>
    <linearGradient id="linear-gradient-172" x1="61.06" y1="1.25" x2="65.66" y2="1.25" xlink:href="#linear-gradient-11"/>
    <linearGradient id="linear-gradient-173" x1="63.62" y1="6.58" x2="70.34" y2="6.58" xlink:href="#linear-gradient-12"/>
    <linearGradient id="linear-gradient-174" x1="51.97" y1="6.77" x2="63.53" y2="6.77" xlink:href="#linear-gradient-12"/>
    <linearGradient id="linear-gradient-175" x1="70.53" y1="39.27" x2="97.62" y2="39.27" xlink:href="#linear-gradient-11"/>
    <linearGradient id="linear-gradient-176" x1="82.3" y1="7.5" x2="64.85" y2="27" xlink:href="#linear-gradient-11"/>
    <linearGradient id="linear-gradient-177" x1="47.3" y1="5.77" x2="58.89" y2="23.22" xlink:href="#linear-gradient-11"/>
    <linearGradient id="linear-gradient-178" x1="19.53" y1="36.33" x2="55.25" y2="36.33" xlink:href="#linear-gradient-11"/>
    <linearGradient id="linear-gradient-179" x1="14.72" y1="35.05" x2="21.37" y2="35.05" xlink:href="#linear-gradient-12"/>
    <linearGradient id="linear-gradient-180" x1="3" y1="35.24" x2="14.59" y2="35.24" xlink:href="#linear-gradient-12"/>
    <linearGradient id="linear-gradient-181" x1="-1.95" y1="38.88" x2="12.24" y2="65.88" xlink:href="#linear-gradient-11"/>
    <linearGradient id="linear-gradient-182" x1="12.88" y1="57.05" x2="27.31" y2="57.05" xlink:href="#linear-gradient-11"/>
    <linearGradient id="linear-gradient-183" x1="15.66" y1="74.24" x2="44.13" y2="74.24" xlink:href="#linear-gradient-11"/>
    <linearGradient id="linear-gradient-184" x1="38.73" y1="71.56" x2="53.35" y2="92.21" xlink:href="#linear-gradient-11"/>
    <linearGradient id="linear-gradient-185" x1="85.1" y1="38.72" x2="99.73" y2="59.38" xlink:href="#linear-gradient-11"/>
    <linearGradient id="linear-gradient-186" x1="123.38" y1="54.61" x2="107.42" y2="79.77" xlink:href="#linear-gradient-11"/>
    <linearGradient id="linear-gradient-187" x1="113.58" y1="62.3" x2="118.38" y2="62.3" gradientUnits="userSpaceOnUse">
      <stop offset="0" stop-color="#b4d8e0"/>
      <stop offset=".32" stop-color="#b7dae1"/>
      <stop offset=".61" stop-color="#c2e0e7"/>
      <stop offset=".89" stop-color="#d5eaf0"/>
      <stop offset="1" stop-color="#dff0f5"/>
    </linearGradient>
    <linearGradient id="linear-gradient-188" x1="105.05" y1="68.07" x2="90.33" y2="101.21" xlink:href="#linear-gradient-11"/>
    <linearGradient id="linear-gradient-189" x1="99.22" y1="59.63" x2="83.16" y2="96.04" xlink:href="#linear-gradient-11"/>
    <linearGradient id="linear-gradient-190" x1="78.41" y1="81.21" x2="83.23" y2="81.21" xlink:href="#linear-gradient-11"/>
    <linearGradient id="linear-gradient-191" x1="87.51" y1="60.27" x2="72.78" y2="93.41" xlink:href="#linear-gradient-11"/>
    <linearGradient id="linear-gradient-192" x1="71.09" y1="77.44" x2="57.19" y2="102.29" xlink:href="#linear-gradient-11"/>
    <linearGradient id="linear-gradient-193" x1=".08" y1="82.54" x2="123.1" y2="82.54" xlink:href="#linear-gradient"/>
    <linearGradient id="linear-gradient-194" x1="-.23" y1="85.27" x2="123.19" y2="85.27" xlink:href="#linear-gradient"/>
    <linearGradient id="linear-gradient-195" x1="-.02" y1="80.52" x2="123.13" y2="80.52" xlink:href="#linear-gradient"/>
    <linearGradient id="linear-gradient-196" x1="-.01" y1="54.02" x2="123.15" y2="54.02" xlink:href="#linear-gradient"/>
    <linearGradient id="linear-gradient-197" x1="-.02" y1="56.69" x2="123.15" y2="56.69" xlink:href="#linear-gradient"/>
    <linearGradient id="linear-gradient-198" x1="0" y1="41.47" x2="123.13" y2="41.47" xlink:href="#linear-gradient"/>
    <linearGradient id="linear-gradient-199" x1="-.23" y1="89.41" x2="123.21" y2="89.41" xlink:href="#linear-gradient"/>
    <linearGradient id="linear-gradient-200" x1="-.01" y1="41.36" x2="123.15" y2="41.36" xlink:href="#linear-gradient"/>
    <linearGradient id="linear-gradient-201" x1=".01" y1="49.02" x2="123.11" y2="49.02" xlink:href="#linear-gradient"/>
    <linearGradient id="linear-gradient-202" x1="0" y1="56.72" x2="123.13" y2="56.72" xlink:href="#linear-gradient"/>
    <linearGradient id="linear-gradient-203" x1="-.49" y1="86.68" x2="123.31" y2="86.68" xlink:href="#linear-gradient"/>
    <linearGradient id="linear-gradient-204" x1="-.58" y1="83.93" x2="123.35" y2="83.93" xlink:href="#linear-gradient"/>
    <linearGradient id="linear-gradient-205" x1=".02" y1="85.02" x2="123.1" y2="85.02" xlink:href="#linear-gradient"/>
    <linearGradient id="linear-gradient-206" x1="62.33" y1="84.93" x2="67.13" y2="84.93" xlink:href="#linear-gradient-187"/>
    <linearGradient id="linear-gradient-207" x1="0" y1="83.69" x2="123.12" y2="83.69" xlink:href="#linear-gradient"/>
    <linearGradient id="linear-gradient-208" x1="48.44" y1="83.49" x2="52.13" y2="83.49" xlink:href="#linear-gradient-187"/>
    <linearGradient id="linear-gradient-209" x1="0" y1="50.48" x2="123.14" y2="50.48" xlink:href="#linear-gradient"/>
    <linearGradient id="linear-gradient-210" x1="4.41" y1="50.27" x2="8.1" y2="50.27" xlink:href="#linear-gradient-187"/>
  </defs>
  <g id="Layer_2-2" data-name="Layer 2">
    <g>
      <polygon class="cls-144" points="89.23 88.84 89.23 90.09 89.76 89.91 89.73 88.69 89.23 88.84"/>
      <polygon class="cls-144" points="89.23 86 89.23 87.44 89.73 87.28 89.69 85.81 89.23 86"/>
      <path class="cls-144" d="M93.16,80.56l.38-.12c0-.39,.03-.8-.03-1.19l-.38,.09c.01,.41,.03,.81,.03,1.22Z"/>
      <polygon class="cls-144" points="89.19 83.41 89.19 84.6 89.69 84.44 89.66 83.25 89.19 83.41"/>
      <polygon class="cls-144" points="89.76 91.31 89.23 91.5 89.23 92.59 89.79 92.38 89.76 91.31"/>
      <path class="cls-144" d="M91.04,86.85l.91-.34c0-.48,0-.96,0-1.44l-.94,.31,.03,1.47Z"/>
      <path class="cls-144" d="M93.26,90.97l.34-.16v-.84l-.34,.12c0,.33,0,.61,0,.88Z"/>
      <polygon class="cls-144" points="91.07 89.44 91.94 89.16 91.94 87.88 91.04 88.19 91.07 89.44"/>
      <polygon class="cls-144" points="91.94 91.5 91.94 90.56 91.07 90.84 91.1 91.84 91.94 91.5"/>
      <path class="cls-144" d="M90.94,79.91l.03,1.44,.91-.31c0-.46,0-.92-.03-1.38l-.91,.25Z"/>
      <path class="cls-144" d="M91.01,83.94l.91-.31c0-.41,0-.8,0-1.19l-.94,.31,.03,1.19Z"/>
      <path class="cls-144" d="M93.23,86l.38-.12c0-.49,0-.94,0-1.41l-.41,.12c.01,.47,.03,.94,.03,1.41Z"/>
      <path class="cls-144" d="M93.26,88.69l.34-.13v-1.28l-.38,.12c0,.53,.02,.87,.03,1.28Z"/>
      <path class="cls-144" d="M93.57,83.03c0-.41,0-.81,0-1.19l-.41,.12c0,.38,.03,.78,.03,1.19l.38-.12Z"/>
      <polygon class="cls-144" points="32.09 25.91 32.09 25.97 32.16 25.94 32.09 25.91"/>
      <path class="cls-176" d="M90.79,88.13v1.59l1.44-.44v-1.68l-1.44,.53Zm1.15,1.03l-.87,.28-.03-1.25,.9-.31v1.28Z"/>
      <path class="cls-3" d="M92.23,82.1l-1.5,.56v1.56l1.53-.47c-.01-.6-.03-1.09-.03-1.65Zm-.32,1.53l-.9,.31-.03-1.19,.93-.31v1.19Z"/>
      <path class="cls-174" d="M92.23,90.28l-1.38,.47v1.47l1.38-.6c0-.34,0-.83,0-1.34Zm-.29,1.22l-.84,.34-.03-1,.87-.28v.94Z"/>
      <path class="cls-195" d="M93.82,89.75l-.78,.25v1.28l.81-.25c0-.35-.03-.76-.03-1.28Zm-.22,1.06l-.34,.16v-.88l.34-.12v.84Z"/>
      <path class="cls-127" d="M90.73,85.31v1.82l1.46-.57c0-.65,.04-1.15,.04-1.81l-1.5,.56Zm1.21,1.19l-.9,.35-.03-1.47,.93-.32v1.44Z"/>
      <path class="cls-51" d="M94.88,89.5l.22-.12v-1.25h-.22v-1.32l.31-.09-.06-1.09-.28-.1c-.06-.42,.03-1.08,.03-1.56l.25-.09-.03-1.1-.25,.03c-.06-.28,.03-1,.03-1.34v-.12l.22-.13,.03-1.25-.28,.03-.16-.9-1-.19-.15-.78-.44-.1-.19-.75-.93-.09,.12,1.25-1.37,.37-.04-1.4-1.09,.78v.69l-.31,.15,.03,1.1h.47l-.06,1.68-.54,.19-.06-1.62-1.15,.97-.1,1.12-.37,.22-.03,1.22,.4-.06v1.25l-.47,.15,.07,1.25h.59l-.16,1.44-.37,.12v1.32l.4-.07v1.22l-.37,.13,.06,1.37,.31-.09v1.18l-.31,.1v1.47l.31-.16,.04,.94,1.25-.44v-1.03l.59-.25,.09,1.19,1.22-.41-.03-1.31,.84-.34,.04,1.24,1.21-.5s.07-.86,.07-1.28l.34-.15,.06,1.28,1.19-.56s.03-.82,.03-1.22l.22-.22,.03-1.28-.25,.09v-.78Zm-1.34-9.06l-.38,.12c0-.4-.02-.81-.03-1.21l.38-.1c.06,.39,.03,.79,.03,1.19Zm1.44,10.15v.72l-.35,.16v1.34l-.75,.35c0-.27-.03-1.05-.03-1.19l-.81,.25c0,.23-.03,1.05-.03,1.34l-.78,.28c0-.27,.03-1.08,.03-1.22l-1.41,.57v1.22l-.66,.28-.03-1.28-1.18,.53,.03,.97-.78,.28v-.97l-.41,.09-.03-.93,.5-.16-.03-1.69-.35,.13-.09-.82,.47-.22v-1.65l-.53,.15-.07-.87,.5-.19,.04-1.81-.57,.1,.07-.91,.37-.09,.03-1.75-.37,.12v-.84l.47-.22v-1.31l.65-.41-.06,1.28,1.12-.25,.07-2.19-.47,.16,.09-.53,.28-.1v-1.12l.53-.38v1.32l1.88-.41c0-.21-.09-1.01-.09-1.22l.59-.03,.09,1,.38-.03,.09,.56-.53,.22c.02,.6,0,.99,0,1.59l.94-.25c.05-.39,.01-1.1,.03-1.5l.62,.13c.04,.35,.06,.71,.07,1.06l.4-.06c.02,.32,.14,.72,.03,.91-.08,.15-.22,.16-.34,.25,0,.39,.03,1.16,.03,1.62h.22l.06,.72-.28,.22c0,.67-.03,1.11-.03,1.81l.38-.03,.03,.87-.38,.29v1.59l.22-.09,.03,.93-.31,.16c0,.51,.03,.84,.03,1.22l.38-.07Z"/>
      <path class="cls-149" d="M92.98,87.38c0,.9,0,.85,0,1.62l.9-.31v-1.63l-.9,.32Zm.62,1.18l-.34,.13c-.01-.41-.03-.75-.03-1.28l.37-.13v1.28Z"/>
      <path class="cls-199" d="M88.91,91.38l.07,1.5,1.12-.38v-1.5l-1.19,.38Zm.32,1.21v-1.09l.53-.19,.03,1.07-.56,.21Z"/>
      <path class="cls-164" d="M118.1,60.94c-.67-1.07-1.36-2.14-2.84-2.56-1.27,1.04-1.74,2.38-2.1,3.9l.03,4.13,5.5-2.19c-.13-1.11-.32-2.2-.59-3.28Zm-4.44,1.19c.1-.94,.9-2.47,1.78-3.41,.94,.41,1.84,1.45,2.1,2.16,.24,.67,.73,2.27,.84,3.09l-4.78,1.91c-.04-.89-.02-2.95,.06-3.75Z"/>
      <path class="cls-93" d="M122.56,45.94l-3.41-1.28-1.72,.84-.84-.4,.13-1.91-2.88-1.81-1.38,.81,.04,.53-.28-.25-.04-1.87-2.15-1.54-2.94,1.29,.25,1.65-1.16,.56-.09-.96-1.44-.5-.37,.15-3.75-2.5-.1-.09-1.65,1.22-.13-4.75-3.9-2.5-2.13,1.43-.15-3.06-4.28-3.34-2,1-.13-2.38-4.69-2.87-1.62,.69-.47-.25-.16-3.47-2.68-1.66-.19-11.84-3.41-1.28-1.72,.84-.84-.41,.13-1.9-2.88-1.82-1.37,.82,.03,.53-.28-.25-.04-1.88-2.15-1.53-2.94,1.28,.25,1.66-1.16,.56-.09-.97-1.44-.5-3.03,1.28,.22,1.69-1.16,.47v-.37l-1.4-1.13-4,1.47,.03,11.25-.91,.41,.07,2.43-.32,.1-2.81-1.25-5.09,1.75,.25,2.53-3.22-.75-4.97,1.5,.09,2.44-.06,.03-3.34-1.32-4.78,2.07,.09,2.4-.13,.03-3.56-.65-.28,.22-3.12,1.47v-.1l-2.16-1.53-2.94,1.28,.25,1.66-1.15,.56-.1-.97-1.44-.5-3.03,1.28,.22,1.69-1.15,.47v-.38l-1.41-1.12-4,1.47,.12,35.44,12.47,9.28,2.72-1.22,.06-.13,28.75,20.44,.04,4.84,12.46,9.28,15.25-6.9-.06-3.38,9.94-3.97,1.47,.5,.5-.09,14.31-5.78v-1.06l8.09-3.22,1.75,1.28,15.25-6.91-.56-36.37Zm-3.33-1.13l3.18,1.32-3.12,1.59-2.47-.47,1.94-.75-1.5-.59,1.97-1.1Zm-2.63,4.07c-.02-.46-.09-1.05-.06-1.53l2.62,.59v1.62l-2.56-.68Zm2.56,.9l-2.4,1.19-.1-1.91,2.5,.72Zm-2.78-.93l-2.56-.69-2.59,1.03-.07,1.44-.93-.78-.29,.03-.03-9.19,.69,.78,.06,1.84,2.19,1.5-.06-2.12,2.03,1.31-.06,1.91,1.9,1.15-.34,.13,.06,1.66Zm-4.97,1.81v-1.35l2.5,.88,.06,1.31c-.53-.16-2.33-.77-2.56-.84Zm2.5,1.03l-2.65,1.03-.03-1.91c.74,.17,1.91,.65,2.68,.88Zm-2.12-2.53l2.06-.81s1.72,.44,2.44,.65l-2.32,1-2.18-.84Zm5.09-3.13l1.41,.47-1.38,.47-.03-.94Zm.31-.37l-.59,.28,.03,.87-1.44-.87,1.35-.66,.65,.38Zm-.78-.56l-1.44,.71,.07-1.81,1.5-.69-.13,1.79Zm-2.5-3.54l2.5,1.63-1.44,.62-2.37-1.5,1.31-.75Zm-1.34,1.41l.06,1.47-1.59-1.19,1.06-.62,.47,.34Zm-.47-.59l-1.19,.68-.09-1.5,1.22-.75,.06,1.57Zm-2.07-3.13l1.93,1.44-1.12,.69-1.06-1-1.25,.68-1.16-.59,2.66-1.22Zm-1.43,3.5l-1-.75-.22-1.37,1,.56,.22,1.56Zm-1.16-.56l1.07,.69-2.22,.93-.1-1.06,1.25-.56Zm-1.34,1.94l2.72-1.13-.28-1.75,1.19-.65,.12,9.37-1.47,.47-1.19-.78-1.81,.97,.06,.43-.56-.25-.03-2.18-2.81-1.35-1.81,.63-.13-1.72-1.81-1.13,2.09-.78,.06,2.32,3.44-1.54-.31-1.9,2.31-1.16,.22,2.13Zm-3.28,5.75l1.78-.88,.06,1.81-2.06,.72,.19-1.75,.03,.1Zm-2.53-1.82l1.75-.53,2.62,1.19-1.84,.81-2.53-1.47Zm4.47,3l.65,.38-.06,1.41-2.47-1.13,1.88-.66Zm-7-2.5l.15-1.78,2-.4,.06,1.43-2.21,.75Zm2.21-.56l-.06,2-2.12-1.25,2.18-.75Zm-7.09,15.72l-3-1.41-.19-2.12,4.72-2.03,3.28,1.84-4.9,2.1,.09,1.62Zm-17.65,7.53l-.1-2.34,2.72,1.37,.03-.03,.19,2.69-2.84-1.69Zm2.78,1.94l-2.91,1.28-.09-2.97,3,1.69Zm.03-3.22h-.03l-2.72-1.28,3.09-1.31,2.47,1.4-2.81,1.19Zm.25-5.69l-.13,2.91-3.4,1.47,.09,2.4-.12,.04-3.38-.63-.03-1.91-3.41-1.28-1.72,.85-.84-.41,.13-1.91-1.54-.96,27.63-12.6,.19,6.66-1.57,.59-.43,.19-.41,.16,.22,2.46-2.06,.91-2.69-1.66-6.53,2.72Zm-4.06,7.07l-2.85,1.25-.03-1.85,2.88,.6Zm-8.88,.15c-.02-.45-.09-1.05-.06-1.53l2.62,.59v1.63l-2.56-.69Zm2.56,.91l-2.4,1.19-.1-1.91,2.5,.72Zm-2.78-.94l-2.56-.69-2.59,1.03-.07,1.44-.97-.81-.31,.09v-9.22l.72,.79,.06,1.84,2.19,1.5-.06-2.13,2.03,1.32-.06,1.9,1.9,1.16-.34,.12,.06,1.66Zm-4.97,1.81v-1.34l2.5,.87,.07,1.32c-.54-.16-2.34-.77-2.57-.85Zm2.5,1.03l-2.65,1.04-.03-1.91c.74,.17,1.91,.65,2.68,.87Zm-2.12-2.53l2.06-.81s1.72,.45,2.44,.66l-2.31,1-2.19-.85Zm-6.35,1.91l-.56-.25-.03-2.19-2.81-1.34-1.81,.62-.13-1.72-1.81-1.12,2.09-.78,.06,2.31,3.44-1.53-.31-1.91,2.31-1.15,.22,2.12,2.72-1.12-.28-1.75,1.19-.66-.04,.06v9.32l-1.31,.46-1.19-.78-1.81,.97,.06,.44Zm-2.62-1.19l1.78-.87,.06,1.81-2.06,.72,.19-1.75,.03,.09Zm-2.53-1.81l1.75-.53,2.62,1.19-1.84,.81-2.53-1.47Zm4.47,3l.65,.37-.06,1.41-2.47-1.12,1.88-.66Zm-7-2.5l.15-1.78,2-.41,.07,1.44-2.22,.75Zm2.22-.56l-.07,2-2.12-1.25,2.19-.75Zm3.34-4.66l.28,1.34-1.5-.65-.16-1.38,1.38,.69Zm-1.28-.91l2.62-1.18,1.28,.43-2.71,1.35-1.19-.6Zm.03,1.79l1.53,.65-2.84,1.25-.03-1.28,1.34-.62Zm5.21-2.69l-27.34-19.31,19.06-10.47,21.31,16.84-8.09,13.22-.03-1.22-2.16-1.53-2.94,1.28,.19,1.19Zm-.53-47.94l-3.66-.78-2.59,1.16,.03-10.54,1.97,1.6-.09,2.03,2.62,1.62,.16-2,2.34,1.38-.25,2,3.25,1.5,.06-2.31,2.28,1.25-.21,19.62-2.13-1.34-3.78,.9V16.28l.03-.06h-.03Zm-4.06-6.72l.15-1.78,2-.41,.07,1.44-2.22,.75Zm2.22-.56l-.07,2-2.12-1.25,2.19-.75Zm4.78,3.06l.65,.38-.06,1.4-2.47-1.12,1.88-.66Zm-2.16,.47l.19-1.75,.03,.09,1.78-.87,.06,1.81-2.06,.72Zm.22-2l-2.53-1.47,1.75-.53,2.62,1.19-1.84,.81Zm9.97-6.84l2.03,1.31-.06,1.91,1.9,1.15-.34,.13,.06,1.65-2.56-.68-2.59,1.03-.07,1.43-1.09-.78-.13-9.18,.66,.81,.06,1.84,2.19,1.5-.06-2.12Zm1.12,7.5l.07,1.31c-.54-.16-2.34-.77-2.57-.84v-1.35l2.5,.88Zm-2.12-1.03l2.06-.82s1.72,.45,2.44,.66l-2.31,1-2.19-.84Zm2.12,2.53l-2.65,1.03-.03-1.91c.74,.17,1.91,.65,2.68,.88Zm.47-.03l-.22-1.47,2.25-.91,.13,2.06,2.84-1.37,.03-1.91,2.69-1.37,.22,10.81-.63-.38-5.18,1.13v19.12l-8.32-5.25,.07-20.09,2.62-.81,.06,1.94,3.44-1.5Zm2.28-2.6l2.5,.72-2.4,1.19-.1-1.91Zm2.5,.5l-2.56-.69c-.02-.45-.09-1.05-.06-1.53l2.62,.6v1.62Zm-9.15,.44l.97,.81-2.97,1.16-2.38-1.28,1.56-.82,1.22,.79,1.6-.66Zm-4.47,20.78l31.25,19.88-21.19-.63-21.22-16.69,11.16-2.56Zm18.78-2.44l-.16-3.78,3.57,2.5,.06,3.69,3,2.41-.19-3.69,4.06,3.03v3.34l2.97,2.19,.1-3.06,3.34,2.56-.19,3.5,3.06,1.66-2.34,.87,.22,13.91-1.03-.56-2.38,.9-.15-6.62-21.41-13.6,.03-18.75,3.56,2.6-.15,3.68,4.03,3.22Zm3.91,2.35l2.18-.97,.07,2.75-2.25-1.78Zm7.03,5.18c.77-.2,1.49-.55,2.22-.87l-.16,2.34-2.06-1.47Zm6.19,5.16l2.38-.62,.06,2.06-2.44-1.44Zm-29.78,26.59l.03,.88-1.44-.88,1.35-.65,.65,.37-.59,.28Zm1.69,.57l-1.38,.47-.03-.94,1.41,.47Zm-1.88-1.41l-1.43,.72,.06-1.81,1.5-.69-.13,1.78Zm-1.43-1.28l-2.38-1.5,1.31-.75,2.5,1.62-1.43,.63Zm-2.88-1.19l.47,.35,.06,1.46-1.59-1.18,1.06-.63Zm-1.19,.44l-.09-1.5,1.22-.75,.06,1.56-1.19,.69Zm2.94-1.69l-1.37,.81,.03,.54-.28-.25v-.22l8.31-13.57,21.87,.75-27.4,12.66-1.16-.72Zm-6.41,.81l1.07,.69-2.22,.94-.1-1.06,1.25-.57Zm-.06-1.56l1,.56,.22,1.57-1-.75-.22-1.38Zm1.16,.44l-1.16-.59,2.66-1.22,1.94,1.43-1.13,.69-1.06-1-1.25,.69Zm8.28,6.19l1.94-.75-1.5-.6,1.97-1.09,3.18,1.31-3.12,1.6-2.47-.47Zm19.31-7.97l3.44,2.22-5.31,2.34-4.28-2.12,6.15-2.44Zm2.97,1.59l2.03-.97,3,1.44-4.12,1.94-.07-1.66-.03-.34-.81-.41Zm11.44-20.25l1.06,.85-2.5,.9,1.69,1.13-1.66,.37-2.37-1.78,3.78-1.47Zm2.78,.97l1.53,.66-2.84,1.25-.03-1.28,1.34-.63Zm-.13-1.56l1.38,.69,.28,1.34-1.5-.66-.16-1.37Zm-1.25,1.87v-.37l-1.4-1.13-1.57,.57,.1-2.19,3.37,2.94-.5,.18Zm4.04-3.25l1.12,.44-2.53,1.28-1.28-.59,2.69-1.13Zm-4.3-2.22l3.5,2.35-2.31,.97,.22,1.68-.47,.19-3.62-3.15,2.68-2.04Zm-1.87,.97l-1.09,.94-2.66,.78,.25-3.4,3.34-2.79,.16,4.47Zm-3.78-7.18l3.34,2.31-3.37,2.78-3.5-2.53,3.53-2.56Zm-2.44,1.37l-1.31,1,.16,.44-2.6,1-.12-3.16,3.69-2.28,.18,3Zm-4.09-6.22l3.72,3-3.47,2.19-.03,.06-4.13-3.22,3.91-2.03Zm-2.31,.91l-1.85,.94v.37l-2.31,1.19v-3.41l4.03-1.62,.13,2.53Zm-4.6-5.22l4.1,2.53-3.88,1.56-3.56-2.56,3.34-1.53Zm-1.93,.56l-1.72,.72-.07,3.53-3.21-2.53,4.71-1.91,.29,.19Zm-5.13,1.28l.09-3.09,4.35-1.66,.25,2.94-4.69,1.81Zm4.5-5.06l-4.5,1.63-3.78-2.79,4.78-.93,3.5,2.09Zm-5.87-14.72l3.18,1.31-3.12,1.6-2.47-.47,1.94-.75-1.5-.59,1.97-1.1Zm-2.35,1.22l1.41,.47-1.38,.47-.03-.94Zm.31-.37l-.59,.28,.03,.87-1.44-.87,1.35-.66,.65,.38Zm-.78-.57l-1.43,.72,.06-1.81,1.5-.69-.13,1.78Zm-2.5-3.53l2.5,1.63-1.43,.62-2.38-1.5,1.31-.75Zm-1.34,1.41l.06,1.47-1.59-1.19,1.06-.63,.47,.35Zm-.47-.6l-1.19,.69-.09-1.5,1.22-.75,.06,1.56ZM63.72,.19l1.94,1.44-1.13,.68-1.06-1-1.25,.69-1.16-.59,2.66-1.22Zm-1.66,1.94l.22,1.56-1-.75-.22-1.38,1,.57Zm-.94,1l1.07,.68-2.22,.94-.1-1.06,1.25-.56Zm-2.78-.94l1.28,.44-2.71,1.34-1.19-.59,2.62-1.19Zm-1.34,2.09l.28,1.35-1.5-.66-.16-1.37,1.38,.68Zm-1.25,.88l1.53,.65-2.84,1.25-.03-1.28,1.34-.62Zm-1.63,2.37l3.44-1.53-.31-1.9,2.31-1.16,.22,2.12,2.72-1.12-.28-1.75,1.19-.66,.12,9.32-1.47,.53-1.19-.78-1.81,.96,.06,.44-.56-.25-.03-2.19-2.81-1.34-1.81,.63-.13-1.72-1.81-1.13,2.09-.78,.06,2.31Zm-1.15-3.34l1.06,.84-2.5,.91,1.69,1.12-1.66,.38-2.37-1.78,3.78-1.47Zm-1.1,11.53l3.19,.69-4,1.65c-.14-.05-1.59-.64-2.5-.96l3.31-1.38Zm-.96,2.56l.28,2.88-2.69-1.41-.19-2.5c.78,.27,2.3,.91,2.6,1.03Zm.25,3.13l-2.6,1.12-.09-2.53,2.69,1.41Zm-6.16-2.78l2.66,1.09-3.82,1.25-3.37-.84,4.53-1.5Zm-1.28,2.68l.31,2.85-3.5-1.5-.28-2.16,3.47,.81Zm.34,3l-3.28,1.69-.22-3.12,3.5,1.43Zm-7.12-2.21l2.84,.75-3.44,1.53-3.78-.97,4.38-1.31Zm-4.57,1.62l3.91,.97,.25,2.59-.12,.07-4.1-1,.06-2.63Zm3.85,3.81l-3.85,1.66-.21-2.66,4.06,1Zm-4.13-1.62l.07,.03-.07,.03v-.06Zm-3.4-1.06l2.87,1.21-4.37,1.88h-.03l-2.72-1.28,4.25-1.81Zm-1.69,3.4l.03-.03,.19,2.69-2.85-1.69-.09-2.34,2.72,1.37Zm.16,2.91l-2.91,1.28-.09-2.97,3,1.69Zm-3.32,1.75l3.75-1.56-.18-3.13,4.5-1.94,.25,3.35,4.65-2.1-.31-3.03,3.69-1.59,.18,3.56,4.07-1.94-.38-3.34,3.88-1.25,.18,.09,.13,2.88,3.31-1.25-.28-3.38,3.97-1.62-.06,15.72-7.41,1.78-19.66,10.62,.29,11.22-.79-.47-.34-20.18-3.41-1.29-1.71,.85-.85-.41,.13-1.9-1.91-1.22,4.22-1.82,.09,3.35Zm18.79,39.53l-2.72,.59,.32-3.22,3.34-2.78,.16,4.5-1.1,.91Zm1.44-.78v1.84l-1.16-.94,1.16-.9Zm-1.34,3.22l-2.44-1.44,2.37-.63,.07,2.07Zm-2.82-5.47l-3.5-2.53,3.53-2.57,3.35,2.32-3.38,2.78Zm-3.72-2.72l.16,.44-2.59,1-.13-3.16,3.69-2.28,.19,3-1.32,1Zm.13,.72l-.16,2.34-2.06-1.47c.77-.2,1.49-.55,2.22-.87Zm-2.66-2.75l-.03,.06-4.12-3.22,3.9-2.03,3.72,3-3.47,2.19Zm-4.4-3.35v.38l-2.32,1.19v-3.41l4.04-1.62,.12,2.53-1.84,.93Zm.06,3.57l-2.25-1.78,2.19-.97,.06,2.75Zm-2.59-5.63l-3.57-2.56,3.35-1.53,4.09,2.53-3.87,1.56Zm-7.19-5.34l4.34-1.66,.25,2.94-4.69,1.81,.1-3.09Zm-3.88-3.13l4.78-.93,3.5,2.09-4.5,1.62-3.78-2.78Zm8.63,4.75l.28,.19-1.72,.72-.06,3.53-3.22-2.53,4.72-1.91Zm-2.98-17.25c-.02-.45-.09-1.05-.06-1.53l2.63,.6v1.62l-2.57-.69Zm2.57,.91l-2.41,1.19-.09-1.91,2.5,.72Zm-2.79-.94l-2.56-.69-2.59,1.04-.07,1.43-.78-.78-.31,.03-.06-9.22,.59,.82,.06,1.84,2.19,1.5-.06-2.12,2.03,1.31-.06,1.9,1.9,1.16-.34,.13,.06,1.65Zm-4.96,1.81v-1.34l2.5,.88,.06,1.31c-.54-.16-2.34-.77-2.56-.85Zm2.5,1.04l-2.66,1.03-.03-1.91c.74,.17,1.91,.65,2.69,.88Zm-2.13-2.54l2.06-.81s1.72,.45,2.44,.66l-2.31,1-2.19-.85Zm4.81-3.21l.03,.87-1.43-.87,1.34-.66,.66,.37-.6,.29Zm1.69,.56l-1.37,.47-.04-.94,1.41,.47Zm-1.87-1.41l-1.44,.72,.06-1.81,1.5-.69-.12,1.78Zm-1.44-1.28l-2.38-1.5,1.31-.75,2.5,1.63-1.43,.62Zm-2.35,.63l-1.59-1.19,1.06-.63,.47,.35,.06,1.47Zm4.19,2.81l1.94-.75-1.5-.6,1.97-1.09,3.19,1.31-3.13,1.6-2.47-.47Zm-1.12-7.97l2.96,.62-4.09,1.91-.72-.44-1.37,.82,.03,.53-.28-.25-.03-1.47,3.5-1.72Zm-3.6,3.09l-1.19,.69-.09-1.5,1.22-.75,.06,1.56Zm-2.06-3.12l1.94,1.44-1.13,.68-1.06-1-1.25,.69-1.16-.59,2.66-1.22Zm-1.66,1.94l.22,1.56-1-.75-.22-1.38,1,.57Zm-.93,1l1.06,.68-2.22,.94-.09-1.06,1.25-.56Zm-2.79-.94l1.29,.44-2.72,1.34-1.19-.59,2.62-1.19Zm-1.34,2.09l.28,1.35-1.5-.66-.15-1.38,1.37,.69Zm-1.25,.88l1.53,.65-2.84,1.25-.03-1.28,1.34-.62Zm-1.62,2.37l3.43-1.53-.31-1.91,2.31-1.15,.22,2.12,2.72-1.12-.28-1.75,1.19-.66,.15,9.28-1.5,.57-1.18-.79-1.82,.97,.07,.44-.57-.25-.03-2.19-2.81-1.34-1.81,.62-.13-1.71-1.81-1.13,2.09-.78,.07,2.31Zm2.37,3.28l1.78-.87,.07,1.81-2.07,.72,.19-1.75,.03,.09Zm-2.53-1.81l1.75-.53,2.63,1.19-1.85,.81-2.53-1.47Zm4.47,3l.66,.38-.07,1.4-2.47-1.12,1.88-.66Zm-7-2.5l.16-1.78,2-.41,.06,1.44-2.22,.75Zm2.22-.56l-.06,2-2.13-1.25,2.19-.75Zm-.69-4.75l1.06,.84-2.5,.91,1.69,1.12-1.66,.38-2.37-1.78,3.78-1.47Zm8.25,45.15L.56,68.75,.31,34.53l1.97,1.6-.09,2.03,2.62,1.62,.16-2,2.34,1.38-.25,2,3.25,1.5,.07-2.31,2.28,1.25-.41,36.21Zm-1.91-37.71l1.57-.82,1.22,.78,1.78-.71,.93,.87-3.12,1.16-2.38-1.28Zm5,10.56v26.22l-2.46,1.12,.09-36.56,2.62-.81,.07,1.93,3.43-1.5-.21-1.46,2.25-.91,.12,2.06,2.84-1.37,.04-1.91,2.68-1.37,.5,19.25-.78-.47-1.62,.68-.47-.25-.16-3.46-3.75-2.32-5.19,1.13Zm.32,26.31l.07-25.72,3.56,2.6-.16,3.68,4.03,3.22-.15-3.78,3.56,2.5,.06,3.69,3,2.4-.19-3.68,4.07,3.03v3.34l2.97,2.19,.09-3.06,3.34,2.56-.18,3.5,3.37,2.06-.12-2.62,1.09,1.06,.06,23.28-28.47-20.25Zm28.38-9.84v4.25l-.1-.03-.12-4.75-3.91-2.5-2.12,1.43-.16-3.06-4.28-3.34-2,1-.13-2.38-1.93-1.19-.38-.25-.15-.09-.32-11.22,27.66,19.56v.07l-1.16,.56-.09-.97-1.44-.5-3.03,1.28,.22,1.69-1.16,.47v-.38l-1.4-1.12-4,1.47Zm4-1.25l1.06,.84-2.5,.91,1.69,1.12-1.66,.38-2.37-1.78,3.78-1.47Zm8.25,45.15l-11.69-9.06-.25-34.22,1.97,1.6-.09,2.03,2.62,1.62,.16-2,2.34,1.38-.25,2,3.25,1.5,.06-2.32,2.28,1.25-.4,36.22Zm-1.91-37.72l1.56-.81,1.22,.78,1.57-.65,1,.81-2.97,1.16-2.38-1.29Zm2.53,37.91l.1-36.56,2.62-.81,.06,1.93,3.44-1.5-.22-1.47,2.25-.9,.13,2.06,2.84-1.37,.03-1.91,2.82-1.53,.59,35.37-14.66,6.69Zm14.91-10.1l-.44-28.15,3.22-1.37,.09,3.34,3.75-1.56-.18-3.13,2.97-1.25h.03l.28,28.28-9.72,3.84Zm10.22-3.62l.15-.06s-.28-.06-.28-.06c0,0-.06-.02-.09-.04l-.31-28.46,.06-.03-.06-.04v-.15l-2.78-1.5s-.08-.09-.13-.16l-.06,.03-.13-2.4,4.53,2.15,.29,31-1.19-.28Zm13.25-4.53l-7.85,3.22-.31-14.06c.87-2.09,2.32-4.5,3.85-5.44,1.58,.05,3.38,1.1,4.31,1.94v14.34Zm.37-.13l-.09-14.4c-1.37-1.35-2.86-1.93-4.75-2.09-2.02,1.13-3,3.4-3.91,5.59l-.12,14.5-3.16,1.28-.37-31,5-2.22,.25,1.94,4.56-2.28v-1.85l4.66-2.09v1.09l.06,30.66-2.13,.87Zm2.44-2.09l-.06,.13-.13-28.75,.03,.06,1.03-.34,.13,3.09,3.31-1.25-.28-3.38,3.97-1.62,.09,28.84-8.09,3.22Zm-.19-28.81v-.53l.85,.34-.85,.19Zm3.85-1.63l.28,2.88-2.69-1.41-.19-2.5c.78,.27,2.3,.91,2.6,1.03Zm-2.35-1.18l3.32-1.38,3.18,.69-4,1.66c-.14-.06-1.59-.65-2.5-.97Zm2.6,4.31l-2.6,1.12-.06-2.5,2.66,1.38Zm5.78,25.09l-1.35-.87-.09-29.35,.03-.06h-.03l-3.66-.78-3.75,1.66,.07,2.43-1.1-.43v-1.41l-2.19-1.19-.12-13.4,1.97,1.59-.1,2.03,2.63,1.63,.16-2,2.34,1.37-.25,2,3.25,1.5,.06-2.31,2.28,1.25-.15,36.34Zm-2.16-37.84l1.56-.81,1.22,.78,1.6-.66,.96,.81-2.96,1.16-2.38-1.28Zm2.63,1.34l2.62-.81,.06,1.94,3.44-1.5-.22-1.47,2.25-.91,.13,2.07,2.84-1.38,.03-1.91,2.69-1.37,.72,35.22-14.66,6.68,.1-36.56Z"/>
      <path class="cls-74" d="M90.98,76.69c-1.53,.94-2.98,3.35-3.85,5.44l.31,14.06,7.85-3.22v-14.34c-.93-.84-2.73-1.89-4.31-1.94Zm4.12,11.44v1.25l-.22,.12v.78l.25-.09-.03,1.28-.22,.22c0,.4-.03,1.22-.03,1.22l-1.19,.56-.06-1.28-.34,.15c0,.42-.07,1.28-.07,1.28l-1.21,.5-.04-1.24-.84,.34,.03,1.31-1.22,.41-.09-1.19-.59,.25v1.03l-1.25,.44-.04-.94-.31,.16v-1.47l.31-.1v-1.18l-.31,.09-.06-1.37,.37-.13v-1.22l-.4,.07v-1.32l.37-.12,.16-1.44h-.59l-.07-1.25,.47-.15v-1.25l-.4,.06,.03-1.22,.37-.22,.1-1.12,1.15-.97,.06,1.62,.54-.19,.06-1.68h-.47l-.03-1.1,.31-.15v-.69l1.09-.78,.04,1.4,1.37-.37-.12-1.25,.93,.09,.19,.75,.44,.1,.15,.78,1,.19,.16,.9,.28-.03-.03,1.25-.22,.13v.12c0,.34-.09,1.06-.03,1.34l.25-.03,.03,1.1-.25,.09c0,.48-.09,1.14-.03,1.56l.28,.1,.06,1.09-.31,.09v1.32h.22Z"/>
      <path class="cls-208" d="M94.57,89.44l.31-.16-.03-.93-.22,.09v-1.59l.38-.29-.03-.87-.38,.03c0-.7,.03-1.14,.03-1.81l.28-.22-.06-.72h-.22c0-.46-.03-1.23-.03-1.62,.12-.09,.26-.1,.34-.25,.11-.19-.01-.59-.03-.91l-.4,.06c-.01-.35-.03-.71-.07-1.06l-.62-.13c-.02,.4,.02,1.11-.03,1.5l-.94,.25c0-.6,.02-.99,0-1.59l.53-.22-.09-.56-.38,.03-.09-1-.59,.03c0,.21,.09,1.01,.09,1.22l-1.88,.41v-1.32l-.53,.38v1.12l-.28,.1-.09,.53,.47-.16-.07,2.19-1.12,.25,.06-1.28-.65,.41v1.31l-.47,.22v.84l.37-.12-.03,1.75-.37,.09-.07,.91,.57-.1-.04,1.81-.5,.19,.07,.87,.53-.15v1.65l-.47,.22,.09,.82,.35-.13,.03,1.69-.5,.16,.03,.93,.41-.09v.97l.78-.28-.03-.97,1.18-.53,.03,1.28,.66-.28v-1.22l1.41-.57c0,.14-.03,.95-.03,1.22l.78-.28c0-.29,.03-1.11,.03-1.34l.81-.25c0,.14,.03,.92,.03,1.19l.75-.35v-1.34l.35-.16v-.72l-.38,.07c0-.38-.03-.71-.03-1.22Zm-5.66-6.16l1.07-.31-.07,1.53-1,.38v-1.6Zm.03,2.69l1.07-.37v1.78l-1.1,.37,.03-1.78Zm.04,2.84l1.06-.37,.03,1.56-1.16,.38,.07-1.57Zm1.12,3.69l-1.12,.38-.07-1.5,1.19-.38v1.5Zm.53-12.78l1.53-.28c.02,.58,.08,1.04,.03,1.62l-1.59,.54,.03-1.88Zm1.6,11.9l-1.38,.6v-1.47l1.38-.47c0,.51,0,1,0,1.34Zm0-2.34l-1.44,.44v-1.59l1.44-.53v1.68Zm-.04-2.72l-1.46,.57v-1.82l1.5-.56c0,.66-.04,1.16-.04,1.81Zm-1.46-2.34v-1.56l1.5-.56c0,.56,.02,1.05,.03,1.65l-1.53,.47Zm2.31,7.06v-1.28l.78-.25c0,.52,.03,.93,.03,1.28l-.81,.25Zm.84-2.59l-.9,.31c0-.77,0-.72,0-1.62l.9-.32v1.63Zm0-2.69l-.94,.31c0-.6,.01-1.17,0-1.78l.94-.31v1.78Zm-.03-2.81l-.94,.28c0-.6,0-.98,0-1.53l1-.34c0,.48-.06,1.03-.06,1.59Z"/>
      <path class="cls-209" d="M59.22,31.72l-11.16,2.56,21.22,16.69,21.19,.63-31.25-19.88Zm25.16,18.53l-1.85-1.22-14.53-.97v-.09l14.16,.81-6.53-4.28-3.16,.41,.37,.53-.12,.03-.66-.5-.75,.09-.06-.03,.47-.34-4.34-3.47-1.54,.56-.06-.28,1.28-.34-.72-.56-.03-.1,1.1,.56,2.5-.62-6-4.19-2.94,1.03,1.75,1.32-.03,.15-2.1-1.34-2.09,.72c.99,.84,1.83,1.79,2.88,2.68,3.71,3.15,7.37,6,7.37,6l-.22,.25s-3.54-3.07-7.25-6.21c-1.1-.94-2.08-1.76-3.12-2.63l-1.66,.56-.16-.06,1.57-.72c-1.42-1.18-2.82-2.38-4.28-3.5l-2.54,.75-.09-.15,2.47-.75c-.05-.04-.22-.16-.31-.22,.11,.04,.36,.07,.47,.15l5.78-1.59v.06l-5.63,1.66c1.44,1.14,2.93,2.42,4.31,3.62l2.19-.84-1.72-1.5,.1-.09,2,1.46,2.78-.9-.88-.6,.13-.03,1.09,.5,1.06-.37,.41,.19-1.16,.37,6.07,4.09,1.09-.31,.31,.03-1.06,.5,1.13,1-.07,.07-1.43-1.13-2.6,.78,4.63,3.53,3.34-.43-.84-.47,.06-.07,.97,.41,1.94-.25,.06,.16-1.88,.37,6.78,4.22,2.69,.19,.1,.15h-2.25l1.28,1.16-.03,.03Z"/>
      <path class="cls-46" d="M47.75,34.38l-19.06,10.47,27.34,19.31-.19-1.19,2.94-1.28,2.16,1.53,.03,1.22,8.09-13.22-21.31-16.84Zm-11.59,10.5c3.14-1.55,6.24-3.56,9.25-5.35-.58-.43-1.25-.99-1.82-1.43l-12.81,6.93v-.09l12.6-6.97c-.27-.21-.49-.53-.79-.59h.16c.1,.09,.6,.31,.91,.56l1.53-.88,.03,.1-1.47,.81c.56,.44,1.12,.88,1.69,1.31,1.12-.68,3.06-1.84,3.06-1.84l.03,.09s-1.33,.85-2.97,1.85c1.77,1.34,3.68,2.77,5.44,4.12l1.28-1,.1,.06-1.13,1.13c.24,.18,1,1.03,1,1.03l-.06,.03s-.93-.68-1.19-.87l-2.25,1.78-.16-.06,2.35-1.97c-1.79-1.34-3.73-2.62-5.5-3.97-3.04,1.83-6.08,3.65-9.25,5.25-.01-.03-.02-.03-.03-.03Zm14.72,7.47l-.84-.69-1.72,1.5-.06-.1,1.75-1.56-6.54-5.31c-1.16,.81-2.42,1.75-3.68,2.41l-.03-.07c1.17-.68,2.39-1.7,3.5-2.5l-.88-.72,.13-.09,.9,.72c.7-.47,1.56-1.06,1.56-1.06l.13,.03s-.8,.81-1.44,1.25l6.38,5.12,5-4.28,.06,.06-4.84,4.41,.81,.66-.19,.22Zm.56,6.31l-.12-.06,5.41-4.85-2.66-2.37,.09-.07,2.72,2.41,4.78-4.34,.1,.06-4.75,4.31,1.9,1.72-.09,.16-1.84-1.66-5.54,4.69Zm5.44,1.97h-.09l7.15-7.88h.04l-7.1,7.88Z"/>
      <path class="cls-28" d="M69.29,51.31l-8.31,13.57v.22l.28,.25-.03-.54,1.37-.81,1.16,.72,27.4-12.66-21.87-.75Zm14.37,3.79l-1.4-1.72-4.44,2.06,.75,1.16-.16-.04-.78-1.06-4.44,2.03,.19,.38-.09,.15-.41-.4-3.84,1.69,.53,1.53h-.09l-.75-1.38-3.91,1.72-.03-.09,3.9-1.78-.9-2.16,.12-.06,1.07,2.09,3.81-1.72-3.03-4.9,.12-.07,3.19,4.88,4.47-2.03-1.22-1.72,.09-.03,1.41,1.62,4.25-1.9-.66-.97,.07-.16,.87,.97,1.63-.72,.06,.06-1.47,.88,1.25,1.65-.16,.04Z"/>
      <polygon class="cls-104" points="91.76 58.91 90.19 59.5 89.76 59.69 89.35 59.85 89.57 62.31 87.51 63.22 84.82 61.56 78.29 64.28 78.16 67.19 74.76 68.66 74.85 71.06 74.73 71.1 71.35 70.47 71.32 68.56 67.91 67.28 66.19 68.13 65.35 67.72 65.48 65.81 63.94 64.85 91.57 52.25 91.76 58.91"/>
      <polygon class="cls-8" points="56.1 64.56 56.1 64.63 54.94 65.19 54.85 64.22 53.41 63.72 50.38 65 50.6 66.69 49.44 67.16 49.44 66.78 48.04 65.66 44.04 67.13 44.04 71.38 43.94 71.35 43.82 66.6 39.91 64.1 37.79 65.53 37.63 62.47 33.35 59.13 31.35 60.13 31.22 57.75 29.29 56.56 28.91 56.31 28.76 56.22 28.44 45 56.1 64.56"/>
      <polygon class="cls-35" points="78.78 20.47 74.28 22.1 70.5 19.31 75.28 18.38 78.78 20.47"/>
      <polygon class="cls-193" points="78.97 23.72 74.28 25.53 74.37 22.44 78.72 20.78 78.97 23.72"/>
      <polygon class="cls-50" points="79.41 24.25 77.69 24.97 77.62 28.5 74.41 25.97 79.12 24.06 79.41 24.25"/>
      <polygon class="cls-121" points="85.44 26.22 81.56 27.78 78 25.22 81.34 23.69 85.44 26.22"/>
      <polygon class="cls-166" points="85.94 28.91 84.09 29.85 84.09 30.22 81.78 31.41 81.78 28 85.81 26.38 85.94 28.91"/>
      <polygon class="cls-192" points="84.16 33.41 81.91 31.63 84.09 30.66 84.16 33.41"/>
      <polygon class="cls-158" points="91.97 31 88.5 33.19 88.47 33.25 84.34 30.03 88.25 28 91.97 31"/>
      <polygon class="cls-123" points="91.03 35.22 91.19 35.66 88.59 36.66 88.47 33.5 92.16 31.22 92.34 34.22 91.03 35.22"/>
      <path class="cls-210" d="M91.16,35.94l-.16,2.34-2.06-1.47c.77-.2,1.49-.55,2.22-.87Z"/>
      <polygon class="cls-181" points="98.12 35.16 94.75 37.94 91.25 35.41 94.78 32.85 98.12 35.16"/>
      <polygon class="cls-43" points="98.56 40.03 97.47 40.97 94.81 41.75 95.06 38.35 98.4 35.56 98.56 40.03"/>
      <polygon class="cls-189" points="101.62 42.38 101.84 44.06 101.37 44.25 97.75 41.1 100.43 39.06 103.93 41.41 101.62 42.38"/>
      <polygon class="cls-190" points="100.69 44.53 100.69 44.16 99.29 43.03 97.72 43.6 97.82 41.41 101.19 44.35 100.69 44.53"/>
      <polygon class="cls-106" points="97.57 43.41 95.13 41.97 97.51 41.35 97.57 43.41"/>
      <polygon class="cls-67" points="103.6 44.88 100.76 46.13 100.73 44.85 102.07 44.22 103.6 44.88"/>
      <polygon class="cls-184" points="103.6 44.69 102.1 44.03 101.94 42.66 103.32 43.35 103.6 44.69"/>
      <polygon class="cls-139" points="105.85 41.72 103.32 43 102.04 42.41 104.73 41.28 105.85 41.72"/>
      <polygon class="cls-64" points="108.51 42.88 106.29 43.81 106.19 42.75 107.44 42.19 108.51 42.88"/>
      <polygon class="cls-48" points="108.6 42.75 107.6 42 107.38 40.63 108.38 41.19 108.6 42.75"/>
      <polygon class="cls-101" points="111.96 40.69 110.84 41.38 109.78 40.38 108.53 41.06 107.37 40.47 110.03 39.25 111.96 40.69"/>
      <polygon class="cls-186" points="112.1 42.38 110.91 43.06 110.82 41.56 112.04 40.81 112.1 42.38"/>
      <polygon class="cls-86" points="112.63 44.44 111.04 43.25 112.1 42.63 112.57 42.97 112.63 44.44"/>
      <polygon class="cls-40" points="116.41 43.19 114.97 43.81 112.6 42.31 113.91 41.56 116.41 43.19"/>
      <polygon class="cls-118" points="116.54 43.31 116.41 45.1 114.97 45.81 115.04 44 116.54 43.31"/>
      <polygon class="cls-168" points="116.6 45.94 116.63 46.81 115.19 45.94 116.54 45.28 117.19 45.66 116.6 45.94"/>
      <polygon class="cls-20" points="118.29 46.5 116.91 46.97 116.88 46.03 118.29 46.5"/>
      <polygon class="cls-201" points="122.41 46.13 119.29 47.72 116.82 47.25 118.76 46.5 117.26 45.91 119.23 44.81 122.41 46.13"/>
      <path class="cls-135" d="M119.16,47.94v1.62l-2.56-.68c-.02-.46-.09-1.05-.06-1.53l2.62,.59Z"/>
      <polygon class="cls-205" points="119.16 49.78 116.76 50.97 116.66 49.06 119.16 49.78"/>
      <polygon class="cls-204" points="116.32 47.19 116.38 48.85 113.82 48.16 111.23 49.19 111.16 50.63 110.23 49.85 109.94 49.88 109.91 40.69 110.6 41.47 110.66 43.31 112.85 44.81 112.79 42.69 114.82 44 114.76 45.91 116.66 47.06 116.32 47.19"/>
      <path class="cls-65" d="M116.29,49l-2.32,1-2.18-.84,2.06-.81s1.72,.44,2.44,.65Z"/>
      <path class="cls-100" d="M113.97,51.5c-.53-.16-2.33-.77-2.56-.84v-1.35l2.5,.88,.06,1.31Z"/>
      <path class="cls-75" d="M113.91,51.69l-2.65,1.03-.03-1.91c.74,.17,1.91,.65,2.68,.88Z"/>
      <polygon class="cls-4" points="110.97 50.81 108.01 51.97 105.63 50.69 107.19 49.88 108.41 50.66 110.01 50 110.97 50.81"/>
      <polygon class="cls-42" points="105.41 51.44 105.35 52.85 102.88 51.72 104.76 51.06 105.41 51.44"/>
      <polygon class="cls-53" points="104.66 50.81 102.6 51.53 102.79 49.78 102.82 49.88 104.6 49 104.66 50.81"/>
      <polygon class="cls-134" points="104.66 48.72 102.82 49.53 100.29 48.06 102.04 47.53 104.66 48.72"/>
      <polygon class="cls-137" points="99.97 48 99.91 50 97.79 48.75 99.97 48"/>
      <polygon class="cls-37" points="109.85 49.97 108.38 50.44 107.19 49.66 105.38 50.63 105.44 51.06 104.88 50.81 104.85 48.63 102.04 47.28 100.23 47.91 100.1 46.19 98.29 45.06 100.38 44.28 100.44 46.6 103.88 45.06 103.57 43.16 105.88 42 106.1 44.13 108.82 43 108.54 41.25 109.73 40.6 109.85 49.97"/>
      <polygon class="cls-202" points="97.85 45 99.54 46.13 97.88 46.5 95.51 44.72 99.29 43.25 100.35 44.1 97.85 45"/>
      <polygon class="cls-30" points="99.97 47.81 97.76 48.56 97.91 46.78 99.91 46.38 99.97 47.81"/>
      <path class="cls-94" d="M105.91,58.44l-4,1.66c-.14-.06-1.59-.65-2.5-.97l3.32-1.38,3.18,.69Z"/>
      <path class="cls-56" d="M102.04,63.19l-2.69-1.41-.19-2.5c.78,.27,2.3,.91,2.6,1.03l.28,2.88Z"/>
      <polygon class="cls-111" points="102.01 63.44 99.41 64.56 99.35 62.06 102.01 63.44"/>
      <polygon class="cls-116" points="98.76 61.75 97.91 61.94 97.91 61.41 98.76 61.75"/>
      <polygon class="cls-80" points="92.79 62.1 92.88 63.72 89.88 62.31 89.69 60.19 94.41 58.16 97.69 60 92.79 62.1"/>
      <polygon class="cls-128" points="92.88 63.97 88.76 65.91 88.69 64.25 88.66 63.91 87.85 63.5 89.88 62.53 92.88 63.97"/>
      <polygon class="cls-142" points="88.32 64.13 83.01 66.47 78.73 64.35 84.88 61.91 88.32 64.13"/>
      <polygon class="cls-154" points="80.85 68.78 78.04 69.97 78.01 69.97 75.29 68.69 78.38 67.38 80.85 68.78"/>
      <polygon class="cls-81" points="78.07 72.94 75.23 71.25 75.13 68.91 77.85 70.28 77.88 70.25 78.07 72.94"/>
      <polygon class="cls-113" points="78.01 73.19 75.1 74.47 75.01 71.5 78.01 73.19"/>
      <polygon class="cls-32" points="74.23 71.35 71.38 72.6 71.35 70.75 74.23 71.35"/>
      <polygon class="cls-143" points="61.38 67.06 59.79 65.88 60.85 65.25 61.32 65.6 61.38 67.06"/>
      <polygon class="cls-194" points="65.16 65.81 63.73 66.44 61.35 64.94 62.66 64.19 65.16 65.81"/>
      <polygon class="cls-122" points="65.29 65.94 65.16 67.72 63.73 68.44 63.79 66.63 65.29 65.94"/>
      <polygon class="cls-159" points="65.35 68.56 65.38 69.44 63.94 68.56 65.29 67.91 65.94 68.28 65.35 68.56"/>
      <polygon class="cls-167" points="67.04 69.13 65.66 69.6 65.63 68.66 67.04 69.13"/>
      <polygon class="cls-1" points="71.16 68.75 68.04 70.35 65.57 69.88 67.51 69.13 66.01 68.53 67.98 67.44 71.16 68.75"/>
      <path class="cls-119" d="M67.91,70.56v1.63l-2.56-.69c-.02-.45-.09-1.05-.06-1.53l2.62,.59Z"/>
      <polygon class="cls-196" points="67.91 72.41 65.51 73.6 65.41 71.69 67.91 72.41"/>
      <path class="cls-49" d="M65.04,71.63l-2.31,1-2.19-.85,2.06-.81s1.72,.45,2.44,.66Z"/>
      <path class="cls-146" d="M62.73,74.13c-.54-.16-2.34-.77-2.57-.85v-1.34l2.5,.87,.07,1.32Z"/>
      <path class="cls-16" d="M62.66,74.31l-2.65,1.04-.03-1.91c.74,.17,1.91,.65,2.68,.87Z"/>
      <polygon class="cls-33" points="59.73 73.44 56.76 74.6 54.38 73.31 55.94 72.5 57.16 73.28 58.73 72.63 59.73 73.44"/>
      <polygon class="cls-103" points="65.07 69.81 65.13 71.47 62.57 70.78 59.98 71.81 59.91 73.25 58.94 72.44 58.63 72.53 58.63 63.31 59.35 64.1 59.41 65.94 61.6 67.44 61.54 65.31 63.57 66.63 63.51 68.53 65.41 69.69 65.07 69.81"/>
      <polygon class="cls-133" points="60.85 65 59.66 65.69 59.57 64.19 60.79 63.44 60.85 65"/>
      <polygon class="cls-58" points="57.35 65.38 56.35 64.63 56.13 63.25 57.13 63.81 57.35 65.38"/>
      <polygon class="cls-107" points="60.73 63.31 59.6 64 58.54 63 57.29 63.69 56.13 63.1 58.79 61.88 60.73 63.31"/>
      <polygon class="cls-85" points="57.26 65.5 55.04 66.44 54.94 65.38 56.19 64.81 57.26 65.5"/>
      <polygon class="cls-11" points="54.69 64.31 51.98 65.66 50.79 65.06 53.41 63.88 54.69 64.31"/>
      <polygon class="cls-148" points="52.35 67.31 50.85 66.66 50.69 65.28 52.07 65.97 52.35 67.31"/>
      <polygon class="cls-125" points="52.35 67.5 49.51 68.75 49.48 67.47 50.82 66.85 52.35 67.5"/>
      <polygon class="cls-200" points="58.48 63.22 58.44 63.28 58.44 72.6 57.13 73.06 55.94 72.28 54.13 73.25 54.19 73.69 53.63 73.44 53.6 71.25 50.79 69.91 48.98 70.53 48.85 68.81 47.04 67.69 49.13 66.91 49.19 69.22 52.63 67.69 52.32 65.78 54.63 64.63 54.85 66.75 57.57 65.63 57.29 63.88 58.48 63.22"/>
      <polygon class="cls-55" points="54.16 74.06 54.1 75.47 51.63 74.35 53.51 73.69 54.16 74.06"/>
      <polygon class="cls-14" points="53.41 73.44 51.35 74.16 51.54 72.41 51.57 72.5 53.35 71.63 53.41 73.44"/>
      <polygon class="cls-13" points="53.41 71.35 51.57 72.16 49.04 70.69 50.79 70.16 53.41 71.35"/>
      <polygon class="cls-188" points="48.73 70.63 48.66 72.63 46.54 71.38 48.73 70.63"/>
      <polygon class="cls-84" points="48.73 70.44 46.51 71.19 46.66 69.41 48.66 69 48.73 70.44"/>
      <polygon class="cls-155" points="46.6 67.63 48.29 68.75 46.63 69.13 44.26 67.35 48.04 65.88 49.1 66.72 46.6 67.63"/>
      <polygon class="cls-71" points="44.07 71.66 44.07 73.5 42.91 72.56 44.07 71.66"/>
      <polygon class="cls-120" points="42.73 74.88 40.29 73.44 42.66 72.81 42.73 74.88"/>
      <polygon class="cls-169" points="43.73 71.53 42.63 72.44 39.91 73.03 40.23 69.81 43.57 67.03 43.73 71.53"/>
      <polygon class="cls-162" points="43.29 66.63 39.91 69.41 36.41 66.88 39.94 64.31 43.29 66.63"/>
      <path class="cls-211" d="M36.32,67.41l-.16,2.34-2.06-1.47c.77-.2,1.49-.55,2.22-.87Z"/>
      <polygon class="cls-131" points="36.19 66.69 36.35 67.13 33.76 68.13 33.63 64.97 37.32 62.69 37.51 65.69 36.19 66.69"/>
      <polygon class="cls-115" points="37.13 62.47 33.66 64.66 33.63 64.72 29.51 61.5 33.41 59.47 37.13 62.47"/>
      <polygon class="cls-62" points="29.32 64.88 27.07 63.1 29.26 62.13 29.32 64.88"/>
      <polygon class="cls-163" points="31.1 60.38 29.26 61.31 29.26 61.69 26.94 62.88 26.94 59.47 30.98 57.85 31.1 60.38"/>
      <polygon class="cls-76" points="30.6 57.69 26.73 59.25 23.16 56.69 26.51 55.16 30.6 57.69"/>
      <polygon class="cls-117" points="24.57 55.72 22.85 56.44 22.79 59.97 19.57 57.44 24.29 55.53 24.57 55.72"/>
      <polygon class="cls-57" points="24.13 55.19 19.44 57 19.54 53.91 23.88 52.25 24.13 55.19"/>
      <polygon class="cls-19" points="23.94 51.94 19.44 53.56 15.66 50.78 20.44 49.85 23.94 51.94"/>
      <polygon class="cls-90" points="16.81 31.78 15.62 32.47 15.53 30.97 16.75 30.22 16.81 31.78"/>
      <polygon class="cls-77" points="17.34 33.85 15.75 32.66 16.81 32.03 17.28 32.38 17.34 33.85"/>
      <polygon class="cls-110" points="21.12 32.6 19.69 33.22 17.31 31.72 18.62 30.97 21.12 32.6"/>
      <polygon class="cls-136" points="21.25 32.72 21.13 34.5 19.69 35.22 19.75 33.41 21.25 32.72"/>
      <polygon class="cls-112" points="21.31 35.35 21.34 36.22 19.91 35.35 21.25 34.69 21.91 35.06 21.31 35.35"/>
      <polygon class="cls-197" points="23 35.91 21.63 36.38 21.59 35.44 23 35.91"/>
      <polygon class="cls-182" points="27.13 35.53 24 37.13 21.53 36.66 23.47 35.91 21.97 35.31 23.94 34.22 27.13 35.53"/>
      <path class="cls-99" d="M23.88,37.35v1.62l-2.57-.69c-.02-.45-.09-1.05-.06-1.53l2.63,.6Z"/>
      <polygon class="cls-140" points="23.88 39.19 21.47 40.38 21.38 38.47 23.88 39.19"/>
      <path class="cls-2" d="M21,38.41l-2.31,1-2.19-.85,2.06-.81s1.72,.45,2.44,.66Z"/>
      <path class="cls-68" d="M18.69,40.91c-.54-.16-2.34-.77-2.56-.85v-1.34l2.5,.88,.06,1.31Z"/>
      <path class="cls-124" d="M18.63,41.1l-2.66,1.03-.03-1.91c.74,.17,1.91,.65,2.69,.88Z"/>
      <polygon class="cls-7" points="15.84 40.22 12.72 41.38 10.34 40.1 11.91 39.28 13.13 40.06 14.91 39.35 15.84 40.22"/>
      <polygon class="cls-175" points="9.38 40.22 7.31 40.94 7.5 39.19 7.53 39.28 9.31 38.41 9.38 40.22"/>
      <polygon class="cls-91" points="10.13 40.85 10.06 42.25 7.59 41.13 9.47 40.47 10.13 40.85"/>
      <polygon class="cls-21" points="9.38 38.13 7.53 38.94 5 37.47 6.75 36.94 9.38 38.13"/>
      <polygon class="cls-191" points="4.69 37.41 4.63 39.41 2.5 38.16 4.69 37.41"/>
      <polygon class="cls-109" points="4.69 37.22 2.47 37.97 2.63 36.19 4.63 35.78 4.69 37.22"/>
      <polygon class="cls-63" points="2.56 34.41 4.25 35.53 2.59 35.91 .22 34.13 4 32.66 5.06 33.5 2.56 34.41"/>
      <polygon class="cls-165" points="8.31 34.28 5.47 35.53 5.44 34.25 6.78 33.63 8.31 34.28"/>
      <polygon class="cls-52" points="8.31 34.1 6.81 33.44 6.66 32.06 8.03 32.75 8.31 34.1"/>
      <polygon class="cls-41" points="10.66 31.1 7.94 32.44 6.75 31.85 9.37 30.66 10.66 31.1"/>
      <polygon class="cls-183" points="13.31 32.16 12.31 31.41 12.09 30.03 13.09 30.6 13.31 32.16"/>
      <polygon class="cls-22" points="13.22 32.28 11 33.22 10.91 32.16 12.16 31.6 13.22 32.28"/>
      <polygon class="cls-150" points="16.69 30.1 15.56 30.78 14.5 29.78 13.25 30.47 12.09 29.88 14.75 28.66 16.69 30.1"/>
      <polygon class="cls-92" points="23.37 29.31 19.28 31.22 18.56 30.78 17.19 31.6 17.22 32.13 16.94 31.88 16.91 30.41 20.41 28.69 23.37 29.31"/>
      <polygon class="cls-61" points="27.16 31.16 24.25 32.44 24.16 29.47 27.16 31.16"/>
      <polygon class="cls-88" points="27.22 30.91 24.37 29.22 24.28 26.88 27 28.25 27.03 28.22 27.22 30.91"/>
      <polygon class="cls-5" points="31.56 26.06 27.19 27.94 27.16 27.94 24.44 26.66 28.69 24.85 31.56 26.06"/>
      <polygon class="cls-161" points="36.22 27.53 32.37 29.19 32.16 26.53 36.22 27.53"/>
      <polygon class="cls-141" points="36.53 27.28 36.41 27.35 32.31 26.35 32.37 23.72 36.28 24.69 36.53 27.28"/>
      <polygon class="cls-87" points="39.78 22.85 36.34 24.38 32.56 23.41 36.94 22.1 39.78 22.85"/>
      <polygon class="cls-185" points="44.06 24.31 40.78 26 40.56 22.88 44.06 24.31"/>
      <polygon class="cls-95" points="44.03 24.16 40.53 22.66 40.25 20.5 43.72 21.31 44.03 24.16"/>
      <polygon class="cls-126" points="47.66 19.72 43.84 20.97 40.47 20.13 45 18.63 47.66 19.72"/>
      <polygon class="cls-206" points="51.16 21.41 48.56 22.53 48.47 20 51.16 21.41"/>
      <path class="cls-69" d="M51.19,21.16l-2.69-1.41-.19-2.5c.78,.27,2.3,.91,2.6,1.03l.28,2.88Z"/>
      <path class="cls-15" d="M55.06,16.41l-4,1.65c-.14-.05-1.59-.64-2.5-.96l3.31-1.38,3.19,.69Z"/>
      <polygon class="cls-83" points="59.62 2.63 56.91 3.97 55.72 3.38 58.34 2.19 59.62 2.63"/>
      <polygon class="cls-151" points="57.28 5.63 55.78 4.97 55.62 3.6 57 4.28 57.28 5.63"/>
      <polygon class="cls-12" points="57.28 5.81 54.44 7.06 54.41 5.78 55.75 5.16 57.28 5.81"/>
      <polygon class="cls-24" points="51.53 5.94 53.22 7.06 51.56 7.44 49.19 5.66 52.97 4.19 54.03 5.03 51.53 5.94"/>
      <polygon class="cls-102" points="53.66 8.75 51.44 9.5 51.59 7.72 53.59 7.31 53.66 8.75"/>
      <polygon class="cls-147" points="53.66 8.94 53.59 10.94 51.47 9.69 53.66 8.94"/>
      <polygon class="cls-108" points="58.34 9.66 56.5 10.47 53.97 9 55.72 8.47 58.34 9.66"/>
      <polygon class="cls-160" points="58.34 11.75 56.28 12.47 56.47 10.72 56.5 10.81 58.28 9.94 58.34 11.75"/>
      <polygon class="cls-89" points="59.09 12.38 59.03 13.78 56.56 12.66 58.44 12 59.09 12.38"/>
      <polygon class="cls-10" points="64.66 11.75 61.69 12.91 59.31 11.63 60.87 10.81 62.09 11.6 63.69 10.94 64.66 11.75"/>
      <path class="cls-9" d="M67.59,12.63l-2.65,1.03-.03-1.91c.74,.17,1.91,.65,2.68,.88Z"/>
      <path class="cls-96" d="M67.66,12.44c-.54-.16-2.34-.77-2.57-.84v-1.35l2.5,.88,.07,1.31Z"/>
      <path class="cls-45" d="M69.97,9.94l-2.31,1-2.19-.84,2.06-.82s1.72,.45,2.44,.66Z"/>
      <polygon class="cls-105" points="72.84 10.72 70.44 11.91 70.34 10 72.84 10.72"/>
      <path class="cls-156" d="M72.84,8.88v1.62l-2.56-.69c-.02-.45-.09-1.05-.06-1.53l2.62,.6Z"/>
      <polygon class="cls-152" points="76.09 7.06 72.97 8.66 70.5 8.19 72.44 7.44 70.94 6.85 72.91 5.75 76.09 7.06"/>
      <polygon class="cls-23" points="71.97 7.44 70.59 7.91 70.56 6.97 71.97 7.44"/>
      <polygon class="cls-54" points="70.28 6.88 70.31 7.75 68.87 6.88 70.22 6.22 70.87 6.6 70.28 6.88"/>
      <polygon class="cls-172" points="70.22 4.25 70.09 6.03 68.66 6.75 68.72 4.94 70.22 4.25"/>
      <polygon class="cls-38" points="70.09 4.13 68.66 4.75 66.28 3.25 67.59 2.5 70.09 4.13"/>
      <polygon class="cls-6" points="66.31 5.38 64.72 4.19 65.78 3.56 66.25 3.91 66.31 5.38"/>
      <polygon class="cls-78" points="62.19 3.81 59.97 4.75 59.87 3.69 61.12 3.13 62.19 3.81"/>
      <polygon class="cls-34" points="62.28 3.69 61.28 2.94 61.06 1.56 62.06 2.13 62.28 3.69"/>
      <polygon class="cls-97" points="65.78 3.31 64.59 4 64.5 2.5 65.72 1.75 65.78 3.31"/>
      <polygon class="cls-170" points="65.66 1.63 64.53 2.31 63.47 1.31 62.22 2 61.06 1.41 63.72 .19 65.66 1.63"/>
      <polygon class="cls-29" points="70 8.13 70.06 9.78 67.5 9.1 64.91 10.13 64.84 11.56 63.75 10.78 63.62 1.6 64.28 2.41 64.34 4.25 66.53 5.75 66.47 3.63 68.5 4.94 68.44 6.85 70.34 8 70 8.13"/>
      <polygon class="cls-27" points="63.53 10.85 62.06 11.38 60.87 10.6 59.06 11.56 59.12 12 58.56 11.75 58.53 9.56 55.72 8.22 53.91 8.85 53.78 7.13 51.97 6 54.06 5.22 54.12 7.53 57.56 6 57.25 4.1 59.56 2.94 59.78 5.06 62.5 3.94 62.22 2.19 63.41 1.53 63.53 10.85"/>
      <polygon class="cls-138" points="95.28 44.5 95.5 58.41 94.47 57.85 92.09 58.75 91.94 52.13 70.53 38.53 70.56 19.78 74.12 22.38 73.97 26.06 78 29.28 77.84 25.5 81.41 28 81.47 31.69 84.47 34.1 84.28 30.41 88.34 33.44 88.34 36.78 91.31 38.97 91.41 35.91 94.75 38.47 94.56 41.97 97.62 43.63 95.28 44.5"/>
      <polygon class="cls-180" points="76 18.44 75.37 18.06 70.19 19.19 70.19 38.31 61.87 33.06 61.94 12.97 64.56 12.16 64.62 14.1 68.06 12.6 67.84 11.13 70.09 10.22 70.22 12.28 73.06 10.91 73.09 9 75.78 7.63 76 18.44"/>
      <polygon class="cls-179" points="61.62 13.13 61.41 32.75 59.28 31.41 55.5 32.31 55.5 16.28 55.53 16.22 55.5 16.22 51.84 15.44 49.25 16.6 49.28 6.06 51.25 7.66 51.16 9.69 53.78 11.31 53.94 9.31 56.28 10.69 56.03 12.69 59.28 14.19 59.34 11.88 61.62 13.13"/>
      <polygon class="cls-187" points="55.25 16.66 55.19 32.38 47.78 34.16 28.12 44.78 28.41 56 27.62 55.53 27.28 35.35 23.87 34.06 22.16 34.91 21.31 34.5 21.44 32.6 19.53 31.38 23.75 29.56 23.84 32.91 27.59 31.35 27.41 28.22 31.91 26.28 32.16 29.63 36.81 27.53 36.5 24.5 40.19 22.91 40.37 26.47 44.44 24.53 44.06 21.19 47.94 19.94 48.12 20.03 48.25 22.91 51.56 21.66 51.28 18.28 55.25 16.66"/>
      <polygon class="cls-36" points="21.03 36.6 21.09 38.25 18.53 37.56 15.94 38.6 15.87 40.03 15.09 39.25 14.78 39.28 14.72 30.06 15.31 30.88 15.37 32.72 17.56 34.22 17.5 32.1 19.53 33.41 19.47 35.31 21.37 36.47 21.03 36.6"/>
      <polygon class="cls-203" points="14.59 39.28 13.09 39.85 11.91 39.06 10.09 40.03 10.16 40.47 9.59 40.22 9.56 38.03 6.75 36.69 4.94 37.31 4.81 35.6 3 34.47 5.09 33.69 5.16 36 8.59 34.47 8.28 32.56 10.59 31.41 10.81 33.53 13.53 32.41 13.25 30.66 14.44 30 14.59 39.28"/>
      <path class="cls-177" d="M10.38,40.35l-.07,2.31-3.25-1.5,.25-2-2.34-1.38-.16,2-2.62-1.62,.09-2.03-1.97-1.6,.25,34.22,11.69,9.06,.41-36.21-2.28-1.25Zm-6.47,10.81l.38-2.66c.44-.93,.78-1.62,1.84-1.9,.96,.65,2.06,1.13,2.06,2.9,.09,1.62,.05,3.24,.22,4.85l-4.5-3.19Z"/>
      <polygon class="cls-73" points="27.31 55.35 26.53 54.88 24.91 55.56 24.44 55.31 24.28 51.85 20.53 49.53 15.34 50.66 15.34 76.88 12.88 78 12.97 41.44 15.59 40.63 15.66 42.56 19.09 41.06 18.88 39.6 21.13 38.69 21.25 40.75 24.09 39.38 24.13 37.47 26.81 36.1 27.31 55.35"/>
      <polygon class="cls-207" points="44.13 97.22 15.66 76.97 15.73 51.25 19.29 53.85 19.13 57.53 23.16 60.75 23.01 56.97 26.57 59.47 26.63 63.16 29.63 65.56 29.44 61.88 33.51 64.91 33.51 68.25 36.48 70.44 36.57 67.38 39.91 69.94 39.73 73.44 43.1 75.5 42.98 72.88 44.07 73.94 44.13 97.22"/>
      <path class="cls-132" d="M54.41,73.56l-.06,2.32-3.25-1.5,.25-2-2.34-1.38-.16,2-2.62-1.62,.09-2.03-1.97-1.6,.25,34.22,11.69,9.06,.4-36.22-2.28-1.25Zm-6.47,10.82l.38-2.66c.44-.93,.78-1.62,1.84-1.91,.96,.66,2.07,1.14,2.07,2.91,.08,1.61,.04,3.23,.21,4.84l-4.5-3.18Z"/>
      <polygon class="cls-72" points="107.94 52.19 107.79 88.53 106.44 87.66 106.35 58.31 106.38 58.25 106.35 58.25 102.69 57.47 98.94 59.13 99.01 61.56 97.91 61.13 97.91 59.72 95.72 58.53 95.6 45.13 97.57 46.72 97.47 48.75 100.1 50.38 100.26 48.38 102.6 49.75 102.35 51.75 105.6 53.25 105.66 50.94 107.94 52.19"/>
      <path class="cls-44" d="M122.1,46.69l-2.69,1.37-.03,1.91-2.84,1.38-.13-2.07-2.25,.91,.22,1.47-3.44,1.5-.06-1.94-2.62,.81-.1,36.56,14.66-6.68-.72-35.22Zm-8.91,19.72l-.03-4.13c.36-1.52,.83-2.86,2.1-3.9,1.48,.42,2.17,1.49,2.84,2.56,.27,1.08,.46,2.17,.59,3.28l-5.5,2.19Z"/>
      <path class="cls-39" d="M118.38,63.97l-4.78,1.91c-.04-.89-.02-2.95,.06-3.75,.1-.94,.9-2.47,1.78-3.41,.94,.41,1.84,1.45,2.1,2.16,.24,.67,.73,2.27,.84,3.09Z"/>
      <polygon class="cls-18" points="106.19 87.53 98.1 90.75 98.04 90.88 97.91 62.13 97.94 62.19 98.97 61.85 99.1 64.94 102.41 63.69 102.13 60.31 106.1 58.69 106.19 87.53"/>
      <path class="cls-79" d="M97.79,91.97l-2.13,.87-.09-14.4c-1.37-1.35-2.86-1.93-4.75-2.09-2.02,1.13-3,3.4-3.91,5.59l-.12,14.5-3.16,1.28-.37-31,5-2.22,.25,1.94,4.56-2.28v-1.85l4.66-2.09v1.09l.06,30.66Z"/>
      <path class="cls-98" d="M82.04,97.5l.15-.06s-.28-.06-.28-.06c0,0-.06-.02-.09-.04l-.31-28.46,.06-.03-.06-.04v-.15l-2.78-1.5s-.08-.09-.13-.16l-.06,.03-.13-2.4,4.53,2.15,.29,31-1.19-.28Z"/>
      <polygon class="cls-60" points="81.54 97.28 71.82 101.12 71.38 72.97 74.6 71.6 74.69 74.94 78.44 73.38 78.26 70.25 81.23 69 81.26 69 81.54 97.28"/>
      <path class="cls-17" d="M70.98,69.16l-2.82,1.53-.03,1.91-2.84,1.37-.13-2.06-2.25,.9,.22,1.47-3.44,1.5-.06-1.93-2.62,.81-.1,36.56,14.66-6.69-.59-35.37Zm-9.04,19.87l-.03-4.12c.36-1.53,.83-2.87,2.1-3.91,1.48,.42,2.17,1.49,2.84,2.56,.27,1.09,.46,2.18,.59,3.29l-5.5,2.18Z"/>
      <path class="cls-178" d="M92.91,81.94c0,.55,0,.93,0,1.53l.94-.28c0-.56,.07-1.11,.06-1.59l-1,.34Zm.66,1.09l-.38,.13c0-.41-.02-.81-.03-1.19l.41-.12v1.18Z"/>
      <path class="cls-114" d="M92.94,84.53c.01,.61,0,1.18,0,1.78l.94-.31v-1.78l-.94,.31Zm.66,1.35l-.37,.12c0-.47-.02-.94-.04-1.4l.41-.13v1.41Z"/>
      <path class="cls-145" d="M92.16,79.44l-1.53,.28-.03,1.88,1.59-.54c.05-.58-.01-1.04-.03-1.62Zm-1.18,1.91l-.04-1.44,.91-.25c.04,.46,.02,.91,.03,1.37l-.9,.32Z"/>
      <polygon class="cls-173" points="57.01 53.75 58.91 55.47 58.82 55.63 56.98 53.97 51.44 58.66 51.32 58.6 56.73 53.75 54.07 51.38 54.16 51.31 56.88 53.72 61.66 49.38 61.76 49.44 57.01 53.75"/>
      <polygon class="cls-153" points="63.98 52.75 56.88 60.63 56.79 60.63 63.94 52.75 63.98 52.75"/>
      <path class="cls-130" d="M83.13,49.06l1.28,1.16-.03,.03-1.85-1.22-14.53-.97v-.09l14.16,.81-6.53-4.28-3.16,.41,.37,.53-.12,.03-.66-.5-.75,.09-.06-.03,.47-.34-4.34-3.47-1.54,.56-.06-.28,1.28-.34-.72-.56-.03-.1,1.1,.56,2.5-.62-6-4.19-2.94,1.03,1.75,1.32-.03,.15-2.1-1.34-2.09,.72c.99,.84,1.83,1.79,2.88,2.68,3.71,3.15,7.37,6,7.37,6l-.22,.25s-3.54-3.07-7.25-6.21c-1.1-.94-2.08-1.76-3.12-2.63l-1.66,.56-.16-.06,1.57-.72c-1.42-1.18-2.82-2.38-4.28-3.5l-2.54,.75-.09-.15,2.47-.75c-.05-.04-.22-.16-.31-.22,.11,.04,.36,.07,.47,.15l5.78-1.59v.06l-5.63,1.66c1.44,1.14,2.93,2.42,4.31,3.62l2.19-.84-1.72-1.5,.1-.09,2,1.46,2.78-.9-.88-.6,.13-.03,1.09,.5,1.06-.37,.41,.19-1.16,.37,6.07,4.09,1.09-.31,.31,.03-1.06,.5,1.13,1-.07,.07-1.43-1.13-2.6,.78,4.63,3.53,3.34-.43-.84-.47,.06-.07,.97,.41,1.94-.25,.06,.16-1.88,.37,6.78,4.22,2.69,.19,.1,.15h-2.25Z"/>
      <path class="cls-59" d="M90.04,88.44l-1.06,.37-.07,1.57,1.16-.38-.03-1.56Zm-.81,1.65v-1.25l.5-.15,.03,1.22-.53,.18Z"/>
      <path class="cls-171" d="M52.25,44.72l-.06,.03s-.93-.68-1.19-.87l-2.25,1.78-.16-.06,2.35-1.97c-1.79-1.34-3.73-2.62-5.5-3.97-3.04,1.83-6.08,3.65-9.25,5.25-.01-.03-.02-.03-.03-.03,3.14-1.55,6.24-3.56,9.25-5.35-.58-.43-1.25-.99-1.82-1.43l-12.81,6.93v-.09l12.6-6.97c-.27-.21-.49-.53-.79-.59h.16c.1,.09,.6,.31,.91,.56l1.53-.88,.03,.1-1.47,.81c.56,.44,1.12,.88,1.69,1.31,1.12-.68,3.06-1.84,3.06-1.84l.03,.09s-1.33,.85-2.97,1.85c1.77,1.34,3.68,2.77,5.44,4.12l1.28-1,.1,.06-1.13,1.13c.24,.18,1,1.03,1,1.03Z"/>
      <path class="cls-70" d="M50.26,51.47l.81,.66-.19,.22-.84-.69-1.72,1.5-.06-.1,1.75-1.56-6.54-5.31c-1.16,.81-2.42,1.75-3.68,2.41l-.03-.07c1.17-.68,2.39-1.7,3.5-2.5l-.88-.72,.13-.09,.9,.72c.7-.47,1.56-1.06,1.56-1.06l.13,.03s-.8,.81-1.44,1.25l6.38,5.12,5-4.28,.06,.06-4.84,4.41Z"/>
      <polygon class="cls-31" points="82.57 53.41 83.82 55.06 83.66 55.1 82.26 53.38 77.82 55.44 78.57 56.6 78.41 56.56 77.63 55.5 73.19 57.53 73.38 57.91 73.29 58.06 72.88 57.66 69.04 59.35 69.57 60.88 69.48 60.88 68.73 59.5 64.82 61.22 64.79 61.13 68.69 59.35 67.79 57.19 67.91 57.13 68.98 59.22 72.79 57.5 69.76 52.6 69.88 52.53 73.07 57.41 77.54 55.38 76.32 53.66 76.41 53.63 77.82 55.25 82.07 53.35 81.41 52.38 81.48 52.22 82.35 53.19 83.98 52.47 84.04 52.53 82.57 53.41"/>
      <path class="cls-26" d="M88.94,85.97l-.03,1.78,1.1-.37v-1.78l-1.07,.37Zm.29,1.47v-1.44l.46-.19,.04,1.47-.5,.16Z"/>
      <path class="cls-157" d="M88.91,83.28v1.6l1-.38,.07-1.53-1.07,.31Zm.28,1.32v-1.19l.47-.16,.03,1.19-.5,.16Z"/>
      <path class="cls-25" d="M66.85,83.56c-.67-1.07-1.36-2.14-2.84-2.56-1.27,1.04-1.74,2.38-2.1,3.91l.03,4.12,5.5-2.18c-.13-1.11-.32-2.2-.59-3.29Zm-4.44,1.19c.1-.94,.9-2.47,1.78-3.4,.94,.41,1.85,1.44,2.1,2.15,.24,.68,.73,2.28,.84,3.1l-4.78,1.9c-.04-.88-.02-2.95,.06-3.75Z"/>
      <path class="cls-129" d="M67.13,86.6l-4.78,1.9c-.04-.88-.02-2.95,.06-3.75,.1-.94,.9-2.47,1.78-3.4,.94,.41,1.85,1.44,2.1,2.15,.24,.68,.73,2.28,.84,3.1Z"/>
      <path class="cls-82" d="M52.23,82.72c0-1.77-1.11-2.25-2.07-2.91-1.06,.29-1.4,.98-1.84,1.91l-.38,2.66,4.5,3.18c-.17-1.61-.13-3.23-.21-4.84Zm-3.79,1.5c.1-.69,.28-1.84,.41-2.37-.21-.65,.64-1.39,1.38-1.6,.84,.39,1.61,1.53,1.62,2.6,.01,.68,.26,2.88,.28,3.87l-3.69-2.5Z"/>
      <path class="cls-47" d="M48.44,84.22c.1-.69,.28-1.84,.41-2.37-.21-.65,.64-1.39,1.38-1.6,.84,.39,1.61,1.53,1.62,2.6,.01,.68,.26,2.88,.28,3.87l-3.69-2.5Z"/>
      <path class="cls-198" d="M8.19,49.5c0-1.77-1.1-2.25-2.06-2.9-1.06,.28-1.4,.97-1.84,1.9l-.38,2.66,4.5,3.19c-.17-1.61-.13-3.23-.22-4.85Zm-3.78,1.5c.09-.69,.28-1.84,.41-2.37-.22-.65,.63-1.39,1.37-1.6,.85,.39,1.62,1.54,1.63,2.6,0,.68,.26,2.88,.28,3.87l-3.69-2.5Z"/>
      <path class="cls-66" d="M4.41,51c.09-.69,.28-1.84,.41-2.37-.22-.65,.63-1.39,1.37-1.6,.85,.39,1.62,1.54,1.63,2.6,0,.68,.26,2.88,.28,3.87l-3.69-2.5Z"/>
    </g>
  </g>
</svg>