<?xml version="1.0" encoding="UTF-8"?>
<svg id="Layer_2" data-name="Layer 2" xmlns="http://www.w3.org/2000/svg" xmlns:xlink="http://www.w3.org/1999/xlink" viewBox="0 0 44 53.84">
  <defs>
    <style>
      .cls-1 {
        fill: url(#linear-gradient-4);
      }

      .cls-1, .cls-2, .cls-3, .cls-4, .cls-5, .cls-6, .cls-7, .cls-8, .cls-9, .cls-10, .cls-11, .cls-12, .cls-13, .cls-14, .cls-15, .cls-16, .cls-17, .cls-18, .cls-19, .cls-20, .cls-21, .cls-22, .cls-23, .cls-24, .cls-25, .cls-26, .cls-27, .cls-28, .cls-29, .cls-30, .cls-31, .cls-32, .cls-33, .cls-34, .cls-35, .cls-36, .cls-37, .cls-38, .cls-39, .cls-40, .cls-41, .cls-42, .cls-43, .cls-44, .cls-45 {
        fill-rule: evenodd;
      }

      .cls-2 {
        fill: url(#linear-gradient-12);
      }

      .cls-3 {
        fill: url(#linear-gradient-38);
      }

      .cls-4 {
        fill: url(#linear-gradient-21);
      }

      .cls-5 {
        fill: url(#linear-gradient-44);
      }

      .cls-6 {
        fill: url(#linear-gradient-35);
      }

      .cls-7 {
        fill: url(#linear-gradient-36);
      }

      .cls-8 {
        fill: url(#linear-gradient-2);
      }

      .cls-9 {
        fill: url(#linear-gradient);
      }

      .cls-10 {
        fill: url(#linear-gradient-15);
      }

      .cls-11 {
        fill: url(#linear-gradient-24);
      }

      .cls-12 {
        fill: url(#linear-gradient-9);
      }

      .cls-13 {
        fill: url(#linear-gradient-25);
      }

      .cls-14 {
        fill: url(#linear-gradient-34);
      }

      .cls-15 {
        fill: url(#linear-gradient-40);
      }

      .cls-16 {
        fill: url(#linear-gradient-6);
      }

      .cls-17 {
        fill: url(#linear-gradient-16);
      }

      .cls-18 {
        fill: url(#linear-gradient-29);
      }

      .cls-19 {
        fill: url(#linear-gradient-39);
      }

      .cls-20 {
        fill: url(#linear-gradient-26);
      }

      .cls-21 {
        fill: url(#linear-gradient-14);
      }

      .cls-22 {
        fill: url(#linear-gradient-37);
      }

      .cls-23 {
        fill: url(#linear-gradient-5);
      }

      .cls-24 {
        fill: url(#linear-gradient-23);
      }

      .cls-25 {
        fill: url(#linear-gradient-28);
      }

      .cls-26 {
        fill: url(#linear-gradient-27);
      }

      .cls-27 {
        fill: url(#linear-gradient-10);
      }

      .cls-28 {
        fill: url(#linear-gradient-18);
      }

      .cls-29 {
        fill: url(#linear-gradient-41);
      }

      .cls-30 {
        fill: url(#linear-gradient-32);
      }

      .cls-31 {
        fill: url(#linear-gradient-11);
      }

      .cls-32 {
        fill: url(#linear-gradient-30);
      }

      .cls-33 {
        fill: url(#linear-gradient-45);
      }

      .cls-34 {
        fill: url(#linear-gradient-19);
      }

      .cls-35 {
        fill: url(#linear-gradient-20);
      }

      .cls-36 {
        fill: url(#linear-gradient-31);
      }

      .cls-37 {
        fill: url(#linear-gradient-22);
      }

      .cls-38 {
        fill: url(#linear-gradient-13);
      }

      .cls-39 {
        fill: url(#linear-gradient-7);
      }

      .cls-40 {
        fill: url(#linear-gradient-8);
      }

      .cls-41 {
        fill: url(#linear-gradient-3);
      }

      .cls-42 {
        fill: url(#linear-gradient-43);
      }

      .cls-43 {
        fill: url(#linear-gradient-33);
      }

      .cls-44 {
        fill: url(#linear-gradient-17);
      }

      .cls-45 {
        fill: url(#linear-gradient-42);
      }
    </style>
    <linearGradient id="linear-gradient" x1="33.24" y1="10.61" x2="7.87" y2="42.52" gradientUnits="userSpaceOnUse">
      <stop offset="0" stop-color="#474443"/>
      <stop offset="1" stop-color="#171717"/>
    </linearGradient>
    <linearGradient id="linear-gradient-2" x1="29.01" y1="49.06" x2="31.36" y2="39.24" gradientUnits="userSpaceOnUse">
      <stop offset="0" stop-color="#47312a"/>
      <stop offset=".43" stop-color="#4a342d"/>
      <stop offset=".83" stop-color="#553f38"/>
      <stop offset="1" stop-color="#5c4740"/>
    </linearGradient>
    <linearGradient id="linear-gradient-3" x1="27.14" y1="52.42" x2="32.51" y2="36.57" xlink:href="#linear-gradient-2"/>
    <linearGradient id="linear-gradient-4" x1="12.24" y1="17.89" x2="10.03" y2="20.66" gradientUnits="userSpaceOnUse">
      <stop offset="0" stop-color="#bdafaa"/>
      <stop offset="1" stop-color="#706864"/>
    </linearGradient>
    <linearGradient id="linear-gradient-5" x1="5.28" y1="14.9" x2="4.35" y2="16.08" xlink:href="#linear-gradient-4"/>
    <linearGradient id="linear-gradient-6" x1="32.55" y1="8.74" x2="31.56" y2="9.97" xlink:href="#linear-gradient-4"/>
    <linearGradient id="linear-gradient-7" x1="33.59" y1="8.98" x2="32.58" y2="10.26" xlink:href="#linear-gradient-4"/>
    <linearGradient id="linear-gradient-8" x1="27.26" y1="6.33" x2="26.59" y2="7.17" xlink:href="#linear-gradient-4"/>
    <linearGradient id="linear-gradient-9" x1="28.83" y1="2.61" x2="25.83" y2="6.38" xlink:href="#linear-gradient-4"/>
    <linearGradient id="linear-gradient-10" x1="6.66" y1="11.48" x2="3.8" y2="15.08" xlink:href="#linear-gradient-4"/>
    <linearGradient id="linear-gradient-11" x1="33.39" y1="13.1" x2="32.36" y2="14.39" xlink:href="#linear-gradient-4"/>
    <linearGradient id="linear-gradient-12" x1="33.38" y1="5.77" x2="30.47" y2="9.43" xlink:href="#linear-gradient-4"/>
    <linearGradient id="linear-gradient-13" x1="21.66" y1="3.43" x2="20.47" y2="4.93" xlink:href="#linear-gradient-4"/>
    <linearGradient id="linear-gradient-14" x1="21.58" y1="5.45" x2="20.27" y2="7.1" xlink:href="#linear-gradient-4"/>
    <linearGradient id="linear-gradient-15" x1="11.87" y1="7.11" x2="10.66" y2="8.62" xlink:href="#linear-gradient-4"/>
    <linearGradient id="linear-gradient-16" x1="10.89" y1="8.7" x2="8.62" y2="11.55" xlink:href="#linear-gradient-4"/>
    <linearGradient id="linear-gradient-17" x1="11.82" y1="15.75" x2="8.95" y2="19.37" xlink:href="#linear-gradient-4"/>
    <linearGradient id="linear-gradient-18" x1="24.74" y1="17.1" x2="23.91" y2="18.15" xlink:href="#linear-gradient-4"/>
    <linearGradient id="linear-gradient-19" x1="23.86" y1="18.31" x2="21.69" y2="21.03" xlink:href="#linear-gradient-4"/>
    <linearGradient id="linear-gradient-20" x1="32.93" y1="14.88" x2="31.02" y2="17.29" xlink:href="#linear-gradient-4"/>
    <linearGradient id="linear-gradient-21" x1="29.53" y1="6.65" x2="26.88" y2="9.99" xlink:href="#linear-gradient-4"/>
    <linearGradient id="linear-gradient-22" x1="31.2" y1="4.15" x2="29.39" y2="6.41" xlink:href="#linear-gradient-4"/>
    <linearGradient id="linear-gradient-23" x1="25.89" y1=".35" x2="22.66" y2="4.42" xlink:href="#linear-gradient-4"/>
    <linearGradient id="linear-gradient-24" x1="17.01" y1="2.69" x2="12.77" y2="8.03" xlink:href="#linear-gradient-4"/>
    <linearGradient id="linear-gradient-25" x1="14.99" y1="4.86" x2="15.61" y2="11.27" xlink:href="#linear-gradient-4"/>
    <linearGradient id="linear-gradient-26" x1="6.04" y1="7.01" x2="2.5" y2="11.47" xlink:href="#linear-gradient-4"/>
    <linearGradient id="linear-gradient-27" x1="9.61" y1="13.6" x2="7.52" y2="16.23" xlink:href="#linear-gradient-4"/>
    <linearGradient id="linear-gradient-28" x1="37.67" y1="8.43" x2="33.81" y2="13.29" xlink:href="#linear-gradient-4"/>
    <linearGradient id="linear-gradient-29" x1="28.14" y1="13.34" x2="25.05" y2="17.23" xlink:href="#linear-gradient-4"/>
    <linearGradient id="linear-gradient-30" x1="18.44" y1="16.56" x2="14.63" y2="21.34" xlink:href="#linear-gradient-4"/>
    <linearGradient id="linear-gradient-31" x1="43.35" y1="30.65" x2="39.43" y2="35.58" xlink:href="#linear-gradient-4"/>
    <linearGradient id="linear-gradient-32" x1="7.37" y1="37.22" x2="4.82" y2="40.43" xlink:href="#linear-gradient-4"/>
    <linearGradient id="linear-gradient-33" x1="10.81" y1="40.26" x2="3.25" y2="49.76" xlink:href="#linear-gradient-4"/>
    <linearGradient id="linear-gradient-34" x1="6.53" y1="41.9" x2="1.08" y2="48.76" xlink:href="#linear-gradient-4"/>
    <linearGradient id="linear-gradient-35" x1="25.52" y1="9.02" x2="16.16" y2="20.8" xlink:href="#linear-gradient-4"/>
    <linearGradient id="linear-gradient-36" x1="8.67" y1="17.77" x2="6.08" y2="21.11" xlink:href="#linear-gradient-4"/>
    <linearGradient id="linear-gradient-37" x1="26.38" y1="16.08" x2="29.65" y2="23.92" xlink:href="#linear-gradient-4"/>
    <linearGradient id="linear-gradient-38" x1="-1.17" y1="29.94" x2="10.28" y2="36.69" xlink:href="#linear-gradient-4"/>
    <linearGradient id="linear-gradient-39" x1="7.87" y1="35.11" x2="8.69" y2="31.5" gradientUnits="userSpaceOnUse">
      <stop offset="0" stop-color="#7e989d"/>
      <stop offset="1" stop-color="#a3afb2"/>
    </linearGradient>
    <linearGradient id="linear-gradient-40" x1="5.77" y1="35.55" x2="8.94" y2="34.32" xlink:href="#linear-gradient-2"/>
    <linearGradient id="linear-gradient-41" x1="39.14" y1="18.19" x2="23.59" y2="44.98" xlink:href="#linear-gradient-4"/>
    <linearGradient id="linear-gradient-42" x1="34.52" y1="32.54" x2="36.31" y2="29.93" xlink:href="#linear-gradient-2"/>
    <linearGradient id="linear-gradient-43" x1="35.47" y1="31.14" x2="35.47" y2="26.91" xlink:href="#linear-gradient-39"/>
    <linearGradient id="linear-gradient-44" x1="18.48" y1="39.97" x2="23.64" y2="36.19" xlink:href="#linear-gradient-2"/>
    <linearGradient id="linear-gradient-45" x1="21.31" y1="38.56" x2="21.38" y2="33.45" xlink:href="#linear-gradient-39"/>
  </defs>
  <g id="Layer_2-2" data-name="Layer 2">
    <g id="layer1">
      <path id="path2313" class="cls-9" d="M11.76,34.88s-.51-.23-1.18-.55l.3-3.01c-.44-1.18-1.18-2.26-2.02-3.21-.12-.02-.25-.02-.36-.01-.8,.05-1.38,.64-2.09,.92l.08,3.36-1.21-.77-.16,2.01,6.67,3.76-.03-2.5Zm-4.91-5.55c.53-.26,1.07-1.01,1.61-1.02,.07,0,.14,.01,.22,.04,1.06,.81,1.17,2.11,1.74,3.01l-.04,2.97-3.68-1.94,.15-3.06Zm-1.49,4.28c-.08-.3,.12-1.61,.12-1.66,1.85,1.03,4.08,2.36,6.1,2.97l.04,2.08-6.26-3.39Zm18.26,1.88l-.35-4.53-2.37-.83-1.46,2.36-.13,5.39-.56,.32v1.88l5.7-2.96v-2.07l-.83,.44Zm-2.54-4.83l2.04,.51,.07,4.56-3.42,1.88-.22-5.06,1.53-1.89Zm3.23,6.35l-5.35,2.85v-1.55l5.39-3.01-.04,1.71Zm13.28-8.32l-.35-4.48-2.37-.82-1.47,2.35-.07,5.28-.61,.37v1.89l5.69-2.96v-2.08l-.82,.45Zm-2.54-4.77l2.03,.5,.31,4.41-3.61,1.87-.23-4.9,1.5-1.88Zm-2.12,9.05l.08-1.46,5.2-2.82,.15,1.48-5.43,2.8Zm4.66-4.28l-.35-4.48-2.37-.82-1.47,2.35-.07,5.28-.61,.37v1.89l5.69-2.96v-2.08l-.82,.45Zm-2.54-4.77l2.03,.5,.31,4.41-3.61,1.87-.23-4.9,1.5-1.88Zm-2.12,9.05l.08-1.46,5.2-2.82,.15,1.48-5.43,2.8Zm-9.31,2.52l-.35-4.53-2.37-.83-1.46,2.36-.13,5.39-.56,.32v1.88l5.7-2.96v-2.07l-.83,.44Zm-2.54-4.83l2.04,.51,.07,4.56-3.42,1.88-.22-5.06,1.53-1.89Zm3.23,6.35l-5.35,2.85v-1.55l5.39-3.01-.04,1.71Zm-12.55-2.13s-.51-.23-1.18-.55l.3-3.01c-.44-1.18-1.18-2.26-2.02-3.21-.12-.02-.25-.02-.36-.01-.8,.05-1.38,.64-2.09,.92l.08,3.36-1.21-.77-.16,2.01,6.67,3.76-.03-2.5Zm-4.91-5.55c.53-.26,1.07-1.01,1.61-1.02,.07,0,.14,.01,.22,.04,1.06,.81,1.17,2.11,1.74,3.01l-.04,2.97-3.68-1.94,.15-3.06Zm-1.49,4.28c-.08-.3,.12-1.61,.12-1.66,1.85,1.03,4.08,2.36,6.1,2.97l.04,2.08-6.26-3.39Zm6.4,1.27s-.51-.23-1.18-.55l.3-3.01c-.44-1.18-1.18-2.26-2.02-3.21-.12-.02-.25-.02-.36-.01-.8,.05-1.38,.64-2.09,.92l.08,3.36-1.21-.77-.16,2.01,6.67,3.76-.03-2.5Zm-4.91-5.55c.53-.26,1.07-1.01,1.61-1.02,.07,0,.14,.01,.22,.04,1.06,.81,1.17,2.11,1.74,3.01l-.04,2.97-3.68-1.94,.15-3.06Zm-1.49,4.28c-.08-.3,.12-1.61,.12-1.66,1.85,1.03,4.08,2.36,6.1,2.97l.04,2.08-6.26-3.39Zm18.26,1.88l-.35-4.53-2.37-.83-1.46,2.36-.13,5.39-.56,.32v1.88l5.7-2.96v-2.07l-.83,.44Zm-2.54-4.83l2.04,.51,.07,4.56-3.42,1.88-.22-5.06,1.53-1.89Zm3.23,6.35l-5.35,2.85v-1.55l5.39-3.01-.04,1.71Zm13.28-8.32l-.35-4.48-2.37-.82-1.47,2.35-.07,5.28-.61,.37v1.89l5.69-2.96v-2.08l-.82,.45Zm-2.54-4.77l2.03,.5,.31,4.41-3.61,1.87-.23-4.9,1.5-1.88Zm-2.12,9.05l.08-1.46,5.2-2.82,.15,1.48-5.43,2.8Zm4.66-4.28l-.35-4.48-2.37-.82-1.47,2.35-.07,5.28-.61,.37v1.89l5.69-2.96v-2.08l-.82,.45Zm-2.54-4.77l2.03,.5,.31,4.41-3.61,1.87-.23-4.9,1.5-1.88Zm-2.12,9.05l.08-1.46,5.2-2.82,.15,1.48-5.43,2.8Zm-9.31,2.52l-.35-4.53-2.37-.83-1.46,2.36-.13,5.39-.56,.32v1.88l5.7-2.96v-2.07l-.83,.44Zm-2.54-4.83l2.04,.51,.07,4.56-3.42,1.88-.22-5.06,1.53-1.89Zm3.23,6.35l-5.35,2.85v-1.55l5.39-3.01-.04,1.71Zm-12.55-2.13s-.51-.23-1.18-.55l.3-3.01c-.44-1.18-1.18-2.26-2.02-3.21-.12-.02-.25-.02-.36-.01-.8,.05-1.38,.64-2.09,.92l.08,3.36-1.21-.77-.16,2.01,6.67,3.76-.03-2.5Zm-4.91-5.55c.53-.26,1.07-1.01,1.61-1.02,.07,0,.14,.01,.22,.04,1.06,.81,1.17,2.11,1.74,3.01l-.04,2.97-3.68-1.94,.15-3.06Zm-1.49,4.28c-.08-.3,.12-1.61,.12-1.66,1.85,1.03,4.08,2.36,6.1,2.97l.04,2.08-6.26-3.39Zm6.4,1.27s-.51-.23-1.18-.55l.3-3.01c-.44-1.18-1.18-2.26-2.02-3.21-.12-.02-.25-.02-.36-.01-.8,.05-1.38,.64-2.09,.92l.08,3.36-1.21-.77-.16,2.01,6.67,3.76-.03-2.5Zm-4.91-5.55c.53-.26,1.07-1.01,1.61-1.02,.07,0,.14,.01,.22,.04,1.06,.81,1.17,2.11,1.74,3.01l-.04,2.97-3.68-1.94,.15-3.06Zm-1.49,4.28c-.08-.3,.12-1.61,.12-1.66,1.85,1.03,4.08,2.36,6.1,2.97l.04,2.08-6.26-3.39Zm18.26,1.88l-.35-4.53-2.37-.83-1.46,2.36-.13,5.39-.56,.32v1.88l5.7-2.96v-2.07l-.83,.44Zm-2.54-4.83l2.04,.51,.07,4.56-3.42,1.88-.22-5.06,1.53-1.89Zm3.23,6.35l-5.35,2.85v-1.55l5.39-3.01-.04,1.71Zm13.28-8.32l-.35-4.48-2.37-.82-1.47,2.35-.07,5.28-.61,.37v1.89l5.69-2.96v-2.08l-.82,.45Zm-2.54-4.77l2.03,.5,.31,4.41-3.61,1.87-.23-4.9,1.5-1.88Zm-2.12,9.05l.08-1.46,5.2-2.82,.15,1.48-5.43,2.8Zm4.66-4.28l-.35-4.48-2.37-.82-1.47,2.35-.07,5.28-.61,.37v1.89l5.69-2.96v-2.08l-.82,.45Zm-2.54-4.77l2.03,.5,.31,4.41-3.61,1.87-.23-4.9,1.5-1.88Zm-2.12,9.05l.08-1.46,5.2-2.82,.15,1.48-5.43,2.8Zm-9.31,2.52l-.35-4.53-2.37-.83-1.46,2.36-.13,5.39-.56,.32v1.88l5.7-2.96v-2.07l-.83,.44Zm-2.54-4.83l2.04,.51,.07,4.56-3.42,1.88-.22-5.06,1.53-1.89Zm3.23,6.35l-5.35,2.85v-1.55l5.39-3.01-.04,1.71Zm-12.55-2.13s-.51-.23-1.18-.55l.3-3.01c-.44-1.18-1.18-2.26-2.02-3.21-.12-.02-.25-.02-.36-.01-.8,.05-1.38,.64-2.09,.92l.08,3.36-1.21-.77-.16,2.01,6.67,3.76-.03-2.5Zm-4.91-5.55c.53-.26,1.07-1.01,1.61-1.02,.07,0,.14,.01,.22,.04,1.06,.81,1.17,2.11,1.74,3.01l-.04,2.97-3.68-1.94,.15-3.06Zm-1.49,4.28c-.08-.3,.12-1.61,.12-1.66,1.85,1.03,4.08,2.36,6.1,2.97l.04,2.08-6.26-3.39Zm6.4,1.27s-.51-.23-1.18-.55l.3-3.01c-.44-1.18-1.18-2.26-2.02-3.21-.12-.02-.25-.02-.36-.01-.8,.05-1.38,.64-2.09,.92l.08,3.36-1.21-.77-.16,2.01,6.67,3.76-.03-2.5Zm-4.91-5.55c.53-.26,1.07-1.01,1.61-1.02,.07,0,.14,.01,.22,.04,1.06,.81,1.17,2.11,1.74,3.01l-.04,2.97-3.68-1.94,.15-3.06Zm-1.49,4.28c-.08-.3,.12-1.61,.12-1.66,1.85,1.03,4.08,2.36,6.1,2.97l.04,2.08-6.26-3.39Zm18.26,1.88l-.35-4.53-2.37-.83-1.46,2.36-.13,5.39-.56,.32v1.88l5.7-2.96v-2.07l-.83,.44Zm-2.54-4.83l2.04,.51,.07,4.56-3.42,1.88-.22-5.06,1.53-1.89Zm3.23,6.35l-5.35,2.85v-1.55l5.39-3.01-.04,1.71Zm13.28-8.32l-.35-4.48-2.37-.82-1.47,2.35-.07,5.28-.61,.37v1.89l5.69-2.96v-2.08l-.82,.45Zm-2.54-4.77l2.03,.5,.31,4.41-3.61,1.87-.23-4.9,1.5-1.88Zm-2.12,9.05l.08-1.46,5.2-2.82,.15,1.48-5.43,2.8Zm4.66-4.28l-.35-4.48-2.37-.82-1.47,2.35-.07,5.28-.61,.37v1.89l5.69-2.96v-2.08l-.82,.45Zm-2.54-4.77l2.03,.5,.31,4.41-3.61,1.87-.23-4.9,1.5-1.88Zm-2.12,9.05l.08-1.46,5.2-2.82,.15,1.48-5.43,2.8Zm-9.31,2.52l-.35-4.53-2.37-.83-1.46,2.36-.13,5.39-.56,.32v1.88l5.7-2.96v-2.07l-.83,.44Zm-2.54-4.83l2.04,.51,.07,4.56-3.42,1.88-.22-5.06,1.53-1.89Zm3.23,6.35l-5.35,2.85v-1.55l5.39-3.01-.04,1.71Zm-12.55-2.13s-.51-.23-1.18-.55l.3-3.01c-.44-1.18-1.18-2.26-2.02-3.21-.12-.02-.25-.02-.36-.01-.8,.05-1.38,.64-2.09,.92l.08,3.36-1.21-.77-.16,2.01,6.67,3.76-.03-2.5Zm-4.91-5.55c.53-.26,1.07-1.01,1.61-1.02,.07,0,.14,.01,.22,.04,1.06,.81,1.17,2.11,1.74,3.01l-.04,2.97-3.68-1.94,.15-3.06Zm-1.49,4.28c-.08-.3,.12-1.61,.12-1.66,1.85,1.03,4.08,2.36,6.1,2.97l.04,2.08-6.26-3.39Zm6.4,1.27s-.51-.23-1.18-.55l.3-3.01c-.44-1.18-1.18-2.26-2.02-3.21-.12-.02-.25-.02-.36-.01-.8,.05-1.38,.64-2.09,.92l.08,3.36-1.21-.77-.16,2.01,6.67,3.76-.03-2.5Zm-4.91-5.55c.53-.26,1.07-1.01,1.61-1.02,.07,0,.14,.01,.22,.04,1.06,.81,1.17,2.11,1.74,3.01l-.04,2.97-3.68-1.94,.15-3.06Zm-1.49,4.28c-.08-.3,.12-1.61,.12-1.66,1.85,1.03,4.08,2.36,6.1,2.97l.04,2.08-6.26-3.39Zm18.26,1.88l-.35-4.53-2.37-.83-1.46,2.36-.13,5.39-.56,.32v1.88l5.7-2.96v-2.07l-.83,.44Zm-2.54-4.83l2.04,.51,.07,4.56-3.42,1.88-.22-5.06,1.53-1.89Zm3.23,6.35l-5.35,2.85v-1.55l5.39-3.01-.04,1.71Zm13.28-8.32l-.35-4.48-2.37-.82-1.47,2.35-.07,5.28-.61,.37v1.89l5.69-2.96v-2.08l-.82,.45Zm-2.54-4.77l2.03,.5,.31,4.41-3.61,1.87-.23-4.9,1.5-1.88Zm-2.12,9.05l.08-1.46,5.2-2.82,.15,1.48-5.43,2.8Zm4.66-4.28l-.35-4.48-2.37-.82-1.47,2.35-.07,5.28-.61,.37v1.89l5.69-2.96v-2.08l-.82,.45Zm-2.54-4.77l2.03,.5,.31,4.41-3.61,1.87-.23-4.9,1.5-1.88Zm-2.12,9.05l.08-1.46,5.2-2.82,.15,1.48-5.43,2.8Zm-9.31,2.52l-.35-4.53-2.37-.83-1.46,2.36-.13,5.39-.56,.32v1.88l5.7-2.96v-2.07l-.83,.44Zm-2.54-4.83l2.04,.51,.07,4.56-3.42,1.88-.22-5.06,1.53-1.89Zm3.23,6.35l-5.35,2.85v-1.55l5.39-3.01-.04,1.71Zm-12.55-2.13s-.51-.23-1.18-.55l.3-3.01c-.44-1.18-1.18-2.26-2.02-3.21-.12-.02-.25-.02-.36-.01-.8,.05-1.38,.64-2.09,.92l.08,3.36-1.21-.77-.16,2.01,6.67,3.76-.03-2.5Zm-4.91-5.55c.53-.26,1.07-1.01,1.61-1.02,.07,0,.14,.01,.22,.04,1.06,.81,1.17,2.11,1.74,3.01l-.04,2.97-3.68-1.94,.15-3.06Zm-1.49,4.28c-.08-.3,.12-1.61,.12-1.66,1.85,1.03,4.08,2.36,6.1,2.97l.04,2.08-6.26-3.39Zm6.4,1.27s-.51-.23-1.18-.55l.3-3.01c-.44-1.18-1.18-2.26-2.02-3.21-.12-.02-.25-.02-.36-.01-.8,.05-1.38,.64-2.09,.92l.08,3.36-1.21-.77-.16,2.01,6.67,3.76-.03-2.5Zm-4.91-5.55c.53-.26,1.07-1.01,1.61-1.02,.07,0,.14,.01,.22,.04,1.06,.81,1.17,2.11,1.74,3.01l-.04,2.97-3.68-1.94,.15-3.06Zm-1.49,4.28c-.08-.3,.12-1.61,.12-1.66,1.85,1.03,4.08,2.36,6.1,2.97l.04,2.08-6.26-3.39Zm18.26,1.88l-.35-4.53-2.37-.83-1.46,2.36-.13,5.39-.56,.32v1.88l5.7-2.96v-2.07l-.83,.44Zm-2.54-4.83l2.04,.51,.07,4.56-3.42,1.88-.22-5.06,1.53-1.89Zm3.23,6.35l-5.35,2.85v-1.55l5.39-3.01-.04,1.71Zm13.28-8.32l-.35-4.48-2.37-.82-1.47,2.35-.07,5.28-.61,.37v1.89l5.69-2.96v-2.08l-.82,.45Zm-2.54-4.77l2.03,.5,.31,4.41-3.61,1.87-.23-4.9,1.5-1.88Zm-2.12,9.05l.08-1.46,5.2-2.82,.15,1.48-5.43,2.8Zm4.66-4.28l-.35-4.48-2.37-.82-1.47,2.35-.07,5.28-.61,.37v1.89l5.69-2.96v-2.08l-.82,.45Zm-2.54-4.77l2.03,.5,.31,4.41-3.61,1.87-.23-4.9,1.5-1.88Zm-2.12,9.05l.08-1.46,5.2-2.82,.15,1.48-5.43,2.8Zm-9.31,2.52l-.35-4.53-2.37-.83-1.46,2.36-.13,5.39-.56,.32v1.88l5.7-2.96v-2.07l-.83,.44Zm-2.54-4.83l2.04,.51,.07,4.56-3.42,1.88-.22-5.06,1.53-1.89Zm3.23,6.35l-5.35,2.85v-1.55l5.39-3.01-.04,1.71Zm-12.55-2.13s-.51-.23-1.18-.55l.3-3.01c-.44-1.18-1.18-2.26-2.02-3.21-.12-.02-.25-.02-.36-.01-.8,.05-1.38,.64-2.09,.92l.08,3.36-1.21-.77-.16,2.01,6.67,3.76-.03-2.5Zm-4.91-5.55c.53-.26,1.07-1.01,1.61-1.02,.07,0,.14,.01,.22,.04,1.06,.81,1.17,2.11,1.74,3.01l-.04,2.97-3.68-1.94,.15-3.06Zm-1.49,4.28c-.08-.3,.12-1.61,.12-1.66,1.85,1.03,4.08,2.36,6.1,2.97l.04,2.08-6.26-3.39Zm6.4,1.27s-.51-.23-1.18-.55l.3-3.01c-.44-1.18-1.18-2.26-2.02-3.21-.12-.02-.25-.02-.36-.01-.8,.05-1.38,.64-2.09,.92l.08,3.36-1.21-.77-.16,2.01,6.67,3.76-.03-2.5Zm-4.91-5.55c.53-.26,1.07-1.01,1.61-1.02,.07,0,.14,.01,.22,.04,1.06,.81,1.17,2.11,1.74,3.01l-.04,2.97-3.68-1.94,.15-3.06Zm-1.49,4.28c-.08-.3,.12-1.61,.12-1.66,1.85,1.03,4.08,2.36,6.1,2.97l.04,2.08-6.26-3.39Zm18.26,1.88l-.35-4.53-2.37-.83-1.46,2.36-.13,5.39-.56,.32v1.88l5.7-2.96v-2.07l-.83,.44Zm-2.54-4.83l2.04,.51,.07,4.56-3.42,1.88-.22-5.06,1.53-1.89Zm3.23,6.35l-5.35,2.85v-1.55l5.39-3.01-.04,1.71Zm13.28-8.32l-.35-4.48-2.37-.82-1.47,2.35-.07,5.28-.61,.37v1.89l5.69-2.96v-2.08l-.82,.45Zm-2.54-4.77l2.03,.5,.31,4.41-3.61,1.87-.23-4.9,1.5-1.88Zm-2.12,9.05l.08-1.46,5.2-2.82,.15,1.48-5.43,2.8Zm4.66-4.28l-.35-4.48-2.37-.82-1.47,2.35-.07,5.28-.61,.37v1.89l5.69-2.96v-2.08l-.82,.45Zm-2.54-4.77l2.03,.5,.31,4.41-3.61,1.87-.23-4.9,1.5-1.88Zm-2.12,9.05l.08-1.46,5.2-2.82,.15,1.48-5.43,2.8Zm-9.31,2.52l-.35-4.53-2.37-.83-1.46,2.36-.13,5.39-.56,.32v1.88l5.7-2.96v-2.07l-.83,.44Zm-2.54-4.83l2.04,.51,.07,4.56-3.42,1.88-.22-5.06,1.53-1.89Zm3.23,6.35l-5.35,2.85v-1.55l5.39-3.01-.04,1.71Zm-12.55-2.13s-.51-.23-1.18-.55l.3-3.01c-.44-1.18-1.18-2.26-2.02-3.21-.12-.02-.25-.02-.36-.01-.8,.05-1.38,.64-2.09,.92l.08,3.36-1.21-.77-.16,2.01,6.67,3.76-.03-2.5Zm-4.91-5.55c.53-.26,1.07-1.01,1.61-1.02,.07,0,.14,.01,.22,.04,1.06,.81,1.17,2.11,1.74,3.01l-.04,2.97-3.68-1.94,.15-3.06Zm-1.49,4.28c-.08-.3,.12-1.61,.12-1.66,1.85,1.03,4.08,2.36,6.1,2.97l.04,2.08-6.26-3.39Zm6.4,1.27s-.51-.23-1.18-.55l.3-3.01c-.44-1.18-1.18-2.26-2.02-3.21-.12-.02-.25-.02-.36-.01-.8,.05-1.38,.64-2.09,.92l.08,3.36-1.21-.77-.16,2.01,6.67,3.76-.03-2.5Zm-4.91-5.55c.53-.26,1.07-1.01,1.61-1.02,.07,0,.14,.01,.22,.04,1.06,.81,1.17,2.11,1.74,3.01l-.04,2.97-3.68-1.94,.15-3.06Zm-1.49,4.28c-.08-.3,.12-1.61,.12-1.66,1.85,1.03,4.08,2.36,6.1,2.97l.04,2.08-6.26-3.39Zm18.26,1.88l-.35-4.53-2.37-.83-1.46,2.36-.13,5.39-.56,.32v1.88l5.7-2.96v-2.07l-.83,.44Zm-2.54-4.83l2.04,.51,.07,4.56-3.42,1.88-.22-5.06,1.53-1.89Zm3.23,6.35l-5.35,2.85v-1.55l5.39-3.01-.04,1.71Zm13.28-8.32l-.35-4.48-2.37-.82-1.47,2.35-.07,5.28-.61,.37v1.89l5.69-2.96v-2.08l-.82,.45Zm-2.54-4.77l2.03,.5,.31,4.41-3.61,1.87-.23-4.9,1.5-1.88Zm-2.12,9.05l.08-1.46,5.2-2.82,.15,1.48-5.43,2.8Zm4.66-4.28l-.35-4.48-2.37-.82-1.47,2.35-.07,5.28-.61,.37v1.89l5.69-2.96v-2.08l-.82,.45Zm-2.54-4.77l2.03,.5,.31,4.41-3.61,1.87-.23-4.9,1.5-1.88Zm-2.12,9.05l.08-1.46,5.2-2.82,.15,1.48-5.43,2.8Zm-9.31,2.52l-.35-4.53-2.37-.83-1.46,2.36-.13,5.39-.56,.32v1.88l5.7-2.96v-2.07l-.83,.44Zm-2.54-4.83l2.04,.51,.07,4.56-3.42,1.88-.22-5.06,1.53-1.89Zm3.23,6.35l-5.35,2.85v-1.55l5.39-3.01-.04,1.71Zm-12.55-2.13s-.51-.23-1.18-.55l.3-3.01c-.44-1.18-1.18-2.26-2.02-3.21-.12-.02-.25-.02-.36-.01-.8,.05-1.38,.64-2.09,.92l.08,3.36-1.21-.77-.16,2.01,6.67,3.76-.03-2.5Zm-4.91-5.55c.53-.26,1.07-1.01,1.61-1.02,.07,0,.14,.01,.22,.04,1.06,.81,1.17,2.11,1.74,3.01l-.04,2.97-3.68-1.94,.15-3.06Zm-1.49,4.28c-.08-.3,.12-1.61,.12-1.66,1.85,1.03,4.08,2.36,6.1,2.97l.04,2.08-6.26-3.39Zm6.4,1.27s-.51-.23-1.18-.55l.3-3.01c-.44-1.18-1.18-2.26-2.02-3.21-.12-.02-.25-.02-.36-.01-.8,.05-1.38,.64-2.09,.92l.08,3.36-1.21-.77-.16,2.01,6.67,3.76-.03-2.5Zm-4.91-5.55c.53-.26,1.07-1.01,1.61-1.02,.07,0,.14,.01,.22,.04,1.06,.81,1.17,2.11,1.74,3.01l-.04,2.97-3.68-1.94,.15-3.06Zm-1.49,4.28c-.08-.3,.12-1.61,.12-1.66,1.85,1.03,4.08,2.36,6.1,2.97l.04,2.08-6.26-3.39Zm18.26,1.88l-.35-4.53-2.37-.83-1.46,2.36-.13,5.39-.56,.32v1.88l5.7-2.96v-2.07l-.83,.44Zm-2.54-4.83l2.04,.51,.07,4.56-3.42,1.88-.22-5.06,1.53-1.89Zm3.23,6.35l-5.35,2.85v-1.55l5.39-3.01-.04,1.71Zm13.28-8.32l-.35-4.48-2.37-.82-1.47,2.35-.07,5.28-.61,.37v1.89l5.69-2.96v-2.08l-.82,.45Zm-2.54-4.77l2.03,.5,.31,4.41-3.61,1.87-.23-4.9,1.5-1.88Zm-2.12,9.05l.08-1.46,5.2-2.82,.15,1.48-5.43,2.8Zm4.66-4.28l-.35-4.48-2.37-.82-1.47,2.35-.07,5.28-.61,.37v1.89l5.69-2.96v-2.08l-.82,.45Zm-2.54-4.77l2.03,.5,.31,4.41-3.61,1.87-.23-4.9,1.5-1.88Zm-2.12,9.05l.08-1.46,5.2-2.82,.15,1.48-5.43,2.8Zm-9.31,2.52l-.35-4.53-2.37-.83-1.46,2.36-.13,5.39-.56,.32v1.88l5.7-2.96v-2.07l-.83,.44Zm-2.54-4.83l2.04,.51,.07,4.56-3.42,1.88-.22-5.06,1.53-1.89Zm3.23,6.35l-5.35,2.85v-1.55l5.39-3.01-.04,1.71Zm-12.55-2.13s-.51-.23-1.18-.55l.3-3.01c-.44-1.18-1.18-2.26-2.02-3.21-.12-.02-.25-.02-.36-.01-.8,.05-1.38,.64-2.09,.92l.08,3.36-1.21-.77-.16,2.01,6.67,3.76-.03-2.5Zm-4.91-5.55c.53-.26,1.07-1.01,1.61-1.02,.07,0,.14,.01,.22,.04,1.06,.81,1.17,2.11,1.74,3.01l-.04,2.97-3.68-1.94,.15-3.06Zm-1.49,4.28c-.08-.3,.12-1.61,.12-1.66,1.85,1.03,4.08,2.36,6.1,2.97l.04,2.08-6.26-3.39Zm6.4,1.27s-.51-.23-1.18-.55l.3-3.01c-.44-1.18-1.18-2.26-2.02-3.21-.12-.02-.25-.02-.36-.01-.8,.05-1.38,.64-2.09,.92l.08,3.36-1.21-.77-.16,2.01,6.67,3.76-.03-2.5Zm-4.91-5.55c.53-.26,1.07-1.01,1.61-1.02,.07,0,.14,.01,.22,.04,1.06,.81,1.17,2.11,1.74,3.01l-.04,2.97-3.68-1.94,.15-3.06Zm-1.49,4.28c-.08-.3,.12-1.61,.12-1.66,1.85,1.03,4.08,2.36,6.1,2.97l.04,2.08-6.26-3.39Zm18.26,1.88l-.35-4.53-2.37-.83-1.46,2.36-.13,5.39-.56,.32v1.88l5.7-2.96v-2.07l-.83,.44Zm-2.54-4.83l2.04,.51,.07,4.56-3.42,1.88-.22-5.06,1.53-1.89Zm3.23,6.35l-5.35,2.85v-1.55l5.39-3.01-.04,1.71Zm13.28-8.32l-.35-4.48-2.37-.82-1.47,2.35-.07,5.28-.61,.37v1.89l5.69-2.96v-2.08l-.82,.45Zm-2.54-4.77l2.03,.5,.31,4.41-3.61,1.87-.23-4.9,1.5-1.88Zm-2.12,9.05l.08-1.46,5.2-2.82,.15,1.48-5.43,2.8Zm4.66-4.28l-.35-4.48-2.37-.82-1.47,2.35-.07,5.28-.61,.37v1.89l5.69-2.96v-2.08l-.82,.45Zm-2.54-4.77l2.03,.5,.31,4.41-3.61,1.87-.23-4.9,1.5-1.88Zm-2.12,9.05l.08-1.46,5.2-2.82,.15,1.48-5.43,2.8Zm-9.31,2.52l-.35-4.53-2.37-.83-1.46,2.36-.13,5.39-.56,.32v1.88l5.7-2.96v-2.07l-.83,.44Zm-2.54-4.83l2.04,.51,.07,4.56-3.42,1.88-.22-5.06,1.53-1.89Zm3.23,6.35l-5.35,2.85v-1.55l5.39-3.01-.04,1.71Zm-12.55-2.13s-.51-.23-1.18-.55l.3-3.01c-.44-1.18-1.18-2.26-2.02-3.21-.12-.02-.25-.02-.36-.01-.8,.05-1.38,.64-2.09,.92l.08,3.36-1.21-.77-.16,2.01,6.67,3.76-.03-2.5Zm-4.91-5.55c.53-.26,1.07-1.01,1.61-1.02,.07,0,.14,.01,.22,.04,1.06,.81,1.17,2.11,1.74,3.01l-.04,2.97-3.68-1.94,.15-3.06Zm-1.49,4.28c-.08-.3,.12-1.61,.12-1.66,1.85,1.03,4.08,2.36,6.1,2.97l.04,2.08-6.26-3.39Zm6.4,1.27s-.51-.23-1.18-.55l.3-3.01c-.44-1.18-1.18-2.26-2.02-3.21-.12-.02-.25-.02-.36-.01-.8,.05-1.38,.64-2.09,.92l.08,3.36-1.21-.77-.16,2.01,6.67,3.76-.03-2.5Zm-4.91-5.55c.53-.26,1.07-1.01,1.61-1.02,.07,0,.14,.01,.22,.04,1.06,.81,1.17,2.11,1.74,3.01l-.04,2.97-3.68-1.94,.15-3.06Zm-1.49,4.28c-.08-.3,.12-1.61,.12-1.66,1.85,1.03,4.08,2.36,6.1,2.97l.04,2.08-6.26-3.39Zm18.26,1.88l-.35-4.53-2.37-.83-1.46,2.36-.13,5.39-.56,.32v1.88l5.7-2.96v-2.07l-.83,.44Zm-2.54-4.83l2.04,.51,.07,4.56-3.42,1.88-.22-5.06,1.53-1.89Zm3.23,6.35l-5.35,2.85v-1.55l5.39-3.01-.04,1.71Zm13.28-8.32l-.35-4.48-2.37-.82-1.47,2.35-.07,5.28-.61,.37v1.89l5.69-2.96v-2.08l-.82,.45Zm-2.54-4.77l2.03,.5,.31,4.41-3.61,1.87-.23-4.9,1.5-1.88Zm-2.12,9.05l.08-1.46,5.2-2.82,.15,1.48-5.43,2.8Zm4.66-4.28l-.35-4.48-2.37-.82-1.47,2.35-.07,5.28-.61,.37v1.89l5.69-2.96v-2.08l-.82,.45Zm-2.54-4.77l2.03,.5,.31,4.41-3.61,1.87-.23-4.9,1.5-1.88Zm-2.12,9.05l.08-1.46,5.2-2.82,.15,1.48-5.43,2.8Zm-9.31,2.52l-.35-4.53-2.37-.83-1.46,2.36-.13,5.39-.56,.32v1.88l5.7-2.96v-2.07l-.83,.44Zm-2.54-4.83l2.04,.51,.07,4.56-3.42,1.88-.22-5.06,1.53-1.89Zm3.23,6.35l-5.35,2.85v-1.55l5.39-3.01-.04,1.71Zm-12.55-2.13s-.51-.23-1.18-.55l.3-3.01c-.44-1.18-1.18-2.26-2.02-3.21-.12-.02-.25-.02-.36-.01-.8,.05-1.38,.64-2.09,.92l.08,3.36-1.21-.77-.16,2.01,6.67,3.76-.03-2.5Zm-4.91-5.55c.53-.26,1.07-1.01,1.61-1.02,.07,0,.14,.01,.22,.04,1.06,.81,1.17,2.11,1.74,3.01l-.04,2.97-3.68-1.94,.15-3.06Zm-1.49,4.28c-.08-.3,.12-1.61,.12-1.66,1.85,1.03,4.08,2.36,6.1,2.97l.04,2.08-6.26-3.39Zm6.4,1.27s-.51-.23-1.18-.55l.3-3.01c-.44-1.18-1.18-2.26-2.02-3.21-.12-.02-.25-.02-.36-.01-.8,.05-1.38,.64-2.09,.92l.08,3.36-1.21-.77-.16,2.01,6.67,3.76-.03-2.5Zm-4.91-5.55c.53-.26,1.07-1.01,1.61-1.02,.07,0,.14,.01,.22,.04,1.06,.81,1.17,2.11,1.74,3.01l-.04,2.97-3.68-1.94,.15-3.06Zm-1.49,4.28c-.08-.3,.12-1.61,.12-1.66,1.85,1.03,4.08,2.36,6.1,2.97l.04,2.08-6.26-3.39Zm18.26,1.88l-.35-4.53-2.37-.83-1.46,2.36-.13,5.39-.56,.32v1.88l5.7-2.96v-2.07l-.83,.44Zm-2.54-4.83l2.04,.51,.07,4.56-3.42,1.88-.22-5.06,1.53-1.89Zm3.23,6.35l-5.35,2.85v-1.55l5.39-3.01-.04,1.71Zm13.28-8.32l-.35-4.48-2.37-.82-1.47,2.35-.07,5.28-.61,.37v1.89l5.69-2.96v-2.08l-.82,.45Zm-2.54-4.77l2.03,.5,.31,4.41-3.61,1.87-.23-4.9,1.5-1.88Zm-2.12,9.05l.08-1.46,5.2-2.82,.15,1.48-5.43,2.8Zm4.66-4.28l-.35-4.48-2.37-.82-1.47,2.35-.07,5.28-.61,.37v1.89l5.69-2.96v-2.08l-.82,.45Zm-2.54-4.77l2.03,.5,.31,4.41-3.61,1.87-.23-4.9,1.5-1.88Zm-2.12,9.05l.08-1.46,5.2-2.82,.15,1.48-5.43,2.8Zm-9.31,2.52l-.35-4.53-2.37-.83-1.46,2.36-.13,5.39-.56,.32v1.88l5.7-2.96v-2.07l-.83,.44Zm-2.54-4.83l2.04,.51,.07,4.56-3.42,1.88-.22-5.06,1.53-1.89Zm3.23,6.35l-5.35,2.85v-1.55l5.39-3.01-.04,1.71Zm-12.55-2.13s-.51-.23-1.18-.55l.3-3.01c-.44-1.18-1.18-2.26-2.02-3.21-.12-.02-.25-.02-.36-.01-.8,.05-1.38,.64-2.09,.92l.08,3.36-1.21-.77-.16,2.01,6.67,3.76-.03-2.5Zm-4.91-5.55c.53-.26,1.07-1.01,1.61-1.02,.07,0,.14,.01,.22,.04,1.06,.81,1.17,2.11,1.74,3.01l-.04,2.97-3.68-1.94,.15-3.06Zm-1.49,4.28c-.08-.3,.12-1.61,.12-1.66,1.85,1.03,4.08,2.36,6.1,2.97l.04,2.08-6.26-3.39Zm6.4,1.27s-.51-.23-1.18-.55l.3-3.01c-.44-1.18-1.18-2.26-2.02-3.21-.12-.02-.25-.02-.36-.01-.8,.05-1.38,.64-2.09,.92l.08,3.36-1.21-.77-.16,2.01,6.67,3.76-.03-2.5Zm-4.91-5.55c.53-.26,1.07-1.01,1.61-1.02,.07,0,.14,.01,.22,.04,1.06,.81,1.17,2.11,1.74,3.01l-.04,2.97-3.68-1.94,.15-3.06Zm-1.49,4.28c-.08-.3,.12-1.61,.12-1.66,1.85,1.03,4.08,2.36,6.1,2.97l.04,2.08-6.26-3.39Zm18.26,1.88l-.35-4.53-2.37-.83-1.46,2.36-.13,5.39-.56,.32v1.88l5.7-2.96v-2.07l-.83,.44Zm-2.54-4.83l2.04,.51,.07,4.56-3.42,1.88-.22-5.06,1.53-1.89Zm3.23,6.35l-5.35,2.85v-1.55l5.39-3.01-.04,1.71Zm13.28-8.32l-.35-4.48-2.37-.82-1.47,2.35-.07,5.28-.61,.37v1.89l5.69-2.96v-2.08l-.82,.45Zm-2.54-4.77l2.03,.5,.31,4.41-3.61,1.87-.23-4.9,1.5-1.88Zm-2.12,9.05l.08-1.46,5.2-2.82,.15,1.48-5.43,2.8Zm4.66-4.28l-.35-4.48-2.37-.82-1.47,2.35-.07,5.28-.61,.37v1.89l5.69-2.96v-2.08l-.82,.45Zm-2.54-4.77l2.03,.5,.31,4.41-3.61,1.87-.23-4.9,1.5-1.88Zm-2.12,9.05l.08-1.46,5.2-2.82,.15,1.48-5.43,2.8Zm-9.31,2.52l-.35-4.53-2.37-.83-1.46,2.36-.13,5.39-.56,.32v1.88l5.7-2.96v-2.07l-.83,.44Zm-2.54-4.83l2.04,.51,.07,4.56-3.42,1.88-.22-5.06,1.53-1.89Zm3.23,6.35l-5.35,2.85v-1.55l5.39-3.01-.04,1.71Zm-12.55-2.13s-.51-.23-1.18-.55l.3-3.01c-.44-1.18-1.18-2.26-2.02-3.21-.12-.02-.25-.02-.36-.01-.8,.05-1.38,.64-2.09,.92l.08,3.36-1.21-.77-.16,2.01,6.67,3.76-.03-2.5Zm-4.91-5.55c.53-.26,1.07-1.01,1.61-1.02,.07,0,.14,.01,.22,.04,1.06,.81,1.17,2.11,1.74,3.01l-.04,2.97-3.68-1.94,.15-3.06Zm-1.49,4.28c-.08-.3,.12-1.61,.12-1.66,1.85,1.03,4.08,2.36,6.1,2.97l.04,2.08-6.26-3.39Zm6.4,1.27s-.51-.23-1.18-.55l.3-3.01c-.44-1.18-1.18-2.26-2.02-3.21-.12-.02-.25-.02-.36-.01-.8,.05-1.38,.64-2.09,.92l.08,3.36-1.21-.77-.16,2.01,6.67,3.76-.03-2.5Zm-4.91-5.55c.53-.26,1.07-1.01,1.61-1.02,.07,0,.14,.01,.22,.04,1.06,.81,1.17,2.11,1.74,3.01l-.04,2.97-3.68-1.94,.15-3.06Zm-1.49,4.28c-.08-.3,.12-1.61,.12-1.66,1.85,1.03,4.08,2.36,6.1,2.97l.04,2.08-6.26-3.39Zm18.26,1.88l-.35-4.53-2.37-.83-1.46,2.36-.13,5.39-.56,.32v1.88l5.7-2.96v-2.07l-.83,.44Zm-2.54-4.83l2.04,.51,.07,4.56-3.42,1.88-.22-5.06,1.53-1.89Zm3.23,6.35l-5.35,2.85v-1.55l5.39-3.01-.04,1.71Zm13.28-8.32l-.35-4.48-2.37-.82-1.47,2.35-.07,5.28-.61,.37v1.89l5.69-2.96v-2.08l-.82,.45Zm-2.54-4.77l2.03,.5,.31,4.41-3.61,1.87-.23-4.9,1.5-1.88Zm-2.12,9.05l.08-1.46,5.2-2.82,.15,1.48-5.43,2.8Zm4.66-4.28l-.35-4.48-2.37-.82-1.47,2.35-.07,5.28-.61,.37v1.89l5.69-2.96v-2.08l-.82,.45Zm-2.54-4.77l2.03,.5,.31,4.41-3.61,1.87-.23-4.9,1.5-1.88Zm-2.12,9.05l.08-1.46,5.2-2.82,.15,1.48-5.43,2.8Zm-9.31,2.52l-.35-4.53-2.37-.83-1.46,2.36-.13,5.39-.56,.32v1.88l5.7-2.96v-2.07l-.83,.44Zm-2.54-4.83l2.04,.51,.07,4.56-3.42,1.88-.22-5.06,1.53-1.89Zm3.23,6.35l-5.35,2.85v-1.55l5.39-3.01-.04,1.71Zm-12.55-2.13s-.51-.23-1.18-.55l.3-3.01c-.44-1.18-1.18-2.26-2.02-3.21-.12-.02-.25-.02-.36-.01-.8,.05-1.38,.64-2.09,.92l.08,3.36-1.21-.77-.16,2.01,6.67,3.76-.03-2.5Zm-4.91-5.55c.53-.26,1.07-1.01,1.61-1.02,.07,0,.14,.01,.22,.04,1.06,.81,1.17,2.11,1.74,3.01l-.04,2.97-3.68-1.94,.15-3.06Zm-1.49,4.28c-.08-.3,.12-1.61,.12-1.66,1.85,1.03,4.08,2.36,6.1,2.97l.04,2.08-6.26-3.39Zm6.4,1.27s-.51-.23-1.18-.55l.3-3.01c-.44-1.18-1.18-2.26-2.02-3.21-.12-.02-.25-.02-.36-.01-.8,.05-1.38,.64-2.09,.92l.08,3.36-1.21-.77-.16,2.01,6.67,3.76-.03-2.5Zm-4.91-5.55c.53-.26,1.07-1.01,1.61-1.02,.07,0,.14,.01,.22,.04,1.06,.81,1.17,2.11,1.74,3.01l-.04,2.97-3.68-1.94,.15-3.06Zm-1.49,4.28c-.08-.3,.12-1.61,.12-1.66,1.85,1.03,4.08,2.36,6.1,2.97l.04,2.08-6.26-3.39Zm18.26,1.88l-.35-4.53-2.37-.83-1.46,2.36-.13,5.39-.56,.32v1.88l5.7-2.96v-2.07l-.83,.44Zm-2.54-4.83l2.04,.51,.07,4.56-3.42,1.88-.22-5.06,1.53-1.89Zm3.23,6.35l-5.35,2.85v-1.55l5.39-3.01-.04,1.71Zm13.28-8.32l-.35-4.48-2.37-.82-1.47,2.35-.07,5.28-.61,.37v1.89l5.69-2.96v-2.08l-.82,.45Zm-2.54-4.77l2.03,.5,.31,4.41-3.61,1.87-.23-4.9,1.5-1.88Zm-2.12,9.05l.08-1.46,5.2-2.82,.15,1.48-5.43,2.8Zm4.66-4.28l-.35-4.48-2.37-.82-1.47,2.35-.07,5.28-.61,.37v1.89l5.69-2.96v-2.08l-.82,.45Zm-2.54-4.77l2.03,.5,.31,4.41-3.61,1.87-.23-4.9,1.5-1.88Zm-2.12,9.05l.08-1.46,5.2-2.82,.15,1.48-5.43,2.8Zm-9.31,2.52l-.35-4.53-2.37-.83-1.46,2.36-.13,5.39-.56,.32v1.88l5.7-2.96v-2.07l-.83,.44Zm-2.54-4.83l2.04,.51,.07,4.56-3.42,1.88-.22-5.06,1.53-1.89Zm3.23,6.35l-5.35,2.85v-1.55l5.39-3.01-.04,1.71Zm-12.55-2.13s-.51-.23-1.18-.55l.3-3.01c-.44-1.18-1.18-2.26-2.02-3.21-.12-.02-.25-.02-.36-.01-.8,.05-1.38,.64-2.09,.92l.08,3.36-1.21-.77-.16,2.01,6.67,3.76-.03-2.5Zm-4.91-5.55c.53-.26,1.07-1.01,1.61-1.02,.07,0,.14,.01,.22,.04,1.06,.81,1.17,2.11,1.74,3.01l-.04,2.97-3.68-1.94,.15-3.06Zm-1.49,4.28c-.08-.3,.12-1.61,.12-1.66,1.85,1.03,4.08,2.36,6.1,2.97l.04,2.08-6.26-3.39Zm6.4,1.27s-.51-.23-1.18-.55l.3-3.01c-.44-1.18-1.18-2.26-2.02-3.21-.12-.02-.25-.02-.36-.01-.8,.05-1.38,.64-2.09,.92l.08,3.36-1.21-.77-.16,2.01,6.67,3.76-.03-2.5Zm-4.91-5.55c.53-.26,1.07-1.01,1.61-1.02,.07,0,.14,.01,.22,.04,1.06,.81,1.17,2.11,1.74,3.01l-.04,2.97-3.68-1.94,.15-3.06Zm-1.49,4.28c-.08-.3,.12-1.61,.12-1.66,1.85,1.03,4.08,2.36,6.1,2.97l.04,2.08-6.26-3.39Zm18.26,1.88l-.35-4.53-2.37-.83-1.46,2.36-.13,5.39-.56,.32v1.88l5.7-2.96v-2.07l-.83,.44Zm-2.54-4.83l2.04,.51,.07,4.56-3.42,1.88-.22-5.06,1.53-1.89Zm3.23,6.35l-5.35,2.85v-1.55l5.39-3.01-.04,1.71Zm13.28-8.32l-.35-4.48-2.37-.82-1.47,2.35-.07,5.28-.61,.37v1.89l5.69-2.96v-2.08l-.82,.45Zm-2.54-4.77l2.03,.5,.31,4.41-3.61,1.87-.23-4.9,1.5-1.88Zm-2.12,9.05l.08-1.46,5.2-2.82,.15,1.48-5.43,2.8Zm4.66-4.28l-.35-4.48-2.37-.82-1.47,2.35-.07,5.28-.61,.37v1.89l5.69-2.96v-2.08l-.82,.45Zm-2.54-4.77l2.03,.5,.31,4.41-3.61,1.87-.23-4.9,1.5-1.88Zm-2.12,9.05l.08-1.46,5.2-2.82,.15,1.48-5.43,2.8Zm-9.31,2.52l-.35-4.53-2.37-.83-1.46,2.36-.13,5.39-.56,.32v1.88l5.7-2.96v-2.07l-.83,.44Zm-2.54-4.83l2.04,.51,.07,4.56-3.42,1.88-.22-5.06,1.53-1.89Zm3.23,6.35l-5.35,2.85v-1.55l5.39-3.01-.04,1.71Zm-12.55-2.13s-.51-.23-1.18-.55l.3-3.01c-.44-1.18-1.18-2.26-2.02-3.21-.12-.02-.25-.02-.36-.01-.8,.05-1.38,.64-2.09,.92l.08,3.36-1.21-.77-.16,2.01,6.67,3.76-.03-2.5Zm-4.91-5.55c.53-.26,1.07-1.01,1.61-1.02,.07,0,.14,.01,.22,.04,1.06,.81,1.17,2.11,1.74,3.01l-.04,2.97-3.68-1.94,.15-3.06Zm-1.49,4.28c-.08-.3,.12-1.61,.12-1.66,1.85,1.03,4.08,2.36,6.1,2.97l.04,2.08-6.26-3.39Zm6.4,1.27s-.51-.23-1.18-.55l.3-3.01c-.44-1.18-1.18-2.26-2.02-3.21-.12-.02-.25-.02-.36-.01-.8,.05-1.38,.64-2.09,.92l.08,3.36-1.21-.77-.16,2.01,6.67,3.76-.03-2.5Zm-4.91-5.55c.53-.26,1.07-1.01,1.61-1.02,.07,0,.14,.01,.22,.04,1.06,.81,1.17,2.11,1.74,3.01l-.04,2.97-3.68-1.94,.15-3.06Zm-1.49,4.28c-.08-.3,.12-1.61,.12-1.66,1.85,1.03,4.08,2.36,6.1,2.97l.04,2.08-6.26-3.39Zm18.26,1.88l-.35-4.53-2.37-.83-1.46,2.36-.13,5.39-.56,.32v1.88l5.7-2.96v-2.07l-.83,.44Zm-2.54-4.83l2.04,.51,.07,4.56-3.42,1.88-.22-5.06,1.53-1.89Zm3.23,6.35l-5.35,2.85v-1.55l5.39-3.01-.04,1.71Zm13.28-8.32l-.35-4.48-2.37-.82-1.47,2.35-.07,5.28-.61,.37v1.89l5.69-2.96v-2.08l-.82,.45Zm-2.54-4.77l2.03,.5,.31,4.41-3.61,1.87-.23-4.9,1.5-1.88Zm-2.12,9.05l.08-1.46,5.2-2.82,.15,1.48-5.43,2.8Zm4.66-4.28l-.35-4.48-2.37-.82-1.47,2.35-.07,5.28-.61,.37v1.89l5.69-2.96v-2.08l-.82,.45Zm-2.54-4.77l2.03,.5,.31,4.41-3.61,1.87-.23-4.9,1.5-1.88Zm-2.12,9.05l.08-1.46,5.2-2.82,.15,1.48-5.43,2.8Zm-9.31,2.52l-.35-4.53-2.37-.83-1.46,2.36-.13,5.39-.56,.32v1.88l5.7-2.96v-2.07l-.83,.44Zm-2.54-4.83l2.04,.51,.07,4.56-3.42,1.88-.22-5.06,1.53-1.89Zm3.23,6.35l-5.35,2.85v-1.55l5.39-3.01-.04,1.71Zm-12.55-2.13s-.51-.23-1.18-.55l.3-3.01c-.44-1.18-1.18-2.26-2.02-3.21-.12-.02-.25-.02-.36-.01-.8,.05-1.38,.64-2.09,.92l.08,3.36-1.21-.77-.16,2.01,6.67,3.76-.03-2.5Zm-4.91-5.55c.53-.26,1.07-1.01,1.61-1.02,.07,0,.14,.01,.22,.04,1.06,.81,1.17,2.11,1.74,3.01l-.04,2.97-3.68-1.94,.15-3.06Zm-1.49,4.28c-.08-.3,.12-1.61,.12-1.66,1.85,1.03,4.08,2.36,6.1,2.97l.04,2.08-6.26-3.39Zm6.4,1.27s-.51-.23-1.18-.55l.3-3.01c-.44-1.18-1.18-2.26-2.02-3.21-.12-.02-.25-.02-.36-.01-.8,.05-1.38,.64-2.09,.92l.08,3.36-1.21-.77-.16,2.01,6.67,3.76-.03-2.5Zm-4.91-5.55c.53-.26,1.07-1.01,1.61-1.02,.07,0,.14,.01,.22,.04,1.06,.81,1.17,2.11,1.74,3.01l-.04,2.97-3.68-1.94,.15-3.06Zm-1.49,4.28c-.08-.3,.12-1.61,.12-1.66,1.85,1.03,4.08,2.36,6.1,2.97l.04,2.08-6.26-3.39Zm18.26,1.88l-.35-4.53-2.37-.83-1.46,2.36-.13,5.39-.56,.32v1.88l5.7-2.96v-2.07l-.83,.44Zm-2.54-4.83l2.04,.51,.07,4.56-3.42,1.88-.22-5.06,1.53-1.89Zm3.23,6.35l-5.35,2.85v-1.55l5.39-3.01-.04,1.71Zm13.28-8.32l-.35-4.48-2.37-.82-1.47,2.35-.07,5.28-.61,.37v1.89l5.69-2.96v-2.08l-.82,.45Zm-2.54-4.77l2.03,.5,.31,4.41-3.61,1.87-.23-4.9,1.5-1.88Zm-2.12,9.05l.08-1.46,5.2-2.82,.15,1.48-5.43,2.8Zm4.66-4.28l-.35-4.48-2.37-.82-1.47,2.35-.07,5.28-.61,.37v1.89l5.69-2.96v-2.08l-.82,.45Zm-2.54-4.77l2.03,.5,.31,4.41-3.61,1.87-.23-4.9,1.5-1.88Zm-2.12,9.05l.08-1.46,5.2-2.82,.15,1.48-5.43,2.8Zm-9.31,2.52l-.35-4.53-2.37-.83-1.46,2.36-.13,5.39-.56,.32v1.88l5.7-2.96v-2.07l-.83,.44Zm-2.54-4.83l2.04,.51,.07,4.56-3.42,1.88-.22-5.06,1.53-1.89Zm3.23,6.35l-5.35,2.85v-1.55l5.39-3.01-.04,1.71Zm-12.55-2.13s-.51-.23-1.18-.55l.3-3.01c-.44-1.18-1.18-2.26-2.02-3.21-.12-.02-.25-.02-.36-.01-.8,.05-1.38,.64-2.09,.92l.08,3.36-1.21-.77-.16,2.01,6.67,3.76-.03-2.5Zm-4.91-5.55c.53-.26,1.07-1.01,1.61-1.02,.07,0,.14,.01,.22,.04,1.06,.81,1.17,2.11,1.74,3.01l-.04,2.97-3.68-1.94,.15-3.06Zm-1.49,4.28c-.08-.3,.12-1.61,.12-1.66,1.85,1.03,4.08,2.36,6.1,2.97l.04,2.08-6.26-3.39Zm6.4,1.27s-.51-.23-1.18-.55l.3-3.01c-.44-1.18-1.18-2.26-2.02-3.21-.12-.02-.25-.02-.36-.01-.8,.05-1.38,.64-2.09,.92l.08,3.36-1.21-.77-.16,2.01,6.67,3.76-.03-2.5Zm-4.91-5.55c.53-.26,1.07-1.01,1.61-1.02,.07,0,.14,.01,.22,.04,1.06,.81,1.17,2.11,1.74,3.01l-.04,2.97-3.68-1.94,.15-3.06Zm-1.49,4.28c-.08-.3,.12-1.61,.12-1.66,1.85,1.03,4.08,2.36,6.1,2.97l.04,2.08-6.26-3.39Zm18.26,1.88l-.35-4.53-2.37-.83-1.46,2.36-.13,5.39-.56,.32v1.88l5.7-2.96v-2.07l-.83,.44Zm-2.54-4.83l2.04,.51,.07,4.56-3.42,1.88-.22-5.06,1.53-1.89Zm3.23,6.35l-5.35,2.85v-1.55l5.39-3.01-.04,1.71Zm13.28-8.32l-.35-4.48-2.37-.82-1.47,2.35-.07,5.28-.61,.37v1.89l5.69-2.96v-2.08l-.82,.45Zm-2.54-4.77l2.03,.5,.31,4.41-3.61,1.87-.23-4.9,1.5-1.88Zm-2.12,9.05l.08-1.46,5.2-2.82,.15,1.48-5.43,2.8Zm4.66-4.28l-.35-4.48-2.37-.82-1.47,2.35-.07,5.28-.61,.37v1.89l5.69-2.96v-2.08l-.82,.45Zm-2.54-4.77l2.03,.5,.31,4.41-3.61,1.87-.23-4.9,1.5-1.88Zm-2.12,9.05l.08-1.46,5.2-2.82,.15,1.48-5.43,2.8Zm-9.31,2.52l-.35-4.53-2.37-.83-1.46,2.36-.13,5.39-.56,.32v1.88l5.7-2.96v-2.07l-.83,.44Zm-2.54-4.83l2.04,.51,.07,4.56-3.42,1.88-.22-5.06,1.53-1.89Zm3.23,6.35l-5.35,2.85v-1.55l5.39-3.01-.04,1.71Zm-12.55-2.13s-.51-.23-1.18-.55l.3-3.01c-.44-1.18-1.18-2.26-2.02-3.21-.12-.02-.25-.02-.36-.01-.8,.05-1.38,.64-2.09,.92l.08,3.36-1.21-.77-.16,2.01,6.67,3.76-.03-2.5Zm-4.91-5.55c.53-.26,1.07-1.01,1.61-1.02,.07,0,.14,.01,.22,.04,1.06,.81,1.17,2.11,1.74,3.01l-.04,2.97-3.68-1.94,.15-3.06Zm-1.49,4.28c-.08-.3,.12-1.61,.12-1.66,1.85,1.03,4.08,2.36,6.1,2.97l.04,2.08-6.26-3.39Zm6.4,1.27s-.51-.23-1.18-.55l.3-3.01c-.44-1.18-1.18-2.26-2.02-3.21-.12-.02-.25-.02-.36-.01-.8,.05-1.38,.64-2.09,.92l.08,3.36-1.21-.77-.16,2.01,6.67,3.76-.03-2.5Zm-4.91-5.55c.53-.26,1.07-1.01,1.61-1.02,.07,0,.14,.01,.22,.04,1.06,.81,1.17,2.11,1.74,3.01l-.04,2.97-3.68-1.94,.15-3.06Zm-1.49,4.28c-.08-.3,.12-1.61,.12-1.66,1.85,1.03,4.08,2.36,6.1,2.97l.04,2.08-6.26-3.39Zm18.26,1.88l-.35-4.53-2.37-.83-1.46,2.36-.13,5.39-.56,.32v1.88l5.7-2.96v-2.07l-.83,.44Zm-2.54-4.83l2.04,.51,.07,4.56-3.42,1.88-.22-5.06,1.53-1.89Zm3.23,6.35l-5.35,2.85v-1.55l5.39-3.01-.04,1.71Zm13.28-8.32l-.35-4.48-2.37-.82-1.47,2.35-.07,5.28-.61,.37v1.89l5.69-2.96v-2.08l-.82,.45Zm-2.54-4.77l2.03,.5,.31,4.41-3.61,1.87-.23-4.9,1.5-1.88Zm-2.12,9.05l.08-1.46,5.2-2.82,.15,1.48-5.43,2.8Zm4.66-4.28l-.35-4.48-2.37-.82-1.47,2.35-.07,5.28-.61,.37v1.89l5.69-2.96v-2.08l-.82,.45Zm-2.54-4.77l2.03,.5,.31,4.41-3.61,1.87-.23-4.9,1.5-1.88Zm-2.12,9.05l.08-1.46,5.2-2.82,.15,1.48-5.43,2.8Zm-9.31,2.52l-.35-4.53-2.37-.83-1.46,2.36-.13,5.39-.56,.32v1.88l5.7-2.96v-2.07l-.83,.44Zm-2.54-4.83l2.04,.51,.07,4.56-3.42,1.88-.22-5.06,1.53-1.89Zm3.23,6.35l-5.35,2.85v-1.55l5.39-3.01-.04,1.71Zm-12.55-2.13s-.51-.23-1.18-.55l.3-3.01c-.44-1.18-1.18-2.26-2.02-3.21-.12-.02-.25-.02-.36-.01-.8,.05-1.38,.64-2.09,.92l.08,3.36-1.21-.77-.16,2.01,6.67,3.76-.03-2.5Zm-4.91-5.55c.53-.26,1.07-1.01,1.61-1.02,.07,0,.14,.01,.22,.04,1.06,.81,1.17,2.11,1.74,3.01l-.04,2.97-3.68-1.94,.15-3.06Zm-1.49,4.28c-.08-.3,.12-1.61,.12-1.66,1.85,1.03,4.08,2.36,6.1,2.97l.04,2.08-6.26-3.39Zm6.4,1.27s-.51-.23-1.18-.55l.3-3.01c-.44-1.18-1.18-2.26-2.02-3.21-.12-.02-.25-.02-.36-.01-.8,.05-1.38,.64-2.09,.92l.08,3.36-1.21-.77-.16,2.01,6.67,3.76-.03-2.5Zm-4.91-5.55c.53-.26,1.07-1.01,1.61-1.02,.07,0,.14,.01,.22,.04,1.06,.81,1.17,2.11,1.74,3.01l-.04,2.97-3.68-1.94,.15-3.06Zm-1.49,4.28c-.08-.3,.12-1.61,.12-1.66,1.85,1.03,4.08,2.36,6.1,2.97l.04,2.08-6.26-3.39Zm18.26,1.88l-.35-4.53-2.37-.83-1.46,2.36-.13,5.39-.56,.32v1.88l5.7-2.96v-2.07l-.83,.44Zm-2.54-4.83l2.04,.51,.07,4.56-3.42,1.88-.22-5.06,1.53-1.89Zm3.23,6.35l-5.35,2.85v-1.55l5.39-3.01-.04,1.71Zm13.28-8.32l-.35-4.48-2.37-.82-1.47,2.35-.07,5.28-.61,.37v1.89l5.69-2.96v-2.08l-.82,.45Zm-2.54-4.77l2.03,.5,.31,4.41-3.61,1.87-.23-4.9,1.5-1.88Zm-2.12,9.05l.08-1.46,5.2-2.82,.15,1.48-5.43,2.8Zm4.66-4.28l-.35-4.48-2.37-.82-1.47,2.35-.07,5.28-.61,.37v1.89l5.69-2.96v-2.08l-.82,.45Zm-2.54-4.77l2.03,.5,.31,4.41-3.61,1.87-.23-4.9,1.5-1.88Zm-2.12,9.05l.08-1.46,5.2-2.82,.15,1.48-5.43,2.8Zm-9.31,2.52l-.35-4.53-2.37-.83-1.46,2.36-.13,5.39-.56,.32v1.88l5.7-2.96v-2.07l-.83,.44Zm-2.54-4.83l2.04,.51,.07,4.56-3.42,1.88-.22-5.06,1.53-1.89Zm3.23,6.35l-5.35,2.85v-1.55l5.39-3.01-.04,1.71Zm-12.55-2.13s-.51-.23-1.18-.55l.3-3.01c-.44-1.18-1.18-2.26-2.02-3.21-.12-.02-.25-.02-.36-.01-.8,.05-1.38,.64-2.09,.92l.08,3.36-1.21-.77-.16,2.01,6.67,3.76-.03-2.5Zm-4.91-5.55c.53-.26,1.07-1.01,1.61-1.02,.07,0,.14,.01,.22,.04,1.06,.81,1.17,2.11,1.74,3.01l-.04,2.97-3.68-1.94,.15-3.06Zm-1.49,4.28c-.08-.3,.12-1.61,.12-1.66,1.85,1.03,4.08,2.36,6.1,2.97l.04,2.08-6.26-3.39Zm6.4,1.27s-.51-.23-1.18-.55l.3-3.01c-.44-1.18-1.18-2.26-2.02-3.21-.12-.02-.25-.02-.36-.01-.8,.05-1.38,.64-2.09,.92l.08,3.36-1.21-.77-.16,2.01,6.67,3.76-.03-2.5Zm-4.91-5.55c.53-.26,1.07-1.01,1.61-1.02,.07,0,.14,.01,.22,.04,1.06,.81,1.17,2.11,1.74,3.01l-.04,2.97-3.68-1.94,.15-3.06Zm-1.49,4.28c-.08-.3,.12-1.61,.12-1.66,1.85,1.03,4.08,2.36,6.1,2.97l.04,2.08-6.26-3.39Zm18.26,1.88l-.35-4.53-2.37-.83-1.46,2.36-.13,5.39-.56,.32v1.88l5.7-2.96v-2.07l-.83,.44Zm-2.54-4.83l2.04,.51,.07,4.56-3.42,1.88-.22-5.06,1.53-1.89Zm3.23,6.35l-5.35,2.85v-1.55l5.39-3.01-.04,1.71Zm13.28-8.32l-.35-4.48-2.37-.82-1.47,2.35-.07,5.28-.61,.37v1.89l5.69-2.96v-2.08l-.82,.45Zm-2.54-4.77l2.03,.5,.31,4.41-3.61,1.87-.23-4.9,1.5-1.88Zm-2.12,9.05l.08-1.46,5.2-2.82,.15,1.48-5.43,2.8Zm4.66-4.28l-.35-4.48-2.37-.82-1.47,2.35-.07,5.28-.61,.37v1.89l5.69-2.96v-2.08l-.82,.45Zm-2.54-4.77l2.03,.5,.31,4.41-3.61,1.87-.23-4.9,1.5-1.88Zm-2.12,9.05l.08-1.46,5.2-2.82,.15,1.48-5.43,2.8Zm-9.66-2.01l-2.37-.83-1.46,2.36-.13,5.39-.56,.32v1.88l5.7-2.96v-2.07l-.83,.44-.35-4.53Zm-2.19-.3l2.04,.51,.07,4.56-3.42,1.88-.22-5.06,1.53-1.89Zm3.23,6.35l-5.35,2.85v-1.55l5.39-3.01-.04,1.71Zm-12.55-2.13s-.51-.23-1.18-.55l.3-3.01c-.44-1.18-1.18-2.26-2.02-3.21-.12-.02-.25-.02-.36-.01-.8,.05-1.38,.64-2.09,.92l.08,3.36-1.21-.77-.16,2.01,6.67,3.76-.03-2.5Zm-4.91-5.55c.53-.26,1.07-1.01,1.61-1.02,.07,0,.14,.01,.22,.04,1.06,.81,1.17,2.11,1.74,3.01l-.04,2.97-3.68-1.94,.15-3.06Zm-1.49,4.28c-.08-.3,.12-1.61,.12-1.66,1.85,1.03,4.08,2.36,6.1,2.97l.04,2.08-6.26-3.39Zm38.64,2.47l-3.42-8.05-.46-10.3,1.13-.52-.33-6.86-4.98-3.5-2.05,.95-.47-2.5-2.89-2.01-1.02,.54-.26-1.25-3.8-2.58-6.08,2.12,.07,2.24-2.1-1.74-7.84,3.11-.07,2.33-1.7,.53-1.41-1.69L0,9.01v8.16s1.35,1.1,1.35,1.1L.25,42.86l1.76,1.22-1.33,4.61,3.65,2.65,3.88-2.98,7.95,5.48,25.11-9.92-.29-6.63,3.02-1.21Zm-3.13-18.96L15.32,28.7c.04-2.14-.12-4.39,.04-6.52l5.85-2.59,.45,2.33,4.52-1.96-.16-2.12,4.41-2.12,.34,2.29,4-1.76-.36-2.54c2.06-.91,4.17-1.72,6.08-2.93l.38,6.34ZM4.95,14.38v.07l-1.22,.57,.14-2.09,3.02-1.27-.07,1.68-1.78,.89-.09,.15Zm.07,2.23l-1.31-1.11,1.3-.81v1.92Zm7.97-6.65l.11-2.14,6.77-2.66,.18,2.51,2.9-1.41-.03-2.26,1.28-.52c.07,1.44,.29,2.97,.3,4.41-4.42,2.25-9.2,4.18-13.72,6.23l-1.88-1.69-.13-.1-.12,.07-1.61,.81,.07-1.79-.92-1.18,2.08-.9-.11,2.39,4.83-1.77Zm7.18-5l2.53,1.37-2.28,.88-.25-2.25Zm7.2,2.91l.14-2.47,2.61,1.71-.04,2.37,2.09,1.23-1.02,.5,.21,2.33-6.65-5.55c-.01-1.39-.01-2.98-.04-4.38l.78,.57,.15,2.6,1.77,1.09Zm-1.25-1.08l1.03-.56,.03,1.2-1.06-.64Zm4.73,2.61l1.61-.74v1.69s-1.61-.95-1.61-.95Zm1.03,4.6l-.32-2.37,2.51,2.19,.31,1.83-2.5-1.65Zm2.51,2.04l-3.26,1.33-.3-1.96-.32-.46,1.44-.64,2.44,1.73Zm-2.82-1.94l-1.45,.55-2.43-1.93-5.24,2.3,.22,2.28-2.19,.89-1.34-1.39-3.24,1.78-1.39-1.63-1.87,1.05-.32-.45-.16-2.12-1.02-.98c4.39-2.2,9.07-3.85,13.34-6.26l7.09,5.91Zm-9.96,5.19l-.04,.02-.16-.16-.6-.61,1.89-1.07,2.93,2.24-3.63,1.56-.38-1.89v-.09Zm1.33-1.91l-.22-1.88,2.87,2.54,.42,1.6-3.07-2.26Zm2.79,.39l-2.93-2.61,4.83-2.23,2.82,2.4-4.72,2.44ZM8.69,12.86l2.77,2.47-2.85,1.76-2.82-2.74,2.9-1.49Zm.13,4.63l2.93-1.8,.25,1.87-3.19,1.7v-1.77Zm3.32,.31l.21,.25-1.02,.62-.13,2.91-2.3-1.85,3.24-1.93Zm2.31-.57l1.24,1.62,3.44-1.75,2.02,2.15-5.8,2.65-3.44-3.22,2.54-1.45ZM35.97,7.13c1.42,1.05,2.87,2.3,4.24,3.32-1.97,1.2-4.12,2.07-6.25,2.96l-2.22-2.15,3.45-1.57-1.69-1.22,2.47-1.34Zm-3.28,3.22l.13-1.98,1.52,1.25-1.65,.73Zm.94-2.6l-3.27,1.59v-2.06l2.9-1.6,.37,2.07Zm-3.17-4.14l2.4,1.86-2.64,1.38-2.49-1.76,2.73-1.48Zm-1.27,.45l-2.02,1,.08,.71-1.38,.64,.03-2.03,3.02-1.7,.27,1.38ZM25.49,.22l3.16,2.32-2.82,1.36-1.37-.99-1.98,.8-2.58-1.48L25.49,.22Zm-5.77,2.11l2.79,1.78-.02,1.82-2.77-1.59V2.33Zm-2.39,.61l2.3,2-6.68,2.45-2.88-1.51,7.26-2.94Zm-7.51,3.15l2.84,1.65,.02,1.94-3-1.84,.14-1.75Zm-.04,2.33l2.6,1.47-3.94,1.51,.11-2.03-.3-.42,1.53-.53Zm-3.49-1.21l1.45,2.07-2.14,.85,.99,1.17-2.82,1.18L.41,9.11l5.88-1.9ZM.27,17.05l.15-7.65,3.04,3.41h-.04l-.17,2.49,2.25,2.53-.1-3.24,2.97,2.89v2.41s3.2,2.32,3.2,2.32l.12-3.11,3.45,3.24c-.18,2.13-.22,4.3-.27,6.45L.27,17.05Zm3.81,33.57l-3.19-2.01,2.75-8.71,2.37,1.58-1.93,9.14Zm-.37-11.07l2.18-3.01,2.72,1.66-2.44,2.86-2.46-1.51Zm4.31,8.56l-3.6,2.58,2.1-9.38,2.27-2.65-.77,9.45Zm8.07,5.07l-7.75-5.28,.98-9.85,.02-.02h-.02s-.01-.01-.01-.01l-3.52-1.76-2.48,3.24h-.02s0,.05,0,.05l-1.14,4.06-1.64-.82L1.79,18.62l13.08,10.76,1.6-.79-.38,24.59Zm17.43-6.69l.83-1.3-.07-.07-1.27,1.56-1.87,.74-.02-.32c1.02-1.73,1.8-3.67,2.77-5.43l-.12-.07c-.93,1.63-1.79,3.29-2.71,4.91l-.25-2.77,2.82-5.93-.09-.06-2.79,5.39-.26-3.07,1.25-2.75-.09-.03-1.2,2.36-.28-3.06-.11,.03,.13,2.4-2.13-.58-.03,.14,2.18,.78,.11,1.94-3.53-1.31-.08,.05,3.64,1.69,.15,2.81-3.81-1.54-.14,.07,3.98,1.8,.15,2.73-.05,.03-4.16-1.39-.06,.15,3.76,1.41-3.88,1.54-.13-9.26,3.98-3.72,3.78,1.16,.82,8.48-1.22,.49Zm1.66-.66l-1.15-8.45-4-1.55-4.08,4.18,.04,9.44-.99,.4-.14-9.75,4.92-5.43,5.05,2.3,1.09,8.6-.74,.26Zm.97-.37l-1.17-8.68-5.23-2.18-5.08,5.36-.11,10.06-7.91,3.12,.07-24.61,23.23-10.72,.57,19.18,.29,6.62-4.66,1.85Zm4.4-17.03l3.16,7.51-2.75,.86-.41-8.37Zm-3.31-4.22l-2.37-.82-1.47,2.35-.07,5.28-.61,.37v1.89l5.69-2.96v-2.08l-.82,.45-.35-4.48Zm-2.19-.29l2.03,.5,.31,4.41-3.61,1.87-.23-4.9,1.5-1.88Zm3.31,6.25l-5.43,2.8,.08-1.46,5.2-2.82,.15,1.48Zm-15.09,.79l-2.37-.83-1.46,2.36-.13,5.39-.56,.32v1.88l5.7-2.96v-2.07l-.83,.44-.35-4.53Zm-2.19-.3l2.04,.51,.07,4.56-3.42,1.88-.22-5.06,1.53-1.89Zm3.23,6.35l-5.35,2.85v-1.55l5.39-3.01-.04,1.71Zm-13.73-2.68l.3-3.01c-.44-1.18-1.18-2.26-2.02-3.21-.12-.02-.25-.02-.36-.01-.8,.05-1.38,.64-2.09,.92l.08,3.36-1.21-.77-.16,2.01,6.67,3.76-.03-2.5s-.51-.23-1.18-.55Zm-3.73-5c.53-.26,1.07-1.01,1.61-1.02,.07,0,.14,.01,.22,.04,1.06,.81,1.17,2.11,1.74,3.01l-.04,2.97-3.68-1.94,.15-3.06Zm-1.49,4.28c-.08-.3,.12-1.61,.12-1.66,1.85,1.03,4.08,2.36,6.1,2.97l.04,2.08-6.26-3.39Zm6.4,1.27s-.51-.23-1.18-.55l.3-3.01c-.44-1.18-1.18-2.26-2.02-3.21-.12-.02-.25-.02-.36-.01-.8,.05-1.38,.64-2.09,.92l.08,3.36-1.21-.77-.16,2.01,6.67,3.76-.03-2.5Zm-4.91-5.55c.53-.26,1.07-1.01,1.61-1.02,.07,0,.14,.01,.22,.04,1.06,.81,1.17,2.11,1.74,3.01l-.04,2.97-3.68-1.94,.15-3.06Zm-1.49,4.28c-.08-.3,.12-1.61,.12-1.66,1.85,1.03,4.08,2.36,6.1,2.97l.04,2.08-6.26-3.39Zm18.26,1.88l-.35-4.53-2.37-.83-1.46,2.36-.13,5.39-.56,.32v1.88l5.7-2.96v-2.07l-.83,.44Zm-2.54-4.83l2.04,.51,.07,4.56-3.42,1.88-.22-5.06,1.53-1.89Zm3.23,6.35l-5.35,2.85v-1.55l5.39-3.01-.04,1.71Zm13.28-8.32l-.35-4.48-2.37-.82-1.47,2.35-.07,5.28-.61,.37v1.89l5.69-2.96v-2.08l-.82,.45Zm-2.54-4.77l2.03,.5,.31,4.41-3.61,1.87-.23-4.9,1.5-1.88Zm-2.12,9.05l.08-1.46,5.2-2.82,.15,1.48-5.43,2.8Zm4.66-4.28l-.35-4.48-2.37-.82-1.47,2.35-.07,5.28-.61,.37v1.89l5.69-2.96v-2.08l-.82,.45Zm-2.54-4.77l2.03,.5,.31,4.41-3.61,1.87-.23-4.9,1.5-1.88Zm-2.12,9.05l.08-1.46,5.2-2.82,.15,1.48-5.43,2.8Zm-9.31,2.52l-.35-4.53-2.37-.83-1.46,2.36-.13,5.39-.56,.32v1.88l5.7-2.96v-2.07l-.83,.44Zm-2.54-4.83l2.04,.51,.07,4.56-3.42,1.88-.22-5.06,1.53-1.89Zm3.23,6.35l-5.35,2.85v-1.55l5.39-3.01-.04,1.71Zm-12.55-2.13s-.51-.23-1.18-.55l.3-3.01c-.44-1.18-1.18-2.26-2.02-3.21-.12-.02-.25-.02-.36-.01-.8,.05-1.38,.64-2.09,.92l.08,3.36-1.21-.77-.16,2.01,6.67,3.76-.03-2.5Zm-4.91-5.55c.53-.26,1.07-1.01,1.61-1.02,.07,0,.14,.01,.22,.04,1.06,.81,1.17,2.11,1.74,3.01l-.04,2.97-3.68-1.94,.15-3.06Zm-1.49,4.28c-.08-.3,.12-1.61,.12-1.66,1.85,1.03,4.08,2.36,6.1,2.97l.04,2.08-6.26-3.39Zm6.4,1.27s-.51-.23-1.18-.55l.3-3.01c-.44-1.18-1.18-2.26-2.02-3.21-.12-.02-.25-.02-.36-.01-.8,.05-1.38,.64-2.09,.92l.08,3.36-1.21-.77-.16,2.01,6.67,3.76-.03-2.5Zm-4.91-5.55c.53-.26,1.07-1.01,1.61-1.02,.07,0,.14,.01,.22,.04,1.06,.81,1.17,2.11,1.74,3.01l-.04,2.97-3.68-1.94,.15-3.06Zm-1.49,4.28c-.08-.3,.12-1.61,.12-1.66,1.85,1.03,4.08,2.36,6.1,2.97l.04,2.08-6.26-3.39Zm18.26,1.88l-.35-4.53-2.37-.83-1.46,2.36-.13,5.39-.56,.32v1.88l5.7-2.96v-2.07l-.83,.44Zm-2.54-4.83l2.04,.51,.07,4.56-3.42,1.88-.22-5.06,1.53-1.89Zm3.23,6.35l-5.35,2.85v-1.55l5.39-3.01-.04,1.71Zm13.28-8.32l-.35-4.48-2.37-.82-1.47,2.35-.07,5.28-.61,.37v1.89l5.69-2.96v-2.08l-.82,.45Zm-2.54-4.77l2.03,.5,.31,4.41-3.61,1.87-.23-4.9,1.5-1.88Zm-2.12,9.05l.08-1.46,5.2-2.82,.15,1.48-5.43,2.8Zm4.66-4.28l-.35-4.48-2.37-.82-1.47,2.35-.07,5.28-.61,.37v1.89l5.69-2.96v-2.08l-.82,.45Zm-2.54-4.77l2.03,.5,.31,4.41-3.61,1.87-.23-4.9,1.5-1.88Zm-2.12,9.05l.08-1.46,5.2-2.82,.15,1.48-5.43,2.8Zm-9.31,2.52l-.35-4.53-2.37-.83-1.46,2.36-.13,5.39-.56,.32v1.88l5.7-2.96v-2.07l-.83,.44Zm-2.54-4.83l2.04,.51,.07,4.56-3.42,1.88-.22-5.06,1.53-1.89Zm3.23,6.35l-5.35,2.85v-1.55l5.39-3.01-.04,1.71Zm-12.55-2.13s-.51-.23-1.18-.55l.3-3.01c-.44-1.18-1.18-2.26-2.02-3.21-.12-.02-.25-.02-.36-.01-.8,.05-1.38,.64-2.09,.92l.08,3.36-1.21-.77-.16,2.01,6.67,3.76-.03-2.5Zm-4.91-5.55c.53-.26,1.07-1.01,1.61-1.02,.07,0,.14,.01,.22,.04,1.06,.81,1.17,2.11,1.74,3.01l-.04,2.97-3.68-1.94,.15-3.06Zm-1.49,4.28c-.08-.3,.12-1.61,.12-1.66,1.85,1.03,4.08,2.36,6.1,2.97l.04,2.08-6.26-3.39Zm6.4,1.27s-.51-.23-1.18-.55l.3-3.01c-.44-1.18-1.18-2.26-2.02-3.21-.12-.02-.25-.02-.36-.01-.8,.05-1.38,.64-2.09,.92l.08,3.36-1.21-.77-.16,2.01,6.67,3.76-.03-2.5Zm-4.91-5.55c.53-.26,1.07-1.01,1.61-1.02,.07,0,.14,.01,.22,.04,1.06,.81,1.17,2.11,1.74,3.01l-.04,2.97-3.68-1.94,.15-3.06Zm-1.49,4.28c-.08-.3,.12-1.61,.12-1.66,1.85,1.03,4.08,2.36,6.1,2.97l.04,2.08-6.26-3.39Zm18.26,1.88l-.35-4.53-2.37-.83-1.46,2.36-.13,5.39-.56,.32v1.88l5.7-2.96v-2.07l-.83,.44Zm-2.54-4.83l2.04,.51,.07,4.56-3.42,1.88-.22-5.06,1.53-1.89Zm3.23,6.35l-5.35,2.85v-1.55l5.39-3.01-.04,1.71Zm13.28-8.32l-.35-4.48-2.37-.82-1.47,2.35-.07,5.28-.61,.37v1.89l5.69-2.96v-2.08l-.82,.45Zm-2.54-4.77l2.03,.5,.31,4.41-3.61,1.87-.23-4.9,1.5-1.88Zm-2.12,9.05l.08-1.46,5.2-2.82,.15,1.48-5.43,2.8Zm4.66-4.28l-.35-4.48-2.37-.82-1.47,2.35-.07,5.28-.61,.37v1.89l5.69-2.96v-2.08l-.82,.45Zm-2.54-4.77l2.03,.5,.31,4.41-3.61,1.87-.23-4.9,1.5-1.88Zm-2.12,9.05l.08-1.46,5.2-2.82,.15,1.48-5.43,2.8Zm-9.31,2.52l-.35-4.53-2.37-.83-1.46,2.36-.13,5.39-.56,.32v1.88l5.7-2.96v-2.07l-.83,.44Zm-2.54-4.83l2.04,.51,.07,4.56-3.42,1.88-.22-5.06,1.53-1.89Zm3.23,6.35l-5.35,2.85v-1.55l5.39-3.01-.04,1.71Zm-12.55-2.13s-.51-.23-1.18-.55l.3-3.01c-.44-1.18-1.18-2.26-2.02-3.21-.12-.02-.25-.02-.36-.01-.8,.05-1.38,.64-2.09,.92l.08,3.36-1.21-.77-.16,2.01,6.67,3.76-.03-2.5Zm-4.91-5.55c.53-.26,1.07-1.01,1.61-1.02,.07,0,.14,.01,.22,.04,1.06,.81,1.17,2.11,1.74,3.01l-.04,2.97-3.68-1.94,.15-3.06Zm-1.49,4.28c-.08-.3,.12-1.61,.12-1.66,1.85,1.03,4.08,2.36,6.1,2.97l.04,2.08-6.26-3.39Zm6.4,1.27s-.51-.23-1.18-.55l.3-3.01c-.44-1.18-1.18-2.26-2.02-3.21-.12-.02-.25-.02-.36-.01-.8,.05-1.38,.64-2.09,.92l.08,3.36-1.21-.77-.16,2.01,6.67,3.76-.03-2.5Zm-4.91-5.55c.53-.26,1.07-1.01,1.61-1.02,.07,0,.14,.01,.22,.04,1.06,.81,1.17,2.11,1.74,3.01l-.04,2.97-3.68-1.94,.15-3.06Zm-1.49,4.28c-.08-.3,.12-1.61,.12-1.66,1.85,1.03,4.08,2.36,6.1,2.97l.04,2.08-6.26-3.39Zm18.26,1.88l-.35-4.53-2.37-.83-1.46,2.36-.13,5.39-.56,.32v1.88l5.7-2.96v-2.07l-.83,.44Zm-2.54-4.83l2.04,.51,.07,4.56-3.42,1.88-.22-5.06,1.53-1.89Zm3.23,6.35l-5.35,2.85v-1.55l5.39-3.01-.04,1.71Zm13.28-8.32l-.35-4.48-2.37-.82-1.47,2.35-.07,5.28-.61,.37v1.89l5.69-2.96v-2.08l-.82,.45Zm-2.54-4.77l2.03,.5,.31,4.41-3.61,1.87-.23-4.9,1.5-1.88Zm-2.12,9.05l.08-1.46,5.2-2.82,.15,1.48-5.43,2.8Zm4.66-4.28l-.35-4.48-2.37-.82-1.47,2.35-.07,5.28-.61,.37v1.89l5.69-2.96v-2.08l-.82,.45Zm-2.54-4.77l2.03,.5,.31,4.41-3.61,1.87-.23-4.9,1.5-1.88Zm-2.12,9.05l.08-1.46,5.2-2.82,.15,1.48-5.43,2.8Zm-9.31,2.52l-.35-4.53-2.37-.83-1.46,2.36-.13,5.39-.56,.32v1.88l5.7-2.96v-2.07l-.83,.44Zm-2.54-4.83l2.04,.51,.07,4.56-3.42,1.88-.22-5.06,1.53-1.89Zm3.23,6.35l-5.35,2.85v-1.55l5.39-3.01-.04,1.71Zm-12.55-2.13s-.51-.23-1.18-.55l.3-3.01c-.44-1.18-1.18-2.26-2.02-3.21-.12-.02-.25-.02-.36-.01-.8,.05-1.38,.64-2.09,.92l.08,3.36-1.21-.77-.16,2.01,6.67,3.76-.03-2.5Zm-4.91-5.55c.53-.26,1.07-1.01,1.61-1.02,.07,0,.14,.01,.22,.04,1.06,.81,1.17,2.11,1.74,3.01l-.04,2.97-3.68-1.94,.15-3.06Zm-1.49,4.28c-.08-.3,.12-1.61,.12-1.66,1.85,1.03,4.08,2.36,6.1,2.97l.04,2.08-6.26-3.39Zm6.4,1.27s-.51-.23-1.18-.55l.3-3.01c-.44-1.18-1.18-2.26-2.02-3.21-.12-.02-.25-.02-.36-.01-.8,.05-1.38,.64-2.09,.92l.08,3.36-1.21-.77-.16,2.01,6.67,3.76-.03-2.5Zm-4.91-5.55c.53-.26,1.07-1.01,1.61-1.02,.07,0,.14,.01,.22,.04,1.06,.81,1.17,2.11,1.74,3.01l-.04,2.97-3.68-1.94,.15-3.06Zm-1.49,4.28c-.08-.3,.12-1.61,.12-1.66,1.85,1.03,4.08,2.36,6.1,2.97l.04,2.08-6.26-3.39Zm18.26,1.88l-.35-4.53-2.37-.83-1.46,2.36-.13,5.39-.56,.32v1.88l5.7-2.96v-2.07l-.83,.44Zm-2.54-4.83l2.04,.51,.07,4.56-3.42,1.88-.22-5.06,1.53-1.89Zm3.23,6.35l-5.35,2.85v-1.55l5.39-3.01-.04,1.71Zm13.28-8.32l-.35-4.48-2.37-.82-1.47,2.35-.07,5.28-.61,.37v1.89l5.69-2.96v-2.08l-.82,.45Zm-2.54-4.77l2.03,.5,.31,4.41-3.61,1.87-.23-4.9,1.5-1.88Zm-2.12,9.05l.08-1.46,5.2-2.82,.15,1.48-5.43,2.8Zm4.66-4.28l-.35-4.48-2.37-.82-1.47,2.35-.07,5.28-.61,.37v1.89l5.69-2.96v-2.08l-.82,.45Zm-2.54-4.77l2.03,.5,.31,4.41-3.61,1.87-.23-4.9,1.5-1.88Zm-2.12,9.05l.08-1.46,5.2-2.82,.15,1.48-5.43,2.8Zm-9.31,2.52l-.35-4.53-2.37-.83-1.46,2.36-.13,5.39-.56,.32v1.88l5.7-2.96v-2.07l-.83,.44Zm-2.54-4.83l2.04,.51,.07,4.56-3.42,1.88-.22-5.06,1.53-1.89Zm3.23,6.35l-5.35,2.85v-1.55l5.39-3.01-.04,1.71Zm-12.55-2.13s-.51-.23-1.18-.55l.3-3.01c-.44-1.18-1.18-2.26-2.02-3.21-.12-.02-.25-.02-.36-.01-.8,.05-1.38,.64-2.09,.92l.08,3.36-1.21-.77-.16,2.01,6.67,3.76-.03-2.5Zm-4.91-5.55c.53-.26,1.07-1.01,1.61-1.02,.07,0,.14,.01,.22,.04,1.06,.81,1.17,2.11,1.74,3.01l-.04,2.97-3.68-1.94,.15-3.06Zm-1.49,4.28c-.08-.3,.12-1.61,.12-1.66,1.85,1.03,4.08,2.36,6.1,2.97l.04,2.08-6.26-3.39Zm6.4,1.27s-.51-.23-1.18-.55l.3-3.01c-.44-1.18-1.18-2.26-2.02-3.21-.12-.02-.25-.02-.36-.01-.8,.05-1.38,.64-2.09,.92l.08,3.36-1.21-.77-.16,2.01,6.67,3.76-.03-2.5Zm-4.91-5.55c.53-.26,1.07-1.01,1.61-1.02,.07,0,.14,.01,.22,.04,1.06,.81,1.17,2.11,1.74,3.01l-.04,2.97-3.68-1.94,.15-3.06Zm-1.49,4.28c-.08-.3,.12-1.61,.12-1.66,1.85,1.03,4.08,2.36,6.1,2.97l.04,2.08-6.26-3.39Zm18.26,1.88l-.35-4.53-2.37-.83-1.46,2.36-.13,5.39-.56,.32v1.88l5.7-2.96v-2.07l-.83,.44Zm-2.54-4.83l2.04,.51,.07,4.56-3.42,1.88-.22-5.06,1.53-1.89Zm3.23,6.35l-5.35,2.85v-1.55l5.39-3.01-.04,1.71Zm13.28-8.32l-.35-4.48-2.37-.82-1.47,2.35-.07,5.28-.61,.37v1.89l5.69-2.96v-2.08l-.82,.45Zm-2.54-4.77l2.03,.5,.31,4.41-3.61,1.87-.23-4.9,1.5-1.88Zm-2.12,9.05l.08-1.46,5.2-2.82,.15,1.48-5.43,2.8Zm4.66-4.28l-.35-4.48-2.37-.82-1.47,2.35-.07,5.28-.61,.37v1.89l5.69-2.96v-2.08l-.82,.45Zm-2.54-4.77l2.03,.5,.31,4.41-3.61,1.87-.23-4.9,1.5-1.88Zm-2.12,9.05l.08-1.46,5.2-2.82,.15,1.48-5.43,2.8Zm-9.31,2.52l-.35-4.53-2.37-.83-1.46,2.36-.13,5.39-.56,.32v1.88l5.7-2.96v-2.07l-.83,.44Zm-2.54-4.83l2.04,.51,.07,4.56-3.42,1.88-.22-5.06,1.53-1.89Zm3.23,6.35l-5.35,2.85v-1.55l5.39-3.01-.04,1.71Zm-12.55-2.13s-.51-.23-1.18-.55l.3-3.01c-.44-1.18-1.18-2.26-2.02-3.21-.12-.02-.25-.02-.36-.01-.8,.05-1.38,.64-2.09,.92l.08,3.36-1.21-.77-.16,2.01,6.67,3.76-.03-2.5Zm-4.91-5.55c.53-.26,1.07-1.01,1.61-1.02,.07,0,.14,.01,.22,.04,1.06,.81,1.17,2.11,1.74,3.01l-.04,2.97-3.68-1.94,.15-3.06Zm-1.49,4.28c-.08-.3,.12-1.61,.12-1.66,1.85,1.03,4.08,2.36,6.1,2.97l.04,2.08-6.26-3.39Zm6.4,1.27s-.51-.23-1.18-.55l.3-3.01c-.44-1.18-1.18-2.26-2.02-3.21-.12-.02-.25-.02-.36-.01-.8,.05-1.38,.64-2.09,.92l.08,3.36-1.21-.77-.16,2.01,6.67,3.76-.03-2.5Zm-4.91-5.55c.53-.26,1.07-1.01,1.61-1.02,.07,0,.14,.01,.22,.04,1.06,.81,1.17,2.11,1.74,3.01l-.04,2.97-3.68-1.94,.15-3.06Zm-1.49,4.28c-.08-.3,.12-1.61,.12-1.66,1.85,1.03,4.08,2.36,6.1,2.97l.04,2.08-6.26-3.39Zm18.26,1.88l-.35-4.53-2.37-.83-1.46,2.36-.13,5.39-.56,.32v1.88l5.7-2.96v-2.07l-.83,.44Zm-2.54-4.83l2.04,.51,.07,4.56-3.42,1.88-.22-5.06,1.53-1.89Zm3.23,6.35l-5.35,2.85v-1.55l5.39-3.01-.04,1.71Zm13.28-8.32l-.35-4.48-2.37-.82-1.47,2.35-.07,5.28-.61,.37v1.89l5.69-2.96v-2.08l-.82,.45Zm-2.54-4.77l2.03,.5,.31,4.41-3.61,1.87-.23-4.9,1.5-1.88Zm-2.12,9.05l.08-1.46,5.2-2.82,.15,1.48-5.43,2.8Zm4.66-4.28l-.35-4.48-2.37-.82-1.47,2.35-.07,5.28-.61,.37v1.89l5.69-2.96v-2.08l-.82,.45Zm-2.54-4.77l2.03,.5,.31,4.41-3.61,1.87-.23-4.9,1.5-1.88Zm-2.12,9.05l.08-1.46,5.2-2.82,.15,1.48-5.43,2.8Zm-9.31,2.52l-.35-4.53-2.37-.83-1.46,2.36-.13,5.39-.56,.32v1.88l5.7-2.96v-2.07l-.83,.44Zm-2.54-4.83l2.04,.51,.07,4.56-3.42,1.88-.22-5.06,1.53-1.89Zm3.23,6.35l-5.35,2.85v-1.55l5.39-3.01-.04,1.71Zm-12.55-2.13s-.51-.23-1.18-.55l.3-3.01c-.44-1.18-1.18-2.26-2.02-3.21-.12-.02-.25-.02-.36-.01-.8,.05-1.38,.64-2.09,.92l.08,3.36-1.21-.77-.16,2.01,6.67,3.76-.03-2.5Zm-4.91-5.55c.53-.26,1.07-1.01,1.61-1.02,.07,0,.14,.01,.22,.04,1.06,.81,1.17,2.11,1.74,3.01l-.04,2.97-3.68-1.94,.15-3.06Zm-1.49,4.28c-.08-.3,.12-1.61,.12-1.66,1.85,1.03,4.08,2.36,6.1,2.97l.04,2.08-6.26-3.39Zm6.4,1.27s-.51-.23-1.18-.55l.3-3.01c-.44-1.18-1.18-2.26-2.02-3.21-.12-.02-.25-.02-.36-.01-.8,.05-1.38,.64-2.09,.92l.08,3.36-1.21-.77-.16,2.01,6.67,3.76-.03-2.5Zm-4.91-5.55c.53-.26,1.07-1.01,1.61-1.02,.07,0,.14,.01,.22,.04,1.06,.81,1.17,2.11,1.74,3.01l-.04,2.97-3.68-1.94,.15-3.06Zm-1.49,4.28c-.08-.3,.12-1.61,.12-1.66,1.85,1.03,4.08,2.36,6.1,2.97l.04,2.08-6.26-3.39Zm18.26,1.88l-.35-4.53-2.37-.83-1.46,2.36-.13,5.39-.56,.32v1.88l5.7-2.96v-2.07l-.83,.44Zm-2.54-4.83l2.04,.51,.07,4.56-3.42,1.88-.22-5.06,1.53-1.89Zm3.23,6.35l-5.35,2.85v-1.55l5.39-3.01-.04,1.71Zm13.28-8.32l-.35-4.48-2.37-.82-1.47,2.35-.07,5.28-.61,.37v1.89l5.69-2.96v-2.08l-.82,.45Zm-2.54-4.77l2.03,.5,.31,4.41-3.61,1.87-.23-4.9,1.5-1.88Zm-2.12,9.05l.08-1.46,5.2-2.82,.15,1.48-5.43,2.8Zm4.66-4.28l-.35-4.48-2.37-.82-1.47,2.35-.07,5.28-.61,.37v1.89l5.69-2.96v-2.08l-.82,.45Zm-2.54-4.77l2.03,.5,.31,4.41-3.61,1.87-.23-4.9,1.5-1.88Zm-2.12,9.05l.08-1.46,5.2-2.82,.15,1.48-5.43,2.8Zm-9.31,2.52l-.35-4.53-2.37-.83-1.46,2.36-.13,5.39-.56,.32v1.88l5.7-2.96v-2.07l-.83,.44Zm-2.54-4.83l2.04,.51,.07,4.56-3.42,1.88-.22-5.06,1.53-1.89Zm3.23,6.35l-5.35,2.85v-1.55l5.39-3.01-.04,1.71Zm-12.55-2.13s-.51-.23-1.18-.55l.3-3.01c-.44-1.18-1.18-2.26-2.02-3.21-.12-.02-.25-.02-.36-.01-.8,.05-1.38,.64-2.09,.92l.08,3.36-1.21-.77-.16,2.01,6.67,3.76-.03-2.5Zm-4.91-5.55c.53-.26,1.07-1.01,1.61-1.02,.07,0,.14,.01,.22,.04,1.06,.81,1.17,2.11,1.74,3.01l-.04,2.97-3.68-1.94,.15-3.06Zm-1.49,4.28c-.08-.3,.12-1.61,.12-1.66,1.85,1.03,4.08,2.36,6.1,2.97l.04,2.08-6.26-3.39Zm6.4,1.27s-.51-.23-1.18-.55l.3-3.01c-.44-1.18-1.18-2.26-2.02-3.21-.12-.02-.25-.02-.36-.01-.8,.05-1.38,.64-2.09,.92l.08,3.36-1.21-.77-.16,2.01,6.67,3.76-.03-2.5Zm-4.91-5.55c.53-.26,1.07-1.01,1.61-1.02,.07,0,.14,.01,.22,.04,1.06,.81,1.17,2.11,1.74,3.01l-.04,2.97-3.68-1.94,.15-3.06Zm-1.49,4.28c-.08-.3,.12-1.61,.12-1.66,1.85,1.03,4.08,2.36,6.1,2.97l.04,2.08-6.26-3.39Zm18.26,1.88l-.35-4.53-2.37-.83-1.46,2.36-.13,5.39-.56,.32v1.88l5.7-2.96v-2.07l-.83,.44Zm-2.54-4.83l2.04,.51,.07,4.56-3.42,1.88-.22-5.06,1.53-1.89Zm3.23,6.35l-5.35,2.85v-1.55l5.39-3.01-.04,1.71Zm13.28-8.32l-.35-4.48-2.37-.82-1.47,2.35-.07,5.28-.61,.37v1.89l5.69-2.96v-2.08l-.82,.45Zm-2.54-4.77l2.03,.5,.31,4.41-3.61,1.87-.23-4.9,1.5-1.88Zm-2.12,9.05l.08-1.46,5.2-2.82,.15,1.48-5.43,2.8Zm4.66-4.28l-.35-4.48-2.37-.82-1.47,2.35-.07,5.28-.61,.37v1.89l5.69-2.96v-2.08l-.82,.45Zm-2.54-4.77l2.03,.5,.31,4.41-3.61,1.87-.23-4.9,1.5-1.88Zm-2.12,9.05l.08-1.46,5.2-2.82,.15,1.48-5.43,2.8Zm-9.31,2.52l-.35-4.53-2.37-.83-1.46,2.36-.13,5.39-.56,.32v1.88l5.7-2.96v-2.07l-.83,.44Zm-2.54-4.83l2.04,.51,.07,4.56-3.42,1.88-.22-5.06,1.53-1.89Zm3.23,6.35l-5.35,2.85v-1.55l5.39-3.01-.04,1.71Zm-12.55-2.13s-.51-.23-1.18-.55l.3-3.01c-.44-1.18-1.18-2.26-2.02-3.21-.12-.02-.25-.02-.36-.01-.8,.05-1.38,.64-2.09,.92l.08,3.36-1.21-.77-.16,2.01,6.67,3.76-.03-2.5Zm-4.91-5.55c.53-.26,1.07-1.01,1.61-1.02,.07,0,.14,.01,.22,.04,1.06,.81,1.17,2.11,1.74,3.01l-.04,2.97-3.68-1.94,.15-3.06Zm-1.49,4.28c-.08-.3,.12-1.61,.12-1.66,1.85,1.03,4.08,2.36,6.1,2.97l.04,2.08-6.26-3.39Zm6.4,1.27s-.51-.23-1.18-.55l.3-3.01c-.44-1.18-1.18-2.26-2.02-3.21-.12-.02-.25-.02-.36-.01-.8,.05-1.38,.64-2.09,.92l.08,3.36-1.21-.77-.16,2.01,6.67,3.76-.03-2.5Zm-4.91-5.55c.53-.26,1.07-1.01,1.61-1.02,.07,0,.14,.01,.22,.04,1.06,.81,1.17,2.11,1.74,3.01l-.04,2.97-3.68-1.94,.15-3.06Zm-1.49,4.28c-.08-.3,.12-1.61,.12-1.66,1.85,1.03,4.08,2.36,6.1,2.97l.04,2.08-6.26-3.39Zm18.26,1.88l-.35-4.53-2.37-.83-1.46,2.36-.13,5.39-.56,.32v1.88l5.7-2.96v-2.07l-.83,.44Zm-2.54-4.83l2.04,.51,.07,4.56-3.42,1.88-.22-5.06,1.53-1.89Zm3.23,6.35l-5.35,2.85v-1.55l5.39-3.01-.04,1.71Zm13.28-8.32l-.35-4.48-2.37-.82-1.47,2.35-.07,5.28-.61,.37v1.89l5.69-2.96v-2.08l-.82,.45Zm-2.54-4.77l2.03,.5,.31,4.41-3.61,1.87-.23-4.9,1.5-1.88Zm-2.12,9.05l.08-1.46,5.2-2.82,.15,1.48-5.43,2.8Zm4.66-4.28l-.35-4.48-2.37-.82-1.47,2.35-.07,5.28-.61,.37v1.89l5.69-2.96v-2.08l-.82,.45Zm-2.54-4.77l2.03,.5,.31,4.41-3.61,1.87-.23-4.9,1.5-1.88Zm-2.12,9.05l.08-1.46,5.2-2.82,.15,1.48-5.43,2.8Zm-9.31,2.52l-.35-4.53-2.37-.83-1.46,2.36-.13,5.39-.56,.32v1.88l5.7-2.96v-2.07l-.83,.44Zm-2.54-4.83l2.04,.51,.07,4.56-3.42,1.88-.22-5.06,1.53-1.89Zm3.23,6.35l-5.35,2.85v-1.55l5.39-3.01-.04,1.71Zm-12.55-2.13s-.51-.23-1.18-.55l.3-3.01c-.44-1.18-1.18-2.26-2.02-3.21-.12-.02-.25-.02-.36-.01-.8,.05-1.38,.64-2.09,.92l.08,3.36-1.21-.77-.16,2.01,6.67,3.76-.03-2.5Zm-4.91-5.55c.53-.26,1.07-1.01,1.61-1.02,.07,0,.14,.01,.22,.04,1.06,.81,1.17,2.11,1.74,3.01l-.04,2.97-3.68-1.94,.15-3.06Zm-1.49,4.28c-.08-.3,.12-1.61,.12-1.66,1.85,1.03,4.08,2.36,6.1,2.97l.04,2.08-6.26-3.39Zm6.4,1.27s-.51-.23-1.18-.55l.3-3.01c-.44-1.18-1.18-2.26-2.02-3.21-.12-.02-.25-.02-.36-.01-.8,.05-1.38,.64-2.09,.92l.08,3.36-1.21-.77-.16,2.01,6.67,3.76-.03-2.5Zm-4.91-5.55c.53-.26,1.07-1.01,1.61-1.02,.07,0,.14,.01,.22,.04,1.06,.81,1.17,2.11,1.74,3.01l-.04,2.97-3.68-1.94,.15-3.06Zm-1.49,4.28c-.08-.3,.12-1.61,.12-1.66,1.85,1.03,4.08,2.36,6.1,2.97l.04,2.08-6.26-3.39Zm18.26,1.88l-.35-4.53-2.37-.83-1.46,2.36-.13,5.39-.56,.32v1.88l5.7-2.96v-2.07l-.83,.44Zm-2.54-4.83l2.04,.51,.07,4.56-3.42,1.88-.22-5.06,1.53-1.89Zm3.23,6.35l-5.35,2.85v-1.55l5.39-3.01-.04,1.71Zm13.28-8.32l-.35-4.48-2.37-.82-1.47,2.35-.07,5.28-.61,.37v1.89l5.69-2.96v-2.08l-.82,.45Zm-2.54-4.77l2.03,.5,.31,4.41-3.61,1.87-.23-4.9,1.5-1.88Zm-2.12,9.05l.08-1.46,5.2-2.82,.15,1.48-5.43,2.8Zm4.66-4.28l-.35-4.48-2.37-.82-1.47,2.35-.07,5.28-.61,.37v1.89l5.69-2.96v-2.08l-.82,.45Zm-2.54-4.77l2.03,.5,.31,4.41-3.61,1.87-.23-4.9,1.5-1.88Zm-2.12,9.05l.08-1.46,5.2-2.82,.15,1.48-5.43,2.8Zm-9.31,2.52l-.35-4.53-2.37-.83-1.46,2.36-.13,5.39-.56,.32v1.88l5.7-2.96v-2.07l-.83,.44Zm-2.54-4.83l2.04,.51,.07,4.56-3.42,1.88-.22-5.06,1.53-1.89Zm3.23,6.35l-5.35,2.85v-1.55l5.39-3.01-.04,1.71Zm-12.55-2.13s-.51-.23-1.18-.55l.3-3.01c-.44-1.18-1.18-2.26-2.02-3.21-.12-.02-.25-.02-.36-.01-.8,.05-1.38,.64-2.09,.92l.08,3.36-1.21-.77-.16,2.01,6.67,3.76-.03-2.5Zm-4.91-5.55c.53-.26,1.07-1.01,1.61-1.02,.07,0,.14,.01,.22,.04,1.06,.81,1.17,2.11,1.74,3.01l-.04,2.97-3.68-1.94,.15-3.06Zm-1.49,4.28c-.08-.3,.12-1.61,.12-1.66,1.85,1.03,4.08,2.36,6.1,2.97l.04,2.08-6.26-3.39Zm6.4,1.27s-.51-.23-1.18-.55l.3-3.01c-.44-1.18-1.18-2.26-2.02-3.21-.12-.02-.25-.02-.36-.01-.8,.05-1.38,.64-2.09,.92l.08,3.36-1.21-.77-.16,2.01,6.67,3.76-.03-2.5Zm-4.91-5.55c.53-.26,1.07-1.01,1.61-1.02,.07,0,.14,.01,.22,.04,1.06,.81,1.17,2.11,1.74,3.01l-.04,2.97-3.68-1.94,.15-3.06Zm-1.49,4.28c-.08-.3,.12-1.61,.12-1.66,1.85,1.03,4.08,2.36,6.1,2.97l.04,2.08-6.26-3.39Zm18.26,1.88l-.35-4.53-2.37-.83-1.46,2.36-.13,5.39-.56,.32v1.88l5.7-2.96v-2.07l-.83,.44Zm-2.54-4.83l2.04,.51,.07,4.56-3.42,1.88-.22-5.06,1.53-1.89Zm3.23,6.35l-5.35,2.85v-1.55l5.39-3.01-.04,1.71Zm13.28-8.32l-.35-4.48-2.37-.82-1.47,2.35-.07,5.28-.61,.37v1.89l5.69-2.96v-2.08l-.82,.45Zm-2.54-4.77l2.03,.5,.31,4.41-3.61,1.87-.23-4.9,1.5-1.88Zm-2.12,9.05l.08-1.46,5.2-2.82,.15,1.48-5.43,2.8Zm4.66-4.28l-.35-4.48-2.37-.82-1.47,2.35-.07,5.28-.61,.37v1.89l5.69-2.96v-2.08l-.82,.45Zm-2.54-4.77l2.03,.5,.31,4.41-3.61,1.87-.23-4.9,1.5-1.88Zm-2.12,9.05l.08-1.46,5.2-2.82,.15,1.48-5.43,2.8Zm-9.31,2.52l-.35-4.53-2.37-.83-1.46,2.36-.13,5.39-.56,.32v1.88l5.7-2.96v-2.07l-.83,.44Zm-2.54-4.83l2.04,.51,.07,4.56-3.42,1.88-.22-5.06,1.53-1.89Zm3.23,6.35l-5.35,2.85v-1.55l5.39-3.01-.04,1.71Zm-12.55-2.13s-.51-.23-1.18-.55l.3-3.01c-.44-1.18-1.18-2.26-2.02-3.21-.12-.02-.25-.02-.36-.01-.8,.05-1.38,.64-2.09,.92l.08,3.36-1.21-.77-.16,2.01,6.67,3.76-.03-2.5Zm-4.91-5.55c.53-.26,1.07-1.01,1.61-1.02,.07,0,.14,.01,.22,.04,1.06,.81,1.17,2.11,1.74,3.01l-.04,2.97-3.68-1.94,.15-3.06Zm-1.49,4.28c-.08-.3,.12-1.61,.12-1.66,1.85,1.03,4.08,2.36,6.1,2.97l.04,2.08-6.26-3.39Zm6.4,1.27s-.51-.23-1.18-.55l.3-3.01c-.44-1.18-1.18-2.26-2.02-3.21-.12-.02-.25-.02-.36-.01-.8,.05-1.38,.64-2.09,.92l.08,3.36-1.21-.77-.16,2.01,6.67,3.76-.03-2.5Zm-4.91-5.55c.53-.26,1.07-1.01,1.61-1.02,.07,0,.14,.01,.22,.04,1.06,.81,1.17,2.11,1.74,3.01l-.04,2.97-3.68-1.94,.15-3.06Zm-1.49,4.28c-.08-.3,.12-1.61,.12-1.66,1.85,1.03,4.08,2.36,6.1,2.97l.04,2.08-6.26-3.39Zm18.26,1.88l-.35-4.53-2.37-.83-1.46,2.36-.13,5.39-.56,.32v1.88l5.7-2.96v-2.07l-.83,.44Zm-2.54-4.83l2.04,.51,.07,4.56-3.42,1.88-.22-5.06,1.53-1.89Zm3.23,6.35l-5.35,2.85v-1.55l5.39-3.01-.04,1.71Zm13.28-8.32l-.35-4.48-2.37-.82-1.47,2.35-.07,5.28-.61,.37v1.89l5.69-2.96v-2.08l-.82,.45Zm-2.54-4.77l2.03,.5,.31,4.41-3.61,1.87-.23-4.9,1.5-1.88Zm-2.12,9.05l.08-1.46,5.2-2.82,.15,1.48-5.43,2.8Zm4.66-4.28l-.35-4.48-2.37-.82-1.47,2.35-.07,5.28-.61,.37v1.89l5.69-2.96v-2.08l-.82,.45Zm-2.54-4.77l2.03,.5,.31,4.41-3.61,1.87-.23-4.9,1.5-1.88Zm-2.12,9.05l.08-1.46,5.2-2.82,.15,1.48-5.43,2.8Zm-9.31,2.52l-.35-4.53-2.37-.83-1.46,2.36-.13,5.39-.56,.32v1.88l5.7-2.96v-2.07l-.83,.44Zm-2.54-4.83l2.04,.51,.07,4.56-3.42,1.88-.22-5.06,1.53-1.89Zm3.23,6.35l-5.35,2.85v-1.55l5.39-3.01-.04,1.71Zm-12.55-2.13s-.51-.23-1.18-.55l.3-3.01c-.44-1.18-1.18-2.26-2.02-3.21-.12-.02-.25-.02-.36-.01-.8,.05-1.38,.64-2.09,.92l.08,3.36-1.21-.77-.16,2.01,6.67,3.76-.03-2.5Zm-4.91-5.55c.53-.26,1.07-1.01,1.61-1.02,.07,0,.14,.01,.22,.04,1.06,.81,1.17,2.11,1.74,3.01l-.04,2.97-3.68-1.94,.15-3.06Zm-1.49,4.28c-.08-.3,.12-1.61,.12-1.66,1.85,1.03,4.08,2.36,6.1,2.97l.04,2.08-6.26-3.39Zm6.4,1.27s-.51-.23-1.18-.55l.3-3.01c-.44-1.18-1.18-2.26-2.02-3.21-.12-.02-.25-.02-.36-.01-.8,.05-1.38,.64-2.09,.92l.08,3.36-1.21-.77-.16,2.01,6.67,3.76-.03-2.5Zm-4.91-5.55c.53-.26,1.07-1.01,1.61-1.02,.07,0,.14,.01,.22,.04,1.06,.81,1.17,2.11,1.74,3.01l-.04,2.97-3.68-1.94,.15-3.06Zm-1.49,4.28c-.08-.3,.12-1.61,.12-1.66,1.85,1.03,4.08,2.36,6.1,2.97l.04,2.08-6.26-3.39Zm18.26,1.88l-.35-4.53-2.37-.83-1.46,2.36-.13,5.39-.56,.32v1.88l5.7-2.96v-2.07l-.83,.44Zm-2.54-4.83l2.04,.51,.07,4.56-3.42,1.88-.22-5.06,1.53-1.89Zm3.23,6.35l-5.35,2.85v-1.55l5.39-3.01-.04,1.71Zm13.28-8.32l-.35-4.48-2.37-.82-1.47,2.35-.07,5.28-.61,.37v1.89l5.69-2.96v-2.08l-.82,.45Zm-2.54-4.77l2.03,.5,.31,4.41-3.61,1.87-.23-4.9,1.5-1.88Zm-2.12,9.05l.08-1.46,5.2-2.82,.15,1.48-5.43,2.8Zm4.66-4.28l-.35-4.48-2.37-.82-1.47,2.35-.07,5.28-.61,.37v1.89l5.69-2.96v-2.08l-.82,.45Zm-2.54-4.77l2.03,.5,.31,4.41-3.61,1.87-.23-4.9,1.5-1.88Zm-2.12,9.05l.08-1.46,5.2-2.82,.15,1.48-5.43,2.8Zm-9.31,2.52l-.35-4.53-2.37-.83-1.46,2.36-.13,5.39-.56,.32v1.88l5.7-2.96v-2.07l-.83,.44Zm-2.54-4.83l2.04,.51,.07,4.56-3.42,1.88-.22-5.06,1.53-1.89Zm3.23,6.35l-5.35,2.85v-1.55l5.39-3.01-.04,1.71Zm-12.55-2.13s-.51-.23-1.18-.55l.3-3.01c-.44-1.18-1.18-2.26-2.02-3.21-.12-.02-.25-.02-.36-.01-.8,.05-1.38,.64-2.09,.92l.08,3.36-1.21-.77-.16,2.01,6.67,3.76-.03-2.5Zm-4.91-5.55c.53-.26,1.07-1.01,1.61-1.02,.07,0,.14,.01,.22,.04,1.06,.81,1.17,2.11,1.74,3.01l-.04,2.97-3.68-1.94,.15-3.06Zm-1.49,4.28c-.08-.3,.12-1.61,.12-1.66,1.85,1.03,4.08,2.36,6.1,2.97l.04,2.08-6.26-3.39Zm6.4,1.27s-.51-.23-1.18-.55l.3-3.01c-.44-1.18-1.18-2.26-2.02-3.21-.12-.02-.25-.02-.36-.01-.8,.05-1.38,.64-2.09,.92l.08,3.36-1.21-.77-.16,2.01,6.67,3.76-.03-2.5Zm-4.91-5.55c.53-.26,1.07-1.01,1.61-1.02,.07,0,.14,.01,.22,.04,1.06,.81,1.17,2.11,1.74,3.01l-.04,2.97-3.68-1.94,.15-3.06Zm-1.49,4.28c-.08-.3,.12-1.61,.12-1.66,1.85,1.03,4.08,2.36,6.1,2.97l.04,2.08-6.26-3.39Zm18.26,1.88l-.35-4.53-2.37-.83-1.46,2.36-.13,5.39-.56,.32v1.88l5.7-2.96v-2.07l-.83,.44Zm-2.54-4.83l2.04,.51,.07,4.56-3.42,1.88-.22-5.06,1.53-1.89Zm3.23,6.35l-5.35,2.85v-1.55l5.39-3.01-.04,1.71Zm13.28-8.32l-.35-4.48-2.37-.82-1.47,2.35-.07,5.28-.61,.37v1.89l5.69-2.96v-2.08l-.82,.45Zm-2.54-4.77l2.03,.5,.31,4.41-3.61,1.87-.23-4.9,1.5-1.88Zm-2.12,9.05l.08-1.46,5.2-2.82,.15,1.48-5.43,2.8Zm4.66-4.28l-.35-4.48-2.37-.82-1.47,2.35-.07,5.28-.61,.37v1.89l5.69-2.96v-2.08l-.82,.45Zm-2.54-4.77l2.03,.5,.31,4.41-3.61,1.87-.23-4.9,1.5-1.88Zm-2.12,9.05l.08-1.46,5.2-2.82,.15,1.48-5.43,2.8Zm-9.31,2.52l-.35-4.53-2.37-.83-1.46,2.36-.13,5.39-.56,.32v1.88l5.7-2.96v-2.07l-.83,.44Zm-2.54-4.83l2.04,.51,.07,4.56-3.42,1.88-.22-5.06,1.53-1.89Zm3.23,6.35l-5.35,2.85v-1.55l5.39-3.01-.04,1.71Zm-12.55-2.13s-.51-.23-1.18-.55l.3-3.01c-.44-1.18-1.18-2.26-2.02-3.21-.12-.02-.25-.02-.36-.01-.8,.05-1.38,.64-2.09,.92l.08,3.36-1.21-.77-.16,2.01,6.67,3.76-.03-2.5Zm-4.91-5.55c.53-.26,1.07-1.01,1.61-1.02,.07,0,.14,.01,.22,.04,1.06,.81,1.17,2.11,1.74,3.01l-.04,2.97-3.68-1.94,.15-3.06Zm-1.49,4.28c-.08-.3,.12-1.61,.12-1.66,1.85,1.03,4.08,2.36,6.1,2.97l.04,2.08-6.26-3.39Zm6.4,1.27s-.51-.23-1.18-.55l.3-3.01c-.44-1.18-1.18-2.26-2.02-3.21-.12-.02-.25-.02-.36-.01-.8,.05-1.38,.64-2.09,.92l.08,3.36-1.21-.77-.16,2.01,6.67,3.76-.03-2.5Zm-4.91-5.55c.53-.26,1.07-1.01,1.61-1.02,.07,0,.14,.01,.22,.04,1.06,.81,1.17,2.11,1.74,3.01l-.04,2.97-3.68-1.94,.15-3.06Zm-1.49,4.28c-.08-.3,.12-1.61,.12-1.66,1.85,1.03,4.08,2.36,6.1,2.97l.04,2.08-6.26-3.39Zm18.26,1.88l-.35-4.53-2.37-.83-1.46,2.36-.13,5.39-.56,.32v1.88l5.7-2.96v-2.07l-.83,.44Zm-2.54-4.83l2.04,.51,.07,4.56-3.42,1.88-.22-5.06,1.53-1.89Zm3.23,6.35l-5.35,2.85v-1.55l5.39-3.01-.04,1.71Zm13.28-8.32l-.35-4.48-2.37-.82-1.47,2.35-.07,5.28-.61,.37v1.89l5.69-2.96v-2.08l-.82,.45Zm-2.54-4.77l2.03,.5,.31,4.41-3.61,1.87-.23-4.9,1.5-1.88Zm-2.12,9.05l.08-1.46,5.2-2.82,.15,1.48-5.43,2.8Zm4.66-4.28l-.35-4.48-2.37-.82-1.47,2.35-.07,5.28-.61,.37v1.89l5.69-2.96v-2.08l-.82,.45Zm-2.54-4.77l2.03,.5,.31,4.41-3.61,1.87-.23-4.9,1.5-1.88Zm-2.12,9.05l.08-1.46,5.2-2.82,.15,1.48-5.43,2.8Zm-9.31,2.52l-.35-4.53-2.37-.83-1.46,2.36-.13,5.39-.56,.32v1.88l5.7-2.96v-2.07l-.83,.44Zm-2.54-4.83l2.04,.51,.07,4.56-3.42,1.88-.22-5.06,1.53-1.89Zm3.23,6.35l-5.35,2.85v-1.55l5.39-3.01-.04,1.71Zm-12.55-2.13s-.51-.23-1.18-.55l.3-3.01c-.44-1.18-1.18-2.26-2.02-3.21-.12-.02-.25-.02-.36-.01-.8,.05-1.38,.64-2.09,.92l.08,3.36-1.21-.77-.16,2.01,6.67,3.76-.03-2.5Zm-4.91-5.55c.53-.26,1.07-1.01,1.61-1.02,.07,0,.14,.01,.22,.04,1.06,.81,1.17,2.11,1.74,3.01l-.04,2.97-3.68-1.94,.15-3.06Zm-1.49,4.28c-.08-.3,.12-1.61,.12-1.66,1.85,1.03,4.08,2.36,6.1,2.97l.04,2.08-6.26-3.39Zm6.4,1.27s-.51-.23-1.18-.55l.3-3.01c-.44-1.18-1.18-2.26-2.02-3.21-.12-.02-.25-.02-.36-.01-.8,.05-1.38,.64-2.09,.92l.08,3.36-1.21-.77-.16,2.01,6.67,3.76-.03-2.5Zm-4.91-5.55c.53-.26,1.07-1.01,1.61-1.02,.07,0,.14,.01,.22,.04,1.06,.81,1.17,2.11,1.74,3.01l-.04,2.97-3.68-1.94,.15-3.06Zm-1.49,4.28c-.08-.3,.12-1.61,.12-1.66,1.85,1.03,4.08,2.36,6.1,2.97l.04,2.08-6.26-3.39Zm18.26,1.88l-.35-4.53-2.37-.83-1.46,2.36-.13,5.39-.56,.32v1.88l5.7-2.96v-2.07l-.83,.44Zm-2.54-4.83l2.04,.51,.07,4.56-3.42,1.88-.22-5.06,1.53-1.89Zm3.23,6.35l-5.35,2.85v-1.55l5.39-3.01-.04,1.71Zm13.28-8.32l-.35-4.48-2.37-.82-1.47,2.35-.07,5.28-.61,.37v1.89l5.69-2.96v-2.08l-.82,.45Zm-2.54-4.77l2.03,.5,.31,4.41-3.61,1.87-.23-4.9,1.5-1.88Zm-2.12,9.05l.08-1.46,5.2-2.82,.15,1.48-5.43,2.8Zm4.66-4.28l-.35-4.48-2.37-.82-1.47,2.35-.07,5.28-.61,.37v1.89l5.69-2.96v-2.08l-.82,.45Zm-2.54-4.77l2.03,.5,.31,4.41-3.61,1.87-.23-4.9,1.5-1.88Zm-2.12,9.05l.08-1.46,5.2-2.82,.15,1.48-5.43,2.8Zm-9.31,2.52l-.35-4.53-2.37-.83-1.46,2.36-.13,5.39-.56,.32v1.88l5.7-2.96v-2.07l-.83,.44Zm-2.54-4.83l2.04,.51,.07,4.56-3.42,1.88-.22-5.06,1.53-1.89Zm3.23,6.35l-5.35,2.85v-1.55l5.39-3.01-.04,1.71Zm-12.55-2.13s-.51-.23-1.18-.55l.3-3.01c-.44-1.18-1.18-2.26-2.02-3.21-.12-.02-.25-.02-.36-.01-.8,.05-1.38,.64-2.09,.92l.08,3.36-1.21-.77-.16,2.01,6.67,3.76-.03-2.5Zm-4.91-5.55c.53-.26,1.07-1.01,1.61-1.02,.07,0,.14,.01,.22,.04,1.06,.81,1.17,2.11,1.74,3.01l-.04,2.97-3.68-1.94,.15-3.06Zm-1.49,4.28c-.08-.3,.12-1.61,.12-1.66,1.85,1.03,4.08,2.36,6.1,2.97l.04,2.08-6.26-3.39Zm6.4,1.27s-.51-.23-1.18-.55l.3-3.01c-.44-1.18-1.18-2.26-2.02-3.21-.12-.02-.25-.02-.36-.01-.8,.05-1.38,.64-2.09,.92l.08,3.36-1.21-.77-.16,2.01,6.67,3.76-.03-2.5Zm-4.91-5.55c.53-.26,1.07-1.01,1.61-1.02,.07,0,.14,.01,.22,.04,1.06,.81,1.17,2.11,1.74,3.01l-.04,2.97-3.68-1.94,.15-3.06Zm-1.49,4.28c-.08-.3,.12-1.61,.12-1.66,1.85,1.03,4.08,2.36,6.1,2.97l.04,2.08-6.26-3.39Zm18.26,1.88l-.35-4.53-2.37-.83-1.46,2.36-.13,5.39-.56,.32v1.88l5.7-2.96v-2.07l-.83,.44Zm-2.54-4.83l2.04,.51,.07,4.56-3.42,1.88-.22-5.06,1.53-1.89Zm3.23,6.35l-5.35,2.85v-1.55l5.39-3.01-.04,1.71Zm13.28-8.32l-.35-4.48-2.37-.82-1.47,2.35-.07,5.28-.61,.37v1.89l5.69-2.96v-2.08l-.82,.45Zm-2.54-4.77l2.03,.5,.31,4.41-3.61,1.87-.23-4.9,1.5-1.88Zm-2.12,9.05l.08-1.46,5.2-2.82,.15,1.48-5.43,2.8Zm4.66-4.28l-.35-4.48-2.37-.82-1.47,2.35-.07,5.28-.61,.37v1.89l5.69-2.96v-2.08l-.82,.45Zm-2.54-4.77l2.03,.5,.31,4.41-3.61,1.87-.23-4.9,1.5-1.88Zm-2.12,9.05l.08-1.46,5.2-2.82,.15,1.48-5.43,2.8Zm-9.31,2.52l-.35-4.53-2.37-.83-1.46,2.36-.13,5.39-.56,.32v1.88l5.7-2.96v-2.07l-.83,.44Zm-2.54-4.83l2.04,.51,.07,4.56-3.42,1.88-.22-5.06,1.53-1.89Zm3.23,6.35l-5.35,2.85v-1.55l5.39-3.01-.04,1.71Zm-12.55-2.13s-.51-.23-1.18-.55l.3-3.01c-.44-1.18-1.18-2.26-2.02-3.21-.12-.02-.25-.02-.36-.01-.8,.05-1.38,.64-2.09,.92l.08,3.36-1.21-.77-.16,2.01,6.67,3.76-.03-2.5Zm-4.91-5.55c.53-.26,1.07-1.01,1.61-1.02,.07,0,.14,.01,.22,.04,1.06,.81,1.17,2.11,1.74,3.01l-.04,2.97-3.68-1.94,.15-3.06Zm-1.49,4.28c-.08-.3,.12-1.61,.12-1.66,1.85,1.03,4.08,2.36,6.1,2.97l.04,2.08-6.26-3.39Zm6.4,1.27s-.51-.23-1.18-.55l.3-3.01c-.44-1.18-1.18-2.26-2.02-3.21-.12-.02-.25-.02-.36-.01-.8,.05-1.38,.64-2.09,.92l.08,3.36-1.21-.77-.16,2.01,6.67,3.76-.03-2.5Zm-4.91-5.55c.53-.26,1.07-1.01,1.61-1.02,.07,0,.14,.01,.22,.04,1.06,.81,1.17,2.11,1.74,3.01l-.04,2.97-3.68-1.94,.15-3.06Zm-1.49,4.28c-.08-.3,.12-1.61,.12-1.66,1.85,1.03,4.08,2.36,6.1,2.97l.04,2.08-6.26-3.39Zm18.26,1.88l-.35-4.53-2.37-.83-1.46,2.36-.13,5.39-.56,.32v1.88l5.7-2.96v-2.07l-.83,.44Zm-2.54-4.83l2.04,.51,.07,4.56-3.42,1.88-.22-5.06,1.53-1.89Zm3.23,6.35l-5.35,2.85v-1.55l5.39-3.01-.04,1.71Zm13.28-8.32l-.35-4.48-2.37-.82-1.47,2.35-.07,5.28-.61,.37v1.89l5.69-2.96v-2.08l-.82,.45Zm-2.54-4.77l2.03,.5,.31,4.41-3.61,1.87-.23-4.9,1.5-1.88Zm-2.12,9.05l.08-1.46,5.2-2.82,.15,1.48-5.43,2.8Zm4.66-4.28l-.35-4.48-2.37-.82-1.47,2.35-.07,5.28-.61,.37v1.89l5.69-2.96v-2.08l-.82,.45Zm-2.54-4.77l2.03,.5,.31,4.41-3.61,1.87-.23-4.9,1.5-1.88Zm-2.12,9.05l.08-1.46,5.2-2.82,.15,1.48-5.43,2.8Zm-9.31,2.52l-.35-4.53-2.37-.83-1.46,2.36-.13,5.39-.56,.32v1.88l5.7-2.96v-2.07l-.83,.44Zm-2.54-4.83l2.04,.51,.07,4.56-3.42,1.88-.22-5.06,1.53-1.89Zm3.23,6.35l-5.35,2.85v-1.55l5.39-3.01-.04,1.71Zm-12.55-2.13s-.51-.23-1.18-.55l.3-3.01c-.44-1.18-1.18-2.26-2.02-3.21-.12-.02-.25-.02-.36-.01-.8,.05-1.38,.64-2.09,.92l.08,3.36-1.21-.77-.16,2.01,6.67,3.76-.03-2.5Zm-4.91-5.55c.53-.26,1.07-1.01,1.61-1.02,.07,0,.14,.01,.22,.04,1.06,.81,1.17,2.11,1.74,3.01l-.04,2.97-3.68-1.94,.15-3.06Zm-1.49,4.28c-.08-.3,.12-1.61,.12-1.66,1.85,1.03,4.08,2.36,6.1,2.97l.04,2.08-6.26-3.39Zm6.4,1.27s-.51-.23-1.18-.55l.3-3.01c-.44-1.18-1.18-2.26-2.02-3.21-.12-.02-.25-.02-.36-.01-.8,.05-1.38,.64-2.09,.92l.08,3.36-1.21-.77-.16,2.01,6.67,3.76-.03-2.5Zm-4.91-5.55c.53-.26,1.07-1.01,1.61-1.02,.07,0,.14,.01,.22,.04,1.06,.81,1.17,2.11,1.74,3.01l-.04,2.97-3.68-1.94,.15-3.06Zm-1.49,4.28c-.08-.3,.12-1.61,.12-1.66,1.85,1.03,4.08,2.36,6.1,2.97l.04,2.08-6.26-3.39Zm18.26,1.88l-.35-4.53-2.37-.83-1.46,2.36-.13,5.39-.56,.32v1.88l5.7-2.96v-2.07l-.83,.44Zm-2.54-4.83l2.04,.51,.07,4.56-3.42,1.88-.22-5.06,1.53-1.89Zm3.23,6.35l-5.35,2.85v-1.55l5.39-3.01-.04,1.71Zm13.28-8.32l-.35-4.48-2.37-.82-1.47,2.35-.07,5.28-.61,.37v1.89l5.69-2.96v-2.08l-.82,.45Zm-2.54-4.77l2.03,.5,.31,4.41-3.61,1.87-.23-4.9,1.5-1.88Zm-2.12,9.05l.08-1.46,5.2-2.82,.15,1.48-5.43,2.8Zm4.66-4.28l-.35-4.48-2.37-.82-1.47,2.35-.07,5.28-.61,.37v1.89l5.69-2.96v-2.08l-.82,.45Zm-2.54-4.77l2.03,.5,.31,4.41-3.61,1.87-.23-4.9,1.5-1.88Zm-2.12,9.05l.08-1.46,5.2-2.82,.15,1.48-5.43,2.8Zm-9.31,2.52l-.35-4.53-2.37-.83-1.46,2.36-.13,5.39-.56,.32v1.88l5.7-2.96v-2.07l-.83,.44Zm-2.54-4.83l2.04,.51,.07,4.56-3.42,1.88-.22-5.06,1.53-1.89Zm3.23,6.35l-5.35,2.85v-1.55l5.39-3.01-.04,1.71Zm-12.55-2.13s-.51-.23-1.18-.55l.3-3.01c-.44-1.18-1.18-2.26-2.02-3.21-.12-.02-.25-.02-.36-.01-.8,.05-1.38,.64-2.09,.92l.08,3.36-1.21-.77-.16,2.01,6.67,3.76-.03-2.5Zm-4.91-5.55c.53-.26,1.07-1.01,1.61-1.02,.07,0,.14,.01,.22,.04,1.06,.81,1.17,2.11,1.74,3.01l-.04,2.97-3.68-1.94,.15-3.06Zm-1.49,4.28c-.08-.3,.12-1.61,.12-1.66,1.85,1.03,4.08,2.36,6.1,2.97l.04,2.08-6.26-3.39Zm6.4,1.27s-.51-.23-1.18-.55l.3-3.01c-.44-1.18-1.18-2.26-2.02-3.21-.12-.02-.25-.02-.36-.01-.8,.05-1.38,.64-2.09,.92l.08,3.36-1.21-.77-.16,2.01,6.67,3.76-.03-2.5Zm-4.91-5.55c.53-.26,1.07-1.01,1.61-1.02,.07,0,.14,.01,.22,.04,1.06,.81,1.17,2.11,1.74,3.01l-.04,2.97-3.68-1.94,.15-3.06Zm-1.49,4.28c-.08-.3,.12-1.61,.12-1.66,1.85,1.03,4.08,2.36,6.1,2.97l.04,2.08-6.26-3.39Zm18.26,1.88l-.35-4.53-2.37-.83-1.46,2.36-.13,5.39-.56,.32v1.88l5.7-2.96v-2.07l-.83,.44Zm-2.54-4.83l2.04,.51,.07,4.56-3.42,1.88-.22-5.06,1.53-1.89Zm3.23,6.35l-5.35,2.85v-1.55l5.39-3.01-.04,1.71Zm13.28-8.32l-.35-4.48-2.37-.82-1.47,2.35-.07,5.28-.61,.37v1.89l5.69-2.96v-2.08l-.82,.45Zm-2.54-4.77l2.03,.5,.31,4.41-3.61,1.87-.23-4.9,1.5-1.88Zm-2.12,9.05l.08-1.46,5.2-2.82,.15,1.48-5.43,2.8Zm4.66-4.28l-.35-4.48-2.37-.82-1.47,2.35-.07,5.28-.61,.37v1.89l5.69-2.96v-2.08l-.82,.45Zm-2.54-4.77l2.03,.5,.31,4.41-3.61,1.87-.23-4.9,1.5-1.88Zm-2.12,9.05l.08-1.46,5.2-2.82,.15,1.48-5.43,2.8Zm-9.31,2.52l-.35-4.53-2.37-.83-1.46,2.36-.13,5.39-.56,.32v1.88l5.7-2.96v-2.07l-.83,.44Zm-2.54-4.83l2.04,.51,.07,4.56-3.42,1.88-.22-5.06,1.53-1.89Zm3.23,6.35l-5.35,2.85v-1.55l5.39-3.01-.04,1.71Zm-12.55-2.13s-.51-.23-1.18-.55l.3-3.01c-.44-1.18-1.18-2.26-2.02-3.21-.12-.02-.25-.02-.36-.01-.8,.05-1.38,.64-2.09,.92l.08,3.36-1.21-.77-.16,2.01,6.67,3.76-.03-2.5Zm-4.91-5.55c.53-.26,1.07-1.01,1.61-1.02,.07,0,.14,.01,.22,.04,1.06,.81,1.17,2.11,1.74,3.01l-.04,2.97-3.68-1.94,.15-3.06Zm-1.49,4.28c-.08-.3,.12-1.61,.12-1.66,1.85,1.03,4.08,2.36,6.1,2.97l.04,2.08-6.26-3.39Zm18.26,1.88l-.35-4.53-2.37-.83-1.46,2.36-.13,5.39-.56,.32v1.88l5.7-2.96v-2.07l-.83,.44Zm-2.54-4.83l2.04,.51,.07,4.56-3.42,1.88-.22-5.06,1.53-1.89Zm3.23,6.35l-5.35,2.85v-1.55l5.39-3.01-.04,1.71Zm13.28-8.32l-.35-4.48-2.37-.82-1.47,2.35-.07,5.28-.61,.37v1.89l5.69-2.96v-2.08l-.82,.45Zm-2.54-4.77l2.03,.5,.31,4.41-3.61,1.87-.23-4.9,1.5-1.88Zm-2.12,9.05l.08-1.46,5.2-2.82,.15,1.48-5.43,2.8Zm-21.17,1.91s-.51-.23-1.18-.55l.3-3.01c-.44-1.18-1.18-2.26-2.02-3.21-.12-.02-.25-.02-.36-.01-.8,.05-1.38,.64-2.09,.92l.08,3.36-1.21-.77-.16,2.01,6.67,3.76-.03-2.5Zm-4.91-5.55c.53-.26,1.07-1.01,1.61-1.02,.07,0,.14,.01,.22,.04,1.06,.81,1.17,2.11,1.74,3.01l-.04,2.97-3.68-1.94,.15-3.06Zm-1.49,4.28c-.08-.3,.12-1.61,.12-1.66,1.85,1.03,4.08,2.36,6.1,2.97l.04,2.08-6.26-3.39Zm32.23-4.92l-.35-4.48-2.37-.82-1.47,2.35-.07,5.28-.61,.37v1.89l5.69-2.96v-2.08l-.82,.45Zm-2.54-4.77l2.03,.5,.31,4.41-3.61,1.87-.23-4.9,1.5-1.88Zm-2.12,9.05l.08-1.46,5.2-2.82,.15,1.48-5.43,2.8Zm-21.17,1.91s-.51-.23-1.18-.55l.3-3.01c-.44-1.18-1.18-2.26-2.02-3.21-.12-.02-.25-.02-.36-.01-.8,.05-1.38,.64-2.09,.92l.08,3.36-1.21-.77-.16,2.01,6.67,3.76-.03-2.5Zm-4.91-5.55c.53-.26,1.07-1.01,1.61-1.02,.07,0,.14,.01,.22,.04,1.06,.81,1.17,2.11,1.74,3.01l-.04,2.97-3.68-1.94,.15-3.06Zm-1.49,4.28c-.08-.3,.12-1.61,.12-1.66,1.85,1.03,4.08,2.36,6.1,2.97l.04,2.08-6.26-3.39Zm18.26,1.88l-.35-4.53-2.37-.83-1.46,2.36-.13,5.39-.56,.32v1.88l5.7-2.96v-2.07l-.83,.44Zm-2.54-4.83l2.04,.51,.07,4.56-3.42,1.88-.22-5.06,1.53-1.89Zm3.23,6.35l-5.35,2.85v-1.55l5.39-3.01-.04,1.71Z"/>
      <path class="cls-8" d="M33.52,46.49l.83-1.3-.07-.07-1.27,1.56-1.87,.74-.02-.32c1.02-1.73,1.8-3.67,2.77-5.43l-.12-.07c-.93,1.63-1.79,3.29-2.71,4.91l-.25-2.77,2.82-5.93-.09-.06-2.79,5.39-.26-3.07,1.25-2.75-.09-.03-1.2,2.36-.28-3.06-.11,.03,.13,2.4-2.13-.58-.03,.14,2.18,.78,.11,1.94-3.53-1.31-.08,.05,3.64,1.69,.15,2.81-3.81-1.54-.14,.07,3.98,1.8,.15,2.73-.05,.03-4.16-1.39-.06,.15,3.76,1.41-3.88,1.54-.13-9.26,3.98-3.72,3.78,1.16,.82,8.48-1.22,.49Z"/>
      <polygon class="cls-41" points="35.92 45.57 35.18 45.83 34.03 37.38 30.03 35.83 25.95 40.01 25.99 49.45 25 49.85 24.86 40.1 29.78 34.67 34.83 36.97 35.92 45.57"/>
      <polygon class="cls-1" points="12.34 18.05 11.32 18.67 11.19 21.58 8.89 19.73 12.13 17.8 12.34 18.05"/>
      <polygon class="cls-23" points="5.02 16.61 3.71 15.5 5.01 14.69 5.02 16.61"/>
      <polygon class="cls-16" points="32.45 8.66 32.44 10.35 30.84 9.4 32.45 8.66"/>
      <polygon class="cls-39" points="34.34 9.62 32.69 10.35 32.82 8.37 34.34 9.62"/>
      <polygon class="cls-40" points="27.17 7.43 26.11 6.79 27.14 6.23 27.17 7.43"/>
      <polygon class="cls-12" points="27.17 5.06 27.25 5.77 25.87 6.41 25.9 4.38 28.92 2.68 29.19 4.06 27.17 5.06"/>
      <polygon class="cls-27" points="6.89 11.66 6.82 13.34 5.04 14.23 4.95 14.38 4.95 14.45 3.73 15.02 3.87 12.93 6.89 11.66"/>
      <polygon class="cls-31" points="34.37 15.65 31.87 14 31.55 11.63 34.06 13.82 34.37 15.65"/>
      <polygon class="cls-2" points="33.63 7.75 30.36 9.34 30.36 7.28 33.26 5.68 33.63 7.75"/>
      <polygon class="cls-38" points="22.51 4.11 22.49 5.93 19.72 4.34 19.72 2.33 22.51 4.11"/>
      <polygon class="cls-21" points="22.69 6.33 20.41 7.21 20.16 4.96 22.69 6.33"/>
      <polygon class="cls-10" points="12.68 9.68 9.68 7.84 9.82 6.09 12.66 7.74 12.68 9.68"/>
      <polygon class="cls-17" points="8.44 11.4 8.55 9.37 8.25 8.95 9.78 8.42 12.38 9.89 8.44 11.4"/>
      <polygon class="cls-44" points="12 17.56 8.81 19.26 8.82 17.49 11.75 15.69 12 17.56"/>
      <polygon class="cls-28" points="26.01 19.64 22.94 17.38 22.72 15.5 25.59 18.04 26.01 19.64"/>
      <polygon class="cls-34" points="25.62 19.71 21.99 21.27 21.61 19.38 21.61 19.36 21.6 19.29 21.56 19.31 21.4 19.15 20.8 18.54 22.69 17.47 25.62 19.71"/>
      <polygon class="cls-35" points="34.38 16.04 31.12 17.37 30.82 15.41 30.5 14.95 31.94 14.31 34.38 16.04"/>
      <path class="cls-4" d="M31.14,11.21l.21,2.33-6.65-5.55c-.01-1.39-.01-2.98-.04-4.38l.78,.57,.15,2.6,1.77,1.09,.14-2.47,2.61,1.71-.04,2.37,2.09,1.23-1.02,.5Z"/>
      <polygon class="cls-37" points="32.86 5.47 30.22 6.85 27.73 5.09 30.46 3.61 32.86 5.47"/>
      <polygon class="cls-24" points="28.65 2.54 25.83 3.9 24.46 2.91 22.48 3.71 19.9 2.23 25.49 .22 28.65 2.54"/>
      <polygon class="cls-11" points="19.63 4.94 12.95 7.39 10.07 5.88 17.33 2.94 19.63 4.94"/>
      <path class="cls-13" d="M24.49,7.89c-4.42,2.25-9.2,4.18-13.72,6.23l-1.88-1.69-.13-.1-.12,.07-1.61,.81,.07-1.79-.92-1.18,2.08-.9-.11,2.39,4.83-1.77,.11-2.14,6.77-2.66,.18,2.51,2.9-1.41-.03-2.26,1.28-.52c.07,1.44,.29,2.97,.3,4.41Z"/>
      <polygon class="cls-20" points="5.6 10.13 6.59 11.3 3.77 12.48 .41 9.11 6.29 7.21 7.74 9.28 5.6 10.13"/>
      <polygon class="cls-26" points="11.46 15.33 8.61 17.09 5.79 14.35 8.69 12.86 11.46 15.33"/>
      <path class="cls-25" d="M40.21,10.45c-1.97,1.2-4.12,2.07-6.25,2.96l-2.22-2.15,3.45-1.57-1.69-1.22,2.47-1.34c1.42,1.05,2.87,2.3,4.24,3.32Z"/>
      <polygon class="cls-18" points="30.45 15.33 25.73 17.77 22.8 15.16 27.63 12.93 30.45 15.33"/>
      <polygon class="cls-32" points="21.14 19.25 15.34 21.9 11.9 18.68 14.44 17.23 15.68 18.85 19.12 17.1 21.14 19.25"/>
      <polygon class="cls-36" points="43.71 35.94 40.96 36.8 40.55 28.43 43.71 35.94"/>
      <polygon class="cls-30" points="8.61 38.2 6.17 41.06 3.71 39.55 5.89 36.54 8.61 38.2"/>
      <polygon class="cls-43" points="8.79 38.66 8.02 48.11 4.42 50.69 6.52 41.31 8.79 38.66"/>
      <polygon class="cls-14" points="6.01 41.48 4.08 50.62 .89 48.61 3.64 39.9 6.01 41.48"/>
      <path class="cls-6" d="M31.56,14.1l-1.45,.55-2.43-1.93-5.24,2.3,.22,2.28-2.19,.89-1.34-1.39-3.24,1.78-1.39-1.63-1.87,1.05-.32-.45-.16-2.12-1.02-.98c4.39-2.2,9.07-3.85,13.34-6.26l7.09,5.91Z"/>
      <path class="cls-7" d="M15.14,22.34c-.18,2.13-.22,4.3-.27,6.45L.27,17.05l.15-7.65,3.04,3.41h-.04l-.17,2.49,2.25,2.53-.1-3.24,2.97,2.89v2.41s3.2,2.32,3.2,2.32l.12-3.11,3.45,3.24Z"/>
      <path class="cls-22" d="M15.32,28.7c.04-2.14-.12-4.39,.04-6.52l5.85-2.59,.45,2.33,4.52-1.96-.16-2.12,4.41-2.12,.34,2.29,4-1.76-.36-2.54c2.06-.91,4.17-1.72,6.08-2.93l.38,6.34L15.32,28.7Z"/>
      <path class="cls-3" d="M14.87,29.38L1.79,18.62,.5,42.79l1.64,.82,1.14-4.06v-.04s.03-.01,.03-.01l2.48-3.24,3.52,1.76h.03s-.02,.03-.02,.03l-.98,9.85,7.75,5.28,.38-24.59-1.6,.79Zm-9.75,4.24l.16-2.01,1.21,.77-.08-3.36c.71-.28,1.29-.87,2.09-.92,.11-.01,.24-.01,.36,.01,.84,.95,1.58,2.03,2.02,3.21l-.3,3.01c.67,.32,1.18,.55,1.18,.55l.03,2.5-6.67-3.76Z"/>
      <path class="cls-19" d="M10.42,31.36l-.04,2.97-3.68-1.94,.15-3.06c.53-.26,1.07-1.01,1.61-1.02,.07,0,.14,.01,.22,.04,1.06,.81,1.17,2.11,1.74,3.01Z"/>
      <path class="cls-15" d="M11.62,37l-6.26-3.39c-.08-.3,.12-1.61,.12-1.66,1.85,1.03,4.08,2.36,6.1,2.97l.04,2.08Z"/>
      <path class="cls-29" d="M40.52,36.99l-.57-19.18-23.23,10.72-.07,24.61,7.91-3.12,.11-10.06,5.08-5.36,5.23,2.18,1.17,8.68,4.66-1.85-.29-6.62Zm-16.07,.13l-5.7,2.96v-1.88l.56-.32,.13-5.39,1.46-2.36,2.37,.83,.35,4.53,.83-.44v2.07Zm13.96-6.8l-5.69,2.96v-1.89l.61-.37,.07-5.28,1.47-2.35,2.37,.82,.35,4.48,.82-.45v2.08Z"/>
      <polygon class="cls-45" points="38.36 30.17 32.93 32.97 33.01 31.51 38.21 28.69 38.36 30.17"/>
      <polygon class="cls-42" points="37.39 28.83 33.78 30.7 33.55 25.8 35.05 23.92 37.08 24.42 37.39 28.83"/>
      <polygon class="cls-5" points="24.35 35.3 24.31 37.01 18.96 39.86 18.96 38.31 24.35 35.3"/>
      <polygon class="cls-33" points="23.19 35.73 19.77 37.61 19.55 32.55 21.08 30.66 23.12 31.17 23.19 35.73"/>
    </g>
  </g>
</svg>