<?xml version="1.0" encoding="UTF-8"?>
<svg id="Layer_2" data-name="Layer 2" xmlns="http://www.w3.org/2000/svg" viewBox="0 0 120.18 84.34">
  <defs>
    <style>
      .cls-1 {
        fill: #4a2412;
        fill-rule: evenodd;
      }
    </style>
  </defs>
  <g id="Layer_2-2" data-name="Layer 2">
    <g id="layer1">
      <path id="path2745" class="cls-1" d="M66.87,0l-26.75,7.56,.12,9.16L.12,33.06v17.62s-.12,1.84-.12,1.84l17.66,13.34,.03,.19c.29,.32,.57,.63,.88,.94-.01,.06-.02,.06-.03,.09-.69,.24-1.28,.63-1.94,1.06-2.01,1.74-3.31,3.97-3,6.69,0,.04-.04,.08-.03,.12l.09,.53c.29,.31,.6,.63,.91,.94-.05,.3-.1,.15-.12,.47,.57,.55,1.3,1.45,2.25,1.69,0-.05,0-.14,0-.19,1.09,.94,2.26,1.86,3.53,2.72-.01,.13-.02,.27-.03,.41,.71,.87,1.31,1.12,2.25,1.22,0-.08,.02-.15,.03-.22,.83,.48,1.69,.94,2.59,1.37,.16,.11,.83,.32,1.12,.44l.97-.22c.04-.08-.13-.25-.19-.34,.05-.02,.42,.24,.47,.22,.24-.09,.47-.18,.69-.28,.05-.03-.14-.26-.09-.28,.06-.04,.35,.12,.41,.09,.31,.01,.39-.21,.56-.38,.04-.03-.04-.24,0-.28,.05-.04,.23,.11,.28,.07,.16-.14,.32-.27,.47-.41,.06-.06-.15-.35-.09-.41,.06-.05,.39,.12,.44,.06,.15-.15,.26-.31,.41-.46,.03-.04-.22-.31-.19-.35,.03-.04,.34,.14,.38,.1,.13-.17,.29-.33,.41-.5,.04-.06-.22-.32-.19-.38,.03-.05,.37,.08,.41,.03,.11-.18,.19-.35,.28-.53,.03-.05-.18-.23-.16-.28,.03-.05,.29,.02,.31-.03,.08-.19,.16-.37,.22-.56,.02-.05-.23-.23-.22-.28,.01-.05,.3,.05,.31,0,0-.03,.02-.06,.03-.09,.31,.16,.61,.31,.94,.47,.16,.1,.8,.32,1.09,.44l1-.22c.04-.08-.13-.25-.19-.34,.05-.02,.39,.24,.44,.22,.24-.09,.47-.17,.69-.28,.05-.03-.11-.25-.06-.28,.06-.03,.35,.13,.41,.09,.28-.02,.39-.21,.56-.38,.04-.04-.08-.24-.03-.28,.05-.04,.26,.1,.31,.06,.16-.13,.33-.27,.47-.41,.06-.05-.18-.35-.12-.41,.05-.05,.39,.12,.44,.06,.15-.16,.29-.31,.44-.47,.03-.04-.22-.3-.19-.34,.03-.04,.34,.13,.37,.09,.13-.16,.26-.33,.38-.5,.04-.06-.22-.32-.19-.37,.03-.05,.4,.08,.44,.03,.11-.18,.19-.35,.28-.53,.02-.05-.21-.23-.19-.28,.03-.05,.32,.02,.34-.03,.08-.19,.16-.37,.22-.56,.02-.05-.26-.23-.25-.28,.01-.05,.3,.05,.31,0,.06-.23,.13-.47,.16-.72,0-.07-.28-.36-.28-.44,0-.08,.28,.05,.28-.03,0-.33,0-.69-.06-1.03-.01-.06-.32-.25-.34-.31-.03-.09,.25-.06,.22-.16-.12-.42-.26-.84-.5-1.28-.33-.38-.57-.49-1.59-1.53,.13-.05,.27-.11,.41-.16-.54-.79-1.34-1.31-2.19-1.88-.02,.01-.04,.02-.06,.03-.12-.42-.29-.87-.53-1.31-.33-.38-.53-.49-1.56-1.53,.13-.05,.24-.08,.38-.13-.54-.79-1.34-1.34-2.19-1.91-.08,.07-.17,.15-.25,.22-.12-.1-.26-.19-.38-.28l2.62-1.06v.16l1.47,1.44,14.41-5.78v-1.16l-.97-.72,13.16-5.31,9,7-1.53,1.03v1.47l11.41,8.66,2.47-1.59v.06l2.94,2.28v.66l.56-.22,10.22,7.94,22.93-9.28-.18-1.5-.07-18.06-30.09-23.5V14.59L66.87,0h0Zm-.28,.62l-.12,4.44-24.03,2.59L66.59,.62Zm.44,.19l19.28,12.16-19.25-7.75-.03-4.41Zm-2.13,.62l-1.62,.5-.09-.09-.06,.12-4,1.25-.41-.19-.09,.28,.06,.03-4.22,1.31-.41-.25-.19,.16,.31,.19-.97,.28,.22,.16,1-.31,1.28,.72,.31-.06-1.31-.75,4.28-1.31,2.97,1.25-.38,.16v.06l.47-.16,.69,.28,.19-.06-.66-.31,2.84-.97,.44,.31,.16-.06-.38-.31,.59-.22-.09-.12-.62,.22-1.72-1.44,1.72-.53-.31-.12Zm-1.81,.78l1.91,1.41-2.81,1.03-2.78-1.31s3.69-1.12,3.69-1.12Zm6.75,1.44l-.16,.19c.33,.2,.64,.42,.97,.62l-2.72,.66-.03,.13,2.97-.63c.81,.52,1.63,1.03,2.44,1.56l-1.06,.25,.09,.12,1.12-.25c1.23,.82,2.46,1.64,3.69,2.47l.06-.09c-1.16-.86-2.29-1.65-3.44-2.44l.94-.22,.06-.16-1.16,.25c-.77-.53-1.56-1.07-2.38-1.59l.81-.16-.16-.19-.87,.22c-.39-.25-.78-.5-1.19-.75h0Zm-3.47,1.75l-17.41,7.88-7.53-5.09s24.94-2.78,24.94-2.78Zm-15.62,.16l-3,.81,.19,.22,2.84-.88-.03-.16Zm16.47,0l21.41,8.88-8.09,3.06,.03-.09-1.5-1.03s-11.84-10.81-11.84-10.81Zm-.25,.22l9.91,9.13-9.69-6.56-.78-.66s.56-1.91,.56-1.91Zm-.5,.03l-.44,1.72-17.59,7.72v-.03l-1.12-.16,8.84-3.91v-.03l5.09-1.75-.09-.19-9.25,3.19,.06,.19,2.72-.94-7.62,3.41-1.09-.16-.16,.19,.91,.12-.91,.41,.22,.03,.94-.41,1.22,.16L15.12,29.91l-12.88,2.75,17.72-7.22-.03,.16,.59,.09-6.28,2.62h-.78l-.34,.16h.72l-1.31,.56,.28,.22,1.78-.75,2.47,.03,.09-.19-2.16-.03,5.97-2.53,1.78,.31,.03-.25-1.47-.22,11.22-4.75-.03-.16-11.66,4.84-.84-.12,16.03-6.5,9.94-4.06,3.53-1.44,2.41-1.06s14.56-6.56,14.56-6.56Zm-30.44,13.12l-.09,.19,.66,.41-.91,.41,.03,.22,1.12-.5,.25,.16,.28-.19-.22-.09,5.88-2.59-.09-.28-6.03,2.72-.87-.44h0ZM53.25,7.19l-.19,.22,.94,.84-6.69,.91-1.5-1.09-.28,.16,1.34,.97-1.28,.19v.16l1.47-.19,2.53,1.84,.16-.25-2.28-1.66,6.66-.91,.78,.69,.19-.16-.62-.59,5.81-.78v-.12l-5.94,.81s-1.09-1.03-1.09-1.03Zm-12.81,.72l6.03,4.44-.03,1.84-1.06,.44-4.81-3.53s-.12-3.19-.13-3.19Zm25.44,.12l-3.88,21.5L19.41,46.75l-3.75-16.5S65.87,8.03,65.87,8.03Zm.38,.16l38.81,32.66-7.66,15.88-17.18-13.28-17.59-13.59s3.62-21.66,3.63-21.66Zm7.44,1.38l-.25,.19,6.66,4.69-1.53,.69,.09,.25,1.63-.78,2.06,1.44,.28-.03-2.12-1.53,2.94-1.41-.12-.06-3,1.34s-6.62-4.78-6.62-4.78Zm-4.84,.19l10.25,7.22,.97,.88,9.47,7.28,28.43,21.78-12.59-6.34S68.84,9.75,68.84,9.75Zm20.69,15.37l-7.47-4.5-.16,.09,7.75,4.59-.12-.19Zm-21.63-14.22l-.16,1.09c-.37-.33-.75-.66-1.12-1l-.19,.16c.41,.38,.83,.75,1.25,1.12l-2,13.13-.34-.25-.12,.16,.44,.31-.25,1.53,.19,.19,.25-1.59,4.41,3.16-.38,2.72,.28,.09,.34-2.62,1.5,1.06,.16-.12-1.62-1.16,1.28-9.37,1.91,1.56,.12-.28-2-1.62,.06-.44-.19-.09-.06,.38-3.72-3.06-.12,.28,3.81,3.12-1.34,9.34-4.41-3.16,2.06-13.03c3.43,3.07,6.93,6.07,10.44,9.06l-2.06,8,.25,.12,2.03-7.94c2.14,1.83,4.28,3.65,6.41,5.5l.03-.25c-2.11-1.85-4.25-3.68-6.38-5.5l.5-2-.28,.06-.44,1.75c-3.51-3.01-7.02-6.01-10.47-9.09l.19-1.16-.25-.16h0Zm-27.34,.38l2.59,1.91-.03,2.31-.56,.28-1.88-1.34s-.12-3.16-.12-3.16Zm20.12,.12s.01,.06,.03,.12c.03-.07-.03-.16-.03-.12Zm.03,.12s-.06,.05-.12,.06c.28,2.5,0,5.03,.12,7.53l-3.56,1.53c-.53-2.02-1.06-4.05-1.62-6.06l-.19,.16c.54,2.01,1.05,4.01,1.56,6.03l-9.53,4.09-2.47-5.22,5.22-2.25,1.19,2.97,.16-.19-1.16-2.84,2.81-1.22-.19-.19-2.72,1.19-.28-.69-.19,.06,.28,.69-5.25,2.25-.16-.34-.09,.22,.09,.19-18.19,7.84-.12-.38-.28,.09,.12,.38-6.81,2.94c-.08-.27-.17-.54-.25-.81-.24-.24,.04-.15-.28-.06,.09,.33,.21,.67,.31,1l-1.12,.47,.03,.25,1.16-.5c.74,2.51,1.54,5.01,2.34,7.5h.28c-.83-2.52-1.63-5.05-2.41-7.59l6.81-2.94,1.78,5.56-.75,.34-.03,.25,.88-.38,1.69,5.28-3.69,1.53-2.31-7.53-.22-.03,2.25,7.69-1.97,.81,.12,.25,1.91-.81,.59,2.06,.34-.16-.62-2.03,3.66-1.53,.44,1.34h.28l-.47-1.44,8.44-3.53-.19-.16-8.31,3.44-1.69-5.31,4.22-1.84,.66,1.87,.19-.09-.62-1.88,2.25-.97v-.28l-2.31,1.03-.97-2.84-.31,.06,1.03,2.88-4.19,1.88-1.78-5.59,18.22-7.84,2.53,5.22-6.19,2.66-.66-1.41-.16,.09,.62,1.41-1.91,.81,.06,.22,1.94-.84,3.44,7.56,.34-.06-3.59-7.59,6.16-2.69,2.81,5.84-.5,.22,.16,.12,.41-.19,.38,.75,.12-.03-.38-.78,6.12-2.78,.56,1.47,.22-.09-.53-1.47,.53-.25-.03-.22-.59,.28-.91-2.47-.28-.03,.97,2.59-6.12,2.81-2.78-5.84,9.47-4.09c.18,.69,.35,1.4,.53,2.09l.28-.12c-.18-.7-.38-1.4-.56-2.09l3.56-1.53c.03,.45,.04,.9,.09,1.34l.19,.06c-.07-.49-.13-.97-.16-1.47l1.03-.44,.03-.19-1.06,.47c-.13-2.48,.12-5.06-.16-7.5,0-.02,0-.02,0-.03Zm-14.09,.91l1.47,1.09-1.5,.59,.03-1.69Zm-3.34,.84l1.94,1.41-1.94,.81s0-2.22,0-2.22Zm-2.59,1.38l1.66,1.22-1.59,.66s-.06-1.88-.06-1.88Zm48.41,.25v2.72l-4.62,1.81,.03-2.78,4.59-1.75Zm-4.78,1.81l-.03,2.81-.5,.22-2.47-1.91,3-1.12Zm4.78,1.19v3.31l-2.25,.88-2.81-2.16s5.06-2.03,5.06-2.03Zm0,3.53v2.38l-2.03-1.56,2.03-.81Zm0,3.88l-.16,.12,15.07,12.88-.72-.12-.06,.19,1.15,.28,2.97,2.53,4.66,1.72-.1-.34-4.37-1.53-2.66-2.28,2.06,.5,.03-.34-2.5-.5s-15.37-13.09-15.37-13.09Zm-52.94,.5l-.16,.19,2.44,6.28,.31,.03-2.59-6.5Zm46.53,1.75c-.36,.94-.73,1.88-1.09,2.81l-2.5-2.19-.06,.25,2.47,2.19c-.89,2.28-1.8,4.55-2.72,6.81l-1.75-1.47-.03,.16,1.72,1.47c-.18,.44-.35,.88-.53,1.31l.25,.12c.17-.43,.33-.86,.5-1.28l5.59,4.72c-.32,.66-.65,1.32-.94,2.03l.25,.06c.26-.65,.55-1.3,.84-1.94l8.44,7.09-.62,1.12,.12,.19,.66-1.16,1.34,1.13,.25-.09-1.5-1.25,3.19-5.69,1.03,.91,.19-.19-1.06-.97,1.68-3,2.38,2.22,.18-.12-2.46-2.28,.93-1.69-.12-.19-.97,1.72-5.59-5.19,1.22-2.44-.22-.09-1.19,2.38-.69-.66-.12,.16,.72,.69-1.66,3.28-2.94-2.59c.3-.71,.58-1.42,.81-2.16l-.12-.06c-.21,.76-.47,1.49-.75,2.19l-6-5.31c.38-.99,.76-1.98,1.12-2.97,0,0-.25-.03-.25-.03Zm-20.75,2.56l.12,9.78-1.03,.41,.03-9.81,.88-.38Zm.69,.25l.94,.72-.06,9.72-.78-.66s-.09-9.78-.09-9.78Zm-47.41,.06l3.72,16.53L1.47,33.41s13.75-2.97,13.75-2.97Zm45.41,.22l.03,2.56-2.84,1.12v-2.56l2.81-1.12Zm21.09,.16l5.97,5.31c-.35,.84-.74,1.64-1.16,2.44l-3.41-2.94-.28,.06,3.59,3.12c-.61,1.16-1.25,2.3-1.84,3.5l-5.59-4.69c.9-2.27,1.83-4.53,2.72-6.81Zm-17.66,.66l5.09,4,.03,2.28-5.16-4,.03-2.28Zm-52.5,.34l-.97,1-.66-.53-.16,.22,.62,.53-2.94,3.06-1.91-1.5,1.16-1.22-.25-.12-1,1.25-1.12-.88-.12,.09,1.12,.91-.34,.44,.06,.06,.41-.41,1.91,1.5-.28,.28,.25,.22,.28-.31,2.78,2.22,.22-.06-2.91-2.28,2.84-3.12,2.31,1.88-.25,.28h.12l.19-.22,2.5,2.06,.16-.22-2.47-2.03,2.09-2.16-.19-.06-1.97,2.16-2.31-1.88,.94-1.03-.12-.12Zm46.06,.06v2.56l-5.78,2.28v-2.5s5.78-2.34,5.78-2.34Zm3.03,1.56l.03,2.66-5.78,2.31v-2.62s5.75-2.34,5.75-2.34Zm-59.81,.16l.66,.5-.16,10.12-.59-.44,.09-10.19Zm63.19,.31l1.87,1.47-.03,2.72-1.91-1.5s.06-2.69,.06-2.69Zm-12.38,.38v2.53l-.25,.09-.06-2.5,.31-.12Zm-49.72,.16l.31,.25,.12,9.31-.69,.34s.25-9.91,.25-9.91Zm48.91,.19l.19,4.16-5.53,1.94-.09-3.91,.41-.16v3.56l4.47-1.56v-3.81s.56-.22,.56-.22Zm-.88,.34l.09,3.47-4.03,1.44,.06-3.34s3.88-1.56,3.88-1.56Zm-47.28,.03l2.66,2.03-.03,3.16-2.66,1.25s.03-6.44,.03-6.44Zm89.97,.37l5.6,5.19-1.69,3.03-5.6-4.94s1.69-3.28,1.69-3.28Zm-26.59,.13l3.12,2.44,.03,2.09,2.09,1.62v.72l-5.25-4.12v-2.75Zm-11.34,.34v2.66l-6.81,2.72v-.78l3.56-1.34-.06-1.91,3.31-1.34Zm14.94,0l.47,.38v3.47l1.22,.91v.66l-1.75-1.31,.06-4.09Zm18.09,.31l2.94,2.62-.56,1.12,.19,.06,.53-1.06,5.56,4.94-3.18,5.69-8.44-7.06c.57-1.22,1.13-2.42,1.72-3.62l3.41,2.97,.22-.16-3.5-3.03c.4-.81,.77-1.64,1.12-2.47Zm-27.06,.16l.03,2.75-2.62,1.03v-2.75l2.59-1.03Zm9.72,.09l3.34,2.62-.09,3.03-3.34-2.38,.09-3.28Zm-6.44,.31l4.09,3.22v2.78l-4.19-3.22,.09-2.78Zm-19.19,.38l.06,2.47-1.97,.78v-2.47l1.91-.78Zm13.12,.34v2.75l-5.78,2.28v-2.72s5.78-2.31,5.78-2.31Zm-51.94,.09l2.5,1.91,.06,2.5-2.56-1.88v-2.53Zm6.31,.38l-.25,.16,2,1.59-1.16,1.38,.16,.19,1.16-1.44,2.72,2.16,.16-.16-2.72-2.19,1.16-1.41-.09-.16-1.22,1.44s-1.91-1.56-1.91-1.56Zm30.41,.03v2.5l-10.34,4.12v-2.44l10.34-4.19Zm18.03,1.34v.38l-5.47,2.12v-.31l5.47-2.19Zm13.34,0l.41,.31v4.06l-2.97-2.25v-.69l2.47,1.81,.09-3.25Zm-10.19,.34l1.59,1.22-.03,.66-1.53-1.22s-.03-.66-.03-.66Zm-19.03,.19l.03,1.78,2.84-1.09v.78l-10,4v-2.59s7.12-2.88,7.12-2.87Zm7.12,0l-.03,2.75-8.81,3.53v-2.72s8.84-3.56,8.84-3.56Zm-42.81,.12l.5,.38v3.59l3.84,2.88,.09-3.44,.38,.28,.06,3.97-4.81-3.69s-.06-3.97-.06-3.97Zm51.56,.03v.47l-16.28,6.44,.06,6.94c-.15-.1-.29-.21-.41-.38l-.19-6.88s16.81-6.59,16.81-6.59Zm7.47,.09l5.5,4.34-.03,2.66-5.47-4.22v-2.78Zm6.91,0l5.12,4v2.22l-5.12-3.94v-2.28Zm-69.12,.16l2.12,1.56v2.69l-2.12-1.56v-2.69Zm56.09,.16l.09,6.56-17.03,6.94-.12-6.75,17.06-6.75Zm-52.12,.16l3.38,2.59-.09,3.19-3.34-2.38s.06-3.41,.06-3.41Zm53.94,.03l10.91,8.72-.56,.22-10.34-8.41s0-.53,0-.53Zm-1.16,.12l11,9.03-.19,5.94-10.75-8.47s-.06-6.5-.06-6.5Zm-57.41,.03v.69l-2.69,1.38v-.84s2.69-1.22,2.69-1.22Zm60.31,.25l5.28,4.12-.03,.69-5.25-4.16v-.66Zm39.84,.31l13.13,6.53-20.66,8.62,7.53-15.16Zm-50.4,.28v.28l-6.69,2.59v-.19l6.69-2.69Zm16.44,.22l3.59,2.75v-1.94l1.72,1.34v2.75l-5.31-4.16v-.75Zm-66.22,.09l-.03,4.22-2.62-1.97v-.97s2.66-1.28,2.66-1.28Zm3,.03l.25,.19,.06,2.16,5.88,4.5,.03-2.25,.72,.56-.03,2.56-6.91-5.06s0-2.66,0-2.66Zm23.91,.28l-.03,2.47-1.12,.44-.06-2.41,1.22-.5Zm73.85,.47l-.28,.03c.33,1.02,.69,2.03,1.06,3.03l-1.44,.69,.19,.12,1.31-.59c.52,1.4,1.09,2.79,1.63,4.19-2.45,1.18-4.9,2.36-7.41,3.28l.06,.06c2.53-.89,4.94-2.07,7.38-3.22,.05,.13,.11,.25,.15,.37l.19-.12c-.04-.11-.08-.23-.12-.34,1.34-.63,2.69-1.25,4.06-1.81l.53,1,.16-.09-.47-1c.39-.16,.79-.32,1.19-.47l-.13-.19c-.38,.15-.75,.31-1.13,.47l-.96-2.09-.35,.12,1.07,2.06c-1.35,.57-2.7,1.2-4.04,1.84-.52-1.38-1.03-2.76-1.53-4.16l2.53-1.12-.18-.31-2.44,1.19c-.35-.98-.71-1.96-1.03-2.94h0Zm-68.5,.09v2.59l-9.28,3.72v-.38l2.84-1.09-.06-2.22s6.5-2.62,6.5-2.62Zm-7.19,.19l.19,4.41-5.53,2.12,.03-4.38,.34-.16,.03,3.66,4.44-1.56v-3.91s.5-.19,.5-.19Zm-24.38,.12l2.12,1.56,.03,.03,2.59,1.91v2.5l-4.75-3.47v-2.53Zm23.59,.19l.09,3.59-4.06,1.44,.09-3.44s3.88-1.59,3.88-1.59Zm13.38,.22v2.69l-10.59,4.22v-2.66s10.59-4.25,10.59-4.25Zm-28.41,.56l3,2.31v2.19l-3.03-2.25,.03-2.25Zm62.44,.03l6,4.66-.03,2.81-5.97-4.72v-2.75Zm3.38,.12l5.81,4.53-.03,2.12-5.78-4.47s0-2.19,0-2.19Zm-78.09,.06l5.62,4.28,7.09,5.41,2.56,1.97v.53L1.81,44.56s.44-.31,.44-.31Zm45.94,.06v.19l-4.94,1.91,.12,2.12-5.25,2.22v-2.38s10.06-4.06,10.06-4.06Zm25.59,.16l6.09,4.81-.03,2.56-6.06-4.69s0-2.69,0-2.69Zm-73.03,.06l18.16,13.63v2.44c-.6,.83-1.01,1.75-1.22,2.75L.75,50.91v-6.38s0,0,0,0Zm70.31,.66l5.19,4.03-.03,2.72-.91-.72,.03-1.94-4.31-3.38,.03-.72Zm-46.72,.16l.03,2.41-.62,.25v-2.41l.59-.25Zm-.78,.31v2.41l-2.75,1.12-.03-2.38,2.78-1.16Zm-17.59,.09l1.91,1.41v.91l-1.91-1.44s0-.87,0-.87Zm4.94,.94l6.63,4.88v2.44l-6.63-4.84v-2.47Zm7.25,.12l.72,.53,.03,10.12-.81-.59s.06-10.06,.06-10.06Zm2.19,.16l.06,10.12-.69,.28-.09-10.09s.72-.31,.72-.31Zm-4.97,.19l2.16,1.59v2.59l-2.16-1.59v-2.59Zm-7.31,.12l2.66,1.94,.03,.03,4.22,3.09v1.06l-6.91-5.19v-.94Zm54.47,.31l23.94,18.88v1.22l-2.78-2.12-.03-.91-11.41-8.88-.72,.47-8.97-6.88s-.03-1.78-.03-1.78Zm-.28,.03l-.09,1.53-13.44,5.41-.75-.56-13.81,5.59-.03,.84-2.97,1.19c-.29-.22-.69-.5-1.09-.78l32.19-13.22Zm-30.06,.16l-.03,2.69-8.09,3.22v-2.62s8.12-3.28,8.13-3.28Zm-7.78,.25l.03,2.12,3.62-1.41v.41l-7.22,2.88-.03-2.53,3.59-1.47Zm78.94,0l-.25,.12,1.06,2.47,.16-.19s-.97-2.41-.97-2.41Zm-65.41,.41v2.41l-1.25,.53-.06-.94-1.66-.75-6.72,2.78v-.12s9.69-3.91,9.69-3.91Zm81.47,.03l-.28,10.25-.75,.31-.09-10.28s1.12-.28,1.12-.28Zm-33.15,.34l.09,.06,.06,2.19-.16-.12v-2.12Zm-3.12,.03l3.28,2.56,.06,2.34,3,2.28-.03,.62-3.25-2.56-3.06-2.44v-2.81Zm34.81,.06l.16,9.88-1.06-.47v-9.03s.9-.38,.9-.38Zm-74.5,.25l.28,4.28-6.75,2.75-.25-4.19,6.72-2.84Zm43.47,.12l.44,.34v3.66l3.84,2.88,.09-3.5,.53,.41,.09,4.38-4.94-3.91s-.06-4.25-.06-4.25Zm-10.5,.06l6.16,4.75v1.41l-.5,.19v.78l-5.66-4.41s0-2.72,0-2.72Zm3.56,0l6.22,4.94v2.44l-6.22-4.78v-2.59Zm36.62,.09l.09,6.28-1.22-.78,.04-5.03s1.09-.47,1.09-.47Zm-41.69,.06l-.09,5.47-.81,.44,.22-5.59s.69-.31,.69-.31Zm12.75,.34l3.34,2.59-.09,3.25-3.34-2.38,.09-3.47Zm-52.72,.28l.94,.5-14.97,6.25v-.91l14.03-5.84Zm79.94,.03v2.16l-2.59,1.09-2.1,.84,.04-2.22s4.65-1.88,4.65-1.88Zm-91,.97v2.66l-3,1.19-.03-2.62s3.03-1.22,3.03-1.22Zm12.19,.03l.31,6.31-7.03,2.88c-.28-.2-.45-.31-.81-.56l-.19-.34c-.4-.62-.82-1.2-1.78-1.47-.06,.05-.16,.08-.25,.09-.12,0-.41-.06-.47,.09-.11-.06-.21-.12-.31-.19l-.59-.34c-.53-.14-1-.2-1.41-.19-1.21,.04-1.95,.68-2.91,1.31-.31,.27-.6,.55-.88,.84l-.03-1.59s16.34-6.84,16.34-6.84ZM.5,51.41l17.09,12.75c-.03,.36-.03,.72,0,1.09L.37,52.37l.13-.97h0Zm74.78,.06l6.78,5.28v.25l-6.78-4.97s0-.56,0-.56Zm34.5,.75l-.03,4.25-5.44,2.19-.09-4.19,.46-.19v3.69l4.47-1.56v-3.94l.63-.25Zm-81.72,.19v.12l-7.19,2.97v-.19l7.19-2.91Zm-12.91,.06l2.38,1.75v1.12l-2.38-1.78v-1.09Zm99.72,.06l-.03,2.69-2.38,.97v-2.66s2.41-1,2.41-1Zm-39.62,.06l6.81,5.25,.03,2.66-6.91-5.53,.06-2.38Zm33.59,0l.09,3.62-4.06,1.41,.09-3.47s3.88-1.56,3.88-1.56Zm-16.5,.91l1.59,1.25-.03,2.09-1.56-1.22s0-2.12,0-2.12Zm19.94,.12v2.63l-9.41,3.84v-2.53l.81-.34,.07,2.38,6.4-2.69,.03-2.41s2.1-.88,2.1-.88Zm-68.44,.09l.41,.5-.47,.22-6.78,2.75-.03-.53,6.88-2.94Zm4.06,.5l1.63,1.25-13.56,5.59-1.25-1.47,13.19-5.38Zm34.81,0l6.38,4.94,.03,.44-5.56-4.47-.84,.31v-1.22Zm3.59,.16l6.81,5.41-1.97,.78-4.84-3.75s0-2.44,0-2.44Zm17.28,.34l.06,2.16-4.37,1.81-.03-2.19s4.34-1.78,4.34-1.78Zm-9.56,.09l1.59,1.25v2.12l-1.59-1.22v-2.16Zm21.43,.47l1.26,.81v.91l-1.26-.94s0-.78,0-.78Zm-40.5,.06l7.12,5.62v1.44l-8.16-6.44,1.03-.62Zm39.88,.06v2.81l-6.91,2.78,.03-2.69s6.88-2.91,6.88-2.91Zm-65.12,.31v.72l-13.75,5.53v-.59l13.75-5.66Zm34.03,0l6.47,5.22-.91,.38-6.56-5.19,1-.41Zm8.59,.31l3.31,2.59v.13l-2.31,.94-3.75-2.94,.03-.59,2.72,2.09v-2.22Zm-20.09,.12l10.72,8.34-1.88,1.31-10.81-8.34s1.97-1.31,1.97-1.31Zm43.21,.25l1.26,.91,.03,1-1.29,.53v-2.44Zm-19.28,.06l.82,.66v2.25c-.11-.31-.38-.55-.82-.66v-2.25Zm2.38,.31l.22,10.38-1.06,.44-.04-10.47s.88-.34,.88-.34Zm-15.88,.16l6,4.62-3.03,1.22c-.94,.72-1.14,1.81,.41,2.19l.41-.19v1.06l-3.69-2.91-.09-6Zm20,.69v2.56l-3.37,1.38-.03-2.5,3.4-1.44Zm-32.75,.06l10.78,8.22,.06,1.03-10.75-8.16-.09-1.09Zm-45.22,.41c.25,.12,.54,.28,.78,.41-.2,.09-.4,.18-.59,.28-.34-.2-.69-.43-1.03-.62,.28-.03,.56-.05,.84-.06Zm-1.03,.06c.38,.22,.75,.44,1.12,.66-.38,.2-.77,.43-1.12,.66-.51-.32-.99-.65-1.5-.97,.47-.17,.97-.28,1.5-.34Zm3.06,.19c.58,.27,1.59,.85,1.16,1.12-5.4,2.12-6.29,5.22-7.66,9.22-.55-.31-1.22-.58-1.47-1.38,1.03-3.58,2.21-7.13,7.97-8.97Zm81.03,.03v2.72l-8.41,3.41-.06-2.56s8.47-3.56,8.47-3.56Zm7.06,0v.72l-2.03,.81v-.69l2.03-.84Zm-92.78,.19c.51,.32,1.02,.64,1.53,.97-.42,.27-.81,.54-1.19,.84-.53-.35-1.09-.68-1.62-1.03,.35-.36,.79-.59,1.28-.78Zm94.84,.06l1.1,.56-18.6,7.72-.03-1.16s17.53-7.13,17.53-7.13Zm-21.06,.53c.57-.11,1.54,.54,.28,1.12l-10,4.25c-1.05-.33-.39-.92-.41-1.25,.21,.03,.74,.06,.69,.91,.29-.39,.71-.7-.06-1.25l9.5-3.78Zm23.28,0l.1,6.34-21.47,8.69-.03-5.94s21.4-9.09,21.4-9.09Zm-29.87,.12l1.75,1.34-.38,.16-1.34-1.06-.03-.44Zm23.37,.03v.69l-9.59,3.87,.03-.56s9.56-4,9.56-4Zm-91.94,.09c.53,.35,1.09,.71,1.62,1.06-.36,.3-.68,.63-1,.97l-1.5-1.03c.29-.34,.56-.69,.88-1Zm13.66,.41l1.34,1.41-.06,.94-1.31-1.31,.03-1.03Zm-6.34,.06c1.32,.73,2.64,1.49,3.62,2.5-.23,.11-.46,.23-.69,.34-1.35-1.01-2.55-1.8-3.72-2.53,.26-.1,.5-.22,.78-.31Zm69,.06v7.47l-.88-.69,.03-5.97,.07-.03c.44-.17,.68-.47,.78-.78Zm-69.94,.28c1.31,.83,2.57,1.68,3.75,2.56-.39,.2-.75,.43-1.12,.66-1.22-.89-2.55-1.74-3.88-2.59,.4-.22,.78-.44,1.25-.62Zm-7.31,.25l1.47,1.03c-.27,.3-.51,.64-.75,.97l-1.47-1.03c.22-.34,.49-.66,.75-.97Zm5.94,.44c1.31,.86,2.6,1.72,3.84,2.62-.42,.26-.86,.54-1.25,.84-1.24-.89-2.54-1.75-3.84-2.62,.38-.3,.79-.59,1.25-.84Zm69.97,.03v.59l-.53-.41s.53-.19,.53-.19Zm-.72,.25l.72,.56,.03,2.31-.9-.69v-2.12s.15-.06,.15-.06Zm-.59,.25l.06,4.16-7.31,2.88-.06-3.91,7.31-3.12Zm-75.38,.09l1.44,1c-.24,.34-.45,.71-.66,1.09-.45-.33-.89-.67-1.34-1,.15-.38,.34-.75,.56-1.09Zm5.38,.31c1.29,.87,2.58,1.74,3.81,2.62-.37,.3-.73,.63-1.06,.97l-3.81-2.62c.31-.35,.68-.66,1.06-.97Zm68.84,.66l-.62,1.41-.78-1.31,.53,1.59,.25,.62-.22,1.09,.38,.12,.03-1.03,.66-.44,.88-1.47-1.22,1.03s.12-1.62,.13-1.62Zm-60.78,.03c.5,.1,1.07,.71,1.16,1.03-3.31,1.28-6.82,3.61-7.41,9.06-.24,.34-.96,.36-1.5-.56-.06-1.05,.09-2.01,.41-2.91,.01,0,.02,.02,.03,.03l.03-.12c1.22-3.39,4.64-5.65,7.28-6.53Zm-14.06,.19c.45,.33,.89,.67,1.34,1-.19,.37-.34,.75-.5,1.16-.39-.28-.77-.54-1.16-.81,.05-.47,.15-.92,.31-1.34Zm4.91,.19l3.75,2.62c-.27,.29-.51,.59-.75,.91l-3.75-2.56c.22-.33,.48-.65,.75-.97Zm79.62,.5v.53l-3.5,1.41v-.47s3.5-1.47,3.5-1.47Zm-8.09,.19l.9,.69v.59l-.9-.72v-.56Zm-72.35,.38l3.75,2.59c-.25,.34-.54,.65-.75,1.03-1.24-.83-2.44-1.68-3.62-2.53,.18-.38,.39-.72,.62-1.09Zm-4.41,.19c.38,.27,.75,.54,1.12,.81-.14,.37-.3,.79-.41,1.19-.17-.12-.33-.25-.5-.38-.07-.21-.11-.43-.22-.62-.04-.33-.03-.69,0-1Zm15.44,0c.36,.39,.76,.79,1.09,1.22-.11,0-.21,0-.31,0-.43-.38-.81-.72-1.22-1.06,.15-.05,.27-.11,.44-.16Zm-.62,.22c.4,.33,.83,.66,1.22,1-.55,.01-1.07,.11-1.53,.28-.31-.26-.65-.49-.97-.75,.39-.19,.83-.37,1.28-.53Zm57.5,.03c-.24,0-.45,.19-.56,.69l.12,.44c.46-1.2,1.57,.24,.44,.62l.31,.31c1.28-.33,.4-2.06-.31-2.06Zm4.44,.25l.9,.75v.97l-.9-.72v-1Zm-11.6,.12l.22,.88-2.34,1.62,.06-1.09,2.06-1.41Zm5.94,.03c-1.27,.04-1.96,.78-1.56,1.31h.06c1.14-.08,1.55-.85,1.56-1.25l-.06-.06Zm.16,0c.19,.83-.87,1.53-1.75,1.5l1.37,1.25c.67-.21,1.42-.39,1.25-.94l-.87-1.81Zm-57.84,.19c.32,.25,.63,.47,.94,.72-.45,.19-.82,.5-1.19,.81-.33-.26-.66-.53-1-.78,.38-.28,.79-.51,1.25-.75Zm-9.66,.22c1.2,.86,2.39,1.7,3.62,2.53-.19,.36-.38,.72-.53,1.12,0,0,0,.02,0,.03-1.2-.82-2.38-1.69-3.56-2.53,.13-.39,.29-.76,.47-1.16Zm12.53,.5s.26,.22,.31,.22c.08,1.97-.52,3.42-1.5,4.56-.16,.19-.32,.39-.5,.56-.18,.18-.39,.34-.59,.5-.93,.75-2,1.36-3.13,1.94-.12-.14-.24-.32-.28-.5,0-.04-.37-.27-.38-.31,0-.04,.38,.11,.38,.06-.1-.4,0-.76,.03-1.13,.01-.05-.23-.26-.22-.31s.3,.08,.31,.03c.11-.39,.25-.78,.41-1.16,.01-.04-.26-.21-.25-.25,.01-.03,.33,.07,.34,.03,.14-.32,.27-.61,.44-.91,.02-.04-.15-.24-.12-.28,.02-.04,.23,.07,.25,.03,.18-.3,.37-.58,.59-.84,.03-.04-.16-.24-.12-.28,.04-.05,.33,.08,.37,.03,.25-.26,.52-.5,.81-.72,.05-.04-.21-.28-.16-.31s.42,.16,.47,.12c.31-.2,.61-.39,.97-.53,.06-.02-.13-.32-.06-.34,.07-.02,.4,.24,.47,.22,.38-.11,.8-.19,1.22-.22,.04,0-.1-.22-.06-.22Zm-4.28,.12c.34,.25,.69,.53,1.03,.78-.32,.29-.64,.59-.91,.94l-1.12-.81c.3-.32,.62-.62,1-.91Zm4.97,.09c.09,0,.19,0,.28,0,.15,.29,.26,.6,.34,.88l-.66-.47c0-.13,.03-.27,.03-.41Zm-16.62,.03c.12,.09,.22,.22,.34,.31-.18-.07-.27-.19-.34-.31Zm76.06,0l2.57,2v6.19l-7.82-6.16s5.25-2.03,5.25-2.03Zm25.25,.16l.19,1.09-22.47,8.84-9.78-7.47,1.03-.41,8.66,6.81s22.37-8.88,22.37-8.88Zm-98.4,.41c1.18,.84,2.36,1.65,3.56,2.47-.14,.41-.25,.86-.34,1.31-1.2-.81-2.4-1.67-3.56-2.53,.08-.42,.21-.82,.34-1.25Zm13.69,.03l.72,.44c.1,.4,.09,.78,.06,1.16l-.84-.59c.04-.32,.04-.65,.06-1Zm-6,.31l1.12,.81c-.24,.32-.43,.62-.62,.97l-1.25-.84c.21-.32,.48-.64,.75-.94Zm7.03,0c-.05,.04-.1,.08-.16,.13-.01-.01-.02-.02-.03-.03-.02-.07,.13-.06,.19-.09Zm.34,.5c.5,.1,1.07,.71,1.16,1.03-.45,.17-.9,.37-1.34,.59,.01-.07,.06-.14,.06-.22s-.32-.33-.31-.41c0-.08,.31,.02,.31-.06,0-.29,.01-.57-.03-.88,.05-.02,.1-.05,.16-.06Zm-17.59,.41c.33,.34,.72,.71,1.16,1-.07,.04-.15,.08-.22,.12-.51-.32-1.02-.65-1.53-.97,.19-.07,.39-.11,.59-.16Zm16.12,0l.88,.62c-.04,.31-.12,.59-.22,.88-.28-.21-.56-.44-.84-.66,.07-.27,.14-.55,.19-.84Zm-13.97,.12c1.16,.86,2.36,1.72,3.56,2.53-.06,.29-.12,.57-.16,.88-1.31-.86-2.49-1.8-3.53-2.81,.03-.2,.08-.39,.12-.59Zm7.25,.03l1.25,.84c-.2,.36-.4,.71-.56,1.06-.44-.28-.85-.56-1.28-.84,.17-.37,.36-.71,.59-1.06Zm-10.09,.03c.51,.32,1.02,.64,1.53,.97-.42,.27-.84,.57-1.22,.88-.53-.35-1.09-.68-1.62-1.03,.35-.36,.82-.63,1.31-.81Zm-1.38,.88c.53,.35,1.06,.71,1.59,1.06-.36,.3-.68,.6-1,.94l-1.47-1c.29-.34,.56-.69,.88-1Zm17.94,0l.88,.56c-.1,.25-.24,.48-.38,.72l-.78-.47c.12-.26,.2-.53,.28-.81Zm-14.53,.06c.19,.11,.38,.2,.59,.25,0-.05,.02-.11,.03-.16,.35,.31,.72,.61,1.09,.91-3.57,2.05-4.4,4.77-5.56,8.19-.55-.31-1.22-.58-1.47-1.38,.84-2.94,1.8-5.85,5.31-7.81Zm7.41,.22c.43,.28,.84,.57,1.28,.84-.19,.42-.33,.81-.47,1.19-.44-.28-.88-.56-1.31-.84,.12-.41,.32-.78,.5-1.19Zm9.28,.09c.4,.33,.83,.66,1.22,1-.55,.01-1.07,.11-1.53,.28-.19-.16-.39-.32-.59-.47,.03-.09,.07-.16,.09-.25,0-.03-.06-.09-.12-.16,.07-.03,.14-.09,.22-.12,.24-.1,.47-.19,.72-.28Zm-2.5,.53l.78,.5c-.13,.21-.29,.42-.44,.62l-.66-.5c.13-.2,.21-.42,.31-.62Zm-18.53,.16l1.47,1.03c-.27,.3-.51,.61-.75,.94l-1.47-1c.22-.34,.49-.66,.75-.97Zm6.34,.22c.68,.54,1.37,1.09,2.12,1.59,0,.06,0,.1,0,.16-.8-.54-1.61-1.09-2.44-1.62,.1-.05,.21-.08,.31-.13Zm13.75,.03c.17,.13,.34,.27,.5,.41-.36,.15-.67,.36-.97,.59,.09-.16,.17-.34,.25-.5,.03-.05-.21-.23-.19-.28,.03-.05,.32,.02,.34-.03,.03-.06,.04-.12,.06-.19Zm-14.19,.19c.85,.56,1.7,1.11,2.53,1.69,0,.02,0,.04,0,.06,.4,.5,.77,.79,1.19,.97-.37,.24-.75,.48-1.09,.75-1.24-.89-2.54-1.79-3.84-2.66,.38-.3,.76-.55,1.22-.81Zm5.31,.12c.42,.28,.86,.54,1.28,.81-.05,.13-.11,.28-.16,.41-.04,.3-.03,.6-.03,.88-.45-.26-.9-.54-1.34-.81,.08-.42,.13-.86,.25-1.28Zm6.88,.06l.69,.47c-.17,.22-.35,.42-.53,.62l-.69-.5c.18-.2,.38-.38,.53-.59Zm4.41,.03s.26,.19,.31,.19c.08,1.97-.52,3.45-1.5,4.59-.16,.19-.32,.39-.5,.56-.18,.18-.39,.31-.59,.47-.93,.75-2,1.36-3.12,1.94-.12-.14-.21-.32-.25-.5,0-.04-.31-.22-.38-.28,.06,0,.35,.1,.34,.06-.1-.4,0-.76,.03-1.12,.01-.05-.23-.29-.22-.34,.01-.05,.3,.08,.31,.03,.11-.39,.25-.78,.41-1.16,.01-.04-.26-.18-.25-.22,.01-.03,.33,.03,.34,0,.14-.32,.27-.61,.44-.91,.02-.04-.15-.21-.12-.25,.02-.04,.23,.07,.25,.03,.18-.3,.37-.58,.59-.84,.03-.03-.06-.14-.09-.22,.02-.02,.04-.04,.06-.06,.1,.01,.25,.07,.28,.03,.25-.27,.52-.5,.81-.72,.05-.04-.2-.28-.16-.31,.05-.04,.42,.13,.47,.09,.31-.2,.61-.36,.97-.5,.06-.02-.13-.35-.06-.37,.07-.02,.4,.27,.47,.25,.38-.11,.8-.22,1.22-.25,.04,0-.1-.19-.06-.19Zm.72,.22c.09,0,.16,0,.25,0,.15,.29,.26,.6,.34,.88l-.62-.5c0-.13,.03-.24,.03-.38Zm-24.03,.19l1.47,1c-.24,.34-.49,.68-.69,1.06-.45-.33-.89-.67-1.34-1,.15-.38,.34-.71,.56-1.06Zm19.97,.19c.03-.05,.34,.09,.41,.06-.06,.05-.13,.08-.19,.12-.07-.06-.15-.1-.22-.16,0,0,0-.03,0-.03Zm-14.56,.09c1.29,.87,2.54,1.77,3.78,2.66-.37,.3-.7,.6-1.03,.94l-3.81-2.59c.31-.35,.68-.69,1.06-1Zm12.84,0l.69,.5c-.16,.19-.3,.38-.47,.56-.01,.01-.02,.05-.03,.06l-.78-.62c.2-.17,.42-.33,.59-.5Zm5.72,.12l.72,.47c.1,.4,.12,.79,.09,1.16l-.88-.63c.04-.32,.04-.65,.06-1Zm-12.22,.5c.45,.28,.91,.58,1.38,.84,.01,.25,.05,.5,.12,.72-.57-.25-1.1-.54-1.62-.81,.03-.24,.08-.5,.12-.75Zm5.78,0l.81,.59c-.21,.18-.42,.34-.66,.5l-.75-.66c.21-.14,.41-.29,.59-.44Zm1.88,.09s.06,0,.09,0c-.02,.02-.04,.04-.06,.06-.01-.02-.04-.06-.03-.06Zm-20,.16c.45,.33,.89,.67,1.34,1-.19,.37-.34,.78-.5,1.19-.39-.28-.77-.57-1.16-.84,.05-.47,.15-.92,.31-1.34Zm4.88,.22l3.78,2.59c-.27,.29-.54,.62-.78,.94l-3.75-2.59c.22-.33,.48-.62,.75-.94Zm12.44,.09l.81,.62c-.27,.17-.57,.3-.88,.44l-.75-.53c.31-.17,.55-.36,.81-.53Zm7.16,.19l.88,.59c-.04,.31-.12,.59-.22,.88-.28-.21-.56-.41-.84-.62,.07-.27,.14-.55,.19-.84Zm-5.16,.06s.12,0,.22,.03c-.05,.08-.08,.17-.12,.25-.04-.11-.13-.25-.09-.28Zm-2.97,.38l.78,.5c-.28,.12-.59,.22-.91,.31l-.59-.44c.25-.12,.49-.25,.72-.38Zm-4.19,.03c.42,.24,.82,.49,1.25,.72-2.69,1.42-5.15,3.78-5.62,8.25-.24,.34-.93,.36-1.47-.56-.06-1.06,.09-2.01,.41-2.91,.01,0,.02,0,.03,0v-.09c.85-2.34,2.75-4.13,4.72-5.31,.19,.05,.4,.1,.62,.12,0-.07,.05-.14,.06-.22Zm7.03,.19c-.04,.07-.08,.14-.13,.22l-.06-.03c.07-.06,.12-.13,.19-.19Zm-15.09,.09l3.72,2.59c-.25,.34-.51,.68-.72,1.06-1.24-.83-2.47-1.68-3.66-2.53,.18-.38,.42-.76,.66-1.13Zm14.56,.06s.06,.02,.09,.03l.25,.16c-.2,.36-.37,.71-.53,1.06-.24-.15-.46-.32-.69-.47-.03-.07-.1-.2-.06-.22,.06-.03,.35,.13,.41,.09,.37,.29,.39-.18,.56-.34,.04-.04-.08-.28-.03-.31Zm-3.12,.06l.53,.44c-.09,.02-.19,.04-.28,.06-.37-.06-.63-.11-.84-.22,.21-.1,.4-.19,.59-.28Zm-15.88,.09c.38,.27,.75,.54,1.12,.81-.14,.37-.27,.75-.38,1.16-.17-.12-.33-.22-.5-.34-.07-.21-.14-.46-.25-.66-.04-.33-.03-.65,0-.97Zm24.56,.09l.88,.56c-.1,.25-.24,.48-.38,.72l-.78-.5c.12-.26,.2-.5,.28-.78Zm-10.34,.38c.28,.15,.58,.3,.88,.44,.13,.08,.55,.19,.88,.31-.53,.02-1,.11-1.44,.28-.31-.26-.65-.49-.97-.75,.2-.1,.43-.19,.66-.28Zm3.81,.25c.24,.15,.48,.32,.72,.47-.19,.42-.36,.84-.5,1.22-.15-.1-.29-.19-.44-.28-.09-.24-.18-.5-.31-.75-.08-.09-.22-.19-.31-.28,0-.02-.02-.04-.03-.06,.02-.05,.04-.1,.06-.16,.1,.05,.19,.1,.22,.09,.21-.07,.4-.16,.59-.25Zm-4.63,.12c.32,.25,.66,.47,.97,.72-.45,.19-.82,.47-1.19,.78-.33-.26-.69-.49-1.03-.75,.38-.28,.79-.51,1.25-.75Zm10.81,.16l.78,.5c-.13,.21-.29,.42-.44,.62l-.66-.5c.13-.2,.21-.42,.31-.62Zm-20.47,.03c1.2,.86,2.42,1.7,3.66,2.53-.19,.36-.38,.76-.53,1.16,0,0-.03,0-.03,0-1.2-.82-2.38-1.66-3.56-2.5,.13-.39,.29-.8,.47-1.19Zm12.56,.53s.26,.19,.31,.19c.08,1.97-.52,3.45-1.5,4.59-.16,.19-.32,.39-.5,.56-.18,.18-.39,.34-.59,.5-.93,.75-2,1.33-3.13,1.9-.12-.14-.24-.31-.28-.5,0-.04-.4-.27-.41-.31,0-.04,.38,.14,.38,.09-.09-.4,.02-.76,.06-1.12,.01-.05-.26-.29-.25-.34,.01-.05,.33,.11,.34,.06,.11-.39,.22-.81,.38-1.19,.01-.04-.23-.18-.22-.22,.01-.03,.33,.07,.34,.03,.14-.32,.27-.64,.44-.94,.02-.04-.18-.21-.16-.25,.02-.04,.26,.07,.28,.03,.18-.3,.37-.58,.59-.84,.03-.04-.19-.24-.16-.28,.04-.05,.36,.08,.41,.03,.25-.27,.52-.5,.81-.72,.05-.04-.21-.28-.16-.31s.39,.13,.44,.09c.31-.2,.61-.36,.97-.5,.06-.02-.1-.35-.03-.38,.07-.02,.4,.27,.47,.25,.38-.11,.77-.19,1.19-.22,.04,0-.07-.22-.03-.22h0Zm-4.28,.13c.34,.25,.66,.5,1,.75-.32,.29-.61,.62-.88,.97l-1.16-.81c.3-.32,.65-.62,1.03-.91Zm11.75,.06l.69,.5c-.17,.22-.35,.42-.53,.62l-.69-.5c.19-.2,.38-.42,.53-.62Zm-6.78,.03s.04,0,.06,0c.1,.06,.19,.13,.28,.19,.11,.23,.22,.47,.28,.69l-.66-.5c0-.13,.03-.24,.03-.38Zm-16.66,.03c.13,.09,.25,.19,.38,.28,0,0,0,.02,0,.03-.18-.07-.3-.19-.38-.31Zm17.53,.5c.1,.07,.21,.12,.31,.19-.05,.13-.08,.28-.12,.41,0,.04,0,.08,0,.12-.1-.08-.24-.17-.25-.22-.03-.09,.21-.06,.19-.16-.03-.12-.09-.23-.12-.34Zm-14.62,.03c1.18,.84,2.39,1.68,3.59,2.5-.14,.41-.28,.83-.38,1.28-1.2-.81-2.4-1.64-3.56-2.5,.08-.42,.21-.85,.34-1.28Zm13.72,.03l.72,.47c.06,.27,.06,.53,.06,.78-.28-.17-.57-.33-.84-.5,.03-.24,.05-.49,.06-.75Zm6.16,.12l.69,.47c-.16,.19-.3,.41-.47,.59-.01,.01-.02,.02-.03,.03l-.78-.59c.2-.17,.42-.33,.59-.5Zm-12.19,.22l1.16,.78c-.24,.32-.46,.65-.66,1l-1.22-.84c.21-.32,.45-.64,.72-.94Zm11.47,.41l.81,.56c-.21,.18-.42,.37-.66,.53l-.75-.66c.21-.14,.41-.29,.59-.44Zm-5.53,.16c.29,.18,.58,.33,.88,.5,0,.07,0,.15,0,.22l-.88-.62s0-.06,0-.09Zm-.03,.34l.88,.59c0,.07-.02,.15-.03,.22-.32-.14-.63-.28-.94-.44,.03-.13,.08-.25,.09-.38Zm4.75,.06l.84,.59c-.27,.17-.6,.33-.91,.47l-.75-.53c.31-.17,.55-.36,.81-.53Zm-18.69,.06c1.16,.86,2.33,1.72,3.53,2.53-.06,.29-.09,.54-.12,.84-1.31-.86-2.49-1.77-3.53-2.78,.03-.2,.08-.39,.12-.59Zm7.25,0l1.22,.88c-.2,.36-.37,.71-.53,1.06-.44-.28-.88-.56-1.31-.84,.17-.37,.4-.74,.62-1.09Zm7.81,.41s.04,.03,.06,.03c0,.07,.02,.15,.03,.22-.07-.09-.16-.18-.16-.22,0-.02,.03-.03,.06-.03Zm2.66,.16l.78,.5c-.28,.12-.59,.22-.91,.31l-.59-.44c.25-.12,.49-.25,.72-.38Zm-3.97,.16c.29,.16,.58,.34,.88,.5-.02,.05-.01,.11-.03,.16-.28-.21-.56-.44-.84-.66Zm-.03,.22l.84,.56c-.1,.25-.21,.48-.34,.72l-.81-.5c.12-.26,.23-.5,.31-.78Zm3.19,.03l.53,.44c-.09,.02-.19,.04-.28,.06-.38-.06-.63-.11-.84-.22,.21-.1,.4-.18,.59-.28Zm-10.34,.25c.43,.28,.87,.54,1.31,.81-.19,.42-.33,.84-.47,1.22-.43-.28-.88-.56-1.31-.84,.12-.41,.29-.79,.47-1.19Zm6.78,.62l.78,.5c-.13,.21-.26,.42-.41,.62l-.69-.5c.13-.2,.21-.42,.31-.62Zm-7.28,.69c.42,.28,.86,.57,1.28,.84-.05,.13-.11,.25-.16,.37-.04,.3-.06,.6-.06,.88-.45-.27-.87-.51-1.31-.79,.08-.41,.13-.88,.25-1.31Zm6.84,.06l.69,.5c-.17,.22-.35,.42-.53,.62l-.66-.5c.18-.2,.35-.42,.5-.62Zm-.62,.75l.69,.46c-.16,.19-.3,.41-.47,.6-.01,.01-.02,.02-.03,.03l-.78-.6c.2-.16,.42-.32,.59-.49Zm-6.5,.62c.45,.28,.88,.55,1.34,.81,.01,.26,.08,.53,.16,.75-.57-.25-1.13-.54-1.66-.81,.03-.24,.11-.5,.16-.75Zm5.78,0l.81,.56c-.21,.19-.42,.37-.66,.53l-.75-.65c.21-.15,.41-.29,.59-.44Zm-.81,.56l.81,.6c-.27,.17-.6,.33-.91,.47l-.75-.54c.31-.17,.58-.36,.84-.53Zm-.97,.63l.75,.5c-.28,.12-.59,.22-.91,.31l-.56-.44c.25-.12,.49-.25,.72-.37Zm-.84,.4l.53,.44c-.09,.02-.16,.04-.25,.06-.37-.05-.66-.08-.88-.18,.21-.1,.4-.22,.59-.32Z"/>
    </g>
  </g>
</svg>