<?xml version="1.0" encoding="UTF-8"?>
<svg id="Layer_2" data-name="Layer 2" xmlns="http://www.w3.org/2000/svg" viewBox="0 0 206.56 140.13">
  <defs>
    <style>
      .cls-1 {
        opacity: .8;
      }

      .cls-2, .cls-3 {
        fill: #4a2412;
      }

      .cls-3 {
        fill-rule: evenodd;
      }
    </style>
  </defs>
  <g id="Layer_2-2" data-name="Layer 2">
    <g id="Layer_2-2" data-name="Layer 2-2">
      <g>
        <g id="layer1" class="cls-1">
          <path id="path2309" class="cls-3" d="M63.25,94.44c-5.42,1.14-9.38-.06-12.5-2.35l-.5,.03c3.29,2.41,7.37,3.77,13.03,2.57l-.03-.25Zm60.69-10.97l-.09,.41c-1.38,5.42-10.18,7.35-12.57,1.47l-.21-.07c1.34,6.42,13.78,3.85,12.87-1.81Zm-29.28-.59l-.22-.1c-.83,1.75-1.07,2.63,.5,3.41l.31-.22c-1.36-.57-1.08-1.79-.59-3.09Zm-46.01,.91s.09,.06,.13,.09l.1,.03c-.07-.04-.15-.08-.23-.12Zm-3.02-1.26c-.37,.01-.75,.09-1.16,.25l-.06,.19c1.22-.63,3.04,.19,4.24,.82-1.06-.73-1.97-1.28-3.02-1.26Zm103.78,.03l-.19-.25c-.16,2.46,2.4,2.51,4.35,2.66l.15-.37c-1.59,.39-3.58-.43-4.31-2.04Zm-37.22,.72l.34,.25c-.29-1.96,.78-2.8,2.6-3.15l.06-.22c-2.5,.29-3.21,.78-3,3.12Zm-14.31-3.28l.06,.28c2.87-.15,4.55,1.01,4.09,4l.25,.22c.84-3.85-1.09-4.45-4.4-4.5Zm58.09-1.37l-.06,.22c3.65,1.69,2.22,6.01-.87,7.75l.12,.34c3.37-1.94,4.74-6.26,.81-8.31Zm-3.4-9.38c-.17,.01-.35,.04-.53,.06l.03,.35c2.5-.34,3.12,1.97,3,4.12h.25c.55-2.86-.22-4.69-2.75-4.53Zm-101.13-1.72c-.63-.07-1.19-.12-1.72-.12-3.39-.03-4.85,1.43-6.16,4.4,1.99-3.45,3.66-4.23,7.91-4.15l-.03-.13Zm29.38-6.34l-.04-.25c-4.08,1.6-2.34,3.74,.38,5.34l.25-.28c-2.73-1.25-3.85-3.61-.59-4.81Zm4.78-1.34l-.03,.12c3.9,.71,5.99,4.15,2.18,6l-.18,.16c5.17-2.09,2.54-5.37-1.97-6.28Zm-6.41-2.72l-.12-.25c-4.83,1.06-6.63,3.42-4.6,7.84l.38-.09c-2.2-3.97,.52-6.36,4.34-7.5Zm60.5-31.41l-.06,4.28,4.38-1.65v-4.6l-4.32,1.97Zm3.88,2.06l-3.41,1.44,.03-3.22,3.38-1.47s0,3.25,0,3.25Zm-3.88-2.06l-.06,4.28,4.38-1.65v-4.6l-4.32,1.97Zm3.88,2.06l-3.41,1.44,.03-3.22,3.38-1.47s0,3.25,0,3.25Zm-47.63-6.65l.06,4.22,4.53,3.31,.04-4.47-4.63-3.06Zm4,6.47l-3.37-2.35v-3.03l3.37,2.31v3.07Zm-4-6.47l.06,4.22,4.53,3.31,.04-4.47-4.63-3.06Zm4,6.47l-3.37-2.35v-3.03l3.37,2.31v3.07Zm42.78-7.57l-.15-.25-.94,.47-.84-1.62-.28,.09,.87,1.66-2.63,1.28v.25l2.76-1.31,.15,.28,.19-.22-.1-.16,.97-.47h0Zm.44-1.56l-.19,.03,.69,1.38,.28-.03-.78-1.38Zm-41.47-.19l-.03,.19c1.6,.93,2.93,2.4,4.5,3.38l.06-.19c-1.61-.94-2.92-2.42-4.53-3.38Zm41.47,.19l-.19,.03,.69,1.38,.28-.03-.78-1.38Zm-.44,1.56l-.15-.25-.94,.47-.84-1.62-.28,.09,.87,1.66-2.63,1.28v.25l2.76-1.31,.15,.28,.19-.22-.1-.16,.97-.47h0Zm-20.94-5.34l-.12,.06,1.69,3.1,.12-.1-1.69-3.06Zm20.47,1.44l-.18-.16s-.91,.07-1.53,.13l-4.66-3.85,1.87,.53-.15-.09-1.91-.56-.56-.47h-.16l.5,.4-.72-.21,.03,.12,.85,.25,4.81,3.91c-.16,.01-.37,.03-.43,.03l.09,.12c.07,0,.3-.02,.5-.03l.84,.69,.13,.03-.88-.72c.65-.04,1.56-.12,1.56-.12Zm-43.53-4.78l-1.22,1.9,.19,.03,1.16-1.78s-.13-.15-.13-.15Zm39.07,6.65l.65-.87-.25-.16-.62,.88-2.32-1.85,.32-.47-.19-.12-.28,.47-.91-.72-.12,.15,.9,.72-1.65,2.57c-.56-.37-1.12-.72-1.66-1.1l.56-.72-.25-.06-.5,.66c-.63-.45-1.26-.93-1.81-1.44l1.25-4.19c.65,.59,1.36,1.13,2.06,1.66l-.72,1.4,.16,.07,.75-1.35c.21,.16,.42,.31,.62,.47l.1-.09c-.23-.17-.44-.36-.66-.53l.25-.44-.19-.16-.25,.47c-.7-.56-1.37-1.16-2.03-1.78l.16-.53-.25-.06-.13,.4c-.13-.13-.27-.27-.4-.4-.05,.11-.06,.06-.16,.18,.16,.18,.33,.34,.5,.5l-1.22,4.25c-.1-.09-.21-.18-.31-.28,0,.04,0,.08-.06,.13,.1,.11,.23,.2,.34,.31l-.19,.66,.16,.06,.16-.56c.55,.5,1.15,.93,1.78,1.37l-.78,1.06,.18,.07,.79-1c.54,.38,1.09,.79,1.65,1.15l-.34,.53,.28,.07,.28-.47c.76,.49,1.52,.98,2.22,1.53l-.34,.5,.15,.19,.41-.53c.1,.08,.21,.16,.31,.25v-.22c-.07-.06-.15-.1-.22-.16l1.69-2.28,.81,.66v-.29l-.68-.56h0Zm-2.01,2.31c-.7-.54-1.44-1.05-2.21-1.56l1.59-2.56,2.28,1.81-1.66,2.31h0Zm-33.9-3.06l1.15-1.94-.09-.15-1.25,2c-.68-.47-1.35-.94-2.03-1.41l2.22-3.69c.74,.58,1.65,1.29,1.65,1.29l.07-.19s-.87-.66-1.63-1.22l.5-.84-.19-.07-.46,.78c-.59-.43-1.08-.77-1.29-.93l.22,.31c.21,.16,.54,.42,.97,.75l-2.22,3.72c-1.11-.76-2.23-1.53-3.34-2.28l.28-.44-.12-.13-.32,.47c-.51-.34-1.02-.69-1.53-1.03l-.31,.13c.56,.39,1.15,.76,1.72,1.15l-.72,1.13,.12,.09,.72-1.12c1.12,.76,2.25,1.53,3.38,2.28l-.41,.65,.1,.19,.46-.75c.68,.45,1.36,.9,2.04,1.35l-.25,.37,.21,.09,.22-.34c.88,.57,1.75,1.15,2.63,1.72,.01,.01,.03,.01,.12-.13-.89-.59-1.74-1.21-2.62-1.81Zm-.19,1.03l-.03,.19c1.6,.93,2.93,2.4,4.5,3.38l.06-.19c-1.61-.94-2.92-2.42-4.53-3.38Zm.19-1.03l1.15-1.94-.09-.15-1.25,2c-.68-.47-1.35-.94-2.03-1.41l2.22-3.69c.74,.58,1.65,1.29,1.65,1.29l.07-.19s-.87-.66-1.63-1.22l.5-.84-.19-.07-.46,.78c-.59-.43-1.08-.77-1.29-.93l.22,.31c.21,.16,.54,.42,.97,.75l-2.22,3.72c-1.11-.76-2.23-1.53-3.34-2.28l.28-.44-.12-.13-.32,.47c-.51-.34-1.02-.69-1.53-1.03l-.31,.13c.56,.39,1.15,.76,1.72,1.15l-.72,1.13,.12,.09,.72-1.12c1.12,.76,2.25,1.53,3.38,2.28l-.41,.65,.1,.19,.46-.75c.68,.45,1.36,.9,2.04,1.35l-.25,.37,.21,.09,.22-.34c.88,.57,1.75,1.15,2.63,1.72,.01,.01,.03,.01,.12-.13-.89-.59-1.74-1.21-2.62-1.81Zm-3.16-5.9l-1.22,1.9,.19,.03,1.16-1.78s-.13-.15-.13-.15Zm28.47,.37l-.03-.06-3,1.31-2-3.53-.13,.09,1.97,3.5-8.18,3.63-1.38-2.69-.16,.03,1.38,2.72-1.31,.59v.1l1.34-.6,1.31,2.57c-2.24,.94-4.47,1.89-6.72,2.84l-.65-1.56-.25,.09,.65,1.56c-.22,.1-.43,.19-.65,.29l.09,.06c.2-.08,.4-.17,.6-.25l.34,.78,.22-.09-.31-.79c2.24-.93,4.49-1.86,6.75-2.78l.21,.44,.19-.12-.22-.41c1.02-.41,2.04-.81,3.07-1.22l-.13-.19c-1.02,.41-2,.87-3,1.28l-1.31-2.59,8.15-3.59,1.85,3.25,.19-.07-1.88-3.28s3-1.31,3-1.31Zm15.06,4.41l-.18-.16s-.91,.07-1.53,.13l-4.66-3.85,1.87,.53-.15-.09-1.91-.56-.56-.47h-.16l.5,.4-.72-.21,.03,.12,.85,.25,4.81,3.91c-.16,.01-.37,.03-.43,.03l.09,.12c.07,0,.3-.02,.5-.03l.84,.69,.13,.03-.88-.72c.65-.04,1.56-.12,1.56-.12Zm-4.46,1.87l.65-.87-.25-.16-.62,.88-2.32-1.85,.32-.47-.19-.12-.28,.47-.91-.72-.12,.15,.9,.72-1.65,2.57c-.56-.37-1.12-.72-1.66-1.1l.56-.72-.25-.06-.5,.66c-.63-.45-1.26-.93-1.81-1.44l1.25-4.19c.65,.59,1.36,1.13,2.06,1.66l-.72,1.4,.16,.07,.75-1.35c.21,.16,.42,.31,.62,.47l.1-.09c-.23-.17-.44-.36-.66-.53l.25-.44-.19-.16-.25,.47c-.7-.56-1.37-1.16-2.03-1.78l.16-.53-.25-.06-.13,.4c-.13-.13-.27-.27-.4-.4-.05,.11-.06,.06-.16,.18,.16,.18,.33,.34,.5,.5l-1.22,4.25c-.1-.09-.21-.18-.31-.28,0,.04,0,.08-.06,.13,.1,.11,.23,.2,.34,.31l-.19,.66,.16,.06,.16-.56c.55,.5,1.15,.93,1.78,1.37l-.78,1.06,.18,.07,.79-1c.54,.38,1.09,.79,1.65,1.15l-.34,.53,.28,.07,.28-.47c.76,.49,1.52,.98,2.22,1.53l-.34,.5,.15,.19,.41-.53c.1,.08,.21,.16,.31,.25v-.22c-.07-.06-.15-.1-.22-.16l1.69-2.28,.81,.66v-.29l-.68-.56h0Zm-2.01,2.31c-.7-.54-1.44-1.05-2.21-1.56l1.59-2.56,2.28,1.81-1.66,2.31h0Zm-6.93-13.31l-.16-.19-.59,.25-3.32-3.43,.79-.32-.19-.06-.69,.28-.19-.22-.12,.07,.19,.18-5.72,2.29-.03-.1h-.16l.06,.16-2.97,1.19-.28-.5-.19,.15,.25,.44-8.59,3.41-.19-.41-.22,.12,.16,.38-1.34,.53,.12,.19,1.31-.53,1.29,2.93-.72,.29,.09,.15,.69-.28,1.81,4.09,.25-.15-1.81-4.03,2.56-1.03,3.41,7.18,.15-.06-3.37-7.19,6.19-2.47,2.03,3.63,.15-.19-1.97-3.5,2.79-1.12-.19-.19-2.72,1.09-1.59-2.81,2.96-1.19,1.22,2.63,.19-.1-1.25-2.56,3.25-1.31,2.59,3.72-.65,.28,.03,.16,.72-.29,2.09,2.97,.16-.12-2.13-2.91,3.1-1.22,.62,.66,.13-.09-.6-.63,.6-.22h0Zm-11.66,3.13l-6.16,2.47-.56-1.19-.15,.09,.56,1.19-2.56,1.03-1.32-2.94,8.6-3.47s1.59,2.82,1.59,2.82Zm7.72-1.75l-2.69-3.72,2.44-.97,3.28,3.44-3.03,1.25Zm3.94-1.38l-.16-.19-.59,.25-3.32-3.43,.79-.32-.19-.06-.69,.28-.19-.22-.12,.07,.19,.18-5.72,2.29-.03-.1h-.16l.06,.16-2.97,1.19-.28-.5-.19,.15,.25,.44-8.59,3.41-.19-.41-.22,.12,.16,.38-1.34,.53,.12,.19,1.31-.53,1.29,2.93-.72,.29,.09,.15,.69-.28,1.81,4.09,.25-.15-1.81-4.03,2.56-1.03,3.41,7.18,.15-.06-3.37-7.19,6.19-2.47,2.03,3.63,.15-.19-1.97-3.5,2.79-1.12-.19-.19-2.72,1.09-1.59-2.81,2.96-1.19,1.22,2.63,.19-.1-1.25-2.56,3.25-1.31,2.59,3.72-.65,.28,.03,.16,.72-.29,2.09,2.97,.16-.12-2.13-2.91,3.1-1.22,.62,.66,.13-.09-.6-.63,.6-.22h0Zm-11.66,3.13l-6.16,2.47-.56-1.19-.15,.09,.56,1.19-2.56,1.03-1.32-2.94,8.6-3.47s1.59,2.82,1.59,2.82Zm7.72-1.75l-2.69-3.72,2.44-.97,3.28,3.44-3.03,1.25Zm2.28,3.34l-.03-.06-3,1.31-2-3.53-.13,.09,1.97,3.5-8.18,3.63-1.38-2.69-.16,.03,1.38,2.72-1.31,.59v.1l1.34-.6,1.31,2.57c-2.24,.94-4.47,1.89-6.72,2.84l-.65-1.56-.25,.09,.65,1.56c-.22,.1-.43,.19-.65,.29l.09,.06c.2-.08,.4-.17,.6-.25l.34,.78,.22-.09-.31-.79c2.24-.93,4.49-1.86,6.75-2.78l.21,.44,.19-.12-.22-.41c1.02-.41,2.04-.81,3.07-1.22l-.13-.19c-1.02,.41-2,.87-3,1.28l-1.31-2.59,8.15-3.59,1.85,3.25,.19-.07-1.88-3.28,3-1.31Zm-5.41,2.97l-.12,.06,1.69,3.1,.12-.1s-1.69-3.06-1.69-3.06Zm-.21-12.63l-.04-.09-1.09,.41-1.75-.94-.09,.09,1.62,.94-2.81,1.03-1.34-.97-.16,.1,1.22,.97-5.13,1.93-1.15-.65c.23-.1,.46-.19,.68-.28l-.09-.1c-.24,.1-.51,.19-.75,.28l-.25-.12-.09,.12,.15,.1c-2.11,.83-4.27,1.66-6.43,2.5l-.07-.03-.15,.12c-1.49,.57-2.98,1.14-4.41,1.69v.06h-.31l-.06,.19,3.21-.16,.13-.19-2.59,.13c1.39-.5,2.79-1.06,4.18-1.59l1.25,.4,.13-.19-1.03-.34c2.12-.82,4.22-1.67,6.31-2.53l1.12,.66-.81,.31,.06,.09,.88-.34,.66,.37,.21-.09-.65-.34,5.09-1.91,.56,.44,.19-.19-.47-.34,2.82-1.07,.71,.41,.13-.19-.59-.31,1-.38h0Zm0,0l-.04-.09-1.09,.41-1.75-.94-.09,.09,1.62,.94-2.81,1.03-1.34-.97-.16,.1,1.22,.97-5.13,1.93-1.15-.65c.23-.1,.46-.19,.68-.28l-.09-.1c-.24,.1-.51,.19-.75,.28l-.25-.12-.09,.12,.15,.1c-2.11,.83-4.27,1.66-6.43,2.5l-.07-.03-.15,.12c-1.49,.57-2.98,1.14-4.41,1.69v.06h-.31l-.06,.19,3.21-.16,.13-.19-2.59,.13c1.39-.5,2.79-1.06,4.18-1.59l1.25,.4,.13-.19-1.03-.34c2.12-.82,4.22-1.67,6.31-2.53l1.12,.66-.81,.31,.06,.09,.88-.34,.66,.37,.21-.09-.65-.34,5.09-1.91,.56,.44,.19-.19-.47-.34,2.82-1.07,.71,.41,.13-.19-.59-.31,1-.38h0Zm18.12,23.66l-.06,4.28,4.38-1.65v-4.6l-4.32,1.97Zm3.88,2.06l-3.41,1.44,.03-3.22,3.38-1.47s0,3.25,0,3.25Zm-.41-9.31l-.19,.03,.69,1.38,.28-.03-.78-1.38Zm-.44,1.56l-.15-.25-.94,.47-.84-1.62-.28,.09,.87,1.66-2.63,1.28v.25l2.76-1.31,.15,.28,.19-.22-.1-.16,.97-.47h0Zm-.47-3.9l-.18-.16s-.91,.07-1.53,.13l-4.66-3.85,1.87,.53-.15-.09-1.91-.56-.56-.47h-.16l.5,.4-.72-.21,.03,.12,.85,.25,4.81,3.91c-.16,.01-.37,.03-.43,.03l.09,.12c.07,0,.3-.02,.5-.03l.84,.69,.13,.03-.88-.72c.65-.04,1.56-.12,1.56-.12Zm-4.46,1.87l.65-.87-.25-.16-.62,.88-2.32-1.85,.32-.47-.19-.12-.28,.47-.91-.72-.12,.15,.9,.72-1.65,2.57c-.56-.37-1.12-.72-1.66-1.1l.56-.72-.25-.06-.5,.66c-.63-.45-1.26-.93-1.81-1.44l1.25-4.19c.65,.59,1.36,1.13,2.06,1.66l-.72,1.4,.16,.07,.75-1.35c.21,.16,.42,.31,.62,.47l.1-.09c-.23-.17-.44-.36-.66-.53l.25-.44-.19-.16-.25,.47c-.7-.56-1.37-1.16-2.03-1.78l.16-.53-.25-.06-.13,.4c-.13-.13-.27-.27-.4-.4-.05,.11-.06,.06-.16,.18,.16,.18,.33,.34,.5,.5l-1.22,4.25c-.1-.09-.21-.18-.31-.28,0,.04,0,.08-.06,.13,.1,.11,.23,.2,.34,.31l-.19,.66,.16,.06,.16-.56c.55,.5,1.15,.93,1.78,1.37l-.78,1.06,.18,.07,.79-1c.54,.38,1.09,.79,1.65,1.15l-.34,.53,.28,.07,.28-.47c.76,.49,1.52,.98,2.22,1.53l-.34,.5,.15,.19,.41-.53c.1,.08,.21,.16,.31,.25v-.22c-.07-.06-.15-.1-.22-.16l1.69-2.28,.81,.66v-.29l-.68-.56h0Zm-2.01,2.31c-.7-.54-1.44-1.05-2.21-1.56l1.59-2.56,2.28,1.81-1.66,2.31h0Zm-6.93-13.31l-.16-.19-.59,.25-3.32-3.43,.79-.32-.19-.06-.69,.28-.19-.22-.12,.07,.19,.18-5.72,2.29-.03-.1h-.16l.06,.16-2.97,1.19-.28-.5-.19,.15,.25,.44-8.59,3.41-.19-.41-.22,.12,.16,.38-1.34,.53,.12,.19,1.31-.53,1.29,2.93-.72,.29,.09,.15,.69-.28,1.81,4.09,.25-.15-1.81-4.03,2.56-1.03,3.41,7.18,.15-.06-3.37-7.19,6.19-2.47,2.03,3.63,.15-.19-1.97-3.5,2.79-1.12-.19-.19-2.72,1.09-1.59-2.81,2.96-1.19,1.22,2.63,.19-.1-1.25-2.56,3.25-1.31,2.59,3.72-.65,.28,.03,.16,.72-.29,2.09,2.97,.16-.12-2.13-2.91,3.1-1.22,.62,.66,.13-.09-.6-.63,.6-.22h0Zm-11.66,3.13l-6.16,2.47-.56-1.19-.15,.09,.56,1.19-2.56,1.03-1.32-2.94,8.6-3.47s1.59,2.82,1.59,2.82Zm7.72-1.75l-2.69-3.72,2.44-.97,3.28,3.44-3.03,1.25Zm2.28,3.34l-.03-.06-3,1.31-2-3.53-.13,.09,1.97,3.5-8.18,3.63-1.38-2.69-.16,.03,1.38,2.72-1.31,.59v.1l1.34-.6,1.31,2.57c-2.24,.94-4.47,1.89-6.72,2.84l-.65-1.56-.25,.09,.65,1.56c-.22,.1-.43,.19-.65,.29l.09,.06c.2-.08,.4-.17,.6-.25l.34,.78,.22-.09-.31-.79c2.24-.93,4.49-1.86,6.75-2.78l.21,.44,.19-.12-.22-.41c1.02-.41,2.04-.81,3.07-1.22l-.13-.19c-1.02,.41-2,.87-3,1.28l-1.31-2.59,8.15-3.59,1.85,3.25,.19-.07-1.88-3.28,3-1.31Zm-5.41,2.97l-.12,.06,1.69,3.1,.12-.1s-1.69-3.06-1.69-3.06Zm-.21-12.63l-.04-.09-1.09,.41-1.75-.94-.09,.09,1.62,.94-2.81,1.03-1.34-.97-.16,.1,1.22,.97-5.13,1.93-1.15-.65c.23-.1,.46-.19,.68-.28l-.09-.1c-.24,.1-.51,.19-.75,.28l-.25-.12-.09,.12,.15,.1c-2.11,.83-4.27,1.66-6.43,2.5l-.07-.03-.15,.12c-1.49,.57-2.98,1.14-4.41,1.69v.06h-.31l-.06,.19,3.21-.16,.13-.19-2.59,.13c1.39-.5,2.79-1.06,4.18-1.59l1.25,.4,.13-.19-1.03-.34c2.12-.82,4.22-1.67,6.31-2.53l1.12,.66-.81,.31,.06,.09,.88-.34,.66,.37,.21-.09-.65-.34,5.09-1.91,.56,.44,.19-.19-.47-.34,2.82-1.07,.71,.41,.13-.19-.59-.31,1-.38h0Zm-19.88,16.22l-.03,.19c1.6,.93,2.93,2.4,4.5,3.38l.06-.19c-1.61-.94-2.92-2.42-4.53-3.38Zm.19-1.03l1.15-1.94-.09-.15-1.25,2c-.68-.47-1.35-.94-2.03-1.41l2.22-3.69c.74,.58,1.65,1.29,1.65,1.29l.07-.19s-.87-.66-1.63-1.22l.5-.84-.19-.07-.46,.78c-.59-.43-1.08-.77-1.29-.93l.22,.31c.21,.16,.54,.42,.97,.75l-2.22,3.72c-1.11-.76-2.23-1.53-3.34-2.28l.28-.44-.12-.13-.32,.47c-.51-.34-1.02-.69-1.53-1.03l-.31,.13c.56,.39,1.15,.76,1.72,1.15l-.72,1.13,.12,.09,.72-1.12c1.12,.76,2.25,1.53,3.38,2.28l-.41,.65,.1,.19,.46-.75c.68,.45,1.36,.9,2.04,1.35l-.25,.37,.21,.09,.22-.34c.88,.57,1.75,1.15,2.63,1.72,.01,.01,.03,.01,.12-.13-.89-.59-1.74-1.21-2.62-1.81Zm-5.94,3.88l.06,4.22,4.53,3.31,.04-4.47-4.63-3.06Zm4,6.47l-3.37-2.35v-3.03l3.37,2.31v3.07Zm-1.22-16.25l-1.22,1.9,.19,.03,1.16-1.78s-.13-.15-.13-.15Z"/>
          <path class="cls-3" d="M156.41,39.06l.16-1.34-3.38-2.34,.53-.53-5.03-2.63,.53-.69-2.28-.72-.03-11.5,.84-.37-8.56-5.88L125.32,1.56l-4.72-1.56-31.32,12.03,1.04,.72-.04,12.16-11.12,4.19,.03,1.34v.78l2.53,1.03v5.39s-.03,6.77-.03,6.77l-5.16,2.15-.09,2.79,2.03,1.4,.47-.19,2.84,1.85-.09,11.37c.65,1.08,1.51,1.33,2.41,1.5,.54-.22,1.3-.25,1.06-1.18v-9.47l8.06,5.25,1.91,15.09c-1.23,.33-2.52,.55-3.85,.75-.25-.82-.99-1.33-1.71-1.91-5.3-3.67-11.69-4.15-17.88-4.65-2.96-.23-6.14-.46-9.28-.44-7.07,.21-13.24,1.77-16.5,5.09-.55-.16-.55,.81-.63,.91,.5,3.45,1.45,6.35,3.59,9.09,3.16,1.47,1.04,2.28,12.31,3.63,1.96,.32,8.45-.52,10.01-.41l-.06,.07c5.81,3.67,11.78,6.42,18,4.4l-.13-.34c-5.75,1.86-11.86-.54-17.56-4.13,4.6,.28,9.16-.81,13.5-2.62,2.91-2.3,4.82-5.15,6.38-8.44,1.28-.19,2.56-.44,3.84-.75l1.19,9.41,.03-.03c.52,.55,1.04,.29,1.56,.09-.18-.65,.11-.1-.53-.75l.34-1.06c-.04-.79-.52-.81-.81-.1l.06,1.16c-.18,.05-.31,.09-.4,.12l-1.16-8.9c1.19-.31,2.37-.68,3.47-1.16,2.42-1.06,4.35-2.52,6.03-6.19,.06,1.34,.66,2.35-.06,4.16l.56,.06c.11-1.57,.09-2.76-.09-4.03,.31,.91,1.04,1.02,1.53,.78l4.56,2.97v.91l1.78,.53,.16-.06,1.97,1.31,.09,10.12c.02,.58,.58,1.1,2.34,1.5,.6-.14,1.07-.36,1.25-.75l-.06-9.59,.6-.28v-2.28l-.6-.38v-2.03l26-11.12,1.85,6.18c-3.34,1.19-4.87,4.58-4.5,9.54l.28,.21c-.66-4.85,1.15-7.89,4.41-9.12l.78,2.56-.04,4.47c.38,.66,.96,.63,1.54,.63l.9,3.03c-2.3,.07-3.99-1.33-4.84-4.07l-.13,.19c.67,3.56,2.5,4.41,5.03,4.06l.72,2.38c-.31,.15-.56,.4-.72,.87l.22,.04c.09-.3,.31-.48,.6-.6l.84,2.85c0,.06,0,.17-.03,.34,.07,.08,.12,.14,.19,.19l.03,.06,.03-.03c.45,.29,.9,.07,1.34-.1-.18-.64,.11-.1-.53-.75l.35-1.06c-.04-.78-.53-.8-.82-.09l.07,1.15c-.17,.05-.29,.07-.38,.1l-.81-2.72c.66-.15,1.51-.1,2.06-.09l.28-.13c-.95-.1-1.79-.27-2.44-.12l-.71-2.35c.67-.11,1.39-.29,2.15-.53l-.06-.16c-.76,.3-1.46,.48-2.12,.54l-.91-2.97c.08,0,.17-.02,.25,0,1.27-.08,1.28-.58,1.62-.97l-.15-7.31c.64,.02,1.3,.07,2,.18l.22-.18c-.79-.2-1.52-.32-2.22-.41l-.13-5.84,3,1.84,1.44-1.16,.19-1.97-3.16-1.96,3.5-1.5v-2.38l-1.75-.31-3.37,1.37-.12-11.67v-.76s5.49-2.04,5.49-2.04h0Zm-94.38,30.1c3.6-.04,6.75,.34,9.44,.47,6.08,.66,12.65,.96,17.91,4.4,.59,.39,1.08,1.05,1.34,1.69-5.66-4.83-13.36-5.19-20.5-5.72-7.2-.16-18.47-.52-24,4.06,2.18-3.13,10.42-4.84,15.81-4.9Zm28.35,6.84c-.05,.04-.08,.09-.13,.13-.07,.04-.14,.08-.22,.12-6.41-2.97-15.61-4.82-24.68-4.94-6.55-.08-13.02,.76-18.35,2.69,3.48-2.78,9.78-3.61,16.1-3.65,2.29-.02,4.59,.08,6.75,.21,11.46,.31,17.05,2.52,20.53,5.44Zm-43.91-1.56c5.16-2.07,11.77-3.02,18.53-3,9.04,.03,18.32,1.81,24.72,4.94-.19,.1-.37,.21-.56,.31-3.06-1.05-6.48-1.97-10.09-2.69l.09-.28-2.94-.25h-.03c-4.68-.77-9.57-1.18-14.28-1.06-2.92,.07-5.75,.39-8.44,.9,6.08-1.07,13.6-.85,20.41,.04l-.41,1c-3.5-.48-7.03-.72-10.53-.66l.19-.47-4.31-.19-.35,.91c-3.74,.38-7.43,1.16-10.97,2.5-.31-.32-.59-.62-.87-.97,.91-.47,1.93-.9,3.03-1.25-1.08,.32-2.13,.68-3.13,1.09-.14-.17-.32-.35-.43-.5,.11-.12,.24-.25,.37-.37Zm4.72,4.59c-.71-.36-1.38-.74-2-1.18l7.53,.34-.44,1.12-5.09-.28Zm4.94,.63l-.44,1.09c-1.32-.35-2.58-.81-3.75-1.34l4.19,.25Zm-1.44-3.5c1.05-.18,2.07-.32,3.03-.41l-.25,.6s-2.78-.19-2.78-.19Zm2.69,.44l-.5,1.25-7.66-.38c1.24-.4,2.76-.78,4.35-1.09,0,0,3.81,.22,3.81,.22Zm-8.94,.62c-.2-.09-.46-.32-.72-.56,3-1.41,6.7-2.19,10.66-2.53l-.47,1.18c-3.07,.28-7.03,1.05-9.47,1.91Zm10.63-3.78l3.37,.16-2.84,7.87c-.1,.19-2.58-.41-3.38-.59,0,0,2.85-7.44,2.85-7.44Zm2.81,3.16l.4-1.1c3.16,.01,7.34,.29,10.47,.6l-.47,1.12s-10.4-.62-10.4-.62Zm10.34,.81l-.47,1.15-10.4-.53,.43-1.18,10.44,.56Zm-9.78-2.35l.44-1.18c3.52-.04,7.11,.2,10.53,.62l-.44,1.06c-3.2-.31-7.29-.5-10.53-.5Zm-1.78,4.85l10.31,.53-.5,1.19c-1.43,.14-2.85,.25-4.22,.28-2.1,.04-4.2-.06-6.22-.31,0,0,.63-1.69,.63-1.69Zm.12-.31l.44-1.22,10.38,.5-.5,1.25s-10.32-.53-10.32-.53Zm13.44-6.04l4.31,.47-2.43,6.85c-1.64,.3-3.28,.51-4.91,.68,0,0,3.03-8,3.03-8Zm3.75,3.35c1.95,.28,3.7,.61,5.38,.94l-5.6-.35s.22-.59,.22-.59Zm-.81,2.19l5.16,.25c-1.47,.45-2.98,.84-4.54,1.18l-1.12-.06s.5-1.37,.5-1.37Zm.12-.32l.41-1.12,6.66,.37c.37,.08,.79,.14,1.15,.22-.76,.29-1.56,.55-2.37,.81,0,0-5.85-.28-5.85-.28Zm.88-2.43l.37-1.04c3.47,.63,6.55,1.39,8.88,2.16-.41,.17-.8,.37-1.22,.53-2.3-.51-5.09-1.22-8.03-1.65Zm.44-1.16l.4-1.03c3.99,.75,7.45,1.7,9.85,2.69-.35,.16-.71,.31-1.07,.46-2.98-.79-6.06-1.52-9.18-2.12Zm-12.25,7.16c8.58-1.04,11.82,.07,23.06-5.47-1.36,1.11-2.83,1.98-4.5,2.65-3.52,1.38-8.64,2.4-13.53,3.1s-10.03,.73-14.56-.47c-4.02-.95-8.99-3.68-10.54-6.31,4.24,5.17,11.97,6.65,20.07,6.5Zm9.75,4.31c2.67-.53,5.28-1.27,7.81-2.22-2.59,1.11-5.18,1.9-7.81,2.22Zm8.9-2.81c-3.41,1.35-7.01,2.33-10.68,2.93l-12.96,.47c-4.79-.27-10.33-1.82-11.86-3.59-.31-.34-.57-.69-.81-1.03,.5,.37,1.66,1.13,2.19,1.43,5.43,2.58,12.21,2.89,18.22,2.44,6.18-.33,12.08-1.84,17.59-4.28-.52,.57-1.09,1.13-1.69,1.63Zm1.88-1.85c-5.68,2.53-11.91,4.04-18.25,4.35-6.23,.59-12.41-.01-18.1-2.69-.68-.33-1.32-.73-1.93-1.16-.41-.59-.74-1.2-1-1.81,4.47,4.32,10.96,4.14,16.75,4.5,8.62,.29,16.76-1.56,24.15-5.25-.49,.69-1.02,1.39-1.62,2.06Zm1.84-2.34c-7.37,3.7-15.84,5.69-24.34,5.4-3.12-.1-6.36-.42-9.44-.87-2.8-.52-5.1-1.98-7.37-3.66-.29-.68-.51-1.36-.69-2.06,4.53,4.97,11.54,4.94,17.69,5.44,9.01,.3,17.5-1.72,25.15-5.75-.3,.49-.64,.98-1,1.5Zm1.13-1.75c-7.58,4-16.4,6.17-25.25,5.87-5.87-.42-13.46-.88-17.75-5.4-.15-.54-.29-1.08-.41-1.63,2.65,3.27,6.33,4.83,10.28,5.88,4.72,1.25,9.74,1.02,14.72,.31,4.98-.71,9.88-1.72,13.47-3.13,1.79-.62,4.34-2.06,5.84-3.53-.24,.48-.56,1.05-.9,1.63Zm7.28,6.09l.09-1.19c.07-.16,.12-.3,.16-.34,.03-.03,.05,.05,.12,.38l-.28,1.12,.35,.53c-.55,.4-.67,.04-.91-.09l.47-.41Zm55.53-1.37l.09-1.19c.08-.16,.1-.34,.13-.38,.03-.03,.08,.08,.16,.41l-.29,1.13,.35,.53c-.46,.33-.63,.15-.81,0l-.04-.16,.41-.34h0Zm2.91-45.1l-15.25,5.69-.88-2.91,13.31-4.78,2.82,2Zm-13,14l.68,2.38-9.25-6.53,1.57-.57s7,4.72,7,4.72Zm-6.47-4.9l.53-.19,5.53,3.72,.22,.72s-6.28-4.25-6.28-4.25Zm7.37,7.9l.57,1.88-25.07,10.31,.03-13.75,14.63-5.44s9.84,7,9.84,7Zm.32,.22l1.56,1.13-1.1,.43-.46-1.56h0Zm-.19-.62l-.72-2.38,4.72,3.19-1.78,.75s-2.22-1.56-2.22-1.56Zm-.91-3.03l-.22-.75,5.38,3.62v.63l-5.16-3.5Zm-.4-1.38l-1.47-4.84,6.93-2.6,.1,11.19-5.56-3.75Zm-.32-.22l-4.84-3.25,3.47-1.28,1.37,4.53Zm-28.22,4.97l.16-.78,26.34-9.88,.22,.75-26.72,9.91Zm4.88-1.37l-.03,13.78-.5,.22-.07-13.69s.6-.31,.6-.31Zm-.97,.34l-.06,13.84-1.69,.72-.19-13.84s1.94-.72,1.94-.72Zm-10.09,11.34l-.04-.25c-.11,.01-.22,0-.34,0l-14.28-9.12-1.31-10.1,5.18-2.25,2.94,2.88,.75-.19,4.22,2.91-.16,1.34,4.97,2.19-.06,1,4,1.81,1.97-.72v13.91l-1.53,.62-6.31-4.03h0Zm5.81,4.25l-1.38,.57-6.5-4.35c.41-.12,.98-.2,1.57-.25l6.31,4.03Zm14.4-48.93v1.59l-19.25,6.44,.07-1.57,19.18-6.46Zm-19.18,6.31l.03-1.03,19.15-6.91v1.5l-19.18,6.44Zm19.18-4.6l-.03,1.57-5.09,1.68-.03-.59-8.13,2.72v.62l-6,2,.03-1.5,19.25-6.5Zm-4.87,11.79l-.06-1.44,4.87-1.63v1.47s-4.81,1.6-4.81,1.6Zm4.81-1.44v1.25l-4.78,1.69-.03-1.35,4.81-1.59Zm-4.87-.16l-.03-1.56,4.93-1.66-.03,1.57-4.87,1.65Zm-.03-1.69l-.07-1.56,5-1.69v1.6l-4.93,1.65Zm-.07-1.68l-.06-1.69,5.06-1.72v1.72l-5,1.69Zm-.06-1.82l-.03-1.56,5.09-1.75v1.6s-5.06,1.71-5.06,1.71Zm-6.69,1.41l.07,9.28-1,.35v-10.47l7.12-2.35,.13,10.28-.94,.32v-9.41s-5.38,2-5.38,2Zm4.94-1.41v9.5l-4.41,1.57-.03-.53-.06-8.82,4.5-1.72Zm-6.44,1.16v1.56l-6.06,2.03,.06-1.56,6-2.03Zm0,1.72l.03,1.66-6.15,2.06,.06-1.69s6.06-2.03,6.06-2.03Zm.03,1.81v1.6l-6.18,2.06,.03-1.6s6.15-2.06,6.15-2.06Zm0,1.78v1.5l-6.25,2.1,.07-1.53,6.18-2.07Zm0,1.69l.04,1.47-6.32,2.09,.03-1.5,6.25-2.06Zm.04,1.63v1.43l-6.38,2.19,.03-1.5,6.35-2.12Zm1.62,1.53l.06,.28,5.03-1.81v-.25l6.66-2.25,.47,.34-21.84,7.53c-.95-.65-1.99-1.25-3.19-1.84-.85-.48-1.7-.82-2.56-1.13l2.71-1.03,4.22,3.03s8.44-2.87,8.44-2.87Zm29.13-9.22l1.09-.47v1.62l-10.09,4.04v-1.44l2.12-.88v.07s6.88-2.94,6.88-2.94Zm-6.41-3.72l6.03-2.5v5.75l-6,2.62s-.03-5.87-.03-5.87Zm7.53-1.97v1.53l-1.06,.44,.03-1.56s1.03-.41,1.03-.41Zm-1.03,.28l.03-1.56,1.03-.44-.03,1.56-1.03,.44Zm1.03,1.41v1.56l-1.09,.41,.03-1.53s1.06-.44,1.06-.44Zm0,1.69l-.03,1.71-1.09,.44,.03-1.72,1.09-.43Zm-54.28,11.18c3.61-.04,7.49,.69,11,2.44,3.34,1.67,6.28,4.24,8.25,7.72-.13,.05-.26,.08-.41,.09-2.31-3.49-4.71-5.54-8-7.56-3.32-2.04-6.79-2.39-10.43-2.5l-1.38-.03c-.19,0-.37-.03-.56-.03v-.06c.5-.04,1.01-.06,1.53-.07Zm-.31-.25l7-2.97,4.15,3.04-2.9,1.15c-3.05-.94-5.94-1.02-8.07-1.09l-.18-.13Zm46.37-.59l.32,1.09-2.19,.97v-1.28s1.87-.78,1.87-.78Zm-1.87,.5v-.44c.51-.03,1-.08,1.47-.15l-1.47,.59Zm1.78-.72c-4.37,.07-8.42,.18-12.31,2.56-3.26,2-5.65,4.03-7.94,7.47-.13-.03-.26-.07-.38-.12,1.97-3.41,4.87-5.96,8.16-7.6,3.01-1.49,6.29-2.25,9.44-2.4,1.02-.05,2.04,0,3.03,.06,0,0,0,.03,0,.03Zm-2.81,.31c.16,0,.31,0,.46,0v.35l-.46-.35Zm.46,.57v1.4l-2.43-1.81c.55-.06,1.09-.1,1.59-.13,.04,0,.08,0,.13,0l.71,.54h0Zm-3,.03l-8.37,2.9c.6-.41,1.21-.81,1.87-1.22,2.41-1.2,4.39-1.74,6.1-2l.4,.32Zm-14.96,11.78c-.12,.07-.19,.26-.41,.06,0-.47,.12-1.12,.12-1.78l-.62-1.03c.27,.07,.86,.73,1.19,.44l-.35,.65s.07,1.66,.07,1.66Zm-6.22,1.34c-.22,.2-.3,0-.41-.06l.03-1.66-.31-.65c.33,.29,.91-.37,1.19-.44l-.66,1.03c.01,.66,.15,1.31,.16,1.78Zm.28-1.94c.23,.46,.46,.92,.65,1.41l-.15,.06c-.18-.32-.36-.61-.53-.9-.01-.15-.03-.28-.03-.44l.06-.13Zm.25-.37l.31-.5c.16-.27,.24-.47-.28-.28-.15,.02-.27,.07-.41,.12-.43-.73-.87-1.43-1.31-2.03l9.84-3.37c-1.14,1.08-2.15,2.4-3.15,4.09-.1-.04-.21-.08-.31-.09-.53-.19-.42,.04-.25,.31l.21,.37c-.19,.35-.39,.69-.59,1.07l-3.53,1.28c-.18-.35-.35-.65-.53-.97Zm4.9-1l.13,.22v.22c-.24,.39-.48,.78-.72,1.22l-.16-.04c.23-.56,.49-1.1,.75-1.62Zm17.63-10.84l-6.44-4.57v-1.53l7.56,5.47v.56c-.35,.02-.74,.04-1.12,.07Zm1.12-6.13l-7.59-5.37v-1.72l7.59,5.53s0,1.56,0,1.56Zm0,.22v1.53l-7.59-5.37v-1.63s7.59,5.47,7.59,5.47Zm0,1.75v1.81l-7.59-5.37v-1.91s7.59,5.47,7.59,5.47Zm0,2v1.31l-7.56-5.37-.03-1.41s7.59,5.47,7.59,5.47Zm-7.56-2.31l6.19,4.47c-.53,.03-1.08,.09-1.66,.15l-4.53-3.37v-1.25Zm3.53,4.75c-2.04,.31-4.23,.91-6.34,2.09-1.71,.85-3.11,1.68-4.34,2.69l-10.88,3.75c-.97-1.26-2.02-2.28-3.22-3.16l21.91-7.47s2.87,2.1,2.87,2.1Zm-40.12,1.93l.09-.68,4.28,2.59-.15,.72s-4.22-2.63-4.22-2.63Zm2.47,2.07l-2.91,1.18-.16-1.12,1.79-.75s1.28,.69,1.28,.69Zm-1.16-2.66c1.69,.08,3.68,.09,6.22,.88l-2.94,1.15s-3.28-2.03-3.28-2.03Zm-1.75-.16l-.03,.41-.47-.22-.03-.28c.17,.04,.35,.07,.53,.09Zm.09,.85l1.29,1.09-1.57,.63-.25-1.97,.53,.25Zm-.31,3.25l-5.81,2.4v-1.12l5.69-2.41s.12,1.13,.12,1.13Zm.03,.34l.35,2.53-6.19,2.66v-2.78l5.84-2.41Zm.38,2.91l1.25,9.81-7.47-4.78v-2.34s6.22-2.69,6.22-2.69Zm-.16-3l3.28-1.35,1.19,.69,.09,.53,.66,.53-4.87,2.13-.35-2.53Zm5-.28l-.03-.82,3.63,3.1,.03,1.22-3.63-3.5Zm.1-1.41l3.59-1.37c.82,.28,1.66,.65,2.59,1.12,1.01,.62,1.97,1.25,2.85,1.91l-5.28,1.81s-3.75-3.47-3.75-3.47Zm4.12,3.91l.53,.06-.03,.53,.19,.28,.15-.69,3.5,2.6v.87l-3.87-2.78-.59-.09s.12-.78,.12-.78Zm.75-.38l4.56-1.56c1.17,.91,2.23,1.91,3.25,3.12l-3.78,1.32s-4.03-2.88-4.03-2.88Zm3.94,4.63l4.5,1.97-.03,.9-4.66-1.97s.19-.9,.19-.9Zm.22-.32l.09-1.09,3.84-1.31c.46,.57,.91,1.2,1.35,1.87-.08,0-.17-.05-.25-.09l.22,.47,.5,.65-.1,.94-1.18,.41s-4.47-1.85-4.47-1.85Zm4.56,3.38l3.47,1.56-.06,.94-3.57-1.69s.16-.81,.16-.81Zm.25-.31l.09-.88,.69-.25-.03,.38c.21,.31,.71,.31,1.03,.18,0-.33-.04-.62-.06-.9h.03c.1,.18,.21,.34,.31,.53,.37,.05,.78,.19,.88-.47-.08-.15-.15-.26-.22-.41l3-1.09c-.06,.12-.1,.22-.16,.34,.1,.67,.48,.53,.85,.47,.17-.33,.35-.63,.53-.93-.04,.37-.04,.74-.03,1.18,.32,.13,.81,.13,1.03-.18l-.16-1.6,21.28-7.62,.88,2.9-26.47,9.88s-3.47-1.53-3.47-1.53Zm8.03-4.22l.22-.28,.22-.47c-.16,.07-.31,.12-.44,.12,1.56-2.33,3.21-3.99,5.09-5.43l9.94-3.41,2.69,1.94,2.81-1.22,.38,1.28s-20.91,7.47-20.91,7.47Zm20.22-10.56l7.97-3.32v1l-7.66,3.41-.31-1.09Zm.03-.25l-.06-.19c-.55,.04-1.27,.07-2.03,.09v-.4l10.06-4.22-.03,1.53-7.94,3.19Zm-2.09-.79l-.03-1.46,10.09-4.16v1.56l-10.06,4.06Zm-.07-8.37l2.1-.88v1.47l-2.06,.85-.04-1.44h0Zm.04,4.94v-1.57l2.09-.87,.03,1.59-2.12,.85Zm0-1.85v-1.4l2.06-.88,.03,1.47-2.09,.81Zm-.04-3.34v-1.47l2.07-.84,.03,1.47-2.1,.84Zm-.21-3.97l-7.91-5.41,1.75-8.84,10.47,8.59-4.31,5.66Zm-.29,.63v1.4l-7.62-5.4v-1.29s7.62,5.29,7.62,5.29Zm-7.59-3.88l7.59,5.47v1.56l-7.62-5.4v-1.63h.03Zm7.59,7.25v1.47l-7.59-5.41-.03-1.59,7.62,5.53Zm-27.87,2.84l-.06,1.57-6-4.28,.03-1.57,6.03,4.28Zm-6.03-4.46l.06-1.5,6.03,4.31-.06,1.44-6.03-4.25Zm5.97,6.21l-.07,1.54-5.96-4.29,.03-1.53,6,4.28Zm-.07,1.69l-.06,1.81-5.97-4.28,.07-1.81,5.96,4.28Zm.25-7l-16.96-12.09v-1.13l17,11.88-.04,1.34Zm-.03,.22l-.03,1.5-6.03-4.31v-.19l-4.78-3.19-6.13-4.37v-1.6s16.97,12.16,16.97,12.16Zm-6.68-2.5v5.69l-6-4.13v-5.68s6,4.12,6,4.12Zm-6.63-5.28v1.53l-3.69-2.62,.03-1.54,3.66,2.63Zm0,1.69l-.03,1.59-3.69-2.62,.03-1.6s3.69,2.63,3.69,2.63Zm-.03,1.75v1.56l-3.69-2.59v-1.6s3.69,2.63,3.69,2.63Zm0,1.72l-.03,1.87-3.69-2.62,.03-1.88,3.69,2.63Zm-.03,2.03v.09l4.4,3.06,8.69,6.22-.03,1.25-16.78-11.9,.03-1.38s3.69,2.66,3.69,2.66Zm13.03,10.84l-.03,1.41-16.72-11.91v-1.47l16.75,11.97Zm-.03,1.63l-.06,1.62-3.85-2.81-.03-.06h-.03l-12.78-9.32,.03-1.43s16.72,12,16.72,12Zm-9-4.13l-7.22,2.75-3.81-1.41-.1-1.25,7.19-2.87s3.94,2.78,3.94,2.78Zm-7.72,3.16c-.15,0-.37-.02-.5-.03l-.09,.31,.12,.03,.03,.22-3.34-1.53,.22-.6s3.56,1.6,3.56,1.6Zm-.41,.9l.28,2.19-5.59,2.25-.03,.28-.03-8.56,1.69,1.25,.12,.84s3.56,1.75,3.56,1.75Zm-3.43-3l-4.19-3.03,.06-.56,4.16,2.94s-.03,.65-.03,.65Zm-2.19-1.03l-.1,15.63-1.15-.66,.07-12.09v-.6l.02-3.09s1.16,.81,1.16,.81Zm-1.47-1.03l-.02,3.35v.61l-.07,11.85-1.13-.72-.06-10.97v-.61l-.03-4.45s1.31,.94,1.31,.94Zm-1.16,15.69l10.47,6.69,.1,.87-11-7.37,.43-.19Zm64.69-17.88l1.81,.5-1.81,.57v-1.07Zm0,3.85v-2.25l1.35-.47,4.84,2.5-13.81,4.94-.38-1.29s8-3.43,8-3.43Zm-.47-13.75l-10.19,4.06v-1.25l10.19-4.66v1.85Zm-9.87,2l4.25-5.69,5.34,1.22s-9.59,4.47-9.59,4.47Zm2.03-9.94l6.88,4.84-4.47-1.03-10.54-8.15,7.29,3.65,.84,.69Zm-1.19-1.28l-7.75-3.75-1.78,9.34-18.94,7.06-5.62-14.96,21.65-7.6,12.44,9.91ZM120.75,.56l3.44,1.35-21.22,7.62-9.56,1.82L120.75,.56Zm-29.12,11.5l11.28-1.9,5.34,14.37-17.43-12.15s.81-.32,.81-.32Zm-1.22,16.5l3.94,2.82-7.22,2.75-4.03-2.88s7.31-2.69,7.31-2.69Zm-.13-3v2.5l-7.62,2.88-2.75-.81-.09-.88s10.46-3.69,10.46-3.69Zm-10.71,5.41l.03-.5,2.81,1.09-.03,.6s-2.81-1.19-2.81-1.19Zm-2.5,18.31l-.1-2.31,1.5,.34,.03,3.1s-1.43-1.13-1.43-1.13Zm1.59-2.18l-1.03-.44,4.06-1.81v1l-3.03,1.25Zm.5,.31l2.53-1.03,.09,2.59-1.75,.78-.93,.38s.06-2.72,.06-2.72Zm4.84,17.22c-.91,.11-1.48-.33-1.81-1.13v-10.81l1.81,1.19v10.75Zm.25,0l.07-10.57,.46,.32,.1,9.56c.12,.47-.25,.8-.63,.69Zm-4.9-14.19l2.15-.88,11.38,7.6,.28,2.25s-13.81-8.97-13.81-8.97Zm13.81,6.91l11.59,7.75s-.09,.09-.12,.15c-.29,.48-.06,1.07,.12,1.66l-11.31-7.31s-.28-2.25-.28-2.25Zm5.47,16.4c-1.02,.45-2.1,.81-3.22,1.13l-1.91-14.82,11.35,7.41c-1.63,3.62-3.97,5.3-6.22,6.28Zm-5.53-16.84l-.13-.91,13.44,8.6c-.56,.04-1.06,.1-1.41,.31,0,0-11.9-8-11.9-8Zm11.93,10.75s.03-.04,.04-.06l1.43,.93c-.51,.25-.8-.34-1.47-.87Zm6.44,2.15l-.03,1.44-6.41-4.15c-.06-.52-.09-1.08-.03-1.6,.03-.04,.07-.09,.13-.12,0-.01,.02,0,.03,0l6.53,4.34s-.22,.09-.22,.09Zm1.63,2.85l-1.16-.31,.09-2.22,1.07,.18s0,2.35,0,2.35Zm0-2.6v.04l-.57-.19,31.6-13.13,.12,.47-31.15,12.81Zm.81,2.85l1.47-.63,2.31,1.6,.06,1.5-3.84-2.47Zm4.81-.28l-1.65-1.07,1.53-.65v1.59s.12,.13,.12,.13Zm.06,.65l-.71,.19v-.06l-2.1-1.38,.56-.25s2.25,1.5,2.25,1.5Zm-2.9,11.1l-.1-9.66,1.38,.88,.31,9.93c-.95-.14-1.56-.68-1.59-1.15Zm1.9,1.37l-.18-9.87,.28,.43,.72-.4,.09,9.09c.01,.46-.42,.63-.91,.75Zm1.35-12.22l.06,1.63-1.12,.59v-1.87l.03,.03s1.03-.38,1.03-.38Zm-5.6-1.03l.07-2.22,30.78-12.72,.47,1.63-31.32,13.31Zm34.26-4.4l-.54-1.75c.18-.06,.36-.11,.54-.16v1.91Zm.03-2.57c-.26,.06-.51,.12-.75,.19l-1.85-6.19,2.63-1.12s-.03,7.12-.03,7.12Zm.43,7.5v-2.4l.94,3.12c-.52-.15-.65-.55-.94-.72Zm1.41,.78c-.06,.01-.1-.02-.15-.03l-1.26-4.12,.04-11.44,1.37-.59v16.18Zm.35-.09l.03-16.25,.65-.28,.41,15.81c-.15,.31-.53,.66-1.09,.72Zm3.74-12.97l-2.59-1.81-.03-1.66,2.62,1.41v2.06Zm1.38-.72l-.91,.85,.1-2.03,1-.32-.19,1.5Zm-.44-1.84l-.5,.22-2.94-1.47,.91-.38,2.53,1.63Zm1.22-3.69l-10.81,4.6-.5-1.63,11.12-4.59s.19,1.62,.19,1.62Zm-1.75-1.87l.94,.15-10.59,4.38-.13-.47,9.78-4.06Zm-5.87,2.06l.03-12.63,1.28-.46-.06,12.56-1.25,.53Zm1.68-13.25l.57-.22v12.53l-.5,.22-.07-12.53Zm-9.28,3.06l-.22-.78,15.22-5.69,.19,.85-15.19,5.62Z"/>
        </g>
        <g class="cls-1">
          <path class="cls-2" d="M184.83,104.56c-8.91,3.64-18.17,6.28-27.24,9.47-9.28,2.82-17.25,8.48-25.6,13.2-4.19,2.33-8.57,4.35-13.2,5.59-13.71,3.45-29.18,.82-42.36-3.7-13.66-4.79-25.57-13.17-37.76-20.8-6.19-3.72-12.83-6.58-18.9-10.47-6.82-4.36-10.34-9.15-8.53-17.47,1.8-9.45,8.56-17.11,16.07-22.76,15.96-11.44,34.96-17.36,54.4-19.98v-.6c-19.6,2.54-38.77,8.41-54.92,19.89-7.69,5.75-14.63,13.55-16.51,23.26-1.96,8.7,1.9,13.98,8.99,18.43,6.1,3.88,12.79,6.73,18.98,10.41,12.23,7.58,24.23,15.94,37.96,20.69,13.3,4.5,28.92,7.07,42.7,3.53,14.09-3.82,24.84-14.75,38.76-18.98,9.05-3.22,18.31-5.91,27.21-9.59,7.61-3.18,16.9-8.05,18.51-16.67-1.65,8.6-10.94,13.43-18.56,16.55h0Zm5.88-44.26c-11.73-9.82-24.9-15.02-39.8-18.77v.33c14.87,3.68,28.01,8.8,39.72,18.53,6.7,5.82,12.27,13.82,12.94,22.85-.63-9.04-6.17-17.08-12.86-22.94Zm-40.18-18.87s0,0,0,.02v-.02h0Z"/>
          <path class="cls-2" d="M199.31,58.45c-6.62-7.19-14.05-11-22.46-13.74v.24c8.39,2.69,15.81,6.44,22.41,13.57,3.78,4.26,6.92,10.12,7.3,16.73-.36-6.62-3.48-12.5-7.26-16.79h0Zm-22.67-13.83h0s0,0,0,0Z"/>
          <path class="cls-3" d="M7.45,76.16l-.39-.37c-7.97,5.26-9.58,10.77-2.85,17.32l.62-.43c-6.72-5.63-3.48-11.82,2.62-16.53h0Z"/>
          <path class="cls-3" d="M106.78,138.42c-9.22,2.58-16.18,.96-21.82-2.64l-.86,.11c5.94,3.78,13.13,5.67,22.75,2.96l-.08-.43h.01Z"/>
        </g>
      </g>
    </g>
  </g>
</svg>