<?xml version="1.0" encoding="UTF-8"?>
<svg id="Layer_2" data-name="Layer 2" xmlns="http://www.w3.org/2000/svg" viewBox="0 0 43.99 53.84">
  <defs>
    <style>
      .cls-1 {
        fill: #4a2412;
        fill-rule: evenodd;
      }
    </style>
  </defs>
  <g id="Layer_2-2" data-name="Layer 2">
    <g id="layer1">
      <path id="path2313" class="cls-1" d="M25.45,0l-6.08,2.12,.07,2.25-2.09-1.74-7.84,3.11-.07,2.33-1.7,.53-1.41-1.69L0,9.01v8.16s1.35,1.1,1.35,1.1L.25,42.86l1.76,1.21-1.33,4.62,3.64,2.65,3.88-2.99,7.95,5.48,25.11-9.92-.29-6.63,3.01-1.21-3.42-8.05-.46-10.3,1.13-.52-.32-6.86-4.98-3.5-2.05,.95-.47-2.5-2.89-2.01-1.02,.54-.27-1.26S25.45,0,25.45,0Zm.04,.22l3.15,2.32-2.82,1.37-1.37-.99-1.98,.8-2.58-1.48S25.49,.22,25.49,.22Zm-5.78,2.11l2.79,1.79v1.81s-2.79-1.59-2.79-1.59c0,0,0-2.01,0-2.01Zm9.21,.35l.27,1.38-2.02,1,.08,.71-1.38,.64,.03-2.04,3.03-1.7Zm-11.59,.27l2.3,2-6.68,2.46-2.87-1.51s7.26-2.94,7.26-2.94Zm6.86,.54c.06,1.44,.29,2.97,.29,4.41-4.42,2.25-9.2,4.17-13.72,6.22l-1.88-1.69-.13-.1-.13,.07-1.6,.81,.07-1.79-.92-1.19,2.08-.89-.11,2.39,4.83-1.77,.11-2.13,6.77-2.67,.18,2.51,2.9-1.41-.03-2.26s1.28-.52,1.28-.52Zm.46,.13l.78,.57,.15,2.6,1.77,1.09,.14-2.47,2.61,1.72-.04,2.37,2.09,1.23-1.02,.5,.21,2.33-6.66-5.55c0-1.4,0-2.99-.04-4.38Zm5.8,0l2.4,1.86-2.64,1.38-2.5-1.76,2.73-1.48Zm-10.3,1.35l2.53,1.37-2.27,.88-.25-2.25Zm13.1,.71l.36,2.08-3.27,1.59v-2.07l2.9-1.6Zm-23.44,.42l2.83,1.65,.03,1.94-3-1.84s.14-1.74,.14-1.74Zm17.32,.14l.03,1.2-1.06-.64,1.03-.56Zm8.83,.89c1.42,1.05,2.87,2.3,4.24,3.32-1.97,1.2-4.13,2.07-6.25,2.96l-2.22-2.15,3.45-1.56-1.69-1.23,2.47-1.34Zm-29.68,.08l1.45,2.07-2.15,.85,.99,1.17-2.82,1.19L.4,9.11l5.89-1.9Zm18.18,.98l7.09,5.92-1.45,.54-2.43-1.93-5.25,2.3,.22,2.27-2.19,.89-1.34-1.4-3.24,1.79-1.4-1.63-1.87,1.05-.32-.45-.15-2.12-1.02-.98c4.38-2.2,9.06-3.85,13.34-6.26Zm8.34,.18l1.52,1.26-1.65,.73,.13-1.98Zm-23.04,.06l2.6,1.46-3.93,1.51,.11-2.02-.31-.42,1.53-.53Zm22.67,.24v1.69s-1.62-.95-1.62-.95l1.62-.74ZM.42,9.4l3.04,3.4h-.04l-.17,2.5,2.25,2.53-.1-3.24,2.97,2.89v2.41s3.2,2.32,3.2,2.32l.13-3.11,3.45,3.24c-.18,2.14-.22,4.31-.26,6.46L.27,17.05s.15-7.65,.15-7.65Zm40.07,1.38l.38,6.33L15.32,28.7c.04-2.14-.12-4.39,.04-6.52l5.85-2.6,.45,2.33,4.52-1.95-.15-2.12,4.41-2.12,.33,2.29,4-1.76-.36-2.54c2.06-.91,4.18-1.72,6.08-2.93Zm-8.94,.85l2.51,2.19,.31,1.83-2.5-1.65s-.32-2.37-.32-2.37Zm-24.65,.03l-.07,1.67-1.79,.89-.08,.15v.07l-1.23,.57,.14-2.09s3.03-1.27,3.03-1.27Zm1.8,1.2l2.76,2.47-2.85,1.76-2.82-2.74,2.9-1.49Zm18.93,.07l2.82,2.4-4.72,2.44-2.93-2.61,4.83-2.23Zm4.31,1.38l2.44,1.73-3.27,1.33-.29-1.95-.32-.46s1.44-.64,1.44-.64Zm-26.93,.38v1.93s-1.3-1.12-1.3-1.12l1.3-.81Zm17.71,.81l2.87,2.54,.42,1.6-3.07-2.26-.22-1.88Zm-10.97,.2l.25,1.87-3.2,1.7v-1.77s2.94-1.8,2.94-1.8Zm7.37,1.41l2.02,2.15-5.8,2.65-3.43-3.22,2.54-1.45,1.24,1.62,3.43-1.74Zm3.57,.36l2.93,2.25-3.63,1.56-.38-1.9h0s-.01-.08-.01-.08h-.04s-.15-.14-.15-.14l-.6-.61s1.88-1.07,1.88-1.07Zm-10.56,.33l.21,.25-1.02,.61-.13,2.92-2.3-1.86s3.24-1.93,3.24-1.93Zm27.82,.01l.57,19.17,.29,6.63-4.66,1.84-1.17-8.68-5.23-2.18-5.08,5.36-.11,10.06-7.91,3.13,.07-24.61,23.23-10.72h0ZM1.79,18.63l13.09,10.76,1.59-.8-.38,24.6-7.74-5.29,.98-9.85h.01s-.01-.03-.01-.03h-.01l-3.52-1.76-2.48,3.24h-.01s-.01,.06-.01,.06l-1.14,4.06-1.63-.82L1.79,18.63h0Zm33.08,4.76l-1.47,2.36-.07,5.27-.61,.38v1.88l5.69-2.96v-2.08l-.82,.45-.35-4.48s-2.37-.82-2.37-.82Zm.18,.53l2.04,.5,.31,4.41-3.61,1.87-.22-4.9s1.49-1.88,1.49-1.88Zm-26.55,4.18c-.8,.05-1.38,.64-2.09,.92l.08,3.36-1.21-.77-.15,2.01,6.67,3.75-.03-2.5s-.51-.23-1.19-.54l.31-3.01c-.45-1.18-1.19-2.26-2.02-3.21-.12-.02-.25-.02-.36-.01Zm29.72,.59l.14,1.48-5.43,2.8,.08-1.46s5.2-2.82,5.2-2.82Zm-29.76-.38c.08,0,.15,0,.22,.04,1.06,.81,1.17,2.11,1.74,3.01l-.04,2.97-3.68-1.94,.15-3.07c.53-.25,1.07-1.01,1.6-1.02Zm32.09,.13l3.17,7.51-2.75,.87s-.42-8.37-.42-8.37Zm-19.65,1.7l-1.47,2.36-.13,5.39-.56,.32v1.88l5.69-2.96v-2.08l-.82,.45-.35-4.53s-2.37-.82-2.37-.82Zm.18,.53l2.04,.5,.07,4.56-3.42,1.88-.22-5.06s1.54-1.88,1.54-1.88Zm-15.6,1.28c1.85,1.04,4.07,2.36,6.1,2.97l.04,2.08-6.26-3.39c-.08-.3,.12-1.61,.13-1.66Zm24.29,2.72l5.05,2.3,1.09,8.6-.74,.26-1.14-8.45-4-1.55-4.07,4.19,.04,9.43-.99,.4-.14-9.75s4.91-5.43,4.91-5.43Zm-5.43,.63l-.04,1.72-5.34,2.85v-1.55s5.39-3.01,5.39-3.01Zm5.79,1.06l3.78,1.16,.82,8.48-1.23,.49,.84-1.29-.07-.07-1.27,1.56-1.87,.74-.03-.32c1.03-1.73,1.8-3.67,2.78-5.43l-.13-.07c-.93,1.62-1.78,3.29-2.71,4.91l-.25-2.78,2.82-5.93-.08-.06-2.79,5.39-.27-3.07,1.26-2.75-.1-.03-1.2,2.36-.28-3.06-.11,.03,.14,2.4-2.13-.59-.03,.14,2.18,.78,.11,1.94-3.53-1.31-.08,.06,3.64,1.69,.15,2.81-3.81-1.54-.14,.07,3.98,1.8,.15,2.73-.06,.03-4.16-1.39-.06,.15,3.75,1.41-3.88,1.54-.13-9.25,3.98-3.73Zm-24.25,.18l2.72,1.66-2.44,2.86-2.46-1.51s2.18-3.01,2.18-3.01Zm2.9,2.12l-.77,9.45-3.6,2.58,2.09-9.38,2.27-2.65Zm-5.15,1.24l2.37,1.58-1.94,9.14-3.18-2.01,2.75-8.71Z"/>
    </g>
  </g>
</svg>