<?xml version="1.0" encoding="UTF-8"?>
<svg id="Layer_2" data-name="Layer 2" xmlns="http://www.w3.org/2000/svg" viewBox="0 0 59.44 61.48">
  <defs>
    <style>
      .cls-1 {
        fill: #4a2412;
      }
    </style>
  </defs>
  <g id="Layer_2-2" data-name="Layer 2">
    <g id="layer1">
      <path id="path2500" class="cls-1" d="M40.37,0c-.48,0-.98,.06-1.48,.16-1.24,.37-2.34,1.22-3.23,2.58-.66,2.14-2.88,3.67-4.53,5.24-1.54,1.12-3.17,2.19-4.79,3.15-5.14,3.03-10.75,5.72-14.27,7.3-1.81,1.25-1.46,1.24-2.1,1.95l1.67,8.6c-.28,.22-.56,.45-.85,.71-1.47,1.28-2.59,2.84-3.3,4.79l-.43,.23,.03,.05-.13-.07,.31,.51c-.64,2.46-.38,4.88,.3,7.32,.77,1.73,1.92,2.78,4,3.27l-5.45,8.98-3.45-1.59-1.41,.19-1.26,2.12,4.28,1.94-2.02,3.1,1.74,.94,1-.49,1.72-2.5,4.51,1.71,.82-.12,.84-1.85-4.6-2.36,5.93-10.03c1.14-.31,2.17-.9,3.04-1.64,.02-.01,.03-.03,.05-.05l6.4,3.37,.94-.66c-.13,.38,.28,1.21,.43,1.71,.95,2.12,2.45,3.21,5.57,3.51,1.56-.16,3-.88,4.14-1.85,.88-.67,1.67-1.49,2.33-2.38,1.95-3.17,2.64-7.12,1.12-10.46l6.71-4.68c.12,.8,.29,1.59,.51,2.4,.95,2.12,2.45,3.21,5.57,3.51,1.56-.16,3-.88,4.13-1.85,.88-.67,1.67-1.49,2.33-2.38,2.33-3.79,2.87-8.69,0-12.31-1.18-1.11-2.42-1.53-3.65-1.49-.3-.04-.6-.07-.87-.1l-1.58-12.51C48.78,4.57,45.02-.02,40.37,0h0Zm.08,.3c4.45,.06,8.16,4.52,10.72,7.7l1.48,12.44c-.09,0-.21-.02-.28-.02-1.6,.05-2.54,.84-3.69,1.84-1.31,1.14-2.34,2.51-3.05,4.17-3.19,2.25-8.03,5.43-11.23,7.67-.31-.05-.61-.07-.92-.07-.57-.08-1.15-.16-1.48-.15-1.6,.05-2.54,.84-3.69,1.84-.43,.37-.81,.79-1.18,1.21l-1.41-11.31c-2.09-3.34-5.12-5.66-8.52-7.53-.89-.39-1.82-.47-2.77-.41,3.31-1.58,7.41-3.8,11.98-6.5,1.68-.99,3.35-2.09,4.94-3.23,.43-.18,.74-.5,1.08-.79,1-.77,1.93-1.56,2.79-2.36,.33,.13,.7,.37,1.07,.61l-.05-.16-.9-.54c.45-.43,.88-.85,1.28-1.28,.93,.35,1.47,.9,2.22,1.35v-.12c-.86-.7-1.53-1.12-2.1-1.36,.35-.39,.67-.78,.97-1.17,1.37,.57,3.47,1.72,4.65,2.46l.02-.03c-1.49-1.04-2.99-1.98-4.48-2.68,.32-.44,.61-.89,.85-1.33,.55-.22,1.14-.23,1.72-.25h0Zm-2,.36c-.2,.36-.48,.77-.8,1.18-.27,.01-.58-.04-.87-.05,.18,.04,.43,.14,.71,.25-.32,.39-.66,.8-1.05,1.21l-.41-.02c.12,.03,.22,.06,.33,.1-.42,.45-.88,.88-1.35,1.33l-.15,.03s.07,.03,.1,.03c-.95,.9-1.96,1.78-2.89,2.53,1.26-1.23,3.51-2.97,4.17-4.96,.64-.76,1.44-1.31,2.22-1.64Zm9.85,13.38l-.16,.05,.36,.97-.75,.49-.41-1.26-.21,.03,.49,1.31-1.33,.87-.33-1.17-.18,.08,.33,1.2-1.62,1.07,.34,1.63-.49,.25v.15l.53-.28,.2,.94-.64,.39,.16,.12,.51-.31,.26,1.2,1.54-1,.18,.56,.18-.05-.18-.62,.92-.61c.17,.46,.34,.94,.46,1.43h.12c-.07-.56-.18-1.07-.35-1.58l.9-.59,.36,1.18,.15-.08-.38-1.18,.92-.59-.23-1.58,1.09-.69-.07-.15-1.05,.64-.22-1.38,.55-.34-.07-.15-.51,.31-.13-.92-.9,.59-.33-.92h0Zm1.07,.61l.12,.75-.26,.16,.05,.16,.25-.15,.22,1.38-.32,.18,.02,.21,.33-.2,.19,1.28-.79,.53-.16-.53-.1,.15,.15,.46-.92,.62c-.12-.32-.24-.63-.41-.94l-.15,.08c.09,.34,.21,.67,.33,1l-.9,.62-.12-.38-.2,.12,.13,.38-1.36,.92-.21-1.02,.36-.23-.07-.18-.35,.21-.2-.92,.38-.2v-.13l-.39,.2-.3-1.36,1.48-1,.3,1.1,.23-.07-.34-1.17,1.33-.92,.1,.26,.12-.05-.1-.3,.76-.51,.12,.31,.13-.1-.12-.31s.69-.46,.69-.46Zm-34.67,3.43c.61,0,1.19,.17,1.81,.36l-.03,.54c-1.31,1.99-2.9,2.19-4.6,1.72l-.9-1.25c.95-.96,2.33-1.41,3.73-1.38Zm19.16,.28l-1.17,.72c-.11-.14-.23-.26-.38-.43l-.12,.02c.15,.15,.29,.3,.41,.48l-.98,.61-.38-.64-.12,.15,.39,.54-1.18,.74-.48-.67-.1,.08,.48,.66-1.2,.75-.15-.2-.1,.03,.16,.21-.92,.57c.41,.37,.57,.71,.67,1.03l-.43,.3,.02,.07,.43-.26c.11,.43,.14,.85,.43,1.38l1.56-1.12,.34,.53,.1-.12-.33-.49,1.15-.8c.15,.26,.3,.51,.3,.51l.15-.1s-.16-.24-.34-.49l.9-.64,.3,.34,.02-.1-.25-.3,.9-.64c.29,.27,.61,.48,.61,.48l-.02-.13s-.22-.21-.44-.44l.71-.51c-.17-.3-.39-.38-.57-.48l.33-.26-.11-.05-.34,.21c-.23-.17-.37-.47-.25-1.54Zm-17.12,.15c.09,.03,.18,.05,.28,.08,2.08,.77,4.44,2.53,6.65,5.04l-.62,.34c-2.8-1.02-4.82-2.55-6.35-5.07,0,0,.05-.39,.05-.39Zm16.97,0c-.08,.65,.01,1.13,.3,1.46l-.13,.08,.03,.18,.21-.16c.15,.14,.33,.26,.56,.33l-.67,.48s-.1-.09-.13-.13l-.16,.08c.05,.05,.1,.11,.15,.16l-.9,.64-.12-.15-.05,.08,.1,.12-.89,.62c-.07-.09-.14-.18-.21-.26l-.08,.05c.07,.08,.14,.17,.21,.28l-1.17,.82-.15-.21-.12,.08,.15,.21-1.26,.9c-.3-.33-.45-.72-.56-1.08l.61-.36s0,0,0-.02c0,0,0,.03-.12-.12l-.54,.38c-.11-.37-.2-.71-.44-.92l.75-.49,.43,.57,.08-.05-.43-.57,1.17-.77,.18,.25,.1-.08-.16-.25,1.15-.75,.41,.56,.05,.02-.38-.64,.97-.62c.1,.14,.2,.29,.3,.43l.12-.05c-.11-.18-.21-.31-.31-.44l.97-.64h0Zm-17.12,.56c.31,.63,1,1.62,1.43,2.18l1.07,13.43c-.62,.54-1.63,.54-1.86-.44l-1.17-14.58c.2-.23,.34-.34,.53-.59Zm-5.78,.57l.9,1.03c.33,1.13,.56,1.99,.18,3.14l-.97,.1-.69-3.43c.16-.31,.35-.59,.57-.84Zm5.09,.18l.66,8.26-2.18,1.56c-.16-.45-.46-.92-.87-1.46,.31-1.86-.08-3.07-1.46-4.3,.85-.82,.32-2.12,.05-2.94,1.87,.76,2.89-.04,3.81-1.12Zm36.66,.95c-1.85,.53-3.58,2-4.82,3.68-2.33,3.79-2.88,8.69,0,12.31,1.67,1.58,3.49,1.79,5.18,1.23-.59,.25-1.2,.38-1.91,.43-2.55-.21-3.84-1.23-5.12-3.4-.88-1.96-1.13-4.85-.43-7.7,.68-2,2.08-3.73,3.51-4.97,1-.87,2.21-1.45,3.58-1.58Zm1.03,.23c.15,0,.3,0,.45,0,1.06,.04,2.14,.44,3.12,1.28,2.87,3.42,2.1,8.35,.04,11.95-2.11,3.18-6.19,5.02-9.16,2.12-2.89-3.42-2.15-8.06-.08-11.67,1.34-2.03,3.46-3.57,5.65-3.68Zm-35.39,.36c.95,1.13,2.05,2,3.45,2.48l-3.04,2.45s-.41-4.92-.41-4.92Zm35.13,.43c-.23,0-.46,.03-.7,.07-4.04,1.26-5.57,4.99-5.81,8.93,.03,3.67,1.94,6.72,5.86,6.17,4.04-1.26,5.62-5.21,5.86-9.16-.03-3.45-1.75-6.14-5.21-6.01Zm.02,.21c3.27-.19,4.69,3,4.87,5.98,0,.04-.01,.08-.02,.12-.03-.25-.12-.42-.26-.43l-.31,.07v-.36c-.08-1.01-.45-1.93-1-2.74l.28-.34c.06-.45-.85-1.49-1.44-1.31l-.15,.28c-.86-.78-1.91-.94-3.02-1.02,.33-.17,.69-.19,1.05-.23Zm-.9,.41c.11,0,.23,.02,.33,.03l-.07,.95-.57,.39c-.02-.45-.04-.88-.05-1.36,.12,0,.24-.02,.36-.02Zm-.62,.03c.04,1.64,.11,3.39,.15,5.02,.05,.15-.68,.47-.63,.1l-.49-4.55c.3-.21,.63-.41,.97-.57Zm1.33,.08c.8,.18,1.44,.54,2.06,.9l-2.13,3.89c-.16-.03-.27-.03-.38-.03l.45-4.76Zm-2.48,.74l.14,1.44-1.94,1.31-.38-.36c.45-.79,.86-1.37,1.54-1.97,.14-.12,.49-.31,.64-.42Zm5.07,0c.47-.11,1,.79,.79,1.07l-2.63,3.28c-.21-.14-.41-.24-.6-.28,.82-1.33,1.5-2.87,2.44-4.07Zm-3.04,.28l-.12,1.85-.41,.28c-.01-.57-.03-1.17-.05-1.74l.57-.39Zm-28.89,.26c.52,.6,1.04,1.23,1.54,1.92l.56,4.4-1.13-.03c-1.2-1.78-1.89-3.81-1.66-6.07l.69-.21Zm-1.89,.13c.28,.08,.58,.16,.89,.21-.26,1.31-.03,2.52,.44,3.66-1.36,1.51-2.77,2.74-4.19,3.96l-.43-5.07,3.28-2.76Zm-9.96,.03c1.26,1.11,1.26,2.69,1.4,4.22l-1.48,.49-.89-4.45s.97-.26,.97-.26Zm44.53,.82c.5,.78,.71,1.66,.79,2.66,.03,.14,.02,.25,.02,.36l-2.94,.69c-.06-.25-.17-.48-.31-.72,0,0,2.44-2.99,2.44-2.99Zm-5.68,.05l.18,1.63-.95,.67-1.1-1.05,1.87-1.25Zm1.77,.61l-.09,1.77,.05,.05c-.12,0-.21,.04-.34,.05,0-.56,0-1.08-.02-1.59,0,0,.41-.28,.41-.28Zm-4.2,.38l2.63,2.48c-.01,.41-.02,.8-.39,.79l-2.69-2.28c.14-.34,.29-.67,.46-.98Zm2.63,.72l.1,.92c-.23-.09-.3,.15-.46,.23l-.56-.53,.91-.62Zm-5.63,.49c-.03,.09-.07,.17-.1,.26-.14,.46-.23,.92-.31,1.38l-8.91,6.02c-.38-.22-.77-.38-1.15-.49,3.13-2.16,7.44-5.02,10.47-7.17Zm2.44,.03l1.03,.85-1.54,1.05c.12-.65,.28-1.29,.51-1.9Zm3.28,.49l.04,.23c.31,.46,.68,.1,.9-.16h.17c-.24,.17-.47,.41-.69,.67-.58,1.01-.62,2.05,0,3.02,.14,.11,.28,.19,.41,.25l-.41,.05c.11-.51-.59-.63-.82-.71-.09,.14-.17,.26-.26,.39-.12-.16-.2-.34-.28-.53l.48-.13c.27-.42,.05-.78-.13-.98l-.53,.03c-.04-.19,.02-.36,.08-.54l.16-.12,.48,.39c.28-.21,.58-.61,.48-1.23l-.43-.39,.36-.25h0Zm1.61,.02c.35-.04,.79,.18,1.13,.38,.12,.17,.08,.38,.13,.56l-1.46-.03c-.39,.31-.6,.7-.61,1.12,0,.41,.19,.82,.51,1.22l1.15-.03-.03,.02c-.49,.53-1.21,.72-1.82,.36-.55-.79-.35-2.03,.05-2.86,.25-.34,.6-.68,.96-.72Zm-3.81,.39l.99,.8c-.05,.1-.08,.21-.1,.31l-1,.69-1.61,.13c.03-.28,.07-.56,.11-.84,0,0,1.61-1.1,1.61-1.1Zm-25.59,.02c.15,.34,.32,.68,.51,1l-4.58,4.88-.16-1.77c1.44-1.15,2.87-2.75,4.24-4.1Zm34.46,0c.19,.15,.34,.81-.12,1.21l-2.33,.07c-.06-.25-.16-.48-.33-.64,0,0,2.77-.64,2.77-.64Zm-44.37,.26c.95,1.4,.94,2.65-.18,3.84l-.72-.36h-.02l-.57-2.86s1.49-.62,1.49-.62Zm3.18,.21l.36,4.68-2.95-1.49c.45-.6,.57-1.12,.48-1.66,0,0,2.12-1.53,2.12-1.53Zm38.2,.26c.13,.09,.36,.54,.39,.79,.03,.24-.15,.7-.38,.97l-2.25,.1c-.2-.29-.29-.72-.29-.94s.14-.63,.39-.85c0,0,2.13-.07,2.13-.07Zm3.37,.07c-.14,1.38-.51,2.73-1.13,3.92,.3-1.05,.48-2.13,.56-3.22h.33c.12-.19,.19-.45,.25-.71Zm-13.22,.05c-.1,.62-.13,1.24-.13,1.85l-7.49,5.11c-.07-.09-.13-.19-.2-.28-.31-.29-.62-.54-.94-.74,0,0,8.75-5.94,8.75-5.94Zm9.31,.05c-.38,.34-.65,.85,.03,1.31l.25,.02c-.4-.49-.2-.9-.06-1.31,0,0-.22-.02-.22-.02Zm-30.34,.25c.21,.36,.45,.72,.69,1.07-.48,1.27-.81,2.73,.05,4.48-.64,.62-.93,1.12-.9,1.69l-4.32-2.18,4.48-5.06Zm-12.21,.16l.1,.51c-.73,.6-1.39,1.31-1.95,2.07-.36,.58-.67,1.19-.94,1.82l-1.17,.66c.72-1.83,2.02-3.42,3.35-4.58,.19-.17,.4-.33,.61-.48Zm38.07,.05c0,.12-.01,.23-.02,.34l-.54,.05,.56-.39Zm7.63,.15c-.04,1.07-.23,2.14-.57,3.14l-2.33-1.87,.31-.02c.45-.39,.5-.7,.58-1.21,0,0,2.02-.03,2.02-.03Zm-7.02,.38c.2,.19,.26,.39,.03,.57l-3.22,.8c-.06-.34-.04-.79-.03-1.13,0,0,3.22-.25,3.22-.25Zm-38.51,.21l.13,.72c-.69,.6-1.24,1.32-1.67,2.12l-.92,.51c.2-.45,.41-.9,.66-1.33,.5-.76,1.12-1.45,1.81-2.02Zm14.07,.2l.57,4.58-1.66-.25c-.73-1.28-.61-2.82-.13-4.3,0,0,1.22-.03,1.22-.03Zm28.4,.48l2.43,2.08c-.12,.31-.26,.62-.41,.9l-2.6-2.77c.06-.06,.12-.13,.18-.2,0,0,.39-.02,.39-.02Zm-9.52,.02c0,.55,.04,1.11,.12,1.66l-6.8,4.69c-.21-.43-.46-.86-.76-1.26,0,0,7.44-5.09,7.44-5.09Zm5.15,.07c.07,.16,.17,.34,.3,.54l-1.74-.15,1.44-.39Zm1,.26c.25,0,.45,.35,.23,.53l-2.32,3.82c-.22-.23-.41-.51-.59-.79,.88-1.04,1.66-2.3,2.43-3.41,.08-.1,.16-.15,.25-.15Zm2.61,.03l2.66,2.82c-.76,1-1.73,1.84-2.94,2.38l-.33-4.78c.21-.09,.41-.25,.61-.43Zm-41.5,.07l.13,.69-1.3,.71c.34-.51,.73-.98,1.17-1.4Zm35.84,.21l2.3,.2c-.65,.97-1.29,1.88-2.03,2.84-.48-.84-.78-1.83-.94-2.86l.67-.18Zm4.78,.25l.43,4.74c-.14,.06-.29,.13-.44,.18-.18,.03-.37,.05-.54,.07l-.05-4.94c.2-.01,.4-.03,.6-.05Zm-.87,.08l.06,4.92c-1.15,.04-2.05-.34-2.76-.98l2.32-3.91c.12-.01,.26-.02,.38-.03Zm-37.96,.03l3.12,1.79,.03,.39-3.53-1.74c.15-.15,.26-.3,.38-.44Zm-1.41,.18l4.53,2.28c.1,.52,.93,1.24,1.74,.87l7.12,3.6c-.26,.45-.49,.93-.69,1.43l-.08-.08-14.04-7.27s1.41-.82,1.41-.82Zm-1.44,.84l.03,.12,14.1,7.24c-.03,.07-.05,.15-.08,.23-.43,.29-.92,.6-1.41,.92l-14.59-7.37s1.95-1.13,1.95-1.13Zm-2.05,1.2v.02l14.59,7.35c-.5,.32-1,.65-1.44,.94l-14.73-7.39,1.58-.92Zm23.23,.23c-1.85,.53-3.58,2-4.83,3.68-2.33,3.79-2.88,8.69,0,12.31,1.67,1.58,3.49,1.8,5.19,1.23-.59,.25-1.2,.37-1.9,.43-2.55-.21-3.84-1.22-5.12-3.4-.88-1.96-1.13-4.85-.43-7.7,.68-2,2.08-3.73,3.51-4.97,1-.87,2.21-1.45,3.58-1.58Zm-12.92,.1l4.51,2.4,.02-.02c.07,.26,.19,.53,.38,.84l-5.15-2.51c.23-.21,.21-.5,.25-.71Zm13.97,.13c.15,0,.28,0,.43,0,1.06,.04,2.14,.44,3.12,1.28,2.86,3.42,2.09,8.35,.03,11.95-2.1,3.18-6.19,5.02-9.16,2.12-2.89-3.42-2.15-8.06-.08-11.67,1.34-2.03,3.48-3.57,5.66-3.68Zm-8.44,.38l1.76,.35,.26,2.1c-.29,.37-.55,.76-.8,1.17l-1.46-.72c-1.18-1.27-.12-1.97,.25-2.89Zm8.16,.41c-.23,0-.46,.03-.71,.07-4.04,1.26-5.57,4.99-5.81,8.93,.03,3.67,1.94,6.72,5.86,6.17,4.04-1.27,5.62-5.21,5.86-9.16-.03-3.45-1.75-6.14-5.2-6.01Zm-25.23,.16c4.56,2.34,9.74,5,14.35,7.24l.38,1.17-13.74-6.85s-.98-1.56-.98-1.56Zm-.3,.05l.66,1.05c-.47,2.67-.04,5.42,1.76,7.68,.64,.6,1.3,.99,1.97,1.23l-.12,.18c-1.65-.44-2.68-1.43-3.69-3.15-.81-1.8-1.08-4.38-.57-6.99Zm25.54,0c3.27-.19,4.69,3,4.88,5.98,0,.04-.01,.08-.02,.11-.03-.25-.12-.42-.26-.43l-.31,.07c0-.13,0-.3,0-.36-.08-1.01-.45-1.93-1-2.74l.28-.35c.05-.45-.85-1.49-1.44-1.31l-.15,.28c-.86-.78-1.91-.94-3.02-1.02,.33-.17,.69-.19,1.05-.23Zm-1,.41l-.33,.19c0-.07,.07-.1,.07-.17,.09,0,.18-.01,.26-.02Zm.33,.02c.55,.06,1.04,.22,1.48,.43l-2,1.31c-.01-.42-.01-.9-.03-1.34,0,0,.55-.4,.55-.4Zm-.85,.02c.04,1.64,.1,3.39,.15,5.02,.05,.15-.68,.47-.62,.1l-.49-4.55c.3-.21,.63-.41,.97-.57Zm2.43,.46c.34,.16,.66,.34,.97,.53l-.54,.98-2.48,1.71c-.01-.6-.03-1.19-.05-1.77l2.1-1.44Zm-3.63,.3l.03,.3-1.25,.85c.36-.42,.77-.81,1.22-1.15Zm5.12,.07c.46-.11,1,.79,.79,1.07l-2.63,3.28c-.21-.14-.41-.24-.61-.28,.82-1.33,1.5-2.87,2.45-4.07Zm-27.02,.23l.59,.99c0,.09-.01,.19-.02,.28,.03,2.87,1.21,5.35,3.6,6.04l-.44,.72c-.67-.23-1.33-.61-1.94-1.2-1.7-2.01-2.13-4.43-1.79-6.83Zm.46,.2l13.67,6.78,.48,1.49-12.84-6.21s-1.31-2.07-1.31-2.07Zm21.5,.15l.15,1.21-1.69,1.22-.66-.61c.15-.27,.33-.52,.51-.77l1.69-1.05Zm3.89,.74l-1.49,2.74c-.46-.09-.6-.03-.89,0,0-.38,0-.75,0-1.1l2.38-1.64Zm1.92,.21c.04,.06,.08,.13,.12,.2l-.71,.53,.59-.72Zm-26.84,.23l.11,.2-.1,.02c-.01-.07-.01-.14-.02-.21Zm21.19,.21l.2,1.66-.72,.49-1.12-1.03,1.64-1.12Zm5.89,0c.33,.67,.47,1.4,.54,2.22,.02,.14,.02,.25,.02,.36l-2.94,.69c-.07-.25-.17-.48-.31-.72l1.26-1.54s1.43-1,1.43-1Zm-26.79,.28l.98,1.63,.49,.26c-.25,.34-.5,.68-.77,1.03-.48-.84-.78-1.83-.94-2.86l.23-.07Zm18.44,.31l2.63,2.48c-.01,.41-.02,.8-.39,.79l-2.69-2.28c.14-.34,.29-.67,.46-.98Zm-17.83,.05l12.82,6.25,.48,1.46-12.62-6.63s-.67-1.08-.67-1.08Zm20.5,1.13l.05,.46c-.23-.09-.3,.15-.46,.23l-.26-.25s.67-.44,.67-.44Zm-3.23,.07l.07,.05-.11,.1s.03-.1,.05-.15Zm.15,.12l1.2,.98-1.94,1.31c.1-.73,.26-1.45,.49-2.13l.25-.16Zm-2.72,.26c-.17,.59-.31,1.19-.38,1.77l-1.63,1-.38-1.26c.83-.55,1.56-1.02,2.38-1.51Zm-13.61,.07l.67,.34-.95,1.58c-.22-.23-.42-.51-.59-.79,.3-.36,.59-.74,.87-1.13Zm19.47,.05l.03,.23c.31,.46,.68,.1,.9-.16h.16c-.24,.17-.47,.41-.69,.67-.58,1.01-.62,2.05,0,3.02,.14,.11,.28,.19,.41,.25l-.41,.05c.11-.51-.59-.63-.82-.71-.09,.14-.17,.26-.26,.39-.12-.16-.21-.34-.28-.53l.48-.13c.27-.42,.05-.78-.13-.99l-.53,.03c-.04-.26,.08-.49,.15-.74l.57,.48c.28-.21,.58-.61,.48-1.23l-.43-.39s.36-.25,.36-.25Zm1.61,.02c.35-.04,.77,.18,1.12,.38,.12,.17,.09,.38,.15,.56l-1.46-.03c-.39,.31-.6,.7-.61,1.12,0,.41,.19,.82,.51,1.21l1.15-.03-.03,.02c-.49,.53-1.21,.72-1.82,.36-.55-.79-.35-2.03,.05-2.86,.24-.34,.6-.68,.95-.72Zm5.06,.41c.19,.15,.34,.81-.12,1.22l-2.33,.07c-.06-.25-.16-.48-.33-.64,0,0,2.77-.64,2.77-.64Zm-25.18,.02l1.51,.79-1.03,1.71c-.56-.17-1.05-.46-1.46-.84,0,0,.98-1.66,.98-1.66Zm16.65,.23l.66,.54c-.15,.29-.13,.61-.15,.92l-2.56,.21c0-.1,.02-.2,.03-.3l2.02-1.38Zm5.55,.49c.13,.09,.36,.54,.39,.79,.03,.24-.15,.7-.38,.97l-2.25,.1c-.21-.29-.3-.72-.3-.94,0-.23,.14-.63,.39-.85l2.13-.07Zm3.37,.07c-.14,1.38-.51,2.73-1.13,3.92,.3-1.05,.48-2.13,.56-3.22h.33c.11-.19,.2-.45,.25-.71Zm-3.91,.1c-.38,.34-.65,.85,.03,1.31l.25,.02c-.41-.49-.2-.9-.07-1.31l-.21-.02Zm-19.85,.07l1,.53-6.4,11.31-4.68,6.81-1.21-.63,1.95-3.1,1.3-1.92s8.04-13,8.04-13Zm10.47,.34c-.07,.62-.09,1.22-.07,1.84l-1.07,.74-.44-1.51,1.58-1.07Zm12.53,.2c-.04,1.07-.23,2.14-.57,3.14l-2.33-1.87,.31-.02c.44-.39,.5-.7,.57-1.22,0,0,2.02-.03,2.02-.03Zm-21.73,.12l.26,.13-.16,.28c-2.35,4.01-3.41,6.48-7.04,12.03l-2.18,3.53-1.26,1.74-.57,.21,1.48-2.21,2.33-3.34s7.16-12.38,7.16-12.38Zm.39,.21l.33,.18c-.2,.11-.4,.22-.61,.31,0,0,.28-.49,.28-.49Zm14.31,.05c.21,.19,.26,.39,.03,.57l-3.22,.8c-.06-.34-.04-.79-.03-1.13l3.22-.25Zm-13.59,.33l.64,.33c-.75,.53-1.56,.93-2.4,1.12l.48-.85c.46-.17,.89-.36,1.28-.59Zm17.55,.56l2.43,2.08c-.12,.31-.26,.62-.41,.9l-2.59-2.77c.06-.06,.12-.13,.18-.2,0,0,.39-.02,.39-.02Zm-4.37,.08c.06,.14,.16,.3,.26,.48l-1.53-.13,1.26-.35Zm1,.26c.25,0,.45,.35,.23,.53l-2.32,3.82c-.22-.23-.42-.5-.59-.79,.88-1.04,1.66-2.3,2.43-3.41,.08-.1,.16-.15,.25-.15Zm2.61,.03l2.66,2.82c-.76,1-1.73,1.84-2.94,2.38l-.33-4.78c.21-.09,.41-.25,.61-.43Zm-8.77,.13c.03,.57,.1,1.15,.2,1.72l-.77,.53-.46-1.54s1.03-.71,1.03-.71Zm3.28,.1l2.15,.2c-.67,.99-1.32,1.91-2.07,2.89-.48-.85-.78-1.83-.94-2.86,0,0,.85-.23,.85-.23Zm4.6,.3l.43,4.75c-.15,.06-.29,.13-.44,.18-.18,.04-.37,.05-.54,.07l-.05-4.94c.2-.01,.41-.03,.61-.05Zm-.87,.08l.07,4.93c-1.15,.04-2.05-.34-2.76-.99l2.31-3.91c.12-.01,.26-.02,.38-.03Zm-16.42,.21c-.22,.09-.44,.17-.67,.23l.02-.07c.22-.04,.44-.09,.66-.16Zm-12.39,8l3.41,1.51-.25,.39-4.05-1.74s.89-.16,.89-.16Zm-1.21,.24l4.3,1.86-1.26,1.72-4.12-1.81,1.08-1.78Zm6.75,2.35l4.35,2.25-.23,.09-4.4-1.84s.28-.51,.28-.51Zm-.33,.63l4.17,2.02-.82,1.33-4.33-1.82s.99-1.53,.99-1.53Zm4.76,1.82l-.62,1.36-.41,.08,.74-1.33,.3-.12Z"/>
    </g>
  </g>
</svg>