<?xml version="1.0" encoding="UTF-8"?>
<svg id="Layer_2" data-name="Layer 2" xmlns="http://www.w3.org/2000/svg" xmlns:xlink="http://www.w3.org/1999/xlink" viewBox="0 0 94.08 101.3">
  <defs>
    <style>
      .cls-1 {
        fill: url(#linear-gradient-75);
      }

      .cls-2 {
        fill: url(#linear-gradient-2);
      }

      .cls-3 {
        fill: url(#linear-gradient-51);
      }

      .cls-4 {
        fill: url(#linear-gradient-17);
      }

      .cls-5 {
        fill: url(#linear-gradient-87);
      }

      .cls-6 {
        fill: url(#linear-gradient-93);
      }

      .cls-7 {
        fill: url(#linear-gradient-92);
      }

      .cls-8 {
        fill: url(#linear-gradient-80);
      }

      .cls-9 {
        fill: url(#linear-gradient-43);
      }

      .cls-10 {
        fill: url(#linear-gradient-15);
      }

      .cls-11 {
        fill: url(#linear-gradient-58);
      }

      .cls-12 {
        fill: url(#linear-gradient-69);
      }

      .cls-13 {
        fill: url(#linear-gradient-81);
      }

      .cls-14 {
        fill: url(#linear-gradient-18);
      }

      .cls-15 {
        fill: url(#linear-gradient-56);
      }

      .cls-16 {
        fill: url(#linear-gradient-40);
      }

      .cls-17 {
        fill: url(#linear-gradient-52);
      }

      .cls-18 {
        fill: url(#linear-gradient-28);
      }

      .cls-19 {
        fill: url(#linear-gradient-14);
      }

      .cls-20 {
        fill: url(#linear-gradient-36);
      }

      .cls-21 {
        fill: url(#linear-gradient-78);
      }

      .cls-22 {
        fill: url(#linear-gradient-20);
      }

      .cls-23 {
        fill: url(#linear-gradient-6);
      }

      .cls-24 {
        fill: url(#linear-gradient-53);
      }

      .cls-25 {
        fill: url(#linear-gradient-91);
      }

      .cls-26 {
        fill: url(#linear-gradient-60);
      }

      .cls-27 {
        fill: url(#linear-gradient-84);
      }

      .cls-28 {
        fill: url(#linear-gradient-35);
      }

      .cls-29 {
        fill: url(#linear-gradient-48);
      }

      .cls-30 {
        fill: url(#linear-gradient-32);
      }

      .cls-31 {
        fill: url(#linear-gradient-11);
      }

      .cls-32 {
        fill: url(#linear-gradient-50);
      }

      .cls-33 {
        fill: url(#linear-gradient-63);
      }

      .cls-34 {
        fill: url(#linear-gradient-67);
      }

      .cls-35 {
        fill: url(#linear-gradient-95);
      }

      .cls-36 {
        fill: url(#linear-gradient-86);
      }

      .cls-37 {
        fill: url(#linear-gradient-39);
      }

      .cls-38 {
        fill: url(#linear-gradient-10);
      }

      .cls-39 {
        fill: url(#linear-gradient-59);
      }

      .cls-40 {
        fill: url(#linear-gradient-49);
      }

      .cls-41 {
        fill: url(#linear-gradient-37);
      }

      .cls-42 {
        fill: url(#linear-gradient-82);
      }

      .cls-43 {
        fill: url(#linear-gradient-16);
      }

      .cls-44 {
        fill: url(#linear-gradient-31);
      }

      .cls-45 {
        fill: url(#linear-gradient-85);
      }

      .cls-46 {
        fill: url(#linear-gradient-61);
      }

      .cls-47 {
        fill: url(#linear-gradient-68);
      }

      .cls-48 {
        fill: url(#linear-gradient-62);
      }

      .cls-49 {
        fill: url(#linear-gradient-41);
      }

      .cls-50 {
        fill: url(#linear-gradient-76);
      }

      .cls-51 {
        fill: url(#linear-gradient-21);
      }

      .cls-52 {
        fill: url(#linear-gradient-72);
      }

      .cls-53 {
        fill: url(#linear-gradient-25);
      }

      .cls-54 {
        fill: url(#linear-gradient-89);
      }

      .cls-55 {
        fill: url(#linear-gradient-5);
      }

      .cls-56 {
        fill: url(#linear-gradient-64);
      }

      .cls-57 {
        fill: url(#linear-gradient-83);
      }

      .cls-58 {
        fill: url(#linear-gradient-54);
      }

      .cls-59 {
        fill: url(#linear-gradient-45);
      }

      .cls-60 {
        fill: url(#linear-gradient-55);
      }

      .cls-61 {
        fill: url(#linear-gradient-34);
      }

      .cls-62 {
        fill: url(#linear-gradient-65);
      }

      .cls-63 {
        fill: url(#linear-gradient-70);
      }

      .cls-64 {
        fill: none;
      }

      .cls-65 {
        fill: url(#linear-gradient-79);
      }

      .cls-66 {
        fill: url(#linear-gradient-88);
      }

      .cls-67 {
        fill: url(#linear-gradient-7);
      }

      .cls-68 {
        fill: url(#linear-gradient-66);
      }

      .cls-69 {
        fill: url(#linear-gradient-24);
      }

      .cls-70 {
        fill: url(#linear-gradient-73);
      }

      .cls-71 {
        fill: url(#linear-gradient-9);
      }

      .cls-72 {
        fill: url(#linear-gradient-22);
      }

      .cls-73 {
        fill: url(#linear-gradient-74);
      }

      .cls-74 {
        fill: url(#linear-gradient-42);
      }

      .cls-75 {
        fill: url(#linear-gradient-3);
      }

      .cls-76 {
        fill: url(#linear-gradient);
      }

      .cls-77 {
        fill: url(#linear-gradient-27);
      }

      .cls-78 {
        fill: url(#linear-gradient-33);
      }

      .cls-79 {
        fill: url(#linear-gradient-38);
      }

      .cls-80 {
        fill: url(#linear-gradient-94);
      }

      .cls-81 {
        fill: url(#linear-gradient-29);
      }

      .cls-82 {
        fill: url(#linear-gradient-30);
      }

      .cls-83 {
        fill: url(#linear-gradient-23);
      }

      .cls-84 {
        fill: url(#linear-gradient-19);
      }

      .cls-85 {
        fill: url(#linear-gradient-71);
      }

      .cls-86 {
        fill: url(#linear-gradient-4);
      }

      .cls-87 {
        fill: url(#linear-gradient-77);
      }

      .cls-88 {
        fill: url(#linear-gradient-8);
      }

      .cls-89 {
        fill: url(#linear-gradient-90);
      }

      .cls-90 {
        fill: url(#linear-gradient-44);
      }

      .cls-91 {
        fill: url(#linear-gradient-57);
      }

      .cls-92 {
        fill: url(#linear-gradient-47);
      }

      .cls-93 {
        fill: url(#linear-gradient-46);
      }

      .cls-94 {
        fill: url(#linear-gradient-12);
      }

      .cls-95 {
        fill: url(#linear-gradient-13);
      }

      .cls-96 {
        fill: url(#linear-gradient-26);
      }
    </style>
    <linearGradient id="linear-gradient" x1="82.76" y1="7.43" x2="-5.76" y2="64.64" gradientUnits="userSpaceOnUse">
      <stop offset="0" stop-color="#302e2e"/>
      <stop offset="1" stop-color="#171717"/>
    </linearGradient>
    <linearGradient id="linear-gradient-2" x1="100.11" y1="34.26" x2="11.59" y2="91.47" xlink:href="#linear-gradient"/>
    <linearGradient id="linear-gradient-3" x1="85.7" y1="11.94" x2="-2.85" y2="69.16" xlink:href="#linear-gradient"/>
    <linearGradient id="linear-gradient-4" x1="74.15" y1="-5.89" x2="-14.37" y2="51.32" xlink:href="#linear-gradient"/>
    <linearGradient id="linear-gradient-5" x1="75.03" y1="-4.56" x2="-13.5" y2="52.65" xlink:href="#linear-gradient"/>
    <linearGradient id="linear-gradient-6" x1="82.51" y1="7.09" x2="-5.98" y2="64.28" xlink:href="#linear-gradient"/>
    <linearGradient id="linear-gradient-7" x1="69.83" y1="-12.6" x2="-18.7" y2="44.62" xlink:href="#linear-gradient"/>
    <linearGradient id="linear-gradient-8" x1="72.18" y1="-8.96" x2="-16.35" y2="48.25" xlink:href="#linear-gradient"/>
    <linearGradient id="linear-gradient-9" x1="92.76" y1="22.8" x2="4.18" y2="80.04" xlink:href="#linear-gradient"/>
    <linearGradient id="linear-gradient-10" x1="90.59" y1="19.52" x2="2.07" y2="76.73" xlink:href="#linear-gradient"/>
    <linearGradient id="linear-gradient-11" x1="75.45" y1="-3.95" x2="-13.13" y2="53.3" xlink:href="#linear-gradient"/>
    <linearGradient id="linear-gradient-12" x1="82.24" y1="6.59" x2="-6.3" y2="63.8" xlink:href="#linear-gradient"/>
    <linearGradient id="linear-gradient-13" x1="72.47" y1="-8.29" x2="-15.83" y2="48.77" xlink:href="#linear-gradient"/>
    <linearGradient id="linear-gradient-14" x1="104.62" y1="41.24" x2="16.11" y2="98.44" xlink:href="#linear-gradient"/>
    <linearGradient id="linear-gradient-15" x1="89.97" y1="18.56" x2="1.48" y2="75.75" xlink:href="#linear-gradient"/>
    <linearGradient id="linear-gradient-16" x1="96.53" y1="28.72" x2="8.02" y2="85.92" xlink:href="#linear-gradient"/>
    <linearGradient id="linear-gradient-17" x1="90.92" y1="20.03" x2="2.38" y2="77.24" xlink:href="#linear-gradient"/>
    <linearGradient id="linear-gradient-18" x1="89.03" y1="17.14" x2=".53" y2="74.33" xlink:href="#linear-gradient"/>
    <linearGradient id="linear-gradient-19" x1="87.78" y1="15.16" x2="-.78" y2="72.39" xlink:href="#linear-gradient"/>
    <linearGradient id="linear-gradient-20" x1="98.98" y1="32.44" x2="10.4" y2="89.68" xlink:href="#linear-gradient"/>
    <linearGradient id="linear-gradient-21" x1="92.22" y1="22.04" x2="3.68" y2="79.26" xlink:href="#linear-gradient"/>
    <linearGradient id="linear-gradient-22" x1="65.92" y1="77.4" x2="71.04" y2="77.4" gradientUnits="userSpaceOnUse">
      <stop offset="0" stop-color="#47372a"/>
      <stop offset=".42" stop-color="#4a3a2d"/>
      <stop offset=".82" stop-color="#544538"/>
      <stop offset="1" stop-color="#5c4e40"/>
    </linearGradient>
    <linearGradient id="linear-gradient-23" x1="61.32" y1="78.54" x2="65.74" y2="78.54" xlink:href="#linear-gradient-22"/>
    <linearGradient id="linear-gradient-24" x1="60.32" y1="77.8" x2="71.96" y2="77.8" xlink:href="#linear-gradient-22"/>
    <linearGradient id="linear-gradient-25" x1="8.25" y1="71.79" x2="11.47" y2="71.79" xlink:href="#linear-gradient-22"/>
    <linearGradient id="linear-gradient-26" x1="4.65" y1="70.4" x2="8.02" y2="70.4" xlink:href="#linear-gradient-22"/>
    <linearGradient id="linear-gradient-27" x1="3.52" y1="71.32" x2="12.52" y2="71.32" xlink:href="#linear-gradient-22"/>
    <linearGradient id="linear-gradient-28" x1="67.04" y1="52.23" x2="66.77" y2="42.55" gradientUnits="userSpaceOnUse">
      <stop offset="0" stop-color="#b4d8e0"/>
      <stop offset=".32" stop-color="#b7dae1"/>
      <stop offset=".61" stop-color="#c2e0e7"/>
      <stop offset=".89" stop-color="#d5eaf0"/>
      <stop offset="1" stop-color="#dff0f5"/>
    </linearGradient>
    <linearGradient id="linear-gradient-29" x1="27.19" y1="31.61" x2="35.83" y2="31.61" gradientUnits="userSpaceOnUse">
      <stop offset="0" stop-color="#bdb4b0"/>
      <stop offset="1" stop-color="#737373"/>
    </linearGradient>
    <linearGradient id="linear-gradient-30" x1="49.76" y1="25.7" x2="43.01" y2="33.88" xlink:href="#linear-gradient-29"/>
    <linearGradient id="linear-gradient-31" x1="88.34" y1="38.89" x2="83.99" y2="18.18" gradientUnits="userSpaceOnUse">
      <stop offset="0" stop-color="#4f1609"/>
      <stop offset=".36" stop-color="#672619"/>
      <stop offset="1" stop-color="#904033"/>
    </linearGradient>
    <linearGradient id="linear-gradient-32" x1="77.92" y1="37.03" x2="81.8" y2="16.99" xlink:href="#linear-gradient-31"/>
    <linearGradient id="linear-gradient-33" x1="45" y1="17.69" x2="61.72" y2="17.69" xlink:href="#linear-gradient-31"/>
    <linearGradient id="linear-gradient-34" x1="41.56" y1="28.98" x2="37.82" y2="10.68" xlink:href="#linear-gradient-31"/>
    <linearGradient id="linear-gradient-35" x1="31.6" y1="28.08" x2="35.8" y2="8.7" xlink:href="#linear-gradient-31"/>
    <linearGradient id="linear-gradient-36" x1="18.11" y1="36.26" x2="11.82" y2="22.71" xlink:href="#linear-gradient-31"/>
    <linearGradient id="linear-gradient-37" x1="3.73" y1="40.76" x2="19.17" y2="37.75" xlink:href="#linear-gradient-31"/>
    <linearGradient id="linear-gradient-38" x1="27.4" y1="55.89" x2="19.27" y2="34.46" xlink:href="#linear-gradient-31"/>
    <linearGradient id="linear-gradient-39" x1="33.53" y1="53.86" x2="39.36" y2="33.1" xlink:href="#linear-gradient-31"/>
    <linearGradient id="linear-gradient-40" x1="43.54" y1="54.81" x2="38.89" y2="32.46" xlink:href="#linear-gradient-31"/>
    <linearGradient id="linear-gradient-41" x1="44.67" y1="52.03" x2="54.19" y2="38.32" xlink:href="#linear-gradient-31"/>
    <linearGradient id="linear-gradient-42" x1="51.47" y1="30.34" x2="64.46" y2="24.3" xlink:href="#linear-gradient-31"/>
    <linearGradient id="linear-gradient-43" x1="76.35" y1="36.59" x2="63.36" y2="45.59" xlink:href="#linear-gradient-29"/>
    <linearGradient id="linear-gradient-44" x1="73.59" y1="45.18" x2="82.11" y2="45.18" xlink:href="#linear-gradient-29"/>
    <linearGradient id="linear-gradient-45" x1="99.79" y1="58.47" x2="81.59" y2="59.9" xlink:href="#linear-gradient-29"/>
    <linearGradient id="linear-gradient-46" x1="88.79" y1="64.09" x2="88.72" y2="53.39" xlink:href="#linear-gradient-28"/>
    <linearGradient id="linear-gradient-47" x1="71.96" y1="49.92" x2="62.25" y2="87.46" xlink:href="#linear-gradient-29"/>
    <linearGradient id="linear-gradient-48" x1="65.3" y1="54.96" x2="64.22" y2="52.66" gradientUnits="userSpaceOnUse">
      <stop offset="0" stop-color="#e0a497"/>
      <stop offset=".55" stop-color="#ea907b"/>
      <stop offset="1" stop-color="#f57e62"/>
    </linearGradient>
    <linearGradient id="linear-gradient-49" x1="61.74" y1="56.62" x2="64.02" y2="56.62" gradientUnits="userSpaceOnUse">
      <stop offset="0" stop-color="#c4e09e"/>
      <stop offset=".55" stop-color="#bdea82"/>
      <stop offset="1" stop-color="#b7f569"/>
    </linearGradient>
    <linearGradient id="linear-gradient-50" x1="62.24" y1="60.04" x2="65.44" y2="60.04" xlink:href="#linear-gradient-48"/>
    <linearGradient id="linear-gradient-51" x1="65.29" y1="59.65" x2="68.29" y2="59.65" xlink:href="#linear-gradient-49"/>
    <linearGradient id="linear-gradient-52" x1="66.79" y1="56.69" x2="68.92" y2="56.69" xlink:href="#linear-gradient-48"/>
    <linearGradient id="linear-gradient-53" x1="65.97" y1="53.71" x2="68.59" y2="53.71" xlink:href="#linear-gradient-49"/>
    <linearGradient id="linear-gradient-54" x1="64.01" y1="56.96" x2="66.59" y2="56.96" gradientUnits="userSpaceOnUse">
      <stop offset="0" stop-color="#e0a6dc"/>
      <stop offset=".57" stop-color="#eb8ae2"/>
      <stop offset="1" stop-color="#f573e8"/>
    </linearGradient>
    <linearGradient id="linear-gradient-55" x1="38.11" y1="77.19" x2="49.13" y2="77.19" xlink:href="#linear-gradient-29"/>
    <linearGradient id="linear-gradient-56" x1="43.09" y1="83.81" x2="43.9" y2="69.83" xlink:href="#linear-gradient-28"/>
    <linearGradient id="linear-gradient-57" x1="38.19" y1="75.44" x2="26.94" y2="75.85" xlink:href="#linear-gradient-29"/>
    <linearGradient id="linear-gradient-58" x1="19.77" y1="71.74" x2="28.41" y2="71.74" xlink:href="#linear-gradient-29"/>
    <linearGradient id="linear-gradient-59" x1="25.79" y1="72.01" x2="25.79" y2="66.55" xlink:href="#linear-gradient-28"/>
    <linearGradient id="linear-gradient-60" x1="8.5" y1="35.46" x2="1.44" y2="42.21" xlink:href="#linear-gradient-29"/>
    <linearGradient id="linear-gradient-61" x1="17.27" y1="51.14" x2="5.41" y2="75.38" xlink:href="#linear-gradient-29"/>
    <linearGradient id="linear-gradient-62" x1="9.65" y1="58.32" x2="11.97" y2="58.32" xlink:href="#linear-gradient-49"/>
    <linearGradient id="linear-gradient-63" x1="7.42" y1="57.81" x2="9.37" y2="57.81" xlink:href="#linear-gradient-48"/>
    <linearGradient id="linear-gradient-64" x1="6.4" y1="54.99" x2="8.4" y2="54.99" xlink:href="#linear-gradient-49"/>
    <linearGradient id="linear-gradient-65" x1="6.42" y1="51.77" x2="8.97" y2="51.77" xlink:href="#linear-gradient-48"/>
    <linearGradient id="linear-gradient-66" x1="9.2" y1="51.83" x2="12.1" y2="51.83" xlink:href="#linear-gradient-49"/>
    <linearGradient id="linear-gradient-67" x1="10.41" y1="56.14" x2="12.54" y2="56.14" xlink:href="#linear-gradient-48"/>
    <linearGradient id="linear-gradient-68" x1="8.55" y1="54.89" x2="10.12" y2="54.89" xlink:href="#linear-gradient-54"/>
    <linearGradient id="linear-gradient-69" x1="96.35" y1="28.45" x2="7.83" y2="85.66" xlink:href="#linear-gradient"/>
    <linearGradient id="linear-gradient-70" x1="31.9" y1="77.41" x2="33.06" y2="69.29" xlink:href="#linear-gradient-28"/>
    <linearGradient id="linear-gradient-71" x1="84.13" y1="9.56" x2="-4.35" y2="66.74" xlink:href="#linear-gradient"/>
    <linearGradient id="linear-gradient-72" x1="87.03" y1="15.51" x2="6.43" y2="67.59" xlink:href="#linear-gradient"/>
    <linearGradient id="linear-gradient-73" x1="87.94" y1="17.59" x2="7.66" y2="69.48" xlink:href="#linear-gradient"/>
    <linearGradient id="linear-gradient-74" x1="89.79" y1="19.14" x2="8.93" y2="71.4" xlink:href="#linear-gradient"/>
    <linearGradient id="linear-gradient-75" x1="89.54" y1="22.11" x2="10.15" y2="73.42" xlink:href="#linear-gradient"/>
    <linearGradient id="linear-gradient-76" x1="84.82" y1="14.95" x2="5.55" y2="66.18" xlink:href="#linear-gradient"/>
    <linearGradient id="linear-gradient-77" x1="86.57" y1="16.15" x2="6.6" y2="67.83" xlink:href="#linear-gradient"/>
    <linearGradient id="linear-gradient-78" x1="87.93" y1="15.41" x2="-.6" y2="72.62" xlink:href="#linear-gradient"/>
    <linearGradient id="linear-gradient-79" x1="86.84" y1="16.11" x2="6.66" y2="67.93" xlink:href="#linear-gradient"/>
    <linearGradient id="linear-gradient-80" x1="87.94" y1="18.01" x2="7.85" y2="69.77" xlink:href="#linear-gradient"/>
    <linearGradient id="linear-gradient-81" x1="89.65" y1="20.23" x2="9.36" y2="72.12" xlink:href="#linear-gradient"/>
    <linearGradient id="linear-gradient-82" x1="90.71" y1="22.22" x2="10.58" y2="74.01" xlink:href="#linear-gradient"/>
    <linearGradient id="linear-gradient-83" x1="92.39" y1="24.44" x2="12.09" y2="76.33" xlink:href="#linear-gradient"/>
    <linearGradient id="linear-gradient-84" x1="107.6" y1="48.19" x2="27.38" y2="100.03" xlink:href="#linear-gradient"/>
    <linearGradient id="linear-gradient-85" x1="108.99" y1="50.38" x2="28.8" y2="102.2" xlink:href="#linear-gradient"/>
    <linearGradient id="linear-gradient-86" x1="111.79" y1="54.74" x2="31.62" y2="106.55" xlink:href="#linear-gradient"/>
    <linearGradient id="linear-gradient-87" x1="113.63" y1="57.57" x2="33.45" y2="109.39" xlink:href="#linear-gradient"/>
    <linearGradient id="linear-gradient-88" x1="105.68" y1="45.12" x2="25.36" y2="97.02" xlink:href="#linear-gradient"/>
    <linearGradient id="linear-gradient-89" x1="105.15" y1="44.73" x2="25.22" y2="96.39" xlink:href="#linear-gradient"/>
    <linearGradient id="linear-gradient-90" x1="106.85" y1="46.75" x2="26.39" y2="98.75" xlink:href="#linear-gradient"/>
    <linearGradient id="linear-gradient-91" x1="108.2" y1="49.13" x2="27.99" y2="100.97" xlink:href="#linear-gradient"/>
    <linearGradient id="linear-gradient-92" x1="111.4" y1="54.12" x2="31.22" y2="105.93" xlink:href="#linear-gradient"/>
    <linearGradient id="linear-gradient-93" x1="112.89" y1="56.43" x2="32.71" y2="108.25" xlink:href="#linear-gradient"/>
    <linearGradient id="linear-gradient-94" x1="109.98" y1="51.92" x2="29.8" y2="103.74" xlink:href="#linear-gradient"/>
    <linearGradient id="linear-gradient-95" x1="110.34" y1="52.45" x2="30.13" y2="104.28" xlink:href="#linear-gradient"/>
  </defs>
  <g id="Layer_2-2" data-name="Layer 2">
    <g>
      <polygon class="cls-64" points="29.14 31.98 29.14 31.98 29.14 31.98 29.14 31.98"/>
      <polygon class="cls-64" points="17.19 16.61 17.19 16.61 17.19 16.61 17.19 16.61"/>
      <path class="cls-76" d="M9.45,49.4c-.31-.12-.59-.19-.85-.2-.12-.01-.22-.02-.33,0-1.57,.18-2.15,2.29-2.3,3.95,0,2.93,1.54,6.08,3.48,6.99s3.49-.82,3.49-3.75-1.55-6.08-3.49-6.99Zm0,.47c1.03,.49,2.07,2.11,2.65,3.87l-1.68,.06c-.02-.53-.22-1-.97-1.43l-.25-2.52c.08,0,.17,0,.25,.02Zm-.68-.07s.07,0,.1,0l.1,2.65c-.47,.34-.72,.78-.77,1.29l-1.78-.97c.15-1.5,.98-2.89,2.35-2.97Zm-2.37,3.5v-.15l1.8,1.02c0,.29,.04,.62,.1,.95,.03,.18,.06,.33,.1,.5l-1.2,1.2c-.48-1.14-.8-2.41-.8-3.52Zm2.67,6.24c-.61-.45-1.18-1.26-1.65-2.25l1.1-1.22c.16,.54,.37,.97,.85,1.2l-.3,2.27Zm-.45-4.6c-.2-.82,.02-1.52,.63-2.24,.72,.78,.76,1.81,.85,2.82,.09,.58-.22,1.07-.4,1.55-.5-.55-.8-1.41-1.08-2.13Zm1.03,4.93l.2-2.53c.31-.19,.46-.41,.52-.65l1.6,1.98c-.55,.98-1.44,1.49-2.32,1.2Zm.77-3.53c.01-.25,0-.53,.03-.87-.08-.5-.02-.94,0-1.35l1.75-.08c.21,.74,.34,1.5,.34,2.2,0,.76-.15,1.43-.39,2l-1.73-1.9Z"/>
      <path class="cls-2" d="M65.34,51.4c-2.22,.43-3.97,3.2-3.97,6.12s1.75,4.98,3.97,4.55c2.23-.44,3.98-3.21,3.98-6.13-.07-2.76-1.33-4.34-3.98-4.54Zm.88,.5c1.23,.33,1.97,1.46,2.37,2.72l-1.6,.9c-.13-.41-.47-.66-1.02-.85,.01-.82,.22-1.94,.25-2.77Zm.37,4.99c-.2,1.12-.73,1.65-1.67,2.1-.83-.56-1.03-1.5-.85-2.4,.15-.92,.65-1.26,1.35-1.67,1.18,.15,1.19,.95,1.17,1.97Zm-1.3-5.09c.18,0,.32-.02,.48,0-.02,.85-.19,1.94-.18,2.77-.06-.02-.11-.04-.17-.05-.63,.15-.94,.34-1.15,.62l-1.45-1.3c.66-1.07,1.56-1.87,2.47-2.04Zm-3.55,5.57c0-1.06,.34-2.14,.83-3.08l1.45,1.23c-.12,.26-.21,.59-.38,.97-.11,.54-.15,1.05-.05,1.5l-1.57,.95c-.16-.49-.28-1.02-.28-1.57Zm3.6,4.3c-1.22,.24-2.44-.73-3.1-2.15l1.5-1.15c.18,.37,.47,.73,.98,1.02,.11-.01,.2-.03,.3-.05l.42,2.3s-.07,.02-.1,.03Zm.63-.23l-.68-2.15c.79-.21,1.07-.7,1.35-1.42l1.65,.95c-.55,1.18-1.42,2.17-2.32,2.62Zm.82-3.92c.06-.16,.11-.32,.18-.5,.06-.42,.11-.76,.1-1.05l1.62-.98c.1,.37,.18,.74,.23,1.1,0,.78-.19,1.56-.48,2.3l-1.65-.87Z"/>
      <polygon class="cls-75" points="37.01 49.77 36.03 49.05 35.48 53.67 35.13 53.57 35.73 48.85 33.61 47.27 33.06 48.77 32.71 48.47 33.26 47.02 31.94 46.05 30.71 49.12 30.41 48.87 31.66 45.85 31.36 45.62 31.51 45.47 31.74 45.65 34.78 38.3 34.51 38.18 34.66 38.03 34.86 38.1 36.31 34.58 36.51 34.73 35.11 38.2 36.16 38.63 36.01 38.88 35.03 38.43 32.04 45.85 33.33 46.82 34.21 44.47 34.56 44.67 33.69 47.07 35.76 48.62 36.63 41.88 36.88 41.78 36.06 48.85 36.96 49.52 37.01 49.77"/>
      <path class="cls-86" d="M18.54,33.31l-.1,.15-3.37-2.53c-1.7,1.94-3.41,3.9-4.9,5.8l-.15-.05c1.5-2.06,3.21-3.96,4.9-5.87l-1.27-.95,.29-.05,1.13,.85c.72-.83,1.43-1.66,2.12-2.5l.15,.2c-.68,.78-1.41,1.61-2.12,2.42l3.32,2.53Z"/>
      <polygon class="cls-55" points="41.78 19.44 40.13 19.94 42.11 27.16 43.53 26.63 43.53 26.83 42.16 27.38 42.38 28.16 42.16 28.26 41.93 27.46 40.01 28.23 39.91 27.96 41.88 27.23 39.91 19.99 37.83 20.61 37.86 23.06 37.71 23.06 37.66 20.66 37.36 20.74 37.33 20.41 37.63 20.31 37.46 12.94 37.71 12.89 37.81 20.26 39.81 19.69 39.18 17.36 39.41 17.31 40.03 19.64 41.68 19.16 37.51 8.07 37.81 8.04 41.91 19.09 42.71 18.86 42.98 19.09 42.01 19.39 44.63 26.48 44.43 26.46 41.78 19.44"/>
      <path class="cls-23" d="M19.59,53.42l1.75,2.85-.2,.05-1.72-2.85c-.28,.08-.55,.17-.83,.25l.05-.22c.22-.07,.44-.14,.65-.2l-6.55-10.77,.2-.05,6.55,10.74c2.05-.63,4.13-1.44,6.12-2.12l.1,.2c-2.03,.73-4.05,1.5-6.12,2.12Z"/>
      <polygon class="cls-67" points="35.06 7.89 34.81 7.79 32.71 13.29 33.01 13.44 35.06 7.89"/>
      <path class="cls-88" d="M24.81,28.31l-.2,.2-1.82-1.2-3.02,3.92-.3-.05,3.1-4.02-6.88-4.47c-2.93,4.33-5.68,8.57-9.19,12.56l-.25-.2c3.2-3.95,6.27-8.24,9.27-12.51l-.75-.48,.2-.05,.62,.4c.66-.94,1.33-1.87,1.98-2.8l.1,.2c-.64,.92-1.26,1.82-1.88,2.73l6.93,4.42,1.85-2.37,.14,.25-1.77,2.27,1.87,1.2Z"/>
      <path class="cls-71" d="M25.56,60.94l-1.92,3.75-.05,6.95c1.44-.55,2.87-1.12,4.32-1.65v-.03h.05l.03-6.87-2.43-2.15Zm-1.72,10.3l.25-6.3,1.7-3.52,1.85,2.07,.1,6.25c-.44,.16-2.55,.97-3.9,1.5Z"/>
      <path class="cls-38" d="M81.56,33.03l.4,.35-.05,.15-.35-.3-.1,2.67-.3-.05,.1-2.84-1.67-1.4c-.28,.99-.54,1.97-.8,2.97l-.26-.15c.28-1.03,.59-1.99,.91-2.95l-2.38-1.95-.77,1.9-.2-.1,.8-1.95-.68-.55,.1-.3,.68,.58,3.2-7.82,.2,.05-3.22,7.92,2.34,2.02c.23-.68,.45-1.37,.68-2.1h.09c-.21,.74-.41,1.49-.62,2.23l1.62,1.37,.68-18.16h.2l-.6,18.41Z"/>
      <polygon class="cls-31" points="35.06 27.53 34.86 27.83 33.76 26.91 33.13 29.43 32.99 29.28 33.61 26.78 29.69 23.51 29.16 24.79 29.06 24.64 29.56 23.41 28.51 22.54 28.66 22.49 29.61 23.24 31.56 18.39 31.76 18.39 29.74 23.34 33.69 26.46 34.28 24.04 34.48 23.99 33.84 26.58 35.06 27.53"/>
      <path class="cls-94" d="M29.64,37.33l-7.97,3.72,2.3,4.42c2.21-1.03,4.33-2.28,6.64-3.24l.15,.25c-2.21,1.07-4.44,2.18-6.72,3.14l2.3,4.43-.2,.05-2.35-4.38c-1.37,.57-2.76,1.09-4.2,1.5l.5-.3c1.27-.33,2.46-.81,3.63-1.35l-2.35-4.37-2.8,1.3-.25-.15,2.92-1.35-.9-1.7,.3-.25,.93,1.8,7.94-3.7-1.55-2.4,.2-.1,1.6,2.38,1.25-.58,.15,.15-1.27,.6,1.62,2.4-.25,.25-1.62-2.52Z"/>
      <polygon class="cls-95" points="35.48 16.99 34.83 16.69 34.58 19.26 34.24 19.26 34.56 16.56 31.69 15.29 31.89 15.24 34.58 16.29 34.98 12.87 35.18 12.87 34.86 16.39 35.38 16.59 35.48 16.99"/>
      <path class="cls-19" d="M88.43,44.4l-2.35,5.27-.02,9.82c1.76-.79,3.52-1.58,5.29-2.37v-9.75l-2.92-2.97Zm2.5,12.39c-1.25,.55-3.08,1.31-4.32,1.88l-.15-8.67,2.12-4.8,2.35,2.55v9.04Z"/>
      <polygon class="cls-10" points="88.63 27.41 88.48 27.41 84.23 14.32 84.33 14.22 88.63 27.41"/>
      <polygon class="cls-43" points="90.66 34.41 91.21 35.45 91.01 35.7 90.38 34.53 84.08 37.5 84.06 38.68 83.86 38.63 83.88 37.6 83.53 37.78 83.63 37.53 83.88 37.4 83.96 33.43 84.21 33.43 84.11 37.3 90.26 34.28 88.41 30.76 88.61 30.56 90.5 34.16 91.18 33.83 91.33 34.08 90.66 34.41"/>
      <path class="cls-4" d="M84.21,30.38l-.4-.1c-.1-3.86,.04-7.78-.06-11.64h.31c.09,3.86,.05,7.88,.15,11.74Z"/>
      <path class="cls-14" d="M55.67,47.17c.62,.36,1.9,1.1,1.9,1.1l-.05,.2s-1.32-.74-1.97-1.12l-4.17,4.87-.3-.05,4.29-4.95c-1.55-.9-2.85-1.62-4.42-2.52l-1.3,1.85-.2-.15,1.33-1.82c-.51-.29-1.35-.77-1.5-.85l.2-.15c.16,.09,.94,.55,1.42,.82l2.02-2.75c-3.45-2.19-8.65-5.47-9.39-5.92l.15-.25c.7,.42,5.9,3.77,9.37,6l.7-.98,.05,.1-.65,.93c1.29,.82,3.27,2.1,3.27,2.1l-.15,.15s-1.96-1.27-3.24-2.08l-1.95,2.8c1.57,.91,2.89,1.69,4.42,2.57l2.17-2.49,.1,.14-2.1,2.45Z"/>
      <path class="cls-84" d="M47.13,50.8l-.85,.35c.16,.4,.32,.81,.47,1.22l-.15,.05c-.16-.41-.33-.81-.5-1.22l-4.84,1.92,.27,1.57h-.25l-.27-1.49-.98,.4v-.2l.95-.38-1.2-6.72,.25,.05,1.18,6.57,4.82-1.92c-2.12-5.2-4.66-10.23-5.7-15.77l.15-.2c1.63,5.39,3.67,10.64,5.7,15.89l.95-.37v.25Z"/>
      <path class="cls-22" d="M43.65,60.89l-2.34,5.3-.03,9.82c1.77-.79,3.53-1.61,5.3-2.4v-9.75l-2.93-2.97Zm2.48,12.37c-1.25,.54-3.18,1.58-4.43,2.15l-.02-9.05,2.12-4.62,2.33,2.35v9.17Z"/>
      <path class="cls-51" d="M83.41,10.54l-.3-2.6-.25,.05-.25,2.55c-3.21,7.23-6.6,14.83-9.47,22.39l.02,17.74-.67-.42,.12-19.69-10.69-17.17-9.07,3.4-7.75,3.82L37.06,2.45l-.28-2.45-.25,.05-.25,2.55-8.87,19.99-10.27-6.33L2.08,35.6l-.05,8.47-1.85,1.18-.18,28.31,19.32,14.02,9.09-5.53,.03,12.2,9.87,7.05,10.92-4.73,.17-.6,33.13-12.81,.18,.52,11.37-4.87V35.33l-10.67-24.79Zm-.28,.4l10.4,24.51-10.72,5.28,.32-29.79Zm-14.16,35.08v-.02h.05l.02-6.87-2.42-2.15-1.93,3.75-.3,4.32-7.94-5.07,15.74-8.32-.13,18.31-4.89-3.27c.59-.25,1.2-.45,1.8-.68Zm-2.28,.35l-1.8-1.17,.3-4.27,1.65-3.48,1.8,2.03,.1,6.14c-.29,.11-1.32,.46-2.05,.75Zm5.22-15.44l-15.89,8.7-7.57-4.72-.75-8.25-1.9-4.35,16.02-8.19,10.09,16.81Zm-31.78,.15l7.25-3.4,.35,6.77-4.17-2.59-2.08,2.27-1.35-3.05Zm8.8,22.07l-10.45,4.89,.18-29.58,10.27,24.69Zm3.87-35.94l8.92-3.54-16.09,8.04-.63-.52,7.8-3.98ZM36.83,2.6l10.15,24.36-7.05,3.7-1.05-2.38-.3-2.6-.25,.05-.25,2.55-1.7,3.95,.4-29.63h.05Zm1.53,25.68l-.68,30.14-8.64-7.87,9.32-22.27Zm-4.4,9.3l-4.12-5.97-2.33,.5-.32-6.48,8.64,7.75-1.87,4.2ZM36.58,2.62l-.65,29.79-8.89-7.55L36.58,2.62Zm-19.39,13.99l9.9,6.73-.75,1.2,.4,7.82-6.1,2.09-.02,.03h-.03l-11.09,5.55-6.67-4.4,14.36-19.02Zm-8.47,23.82l-5.94,3.22-.1-7.8,6.04,4.58Zm12.12-5.75l1.23-.4c-.91,.44-1.77,.89-2.63,1.35l-.5,.1-.1,.15,.2-.03c-2.93,1.58-5.67,3.19-8.82,4.7l.3,.25c3.39-1.6,6.21-3.35,9.32-5.07l2.1-.3,.35-.3-1.97,.35c.67-.37,1.33-.73,2.05-1.1l-.18-.13,6.95-2.27-20.54,9.97-7.37,3.12,19.61-10.39ZM7.72,78.41l-3.07-2.18,.27-10.79,3.1-3.05-.3,16.02Zm3.7,2.62l-3.17-2.25,.07-16.24,1.28,3.45,.07,.02-.05,.03,1.85,5-.05,9.99Zm1.03,.58l-.45-.33v-10.42l-3.55-9.27-3.98,3.67-.27,10.6-.68-.43,.4-10.22,4.68-4.19,3.92,9.57-.07,11.02Zm6.82,4.97l-6.37-4.65,.07-11.44-4.2-10.17-5.25,4.44-.37,10.45-2.77-1.73,.2-27.76,8.17-3.29,10.52,17.44v26.71Zm.5,.25l.3-26.56,8.27-3.63,.07,24.49-8.64,5.7Zm8.57-31.04l-8.17,4-11-17.56,20.52-10.07,4.02,5.99-5.27,11.85-.1,5.79Zm.5,38.14l.07-43.01,8.52,8.45,.4,40.95-8.99-6.39Zm9.59,6.67l-.32-41.73,10.64-5.1,.38,42.43-10.7,4.4Zm3.38-65.65l1.69-2.59,20.69,12.91-14.71,18.14v-10.39l-7.67-18.07Zm19.51,55.83l.17-15.9,4.2-8.59,.05,22.78-4.42,1.71Zm9.67-3.73l-4.95,1.9-.12-23.11,5.12,4.97-.05,16.24Zm.9-.38l-.38,.18v-16.36l-5.72-5.23-4.82,9.37-.05,16.3-.6,.22,.07-16.97,5.23-9.74,6.34,6.2-.07,16.03Zm.45-.16v-16.02l-6.77-6.68-5.57,10.25-.05,17.24-10.47,4.15v-31.14l15.01-18.84,17.62,12.17,.22,24.69-9.99,4.18Zm1.25-52.83l8.42,7.55,.1,15.46-8.3-5.57-.22-17.44Zm8.69,7.07l-8.64-7.89,9.2-21.74-.56,29.63Zm11.24,37.66l-10.51,4.44-.4-41.37,11.02-5.58-.11,42.51Z"/>
      <path class="cls-72" d="M65.92,65.84l.12,23.11,4.95-1.9,.05-16.24-5.12-4.97Zm2.42,2.82l.13,.1-1.83,2.18-.22-.15,1.92-2.13Zm2.13,5.75l.12,.15-3.67,3.87-.28-.2,3.83-3.82Zm-4,7.4l4.12-4.83,.05,.18-4.05,4.72-.12-.07Zm1.2,6.24l-.25-.15c.9-1.11,1.64-2.37,2.9-3.1l.17,.03c-.99,.82-2.08,2.16-2.82,3.22Zm-.78-3.07l-.22-.22,4.02-4.68,.05,.22-3.85,4.68Zm.1-9.75l-.22-.12,3.9-3.85,.07,.23-3.75,3.74Z"/>
      <path class="cls-83" d="M65.69,66.29l-4.2,8.59-.17,15.9,4.42-1.71-.05-22.78Zm-3.8,21.69l-.09-.08,3.04,.88,.03,.25-2.98-1.05Zm2.95-2.4l-3.02-.8,.2-.13,3.02,.66-.2,.27Zm.15-3.2l-3.02-.8,.15-.13,2.97,.71-.1,.22Zm.35-3.92l-3.35-.88,.06-.25,3.39,.85-.1,.28Zm-.02-3.33l-2.93-.97,.06-.25,3.02,.97-.15,.25Zm.1-3.84l-1.65-.7,.22-.03,1.5,.63-.07,.1Z"/>
      <polygon class="cls-69" points="71.96 70.64 71.89 86.67 71.51 86.85 71.51 70.49 65.79 65.26 60.97 74.63 60.92 90.93 60.32 91.15 60.39 74.18 65.62 64.44 71.96 70.64"/>
      <path class="cls-53" d="M9.62,66.04l-1.07,.62-.05-.15,.82-.6,.28,.08-1.28-3.45-.07,16.24,3.17,2.25,.05-9.99-1.85-5Zm1.43,5.62l-2.28,.55-.12-.27,2.35-.55,.05,.27Zm-2.45-2.67l1.47-.63,.13,.18-1.6,.67v-.22Zm2.25,5.07l.17,.2-2.35,.72-.12-.2,2.3-.72Zm-2.28,4.3v-.2l2.5-.98,.05,.23-2.55,.95Z"/>
      <path class="cls-96" d="M4.92,65.44l-.27,10.79,3.07,2.18,.3-16.02-3.1,3.05Zm.63,.9l1.92,2.37-.07,.28-2.08-2.7,.23,.05Zm-.2,2.35l2.02,3.25-.37,.05-1.78-3.15,.13-.15Zm1.7,8.57l-1.97-2.3,.12-.18,1.97,2.4-.12,.08Zm.27-2.3l-2.37-3.52,.17-.08,2.38,3.45-.18,.15Zm.05-8.7l-1.1-1.8,.08-.02,1.17,1.7-.15,.12Z"/>
      <polygon class="cls-77" points="12.52 70.59 12.45 81.61 12 81.28 12 70.86 8.45 61.59 4.47 65.26 4.2 75.86 3.52 75.43 3.92 65.21 8.6 61.02 12.52 70.59"/>
      <path class="cls-18" d="M68.74,45.62c-.29,.11-1.32,.46-2.05,.75l-1.8-1.17,.3-4.27,1.65-3.48,1.8,2.03,.1,6.14Z"/>
      <polygon class="cls-81" points="35.83 33.38 33.96 37.58 29.84 31.61 27.51 32.11 27.19 25.63 35.83 33.38"/>
      <polygon class="cls-82" points="47.73 34.45 43.56 31.86 41.48 34.13 40.13 31.08 47.38 27.68 47.73 34.45"/>
      <path class="cls-44" d="M83.13,10.94l-.32,29.79,10.72-5.28-10.4-24.51Zm1.2,3.28l4.3,13.19h-.15l-4.25-13.09,.1-.1Zm-.27,4.42c.09,3.86,.05,7.88,.15,11.74l-.4-.1c-.1-3.86,.04-7.78-.06-11.64h.31Zm6.95,17.06l-.63-1.17-6.3,2.97-.02,1.18-.2-.05,.02-1.03-.35,.18,.1-.25,.25-.13,.08-3.97h.25l-.1,3.87,6.15-3.02-1.85-3.52,.2-.2,1.89,3.6,.68-.33,.15,.25-.67,.33,.55,1.04-.2,.25Z"/>
      <path class="cls-30" d="M73.64,32.86l8.64,7.89,.56-29.63-9.2,21.74Zm8.32,.52l-.05,.15-.35-.3-.1,2.67-.3-.05,.1-2.84-1.67-1.4c-.28,.99-.54,1.97-.8,2.97l-.26-.15c.28-1.03,.59-1.99,.91-2.95l-2.38-1.95-.77,1.9-.2-.1,.8-1.95-.68-.55,.1-.3,.68,.58,3.2-7.82,.2,.05-3.22,7.92,2.34,2.02c.23-.68,.45-1.37,.68-2.1h.09c-.21,.74-.41,1.49-.62,2.23l1.62,1.37,.68-18.16h.2l-.6,18.41,.4,.35Z"/>
      <polygon class="cls-78" points="61.72 13.67 45.63 21.71 45 21.19 52.8 17.21 61.72 13.67"/>
      <path class="cls-61" d="M36.83,2.6h-.05l-.4,29.63,1.7-3.95,.25-2.55,.25-.05,.3,2.6,1.05,2.38,7.05-3.7L36.83,2.6Zm5.28,24.56l1.42-.53v.2l-1.37,.55,.22,.78-.22,.1-.23-.8-1.92,.77-.1-.27,1.97-.73-1.97-7.24-2.08,.62,.03,2.45h-.15l-.05-2.4-.3,.08-.03-.33,.3-.1-.17-7.37,.25-.05,.1,7.37,2-.57-.63-2.33,.23-.05,.62,2.33,1.65-.48-4.17-11.09,.3-.03,4.1,11.05,.8-.23,.27,.23-.97,.3,2.62,7.09-.2-.02-2.65-7.02-1.65,.5,1.98,7.22Z"/>
      <path class="cls-28" d="M27.04,24.86l8.89,7.55,.65-29.79-9.54,22.24Zm7.77-17.07l.25,.1-2.05,5.55-.3-.15,2.1-5.5Zm.05,20.04l-1.1-.92-.63,2.52-.14-.15,.62-2.5-3.92-3.27-.53,1.28-.1-.15,.5-1.23-1.05-.87,.15-.05,.95,.75,1.95-4.85h.2l-2.02,4.95,3.95,3.12,.59-2.42,.2-.05-.64,2.59,1.22,.95-.2,.3Zm-.03-11.14l-.25,2.57h-.34l.32-2.7-2.87-1.27,.2-.05,2.69,1.05,.4-3.42h.2l-.32,3.52,.52,.2,.1,.4-.65-.3Z"/>
      <path class="cls-20" d="M27.09,23.34l-9.9-6.73L2.83,35.63l6.67,4.4,11.09-5.55h.03l.02-.03,6.1-2.09-.4-7.82,.75-1.2Zm-8.65,10.12l-3.37-2.53c-1.7,1.94-3.41,3.9-4.9,5.8l-.15-.05c1.5-2.06,3.21-3.96,4.9-5.87l-1.27-.95,.29-.05,1.13,.85c.72-.83,1.43-1.66,2.12-2.5l.15,.2c-.68,.78-1.41,1.61-2.12,2.42l3.32,2.53-.1,.15Zm6.17-4.95l-1.82-1.2-3.02,3.92-.3-.05,3.1-4.02-6.88-4.47c-2.93,4.33-5.68,8.57-9.19,12.56l-.25-.2c3.2-3.95,6.27-8.24,9.27-12.51l-.75-.48,.2-.05,.62,.4c.66-.94,1.33-1.87,1.98-2.8l.1,.2c-.64,.92-1.26,1.82-1.88,2.73l6.93,4.42,1.85-2.37,.14,.25-1.77,2.27,1.87,1.2-.2,.2Z"/>
      <path class="cls-41" d="M29.14,31.98l-20.54,9.97-7.37,3.12,19.61-10.39,1.23-.4c-.91,.44-1.77,.89-2.63,1.35l-.5,.1-.1,.15,.2-.03c-2.93,1.58-5.67,3.19-8.82,4.7l.3,.25c3.39-1.6,6.21-3.35,9.32-5.07l2.1-.3,.35-.3-1.97,.35c.67-.37,1.33-.73,2.05-1.1l-.18-.13,6.95-2.27Z"/>
      <path class="cls-79" d="M29.69,32.16l-20.52,10.07,11,17.56,8.17-4,.1-5.79,5.27-11.85-4.02-5.99Zm-8.35,24.11l-.2,.05-1.72-2.85c-.28,.08-.55,.17-.83,.25l.05-.22c.22-.07,.44-.14,.65-.2l-6.55-10.77,.2-.05,6.55,10.74c2.05-.63,4.13-1.44,6.12-2.12l.1,.2c-2.03,.73-4.05,1.5-6.12,2.12l1.75,2.85Zm2.63-10.8c2.21-1.03,4.33-2.28,6.64-3.24l.15,.25c-2.21,1.07-4.44,2.18-6.72,3.14l2.3,4.43-.2,.05-2.35-4.38c-1.37,.57-2.76,1.09-4.2,1.5l.5-.3c1.27-.33,2.46-.81,3.63-1.35l-2.35-4.37-2.8,1.3-.25-.15,2.92-1.35-.9-1.7,.3-.25,.93,1.8,7.94-3.7-1.55-2.4,.2-.1,1.6,2.38,1.25-.58,.15,.15-1.27,.6,1.62,2.4-.25,.25-1.62-2.52-7.97,3.72,2.3,4.42Z"/>
      <path class="cls-37" d="M29.04,50.55l8.64,7.87,.68-30.14-9.32,22.27Zm6.99-1.5l-.55,4.62-.35-.1,.6-4.72-2.12-1.58-.55,1.5-.35-.3,.55-1.45-1.32-.97-1.23,3.07-.3-.25,1.25-3.02-.3-.23,.15-.15,.23,.18,3.04-7.35-.27-.12,.15-.15,.2,.07,1.45-3.52,.2,.15-1.4,3.47,1.05,.43-.15,.25-.98-.45-2.99,7.42,1.29,.97,.88-2.35,.35,.2-.87,2.4,2.07,1.55,.87-6.74,.25-.1-.82,7.07,.9,.67,.05,.25-.98-.72Z"/>
      <path class="cls-16" d="M38.66,28.46l-.18,29.58,10.45-4.89-10.27-24.69Zm8.09,23.91l-.15,.05c-.16-.41-.33-.81-.5-1.22l-4.84,1.92,.27,1.57h-.25l-.27-1.49-.98,.4v-.2l.95-.38-1.2-6.72,.25,.05,1.18,6.57,4.82-1.92c-2.12-5.2-4.66-10.23-5.7-15.77l.15-.2c1.63,5.39,3.67,10.64,5.7,15.89l.95-.37v.25l-.85,.35c.16,.4,.32,.81,.47,1.22Z"/>
      <path class="cls-49" d="M64.19,45.27l-20.69-12.91-1.69,2.59,7.67,18.07v10.39l14.71-18.14Zm-14.74,1.13l1.33-1.82c-.51-.29-1.35-.77-1.5-.85l.2-.15c.16,.09,.94,.55,1.42,.82l2.02-2.75c-3.45-2.19-8.65-5.47-9.39-5.92l.15-.25c.7,.42,5.9,3.77,9.37,6l.7-.98,.05,.1-.65,.93c1.29,.82,3.27,2.1,3.27,2.1l-.15,.15s-1.96-1.27-3.24-2.08l-1.95,2.8c1.57,.91,2.89,1.69,4.42,2.57l2.17-2.49,.1,.14-2.1,2.45c.62,.36,1.9,1.1,1.9,1.1l-.05,.2s-1.32-.74-1.97-1.12l-4.17,4.87-.3-.05,4.29-4.95c-1.55-.9-2.85-1.62-4.42-2.52l-1.3,1.85-.2-.15Z"/>
      <path class="cls-74" d="M61.82,14.12l-16.02,8.19,1.9,4.35,.75,8.25,7.57,4.72,15.89-8.7-10.09-16.81Zm5.75,14.86l-.7-1.05-8.57,4.03,1.07,1.95-.2,.15-1.12-2-5.73,2.69-.29-.1,5.92-2.77-4.38-7.79c-1.61,.65-3.23,1.3-4.87,1.92l-.1-.2c1.54-.82,3.14-1.49,4.77-2.1l-.14-.25,.34-.1,.13,.25c1.86-.68,3.75-1.31,5.62-2v.1c-1.8,.75-3.61,1.51-5.42,2.25l4.3,7.8,8.54-4.03-2.85-4.32-4.09,2.07-.2-.2,4.14-2.12-4.22-6.42,.25-.05,4.17,6.37,1.55-.77,.15,.25-1.55,.77,2.85,4.35,.73-.35,.1,.2-.7,.32,.65,1-.15,.15Z"/>
      <path class="cls-9" d="M72.19,31.66l-.13,18.31-4.89-3.27c.59-.25,1.2-.45,1.8-.68v-.02h.05l.02-6.87-2.42-2.15-1.93,3.75-.3,4.32-7.94-5.07,15.74-8.32Z"/>
      <polygon class="cls-90" points="82.11 56.69 73.81 51.12 73.59 33.68 82.01 41.23 82.11 56.69"/>
      <path class="cls-59" d="M82.61,41.48l.4,41.37,10.51-4.44,.11-42.51-11.02,5.58Zm8.74,15.64c-1.77,.79-3.53,1.58-5.29,2.37l.02-9.82,2.35-5.27,2.92,2.97v9.75Z"/>
      <path class="cls-93" d="M90.93,47.75v9.04c-1.25,.55-3.08,1.31-4.32,1.88l-.15-8.67,2.12-4.8,2.35,2.55Z"/>
      <path class="cls-92" d="M82.33,82.33l-.22-24.69-17.62-12.17-15.01,18.84v31.14l10.47-4.15,.05-17.24,5.57-10.25,6.77,6.68v16.02l9.99-4.18Zm-16.99-20.26c-2.22,.43-3.97-1.64-3.97-4.55s1.75-5.69,3.97-6.12c2.65,.2,3.91,1.78,3.98,4.54,0,2.92-1.75,5.69-3.98,6.13Z"/>
      <path class="cls-29" d="M65.77,51.8c-.02,.85-.19,1.94-.18,2.77-.06-.02-.11-.04-.17-.05-.63,.15-.94,.34-1.15,.62l-1.45-1.3c.66-1.07,1.56-1.87,2.47-2.04,.18,0,.32-.02,.48,0Z"/>
      <path class="cls-40" d="M63.64,56.49c-.11,.54-.15,1.05-.05,1.5l-1.57,.95c-.16-.49-.28-1.02-.28-1.57,0-1.06,.34-2.14,.83-3.08l1.45,1.23c-.12,.26-.21,.59-.38,.97Z"/>
      <path class="cls-32" d="M65.44,61.64s-.07,.02-.1,.03c-1.22,.24-2.44-.73-3.1-2.15l1.5-1.15c.18,.37,.47,.73,.98,1.02,.11-.01,.2-.03,.3-.05l.42,2.3Z"/>
      <path class="cls-3" d="M68.29,58.82c-.55,1.18-1.42,2.17-2.32,2.62l-.68-2.15c.79-.21,1.07-.7,1.35-1.42l1.65,.95Z"/>
      <path class="cls-17" d="M68.92,56.09c0,.78-.19,1.56-.48,2.3l-1.65-.87c.06-.16,.11-.32,.18-.5,.06-.42,.11-.76,.1-1.05l1.62-.98c.1,.37,.18,.74,.23,1.1Z"/>
      <path class="cls-24" d="M68.59,54.62l-1.6,.9c-.13-.41-.47-.66-1.02-.85,.01-.82,.22-1.94,.25-2.77,1.23,.33,1.97,1.46,2.37,2.72Z"/>
      <path class="cls-58" d="M66.59,56.89c-.2,1.12-.73,1.65-1.67,2.1-.83-.56-1.03-1.5-.85-2.4,.15-.92,.65-1.26,1.35-1.67,1.18,.15,1.19,.95,1.17,1.97Z"/>
      <path class="cls-60" d="M48.75,53.77l-10.64,5.1,.32,41.73,10.7-4.4-.38-42.43Zm-2.17,19.84c-1.77,.79-3.53,1.61-5.3,2.4l.03-9.82,2.34-5.3,2.93,2.97v9.75Z"/>
      <path class="cls-15" d="M46.13,64.09v9.17c-1.25,.54-3.18,1.58-4.43,2.15l-.02-9.05,2.12-4.62,2.33,2.35Z"/>
      <path class="cls-91" d="M37.43,59.37l-8.52-8.45-.07,43.01,8.99,6.39-.4-40.95Zm-1.85,16.46l-5.27-2.35,.1-9.14,2.75-3.15,2.45,5.42-.03,9.22Z"/>
      <path class="cls-11" d="M28.34,56.64l-8.27,3.63-.3,26.56,8.64-5.7-.07-24.49Zm-.38,13.32h-.05v.03c-1.45,.53-2.88,1.1-4.32,1.65l.05-6.95,1.92-3.75,2.43,2.15-.03,6.87Z"/>
      <path class="cls-39" d="M27.74,69.74c-.44,.16-2.55,.97-3.9,1.5l.25-6.3,1.7-3.52,1.85,2.07,.1,6.25Z"/>
      <polygon class="cls-26" points="8.72 40.43 2.78 43.65 2.68 35.85 8.72 40.43"/>
      <path class="cls-46" d="M8.75,42.43L.58,45.72l-.2,27.76,2.77,1.73,.37-10.45,5.25-4.44,4.2,10.17-.07,11.44,6.37,4.65v-26.71l-10.52-17.44Zm.7,17.71c-1.94-.91-3.48-4.06-3.48-6.99,.15-1.66,.73-3.77,2.3-3.95,.11-.02,.21-.01,.33,0,.26,.01,.54,.08,.85,.2,1.94,.91,3.49,4.06,3.49,6.99s-1.55,4.66-3.49,3.75Z"/>
      <path class="cls-48" d="M11.97,58.67c-.55,.98-1.44,1.49-2.32,1.2l.2-2.53c.31-.19,.46-.41,.52-.65l1.6,1.98Z"/>
      <path class="cls-33" d="M9.37,57.27l-.3,2.27c-.61-.45-1.18-1.26-1.65-2.25l1.1-1.22c.16,.54,.37,.97,.85,1.2Z"/>
      <path class="cls-56" d="M8.4,55.62l-1.2,1.2c-.48-1.14-.8-2.41-.8-3.52v-.15l1.8,1.02c0,.29,.04,.62,.1,.95,.03,.18,.06,.33,.1,.5Z"/>
      <path class="cls-62" d="M8.97,52.45c-.47,.34-.72,.78-.77,1.29l-1.78-.97c.15-1.5,.98-2.89,2.35-2.97,.04,0,.07,0,.1,0l.1,2.65Z"/>
      <path class="cls-68" d="M12.1,53.74l-1.68,.06c-.02-.53-.22-1-.97-1.43l-.25-2.52c.08,0,.17,0,.25,.02,1.03,.49,2.07,2.11,2.65,3.87Z"/>
      <path class="cls-34" d="M12.54,56.24c0,.76-.15,1.43-.39,2l-1.73-1.9c.01-.25,0-.53,.03-.87-.08-.5-.02-.94,0-1.35l1.75-.08c.21,.74,.34,1.5,.34,2.2Z"/>
      <path class="cls-47" d="M9.7,57.07c-.5-.55-.8-1.41-1.08-2.13-.2-.82,.02-1.52,.63-2.24,.72,.78,.76,1.81,.85,2.82,.09,.58-.22,1.07-.4,1.55Z"/>
      <path class="cls-12" d="M33.16,61.19l-2.75,3.15-.1,9.14,5.27,2.35,.03-9.22-2.45-5.42Zm-2.6,12.02l.2-8.77,2.42-2.82,2,5.09,.03,8.5-4.65-2Z"/>
      <polygon class="cls-63" points="35.21 75.21 30.56 73.21 30.76 64.44 33.18 61.62 35.18 66.71 35.21 75.21"/>
      <path class="cls-85" d="M67.07,27.83l.65,1-.15,.15-.7-1.05-8.57,4.03,1.07,1.95-.2,.15-1.12-2-5.73,2.69-.29-.1,5.92-2.77-4.38-7.79c-1.61,.65-3.23,1.3-4.87,1.92l-.1-.2c1.54-.82,3.14-1.49,4.77-2.1l-.14-.25,.34-.1,.13,.25c1.86-.68,3.75-1.31,5.62-2v.1c-1.8,.75-3.61,1.51-5.42,2.25l4.3,7.8,8.54-4.03-2.85-4.32-4.09,2.07-.2-.2,4.14-2.12-4.22-6.42,.25-.05,4.17,6.37,1.55-.77,.15,.25-1.55,.77,2.85,4.35,.73-.35,.1,.2-.7,.32Z"/>
      <polygon class="cls-52" points="7.47 68.71 7.4 68.99 5.32 66.29 5.55 66.34 7.47 68.71"/>
      <polygon class="cls-70" points="7.37 71.94 7 71.99 5.22 68.84 5.35 68.69 7.37 71.94"/>
      <polygon class="cls-73" points="7.5 74.81 7.32 74.96 4.95 71.44 5.12 71.36 7.5 74.81"/>
      <polygon class="cls-1" points="7.17 77.18 7.05 77.26 5.08 74.96 5.2 74.78 7.17 77.18"/>
      <polygon class="cls-50" points="7.52 66.14 7.37 66.26 6.27 64.46 6.35 64.44 7.52 66.14"/>
      <polygon class="cls-87" points="9.62 66.04 8.55 66.66 8.5 66.51 9.32 65.91 9.6 65.99 9.62 66.04"/>
      <polygon class="cls-21" points="9.67 66.01 9.6 65.99 9.62 66.04 9.67 66.01"/>
      <polygon class="cls-65" points="9.67 66.01 9.6 65.99 9.62 66.04 9.67 66.01"/>
      <polygon class="cls-8" points="10.2 68.54 8.6 69.21 8.6 68.99 10.07 68.36 10.2 68.54"/>
      <polygon class="cls-13" points="11.05 71.66 8.77 72.21 8.65 71.94 11 71.39 11.05 71.66"/>
      <polygon class="cls-42" points="11.02 74.26 8.67 74.98 8.55 74.78 10.85 74.06 11.02 74.26"/>
      <polygon class="cls-57" points="11.12 77.41 8.57 78.36 8.57 78.16 11.07 77.18 11.12 77.41"/>
      <polygon class="cls-27" points="70.74 71.49 66.99 75.23 66.77 75.11 70.67 71.26 70.74 71.49"/>
      <polygon class="cls-45" points="70.59 74.56 66.92 78.43 66.64 78.23 70.47 74.41 70.59 74.56"/>
      <polygon class="cls-36" points="70.74 80.3 66.89 84.98 66.67 84.76 70.69 80.08 70.74 80.3"/>
      <path class="cls-5" d="M67.42,87.9l.25,.15c.74-1.06,1.83-2.4,2.82-3.22,0,0-.18-.02-.18-.02-1.25,.73-1.99,1.98-2.9,3.09Z"/>
      <polygon class="cls-66" points="68.47 68.76 66.64 70.94 66.42 70.79 68.34 68.66 68.47 68.76"/>
      <polygon class="cls-54" points="65.49 71.19 65.42 71.29 63.77 70.59 63.99 70.56 65.49 71.19"/>
      <polygon class="cls-89" points="65.47 74.88 65.32 75.13 62.39 74.16 62.45 73.91 65.47 74.88"/>
      <polygon class="cls-25" points="65.44 78.18 65.34 78.46 61.99 77.58 62.05 77.33 65.44 78.18"/>
      <polygon class="cls-7" points="61.82 84.78 64.84 85.58 65.04 85.31 62.02 84.65 61.82 84.78"/>
      <polygon class="cls-6" points="61.8 87.9 61.89 87.98 64.87 89.03 64.84 88.78 61.8 87.9"/>
      <polygon class="cls-80" points="61.97 81.58 64.99 82.38 65.09 82.16 62.12 81.45 61.97 81.58"/>
      <polygon class="cls-35" points="70.64 77.16 66.59 81.88 66.47 81.81 70.59 76.98 70.64 77.16"/>
    </g>
  </g>
</svg>