<?xml version="1.0" encoding="UTF-8"?>
<svg id="Layer_2" data-name="Layer 2" xmlns="http://www.w3.org/2000/svg" viewBox="0 0 117.04 73.88">
  <defs>
    <style>
      .cls-1 {
        fill: #4a2412;
        fill-rule: evenodd;
      }
    </style>
  </defs>
  <g id="Layer_2-2" data-name="Layer 2">
    <g id="layer1">
      <path id="path2308" class="cls-1" d="M58.41,1.72c-2.35,1.6-4.76,3.02-7.44,4-4.87,.87-9.77,1.8-14.31,3.84-8.91,1.99-17.64,4.58-24.91,10.37-1.44,1.5-2.1,3.24-2.75,4.91-.65,1.66-1.31,3.34-2.56,4.66-2.67,2-4.72,4.34-6.44,7.12l.22,.16c.65-.94,2.29-2.98,3.1-3.81,.24-.25,1.18,4.8,1.43,4.56,.32-.3-.92-4.74-.59-5.03,.97-.84,1.97-1.62,3-2.34,1.45-1.56,2.11-3.31,2.75-4.97,.66-1.64,1.14-2.53,2.44-3.78,.29,1.51,1.06,2.75,1.65,4.94,.68,2.49,1.35,5.12,1.5,7.06-.54,4.85,1.76,9.22,2.88,13.69l.22-.06c-1.2-4.49-2.57-9.02-2.1-13.72-.16-2.1-.85-4.74-1.53-7.25-.65-2.43-1.3-4.7-1.53-6.09,6.53-3.97,14.48-8.14,22-9.66,.15-.03-.76,2.92-2.97,5.44-3.97,4.52-11.62,10.01-11.34,9.97,.31-.05,7.28-5.07,11.78-9.62,2.83-2.86,3.93-6.07,4.13-6.09,4.33-1.63,8.71-2.78,13.38-3.03,1.61-.61,3.19-1.29,4.81-1.87-4.78,5.79-7.8,12.52-10.62,19.47-5.86,10.97-10.35,22.27-10,34.97-.03,.19,.56,2.56-.44,3.06-3.55,1.78-9.45,2.39-9.53,3.12-.02,.19,1.38-.08,3.28-.5,.74-.16,.7,4.29,1.53,4.09,.33-.07-.46-4.26-.12-4.34,3.09-.71,4.82-1.28,4.81-1-.05,3.11-1.7,7.6-3.22,9.44l.59,.47c2.03-3.87,3.81-9.95,4.09-14.35-.08-12.68,3-23.8,9.47-34.75v-.03h.03c1.72-3.83,4.04-8.94,6.09-12.59,.11-.19,2.94,3.74,4.84,8.47,.48,1.19,.85,2.51,1.19,3.81,.08,.3-1.54,2.98-1.47,3.28,.09,.41,1.76-2.62,1.84-2.22,.61,3.12,.9,6.93,.97,6.81,.12-.19-.14-6.93-1.91-12.28-1.67-5.05-4.86-8.72-4.75-8.91,1.22-1.94,2.59-3.81,4.16-5.53,1.02-2.09,2.8-1.99,4.94-2.53,4.05-2.52,7.81-.35,11.03,2.47,2.8,2.42,5.64,5.16,9.28,6.22,7.12,2.57,10.81,8.75,15.22,14.81,3.01,4.28,6.6,8.42,8.59,13.19,.91,1.56,3.05,5.05,5.44,8.13,1.86,2.36,3.73,4.97,6.38,6.47l.09-.19c-2.36-1.65-3.95-4.6-5.69-6.91-2.36-3.04-4.61-6.35-5.47-7.81-2.51-4.7-5.71-8.88-8.91-13.13-1.87-2.57-2.42-4.99-4.44-7.44,3.09,1.61,6.22,2.6,9.62,3.41,1.52,.58,3.28,2.43,4.66,3.94,1.39,1.53,3.25,3.47,3.25,5.16l.13-.12c0-2.06-1.12-4.07-2.62-5.72-1.55-1.48-3.16-2.9-5.22-3.62-4.13-1.27-8.43-3.7-12.06-5.22-2.53-2.58-5.27-4.89-8.75-6.06-3.43-.97-6.39-2.94-9.16-5.31-2.77-2.38-5.37-5.16-9.34-5.31,0,0-4.63,1.72-4.63,1.72Zm11.31,12.97c.5,.74,1.02,1.67,1.63,2.5,.02,.04,.04,.08,.06,.13h.03c.2,.42,.45,.79,.72,1.13-4.17,.37-10.07-.25-14.16-3.25l-.59,.19c4.75,2.85,10.52,4.42,15.97,3.47,.41,.37,.42,1.13,.84,1.44,.77,.59,1.68,3,1.63,3.91-.62,1.25-.74,.92-.94,2.28-1.85,6.18-3.39,12.46-2.5,18.97-.34,6,.42,11.67,1.12,18.06,.06,.52-1.22,3.14-2.44,4.97-.13,.2-2.33,.54-2.44,.75-.13,.26,2.22-.19,2.09,.06-.84,1.66-1.86,3.62-1.81,3.72l4.34-6.34,1.75,2.56-1.44-2.87,1.25-2.13,9.59-1.41c2.08-1.05,4.04-2.16,6.03-2.78,2.26-.44,4.66-1.06,6.88-.47-.03,.18-.14,.81-.09,1,.72,.89,1.33,1.72,2.53,1.94,1.83,.06,3.78,.29,5.47-.37,2.19-.78,5.29-.93,6.19-3.31-.08-2.88-1.87-5.31-5.22-5.09-1.42,.34-2.67,1.44-3.53,2.87-.83,.27-2.16,.72-3.31,1.31,.4-.99,.57-2.18,.63-3.41,0-1.94-.18-4.79-.25-6.72-.01-.33,6.24-.57,6.22-.91-.06-.14-2.07-.13-3.44-.09-.32,0,.2-2.38-.12-2.37-.24,0-.55,2.4-.78,2.41-1.18,.02-2.16,.03-2.22-.09-3.2-6.26-8.58-10.92-10.81-17.41-.78-2.15-1.7-4.16-3.88-5.16-1.82-.8-3.44-1.96-4.72-3.31-1.2-.01-1.75,.19-2.47,.72-.62-.94-1.68-5.47-1.28-7.09-.61-.48,.18,4.11-.75,5-.62,.59-3.07-2.29-3.28-2.78-1.69-.69-2.41-2.91-3.84-4.31,0,0,1.34,2.31,1.34,2.31Zm14.75,10.03c2.07,1.44,2.34,3.39,3.38,5.13l11.19,18.03,.3,6.78-1.93,4.41-1.19-.25c1.63-3.74,1-6.91,1.44-10.34-3.55-5.62-6.84-11.88-10.69-16.75-.53-1.48-.96-2.99-1.97-4.31-2.47-1.75-4.53-3.69-6.69-5.59l.69-.69,5.47,3.59Zm26.63,34.25c-1.13,1.78-4.17,1.59-6.19,2.22h-.06c-1.11,.55-3.2,.33-4.91,.31-3.81-1.95,1.49-3.1,3.47-4.22,1.04-1.37,2.07-2.63,3.91-2.69,1.85,.51,3.83,2.51,3.78,4.38Zm-43.72-2.81c-4.37,.05-6.86,3.38-11.25,4.81-2.48-.01-6.25-2.4-7.69-1.94-1.44,.46-2.6,1.5-4.13,3.63-2.02,5.36,1.24,7.21,6.53,8.03,2.74-.05,3.82-.59,5.56-1.22s3.38-1.06,6.03-.44h.06s.03,0,.03,0c2.55-.17,5.33-.4,7.56-1.68,1.97-4.33,2.25-8.02-1.81-11.16-.31-.03-.61-.03-.91-.03h0Zm.66,1.03c2.93,2.86,4.24,6.34,1.72,9.9-2.44,.14-4.83,.89-7.22,.97-2.77-.61-4.7-.16-6.47,.47-1.94,.72-4.45,1.6-6.56,1.6-3.88-.42-7.04-2.89-4.37-6.88,1.48-2.06,2.45-2.9,3.63-3.28,2.79,1.62,7.44,5.24,11.78,5.72l.13-.13c-8.24-2.33-7.68-4.14-10.12-5.84,1.17-.03,4.5,1.76,5.66,1.72,4.24-1.23,6.74-4.43,10.97-4.31,.28,0,.58,.02,.87,.06Z"/>
    </g>
  </g>
</svg>