<?xml version="1.0" encoding="UTF-8"?>
<svg id="Layer_2" data-name="Layer 2" xmlns="http://www.w3.org/2000/svg" viewBox="0 0 38.11 61.74">
  <defs>
    <style>
      .cls-1 {
        fill: #5c2700;
        fill-rule: evenodd;
      }
    </style>
  </defs>
  <g id="Layer_2-2" data-name="Layer 2">
    <g id="layer1">
      <path id="path2327" class="cls-1" d="M18.11,0c-1.46,2.63-2,5.49-2.11,8.41-.81,.58-1.45,1.41-1.82,2.51-.3,1.13-.52,2.3-.66,3.49L.52,18.38c-.11,.77-1.25,.88,.24,2.68l2.04,.27c-.19,.55-.69,1,.2,1.91,.5,.38,1.2,.25,1.96,0-.19,.64-.59,1.25,.19,2.01,.83,.34,1.65,.16,2.48-.39-.17,.41-.66,.76,.37,1.42,.69,.45,1.53-.08,2.34-.49-.1,.68,.42,.86,.94,1.05,1.48-.08,2.75-.58,4.06-1.2,.42,.92,.92,1.84,1.5,2.77-1.33,.68-2.17,1.66-2.61,2.78v4.11l.84,1.38-.08,1.42-.84,1.37c-.04,.56-.08,1.12-.1,1.69,0,.09-.17,.15-.17,.24-.17,4.21,0,8.71,.08,13.07,0,.09,.23,.15,.24,.24,0,.39,.01,.79,.02,1.18-1.27,.57-2.14,1.94-3.19,2.95,3.03,2.71,10.45,5.17,17.74-.59-.65-1.28-1.81-1.97-3.17-2.55,0-.54,.02-1.08,.03-1.63,0-.1,.22-.11,.22-.22,.01-.59-.01-1.3,0-1.89,0-.08-.17-.11-.17-.19,.05-2.03,.11-4.05,.13-5.92,0-.13,.27-.32,.27-.46,0-.94-.08-2.12-.08-3.07,0-.09-.18-.22-.19-.32-.01-1.11-.04-1.92-.08-3.05l-.83-1.15-.15-1.59,.96-1.32,.08-3.32c-.42-1.39-1.48-2.35-2.56-3.25,.72-1.15,1.25-2.3,1.65-3.44,1.1,.5,2.4,.84,3.79,.98,.65,.06,1.16,.59,1.67,1.15l1.91,.93s.01,.03,.02,.05v-.05l.22,.12c-.51-1.53-.35-3.22-.76-4.81-.52-.62-1.1-1.13-1.7-1.57,.82-.15,1.08-.23,1.42-.56,.04-.54,.39-1.02-.27-1.67,.43,.32,1.05,.06,1.74-.37,.54-.89,.09-1.45-.08-2.11,.45-.1,.92-.19,1.25-.66,.21-.69,.05-1.3-.37-1.85,.66-.06,1.32-.18,1.97-.74,.11-.61,.7-1.23-.47-1.84,.85-.59,1.79-1.05,2.48-1.84,.63-.82,.53-1.64-.12-2.46-4.06,.95-7.88,2.61-11.72,4.2-.01-.31-.03-.62-.03-.93-.26-.43-.55-.82-.84-1.15,.66-2.25,1.79-2.17-.89-8.95-1.36,2.33-2.03,4.48-1.92,7.15-.62-.22-1.3-.39-2.04-.54-.29-.03-.57,0-.86,0,.21-1.73,.22-3.68-1.15-7.35h0Zm-.02,.91c1.17,3.27,.95,7.32,.62,10.5l.13-.02c.23-1.46,.21-2.57,.37-3.76,.29-.03,.58-.04,.86-.03,2.17,.17,4.46,1.31,5.38,3.42-.03,.36-.06,.71-.07,1.06-.27-.26-.41-.2-.91-.15-1.03,.18-1.03,.82-1.1,1.74-.03,1.24,.19,2.05,1.08,2.93,.62,.33,.69,.09,1.18-.22,.06,.73,.1,1.48,.1,2.24-1.21-.65-2.71-.11-3.78,.59-.34,0-.65,.12-.96,.22-1.15,.76-1.81,1.85-2.04,3.17,.25,1.99,2.61,1.44,4.05,1.1,.45,.38,.98,.73,1.58,1.03-.44,1.15-1.02,2.39-1.82,3.74,1.09,.6,1.93,1.43,2.48,2.48-.36,.58-.7,.9-1.08,.34-.31-1.32-1.3-2.09-2.39-2.78,.94,.69,1.54,1.85,1.89,3.04-.69,.33-1.45,.55-2.18,.66-.06-.61-.45-1.13-.73-1.65l-.02,.03c.16,.56,.38,1.11,.24,1.67-.53,.13-1.09,.17-1.64-.12l-.29-1.69-.03,.02-.25,1.6c-1.43,.15-2.79-.48-4.22-.84,.55-1.47,1.43-2.41,2.73-2.77-.66-.98-1.21-1.98-1.67-2.97,.55-.26,1.19-.59,1.77-.86,.71-.82,.41-.98-.42-1.43,.72-.6,.29-1.33-.25-1.72,.8-.61,.66-1.23,.39-2.01,1.12-.75,.76-1.67,.37-2.77,.89-1.26,.88-2.21,.39-3.56l-.02,.03-.03-.08-3.83,1.16c.11-1.03,.27-2.08,.47-3.15,.26-.96,.82-1.69,1.53-2.24-.01,.58-.02,1.17,0,1.75l.03-.05c-.04-3.37,.8-6.89,2.06-9.66h0Zm5.94,.56c1.11,2.87,1.48,5.07,.73,7.99-.67-.68-1.44-1.13-2.31-1.47-.22-2.49,.46-4.18,1.58-6.53Zm-6.02,.67c-.69,2.54-1.27,3.33-1.11,6.22h.05c-.11-2.63,.49-2.75,.96-4.89,.44,2.52,.54,3.78,.42,6.24l.02-.03c.28-2.92,.57-2.57-.34-7.54Zm19.19,5.94c1.13,1.39-.9,2.58-2.02,3.25l-9.07,3.19-.13,.17c-.04-.84-.07-1.69-.1-2.51,3.64-1.51,7.33-3.43,11.33-4.1Zm-2.26,3.88c.67,.54,1.07,1.1,.32,1.52-.37,.53-1.38,.54-1.97,.84l-6.91,2.01,.05,.12,7.1-1.77c.24,.38,.41,.78,.1,1.25-.25,.54-.66,.62-1.15,.81l-5.08,1.42-.02,.1,5.23-1.2c.15,.6,.23,1.2-.12,1.7-.53,.34-1.02,.68-1.86,.51l-2.29,.62-.03,.08,2.58-.37c.23,.3,.45,.61,.15,1.18-.35,.26-.48,.6-1.28,.69-.35-.24-.71-.45-1.08-.64-.81-.71-1.65-1.48-2.68-2.06,.06-1.34,.04-2.65-.02-3.95,0,0,8.95-2.87,8.95-2.87Zm-10.22,.17c.29-.06,.43,.12,.67,.25,0,.28,0,.55,.02,.83-.61-.64-.59-.44-1.21,.05-.43,.66-.36,.99-.05,1.65,.61,.63,.73,.5,1.35,0,.01-.02,.02-.03,.03-.05,.04,.46,.06,.92,.1,1.38-.39,.33-.67,.26-1.11,.2-.75-.74-.79-1.79-.83-2.8-.03-.78,.24-1.1,.89-1.47,.05-.02,.09-.04,.13-.05Zm-3.51,.08c-1.47,.27-1.55,1.44-1.67,2.73,.05,1.39,.18,2.22,1.59,2.6,1.46-.27,1.5-1.42,1.62-2.7-.05-1.37-.15-2.25-1.53-2.63Zm-.03,.2c1.07,.32,1.22,1.44,1.32,2.43-.03,1.09-.31,2.01-1.32,2.45-1.09-.32-1.23-1.44-1.33-2.45,.03-1.1,.32-2,1.33-2.43Zm3.61,.74c.12,0,.19,.14,.42,.2,.32,.51,.19,.89,0,1.4-.39,.37-.35,.1-.73,0-.32-.51-.19-.89,0-1.4,.15-.14,.23-.2,.3-.2Zm-6.95,.08c.29,1.19,.4,2.39-.51,3.47,.23,.85,.82,1.62-.34,2.77,0,.66,.48,1.28-.34,1.99,.19,.54,1.04,.65,.22,1.75,.96,.45,.94,.63,.47,1.35-1.97,1.2-4,1.23-5.97,1.75-.48-.07-.74-.35-.83-.76l3.15-1.64-.12-.08-3.39,1.38,.03,.07c-.66,.25-1.42,.67-2.04,.46-.33-.32-.31-.68-.25-1.03l5.65-2.11,.05-.08-5.87,1.79v.02c-.73,.28-1.53,.72-2.24,.42-.49-.49-.32-1.04-.19-1.57l9.78-3.3v-.15l-9.91,3v.02c-.6,.13-1.18,.38-1.67,.05-.64-.31-.41-.96-.27-1.52l12.43-3.84-.03-.13-12.55,3.54-1.87-.25c-1.38-.7-.78-1.48-.34-2.06,5.7-1.45,11.35-2.91,16.93-5.29Zm3.32,.59c-.12-.02-.24,.11-.56,.35-.43,.66-.45,1.23-.13,1.89,.61,.63,.73,.36,1.35-.13,.43-.66,.21-.94-.1-1.6-.3-.32-.43-.49-.56-.51Zm-.08,.47c.67-.03,.66,.83,.4,1.48-.39,.37-.35,.1-.73,0-.32-.51-.19-.91,0-1.42,.12-.04,.23-.06,.32-.07Zm3.25,4.3c1.48-.14,2.45,.79,3.39,1.8-.6-.24-1.2-.42-1.79-.56-.43-.26-1.73-.08-2.45-.07,3.09-.04,5.67,1.7,7.84,3.81,.36,1.04,.5,2.26,.67,3.37-.59-1.32-2.11-2.14-3.2-2.7-1.28-.65-2.8-1.06-3.51-2.14-1.02-1.11-2.19-1.24-3.36-.37l.12,.05c.94-.45,2.19-.17,2.97,.51,.83,1.27,2.53,1.56,3.78,2.19,1.07,.54,2.69,1.58,3.27,2.83,.02,.1,.03,.19,.05,.29-.09-.04-.57-.21-.67-.29-.22-.17-.57-.19-.83-.47-.51-.56-.99-1.47-1.89-1.55-2.13,.02-3.93-.68-5.78-1.74-1.35,.44-2.72,.37-3.44-.96,.11-1.18,.82-2.22,1.69-2.93,.74-.61,1.4-.17,2.18,.08,.01,0-.05-.07-.03-.07-.4-.28-.77-.43-1.18-.46,.86-.39,1.57-.59,2.18-.64Zm1.11,12.76c.03,.06,.06,.12,.08,.19l.07,3.09-.07,.1c-4.51,1.35-7.75,.74-11.03,.2l.05-3.52c1.22,.61,2.88,1.2,4.57,1.13,.79,.39,1.59,.22,2.31,.1,1.22,.12,2.29-.23,2.56-.83,.57,.38,1.06-.07,1.45-.46Zm-.24,3.81l-.69,1.03c-2.34,.69-5.27,1.09-9.14,.29l-.84-1.25c3.38,.51,6.82,.85,10.67-.07Zm-.67,1.28l.07,1.42c-2.37,.75-5.38,1.08-9.34,.19l.1-1.43c3.7,1.2,6.55,.86,9.17-.17Zm.17,1.57l.69,.98c0,.06,.01,.11,.02,.17-3.51,1.67-7.35,1.33-10.94,.37,0-.02,0-.03,0-.05l.73-1.2c3.86,1.47,7.02,.68,9.51-.27Zm.73,1.33c.09,.93,.16,1.8,.2,2.73-.63-.08-1.13,.02-1.65,.17-.35,.37-.47,1.03-.47,1.58-.12,.43,.03,.79,.57,1.4l1.57,.49c0,2-.08,4.01-.13,6l-1.5,.91-.05,.69-.12,.1,1.62,.62c-.01,.56-.03,1.1-.03,1.66-1.72,1.29-3.83,2.04-5.53,2.02-1.68-.02-3.71-.79-5.43-1.71h-.02c0-.44-.01-.87-.02-1.32,1.26,.62,1.99,2.25,8.28-1.26l-.08-.57c-2.26-.72-4.51,.09-6.76-2.38,.03-.83,0-1.64-.03-2.36-.03-.92,.24-1.82,1.7-2.88,1.28,.08,2.17-.37,4.1,.61,.73-.37,1.09-.87,1.33-1.6,0-.25-.07-.5-.22-.73-.05-.48-.12-.91-.86-1.15-2.45,0-5.07-.49-7.55-1.21,.03-.49,.07-.98,.12-1.47,3.57,1.31,7.29,1.77,10.98-.35Zm-11.11,1.96c2.31,.65,4.61,1.13,7.34,1.26,.49-.14,.75,.28,.96,.78-.19-.23-.43-.44-.74-.64-2.57-.11-5.1-.44-7.57-1.2,0-.07,.01-.13,.02-.2Zm-.13,.29c2.09,1.31,5.07,1.17,7.59,1.4,.59,.4,1,.96,.99,1.25,0,.27-.61,.88-1.18,1.26-1.55-.76-2.94-.65-4.22-.51-1.34,.76-1.59,1.66-1.8,3.14,.04,1.07,.15,2.06,.02,2.99,.62,1.05,1.94,1.51,3.1,1.87,.84,.22,2.55,.21,3.36,.41-1.88,1.47-5,2.64-7.6,1.13-.15-.11-.23-.17-.25-.27-.08-4.15-.35-8.36-.12-12.56,0-.04,.06-.07,.12-.1h0Zm10.76,.64c.24,0,.47,.02,.71,.02,0,.03,0,.06,0,.08l-1.48,.4c-.21,.28-.37,.52-.49,.73,.08-.4,.21-.83,.46-.98,.28-.2,.55-.25,.81-.25Zm.74,.2c.06,.03,.17,0,.17,.07,.02,.8,.04,1.74,.02,2.65,0,.07-.16,.17-.2,.25l-1.47-.47c-.77-.72-.46-1.16,.03-1.96l1.45-.54Zm-9.83,8.42c1.98,1.94,4.34,1.57,6.53,2.24l.05,.25c-1.19-.37-2.53-.33-3.74-.6-1.02-.26-2.09-.85-2.85-1.66,0-.08,.01-.16,.02-.23Zm9.66,1.03s0,.02,0,.03l-1.31,1.2-.07-.37,1.38-.86Zm.03,.24c.05,.04,.15,.09,.15,.15-.01,.45-.07,.87-.08,1.32,0,.05-.04,.11-.08,.18l-1.18-.39,1.2-1.26Zm.03,3.79c1.27,.38,2.2,1.17,2.83,2.35-4.07,3.62-11.94,4.65-17.13,.6,1.01-.94,1.9-2.34,3.1-2.6,1.77,.94,3.74,1.61,5.53,1.63,1.84,.02,3.84-.59,5.67-1.99Z"/>
    </g>
  </g>
</svg>