<?xml version="1.0" encoding="UTF-8"?>
<svg id="Layer_2" data-name="Layer 2" xmlns="http://www.w3.org/2000/svg" viewBox="0 0 94.02 74.52">
  <defs>
    <style>
      .cls-1 {
        fill: #4a2412;
        fill-rule: evenodd;
      }
    </style>
  </defs>
  <g id="Layer_2-2" data-name="Layer 2">
    <g id="layer1">
      <path id="path2308" class="cls-1" d="M51.43,0L26.54,1.81,1.65,19.8l-.09,23.38,.05,.05-1.39,.31-.21,7.11,8.01,5.86,2.66,1.95,1.58-.42-.05,1.41,8.01,5.86,2.66,1.95,7.14-1.95v-1.62l10.29,7.44c-.08,.29-.09,.6,.09,.94,.18,.02,.33,.22,.52,.23,.05,.24,.05,.47,.07,.71,.48,1.24,1.91,1.29,3.08,1.46,2.46,.22,4.61-.47,6.69-1.72l.35-.29c.08-.28,.16-.56,.24-.84,.25-.11,.17-.03,.42-.17,.08-.35,.24-.81,.24-1.25,.66,.54,1.67,.6,2.54,.73,2.35,.14,4.71-.28,6.59-1.67,.03-.02,.07-.02,.09-.05l.35-.28c.08-.28,.16-.57,.24-.85,.25-.11,.17-.03,.42-.16,.12-.52,.42-1.26,.09-1.81l-.14,.07c.06-.43,.1-.86,.14-1.3l20.27-7.89v.02c.48,1.24,1.91,1.29,3.08,1.46,2.36,.13,4.72-.28,6.59-1.67,.03-.02,.07-.03,.1-.05l.35-.28c.08-.28,.16-.56,.23-.85,.25-.11,.17-.03,.42-.17,.12-.52,.41-1.26,.1-1.81-.04,.02-.11,.05-.14,.07,.14-.93,.23-1.89,.21-2.87,.11-.05,.2-.11,.31-.16,.29-.73,.16-1.12-.26-1.6-.06,.03-.13,.04-.19,.07-.07-.61-.16-1.22-.3-1.84l-.02,.02c-.02-.22-.08-.45-.24-.73-.04-.02-.08-.05-.11-.07l-.08-11.63,.05-.02-.05-.07-.02-4.85-1.11-1.91-2.58-.78-.69-1.51-2.35-.71-.52-1.08-1.88-.66,.26-.87-2.4-.68,.14-.92-2.47-.78-.14-1.13-2.8-1.01,.14-.85-2.19-.64,.26-.99-2.5-.64-.05-1.06-2.35-.71,.85-.75-3.37-1.06,.45-.71-2.76-.97,.31-.73-2.4-.8,.33-.73-1.93-.45-.05-.89-2.78-1.15,.12-.64-2.24-.9,.07-.59-2.19-.97,.31-.73-2.68-1.01h0Zm-.26,.42l2.26,.64-.66,.54L29.15,3.7l-1.91-1.37L51.17,.42Zm2.07,1.51l1.93,.78-.24,.47-23.64,2.07-1.77-1.27S53.24,1.93,53.24,1.93Zm-26.61,.45l1.95,1.44L4.52,21.03l-1.55,.09-.14-1.32S26.63,2.38,26.63,2.38Zm28.75,1.11l2.19,.87-.31,.52-23.6,2.1-2-1.44s23.71-2.05,23.71-2.05Zm-26.42,.59l1.86,1.39L6.78,22.68l-1.46,.07-.38-1.41L28.96,4.07h0Zm28.75,1.13l2.4,.87-.47,.52-23.59,2.1-1.98-1.44s23.64-2.05,23.64-2.05Zm-26.52,.52l1.91,1.41L9.07,24.33l-1.65,.28-.21-1.65S31.2,5.72,31.2,5.72Zm28.89,1.2l2,.52-.57,.52-23.57,2.1-1.53-1.08,23.67-2.05Zm-26.61,.49l1.88,1.39L11.37,26l-1.58,.19-.57-1.41S33.48,7.42,33.48,7.42Zm28.47,.87l2.24,.68-.45,.61-23.88,1.81-.02,.02-1.51-1.08,23.62-2.05Zm-26.21,.8l1.67,1.22L13.42,27.46l-1.23,.26-.4-1.41S35.75,9.09,35.75,9.09Zm28.4,.78l2.61,.8-.8,.52-23.88,1.86-1.81-1.32,23.88-1.86Zm-26.35,.71l1.6,1.18L15.64,29.06l-1.72,.14-.07-1.41S37.79,10.57,37.79,10.57Zm28.61,.94l2.8,.89-.8,.57-24.11,1.67-1.86-1.34,23.97-1.79Zm-26.73,.45l1.77,1.3L17.78,30.64l-1.41,.09-.33-1.37L39.68,11.96Zm29.18,1.34l2.61,.57-.78,.78-24.07,1.67-1.95-1.39,24.18-1.63Zm-27.15,.14l2,1.46-23.5,17.5-1.58,.09-.45-1.58L41.7,13.45Zm29.46,1.55l2.59,.61-.87,.64-24.07,1.67-1.91-1.39,24.25-1.53h0Zm-27.17,.12l2,1.48-23.34,17.57-1.34,.05-.71-1.53S43.99,15.12,43.99,15.12Zm29.18,1.34l2.54,.78-.72,.54-24.02,1.67-1.77-1.27s23.97-1.72,23.97-1.72Zm-26.94,.31l1.88,1.39-23.22,17.57-1.34,.26-.47-1.51s23.15-17.71,23.15-17.71Zm29.22,1.34l2.89,1.04-.57,.66-24.53,1.29-1.91-1.37,24.11-1.62Zm-27.03,.28l1.88,1.37-23.15,17.57-1.58,.4-.31-1.67s23.15-17.66,23.15-17.66Zm2.26,1.65l1.81,1.32-22.79,17.9-1.65,.07-.54-1.65s23.17-17.64,23.17-17.64Zm27.53,.07l2.71,.89-.66,.61-24.71,1.15-2-1.44s24.66-1.22,24.66-1.22Zm-76.02,.19l.4,1.13,1.62,.33,.71,1.27,1.62,.4,.61,1.37,1.44,.09,.8,1.6,1.77,.24,.59,1.34,1.3,.02,.49,1.46,1.81,.19,.52,1.25,1.65,.31,.73,1.48,1.65,.24,.92,1.53,1.62,.28,.54,1.34,1.62,.21,.54,1.48,1.79,.21,.78,1.46,1.86,.42,.54,1.34,1.7,.26,.78,1.58,1.74,.24,.52,1.37,1.84,.31,1.01,1.72,2.03,.45,.85,1.72,1.95,.31v1.34L2.19,21.62v-1.32s0,0,0,0Zm50.58,1.27l2.03,1.48-22.79,17.87-1.48,.12-.42-1.51s22.68-17.97,22.68-17.97Zm-50.58,.14l40.34,29.01-.02,1.46-7.44-5.35v-.73l-5.06-3.46v.54l-6.69-4.78v-1.06l-4.99-3.51-.02,.97-7.18-5.16v-.92l-5.13-3.58v.8l-3.81-2.73,.02-1.51h0Zm78.53,.24l2.52,.59-.63,.8-24.84,1.04-1.91-1.39s24.87-1.04,24.87-1.04ZM2.17,23.31l3.79,2.73v1.48l-3.79-2.73v-1.48Zm52.98,0l1.74,1.27-22.42,18.13-1.62,.14-.45-1.62s22.75-17.92,22.75-17.92Zm27.88,.33l1.96,.61,.05,.82-24.94,.97-2.19-1.58s25.12-.82,25.12-.82Zm-25.85,1.15l2.07,1.53-22.3,18.18-1.65-.07-.4-1.41,22.28-18.23Zm-55.01,.09l3.79,2.73-.02,1.58-3.79-2.71,.02-1.6Zm83.22,.47l2.45,.66,.07,1.18-25.69,.4-1.84-1.34,25.01-.9Zm-78.99,.5l4.26,3.01-.02,6.29-4.33-3.27s.09-6.03,.09-6.03Zm53.1,.66l1.95,1.44-21.64,18.63-1.79-.12-.71-1.67,22.18-18.27Zm-57.36,.05l3.79,2.71-.02,1.58-3.77-2.71s0-1.58,0-1.58Zm4.71,.21l.02,4.73,3.13,2.28,.02-4.83-3.18-2.19Zm.38,.8l.38,.24,1.04,2.14,.92-.87,.19,.12-.02,.4-.89,.8,.78,2.17-.02,.38-.35-.28-.71-2.14-1.11,.8-.07-.05v-.26l1.13-.87-1.22-2.14-.02-.42Zm81.24,.02l2.49,.68-.32,.89-26.78-.4-1.34-.97s25.95-.21,25.95-.21Zm-80.58,.4l1.46,.94-.68,.66-.78-1.6Zm53.78,.12l1.65,1.2-20.75,19.26-1.7-.05-.45-1.51s21.24-18.91,21.24-18.91Zm-59.53,.17l3.77,2.71-.02,1.18,5.18,3.77v-1.25l7.18,5.13-.02,1.04,5.11,3.63v-.99l6.59,4.76-.02,1.41,5.11,3.7v-1.48l7.46,5.37v1.7L2.11,29.95s.02-1.67,.02-1.67Zm5.11,0l.9,1.7-.82,.66-.07-2.35Zm57.15,1.2l2.33,.02,3.86,8.62-.89,1.6-1.51-.66s-3.79-9.58-3.79-9.58Zm-.31,.02l3.7,9.7-1.39,1.65-1.77-.42-2.78-8.81,2.24-2.12Zm3.08,.02l3.56,.05,3.23,7.25-1.08,1.77-1.88-.61-3.82-8.45Zm4,.05l3.01,.02,2.59,6.12-.87,1.41-1.62-.45-3.11-7.11Zm3.39,.05l2.43,.02,2.38,5.09-.87,1.6-1.39-.73s-2.55-5.98-2.55-5.98Zm2.97,.02l2.76,.05,1.97,3.91-.8,1.55-1.76-.57-2.17-4.94h0Zm3.3,.05l2.52,.02,1.39,2.92c-.4,.11-.41,1.28-.63,1.39l-1.34-.61-1.93-3.72Zm2.98,.05l2.34,.02,1.01,1.95-.73,1.18-1.18-.45s-1.44-2.71-1.44-2.71Zm-72.71,.02l7.18,5.16v1.48l-7.21-5.16,.02-1.48Zm75.43,0l2.56,.02,.43,1.01-.64,1.44-1.34-.68s-1.01-1.79-1.01-1.79Zm3.01,.05l2.47,.02-.96,1.32-1.13-.52-.38-.82Zm-79.83,.09l-.12,2.38-.52-1.84,.64-.54Zm-7.61,.14l40.36,29.01-.02,1.63-18.06-12.95v-.66l-2.61-2.02,.12-.28-2.12-1.41-.24,.09-2.52-1.81,.07-.19-1.91-1.34-.38-.05-1.01-.73-.82,.19L2.09,31.7l.02-1.65h0Zm89.97,.33v1.11l-19.17,7.49,1.41-1.74,1.55,.42,1.21-1.48,1.48,.47,1.13-1.48,1.83,.38,1.06-1.51,1.65,.33,.9-1.3,1.45,.28,.87-1.18,1.55,.47,.9-1.41,1.27,.38,.89-1.22h0Zm-83.67,.61l.47,1.44-1.25-.94s.78-.5,.78-.5Zm2.66,.35l7.18,5.16v1.58l-7.18-5.18v-1.55Zm81.01,.31l.02,1.53-46.53,18.13-1.39-.99s47.89-18.67,47.89-18.67Zm-89.99,.17l10.76,7.72-1.6,.38-9.16-6.59v-1.51s0,0,0,0Zm59.51,.05l2.66,8.71-1.04,1.53-1.67-.47-2.21-7.65,2.26-2.12Zm-50.51,1.13l7.18,5.18-.02,1.53-7.18-5.13s.02-1.58,.02-1.58Zm81.03,.35v1.67l-44.85,17.47-1.51-1.06,46.36-18.08Zm-90.02,.07l9.07,6.52-1.86,.42-7.21-5.18-.02,.02,.02-1.79h0Zm56.94,.85l2.17,7.51-1.15,1.6-1.65-.52-1.32-6.76s1.95-1.84,1.95-1.84Zm-40.29,.28l4.19,2.83-.09,6.33-4.19-3.13,.09-6.03Zm73.37,.59v1.41l-43.42,16.95-1.3-.92s44.71-17.45,44.71-17.45Zm-90.05,.14l7.11,5.11-.05,.02-1.79,.4-5.25-3.77-.02,.05v-1.81Zm17.12,.19l.02,4.73,3.13,2.28,.02-4.83s-3.18-2.19-3.18-2.19Zm.38,.8l.38,.24,1.04,2.14,.92-.87,.19,.12-.02,.4-.89,.8,.78,2.17-.02,.38-.35-.28-.71-2.14-1.11,.8-.07-.05v-.26l1.13-.87-1.22-2.14-.02-.42Zm37.21,.12l1.25,6.62-.68,1.27-1.32-.49c-.35-1.94-.67-3.88-.92-5.84l1.67-1.55Zm-36.55,.31l1.46,.94-.68,.66-.78-1.6Zm71.89,0v1.6l-41.86,16.32-1.46-1.04s43.32-16.88,43.32-16.88Zm-72.52,.28l.89,1.7-.82,.66-.07-2.35Zm-17.52,.19l5.11,3.7-.35,.07-.02,1.11-.21,.05-4.54-3.27,.02-1.65Zm52.68,1.08c.18,1.89,.52,3.83,.85,5.7l-1.13,1.65-1.84-.52-.38-4.47s2.5-2.35,2.5-2.35Zm37.37,.19l.03,1.65-11.71,4.57v-.99l-19.26,7.65v.85l-9.28,3.6-1.51-1.06,41.72-16.27Zm-21.1,.07l1.86,.49-28.8,11.26-1.08-.78v-.14l2.33,.07,1.93-1.72,1.22,.49,1.18-1.41,1.6,.57,1.27-1.7,2.05,.45,1.37-1.77,1.58,.57,.87-1.51,1.72,.28,1.37-1.46,1.81,.33,1.27-1.53,2.05,.31,1.48-1.67,1.6,.52s1.32-1.65,1.32-1.65Zm-47.71,.05l6.69,4.8-.02,1.44-6.66-4.78s0-1.46,0-1.46Zm-1.25,.05l-.12,2.38-.52-1.84s.64-.54,.64-.54Zm-20.02,.31l4.43,3.2-1.88,.45-2.54-1.84v-1.81Zm11.68,.78l.87,.59-.68,.19-.82-.61,.64-.17Zm7.04,0l.47,1.44-1.25-.94s.78-.5,.78-.5Zm-7.77,.19l.8,.61-.97,.24-.82-.61,.99-.24Zm10.31,.24l6.66,4.8-.02,1.55-6.62-4.76s-.02-1.6-.02-1.6Zm-11.4,.02l.82,.61-1.13,.28-.82-.61,1.13-.28Zm80.23,.09v1.58l-11.71,4.57v-1.58l11.71-4.57Zm-76.94,.17l1.63,1.22-6.76,2.05-1.88-1.37s7.02-1.91,7.02-1.91Zm-4.52,.05l.82,.64-1.13,.28-.82-.64s1.13-.28,1.13-.28Zm-1.27,.33l.82,.61-1.25,.33-.85-.61s1.27-.33,1.27-.33Zm-7.37,.07l2.4,1.74-1.72,.4-.71-.52s.02-1.62,.02-1.62Zm49.76,.16l.45,4.24-1.01,1.51-1.44-.57-.28-3.04,2.28-2.14Zm-43.78,.12l.82,.64-.78,.19-.73-.66,.68-.17Zm-.89,.64l.71,.52v.92l-.73-.52,.02-.92Zm16.2,.05l6.62,4.76-.02,1.58-6.59-4.76s0-1.58,0-1.58Zm-6.62,.12l2.24,1.67-.59,.14-2.24-1.65,.59-.17Zm75.43,.02v1.55l-11.73,4.57,.02-1.55,11.71-4.57Zm-76.16,.19l2.21,1.65-.92,.21-2.19-1.6,.9-.26Zm-9.21,.24v.33l-.31-.24,.31-.09Zm8.17,.07l2.14,1.6-1.06,.26-2.12-1.58,1.04-.28Zm-8.57,.05l.4,.31-.02,.4-.54,.14-.82-.61s.99-.24,.99-.24Zm-4.36,.05l.64,.47-.14,.02-.14,.02-.35-.24v-.28Zm3.27,.21l.82,.61-1.13,.28-.82-.61s1.13-.28,1.13-.28Zm2.87,0l1.58,1.13-.14,5.89-1.53-1.01,.09-6Zm-1.06,.02l.73,.57-.02,1.11-.73-.57,.02-1.11Zm6.64,0l2.1,1.58-1.06,.26-2.07-1.53s1.04-.31,1.04-.31Zm-9.68,.28l.82,.64-1.13,.28-.82-.64s1.13-.28,1.13-.28Zm8.48,.07l2.05,1.53-1.25,.31-2-1.48s1.2-.35,1.2-.35Zm17.87,.24l4.19,2.83-.02,6.41-4.26-3.2,.09-6.03Zm-27.62,.02l.82,.61-1.25,.33-.85-.61,1.27-.33Zm46.37,.09l.21,2.87-1.06,1.44-.99-.64-.19-1.77s2.02-1.91,2.02-1.91Zm-42.41,.02l-.07,1.81-3.23,.97-1.88-1.37,5.18-1.41Zm4.45,0l1.98,1.48-.64,.16-1.98-1.46s.64-.19,.64-.19Zm8.52,.07l1.79,1.22-6.9,2.19-1.74-1.34,6.85-2.07Zm72.41,.05l.02,1.74-1.39,.54c-.09-.01-.19-.04-.28-.05-.05,0-.16,.14-.21,.14-.06,0-.06-.16-.12-.17-.18-.01-.36-.02-.54-.02-.07,0-.18,.24-.26,.24-.07,0-.1-.24-.17-.24-.2,0-.39,.02-.59,.02-.05,0-.09,.23-.14,.24-.05,0-.1-.21-.14-.21-.19,.01-.37,.02-.57,.05-.06,0-.12,.25-.19,.26-.05,0-.13-.22-.19-.21-.19,.03-.38,.08-.57,.12-.05,.01-.07,.2-.11,.21-.05,.01-.14-.15-.19-.14-.19,.05-.37,.1-.54,.17-.05,.02-.05,.22-.1,.24-.05,.02-.12-.16-.17-.14-.2,.08-.41,.16-.61,.26-.06,.03-.11,.3-.17,.33-.06,.03-.13-.15-.19-.12-.25,.15-.5,.31-.72,.49-.05,.03-.04,.27-.08,.31-.05,.06-.15-.08-.21-.02-.26,.25-.5,.51-.71,.82-.03,.15-.08,.33-.11,.49l-2.5,.97v-1.72l11.73-4.59h0Zm-90.73,.12l.82,.64-.78,.19-.73-.66,.68-.16Zm5.65,.26l.75,.57v1.3l-.78-.57,.02-1.3Zm3.18,.07l2.24,1.65v.92l-2.28-1.65,.05-.92Zm69.77,.19l-.05,13.38-.52,.19v-12.46l-17.21,7.02v9.07c-.07-.54-.15-1.09-.28-1.65l-.02,.02c-.02-.22-.07-.45-.24-.73-.06-.03-.11-.06-.17-.09l-.07-7.32s18.55-7.42,18.55-7.42Zm-49.14,.02l.02,4.73,3.13,2.28,.02-4.83s-3.18-2.19-3.18-2.19Zm-30.35,.09l.71,.52v.92l-.73-.52,.02-.92Zm30.73,.71l.38,.24,1.04,2.14,.92-.87,.19,.12-.02,.4-.89,.8,.78,2.17-.02,.38-.35-.28-.71-2.14-1.11,.8-.07-.05v-.26l1.13-.87-1.22-2.14-.02-.42Zm-21.05,.05l2.28,1.7-.02,1.04-2.31-1.7,.05-1.04Zm10.95,.12l2.12,1.58-.52,.14-2.12-1.55s.52-.16,.52-.16Zm-19.59,.12l1.58,1.13-.14,5.89-1.53-1.01s.09-6,.09-6Zm-1.06,.02l.73,.57-.02,1.11-.73-.57,.02-1.11Zm6.55,.02l.78,.59-.02,1.32-.8-.59,.05-1.32Zm13.38,.07l2.1,1.55-.8,.24-2.1-1.55s.8-.24,.8-.24Zm71.75,0v.8s-.02,0-.02,0c-.04-.01-.08,.25-.12,.24-.04-.02-.05-.29-.09-.31-.2-.07-.38-.14-.57-.19-.05-.01-.11,.18-.16,.17-.05-.01-.09-.23-.14-.24-.02,0-.05,0-.08,0,0,0,1.18-.47,1.18-.47Zm-85.48,.02l-.02,.61-.57-.42,.59-.19Zm25.22,0l1.46,.94-.68,.66s-.78-1.6-.78-1.6Zm14.86,.21l.12,1.6-1.53,1.7-1.58-.5,2.99-2.8Zm-40.83,.02l.73,.54-.02,1.23-1.91-1.41s1.2-.35,1.2-.35Zm13.49,.05l2.05,1.55-.94,.28-2.1-1.53s.99-.31,.99-.31Zm11.84,0l.89,1.7-.82,.66-.07-2.35Zm-18.46,.19l1.67,1.41-.26,5.93-1.46-1.13,.05-6.22Zm66.24,0v.57l-15.87,17.59-.38,.17-.02-.66,15.4-17.28s.87-.38,.87-.38Zm-74.46,.14l1.98,1.48-.64,.17-1.98-1.46s.64-.19,.64-.19Zm13.66,.02l2.05,1.55-.97,.28-2.05-1.53s.97-.31,.97-.31Zm-8.1,.19l2.31,1.74v1.2l-2.35-1.72s.05-1.22,.05-1.22Zm79.08,0s.03,0,.05,0l-.05,.64c-.23-.02-.46-.05-.68-.05v-.54c.23-.01,.45-.04,.68-.05Zm.17,0c.25,.01,.49,.03,.73,.07l-.1,.64c-.22-.03-.43-.05-.63-.07,0,0,0-.64,0-.64Zm-.99,.05l-.02,.54c-.25,0-.5,.02-.73,.05v-.54c.25-.02,.5-.03,.75-.05Zm-.9,.05l-.02,.54c-.22,.03-.43,.09-.64,.14l-.02-.59c.23-.04,.46-.07,.69-.09Zm2.76,0c.27,.05,.54,.13,.8,.21v.59c-.29-.06-.56-.1-.83-.14l.03-.66Zm-73.19,.09l2.03,1.53-1.11,.33-2.03-1.51,1.11-.35Zm69.61,.02l.05,.59c-.26,.06-.5,.14-.75,.24l-.02-.66c.23-.07,.48-.12,.73-.17Zm-86.23,.07l.75,.57v1.3l-.78-.57,.02-1.3Zm90.73,.05c.23,.08,.47,.18,.7,.28l-.02,.47c-.22-.06-.45-.12-.66-.16l-.02-.59Zm-87.55,.02l2.24,1.65v.92l-2.28-1.65s.05-.92,.05-.92Zm73.8,0l-2.73,3.08-4,1.46-.02-1.55s6.75-2.99,6.75-2.99Zm8.41,.07c0,.23-.04,.45-.05,.68-.24,.09-.49,.19-.73,.31v-.68c.25-.12,.5-.22,.78-.31Zm-78.83,.12l.8,.61v.85l-.82-.59,.02-.87Zm8.74,.07l2.03,1.51-.54,.16-2.03-1.51,.54-.16Zm19.33,.05l7.44,5.35v1.46l-7.46-5.34s.02-1.46,.02-1.46Zm56.94,0c.06,.03,.13,.06,.19,.09,.15,.2,.25,.35,.28,.49-.18-.06-.34-.09-.51-.14l.05-.45Zm-12.95,.17l-.02,1.01-1.32,.5,1.34-1.51Zm5.82,0v.68c-.26,.13-.53,.27-.8,.42l-.02-.54c.25-.23,.53-.41,.82-.57Zm-61.08,.09l.24,6.24-6.55,2.02,.02-6.5s6.29-1.77,6.29-1.77Zm64.22,.05c.45-.02,.91-.01,1.36,.02,1.05,.09,2.06,.31,3.08,.57-.04,.12-.12,.25-.23,.35-.02,.02,0,.31-.02,.33-.03,.02-.11-.24-.14-.21-.25,.23-.58,.35-.87,.5-.05,.02-.08,.24-.12,.26-.05,.02-.1-.18-.14-.16-.35,.13-.72,.25-1.09,.35-.03,.01,0,.2-.05,.21-.03,0-.13-.17-.17-.17-.31,.08-.61,.15-.92,.21-.04,0-.08,.18-.11,.19s-.08-.15-.12-.14c-.32,.05-.63,.1-.94,.12-.05,0-.09,.19-.14,.19s-.13-.19-.19-.19c-.32,0-.65-.01-.96-.05-.05,0-.09,.22-.14,.21-.05,0-.11-.25-.16-.26-.32-.05-.61-.11-.9-.21-.05-.02-.19,.21-.23,.19-.05-.02-.02-.31-.08-.33-.28-.12-.56-.27-.8-.45-.02-.02-.12,.13-.14,.12-.02-.02,.03-.21,0-.24,1.44-.94,2.84-1.34,4.22-1.41h0Zm-54.26,.12l-.12,2.38-.52-1.84s.64-.54,.64-.54Zm-18.86,.09l2.14,1.58v.92l-2.19-1.6s.05-.89,.05-.89Zm-4.78,.19l2.35,1.79-.02,1.27-2.38-1.79s.05-1.27,.05-1.27Zm-6.52,.05l2.28,1.7-.02,1.04-2.31-1.7,.05-1.04Zm80.34,.09l-.02,.52c-.11,.06-.2,.1-.31,.17-.05-.04-.1-.07-.14-.12,.15-.2,.31-.4,.47-.57Zm-59.53,.02l18.06,12.98v1.51l-18.06-12.98v-1.51Zm-23.97,.17l.78,.59-.02,1.32-.8-.59,.05-1.32Zm6.29,.09l1.81,1.32-.52,.17-1.74-1.34,.45-.14Zm16.51,.09l-4.87,1.37-.26,4.99,4.95-1.65s.19-4.71,.19-4.71Zm69.56,.02c.11,.38,.19,.76,.26,1.13-.2,.1-.42,.19-.63,.28-.02-.34-.05-.68-.09-1.01,.18-.12,.34-.26,.47-.4Zm-69.8,.12l-.02,.33-.31-.24s.33-.09,.33-.09Zm-.4,.12l.38,.33-.02,.85-1.34-.87,.99-.31Zm56.44,0l-.02,2.94-5.4,1.84,3.68-4.12s1.74-.66,1.74-.66Zm-46.58,.02l.47,1.44-1.25-.94s.78-.49,.78-.49Zm2.59,.05l7.46,5.37v1.55l-7.46-5.32v-1.6Zm-28.85,.05l1.67,1.41-.26,5.93-1.46-1.13,.05-6.22Zm8.64,.02l2.17,1.65v.97l-2.21-1.65s.05-.97,.05-.97Zm77.36,.09c.04,.33,.07,.66,.09,.99-.35,.15-.72,.33-1.1,.47-.02-.32-.04-.64-.05-.97,.13-.04,.26-.08,.38-.12,.25-.12,.48-.25,.69-.38Zm-70.76,.12l1.51,.94-.05,1.46-2.85-1.98,1.39-.42Zm-17.9,.12l2.31,1.74v1.2l-2.35-1.72,.05-1.22Zm79.87,.05c.05,.05,.11,.09,.17,.14-.06,.37-.12,.72-.17,1.06-.12-.05-.23-.09-.35-.14,.11-.35,.21-.71,.35-1.06Zm-.51,.12c-.07,.27-.13,.54-.2,.8-.1-.04-.2-.08-.3-.12-.15,.44-.32,.87-.33,1.37l-1.65,.64v-1.72s2.48-.97,2.48-.97Zm-72.86,.07l2.4,1.79v.73l-2.43-1.77,.02-.75Zm73.64,.05c.29,.25,.64,.43,1.01,.57-.04,.26-.05,.53-.07,.8-.35-.09-.71-.22-1.06-.35,.04-.34,.07-.68,.12-1.01Zm7.35,0c.02,.33,.03,.66,.05,.99-.37,.13-.76,.23-1.15,.33-.02-.33-.02-.66-.05-.99,.41-.11,.8-.22,1.16-.33Zm-71.09,.05l-.02,.05,2.99,2.05-.05,1.39-4.14-3.11s1.22-.38,1.22-.38Zm4.47,.19l18.06,12.98v.87s-.05,.03-.07,.05c-.04,.03-.03,.24-.07,.28-.06,.06-.15-.06-.21,0-.05,.05-.09,.11-.14,.16l-17.54-12.6s-.02-1.74-.02-1.74Zm-24.02,.02l.8,.61v.85l-.82-.59s.02-.87,.02-.87Zm92.87,.07c.38-.04,.77,.27,.35,.94-.76,.51-1.56,.89-2.4,1.15v-.02l-.1,.05c-3.18,.99-6.68,.44-8.71-.38-.19-.28-.04-.82,.17-1.01,2.68,.95,6.28,1.51,10.69-.73Zm-3.5,.02c.02,.33,.03,.66,.05,.99-.37,.09-.74,.15-1.13,.21v-.97c.37-.07,.73-.15,1.09-.24Zm-80.94,.07l2.05,1.51-.26,.07-2.03-1.51,.24-.07Zm9.75,.07l4.17,3.11-1.51,.42c-1.29-1.06-1.54-1.11-2.66-2.24,0,0,0-1.3,0-1.3Zm-3.77,.09l2.21,1.65-.02,1.2-2.24-1.67s.05-1.18,.05-1.18Zm70.01,.02c.38,.12,.79,.16,1.22,.19-.02,.27-.03,.55-.05,.82-.41-.05-.81-.13-1.23-.24,.02-.26,.02-.52,.05-.78Zm3.75,0v.97c-.35,.05-.72,.08-1.09,.09v-.9c.36-.04,.72-.1,1.09-.17Zm-45.48,.07s.06,0,.09,0c.04,0,.08,.03,.12,.07l11.35,8.24c.17,.13,.74,.6-.05,1.08l-.49-.35c.15-.18,.34-.31,.64-.47l-.12-.21c-.51,.05-.6,.3-.64,.59l-10.93-7.87c-.35-.5-.2-1.01,.02-1.08h0Zm26.94,.05v1.51l-4.4,1.62-1.93-.66s6.33-2.47,6.33-2.47Zm17.33,.07v.9c-.4,0-.81,0-1.22-.05,0-.28,.03-.55,.05-.82,.38,.02,.78,.01,1.18-.02Zm-79.08,.09l2.14,1.58v.92l-2.19-1.6,.05-.9Zm26.77,.12l7.46,5.35-.02,1.55-7.46-5.37s.02-1.53,.02-1.53Zm39.19,.02l-3.51,3.96-.02-2.61,3.54-1.34Zm-70.74,.05l2.35,1.79-.02,1.27-2.38-1.79,.05-1.27Zm89.72,.71c.04,1-.05,1.97-.26,2.92-.17,.08-.35,.14-.52,.21,.05-.94,.06-1.87,.05-2.8,.25-.11,.48-.21,.73-.33Zm-74.62,.16c.98,.9,1.35,1.24,2.45,2.12l-1.11,.31-1.34-1.18v-1.25Zm-3.84,.02l2.24,1.7-.02,1.22-2.28-1.7,.07-1.22Zm-6.52,.02l2.17,1.65v.97l-2.21-1.65s.05-.97,.05-.97Zm73.87,.07c0,.12,0,.24,.02,.38,.1,0,.2,.02,.29,.02-.04,.36-.04,.71-.05,1.06l-1.94,.75v-1.55l1.67-.66Zm-57.67,.02l17.47,12.55c-.17,.18-.35,.37-.5,.59-.04,.22-.11,.48-.16,.73l-16.81-12.08v-1.79Zm18.58,0l.89,.66-.92,.35,.02-1.01Zm49.36,.07c.02,.93,.02,1.87-.02,2.8-.36,.15-.74,.29-1.13,.42,.02-.93,0-1.87,0-2.8,.38-.12,.76-.26,1.15-.42Zm-81.01,.12l.78,.57-.4,.12-.26,4.99,.8-.26-.02,.75-1.39,.45,.02-6.5,.47-.12Zm71.32,.21c.2,.06,.41,.11,.62,.17-.05,1.09-.02,2.02,.05,2.9-.21-.07-.43-.15-.64-.24-.09-.95-.14-1.9-.02-2.83Zm-3.67,.05l-.02,2.19-4.95,1.74-2.07-.59,1.18-1.32,5.86-2.02Zm-75.59,.02l2.4,1.79v.73l-2.43-1.77s.02-.75,.02-.75Zm66.59,.07v2.61l-.12,.05-3.65-1.22,3.77-1.44Zm21.08,0s.02,0,.02,0c.02,.93,0,1.87-.02,2.8-.36,.12-.75,.23-1.13,.33,.02-.95,.02-1.89,0-2.85,.37-.08,.75-.17,1.13-.28Zm-7.68,.05c.35,.09,.72,.17,1.09,.24-.03,.98,.02,1.98,.07,2.99-.37-.08-.75-.17-1.13-.31-.05-.99-.07-1.97-.02-2.92Zm-39.35,.19l.28,.21v1.32l-1.34,.52-.02-.02v-1.6l1.08-.42Zm40.6,.07c.41,.07,.84,.15,1.27,.19-.02,.98,0,1.98,.02,2.99-.42-.04-.84-.1-1.27-.19-.04-1-.05-2-.02-2.99Zm-72.36,.02l.19,.14-.07,.02v.14l-.33-.24,.21-.07Zm77.54,0c.02,.95,.02,1.91,0,2.85-.38,.09-.78,.15-1.18,.21v-2.92c.39-.04,.78-.06,1.18-.14Zm-77.89,.14l.47,.35-.05,1.34c-.13-.12-.25-.23-.42-.4v-1.29Zm49.24,0v1.53l-7.72,3.01-1.39-.99s9.11-3.56,9.11-3.56Zm27.37,.02l.02,2.92c-.37,.05-.73,.08-1.11,.09v-2.94c.35,0,.72-.04,1.09-.07Zm-2.48,.02c.42,.04,.84,.05,1.27,.05l.02,2.97c-.42,.02-.86-.01-1.3-.05-.02-1-.02-1.99,0-2.97Zm-77.89,.05l2.21,1.65-.02,1.2-2.24-1.67,.05-1.18Zm6.5,.19l2.28,1.74v.59l-2.31-1.67s.02-.66,.02-.66Zm3.91,0l1.2,1.04-1.2,.33v-1.37Zm26.19,0l8.71,6.38-.42,4.9-8.29-5.96s0-5.32,0-5.32Zm18.39,.05l6.92,2.26-.61,.71-6.81-2.33-.07-.49s.57-.14,.57-.14Zm-50.23,.05h.05l.85,.61-.17,.05-.73-.66Zm69.39,.16c0,.49,0,.98,.03,1.48v.02l-1.96,.75,.02-1.51,1.91-.75Zm-69.6,.31l.71,.52v.92l-.73-.52,.02-.92Zm11.7,.05l16.79,12.08c-.05,.2-.1,.4-.14,.59-.1-.04-.2-.08-.31-.12-.08,.22-.15,.45-.21,.68l-10.57-7.58v-.38l-2.61-2.02,.12-.28-2.12-1.41-.24,.09-1.15-.85,.45-.12v-.68Zm-10.22,.38l.42,.31,1.44,1.06-.4,.12-1.88-1.37,.42-.12Zm48.46,.12l.64,.21-.64,.24s0-.45,0-.45Zm-18.32,.05v1.44l-1.37,.52v-1.46l.05,.02s1.32-.52,1.32-.52Zm-32.38,.02c.17,.15,.28,.25,.4,.35l-.05,1.22-.35-.33v-1.25Zm-3.84,.02l2.24,1.7-.02,1.23-2.28-1.7,.07-1.23Zm37.79,.17l-.09,3.96,.64,.42,3.44-1.58s-3.98-2.8-3.98-2.8Zm15.26,.05l-.02,1.55-6.22,2.4s0-.05-.02-.07l-1.32-.94s7.58-2.94,7.58-2.94Zm32.17,.07c.05,.4,.2,.84-.26,1.32-3.23,1.17-6.5,2.25-10.88,.42-.11-.39-.2-1.14,.23-1.06,4.42,1.53,7.18,.52,10.9-.68Zm-79.59,.07l1.58,1.13-.14,5.89-1.53-1.01,.09-6Zm50.23,0l3.56,1.18-4.83,1.62-.05-2.31s1.32-.5,1.32-.5Zm-51.29,.02l.73,.57-.02,1.11-.73-.57,.02-1.11Zm10.74,0l1.11,.82-.59,.14-1.11-.82,.59-.14Zm55.53,.14l-.03,2.03-1.1,.42-3.18-.92,4.31-1.53Zm-56.26,.05l1.08,.82-.92,.21-1.08-.78,.92-.26Zm59.48,.21c-.26,.47-.47,.94-.17,1.51,.06,0,.13,.04,.19,.07l-1.82,.71v-1.58s1.79-.71,1.79-.71Zm-60.57,.09l1.06,.78-1.06,.26-1.01-.78s1.01-.26,1.01-.26Zm3.7,.31l1.79,1.22-6.9,2.19-1.74-1.34,6.85-2.07Zm-4.9,.02l1.01,.75-1.06,.26-.99-.73,1.04-.28Zm-4.19,.07l1.06,.78,.54-.14,.94,.68-.64,.17-1.98-1.46,.07-.02Zm-8.17,.14l2.28,1.74v.59l-2.31-1.67s.02-.66,.02-.66Zm3.91,0l.35,.31-.02,.99-.33,.07v-1.37Zm7.23,.12l.99,.73-1.25,.31-.94-.71,1.2-.33Zm25.13,0v1.58l-1.37,.54,.02-1.6s1.34-.52,1.34-.52Zm27.39,.05l7.23,2.17v.47l-.61,.24-7.44-1.95,.82-.92Zm-59.06,.02l.75,.57v1.29l-.78-.57,.02-1.29Zm3.18,.07l2.24,1.65v.92l-2.28-1.65,.05-.92Zm52.28,.05l1.11,.35-1.98,2.21-4.5,1.58-.02-2.28s5.39-1.86,5.39-1.86Zm-6.95,.19v1.72l-2.14,.85c-.18-.01-.36-.02-.54-.02-.07,0-.21,.24-.28,.24-.07,0-.07-.24-.14-.24-.2,0-.42,.02-.61,.02-.05,0-.09,.23-.14,.24-.05,0-.07-.24-.12-.24-.19,.01-.4,.05-.59,.07-.06,0-.13,.25-.19,.26-.06,0-.11-.22-.17-.21-.19,.03-.38,.08-.57,.12-.05,.01-.07,.2-.12,.21-.05,.01-.14-.16-.19-.14-.04,.01-.08,.04-.12,.05l-.05,.09c-.01-.21-.08-.43-.19-.64,0,0,6.15-2.38,6.15-2.38Zm31.18,.19s.02,0,.02,0c.05,.12,0,.22-.05,.31,0-.1,.02-.2,.02-.31Zm-.1,.05c0,.13-.02,.27-.02,.4-.12,.13-.26,.26-.35,.4-.23,.17-.48,.31-.73,.45,0-.3,.02-.6,.02-.89,.35-.11,.73-.22,1.09-.35Zm-9.94,.28c.08,.05,.15,.09,.24,.09,.02,.08,.02,.16,.02,.24l-2.17,.89v-.47l1.91-.75Zm8.76,.09c0,.31-.02,.61-.02,.92-.38,.19-.78,.35-1.18,.47,.02-.36,.04-.72,.05-1.08,.38-.08,.76-.19,1.15-.31Zm-8.1,.02c.17,.05,.35,.1,.52,.14,.02,.25,.04,.5,.07,.75-.17-.12-.34-.23-.5-.35-.03-.17-.06-.37-.09-.54Zm.61,.16c.35,.09,.71,.15,1.06,.21,.02,.38,.04,.77,.07,1.15-.37-.14-.71-.32-1.03-.54-.04-.28-.07-.55-.1-.82Zm-67.79,.02l2.28,1.7-.02,1.04-2.31-1.7,.05-1.04Zm55.24,.09l.19,.05-.19,.07v-.12Zm-44.29,.02l2.12,1.58-.52,.14-2.12-1.55s.52-.16,.52-.16Zm63.08,0c0,.36-.03,.72-.05,1.08-.36,.1-.73,.18-1.11,.24v-1.13c.38-.05,.77-.11,1.15-.19Zm-5.09,.09c.42,.07,.84,.13,1.27,.17,.02,.41,.05,.81,.07,1.22-.44,0-.87-.09-1.27-.24-.02-.39-.05-.77-.08-1.15Zm-72.1,.07l.78,.59-.02,1.32-.8-.59,.05-1.32Zm37.51,0l-3.79,1.79,.85,.66,3.74-1.88-.8-.57Zm38.43,.02v1.15c-.37,.05-.74,.07-1.11,.09v-1.15c.37-.01,.73-.05,1.11-.09Zm-16.72,.02l3.35,.92-4.15,1.6-.02-2.24s.82-.28,.82-.28Zm-45.85,.02l2.1,1.55-.8,.24-2.1-1.55s.8-.24,.8-.24Zm60.12,.02c.41,.03,.82,.03,1.24,.02v1.15c-.4,.02-.8,.05-1.2,.05-.02-.41-.04-.82-.05-1.22Zm-15.8,.05v.05l-.07,.02s.07-.07,.07-.07Zm8.61,0v.12l-.21-.05,.21-.07Zm-34.61,.12v1.25l.35,.26-1.72,.68v-1.7l.02,.02s1.34-.52,1.34-.52Zm-19.31,.12l2.05,1.55-.94,.28-2.1-1.53s.99-.31,.99-.31Zm-6.62,.19l1.67,1.41-.26,5.93-1.46-1.13,.05-6.22Zm51.92,.02l-.02,2.26-3.63,1.39,3.08-3.46s.57-.19,.57-.19Zm-46.48,.14l2.05,1.55-.97,.28-2.05-1.53s.97-.31,.97-.31Zm37.32,.02v1.23c-.05-.02-.11-.05-.17-.07-.04-.02-.1,.25-.14,.24-.04-.02-.06-.31-.09-.33-.19-.07-.37-.12-.57-.17-.05-.01-.12,.15-.17,.14-.05-.01-.09-.2-.14-.21-.19-.04-.35-.07-.54-.09-.05,0-.16,.14-.21,.14-.03,0-.03-.03-.05-.07l2.07-.8Zm-45.42,.17l2.31,1.74v1.2l-2.35-1.72s.05-1.22,.05-1.22Zm34.73,.07l-2.94,1.44,2.87,2.21,.07-3.65Zm-27.81,.12l2.02,1.53-1.11,.33-2.02-1.51,1.11-.35Zm53.36,.09l1.72,.47-6.69,2.59v-1.27l4.97-1.79Zm-63.44,.26l.8,.61v.85l-.82-.59,.02-.87Zm8.74,.07l2.03,1.51-.54,.16-2.02-1.51,.54-.16Zm8.05,.31l.24,6.24-6.55,2.03,.02-6.5,6.29-1.77Zm15.45,.02l1.41,1.01-3.3,1.27,.02-1.58,.02,.02s1.84-.73,1.84-.73Zm21.9,0l-3.2,3.58-.66,.26c0-.16-.02-.31-.07-.45l-.05-1.98s3.98-1.41,3.98-1.41Zm-8.64,.09s.03,0,.05,0l-.05,.64c-.23-.02-.46-.05-.68-.05v-.54c.23-.01,.46-.04,.68-.05Zm.16,0c.25,.01,.49,.03,.73,.07l-.09,.64c-.22-.03-.43-.05-.64-.07v-.64Zm-.99,.05l-.02,.54c-.25,0-.5,.02-.73,.05v-.54c.25-.02,.5-.03,.75-.05Zm-.9,.05l-.02,.54c-.22,.03-.43,.09-.64,.14l-.02-.59c.22-.04,.45-.07,.68-.09Zm2.75,0c.27,.05,.54,.13,.8,.21v.59c-.29-.06-.56-.1-.82-.14,0,0,.02-.66,.02-.66Zm-38.64,.05l2.14,1.58v.92l-2.19-1.6s.05-.89,.05-.89Zm9.51,.07l10.55,7.58c-.08,.33-.13,.68-.05,1.08,.09,0,.19,.02,.28,.02-.03,.28-.03,.57-.05,.84l-10.74-7.7v-1.84Zm25.55,0l.05,.59c-.26,.06-.5,.15-.75,.24l-.02-.21c.2-.17,.32-.35,.38-.54,.12-.03,.23-.05,.35-.07Zm-39.84,.12l2.35,1.79-.02,1.27-2.38-1.79,.05-1.27Zm44.34,0c.24,.08,.48,.18,.71,.28l-.02,.47c-.22-.06-.45-.12-.66-.17,0,0-.02-.59-.02-.59Zm-5.96,.33l.49,.35s.04-.05,.07-.07c0,.06,0,.11,0,.17-.24,.09-.49,.19-.73,.31l.05-.71s.08-.03,.12-.05Zm6.78,0c.06,.03,.13,.06,.19,.09,.15,.2,.25,.35,.28,.49-.18-.05-.34-.09-.52-.14l.05-.45Zm-32.05,.19l-4.87,1.37-.26,4.99,4.95-1.65s.19-4.71,.19-4.71Zm28.05,.12c.46-.02,.91-.01,1.37,.02,1.05,.09,2.06,.31,3.08,.57-.04,.12-.14,.22-.26,.33-.02,.02,.03,.33,0,.35-.03,.02-.13-.24-.17-.21-.25,.23-.58,.34-.87,.49-.04,.02-.05,.24-.09,.26s-.12-.18-.17-.17c-.35,.13-.72,.25-1.08,.35-.04,0,.01,.2-.02,.21-.03,0-.13-.17-.17-.17-.31,.08-.63,.15-.94,.21-.04,0-.08,.18-.12,.19-.04,0-.08-.15-.12-.14-.32,.05-.63,.08-.94,.09-.05,0-.07,.21-.12,.21-.06,0-.13-.19-.19-.19-.33,0-.65-.01-.97-.05-.05,0-.11,.22-.17,.21-.05,0-.09-.25-.14-.26-.31-.05-.63-.11-.92-.21,0,0-.04,.02-.05,.02l.09-1.44c.99-.44,1.98-.66,2.94-.71Zm-28.28,.02l-.02,.33-.31-.24s.33-.09,.33-.09Zm17.78,0l1.41,1.01-4.83,1.88v-1.55s3.41-1.34,3.41-1.34Zm-18.18,.12l.38,.33-.02,.85-1.34-.87s.99-.31,.99-.31Zm-7.75,.14l2.17,1.65v.97l-2.21-1.65s.05-.97,.05-.97Zm49.87,.05v1.3l-5.93,2.31,1.88-2.12,4.05-1.48Zm-43.28,.17l1.51,.94-.05,1.46-2.85-1.98s1.39-.42,1.39-.42Zm-11.4,.35l2.4,1.79v.73l-2.43-1.77,.02-.75Zm9.89,.09l-.02,.05,2.99,2.05-.05,1.39-4.14-3.11,1.22-.38Zm36.12,0c.11,.38,.19,.76,.26,1.13-.2,.1-.42,.19-.64,.28-.02-.34-.05-.68-.09-1.01,.19-.12,.34-.26,.47-.4Zm-13.73,.19l1.46,1.06c-.16-.03-.33-.08-.49-.09-.05,0-.14,.14-.19,.14-.06,0-.06-.16-.12-.16-.18-.01-.38-.02-.57-.02-.07,0-.19,.24-.26,.24-.07,0-.07-.24-.14-.24-.2,0-.42,.02-.61,.02-.05,0-.09,.21-.14,.21-.05,0-.1-.22-.14-.21-.19,.01-.37,.05-.57,.07-.06,0-.13,.25-.19,.26-.06,0-.11-.22-.17-.21-.19,.03-.38,.05-.57,.09-.05,.01-.09,.22-.14,.24-.05,.01-.11-.15-.17-.14-.18,.05-.36,.08-.54,.14-.05,.02-.07,.24-.12,.26-.04,.02-.12-.16-.17-.14-.21,.08-.42,.16-.61,.26-.06,.03-.08,.3-.14,.33-.06,.03-.15-.15-.21-.12-.06,.04-.13,.08-.19,.12v-.19l.05,.02,1.11-.42,.28-.12s3.53-1.39,3.53-1.39Zm-17.92,.07l10.74,7.72c-.02,.51-.02,1.03,0,1.55l-10.71-7.7s-.02-1.58-.02-1.58Zm-5.84,.19l4.17,3.11-1.51,.42c-1.29-1.06-1.54-1.11-2.66-2.24v-1.3Zm36.9,.02c.04,.33,.07,.66,.09,.99-.35,.15-.72,.33-1.11,.47-.01-.32-.03-.64-.05-.97,.13-.04,.26-.08,.38-.12,.25-.12,.48-.25,.68-.38Zm-40.67,.07l2.21,1.65-.02,1.2-2.24-1.67s.05-1.18,.05-1.18Zm41.89,.35l.02,.05s-.02,0-.02,0c0-.02,0-.03,0-.05Zm-2.4,.09c.02,.33,.04,.66,.05,.99-.37,.13-.76,.23-1.15,.33-.01-.33-.02-.66-.05-.99,.41-.11,.8-.22,1.15-.33Zm2.24,.33c.38-.05,.77,.27,.35,.94-.76,.51-1.56,.88-2.4,1.15,0,0,0-.02,0-.02l-.09,.05c-2.14,.67-4.41,.65-6.29,.31l.07-1.11c2.33,.42,5.12,.33,8.36-1.32Zm-3.51,.02c.02,.33,.03,.66,.05,.99-.37,.09-.74,.15-1.13,.21v-.97c.37-.07,.73-.15,1.08-.24Zm-9.02,.05l.05,.02s-.03,.05-.05,.05c-.01,0-.03-.02-.05-.05l.05-.02Zm7.82,.21v.97c-.35,.05-.71,.08-1.08,.09v-.9c.37-.04,.72-.1,1.08-.17Zm-9.8,.02s.03,0,.05,0l-.05,.64c-.23-.02-.46-.05-.68-.05v-.54c.23-.01,.46-.04,.68-.05Zm.17,0c.25,.01,.49,.03,.73,.07l-.09,.64c-.22-.03-.43-.05-.64-.07v-.64Zm6.03,0c.34,.09,.71,.14,1.08,.16-.02,.27-.03,.55-.05,.82-.36-.04-.72-.12-1.08-.21,0,0,.05-.78,.05-.78Zm-7.02,.05l-.02,.54c-.25,0-.5,.02-.73,.05v-.54c.25-.02,.5-.03,.75-.05Zm-.9,.05l-.02,.54c-.22,.03-.43,.09-.64,.14l-.02-.59c.22-.04,.45-.07,.68-.09Zm2.75,0c.27,.05,.54,.13,.8,.21v.59c-.29-.06-.56-.1-.82-.14l.02-.66Zm7.56,.07v.9c-.4,0-.81,0-1.23-.05,.01-.28,.03-.55,.05-.82,.38,.02,.78,.01,1.18-.02Zm-11.14,.05l.05,.59c-.26,.06-.5,.15-.75,.24l-.02-.66c.24-.07,.48-.12,.73-.17Zm-20.89,.07c.98,.9,1.35,1.24,2.45,2.12l-1.11,.31-1.34-1.18s0-1.25,0-1.25Zm-3.84,.02l2.24,1.7-.02,1.22-2.28-1.7s.07-1.22,.07-1.22Zm9.68,.02l10.71,7.72s-.09,.11-.12,.1c-.03,.05-.05,.09-.07,.14l-10.53-7.6v-.35Zm19.54,0c.24,.08,.48,.18,.71,.28l-.02,.47c-.22-.06-.45-.12-.66-.17l-.02-.59Zm13.61,.02l-.38,.42v-.19s.02-.08,.02-.12c0,0,.35-.12,.35-.12Zm-18.96,.07c-.01,.23-.04,.45-.05,.68-.24,.09-.49,.19-.73,.31v-.68c.25-.12,.51-.22,.78-.31Zm6.17,.24c.06,.03,.13,.06,.19,.09,.15,.2,.25,.35,.28,.49-.18-.06-.34-.09-.52-.14,0,0,.05-.45,.05-.45Zm-7.14,.17v.68c-.26,.13-.53,.27-.8,.42l-.02-.54c.25-.23,.53-.41,.82-.57Zm19.33,.09l-.02,.19-.14,.38c0-.16,0-.31,0-.47,.06-.03,.11-.06,.16-.09Zm-16.2,.05c.46-.02,.91-.01,1.37,.02,1.05,.09,2.06,.31,3.08,.57-.04,.12-.12,.23-.24,.33-.02,.02,.03,.33,0,.35-.03,.02-.13-.24-.17-.21-.25,.23-.58,.32-.87,.47-.04,.02-.07,.24-.12,.26s-.1-.16-.14-.14c-.35,.13-.72,.25-1.08,.35-.04,.01,.01,.18-.02,.19-.03,0-.13-.15-.16-.14-.31,.08-.63,.15-.94,.21-.04,0-.08,.18-.12,.19-.04,0-.08-.15-.12-.14-.32,.05-.63,.08-.94,.09-.05,0-.07,.21-.12,.21-.06,0-.13-.19-.19-.19-.33,0-.68-.01-.99-.05-.05,0-.09,.22-.14,.21-.05,0-.11-.25-.17-.26-.31-.05-.61-.13-.89-.24-.05-.02-.16,.23-.21,.21-.05-.02-.04-.31-.09-.33-.28-.12-.53-.27-.78-.45-.02-.02-.14,.14-.17,.12-.03-.02,.03-.21,0-.24,1.44-.94,2.84-1.34,4.22-1.41h0Zm5.13,.17l.92,.68c-.29-.08-.57-.17-.82-.26-.03-.14-.06-.28-.09-.42Zm10.55,.02c.03,1-.05,1.97-.26,2.92-.16,.08-.35,.14-.52,.21,.04-.94,.06-1.87,.05-2.8,.24-.11,.48-.2,.73-.33Zm-19.76,.35l-.02,.52c-.1,.06-.2,.1-.31,.17-.05-.04-.1-.07-.14-.12,.14-.2,.3-.4,.47-.57Zm18.91,.02c.02,.93,.02,1.87-.02,2.8-.36,.15-.74,.29-1.13,.42,.02-.93,.01-1.87,0-2.8,.38-.12,.77-.26,1.15-.42Zm-40.95,.19l2.28,1.74v.59l-2.31-1.67s.02-.66,.02-.66Zm3.91,0l1.2,1.04-1.2,.33v-1.37Zm26.99,.19c.11,.38,.19,.76,.26,1.13-.2,.1-.42,.19-.64,.28-.02-.34-.05-.68-.09-1.01,.19-.12,.34-.26,.47-.4Zm.52,0c.16,.04,.31,.08,.47,.12-.02,.34-.02,.64-.02,.94-.05-.06-.09-.12-.14-.19-.06,.03-.13,.04-.19,.07-.04-.31-.07-.63-.12-.94Zm8.26,.09s.02,0,.02,0c0,.93,0,1.87-.02,2.8-.36,.12-.74,.23-1.13,.33,.02-.95,.02-1.89,0-2.85,.37-.08,.75-.17,1.13-.28Zm-7.68,.05c.25,.06,.5,.11,.75,.17l.33,.24c-.02,.92,.02,1.87,.07,2.83-.37-.08-.75-.18-1.13-.31-.01-.23-.02-.46-.02-.68,.17-.49,.16-.83-.02-1.15,0-.37,0-.72,.02-1.08Zm1.41,.28c.36,.06,.73,.13,1.11,.16-.02,.98,0,1.98,.02,2.99-.42-.04-.84-.1-1.27-.19-.03-.91-.04-1.83-.02-2.73l.14,.09s.02-.33,.02-.33Zm5.02,0c.02,.95,.02,1.91,0,2.85-.38,.09-.78,.15-1.18,.21v-2.92c.39-.04,.78-.06,1.18-.14Zm-8.12,.05c.04,.33,.07,.66,.09,.99-.35,.16-.72,.33-1.11,.47-.01-.32-.03-.64-.05-.97,.13-.04,.26-.08,.38-.12,.25-.12,.48-.25,.68-.38Zm6.83,.12l.02,2.92c-.36,.05-.73,.08-1.11,.09v-2.94c.36,0,.72-.04,1.08-.07Zm-2.47,.02c.42,.04,.84,.05,1.27,.05l.02,2.97c-.42,.02-.86-.01-1.3-.05-.02-.99-.02-1.99,0-2.97Zm-13.14,.14c.05,.05,.11,.09,.17,.14-.06,.37-.12,.72-.17,1.06-.12-.05-.23-.09-.35-.14,.1-.35,.21-.71,.35-1.06Zm.26,.24c.3,.25,.64,.43,1.01,.57-.04,.26-.05,.53-.07,.8-.35-.09-.7-.22-1.06-.35,.04-.34,.06-.68,.12-1.01Zm7.35,0c.02,.33,.04,.66,.05,.99-.37,.13-.76,.23-1.15,.33-.01-.33-.02-.66-.05-.99,.41-.11,.8-.22,1.15-.33Zm2.24,.33c.37-.05,.77,.27,.35,.94-.76,.51-1.56,.88-2.4,1.15v-.02l-.09,.05c-3.18,.99-6.67,.44-8.71-.38-.19-.28-.03-.82,.17-1.01,2.69,.95,6.29,1.51,10.69-.73Zm-3.51,.02c.02,.33,.03,.66,.05,.99-.37,.09-.74,.15-1.13,.21v-.97c.37-.07,.73-.15,1.08-.24Zm-4.95,.26c.38,.12,.8,.16,1.22,.19-.02,.27-.03,.55-.05,.82-.4-.05-.81-.13-1.22-.24,.02-.26,.02-.52,.05-.78Zm3.74,0v.97c-.35,.05-.71,.08-1.08,.09v-.89c.37-.04,.72-.1,1.08-.17Zm-1.2,.19v.9c-.4,0-.81,0-1.22-.05,.01-.28,.03-.55,.05-.82,.38,.02,.78,.01,1.18-.02Zm16.46,.54c.05,.4,.23,.84-.24,1.32-3.03,1.09-6.09,2.09-10.08,.71,.03-.38,.06-.75,.07-1.13,4.04,1.21,6.71,.25,10.24-.89Zm-10.01,.19c0,.17,.01,.34,.02,.49-.09-.03-.17-.06-.26-.09,0-.09,0-.19,0-.28,.08-.04,.16-.08,.24-.12Zm-.59,.26c.04,1-.05,1.97-.26,2.92-.16,.08-.35,.14-.52,.21,.04-.93,.06-1.88,.05-2.8,.24-.11,.48-.21,.73-.33Zm-.85,.38c.02,.93,.02,1.87-.02,2.8-.36,.15-.74,.29-1.13,.42,.02-.93,.01-1.87,0-2.8,.38-.12,.77-.26,1.15-.42Zm-9.68,.33c.2,.06,.41,.11,.61,.17-.05,1.09-.02,2.02,.05,2.89-.21-.08-.43-.14-.64-.23-.09-.94-.14-1.91-.02-2.83Zm8.41,.14s.02,0,.02,0c.01,.93,0,1.87-.02,2.8-.36,.12-.74,.23-1.13,.32,.02-.94,.02-1.89,0-2.85,.37-.08,.75-.16,1.13-.28Zm-7.68,.05c.36,.09,.72,.17,1.08,.23-.03,.98,.02,1.98,.07,2.99-.38-.08-.75-.17-1.13-.31-.06-.99-.07-1.97-.02-2.92Zm1.25,.26c.42,.08,.84,.15,1.27,.19-.02,.99,0,1.99,.02,2.99-.42-.04-.84-.09-1.27-.19-.04-.99-.05-2-.02-2.99Zm5.18,.02c.02,.96,.02,1.91,0,2.86-.38,.09-.78,.15-1.18,.21v-2.92c.39-.04,.78-.06,1.18-.14Zm-1.3,.17l.02,2.92c-.36,.05-.73,.08-1.11,.09v-2.94c.36,0,.72-.04,1.08-.08Zm-2.47,.03c.42,.03,.84,.05,1.27,.05l.02,2.97c-.42,.02-.86-.02-1.29-.05-.02-.99-.02-1.99,0-2.96Zm16.74,0s.02,0,.02,0c.04,.11,0,.21-.05,.3,0-.1,.02-.2,.02-.3Zm-.09,.05c0,.14-.02,.26-.02,.4-.12,.13-.26,.26-.35,.4-.23,.17-.48,.32-.73,.44,0-.29,.02-.6,.02-.89,.35-.11,.73-.22,1.08-.35Zm-1.18,.38c0,.3-.02,.61-.02,.92-.38,.19-.77,.35-1.18,.47,.01-.36,.04-.72,.05-1.09,.38-.08,.76-.19,1.15-.3Zm-8.1,.02h.02c.16,.05,.33,.1,.49,.14,.03,.25,.04,.5,.07,.75-.17-.12-.34-.23-.49-.35-.04-.17-.06-.37-.09-.54Zm.61,.17c.35,.08,.7,.15,1.06,.21,.03,.38,.04,.77,.07,1.15-.37-.14-.71-.32-1.04-.54-.03-.27-.06-.55-.09-.82Zm6.24,.14c-.01,.36-.03,.72-.05,1.08-.36,.11-.73,.18-1.11,.23v-1.13c.38-.05,.76-.11,1.15-.18Zm-5.09,.09c.42,.07,.84,.14,1.27,.17,.02,.41,.05,.81,.07,1.22-.45,0-.88-.09-1.27-.23-.02-.38-.05-.77-.07-1.15Zm3.84,.09v1.16c-.37,.05-.74,.07-1.11,.09v-1.15c.37-.02,.73-.05,1.11-.1Zm-2.45,.08c.41,.02,.83,.03,1.25,.02v1.15c-.4,.02-.8,.05-1.2,.05-.02-.41-.04-.81-.05-1.22Zm-3.25,.68c.05,.4,.21,.87-.26,1.35-3.23,1.17-6.49,2.25-10.88,.42-.1-.39-.19-1.14,.24-1.06,4.42,1.53,7.18,.5,10.9-.71Zm-1.01,1.84s.02,0,.02,0c.04,.12,0,.22-.05,.31,0-.11,.02-.2,.02-.31Zm-.09,.05c0,.14-.02,.27-.02,.41-.12,.13-.26,.26-.35,.4-.23,.17-.48,.32-.73,.44,0-.29,.02-.6,.02-.9,.35-.11,.73-.21,1.08-.35Zm-1.18,.38c0,.31-.02,.62-.02,.92-.38,.2-.77,.35-1.18,.47,.01-.36,.04-.72,.05-1.09,.38-.08,.76-.19,1.15-.31Zm-8.1,.03c.17,.05,.35,.1,.52,.14,.03,.26,.04,.5,.07,.75-.17-.11-.34-.23-.49-.35-.04-.18-.06-.38-.09-.54Zm.61,.17c.35,.08,.7,.14,1.06,.21,.03,.38,.04,.77,.07,1.15-.37-.14-.71-.32-1.04-.54-.04-.28-.07-.55-.09-.82Zm6.24,.14c-.01,.36-.03,.72-.05,1.09-.36,.11-.73,.17-1.11,.23v-1.13c.38-.05,.76-.11,1.15-.19Zm-5.09,.1c.42,.07,.85,.13,1.27,.17,.02,.41,.05,.81,.07,1.22-.45,0-.88-.09-1.27-.23-.02-.38-.05-.77-.07-1.15Zm3.84,.09v1.15c-.37,.06-.74,.08-1.11,.1v-1.15c.37-.02,.73-.05,1.11-.1Zm-2.45,.08c.41,.02,.83,.03,1.25,.02v1.15c-.4,.02-.8,.05-1.2,.05-.02-.41-.04-.81-.05-1.22Z"/>
    </g>
  </g>
</svg>