<?xml version="1.0" encoding="UTF-8"?>
<svg id="Layer_2" data-name="Layer 2" xmlns="http://www.w3.org/2000/svg" xmlns:xlink="http://www.w3.org/1999/xlink" viewBox="0 0 95.56 89.54">
  <defs>
    <style>
      .cls-1 {
        fill: url(#linear-gradient-58);
      }

      .cls-1, .cls-2, .cls-3, .cls-4, .cls-5, .cls-6, .cls-7, .cls-8, .cls-9, .cls-10, .cls-11, .cls-12, .cls-13, .cls-14, .cls-15, .cls-16, .cls-17, .cls-18, .cls-19, .cls-20, .cls-21, .cls-22, .cls-23, .cls-24, .cls-25, .cls-26, .cls-27, .cls-28, .cls-29, .cls-30, .cls-31, .cls-32, .cls-33, .cls-34, .cls-35, .cls-36, .cls-37, .cls-38, .cls-39, .cls-40, .cls-41, .cls-42, .cls-43, .cls-44, .cls-45, .cls-46, .cls-47, .cls-48, .cls-49, .cls-50, .cls-51, .cls-52, .cls-53, .cls-54, .cls-55, .cls-56, .cls-57, .cls-58, .cls-59, .cls-60, .cls-61, .cls-62, .cls-63, .cls-64, .cls-65, .cls-66, .cls-67 {
        fill-rule: evenodd;
      }

      .cls-2 {
        fill: url(#linear-gradient-4);
      }

      .cls-3 {
        fill: url(#linear-gradient-12);
      }

      .cls-4 {
        fill: url(#linear-gradient-38);
      }

      .cls-5 {
        fill: url(#linear-gradient-21);
      }

      .cls-6 {
        fill: url(#linear-gradient-48);
      }

      .cls-7 {
        fill: url(#linear-gradient-44);
      }

      .cls-8 {
        fill: url(#linear-gradient-35);
      }

      .cls-9 {
        fill: url(#linear-gradient-54);
      }

      .cls-10 {
        fill: url(#linear-gradient-36);
      }

      .cls-11 {
        fill: url(#linear-gradient-2);
      }

      .cls-12 {
        fill: url(#linear-gradient);
      }

      .cls-13 {
        fill: url(#linear-gradient-15);
      }

      .cls-14 {
        fill: url(#linear-gradient-24);
      }

      .cls-15 {
        fill: url(#linear-gradient-60);
      }

      .cls-16 {
        fill: url(#linear-gradient-9);
      }

      .cls-17 {
        fill: url(#linear-gradient-25);
      }

      .cls-18 {
        fill: url(#linear-gradient-34);
      }

      .cls-19 {
        fill: url(#linear-gradient-40);
      }

      .cls-20 {
        fill: url(#linear-gradient-6);
      }

      .cls-21 {
        fill: url(#linear-gradient-16);
      }

      .cls-22 {
        fill: url(#linear-gradient-29);
      }

      .cls-23 {
        fill: url(#linear-gradient-39);
      }

      .cls-24 {
        fill: url(#linear-gradient-26);
      }

      .cls-25 {
        fill: url(#linear-gradient-14);
      }

      .cls-26 {
        fill: url(#linear-gradient-37);
      }

      .cls-27 {
        fill: url(#linear-gradient-49);
      }

      .cls-28 {
        fill: url(#linear-gradient-65);
      }

      .cls-29 {
        fill: url(#linear-gradient-5);
      }

      .cls-30 {
        fill: url(#linear-gradient-23);
      }

      .cls-31 {
        fill: url(#linear-gradient-28);
      }

      .cls-32 {
        fill: url(#linear-gradient-59);
      }

      .cls-33 {
        fill: url(#linear-gradient-27);
      }

      .cls-34 {
        fill: url(#linear-gradient-10);
      }

      .cls-35 {
        fill: url(#linear-gradient-18);
      }

      .cls-36 {
        fill: url(#linear-gradient-41);
      }

      .cls-37 {
        fill: url(#linear-gradient-56);
      }

      .cls-38 {
        fill: url(#linear-gradient-32);
      }

      .cls-39 {
        fill: url(#linear-gradient-11);
      }

      .cls-40 {
        fill: url(#linear-gradient-51);
      }

      .cls-41 {
        fill: url(#linear-gradient-61);
      }

      .cls-42 {
        fill: url(#linear-gradient-30);
      }

      .cls-43 {
        fill: url(#linear-gradient-45);
      }

      .cls-44 {
        fill: url(#linear-gradient-55);
      }

      .cls-45 {
        fill: url(#linear-gradient-19);
      }

      .cls-46 {
        fill: url(#linear-gradient-20);
      }

      .cls-47 {
        fill: url(#linear-gradient-47);
      }

      .cls-48 {
        fill: url(#linear-gradient-67);
      }

      .cls-49 {
        fill: url(#linear-gradient-31);
      }

      .cls-50 {
        fill: url(#linear-gradient-62);
      }

      .cls-51 {
        fill: url(#linear-gradient-64);
      }

      .cls-52 {
        fill: url(#linear-gradient-66);
      }

      .cls-53 {
        fill: url(#linear-gradient-63);
      }

      .cls-54 {
        fill: url(#linear-gradient-53);
      }

      .cls-55 {
        fill: url(#linear-gradient-52);
      }

      .cls-56 {
        fill: url(#linear-gradient-22);
      }

      .cls-57 {
        fill: url(#linear-gradient-50);
      }

      .cls-58 {
        fill: url(#linear-gradient-13);
      }

      .cls-59 {
        fill: url(#linear-gradient-7);
      }

      .cls-60 {
        fill: url(#linear-gradient-8);
      }

      .cls-61 {
        fill: url(#linear-gradient-46);
      }

      .cls-62 {
        fill: url(#linear-gradient-3);
      }

      .cls-63 {
        fill: url(#linear-gradient-57);
      }

      .cls-64 {
        fill: url(#linear-gradient-43);
      }

      .cls-65 {
        fill: url(#linear-gradient-33);
      }

      .cls-66 {
        fill: url(#linear-gradient-17);
      }

      .cls-67 {
        fill: url(#linear-gradient-42);
      }
    </style>
    <linearGradient id="linear-gradient" x1="78.9" y1="69.76" x2="74.45" y2="73.11" gradientUnits="userSpaceOnUse">
      <stop offset="0" stop-color="#958e8b"/>
      <stop offset="1" stop-color="#454545"/>
    </linearGradient>
    <linearGradient id="linear-gradient-2" x1="74.33" y1="76.64" x2="77.43" y2="76.64" xlink:href="#linear-gradient"/>
    <linearGradient id="linear-gradient-3" x1="73.26" y1="74.99" x2="76.24" y2="74.99" xlink:href="#linear-gradient"/>
    <linearGradient id="linear-gradient-4" x1="72.07" y1="73.17" x2="75.12" y2="73.17" xlink:href="#linear-gradient"/>
    <linearGradient id="linear-gradient-5" x1="64.11" y1="80.35" x2="66.94" y2="80.35" xlink:href="#linear-gradient"/>
    <linearGradient id="linear-gradient-6" x1="64.09" y1="78.59" x2="65.92" y2="78.59" xlink:href="#linear-gradient"/>
    <linearGradient id="linear-gradient-7" x1="63.19" y1="76.64" x2="64.61" y2="76.64" xlink:href="#linear-gradient"/>
    <linearGradient id="linear-gradient-8" x1="70.71" y1="71.11" x2="73.98" y2="71.11" xlink:href="#linear-gradient"/>
    <linearGradient id="linear-gradient-9" x1="61.01" y1="74.68" x2="63.47" y2="74.68" xlink:href="#linear-gradient"/>
    <linearGradient id="linear-gradient-10" x1="65.13" y1="68.49" x2="70.65" y2="79.16" gradientUnits="userSpaceOnUse">
      <stop offset="0" stop-color="#953a2b"/>
      <stop offset="1" stop-color="#452625"/>
    </linearGradient>
    <linearGradient id="linear-gradient-11" x1="65.34" y1="68.38" x2="70.87" y2="79.05" xlink:href="#linear-gradient-10"/>
    <linearGradient id="linear-gradient-12" x1="65.69" y1="68.2" x2="71.21" y2="78.87" xlink:href="#linear-gradient-10"/>
    <linearGradient id="linear-gradient-13" x1="64.92" y1="68.6" x2="70.44" y2="79.27" xlink:href="#linear-gradient-10"/>
    <linearGradient id="linear-gradient-14" x1="64.78" y1="68.67" x2="70.31" y2="79.34" xlink:href="#linear-gradient-10"/>
    <linearGradient id="linear-gradient-15" x1="70.11" y1="66.58" x2="74.92" y2="75.32" xlink:href="#linear-gradient"/>
    <linearGradient id="linear-gradient-16" x1="70.25" y1="66.51" x2="75.05" y2="75.25" xlink:href="#linear-gradient"/>
    <linearGradient id="linear-gradient-17" x1="70.55" y1="66.34" x2="75.36" y2="75.08" xlink:href="#linear-gradient"/>
    <linearGradient id="linear-gradient-18" x1="60.57" y1="71.82" x2="65.38" y2="80.57" xlink:href="#linear-gradient"/>
    <linearGradient id="linear-gradient-19" x1="60.78" y1="71.71" x2="65.59" y2="80.45" xlink:href="#linear-gradient"/>
    <linearGradient id="linear-gradient-20" x1="61.12" y1="71.52" x2="65.92" y2="80.27" xlink:href="#linear-gradient"/>
    <linearGradient id="linear-gradient-21" x1="70.03" y1="66.62" x2="74.84" y2="75.37" xlink:href="#linear-gradient"/>
    <linearGradient id="linear-gradient-22" x1="60.81" y1="71.69" x2="65.62" y2="80.43" xlink:href="#linear-gradient"/>
    <linearGradient id="linear-gradient-23" x1="70.01" y1="66.63" x2="74.82" y2="75.38" xlink:href="#linear-gradient"/>
    <linearGradient id="linear-gradient-24" x1="60.33" y1="71.96" x2="65.14" y2="80.7" xlink:href="#linear-gradient"/>
    <linearGradient id="linear-gradient-25" x1="90.49" y1="70.31" x2="28.65" y2="95.88" gradientUnits="userSpaceOnUse">
      <stop offset="0" stop-color="#bdb4b0"/>
      <stop offset="1" stop-color="#737373"/>
    </linearGradient>
    <linearGradient id="linear-gradient-26" x1="82.25" y1="66.84" x2="16.39" y2="59.74" xlink:href="#linear-gradient-25"/>
    <linearGradient id="linear-gradient-27" x1="75.12" y1="75.76" x2="66.43" y2="80.87" xlink:href="#linear-gradient-10"/>
    <linearGradient id="linear-gradient-28" x1="74.15" y1="74.11" x2="65.46" y2="79.23" xlink:href="#linear-gradient-10"/>
    <linearGradient id="linear-gradient-29" x1="73.06" y1="72.25" x2="64.36" y2="77.36" xlink:href="#linear-gradient-10"/>
    <linearGradient id="linear-gradient-30" x1="71.83" y1="70.17" x2="63.14" y2="75.28" xlink:href="#linear-gradient-10"/>
    <linearGradient id="linear-gradient-31" x1="69.51" y1="66.23" x2="60.82" y2="71.34" xlink:href="#linear-gradient-10"/>
    <linearGradient id="linear-gradient-32" x1="81.39" y1="74.79" x2="15.53" y2="67.7" xlink:href="#linear-gradient-25"/>
    <linearGradient id="linear-gradient-33" x1="89.78" y1="68.59" x2="27.94" y2="94.16" xlink:href="#linear-gradient-25"/>
    <linearGradient id="linear-gradient-34" x1="29.31" y1="64.81" x2="23.37" y2="71.08" xlink:href="#linear-gradient-25"/>
    <linearGradient id="linear-gradient-35" x1="78.89" y1="46.62" x2="41.94" y2="67.48" gradientUnits="userSpaceOnUse">
      <stop offset="0" stop-color="#bdafaa"/>
      <stop offset="1" stop-color="#706864"/>
    </linearGradient>
    <linearGradient id="linear-gradient-36" x1="33.55" y1="39.63" x2="22.3" y2="55.32" xlink:href="#linear-gradient-35"/>
    <linearGradient id="linear-gradient-37" x1="86.36" y1="57.37" x2="78.97" y2="61.87" xlink:href="#linear-gradient-10"/>
    <linearGradient id="linear-gradient-38" x1="76.22" y1="52.74" x2="86" y2="60.17" gradientUnits="userSpaceOnUse">
      <stop offset="0" stop-color="#47372a"/>
      <stop offset=".42" stop-color="#4a3a2d"/>
      <stop offset=".82" stop-color="#544538"/>
      <stop offset="1" stop-color="#5c4e40"/>
    </linearGradient>
    <linearGradient id="linear-gradient-39" x1="56.65" y1="68.31" x2="68.92" y2="55.46" xlink:href="#linear-gradient-38"/>
    <linearGradient id="linear-gradient-40" x1="16.87" y1="60.97" x2="24.79" y2="48.75" xlink:href="#linear-gradient-38"/>
    <linearGradient id="linear-gradient-41" x1="19.67" y1="59.62" x2="21.33" y2="54.53" gradientUnits="userSpaceOnUse">
      <stop offset="0" stop-color="#b4d8e0"/>
      <stop offset=".32" stop-color="#b7dae1"/>
      <stop offset=".61" stop-color="#c2e0e7"/>
      <stop offset=".89" stop-color="#d5eaf0"/>
      <stop offset="1" stop-color="#dff0f5"/>
    </linearGradient>
    <linearGradient id="linear-gradient-42" x1="7.15" y1="54.71" x2="15.07" y2="42.49" xlink:href="#linear-gradient-38"/>
    <linearGradient id="linear-gradient-43" x1="9.95" y1="53.37" x2="11.61" y2="48.28" xlink:href="#linear-gradient-41"/>
    <linearGradient id="linear-gradient-44" x1="27.03" y1="67.54" x2="34.96" y2="55.32" xlink:href="#linear-gradient-38"/>
    <linearGradient id="linear-gradient-45" x1="29.83" y1="66.19" x2="31.5" y2="61.1" xlink:href="#linear-gradient-41"/>
    <linearGradient id="linear-gradient-46" x1="50.04" y1="64.72" x2="47.4" y2="64.08" xlink:href="#linear-gradient-25"/>
    <linearGradient id="linear-gradient-47" x1="50.61" y1="63.4" x2="46.62" y2="64.2" xlink:href="#linear-gradient-25"/>
    <linearGradient id="linear-gradient-48" x1="50.58" y1="60.54" x2="49.15" y2="59.36" xlink:href="#linear-gradient-10"/>
    <linearGradient id="linear-gradient-49" x1="46.74" y1="60.55" x2="44.41" y2="61.39" xlink:href="#linear-gradient-10"/>
    <linearGradient id="linear-gradient-50" x1="47.01" y1="23.99" x2="27.92" y2="39.74" xlink:href="#linear-gradient-38"/>
    <linearGradient id="linear-gradient-51" x1="63.79" y1="38.28" x2="72.18" y2="35.07" xlink:href="#linear-gradient-38"/>
    <linearGradient id="linear-gradient-52" x1="58.61" y1="38.65" x2="61.14" y2="46.22" xlink:href="#linear-gradient-38"/>
    <linearGradient id="linear-gradient-53" x1="60.91" y1="2.97" x2="51.23" y2="5.22" xlink:href="#linear-gradient-10"/>
    <linearGradient id="linear-gradient-54" x1="55.11" y1="20.59" x2="55.72" y2="32.97" xlink:href="#linear-gradient-35"/>
    <linearGradient id="linear-gradient-55" x1="34.45" y1="17.83" x2="29.34" y2="30" xlink:href="#linear-gradient-35"/>
    <linearGradient id="linear-gradient-56" x1="54.23" y1="10.41" x2="56.07" y2="22.78" xlink:href="#linear-gradient-38"/>
    <linearGradient id="linear-gradient-57" x1="48.85" y1="11.24" x2="54.17" y2="2.96" xlink:href="#linear-gradient-38"/>
    <linearGradient id="linear-gradient-58" x1="41.37" y1="3.92" x2="29.09" y2="20.08" xlink:href="#linear-gradient-38"/>
    <linearGradient id="linear-gradient-59" x1="60.02" y1="34.42" x2="63.7" y2="20.1" xlink:href="#linear-gradient-38"/>
    <linearGradient id="linear-gradient-60" x1="62.33" y1="31.52" x2="62.26" y2="25.58" xlink:href="#linear-gradient-41"/>
    <linearGradient id="linear-gradient-61" x1="47.53" y1="38.51" x2="51.21" y2="24.19" xlink:href="#linear-gradient-38"/>
    <linearGradient id="linear-gradient-62" x1="49.84" y1="35.61" x2="49.77" y2="29.68" xlink:href="#linear-gradient-41"/>
    <linearGradient id="linear-gradient-63" x1="32.38" y1="33.3" x2="37.7" y2="22.73" xlink:href="#linear-gradient-38"/>
    <linearGradient id="linear-gradient-64" x1="35.56" y1="32.88" x2="35.56" y2="25.85" xlink:href="#linear-gradient-41"/>
    <linearGradient id="linear-gradient-65" x1="23.01" y1="27.25" x2="28.33" y2="16.68" xlink:href="#linear-gradient-38"/>
    <linearGradient id="linear-gradient-66" x1="26.21" y1="26.61" x2="26.21" y2="19.58" xlink:href="#linear-gradient-41"/>
    <linearGradient id="linear-gradient-67" x1="60.81" y1="9.47" x2="43.49" y2="80.93" gradientUnits="userSpaceOnUse">
      <stop offset="0" stop-color="#302e2e"/>
      <stop offset="1" stop-color="#171717"/>
    </linearGradient>
  </defs>
  <g id="Layer_2-2" data-name="Layer 2">
    <g id="layer1">
      <polygon class="cls-12" points="77.63 76.25 76.84 75.87 76.76 74.91 75.52 74.18 75.5 73.02 74.41 72.43 74.43 70.96 73.24 70.22 73.16 68.56 77.58 72.7 77.63 76.25"/>
      <g>
        <polygon class="cls-11" points="77.43 76.45 75.07 77.26 74.33 76.84 74.33 76.8 76.61 76.03 77.43 76.45"/>
        <polygon class="cls-62" points="76.24 74.86 74.03 75.65 73.26 75.1 75.42 74.33 76.24 74.86"/>
        <polygon class="cls-2" points="75.12 72.95 72.74 73.79 72.07 73.37 74.38 72.55 75.12 72.95"/>
        <polygon class="cls-29" points="66.94 80.09 64.11 81.08 64.11 80.26 66.05 79.62 66.94 80.09"/>
        <polygon class="cls-20" points="65.92 78.55 64.09 79.2 64.09 78.33 65.08 77.99 65.92 78.55"/>
        <polygon class="cls-59" points="64.61 76.72 63.76 77.02 63.19 76.52 63.91 76.27 64.61 76.72"/>
        <polygon class="cls-60" points="73.98 71.03 71.68 71.86 70.71 71.16 72.97 70.37 73.98 71.03"/>
        <polygon class="cls-16" points="63.47 74.73 63.47 74.76 61.85 75.33 61.01 74.58 62.55 74.04 63.47 74.73"/>
      </g>
      <g>
        <polygon class="cls-34" points="73.02 74.88 65 77.73 64.88 76.87 72.89 74.06 72.94 74.09 73.02 74.88"/>
        <polygon class="cls-39" points="74.21 76.57 66.1 79.34 66.05 78.75 74.16 75.92 74.21 76.57"/>
        <polygon class="cls-3" points="75.47 77.59 75.45 78.21 67.39 80.99 67.41 80.26 67.39 80.24 75.3 77.49 75.47 77.59"/>
        <polygon class="cls-58" points="71.85 73.17 63.81 76.03 63.64 74.95 71.7 72.13 71.85 73.17"/>
        <polygon class="cls-25" points="70.44 70.96 62.42 73.81 62.37 73.76 62.23 72.43 70.26 69.5 70.44 70.96"/>
      </g>
      <g>
        <polygon class="cls-13" points="75.25 74.09 73.19 74.81 73.09 74.04 73.04 74.02 75.22 73.25 75.25 74.09"/>
        <polygon class="cls-21" points="76.44 75.13 76.41 75.83 74.31 76.54 74.26 75.9 76.44 75.13"/>
        <polygon class="cls-66" points="77.65 76.67 77.65 77.46 75.62 78.15 75.64 77.59 75.4 77.46 77.65 76.67"/>
        <polygon class="cls-35" points="67.24 80.29 67.21 81.03 64.19 82.07 64.14 81.38 67.24 80.29"/>
        <polygon class="cls-45" points="65.97 79.4 64.11 80.02 64.09 79.45 65.92 78.8 65.97 79.4"/>
        <polygon class="cls-46" points="64.81 77.78 64.81 77.81 64.06 78.06 64.26 77.46 63.96 77.19 64.73 76.91 64.81 77.78"/>
        <polygon class="cls-5" points="74.16 71.26 74.16 72.35 72.02 73.12 71.85 72.08 74.16 71.26"/>
        <polygon class="cls-56" points="63.64 76.07 63.64 76.1 62.97 76.32 62.05 75.5 63.49 75 63.64 76.07"/>
        <polygon class="cls-30" points="72.94 70.07 70.59 70.91 70.44 69.42 72.84 68.56 72.94 70.07"/>
        <polygon class="cls-14" points="62.28 73.87 60.81 74.38 59.65 73.37 62.08 72.48 62.23 73.81 62.28 73.87"/>
      </g>
      <polygon class="cls-17" points="95.16 71.11 77.98 77.19 77.98 72.75 95.11 66.65 95.16 71.11"/>
      <path class="cls-24" d="M94.34,66.35l-16.46,6.15-4.79-4.39-2.9,1.07-3.45-2.73,13.25-4.71,5.7,3.72v-4.39l.87,.67c.36-.08,.56-.23,.7-.4l7.08,5.01Z"/>
      <g>
        <polygon class="cls-33" points="74.98 77.31 67.06 80.07 66.2 79.54 74.23 76.84 74.23 76.89 74.98 77.31"/>
        <polygon class="cls-31" points="66.02 78.5 66.02 78.48 65.23 77.93 73.09 75.15 73.88 75.7 66.02 78.5"/>
        <polygon class="cls-22" points="72.57 73.87 64.76 76.67 64.09 76.19 71.9 73.45 72.57 73.87"/>
        <polygon class="cls-42" points="63.59 74.71 63.59 74.64 62.7 73.99 70.56 71.21 71.5 71.91 63.59 74.71"/>
        <polygon class="cls-49" points="62.18 72.1 62.18 72.03 58.73 69.28 66.57 66.5 70.01 69.22 62.18 72.1"/>
      </g>
      <polygon class="cls-38" points="63.47 77.31 44.12 84.3 .84 55.16 6.49 53.2 6.49 54.54 39.06 76.27 58.56 69.35 62.03 72.1 62.03 72.15 59.08 73.25 63.47 77.31"/>
      <polygon class="cls-65" points="63.59 77.71 63.59 82.1 44.44 89.02 44.34 84.7 63.59 77.71"/>
      <polygon class="cls-18" points="44 88.8 .64 59.6 .62 55.61 43.92 84.83 44 88.8"/>
      <polygon class="cls-8" points="39.51 75.83 39.28 53.63 82.74 38.69 83.07 57.07 75.25 51.19 74.61 51.49 74.48 52.09 75.22 52.93 78.13 55.18 78.13 60.19 79.8 61.45 39.51 75.83"/>
      <polygon class="cls-10" points="39.28 53.63 39.28 75.65 6.79 54.74 6.79 32.96 39.28 53.63"/>
      <path class="cls-26" d="M85.24,60.74l-6.86-5.23-.15,4.54,7.07,4.69-.06-4Zm-2.55,1.84l-3.23-1.99,.08-2.15,.67,1.24,.47-1,.62,1.24,.85-1.33,.07,1.88,1.16-.35-.19,1.24,1.51-.22-2.01,1.44Z"/>
      <path class="cls-4" d="M86.51,61.17l-.44-.33,.58-.42-.36-.17-.48,.39-10.93-8.16c-.63-.68-.03-1.14,.47-1.16l11.51,9.1c.22,.39,.42,1.05-.35,.75Z"/>
      <polygon class="cls-23" points="53.82 70.41 53.82 59.44 71.5 53.48 71.69 64.39 53.82 70.41"/>
      <polygon class="cls-19" points="19.21 59.11 19.37 44.39 24.2 47.8 24.2 62.38 19.21 59.11"/>
      <polygon class="cls-36" points="20.09 58.68 20.22 46.65 22.91 48.5 23.03 60.64 20.09 58.68"/>
      <polygon class="cls-67" points="9.48 52.85 9.65 38.13 14.48 41.55 14.48 56.13 9.48 52.85"/>
      <polygon class="cls-64" points="10.37 52.42 10.5 40.39 13.19 42.25 13.31 54.38 10.37 52.42"/>
      <polygon class="cls-7" points="29.37 65.68 29.54 50.96 34.37 54.38 34.37 68.96 29.37 65.68"/>
      <polygon class="cls-43" points="30.26 65.25 30.39 53.22 33.08 55.07 33.2 67.21 30.26 65.25"/>
      <polygon class="cls-61" points="46.55 67.97 46.43 66.23 49.23 60.42 49.63 60.61 47.64 66.86 46.55 67.97"/>
      <polygon class="cls-47" points="45.55 61.61 45.85 61.25 51.32 64.88 52.06 66.21 50.43 65.9 45.55 61.61"/>
      <polygon class="cls-6" points="49.43 59.76 49.51 58.58 50.15 58.96 49.71 59.91 49.68 60 50.41 60.34 50.68 61.14 48.39 59.96 48.77 59.64 49.38 59.86 49.43 59.76"/>
      <polygon class="cls-27" points="43.9 60.82 44.36 60.33 45.14 61.02 45.26 61.08 45.82 60.42 46.58 60.37 44.89 62.29 44.71 61.81 45.05 61.31 43.9 60.82"/>
      <polygon class="cls-57" points="6.79 32.96 39.28 53.63 61.24 36.46 56.89 33.09 43.05 41.42 19.44 24.6 6.79 32.96"/>
      <polygon class="cls-40" points="68.73 28.95 68.6 31.85 57.49 33.21 61.24 36.19 82.61 38.56 68.73 28.95"/>
      <polygon class="cls-55" points="39.51 53.69 82.74 38.69 61.41 36.34 39.51 53.69"/>
      <path class="cls-54" d="M57.84,3.79c.36,.58,1.46,1.37,2.5,1.72-2.21,.53-5.07,.05-7.46-.43V2.43c2.21,.71,6.02,1.07,8.68,.05-.44,.78-2.81,1.32-3.72,1.31Z"/>
      <polygon class="cls-9" points="68.6 31.85 67.96 16 43.48 24.63 43.03 40.83 43.33 41.11 56.92 33.32 68.6 31.85"/>
      <polygon class="cls-44" points="20.04 8.94 43.4 24.28 42.88 40.98 19.69 24.78 20.04 8.94"/>
      <polygon class="cls-37" points="52.74 11.31 67.68 15.77 43.64 24.26 52.74 11.31"/>
      <polygon class="cls-63" points="66.75 15.31 44.64 0 35.36 .3 52.41 11 66.75 15.31"/>
      <polygon class="cls-1" points="20.26 8.94 34.89 .42 52.28 11.36 43.4 24.01 20.26 8.94"/>
      <polygon class="cls-32" points="59.99 20.26 64.71 18.66 64.71 30.48 59.83 32.12 59.99 20.26"/>
      <polygon class="cls-15" points="60.84 21.41 63.51 20.56 63.69 29.7 60.94 30.52 60.84 21.41"/>
      <g>
        <polygon class="cls-41" points="47.49 24.35 52.21 22.75 52.21 34.57 47.34 36.21 47.49 24.35"/>
        <polygon class="cls-50" points="48.35 25.51 51.02 24.65 51.2 33.79 48.44 34.61 48.35 25.51"/>
      </g>
      <polygon class="cls-53" points="33.16 19.36 38.01 22.54 38.01 34.51 33.16 31.25 33.16 19.36"/>
      <polygon class="cls-51" points="34.16 21.43 36.85 23.29 36.96 32.67 34.16 30.73 34.16 21.43"/>
      <polygon class="cls-28" points="23.78 13.31 28.64 16.5 28.64 28.46 23.78 25.21 23.78 13.31"/>
      <polygon class="cls-52" points="24.81 15.16 27.5 17.02 27.61 26.4 24.81 24.46 24.81 15.16"/>
      <path id="path2308" class="cls-48" d="M83.19,61.36l.19-1.24-1.16,.35-.07-1.88-.85,1.33-.62-1.24-.47,1-.67-1.24-.08,2.15,3.23,1.99,2.01-1.44-1.51,.22Zm0,0l.19-1.24-1.16,.35-.07-1.88-.85,1.33-.62-1.24-.47,1-.67-1.24-.08,2.15,3.23,1.99,2.01-1.44-1.51,.22Zm-50.01-6.42l-2.97-2.01v12.3l3.07,2.21-.1-12.5Zm-2.73,10.17v-11.73l2.48,1.73,.1,11.91-2.58-1.91Zm2.73-10.17l-2.97-2.01v12.3l3.07,2.21-.1-12.5Zm-2.73,10.17v-11.73l2.48,1.73,.1,11.91-2.58-1.91Zm-7.39-16.72l-2.97-2.01v12.3l3.07,2.21-.1-12.5Zm-2.73,10.17v-11.73l2.48,1.73,.1,11.91-2.58-1.91Zm2.73-10.17l-2.97-2.01v12.3l3.07,2.21-.1-12.5Zm-2.73,10.17v-11.73l2.48,1.73,.1,11.91-2.58-1.91ZM51.21,24.26l-2.97,1.01v9.43l3.07-.92-.1-9.52Zm-2.72,10.09l-.03-8.9,2.41-.67,.2,8.75-2.58,.82Zm2.72-10.09l-2.97,1.01v9.43l3.07-.92-.1-9.52Zm-2.72,10.09l-.03-8.9,2.41-.67,.2,8.75-2.58,.82Zm-11.49-11.16l-2.97-2.01v9.58l3.07,2.2-.1-9.77Zm-2.73,7.44v-9l2.48,1.73,.1,9.18-2.58-1.91Zm29.42-10.37l-2.98,1.02v9.43l3.08-.92-.1-9.53Zm-2.7,10.07l-.05-8.9,2.4-.65,.23,8.76-2.58,.79Zm-23.99-7.14l-2.97-2.01v9.58l3.07,2.2-.1-9.77Zm-2.73,7.44v-9l2.48,1.73,.1,9.18-2.58-1.91Zm29.42-10.37l-2.98,1.02v9.43l3.08-.92-.1-9.53Zm-2.7,10.07l-.05-8.9,2.4-.65,.23,8.76-2.58,.79ZM27.63,16.99l-2.98-2.01v9.57l3.08,2.21-.1-9.77Zm-2.73,7.44V15.43l2.48,1.73,.1,9.18-2.58-1.91Zm2.73-7.44l-2.98-2.01v9.57l3.08,2.21-.1-9.77Zm-2.73,7.44V15.43l2.48,1.73,.1,9.18-2.58-1.91Zm-1.84,23.96l-2.97-2.01v12.3l3.07,2.21-.1-12.5Zm-2.73,10.17v-11.73l2.48,1.73,.1,11.91-2.58-1.91Zm7.3-41.57l-2.98-2.01v9.57l3.08,2.21-.1-9.77Zm-2.73,7.44V15.43l2.48,1.73,.1,9.18-2.58-1.91Zm8.28,30.51l-2.97-2.01v12.3l3.07,2.21-.1-12.5Zm-2.73,10.17v-11.73l2.48,1.73,.1,11.91-2.58-1.91Zm6.55-41.92l-2.97-2.01v9.58l3.07,2.2-.1-9.77Zm-2.73,7.44v-9l2.48,1.73,.1,9.18-2.58-1.91Zm16.94-6.37l-2.97,1.01v9.43l3.07-.92-.1-9.52Zm-2.72,10.09l-.03-8.9,2.41-.67,.2,8.75-2.58,.82Zm15.2-14.09l-2.98,1.02v9.43l3.08-.92-.1-9.53Zm-2.7,10.07l-.05-8.9,2.4-.65,.23,8.76-2.58,.79Zm22.2,31.03l.19-1.24-1.16,.35-.07-1.88-.85,1.33-.62-1.24-.47,1-.67-1.24-.08,2.15,3.23,1.99,2.01-1.44-1.51,.22ZM27.63,16.99l-2.98-2.01v9.57l3.08,2.21-.1-9.77Zm-2.73,7.44V15.43l2.48,1.73,.1,9.18-2.58-1.91Zm38.79-4.17l-2.98,1.02v9.43l3.08-.92-.1-9.53Zm-2.7,10.07l-.05-8.9,2.4-.65,.23,8.76-2.58,.79Zm-9.78-6.07l-2.97,1.01v9.43l3.07-.92-.1-9.52Zm-2.72,10.09l-.03-8.9,2.41-.67,.2,8.75-2.58,.82Zm-15.31,20.59l-2.97-2.01v12.3l3.07,2.21-.1-12.5Zm-2.73,10.17v-11.73l2.48,1.73,.1,11.91-2.58-1.91Zm6.55-41.92l-2.97-2.01v9.58l3.07,2.2-.1-9.77Zm-2.73,7.44v-9l2.48,1.73,.1,9.18-2.58-1.91Zm-11.21,17.76l-2.97-2.01v12.3l3.07,2.21-.1-12.5Zm-2.73,10.17v-11.73l2.48,1.73,.1,11.91-2.58-1.91Zm62.86,2.8l.19-1.24-1.16,.35-.07-1.88-.85,1.33-.62-1.24-.47,1-.67-1.24-.08,2.15,3.23,1.99,2.01-1.44-1.51,.22Zm-60.13-12.97l-2.97-2.01v12.3l3.07,2.21-.1-12.5Zm-2.73,10.17v-11.73l2.48,1.73,.1,11.91-2.58-1.91Zm7.3-41.57l-2.98-2.01v9.57l3.08,2.21-.1-9.77Zm-2.73,7.44V15.43l2.48,1.73,.1,9.18-2.58-1.91Zm8.28,30.51l-2.97-2.01v12.3l3.07,2.21-.1-12.5Zm-2.73,10.17v-11.73l2.48,1.73,.1,11.91-2.58-1.91Zm6.55-41.92l-2.97-2.01v9.58l3.07,2.2-.1-9.77Zm-2.73,7.44v-9l2.48,1.73,.1,9.18-2.58-1.91Zm16.94-6.37l-2.97,1.01v9.43l3.07-.92-.1-9.52Zm-2.72,10.09l-.03-8.9,2.41-.67,.2,8.75-2.58,.82Zm15.2-14.09l-2.98,1.02v9.43l3.08-.92-.1-9.53Zm-2.7,10.07l-.05-8.9,2.4-.65,.23,8.76-2.58,.79Zm22.2,31.03l.19-1.24-1.16,.35-.07-1.88-.85,1.33-.62-1.24-.47,1-.67-1.24-.08,2.15,3.23,1.99,2.01-1.44-1.51,.22ZM27.63,16.99l-2.98-2.01v9.57l3.08,2.21-.1-9.77Zm-2.73,7.44V15.43l2.48,1.73,.1,9.18-2.58-1.91Zm38.79-4.17l-2.98,1.02v9.43l3.08-.92-.1-9.53Zm-2.7,10.07l-.05-8.9,2.4-.65,.23,8.76-2.58,.79Zm-9.78-6.07l-2.97,1.01v9.43l3.07-.92-.1-9.52Zm-2.72,10.09l-.03-8.9,2.41-.67,.2,8.75-2.58,.82Zm-15.31,20.59l-2.97-2.01v12.3l3.07,2.21-.1-12.5Zm-2.73,10.17v-11.73l2.48,1.73,.1,11.91-2.58-1.91Zm6.55-41.92l-2.97-2.01v9.58l3.07,2.2-.1-9.77Zm-2.73,7.44v-9l2.48,1.73,.1,9.18-2.58-1.91Zm-11.21,17.76l-2.97-2.01v12.3l3.07,2.21-.1-12.5Zm-2.73,10.17v-11.73l2.48,1.73,.1,11.91-2.58-1.91Zm62.86,2.8l.19-1.24-1.16,.35-.07-1.88-.85,1.33-.62-1.24-.47,1-.67-1.24-.08,2.15,3.23,1.99,2.01-1.44-1.51,.22Zm-60.13-12.97l-2.97-2.01v12.3l3.07,2.21-.1-12.5Zm-2.73,10.17v-11.73l2.48,1.73,.1,11.91-2.58-1.91Zm7.3-41.57l-2.98-2.01v9.57l3.08,2.21-.1-9.77Zm-2.73,7.44V15.43l2.48,1.73,.1,9.18-2.58-1.91Zm8.28,30.51l-2.97-2.01v12.3l3.07,2.21-.1-12.5Zm-2.73,10.17v-11.73l2.48,1.73,.1,11.91-2.58-1.91Zm6.55-41.92l-2.97-2.01v9.58l3.07,2.2-.1-9.77Zm-2.73,7.44v-9l2.48,1.73,.1,9.18-2.58-1.91Zm16.94-6.37l-2.97,1.01v9.43l3.07-.92-.1-9.52Zm-2.72,10.09l-.03-8.9,2.41-.67,.2,8.75-2.58,.82Zm15.2-14.09l-2.98,1.02v9.43l3.08-.92-.1-9.53Zm-2.7,10.07l-.05-8.9,2.4-.65,.23,8.76-2.58,.79Zm22.2,31.03l.19-1.24-1.16,.35-.07-1.88-.85,1.33-.62-1.24-.47,1-.67-1.24-.08,2.15,3.23,1.99,2.01-1.44-1.51,.22ZM27.63,16.99l-2.98-2.01v9.57l3.08,2.21-.1-9.77Zm-2.73,7.44V15.43l2.48,1.73,.1,9.18-2.58-1.91Zm38.79-4.17l-2.98,1.02v9.43l3.08-.92-.1-9.53Zm-2.7,10.07l-.05-8.9,2.4-.65,.23,8.76-2.58,.79Zm-9.78-6.07l-2.97,1.01v9.43l3.07-.92-.1-9.52Zm-2.72,10.09l-.03-8.9,2.41-.67,.2,8.75-2.58,.82Zm-15.31,20.59l-2.97-2.01v12.3l3.07,2.21-.1-12.5Zm-2.73,10.17v-11.73l2.48,1.73,.1,11.91-2.58-1.91Zm6.55-41.92l-2.97-2.01v9.58l3.07,2.2-.1-9.77Zm-2.73,7.44v-9l2.48,1.73,.1,9.18-2.58-1.91Zm-11.21,17.76l-2.97-2.01v12.3l3.07,2.21-.1-12.5Zm-2.73,10.17v-11.73l2.48,1.73,.1,11.91-2.58-1.91Zm62.86,2.8l.19-1.24-1.16,.35-.07-1.88-.85,1.33-.62-1.24-.47,1-.67-1.24-.08,2.15,3.23,1.99,2.01-1.44-1.51,.22Zm-60.13-12.97l-2.97-2.01v12.3l3.07,2.21-.1-12.5Zm-2.73,10.17v-11.73l2.48,1.73,.1,11.91-2.58-1.91Zm7.3-41.57l-2.98-2.01v9.57l3.08,2.21-.1-9.77Zm-2.73,7.44V15.43l2.48,1.73,.1,9.18-2.58-1.91Zm8.28,30.51l-2.97-2.01v12.3l3.07,2.21-.1-12.5Zm-2.73,10.17v-11.73l2.48,1.73,.1,11.91-2.58-1.91Zm6.55-41.92l-2.97-2.01v9.58l3.07,2.2-.1-9.77Zm-2.73,7.44v-9l2.48,1.73,.1,9.18-2.58-1.91Zm16.94-6.37l-2.97,1.01v9.43l3.07-.92-.1-9.52Zm-2.72,10.09l-.03-8.9,2.41-.67,.2,8.75-2.58,.82Zm15.2-14.09l-2.98,1.02v9.43l3.08-.92-.1-9.53Zm-2.7,10.07l-.05-8.9,2.4-.65,.23,8.76-2.58,.79Zm22.2,31.03l.19-1.24-1.16,.35-.07-1.88-.85,1.33-.62-1.24-.47,1-.67-1.24-.08,2.15,3.23,1.99,2.01-1.44-1.51,.22ZM27.63,16.99l-2.98-2.01v9.57l3.08,2.21-.1-9.77Zm-2.73,7.44V15.43l2.48,1.73,.1,9.18-2.58-1.91Zm38.79-4.17l-2.98,1.02v9.43l3.08-.92-.1-9.53Zm-2.7,10.07l-.05-8.9,2.4-.65,.23,8.76-2.58,.79Zm-9.78-6.07l-2.97,1.01v9.43l3.07-.92-.1-9.52Zm-2.72,10.09l-.03-8.9,2.41-.67,.2,8.75-2.58,.82Zm-15.31,20.59l-2.97-2.01v12.3l3.07,2.21-.1-12.5Zm-2.73,10.17v-11.73l2.48,1.73,.1,11.91-2.58-1.91Zm6.55-41.92l-2.97-2.01v9.58l3.07,2.2-.1-9.77Zm-2.73,7.44v-9l2.48,1.73,.1,9.18-2.58-1.91Zm-11.21,17.76l-2.97-2.01v12.3l3.07,2.21-.1-12.5Zm-2.73,10.17v-11.73l2.48,1.73,.1,11.91-2.58-1.91Zm62.86,2.8l.19-1.24-1.16,.35-.07-1.88-.85,1.33-.62-1.24-.47,1-.67-1.24-.08,2.15,3.23,1.99,2.01-1.44-1.51,.22Zm-60.13-12.97l-2.97-2.01v12.3l3.07,2.21-.1-12.5Zm-2.73,10.17v-11.73l2.48,1.73,.1,11.91-2.58-1.91Zm7.3-41.57l-2.98-2.01v9.57l3.08,2.21-.1-9.77Zm-2.73,7.44V15.43l2.48,1.73,.1,9.18-2.58-1.91Zm8.28,30.51l-2.97-2.01v12.3l3.07,2.21-.1-12.5Zm-2.73,10.17v-11.73l2.48,1.73,.1,11.91-2.58-1.91Zm6.55-41.92l-2.97-2.01v9.58l3.07,2.2-.1-9.77Zm-2.73,7.44v-9l2.48,1.73,.1,9.18-2.58-1.91Zm16.94-6.37l-2.97,1.01v9.43l3.07-.92-.1-9.52Zm-2.72,10.09l-.03-8.9,2.41-.67,.2,8.75-2.58,.82Zm15.2-14.09l-2.98,1.02v9.43l3.08-.92-.1-9.53Zm-2.7,10.07l-.05-8.9,2.4-.65,.23,8.76-2.58,.79Zm22.2,31.03l.19-1.24-1.16,.35-.07-1.88-.85,1.33-.62-1.24-.47,1-.67-1.24-.08,2.15,3.23,1.99,2.01-1.44-1.51,.22ZM27.63,16.99l-2.98-2.01v9.57l3.08,2.21-.1-9.77Zm-2.73,7.44V15.43l2.48,1.73,.1,9.18-2.58-1.91Zm38.79-4.17l-2.98,1.02v9.43l3.08-.92-.1-9.53Zm-2.7,10.07l-.05-8.9,2.4-.65,.23,8.76-2.58,.79Zm-9.78-6.07l-2.97,1.01v9.43l3.07-.92-.1-9.52Zm-2.72,10.09l-.03-8.9,2.41-.67,.2,8.75-2.58,.82Zm-15.31,20.59l-2.97-2.01v12.3l3.07,2.21-.1-12.5Zm-2.73,10.17v-11.73l2.48,1.73,.1,11.91-2.58-1.91Zm6.55-41.92l-2.97-2.01v9.58l3.07,2.2-.1-9.77Zm-2.73,7.44v-9l2.48,1.73,.1,9.18-2.58-1.91Zm-11.21,17.76l-2.97-2.01v12.3l3.07,2.21-.1-12.5Zm-2.73,10.17v-11.73l2.48,1.73,.1,11.91-2.58-1.91Zm62.86,2.8l.19-1.24-1.16,.35-.07-1.88-.85,1.33-.62-1.24-.47,1-.67-1.24-.08,2.15,3.23,1.99,2.01-1.44-1.51,.22Zm-60.13-12.97l-2.97-2.01v12.3l3.07,2.21-.1-12.5Zm-2.73,10.17v-11.73l2.48,1.73,.1,11.91-2.58-1.91Zm7.3-41.57l-2.98-2.01v9.57l3.08,2.21-.1-9.77Zm-2.73,7.44V15.43l2.48,1.73,.1,9.18-2.58-1.91Zm8.28,30.51l-2.97-2.01v12.3l3.07,2.21-.1-12.5Zm-2.73,10.17v-11.73l2.48,1.73,.1,11.91-2.58-1.91Zm6.55-41.92l-2.97-2.01v9.58l3.07,2.2-.1-9.77Zm-2.73,7.44v-9l2.48,1.73,.1,9.18-2.58-1.91Zm16.94-6.37l-2.97,1.01v9.43l3.07-.92-.1-9.52Zm-2.72,10.09l-.03-8.9,2.41-.67,.2,8.75-2.58,.82Zm15.2-14.09l-2.98,1.02v9.43l3.08-.92-.1-9.53Zm-2.7,10.07l-.05-8.9,2.4-.65,.23,8.76-2.58,.79Zm22.2,31.03l.19-1.24-1.16,.35-.07-1.88-.85,1.33-.62-1.24-.47,1-.67-1.24-.08,2.15,3.23,1.99,2.01-1.44-1.51,.22ZM27.63,16.99l-2.98-2.01v9.57l3.08,2.21-.1-9.77Zm-2.73,7.44V15.43l2.48,1.73,.1,9.18-2.58-1.91Zm38.79-4.17l-2.98,1.02v9.43l3.08-.92-.1-9.53Zm-2.7,10.07l-.05-8.9,2.4-.65,.23,8.76-2.58,.79Zm-9.78-6.07l-2.97,1.01v9.43l3.07-.92-.1-9.52Zm-2.72,10.09l-.03-8.9,2.41-.67,.2,8.75-2.58,.82Zm-15.31,20.59l-2.97-2.01v12.3l3.07,2.21-.1-12.5Zm-2.73,10.17v-11.73l2.48,1.73,.1,11.91-2.58-1.91Zm6.55-41.92l-2.97-2.01v9.58l3.07,2.2-.1-9.77Zm-2.73,7.44v-9l2.48,1.73,.1,9.18-2.58-1.91Zm-11.21,17.76l-2.97-2.01v12.3l3.07,2.21-.1-12.5Zm-2.73,10.17v-11.73l2.48,1.73,.1,11.91-2.58-1.91Zm62.86,2.8l.19-1.24-1.16,.35-.07-1.88-.85,1.33-.62-1.24-.47,1-.67-1.24-.08,2.15,3.23,1.99,2.01-1.44-1.51,.22Zm-60.13-12.97l-2.97-2.01v12.3l3.07,2.21-.1-12.5Zm-2.73,10.17v-11.73l2.48,1.73,.1,11.91-2.58-1.91Zm7.3-41.57l-2.98-2.01v9.57l3.08,2.21-.1-9.77Zm-2.73,7.44V15.43l2.48,1.73,.1,9.18-2.58-1.91Zm8.28,30.51l-2.97-2.01v12.3l3.07,2.21-.1-12.5Zm-2.73,10.17v-11.73l2.48,1.73,.1,11.91-2.58-1.91Zm6.55-41.92l-2.97-2.01v9.58l3.07,2.2-.1-9.77Zm-2.73,7.44v-9l2.48,1.73,.1,9.18-2.58-1.91Zm16.94-6.37l-2.97,1.01v9.43l3.07-.92-.1-9.52Zm-2.72,10.09l-.03-8.9,2.41-.67,.2,8.75-2.58,.82Zm15.2-14.09l-2.98,1.02v9.43l3.08-.92-.1-9.53Zm-2.7,10.07l-.05-8.9,2.4-.65,.23,8.76-2.58,.79Zm22.2,31.03l.19-1.24-1.16,.35-.07-1.88-.85,1.33-.62-1.24-.47,1-.67-1.24-.08,2.15,3.23,1.99,2.01-1.44-1.51,.22ZM27.63,16.99l-2.98-2.01v9.57l3.08,2.21-.1-9.77Zm-2.73,7.44V15.43l2.48,1.73,.1,9.18-2.58-1.91Zm38.79-4.17l-2.98,1.02v9.43l3.08-.92-.1-9.53Zm-2.7,10.07l-.05-8.9,2.4-.65,.23,8.76-2.58,.79Zm-9.78-6.07l-2.97,1.01v9.43l3.07-.92-.1-9.52Zm-2.72,10.09l-.03-8.9,2.41-.67,.2,8.75-2.58,.82Zm-15.31,20.59l-2.97-2.01v12.3l3.07,2.21-.1-12.5Zm-2.73,10.17v-11.73l2.48,1.73,.1,11.91-2.58-1.91Zm6.55-41.92l-2.97-2.01v9.58l3.07,2.2-.1-9.77Zm-2.73,7.44v-9l2.48,1.73,.1,9.18-2.58-1.91Zm-11.21,17.76l-2.97-2.01v12.3l3.07,2.21-.1-12.5Zm-2.73,10.17v-11.73l2.48,1.73,.1,11.91-2.58-1.91Zm62.86,2.8l.19-1.24-1.16,.35-.07-1.88-.85,1.33-.62-1.24-.47,1-.67-1.24-.08,2.15,3.23,1.99,2.01-1.44-1.51,.22Zm-60.13-12.97l-2.97-2.01v12.3l3.07,2.21-.1-12.5Zm-2.73,10.17v-11.73l2.48,1.73,.1,11.91-2.58-1.91Zm7.3-41.57l-2.98-2.01v9.57l3.08,2.21-.1-9.77Zm-2.73,7.44V15.43l2.48,1.73,.1,9.18-2.58-1.91Zm8.28,30.51l-2.97-2.01v12.3l3.07,2.21-.1-12.5Zm-2.73,10.17v-11.73l2.48,1.73,.1,11.91-2.58-1.91Zm6.55-41.92l-2.97-2.01v9.58l3.07,2.2-.1-9.77Zm-2.73,7.44v-9l2.48,1.73,.1,9.18-2.58-1.91Zm16.94-6.37l-2.97,1.01v9.43l3.07-.92-.1-9.52Zm-2.72,10.09l-.03-8.9,2.41-.67,.2,8.75-2.58,.82Zm15.2-14.09l-2.98,1.02v9.43l3.08-.92-.1-9.53Zm-2.7,10.07l-.05-8.9,2.4-.65,.23,8.76-2.58,.79Zm22.2,31.03l.19-1.24-1.16,.35-.07-1.88-.85,1.33-.62-1.24-.47,1-.67-1.24-.08,2.15,3.23,1.99,2.01-1.44-1.51,.22ZM27.63,16.99l-2.98-2.01v9.57l3.08,2.21-.1-9.77Zm-2.73,7.44V15.43l2.48,1.73,.1,9.18-2.58-1.91Zm38.79-4.17l-2.98,1.02v9.43l3.08-.92-.1-9.53Zm-2.7,10.07l-.05-8.9,2.4-.65,.23,8.76-2.58,.79Zm-9.78-6.07l-2.97,1.01v9.43l3.07-.92-.1-9.52Zm-2.72,10.09l-.03-8.9,2.41-.67,.2,8.75-2.58,.82Zm-15.31,20.59l-2.97-2.01v12.3l3.07,2.21-.1-12.5Zm-2.73,10.17v-11.73l2.48,1.73,.1,11.91-2.58-1.91Zm6.55-41.92l-2.97-2.01v9.58l3.07,2.2-.1-9.77Zm-2.73,7.44v-9l2.48,1.73,.1,9.18-2.58-1.91Zm-11.21,17.76l-2.97-2.01v12.3l3.07,2.21-.1-12.5Zm-2.73,10.17v-11.73l2.48,1.73,.1,11.91-2.58-1.91Zm62.86,2.8l.19-1.24-1.16,.35-.07-1.88-.85,1.33-.62-1.24-.47,1-.67-1.24-.08,2.15,3.23,1.99,2.01-1.44-1.51,.22Zm-60.13-12.97l-2.97-2.01v12.3l3.07,2.21-.1-12.5Zm-2.73,10.17v-11.73l2.48,1.73,.1,11.91-2.58-1.91Zm7.3-41.57l-2.98-2.01v9.57l3.08,2.21-.1-9.77Zm-2.73,7.44V15.43l2.48,1.73,.1,9.18-2.58-1.91Zm8.28,30.51l-2.97-2.01v12.3l3.07,2.21-.1-12.5Zm-2.73,10.17v-11.73l2.48,1.73,.1,11.91-2.58-1.91Zm6.55-41.92l-2.97-2.01v9.58l3.07,2.2-.1-9.77Zm-2.73,7.44v-9l2.48,1.73,.1,9.18-2.58-1.91Zm16.94-6.37l-2.97,1.01v9.43l3.07-.92-.1-9.52Zm-2.72,10.09l-.03-8.9,2.41-.67,.2,8.75-2.58,.82Zm15.2-14.09l-2.98,1.02v9.43l3.08-.92-.1-9.53Zm-2.7,10.07l-.05-8.9,2.4-.65,.23,8.76-2.58,.79Zm22.2,31.03l.19-1.24-1.16,.35-.07-1.88-.85,1.33-.62-1.24-.47,1-.67-1.24-.08,2.15,3.23,1.99,2.01-1.44-1.51,.22ZM27.63,16.99l-2.98-2.01v9.57l3.08,2.21-.1-9.77Zm-2.73,7.44V15.43l2.48,1.73,.1,9.18-2.58-1.91Zm38.79-4.17l-2.98,1.02v9.43l3.08-.92-.1-9.53Zm-2.7,10.07l-.05-8.9,2.4-.65,.23,8.76-2.58,.79Zm-9.78-6.07l-2.97,1.01v9.43l3.07-.92-.1-9.52Zm-2.72,10.09l-.03-8.9,2.41-.67,.2,8.75-2.58,.82Zm-15.31,20.59l-2.97-2.01v12.3l3.07,2.21-.1-12.5Zm-2.73,10.17v-11.73l2.48,1.73,.1,11.91-2.58-1.91Zm6.55-41.92l-2.97-2.01v9.58l3.07,2.2-.1-9.77Zm-2.73,7.44v-9l2.48,1.73,.1,9.18-2.58-1.91Zm-11.21,17.76l-2.97-2.01v12.3l3.07,2.21-.1-12.5Zm-2.73,10.17v-11.73l2.48,1.73,.1,11.91-2.58-1.91Zm62.86,2.8l.19-1.24-1.16,.35-.07-1.88-.85,1.33-.62-1.24-.47,1-.67-1.24-.08,2.15,3.23,1.99,2.01-1.44-1.51,.22Zm-60.13-12.97l-2.97-2.01v12.3l3.07,2.21-.1-12.5Zm-2.73,10.17v-11.73l2.48,1.73,.1,11.91-2.58-1.91Zm7.3-41.57l-2.98-2.01v9.57l3.08,2.21-.1-9.77Zm-2.73,7.44V15.43l2.48,1.73,.1,9.18-2.58-1.91Zm8.28,30.51l-2.97-2.01v12.3l3.07,2.21-.1-12.5Zm-2.73,10.17v-11.73l2.48,1.73,.1,11.91-2.58-1.91Zm6.55-41.92l-2.97-2.01v9.58l3.07,2.2-.1-9.77Zm-2.73,7.44v-9l2.48,1.73,.1,9.18-2.58-1.91Zm16.94-6.37l-2.97,1.01v9.43l3.07-.92-.1-9.52Zm-2.72,10.09l-.03-8.9,2.41-.67,.2,8.75-2.58,.82Zm15.2-14.09l-2.98,1.02v9.43l3.08-.92-.1-9.53Zm-2.7,10.07l-.05-8.9,2.4-.65,.23,8.76-2.58,.79Zm22.2,31.03l.19-1.24-1.16,.35-.07-1.88-.85,1.33-.62-1.24-.47,1-.67-1.24-.08,2.15,3.23,1.99,2.01-1.44-1.51,.22ZM27.63,16.99l-2.98-2.01v9.57l3.08,2.21-.1-9.77Zm-2.73,7.44V15.43l2.48,1.73,.1,9.18-2.58-1.91Zm38.79-4.17l-2.98,1.02v9.43l3.08-.92-.1-9.53Zm-2.7,10.07l-.05-8.9,2.4-.65,.23,8.76-2.58,.79Zm-9.78-6.07l-2.97,1.01v9.43l3.07-.92-.1-9.52Zm-2.72,10.09l-.03-8.9,2.41-.67,.2,8.75-2.58,.82Zm-15.31,20.59l-2.97-2.01v12.3l3.07,2.21-.1-12.5Zm-2.73,10.17v-11.73l2.48,1.73,.1,11.91-2.58-1.91Zm6.55-41.92l-2.97-2.01v9.58l3.07,2.2-.1-9.77Zm-2.73,7.44v-9l2.48,1.73,.1,9.18-2.58-1.91Zm-11.21,17.76l-2.97-2.01v12.3l3.07,2.21-.1-12.5Zm-2.73,10.17v-11.73l2.48,1.73,.1,11.91-2.58-1.91Zm62.86,2.8l.19-1.24-1.16,.35-.07-1.88-.85,1.33-.62-1.24-.47,1-.67-1.24-.08,2.15,3.23,1.99,2.01-1.44-1.51,.22Zm-60.13-12.97l-2.97-2.01v12.3l3.07,2.21-.1-12.5Zm-2.73,10.17v-11.73l2.48,1.73,.1,11.91-2.58-1.91Zm7.3-41.57l-2.98-2.01v9.57l3.08,2.21-.1-9.77Zm-2.73,7.44V15.43l2.48,1.73,.1,9.18-2.58-1.91Zm8.28,30.51l-2.97-2.01v12.3l3.07,2.21-.1-12.5Zm-2.73,10.17v-11.73l2.48,1.73,.1,11.91-2.58-1.91Zm6.55-41.92l-2.97-2.01v9.58l3.07,2.2-.1-9.77Zm-2.73,7.44v-9l2.48,1.73,.1,9.18-2.58-1.91Zm16.94-6.37l-2.97,1.01v9.43l3.07-.92-.1-9.52Zm-2.72,10.09l-.03-8.9,2.41-.67,.2,8.75-2.58,.82Zm15.2-14.09l-2.98,1.02v9.43l3.08-.92-.1-9.53Zm-2.7,10.07l-.05-8.9,2.4-.65,.23,8.76-2.58,.79Zm22.2,31.03l.19-1.24-1.16,.35-.07-1.88-.85,1.33-.62-1.24-.47,1-.67-1.24-.08,2.15,3.23,1.99,2.01-1.44-1.51,.22ZM27.63,16.99l-2.98-2.01v9.57l3.08,2.21-.1-9.77Zm-2.73,7.44V15.43l2.48,1.73,.1,9.18-2.58-1.91Zm38.79-4.17l-2.98,1.02v9.43l3.08-.92-.1-9.53Zm-2.7,10.07l-.05-8.9,2.4-.65,.23,8.76-2.58,.79Zm-9.78-6.07l-2.97,1.01v9.43l3.07-.92-.1-9.52Zm-2.72,10.09l-.03-8.9,2.41-.67,.2,8.75-2.58,.82Zm-15.31,20.59l-2.97-2.01v12.3l3.07,2.21-.1-12.5Zm-2.73,10.17v-11.73l2.48,1.73,.1,11.91-2.58-1.91Zm6.55-41.92l-2.97-2.01v9.58l3.07,2.2-.1-9.77Zm-2.73,7.44v-9l2.48,1.73,.1,9.18-2.58-1.91Zm-11.21,17.76l-2.97-2.01v12.3l3.07,2.21-.1-12.5Zm-2.73,10.17v-11.73l2.48,1.73,.1,11.91-2.58-1.91Zm62.86,2.8l.19-1.24-1.16,.35-.07-1.88-.85,1.33-.62-1.24-.47,1-.67-1.24-.08,2.15,3.23,1.99,2.01-1.44-1.51,.22Zm-60.13-12.97l-2.97-2.01v12.3l3.07,2.21-.1-12.5Zm-2.73,10.17v-11.73l2.48,1.73,.1,11.91-2.58-1.91Zm7.3-41.57l-2.98-2.01v9.57l3.08,2.21-.1-9.77Zm-2.73,7.44V15.43l2.48,1.73,.1,9.18-2.58-1.91Zm8.28,30.51l-2.97-2.01v12.3l3.07,2.21-.1-12.5Zm-2.73,10.17v-11.73l2.48,1.73,.1,11.91-2.58-1.91Zm6.55-41.92l-2.97-2.01v9.58l3.07,2.2-.1-9.77Zm-2.73,7.44v-9l2.48,1.73,.1,9.18-2.58-1.91Zm16.94-6.37l-2.97,1.01v9.43l3.07-.92-.1-9.52Zm-2.72,10.09l-.03-8.9,2.41-.67,.2,8.75-2.58,.82Zm15.2-14.09l-2.98,1.02v9.43l3.08-.92-.1-9.53Zm-2.7,10.07l-.05-8.9,2.4-.65,.23,8.76-2.58,.79Zm22.2,31.03l.19-1.24-1.16,.35-.07-1.88-.85,1.33-.62-1.24-.47,1-.67-1.24-.08,2.15,3.23,1.99,2.01-1.44-1.51,.22ZM27.63,16.99l-2.98-2.01v9.57l3.08,2.21-.1-9.77Zm-2.73,7.44V15.43l2.48,1.73,.1,9.18-2.58-1.91Zm38.79-4.17l-2.98,1.02v9.43l3.08-.92-.1-9.53Zm-2.7,10.07l-.05-8.9,2.4-.65,.23,8.76-2.58,.79Zm-9.78-6.07l-2.97,1.01v9.43l3.07-.92-.1-9.52Zm-2.72,10.09l-.03-8.9,2.41-.67,.2,8.75-2.58,.82Zm-15.31,20.59l-2.97-2.01v12.3l3.07,2.21-.1-12.5Zm-2.73,10.17v-11.73l2.48,1.73,.1,11.91-2.58-1.91Zm6.55-41.92l-2.97-2.01v9.58l3.07,2.2-.1-9.77Zm-2.73,7.44v-9l2.48,1.73,.1,9.18-2.58-1.91Zm-11.21,17.76l-2.97-2.01v12.3l3.07,2.21-.1-12.5Zm-2.73,10.17v-11.73l2.48,1.73,.1,11.91-2.58-1.91Zm62.86,2.8l.19-1.24-1.16,.35-.07-1.88-.85,1.33-.62-1.24-.47,1-.67-1.24-.08,2.15,3.23,1.99,2.01-1.44-1.51,.22Zm-60.13-12.97l-2.97-2.01v12.3l3.07,2.21-.1-12.5Zm-2.73,10.17v-11.73l2.48,1.73,.1,11.91-2.58-1.91Zm7.3-41.57l-2.98-2.01v9.57l3.08,2.21-.1-9.77Zm-2.73,7.44V15.43l2.48,1.73,.1,9.18-2.58-1.91Zm8.28,30.51l-2.97-2.01v12.3l3.07,2.21-.1-12.5Zm-2.73,10.17v-11.73l2.48,1.73,.1,11.91-2.58-1.91Zm6.55-41.92l-2.97-2.01v9.58l3.07,2.2-.1-9.77Zm-2.73,7.44v-9l2.48,1.73,.1,9.18-2.58-1.91Zm16.94-6.37l-2.97,1.01v9.43l3.07-.92-.1-9.52Zm-2.72,10.09l-.03-8.9,2.41-.67,.2,8.75-2.58,.82Zm15.2-14.09l-2.98,1.02v9.43l3.08-.92-.1-9.53Zm-2.7,10.07l-.05-8.9,2.4-.65,.23,8.76-2.58,.79Zm22.2,31.03l.19-1.24-1.16,.35-.07-1.88-.85,1.33-.62-1.24-.47,1-.67-1.24-.08,2.15,3.23,1.99,2.01-1.44-1.51,.22ZM27.63,16.99l-2.98-2.01v9.57l3.08,2.21-.1-9.77Zm-2.73,7.44V15.43l2.48,1.73,.1,9.18-2.58-1.91Zm38.79-4.17l-2.98,1.02v9.43l3.08-.92-.1-9.53Zm-2.7,10.07l-.05-8.9,2.4-.65,.23,8.76-2.58,.79Zm-9.78-6.07l-2.97,1.01v9.43l3.07-.92-.1-9.52Zm-2.72,10.09l-.03-8.9,2.41-.67,.2,8.75-2.58,.82Zm-15.31,20.59l-2.97-2.01v12.3l3.07,2.21-.1-12.5Zm-2.73,10.17v-11.73l2.48,1.73,.1,11.91-2.58-1.91Zm6.55-41.92l-2.97-2.01v9.58l3.07,2.2-.1-9.77Zm-2.73,7.44v-9l2.48,1.73,.1,9.18-2.58-1.91Zm-11.21,17.76l-2.97-2.01v12.3l3.07,2.21-.1-12.5Zm-2.73,10.17v-11.73l2.48,1.73,.1,11.91-2.58-1.91Zm62.86,2.8l.19-1.24-1.16,.35-.07-1.88-.85,1.33-.62-1.24-.47,1-.67-1.24-.08,2.15,3.23,1.99,2.01-1.44-1.51,.22Zm-60.13-12.97l-2.97-2.01v12.3l3.07,2.21-.1-12.5Zm-2.73,10.17v-11.73l2.48,1.73,.1,11.91-2.58-1.91Zm7.3-41.57l-2.98-2.01v9.57l3.08,2.21-.1-9.77Zm-2.73,7.44V15.43l2.48,1.73,.1,9.18-2.58-1.91Zm8.28,30.51l-2.97-2.01v12.3l3.07,2.21-.1-12.5Zm-2.73,10.17v-11.73l2.48,1.73,.1,11.91-2.58-1.91Zm6.55-41.92l-2.97-2.01v9.58l3.07,2.2-.1-9.77Zm-2.73,7.44v-9l2.48,1.73,.1,9.18-2.58-1.91Zm16.94-6.37l-2.97,1.01v9.43l3.07-.92-.1-9.52Zm-2.72,10.09l-.03-8.9,2.41-.67,.2,8.75-2.58,.82Zm15.2-14.09l-2.98,1.02v9.43l3.08-.92-.1-9.53Zm-2.7,10.07l-.05-8.9,2.4-.65,.23,8.76-2.58,.79Zm22.2,31.03l.19-1.24-1.16,.35-.07-1.88-.85,1.33-.62-1.24-.47,1-.67-1.24-.08,2.15,3.23,1.99,2.01-1.44-1.51,.22ZM27.63,16.99l-2.98-2.01v9.57l3.08,2.21-.1-9.77Zm-2.73,7.44V15.43l2.48,1.73,.1,9.18-2.58-1.91Zm38.79-4.17l-2.98,1.02v9.43l3.08-.92-.1-9.53Zm-2.7,10.07l-.05-8.9,2.4-.65,.23,8.76-2.58,.79Zm-9.78-6.07l-2.97,1.01v9.43l3.07-.92-.1-9.52Zm-2.72,10.09l-.03-8.9,2.41-.67,.2,8.75-2.58,.82Zm-15.31,20.59l-2.97-2.01v12.3l3.07,2.21-.1-12.5Zm-2.73,10.17v-11.73l2.48,1.73,.1,11.91-2.58-1.91Zm6.55-41.92l-2.97-2.01v9.58l3.07,2.2-.1-9.77Zm-2.73,7.44v-9l2.48,1.73,.1,9.18-2.58-1.91Zm-11.21,17.76l-2.97-2.01v12.3l3.07,2.21-.1-12.5Zm-2.73,10.17v-11.73l2.48,1.73,.1,11.91-2.58-1.91Zm62.86,2.8l.19-1.24-1.16,.35-.07-1.88-.85,1.33-.62-1.24-.47,1-.67-1.24-.08,2.15,3.23,1.99,2.01-1.44-1.51,.22Zm-60.13-12.97l-2.97-2.01v12.3l3.07,2.21-.1-12.5Zm-2.73,10.17v-11.73l2.48,1.73,.1,11.91-2.58-1.91Zm7.3-41.57l-2.98-2.01v9.57l3.08,2.21-.1-9.77Zm-2.73,7.44V15.43l2.48,1.73,.1,9.18-2.58-1.91Zm8.28,30.51l-2.97-2.01v12.3l3.07,2.21-.1-12.5Zm-2.73,10.17v-11.73l2.48,1.73,.1,11.91-2.58-1.91Zm6.55-41.92l-2.97-2.01v9.58l3.07,2.2-.1-9.77Zm-2.73,7.44v-9l2.48,1.73,.1,9.18-2.58-1.91Zm16.94-6.37l-2.97,1.01v9.43l3.07-.92-.1-9.52Zm-2.72,10.09l-.03-8.9,2.41-.67,.2,8.75-2.58,.82Zm15.2-14.09l-2.98,1.02v9.43l3.08-.92-.1-9.53Zm-2.7,10.07l-.05-8.9,2.4-.65,.23,8.76-2.58,.79Zm22.2,31.03l.19-1.24-1.16,.35-.07-1.88-.85,1.33-.62-1.24-.47,1-.67-1.24-.08,2.15,3.23,1.99,2.01-1.44-1.51,.22ZM27.63,16.99l-2.98-2.01v9.57l3.08,2.21-.1-9.77Zm-2.73,7.44V15.43l2.48,1.73,.1,9.18-2.58-1.91Zm38.79-4.17l-2.98,1.02v9.43l3.08-.92-.1-9.53Zm-2.7,10.07l-.05-8.9,2.4-.65,.23,8.76-2.58,.79Zm-9.78-6.07l-2.97,1.01v9.43l3.07-.92-.1-9.52Zm-2.72,10.09l-.03-8.9,2.41-.67,.2,8.75-2.58,.82Zm-15.31,20.59l-2.97-2.01v12.3l3.07,2.21-.1-12.5Zm-2.73,10.17v-11.73l2.48,1.73,.1,11.91-2.58-1.91Zm6.55-41.92l-2.97-2.01v9.58l3.07,2.2-.1-9.77Zm-2.73,7.44v-9l2.48,1.73,.1,9.18-2.58-1.91Zm-11.21,17.76l-2.97-2.01v12.3l3.07,2.21-.1-12.5Zm-2.73,10.17v-11.73l2.48,1.73,.1,11.91-2.58-1.91Zm62.86,2.8l.19-1.24-1.16,.35-.07-1.88-.85,1.33-.62-1.24-.47,1-.67-1.24-.08,2.15,3.23,1.99,2.01-1.44-1.51,.22Zm-60.13-12.97l-2.97-2.01v12.3l3.07,2.21-.1-12.5Zm-2.73,10.17v-11.73l2.48,1.73,.1,11.91-2.58-1.91Zm7.3-41.57l-2.98-2.01v9.57l3.08,2.21-.1-9.77Zm-2.73,7.44V15.43l2.48,1.73,.1,9.18-2.58-1.91Zm8.28,30.51l-2.97-2.01v12.3l3.07,2.21-.1-12.5Zm-2.73,10.17v-11.73l2.48,1.73,.1,11.91-2.58-1.91Zm6.55-41.92l-2.97-2.01v9.58l3.07,2.2-.1-9.77Zm-2.73,7.44v-9l2.48,1.73,.1,9.18-2.58-1.91Zm16.94-6.37l-2.97,1.01v9.43l3.07-.92-.1-9.52Zm-2.72,10.09l-.03-8.9,2.41-.67,.2,8.75-2.58,.82Zm15.2-14.09l-2.98,1.02v9.43l3.08-.92-.1-9.53Zm-2.7,10.07l-.05-8.9,2.4-.65,.23,8.76-2.58,.79Zm22.2,31.03l.19-1.24-1.16,.35-.07-1.88-.85,1.33-.62-1.24-.47,1-.67-1.24-.08,2.15,3.23,1.99,2.01-1.44-1.51,.22ZM27.63,16.99l-2.98-2.01v9.57l3.08,2.21-.1-9.77Zm-2.73,7.44V15.43l2.48,1.73,.1,9.18-2.58-1.91Zm38.79-4.17l-2.98,1.02v9.43l3.08-.92-.1-9.53Zm-2.7,10.07l-.05-8.9,2.4-.65,.23,8.76-2.58,.79Zm-9.78-6.07l-2.97,1.01v9.43l3.07-.92-.1-9.52Zm-2.72,10.09l-.03-8.9,2.41-.67,.2,8.75-2.58,.82Zm-15.31,20.59l-2.97-2.01v12.3l3.07,2.21-.1-12.5Zm-2.73,10.17v-11.73l2.48,1.73,.1,11.91-2.58-1.91Zm6.55-41.92l-2.97-2.01v9.58l3.07,2.2-.1-9.77Zm-2.73,7.44v-9l2.48,1.73,.1,9.18-2.58-1.91Zm-11.21,17.76l-2.97-2.01v12.3l3.07,2.21-.1-12.5Zm-2.73,10.17v-11.73l2.48,1.73,.1,11.91-2.58-1.91Zm62.86,2.8l.19-1.24-1.16,.35-.07-1.88-.85,1.33-.62-1.24-.47,1-.67-1.24-.08,2.15,3.23,1.99,2.01-1.44-1.51,.22Zm-60.13-12.97l-2.97-2.01v12.3l3.07,2.21-.1-12.5Zm-2.73,10.17v-11.73l2.48,1.73,.1,11.91-2.58-1.91Zm7.3-41.57l-2.98-2.01v9.57l3.08,2.21-.1-9.77Zm-2.73,7.44V15.43l2.48,1.73,.1,9.18-2.58-1.91Zm8.28,30.51l-2.97-2.01v12.3l3.07,2.21-.1-12.5Zm-2.73,10.17v-11.73l2.48,1.73,.1,11.91-2.58-1.91Zm6.55-41.92l-2.97-2.01v9.58l3.07,2.2-.1-9.77Zm-2.73,7.44v-9l2.48,1.73,.1,9.18-2.58-1.91Zm16.94-6.37l-2.97,1.01v9.43l3.07-.92-.1-9.52Zm-2.72,10.09l-.03-8.9,2.41-.67,.2,8.75-2.58,.82Zm15.2-14.09l-2.98,1.02v9.43l3.08-.92-.1-9.53Zm-2.7,10.07l-.05-8.9,2.4-.65,.23,8.76-2.58,.79Zm22.2,31.03l.19-1.24-1.16,.35-.07-1.88-.85,1.33-.62-1.24-.47,1-.67-1.24-.08,2.15,3.23,1.99,2.01-1.44-1.51,.22ZM27.63,16.99l-2.98-2.01v9.57l3.08,2.21-.1-9.77Zm-2.73,7.44V15.43l2.48,1.73,.1,9.18-2.58-1.91Zm38.79-4.17l-2.98,1.02v9.43l3.08-.92-.1-9.53Zm-2.7,10.07l-.05-8.9,2.4-.65,.23,8.76-2.58,.79Zm-9.78-6.07l-2.97,1.01v9.43l3.07-.92-.1-9.52Zm-2.72,10.09l-.03-8.9,2.41-.67,.2,8.75-2.58,.82Zm-15.31,20.59l-2.97-2.01v12.3l3.07,2.21-.1-12.5Zm-2.73,10.17v-11.73l2.48,1.73,.1,11.91-2.58-1.91Zm6.55-41.92l-2.97-2.01v9.58l3.07,2.2-.1-9.77Zm-2.73,7.44v-9l2.48,1.73,.1,9.18-2.58-1.91Zm-11.21,17.76l-2.97-2.01v12.3l3.07,2.21-.1-12.5Zm-2.73,10.17v-11.73l2.48,1.73,.1,11.91-2.58-1.91Zm62.86,2.8l.19-1.24-1.16,.35-.07-1.88-.85,1.33-.62-1.24-.47,1-.67-1.24-.08,2.15,3.23,1.99,2.01-1.44-1.51,.22Zm-60.13-12.97l-2.97-2.01v12.3l3.07,2.21-.1-12.5Zm-2.73,10.17v-11.73l2.48,1.73,.1,11.91-2.58-1.91Zm7.3-41.57l-2.98-2.01v9.57l3.08,2.21-.1-9.77Zm-2.73,7.44V15.43l2.48,1.73,.1,9.18-2.58-1.91Zm8.28,30.51l-2.97-2.01v12.3l3.07,2.21-.1-12.5Zm-2.73,10.17v-11.73l2.48,1.73,.1,11.91-2.58-1.91Zm6.55-41.92l-2.97-2.01v9.58l3.07,2.2-.1-9.77Zm-2.73,7.44v-9l2.48,1.73,.1,9.18-2.58-1.91Zm16.94-6.37l-2.97,1.01v9.43l3.07-.92-.1-9.52Zm-2.72,10.09l-.03-8.9,2.41-.67,.2,8.75-2.58,.82Zm15.2-14.09l-2.98,1.02v9.43l3.08-.92-.1-9.53Zm-2.7,10.07l-.05-8.9,2.4-.65,.23,8.76-2.58,.79Zm22.2,31.03l.19-1.24-1.16,.35-.07-1.88-.85,1.33-.62-1.24-.47,1-.67-1.24-.08,2.15,3.23,1.99,2.01-1.44-1.51,.22ZM27.63,16.99l-2.98-2.01v9.57l3.08,2.21-.1-9.77Zm-2.73,7.44V15.43l2.48,1.73,.1,9.18-2.58-1.91Zm38.79-4.17l-2.98,1.02v9.43l3.08-.92-.1-9.53Zm-2.7,10.07l-.05-8.9,2.4-.65,.23,8.76-2.58,.79Zm-9.78-6.07l-2.97,1.01v9.43l3.07-.92-.1-9.52Zm-2.72,10.09l-.03-8.9,2.41-.67,.2,8.75-2.58,.82Zm-15.31,20.59l-2.97-2.01v12.3l3.07,2.21-.1-12.5Zm-2.73,10.17v-11.73l2.48,1.73,.1,11.91-2.58-1.91Zm6.55-41.92l-2.97-2.01v9.58l3.07,2.2-.1-9.77Zm-2.73,7.44v-9l2.48,1.73,.1,9.18-2.58-1.91Zm-11.21,17.76l-2.97-2.01v12.3l3.07,2.21-.1-12.5Zm-2.73,10.17v-11.73l2.48,1.73,.1,11.91-2.58-1.91Zm62.86,2.8l.19-1.24-1.16,.35-.07-1.88-.85,1.33-.62-1.24-.47,1-.67-1.24-.08,2.15,3.23,1.99,2.01-1.44-1.51,.22Zm4.19-.59c-.05-.28-.19-.55-.38-.72l-3.79-2.93v-4.29l-.02-14.09-14.49-10.27-.62-12.62-15.2-10.29v-.18c2.8,.76,5.57,.67,8.38,.37-.79-.53-1.83-.67-2.85-1.63,1.85-.09,3.16-1.46,4.31-2.14-3.28,.47-6.52,1.42-9.84,0v-.89c-.2-.4-.22-.3-.55,.1l-.02,3.99L44.64,0h-9.72l-15.11,8.81-.37,15.79-12.97,8.26,.02,19.97-6.49,2.23,.04,4.86H.04s44.18,29.62,44.18,29.62l51.32-18.08,.02-4.96-8.18-5.73ZM52.88,2.43c2.21,.71,6.02,1.07,8.68,.05-.44,.78-2.81,1.32-3.72,1.31,.36,.58,1.46,1.37,2.5,1.72-2.21,.53-5.07,.05-7.46-.43V2.43Zm33.98,57.99c.22,.39,.42,1.05-.35,.75l-.44-.33,.58-.42-.36-.17-.48,.39-10.93-8.16c-.63-.68-.03-1.14,.47-1.16l11.51,9.1Zm-8.63-.37l.15-4.54,6.86,5.23,.06,4-7.07-4.69Zm1.19,1.31l-1.29,.45,.02-1.27,1.27,.82Zm-9.45,3.3l-1,.35,1.62-2.53,.02,1.22-.64,.96Zm.64-.72v.5l-.42,.15,.42-.65Zm-5.38,13.99l7.86-2.78,.79,.55-7.86,2.8v-.02l-.79-.55Zm6.67-4.48l.67,.42-7.81,2.8-.67-.48,7.81-2.74Zm-8.09,2.58l-.17-1.08,8.06-2.82,.15,1.04-8.04,2.86Zm10.22-.38l-.77-.55,2.16-.77,.82,.53-2.21,.79Zm2.41-.52l-.03,.7-2.1,.71-.05-.64,2.18-.77Zm-3.25-.32l-.1-.77-.05-.02,2.18-.77,.03,.84-2.06,.72Zm-.45-1.02l-.67-.42,2.31-.82,.74,.4-2.38,.84Zm1.42-1.44l-2.14,.77-.17-1.04,2.31-.82v1.09Zm-1.27,1.71l.05,.03,.08,.79-8.02,2.85-.12-.86,8.01-2.81Zm-7.81,3.93l.84,.56-1.83,.65v-.87l.99-.34Zm9.08-2.07l.05,.65-8.11,2.77-.05-.59,8.11-2.83Zm.07,.92v.05l.75,.42-7.92,2.76-.86-.53,8.03-2.7Zm.1,0v-.04l2.28-.77,.82,.42-2.36,.81-.74-.42Zm2.51-.97l-.08-.96-1.24-.73-.02-1.16-1.09-.59,.02-1.47-1.19-.74-.08-1.66,4.42,4.14,.05,3.55-.79-.38Zm-2.86-4.84l-2.3,.83-.97-.7,2.26-.79,1.01,.66Zm-3.39-.12l-.15-1.49,2.4-.86,.1,1.51-2.35,.84Zm-.03,.3l.94,.7-7.91,2.8v-.07l-.89-.65,7.86-2.78Zm-8.01,2.83l.92,.69v.03l-1.62,.57-.84-.75,1.54-.54Zm-1.74,.34l-1.16-1.01,2.43-.89,.15,1.33,.05,.06-1.47,.51Zm2.68,.62l.15,1.07v.03l-.67,.22-.92-.82,1.44-.5Zm-1.07-1.19l-.05-.05-.14-1.33,8.03-2.93,.18,1.46-8.02,2.85Zm-.24-1.71v-.07l-3.45-2.75,7.84-2.78,3.44,2.72-7.83,2.88Zm-7.02-3.05l-.03-1.29,1.69,1.54-.99,.38-.67-.63Zm.47,.67l-.47,.18v-.6l.47,.42Zm-.5-2.23v-1.24l2.88,2.63-.97,.34-1.91-1.73Zm0-1.49l-.02-1.11,3.97,3.62-.85,.32-3.1-2.83Zm6.95-7.29l.02,1.27-1.83-1.69,.96-.35,.85,.77Zm-.65-.84l.65-.23v.82l-.65-.59Zm.67,2.35v1.24l-3-2.75,.97-.35,2.03,1.86Zm0,1.49l.03,1.22-4.17-3.82,.94-.33,3.2,2.93Zm.03,1.44v1.24l-5.31-4.86,.94-.35,4.37,3.97Zm0,1.46v1.14l-6.35-5.85,.87-.3,5.48,5.01Zm.02,1.37v1.09l-7.07-6.55v-.37l.47-.18,6.6,6.01Zm0,1.31v.15l-.67,.22-6.37-5.87-.03-1.02,7.07,6.52Zm-7.04-4.07v-1.19l6.22,5.71-.91,.32-5.31-4.84Zm5.08,4.92l-.89,.32-4.19-3.85v-1.14l5.08,4.67Zm4.24-11.32l1.02-.34-1.96,3.1-.02-1.27,.96-1.49Zm-.96,1.24v-.91l.74-.25-.74,1.16Zm7.07,.13l.02,1.19-4.19,6.55-.97,.34,5.14-8.08Zm-5.34,8.16l-.87,.32,6.21-9.85v1.15l-5.34,8.38Zm-1.09,.4l-.57,.19v-.24l6.97-11.17,.03,1.07-6.43,10.15Zm6.4-11.44l-6.97,11.14v-1.02l6.65-10.59,.32-.1v.57Zm-6.99,9.87v-1.14l5.55-8.8,.95-.33-6.5,10.27Zm0-1.36v-1.14l4.44-7.07,.94-.32-5.38,8.53Zm0-1.39l-.03-1.12,3.37-5.33,.9-.3-4.24,6.75Zm-.03-1.36v-1.24l2.16-3.43,1.02-.34-3.18,5.01Zm7.07-1.47v1.19l-3,4.74-.99,.35,3.99-6.28Zm.03,1.44v1.22l-1.82,2.82-1.01,.38,2.83-4.42Zm-7.49-4.12l.04,10.17-.71,.25v-10.14l-7.74,2.75v10.1l-.6,.22v-10.62l17.29-5.9v10.39l-.47,.2-.15-10-7.66,2.58Zm-16.45,13.49l.02-2.47,.18-.15,4.64-1.59,.69,.15-.17-.32,1.61-.55v2.58l-6.97,2.35Zm6.97-2.2v2.24l-2.75,.96,.02-2.28,2.73-.92ZM11.06,54.25v.32l-3.75-2.43,.03-2.41,1.96,1.27-.03,2.03,1.79,1.22Zm-1.76-6.26l-1.99-1.29,.03-2.4,1.98,1.29-.02,2.4Zm.05-5.5l-2.04-1.34,.03-2.28,2.01,1.31v2.31Zm.29,10.32l.15-14.19,4.34,2.9,.08,14.39-3.03-2.06,.03-.82,2.23,1.61-.1-12.5-2.98-2.01v12.3l.7,.5v.84l-1.42-.96Zm.97-.5v-11.73l2.48,1.73,.1,11.91-2.58-1.91Zm.57,2.03l3.3,2.24v-2.19l4.42,2.88v2.38l-7.72-5.01v-.3ZM28.82,28.8v-1.84l1.76,1.14v2.48l-7.59-4.98,.02-2.46,.57,.37-.02,1.64,5.26,3.65Zm-5.24-7.54l-.59-.4,.02-1.93,.6,.39-.03,1.94Zm.05-4.57l-.44-.3,.02-2.35,.45,.3-.03,2.35Zm40.36,.9l.02,1.04-4.29,1.49-.02,1.53-4.42,1.47,.03-2.56,8.68-2.97Zm-5.86,1.43l-5.08-7.41,7.94,2.26,2.65,3.27-5.51,1.88Zm-19.39,37.48l.02,2.61-4.39-2.88v-2.06l-2.55-1.69,.02-.49,6.9,4.51Zm-2.61-1.93l.03-2.38,2.55,1.66,.03,2.4-2.61-1.68Zm-1.76,12.55v-2.58l4.49,2.93,.03,2.58-4.52-2.93Zm4.54,5.56l-2.78-1.81,.03-2.34,2.73,1.76,.02,2.39Zm-4.54-8.39v-2.36l1.64,1.07v2.36l-1.64-1.07Zm1.76,1.14l.03-2.33,2.68,1.74,.02,2.38-2.73-1.79Zm-1.76-3.74v-2.68l4.42,2.87,.02,2.71-4.44-2.9Zm0-2.91v-2.3l1.64,1.06v2.31l-1.64-1.07Zm1.76,1.14l.03-2.28,2.6,1.71,.03,2.29-2.66-1.72Zm-6.99,1.2v2.58l-4.94-3.18,.03-2.58,4.91,3.18Zm-4.91-3.4v-2.41c1.18,.78,2.4,1.58,3.59,2.36v2.38l-3.59-2.33Zm3.72,2.4l.05-2.35c.38,.25,.81,.53,1.16,.77l-.02,2.35-1.19-.77Zm-3.72-5.03v-2.68c1.64,1.06,3.27,2.11,4.91,3.17l.02,2.73-4.93-3.22Zm0-2.9l.02-2.31c1.19,.78,2.38,1.55,3.57,2.33v2.28l-3.59-2.3Zm3.72,2.38l.02-2.26c.41,.26,.82,.53,1.22,.79v2.26l-1.24-.79Zm-3.7-4.91v-2.04l-.62-.39,.03-.58,8.03,5.26v.47l-2.48-1.63v2.16l-4.96-3.25Zm-.32,12.5l-4.56-3.1,.15-14.19,4.34,2.9,.07,14.39Zm6.65-40.68v.02l2.43,1.59-.03,2.18-4.16-2.72v-2.24l1.76,1.17Zm-1.76-1.36v-2.36l1.76,1.17v2.35l-1.76-1.16Zm1.88,1.24l.03-2.34,2.3,1.52-.02,2.33-2.31-1.51Zm2.28,4.14l-.02,1.88-2.26-1.46,.03-1.91,2.25,1.49Zm-2.33-1.54h-.07v1.86l-1.76-1.14v-1.94l1.83,1.22Zm-.07,2.08v.05h.07l2.31,1.52v1.83l-4.14-2.68v-1.86l1.76,1.14Zm.15,2.16l2.23,1.46-.03,1.69,5.26,3.65v-1.89l1.79,1.17v2.53l-9.28-6.13,.03-2.48Zm7.46,4.69v-1.86l4.72,3.1-.03,1.81-4.69-3.05Zm4.69,3.3l-.02,2.5-2.76-1.81,.03-2.5,2.75,1.81Zm-4.69-5.38v-1.91l1.74,1.14v1.91l-1.74-1.14Zm1.86,1.21l.03-1.88,2.85,1.88-.02,1.89-2.86-1.89Zm-1.86-3.35v-2.13l4.76,3.15-.02,2.08-4.74-3.1Zm0-2.35v-2.36l1.74,1.14v2.36l-1.74-1.14Zm1.86,1.21l.03-2.33,2.92,1.93-.02,2.34-2.93-1.94Zm-1.86-3.82v-1.24l-1.46-.97,.02-1.24,6.28,4.17-.03,2.46-4.81-3.18Zm-.39-1.09l.07,11.61-4.56-3.1,.15-11.41,4.34,2.9Zm-1.1,12.25l6.16,4.07-.03,1.71-1.26-.87-3.9-2.72-.02-.03-.15-.12-.03,.02-.79-.57,.02-1.49Zm4.44,5.21l-10.64,7.62-4.14-2.68,10.87-7.67,3.91,2.73Zm-4.09-2.85l-10.79,7.74-3.94-2.56,11.04-7.76,3.69,2.58Zm-14.86,5.11l-3.79-2.43,11.16-7.89,3.6,2.51-10.97,7.81Zm-3.15-1.19l8.78,5.68v2.33l-8.8-5.73,.02-2.28Zm10.6,10.27l4.34,2.9,.07,14.39-4.56-3.11,.15-14.18Zm6.37,3.07l-8.06-5.23,.02-2.33,8.04,5.18v2.38Zm-5.38-6.72l10.71-7.54,1.71,1.19,13.82-7.91,1.02,.69-23.05,16.28-4.21-2.71Zm16.02-21.78l-3.2,1.05,.03-2.41,3.1-1.07v2.41l.07,.02Zm.57-.07v2.45l-3.79,1.25,.02-2.44,3.77-1.26Zm4.09,9.15l.03,1.17-7.99,2.58,.03-2.33,3.77-1.24v1.16l4.16-1.34Zm-3.79,.77l.15-11.33,4.29-1.62v11.61l-4.44,1.34Zm3.32,.7l-4.12,2.35v-1.02l4.12-1.33Zm-3.64-5.91l-.48,.15v-2.11l.5-.15-.02,2.11Zm-.62-1.91l.02,2.11-3.2,1.04,.03-2.11,3.15-1.04Zm-3.15,3.25l3.77-1.24-.05,4.42-3.82,1.24,.1-4.42Zm-.08,7l3.23-1.05,.02,1.05-3.27,1.86,.02-1.86Zm8.11-2.78v-1.17l.95-.3v-1.19l7.21-2.35v1.24l.7-.22v.52l-3.43,.37-5.43,3.1Zm8.21-9.43l-.02,2.26-7.24,2.36v-2.29l7.26-2.33Zm-7.26,2.19v-2.09l2.75-.89v2.08l-2.75,.9Zm2.87-.95l.03-2.08,4.39-1.41-.03,2.08-4.39,1.41Zm4.37,1.17l-.03,1.86-4.44,1.44,.03-1.86,4.44-1.44Zm-4.59,1.49v1.86l-2.65,.87v-1.86l2.65-.87Zm4.93,1.19l.18-11.34,4.26-1.61v11.61l-4.44,1.34Zm-.29-10.02v2.53l-7.29,2.35v-2.48l7.29-2.4Zm-4.54,1.34l-2.75,.91v-1.76l-5.16,1.79-.03,1.69-.52,.17,.02-2.46,8.44-2.87v2.53Zm-11.26,.69l4.54-6.45,2.85,3.95-7.39,2.5Zm-.6-.07l-4.51-2.96,10.84-11.13,2.65,1.66-8.98,12.43Zm7.02-14.29l1.96,.3v.94l-1.96-1.24Zm-.15-.1l-3.82-2.41,5.96,.35-.03,2.38-2.11-.32Zm-.74,.17l-10.74,11.21-5.33-3.49,12.37-10.05,3.7,2.33Zm-16.2,7.64l-4.54-2.95,13.15-9.47,3.69,2.33-12.3,10.09Zm-4.66-3.02l-4.29-2.81L38.37,2.6l3.27,2.06-13.07,9.53Zm-2.09-.75l10.12,6.72v1.27l-3.57-2.38v1.24l-4.21-2.75v-1.27l-2.36-1.56,.02-1.27Zm1.94,2.98l.07,11.61-4.56-3.1,.15-11.41,4.34,2.9Zm-2.18,11.53l10.32,6.82v1.52l-10.35-7.22,.03-1.12Zm3.15,3.92l-11.11,7.94-3.55-2.28,11.33-7.96,3.33,2.3Zm-14.79,5.58l-3.74-2.4,11.46-8.09,3.54,2.48-11.26,8.01Zm-3.39-1.36l7.69,4.96v2.31l-7.72-5.01,.03-2.26Zm3.72,4.89l8.58,5.58v.57l-4.42-2.93-.02,2.11-4.17-2.73,.03-2.6Zm4.09,7.81l.02-2.31,.03,.03v2.3l-.05-.02Zm.05,.25l-.03,2.67-4.14-2.7,.03-2.68,4.14,2.71Zm-.13-2.61h-.04v2.26l-4.39-2.83,.02-2.31,4.41,2.88Zm-4.16-.2v2.71l-.27-.18v-2.7l.27,.17Zm4.12,5.61v2.41l-4.39-2.86v-2.43l4.39,2.88Zm.12,2.7v2.58l-4.12-2.65,.03-2.61,4.09,2.68Zm-4.24-2.78v2.63l-.3-.19,.03-2.61,.27,.17Zm.15,5.54l8.58,5.58v2.3l-8.61-5.73,.03-2.15Zm4.09,2.43v-.42l5.18,3.47v-2.06l3.62,2.36v2.38l-8.8-5.73Zm4.64,3.25l8.08,5.28v2.38l-8.11-5.38,.03-2.28Zm4.29,2.58l.02-2.39,1.17,.77-.03,1.89,5.26,3.5v-1.96l1.64,1.06v2.36l-8.06-5.23Zm3.94,2.77l7.02,4.59,.03,2.51-7.07-4.69,.02-2.41Zm3.05-17.78l23.12-16.22,2.8,1.91-21.72,17.01-4.2-2.7Zm16.3,14.39l.64,.99,.03,.07-4.94-3.52-.05,.05,4.89,3.6-1.37-.35-4.81-4.19,.1-.13,.1-.12,5.41,3.6Zm-1.02-.9l.52-.17v.52l-.52-.35Zm.99,2.11l-.34,.12v-.19l.34,.07Zm-4.73,1.61l-3.7,1.24,.03-2.45,4.04-1.37-.52,1.07,.15,1.51Zm.84-5.6l-1.39-.92,.79-.89-.94,.02-.52,.6-.72-.65,4.79-1.64-.05,1.1-.52-.25-.47,.47,.84,.42-.65,1.34-1.16,.4Zm1.07-.2l-.33,.67-.57-.37,.9-.3Zm-2.93-.42l-.05,.05-.52,.59-.13-.35,1.1-1.33,.64-.08-1.04,1.12Zm-.45-.55l-.15,.15-.84-.35,.4-.37,.59,.57Zm-1.31-.07l1.24,.44-.37,.45,.32,.57,.64-.69,.87,.76-3.62,1.25,.03-2.78,1.24-.42-.35,.42Zm2.83,1.66v2.53l-3.8,1.31h-.07v.03l-3.08,1.04v-2.55l6.95-2.36Zm.12,2.53l.02-2.41,.97,.85v.02l-.72,1.44-.27,.1Zm1.12-1.44l.22,.22-1.41,3.8-.03-1.42,1.22-2.6Zm.32,.27l.3,.3-.82,2.58-.87,.99,1.39-3.87Zm-.35,2.98l.79-2.55,1.82,1.61,.39,.07v.25l-3.64,1.22,.64-.6Zm.72-4.04l.3-.85-.05-.02-.3,.84-.2-.12,1.02-2.21,.17,.05,.15,.05-.77,2.48-.32-.22Zm1.22-2.21l.79,.42-1.04,.35,.25-.77Zm-.43-.35l-.05-.02-.74-.38,.3-.19,1.61,.69,.25,.6-1.37-.7Zm.23-.67l.1-.94,.47,.3-.4,.72-.17-.08Zm.96,.65l-.69-.32,.52-1.1-.64-.29,1.11-.38v2.78l-.07,.03-.23-.72Zm-.99-1.79l-.1-.05v.08l-2.7,.91,.03-2.48,8.63-2.92v2.48l-5.86,1.98Zm-5.38-8.41l5.98-4.76,2.73,3.55-7.59,2.63-1.12-1.42Zm.94,1.47l-4.91,1.68,3.82-3.02,1.09,1.34Zm1.67,.02l6.44-2.26,2.19-.77v2.68l-8.66,2.93,.03-2.58Zm4.06,1.34v2.53l-7.96,2.7,.03-2.55,7.93-2.68Zm.13,2.48l.02-2.53,8.93-3.02v2.5l-8.95,3.05Zm13.71-7.32l-4.63,1.57h-.13v.05l-4.39,1.48,.03-2.67,9.12-3.23v2.8Zm4.22-1.29v2.53l-8.85,3,.02-2.52,8.83-3.01Zm-13.34,7.2l9.12-3.1v2.48l-9.15,3.1,.03-2.48Zm4.51,1.09l8.88-3v1.96l-8.9,3.02,.02-1.98Zm4.74-1.76l.02-2.48,8.58-2.91v2.49l-8.6,2.9Zm4.21-4.05l.03-2.53,9.03-3.07v2.53l-9.06,3.07Zm4.44-4.19l-8.65,2.95,.02-2.8,2.16-.74,.02-.03,6.45-2.26v2.88Zm-.05-3.25l-3.2-4.44,7.35,.92,1.31,1.64-5.46,1.88Zm-.12,.05l-6.42,2.21-5.36-7.76,8.38,1.04,3.4,4.51Zm-6.55,2.24l-6.22,2.15-4.15-5.85-.14,.15,4.16,5.73-7.36,2.53-2.71-3.62,6.05-4.79,4.97-3.97,5.4,7.67Zm-20.11,7.51v2.58l-7,2.36-.02-2.46,7.02-2.48Zm-3.87,4.02v2.53l-3.13,1.07v-2.53l3.13-1.07Zm3.87,1.36v2.48l-2.11,.72-.08-.07-.1,.12-4.68,1.59-.03-2.46,7-2.38Zm-3.87,3.95v2.78l-3.08,1.04-.02-2.78,3.1-1.04Zm0,5.63v2.45l-3.05,1.05-.03-2.46,3.08-1.04Zm-3.05,6.2v-2.56l6.87-2.3,.02,.17,.03-.02v2.38l-6.92,2.33Zm3.05-.89v2.42l-3.03,1.07-.02-2.45,3.05-1.04Zm.15-.05l7.93-2.68v2.28l-7.96,2.83,.03-2.43Zm9.15-5.96l-.57-1.09-.5-.32v-.67l2.75-.94-.02,2.45-1.66,.57Zm-1.91-1.96l-1.14-.77,.47-1.58,1.26-.42,.1,.04-.02-.07,2.92-.99v2.58l-3.59,1.21Zm.82-3l.02-2.78,8.93-3.02v1.96l-6.18,2.11v.79l-2.77,.94Zm18.1-6.94l.03-1.96,8.98-3.05v2.75l-1.22,.42-1.51-1.16c-.41,.16-1.37,.28-.77,1.56l.32,.25-2.9,.99v-.8l-2.93,1Zm2.91,5.13v-2.45l5.55-1.89,.55,.42-.06,1.89-6.04,2.03Zm6.04-1.88l-.04,2.58-4.44,1.48,.02-2.55,4.46-1.51Zm-4.61,1.56v2.55l-1.46,.5,.02-2.55,1.44-.5Zm-1.43-2.28l.02-2.56,1.44-.49v2.55l-1.46,.5Zm1.58-.55l.03-2.55,1.49-.5,2.3,1.76-3.82,1.29Zm-1.61,6.05l6.03-2.03v.37l.12,.08v1.41l-6.15,2.16v-1.99Zm7.52-7.88l3.35-1.12v2.43l-1.17,.4-2.18-1.71Zm2.35,1.83l1-.35,.02,1.12-1.02-.77Zm-2.53-1.93l-2.31-1.79,5.81-1.93,.03,2.53-3.53,1.19Zm-1.09-2.34l.03-2.77,4.53-1.54,.03,2.75-4.59,1.56Zm-4.66-1.33l.02-2.48,9.18-3.11,.02,2.46-9.22,3.13Zm4.66-4.22l.03-2.53,4.48-1.51,.03,2.5-4.54,1.54Zm4.51-4.19l-9.12,3.1,.02-2.9,9.08-3.2,.02,3Zm-3.69-2.06l-1.19-1.56,4.24,.52-3.05,1.04Zm2.5-1.64l-19.84-2.26-2.65-1.86,17.29,.52,5.2,3.6Zm-11.35-7.86l-1.32-.15-.02-.77,1.34,.92Zm-1.25,1.61l-.04-1.54,1.58,.15,5.68,3.92-17.43-.64-.9-.62,11.11-1.27Zm-4.96,.3l4.52-1.46,.05,.94-4.57,.52Zm4.52-1.64l-5.26,1.71-2.68,.3,.03-.54,4.41-1.42v-1.26l3.4-1.12,.1,2.33Zm-3.5-1.36v-1.86l3.3-1.07,.07,1.81-3.37,1.12Zm3.3-3.1l-3.3,1.09v-2.23l3.18-1.05,.12,2.19Zm-3.3-1.32v-2.06l3.08-1.01,.1,2.06-3.18,1.01Zm3.08-3.22l-3.08,.99v-2.55c.98-.33,1.97-.66,2.95-.97l.13,2.53Zm-.15-2.68l-2.93,.97v-1.64l-.74,.25v-1.04l3.57-1.22c.05,.9,.08,1.82,.1,2.68Zm-4.05-1.89l-2.4-3.15,6.32,1.81-3.92,1.34Zm-10.88-11.08l1.93,1.31-1.93-.1v-1.21Zm0,1.36l2.18,.13,4.98,3.34-7.16-1.06v-2.41Zm0,2.51l7.41,1.11,5.29,3.57-12.65-3.44-.05-.03v-1.21Zm-.25,1.58l.1,.03,5.28,7.54-6.6,2.26-2.83-4.07,4.05-5.76Zm-.32-5.83v1.57l-6.08-.3-3.55-2.23,8.53,.22,1.1,.74Zm-1.29-.89l-8.49-.2-3.44-2.15h8.4l3.53,2.35ZM44.47,.37l2.8,1.89-8.31,.07-3.22-2.03,8.73,.07Zm-9.58,.05l3.25,2.06-13.99,8.83-3.67-2.41L34.89,.42Zm-14.58,8.93l6.03,3.99v1.29l-2.68-1.78v1.29l-3.4-2.26,.05-2.53Zm-.05,2.75l2.8,1.84v2.38l-2.85-1.88,.05-2.34Zm-.05,2.51l2.85,1.88v.03l.08,.02,.49,.33-.02,2.25-3.42-2.23,.02-2.28Zm-.05,2.48l2.7,1.76v1.93l-2.72-1.78,.02-1.91Zm-.02,2.11l3.44,2.25v1.87l-3.47-2.26,.03-1.86Zm-.03,2.03l2.75,1.81v2.46l-2.8-1.84,.05-2.43Zm-.05,2.63l6.03,3.99v1.12l-6.05-4.22,.02-.89Zm-.37,1.27l2.43,1.68-11.38,8.16-3.23-2.08,12.18-7.76Zm-12.65,8.26l4.02,2.6v2.28l-4-2.6h-.02v-2.28Zm0,2.45l7.74,5.04v2.63l-.25-.18v-1.96l-5.16-3.42-.02,2.03-2.31-1.51v-2.63Zm0,2.83l.15,.1v2.3l-.15-.09v-2.31Zm0,2.5l2.31,1.52-.03,2.7-2.31-1.49,.03-2.73Zm-.03,2.93l.18,.12v2.41l-.08-.05-.1,.03v-2.51Zm0,2.6l2.29,1.49v2.61l-2.29-1.47v-2.63Zm0,2.83l.18,.1v2.43l-.18-.12v-2.41Zm0,2.61l7.84,5.11h-.07v2.1l-7.77-5.15v-2.06ZM.64,59.6l-.02-3.99,43.3,29.22,.08,3.97L.64,59.6Zm43.48,24.7L.84,55.16l5.65-1.96v1.34l32.57,21.73,19.5-6.92,3.47,2.75v.05l-2.95,1.1,4.39,4.06-19.35,6.99Zm19.47-2.2l-19.15,6.92-.1-4.32,19.25-6.99v4.39Zm-.4-5.58l.72-.25,.7,.45-.85,.3-.57-.5Zm.77,.67l.77-.28,.08,.87v.03l-.75,.25,.2-.6-.3-.27Zm1.96,1.61l.05,.6-1.86,.62-.02-.57,1.83-.65Zm-1.81,1.46l1.94-.64,.89,.47-2.83,.99v-.82Zm3.1,.77l-3.02,1.04-.05-.69,3.1-1.09-.03,.74Zm8.24-2.82l-8.06,2.78,.02-.73-.02-.02,7.91-2.75,.17,.1-.02,.62Zm2.2-.75l-2.03,.69,.02-.56-.24-.13,2.25-.79v.79Zm-4.56-9.35l-2.9,1.07-3.45-2.73,13.25-4.71,5.7,3.72v-4.39l.87,.67c.36-.08,.56-.23,.7-.4l7.08,5.01-16.46,6.15-4.79-4.39Zm4.89,9.08v-4.44l17.13-6.1,.05,4.46-17.18,6.08Zm5.4-17.07l-1.16,.35-.07-1.88-.85,1.33-.62-1.24-.47,1-.67-1.24-.08,2.15,3.23,1.99,2.01-1.44-1.51,.22,.19-1.24ZM60.71,21.28v9.43l3.08-.92-.1-9.53-2.98,1.02Zm.28,9.05l-.05-8.9,2.4-.65,.23,8.76-2.58,.79Zm-12.75-5.06v9.43l3.07-.92-.1-9.52-2.97,1.01Zm.25,9.08l-.03-8.9,2.41-.67,.2,8.75-2.58,.82Zm-11.49-11.16l-2.97-2.01v9.58l3.07,2.2-.1-9.77Zm-2.73,7.44v-9l2.48,1.73,.1,9.18-2.58-1.91Zm-4.06,22.3v12.3l3.07,2.21-.1-12.5-2.97-2.01Zm.24,12.18v-11.73l2.48,1.73,.1,11.91-2.58-1.91Zm-2.82-48.12l-2.98-2.01v9.57l3.08,2.21-.1-9.77Zm-2.73,7.44V15.43l2.48,1.73,.1,9.18-2.58-1.91Zm-1.84,23.96l-2.97-2.01v12.3l3.07,2.21-.1-12.5Zm-2.73,10.17v-11.73l2.48,1.73,.1,11.91-2.58-1.91Zm62.86,2.8l.19-1.24-1.16,.35-.07-1.88-.85,1.33-.62-1.24-.47,1-.67-1.24-.08,2.15,3.23,1.99,2.01-1.44-1.51,.22Zm-60.13-12.97l-2.97-2.01v12.3l3.07,2.21-.1-12.5Zm-2.73,10.17v-11.73l2.48,1.73,.1,11.91-2.58-1.91ZM37,23.19l-2.97-2.01v9.58l3.07,2.2-.1-9.77Zm-2.73,7.44v-9l2.48,1.73,.1,9.18-2.58-1.91Zm-1.09,24.31l-2.97-2.01v12.3l3.07,2.21-.1-12.5Zm-2.73,10.17v-11.73l2.48,1.73,.1,11.91-2.58-1.91ZM51.21,24.26l-2.97,1.01v9.43l3.07-.92-.1-9.52Zm-2.72,10.09l-.03-8.9,2.41-.67,.2,8.75-2.58,.82Zm15.2-14.09l-2.98,1.02v9.43l3.08-.92-.1-9.53Zm-2.7,10.07l-.05-8.9,2.4-.65,.23,8.76-2.58,.79ZM27.63,16.99l-2.98-2.01v9.57l3.08,2.21-.1-9.77Zm-2.73,7.44V15.43l2.48,1.73,.1,9.18-2.58-1.91Zm58.29,36.93l.19-1.24-1.16,.35-.07-1.88-.85,1.33-.62-1.24-.47,1-.67-1.24-.08,2.15,3.23,1.99,2.01-1.44-1.51,.22ZM63.69,20.26l-2.98,1.02v9.43l3.08-.92-.1-9.53Zm-2.7,10.07l-.05-8.9,2.4-.65,.23,8.76-2.58,.79Zm-9.78-6.07l-2.97,1.01v9.43l3.07-.92-.1-9.52Zm-2.72,10.09l-.03-8.9,2.41-.67,.2,8.75-2.58,.82Zm-11.49-11.16l-2.97-2.01v9.58l3.07,2.2-.1-9.77Zm-2.73,7.44v-9l2.48,1.73,.1,9.18-2.58-1.91Zm-1.09,24.31l-2.97-2.01v12.3l3.07,2.21-.1-12.5Zm-2.73,10.17v-11.73l2.48,1.73,.1,11.91-2.58-1.91Zm-2.82-48.12l-2.98-2.01v9.57l3.08,2.21-.1-9.77Zm-2.73,7.44V15.43l2.48,1.73,.1,9.18-2.58-1.91Zm-1.84,23.96l-2.97-2.01v12.3l3.07,2.21-.1-12.5Zm-2.73,10.17v-11.73l2.48,1.73,.1,11.91-2.58-1.91Zm62.86,2.8l.19-1.24-1.16,.35-.07-1.88-.85,1.33-.62-1.24-.47,1-.67-1.24-.08,2.15,3.23,1.99,2.01-1.44-1.51,.22Zm-60.13-12.97l-2.97-2.01v12.3l3.07,2.21-.1-12.5Zm-2.73,10.17v-11.73l2.48,1.73,.1,11.91-2.58-1.91ZM37,23.19l-2.97-2.01v9.58l3.07,2.2-.1-9.77Zm-2.73,7.44v-9l2.48,1.73,.1,9.18-2.58-1.91Zm-1.09,24.31l-2.97-2.01v12.3l3.07,2.21-.1-12.5Zm-2.73,10.17v-11.73l2.48,1.73,.1,11.91-2.58-1.91ZM51.21,24.26l-2.97,1.01v9.43l3.07-.92-.1-9.52Zm-2.72,10.09l-.03-8.9,2.41-.67,.2,8.75-2.58,.82Zm15.2-14.09l-2.98,1.02v9.43l3.08-.92-.1-9.53Zm-2.7,10.07l-.05-8.9,2.4-.65,.23,8.76-2.58,.79ZM27.63,16.99l-2.98-2.01v9.57l3.08,2.21-.1-9.77Zm-2.73,7.44V15.43l2.48,1.73,.1,9.18-2.58-1.91Zm58.29,36.93l.19-1.24-1.16,.35-.07-1.88-.85,1.33-.62-1.24-.47,1-.67-1.24-.08,2.15,3.23,1.99,2.01-1.44-1.51,.22ZM63.69,20.26l-2.98,1.02v9.43l3.08-.92-.1-9.53Zm-2.7,10.07l-.05-8.9,2.4-.65,.23,8.76-2.58,.79Zm-9.78-6.07l-2.97,1.01v9.43l3.07-.92-.1-9.52Zm-2.72,10.09l-.03-8.9,2.41-.67,.2,8.75-2.58,.82Zm-11.49-11.16l-2.97-2.01v9.58l3.07,2.2-.1-9.77Zm-2.73,7.44v-9l2.48,1.73,.1,9.18-2.58-1.91Zm-1.09,24.31l-2.97-2.01v12.3l3.07,2.21-.1-12.5Zm-2.73,10.17v-11.73l2.48,1.73,.1,11.91-2.58-1.91Zm-2.82-48.12l-2.98-2.01v9.57l3.08,2.21-.1-9.77Zm-2.73,7.44V15.43l2.48,1.73,.1,9.18-2.58-1.91Zm-1.84,23.96l-2.97-2.01v12.3l3.07,2.21-.1-12.5Zm-2.73,10.17v-11.73l2.48,1.73,.1,11.91-2.58-1.91Zm62.86,2.8l.19-1.24-1.16,.35-.07-1.88-.85,1.33-.62-1.24-.47,1-.67-1.24-.08,2.15,3.23,1.99,2.01-1.44-1.51,.22Zm-60.13-12.97l-2.97-2.01v12.3l3.07,2.21-.1-12.5Zm-2.73,10.17v-11.73l2.48,1.73,.1,11.91-2.58-1.91ZM37,23.19l-2.97-2.01v9.58l3.07,2.2-.1-9.77Zm-2.73,7.44v-9l2.48,1.73,.1,9.18-2.58-1.91Zm-1.09,24.31l-2.97-2.01v12.3l3.07,2.21-.1-12.5Zm-2.73,10.17v-11.73l2.48,1.73,.1,11.91-2.58-1.91ZM51.21,24.26l-2.97,1.01v9.43l3.07-.92-.1-9.52Zm-2.72,10.09l-.03-8.9,2.41-.67,.2,8.75-2.58,.82Zm15.2-14.09l-2.98,1.02v9.43l3.08-.92-.1-9.53Zm-2.7,10.07l-.05-8.9,2.4-.65,.23,8.76-2.58,.79ZM27.63,16.99l-2.98-2.01v9.57l3.08,2.21-.1-9.77Zm-2.73,7.44V15.43l2.48,1.73,.1,9.18-2.58-1.91Zm58.29,36.93l.19-1.24-1.16,.35-.07-1.88-.85,1.33-.62-1.24-.47,1-.67-1.24-.08,2.15,3.23,1.99,2.01-1.44-1.51,.22ZM63.69,20.26l-2.98,1.02v9.43l3.08-.92-.1-9.53Zm-2.7,10.07l-.05-8.9,2.4-.65,.23,8.76-2.58,.79Zm-9.78-6.07l-2.97,1.01v9.43l3.07-.92-.1-9.52Zm-2.72,10.09l-.03-8.9,2.41-.67,.2,8.75-2.58,.82Zm-11.49-11.16l-2.97-2.01v9.58l3.07,2.2-.1-9.77Zm-2.73,7.44v-9l2.48,1.73,.1,9.18-2.58-1.91Zm-1.09,24.31l-2.97-2.01v12.3l3.07,2.21-.1-12.5Zm-2.73,10.17v-11.73l2.48,1.73,.1,11.91-2.58-1.91Zm-2.82-48.12l-2.98-2.01v9.57l3.08,2.21-.1-9.77Zm-2.73,7.44V15.43l2.48,1.73,.1,9.18-2.58-1.91Zm-1.84,23.96l-2.97-2.01v12.3l3.07,2.21-.1-12.5Zm-2.73,10.17v-11.73l2.48,1.73,.1,11.91-2.58-1.91Zm62.86,2.8l.19-1.24-1.16,.35-.07-1.88-.85,1.33-.62-1.24-.47,1-.67-1.24-.08,2.15,3.23,1.99,2.01-1.44-1.51,.22Zm-60.13-12.97l-2.97-2.01v12.3l3.07,2.21-.1-12.5Zm-2.73,10.17v-11.73l2.48,1.73,.1,11.91-2.58-1.91ZM37,23.19l-2.97-2.01v9.58l3.07,2.2-.1-9.77Zm-2.73,7.44v-9l2.48,1.73,.1,9.18-2.58-1.91Zm-1.09,24.31l-2.97-2.01v12.3l3.07,2.21-.1-12.5Zm-2.73,10.17v-11.73l2.48,1.73,.1,11.91-2.58-1.91ZM51.21,24.26l-2.97,1.01v9.43l3.07-.92-.1-9.52Zm-2.72,10.09l-.03-8.9,2.41-.67,.2,8.75-2.58,.82Zm15.2-14.09l-2.98,1.02v9.43l3.08-.92-.1-9.53Zm-2.7,10.07l-.05-8.9,2.4-.65,.23,8.76-2.58,.79ZM27.63,16.99l-2.98-2.01v9.57l3.08,2.21-.1-9.77Zm-2.73,7.44V15.43l2.48,1.73,.1,9.18-2.58-1.91Zm58.29,36.93l.19-1.24-1.16,.35-.07-1.88-.85,1.33-.62-1.24-.47,1-.67-1.24-.08,2.15,3.23,1.99,2.01-1.44-1.51,.22ZM63.69,20.26l-2.98,1.02v9.43l3.08-.92-.1-9.53Zm-2.7,10.07l-.05-8.9,2.4-.65,.23,8.76-2.58,.79Zm-9.78-6.07l-2.97,1.01v9.43l3.07-.92-.1-9.52Zm-2.72,10.09l-.03-8.9,2.41-.67,.2,8.75-2.58,.82Zm-11.49-11.16l-2.97-2.01v9.58l3.07,2.2-.1-9.77Zm-2.73,7.44v-9l2.48,1.73,.1,9.18-2.58-1.91Zm-1.09,24.31l-2.97-2.01v12.3l3.07,2.21-.1-12.5Zm-2.73,10.17v-11.73l2.48,1.73,.1,11.91-2.58-1.91Zm-2.82-48.12l-2.98-2.01v9.57l3.08,2.21-.1-9.77Zm-2.73,7.44V15.43l2.48,1.73,.1,9.18-2.58-1.91Zm-1.84,23.96l-2.97-2.01v12.3l3.07,2.21-.1-12.5Zm-2.73,10.17v-11.73l2.48,1.73,.1,11.91-2.58-1.91Zm62.86,2.8l.19-1.24-1.16,.35-.07-1.88-.85,1.33-.62-1.24-.47,1-.67-1.24-.08,2.15,3.23,1.99,2.01-1.44-1.51,.22Zm-60.13-12.97l-2.97-2.01v12.3l3.07,2.21-.1-12.5Zm-2.73,10.17v-11.73l2.48,1.73,.1,11.91-2.58-1.91ZM37,23.19l-2.97-2.01v9.58l3.07,2.2-.1-9.77Zm-2.73,7.44v-9l2.48,1.73,.1,9.18-2.58-1.91Zm-1.09,24.31l-2.97-2.01v12.3l3.07,2.21-.1-12.5Zm-2.73,10.17v-11.73l2.48,1.73,.1,11.91-2.58-1.91ZM51.21,24.26l-2.97,1.01v9.43l3.07-.92-.1-9.52Zm-2.72,10.09l-.03-8.9,2.41-.67,.2,8.75-2.58,.82Zm15.2-14.09l-2.98,1.02v9.43l3.08-.92-.1-9.53Zm-2.7,10.07l-.05-8.9,2.4-.65,.23,8.76-2.58,.79ZM27.63,16.99l-2.98-2.01v9.57l3.08,2.21-.1-9.77Zm-2.73,7.44V15.43l2.48,1.73,.1,9.18-2.58-1.91Zm58.29,36.93l.19-1.24-1.16,.35-.07-1.88-.85,1.33-.62-1.24-.47,1-.67-1.24-.08,2.15,3.23,1.99,2.01-1.44-1.51,.22ZM63.69,20.26l-2.98,1.02v9.43l3.08-.92-.1-9.53Zm-2.7,10.07l-.05-8.9,2.4-.65,.23,8.76-2.58,.79Zm-9.78-6.07l-2.97,1.01v9.43l3.07-.92-.1-9.52Zm-2.72,10.09l-.03-8.9,2.41-.67,.2,8.75-2.58,.82Zm-11.49-11.16l-2.97-2.01v9.58l3.07,2.2-.1-9.77Zm-2.73,7.44v-9l2.48,1.73,.1,9.18-2.58-1.91Zm-1.09,24.31l-2.97-2.01v12.3l3.07,2.21-.1-12.5Zm-2.73,10.17v-11.73l2.48,1.73,.1,11.91-2.58-1.91Zm-2.82-48.12l-2.98-2.01v9.57l3.08,2.21-.1-9.77Zm-2.73,7.44V15.43l2.48,1.73,.1,9.18-2.58-1.91Zm-1.84,23.96l-2.97-2.01v12.3l3.07,2.21-.1-12.5Zm-2.73,10.17v-11.73l2.48,1.73,.1,11.91-2.58-1.91Zm62.86,2.8l.19-1.24-1.16,.35-.07-1.88-.85,1.33-.62-1.24-.47,1-.67-1.24-.08,2.15,3.23,1.99,2.01-1.44-1.51,.22Zm-60.13-12.97l-2.97-2.01v12.3l3.07,2.21-.1-12.5Zm-2.73,10.17v-11.73l2.48,1.73,.1,11.91-2.58-1.91ZM37,23.19l-2.97-2.01v9.58l3.07,2.2-.1-9.77Zm-2.73,7.44v-9l2.48,1.73,.1,9.18-2.58-1.91Zm-1.09,24.31l-2.97-2.01v12.3l3.07,2.21-.1-12.5Zm-2.73,10.17v-11.73l2.48,1.73,.1,11.91-2.58-1.91ZM51.21,24.26l-2.97,1.01v9.43l3.07-.92-.1-9.52Zm-2.72,10.09l-.03-8.9,2.41-.67,.2,8.75-2.58,.82Zm15.2-14.09l-2.98,1.02v9.43l3.08-.92-.1-9.53Zm-2.7,10.07l-.05-8.9,2.4-.65,.23,8.76-2.58,.79ZM27.63,16.99l-2.98-2.01v9.57l3.08,2.21-.1-9.77Zm-2.73,7.44V15.43l2.48,1.73,.1,9.18-2.58-1.91Zm58.29,36.93l.19-1.24-1.16,.35-.07-1.88-.85,1.33-.62-1.24-.47,1-.67-1.24-.08,2.15,3.23,1.99,2.01-1.44-1.51,.22ZM63.69,20.26l-2.98,1.02v9.43l3.08-.92-.1-9.53Zm-2.7,10.07l-.05-8.9,2.4-.65,.23,8.76-2.58,.79Zm-9.78-6.07l-2.97,1.01v9.43l3.07-.92-.1-9.52Zm-2.72,10.09l-.03-8.9,2.41-.67,.2,8.75-2.58,.82Zm-11.49-11.16l-2.97-2.01v9.58l3.07,2.2-.1-9.77Zm-2.73,7.44v-9l2.48,1.73,.1,9.18-2.58-1.91Zm-1.09,24.31l-2.97-2.01v12.3l3.07,2.21-.1-12.5Zm-2.73,10.17v-11.73l2.48,1.73,.1,11.91-2.58-1.91Zm-2.82-48.12l-2.98-2.01v9.57l3.08,2.21-.1-9.77Zm-2.73,7.44V15.43l2.48,1.73,.1,9.18-2.58-1.91Zm-1.84,23.96l-2.97-2.01v12.3l3.07,2.21-.1-12.5Zm-2.73,10.17v-11.73l2.48,1.73,.1,11.91-2.58-1.91Zm62.86,2.8l.19-1.24-1.16,.35-.07-1.88-.85,1.33-.62-1.24-.47,1-.67-1.24-.08,2.15,3.23,1.99,2.01-1.44-1.51,.22Zm-60.13-12.97l-2.97-2.01v12.3l3.07,2.21-.1-12.5Zm-2.73,10.17v-11.73l2.48,1.73,.1,11.91-2.58-1.91ZM37,23.19l-2.97-2.01v9.58l3.07,2.2-.1-9.77Zm-2.73,7.44v-9l2.48,1.73,.1,9.18-2.58-1.91Zm-1.09,24.31l-2.97-2.01v12.3l3.07,2.21-.1-12.5Zm-2.73,10.17v-11.73l2.48,1.73,.1,11.91-2.58-1.91ZM51.21,24.26l-2.97,1.01v9.43l3.07-.92-.1-9.52Zm-2.72,10.09l-.03-8.9,2.41-.67,.2,8.75-2.58,.82Zm15.2-14.09l-2.98,1.02v9.43l3.08-.92-.1-9.53Zm-2.7,10.07l-.05-8.9,2.4-.65,.23,8.76-2.58,.79ZM27.63,16.99l-2.98-2.01v9.57l3.08,2.21-.1-9.77Zm-2.73,7.44V15.43l2.48,1.73,.1,9.18-2.58-1.91Zm58.29,36.93l.19-1.24-1.16,.35-.07-1.88-.85,1.33-.62-1.24-.47,1-.67-1.24-.08,2.15,3.23,1.99,2.01-1.44-1.51,.22ZM63.69,20.26l-2.98,1.02v9.43l3.08-.92-.1-9.53Zm-2.7,10.07l-.05-8.9,2.4-.65,.23,8.76-2.58,.79Zm-9.78-6.07l-2.97,1.01v9.43l3.07-.92-.1-9.52Zm-2.72,10.09l-.03-8.9,2.41-.67,.2,8.75-2.58,.82Zm-11.49-11.16l-2.97-2.01v9.58l3.07,2.2-.1-9.77Zm-2.73,7.44v-9l2.48,1.73,.1,9.18-2.58-1.91Zm-1.09,24.31l-2.97-2.01v12.3l3.07,2.21-.1-12.5Zm-2.73,10.17v-11.73l2.48,1.73,.1,11.91-2.58-1.91Zm-2.82-48.12l-2.98-2.01v9.57l3.08,2.21-.1-9.77Zm-2.73,7.44V15.43l2.48,1.73,.1,9.18-2.58-1.91Zm-1.84,23.96l-2.97-2.01v12.3l3.07,2.21-.1-12.5Zm-2.73,10.17v-11.73l2.48,1.73,.1,11.91-2.58-1.91Zm62.86,2.8l.19-1.24-1.16,.35-.07-1.88-.85,1.33-.62-1.24-.47,1-.67-1.24-.08,2.15,3.23,1.99,2.01-1.44-1.51,.22Zm-60.13-12.97l-2.97-2.01v12.3l3.07,2.21-.1-12.5Zm-2.73,10.17v-11.73l2.48,1.73,.1,11.91-2.58-1.91ZM37,23.19l-2.97-2.01v9.58l3.07,2.2-.1-9.77Zm-2.73,7.44v-9l2.48,1.73,.1,9.18-2.58-1.91Zm-1.09,24.31l-2.97-2.01v12.3l3.07,2.21-.1-12.5Zm-2.73,10.17v-11.73l2.48,1.73,.1,11.91-2.58-1.91ZM51.21,24.26l-2.97,1.01v9.43l3.07-.92-.1-9.52Zm-2.72,10.09l-.03-8.9,2.41-.67,.2,8.75-2.58,.82Zm15.2-14.09l-2.98,1.02v9.43l3.08-.92-.1-9.53Zm-2.7,10.07l-.05-8.9,2.4-.65,.23,8.76-2.58,.79ZM27.63,16.99l-2.98-2.01v9.57l3.08,2.21-.1-9.77Zm-2.73,7.44V15.43l2.48,1.73,.1,9.18-2.58-1.91Zm58.29,36.93l.19-1.24-1.16,.35-.07-1.88-.85,1.33-.62-1.24-.47,1-.67-1.24-.08,2.15,3.23,1.99,2.01-1.44-1.51,.22ZM63.69,20.26l-2.98,1.02v9.43l3.08-.92-.1-9.53Zm-2.7,10.07l-.05-8.9,2.4-.65,.23,8.76-2.58,.79Zm-9.78-6.07l-2.97,1.01v9.43l3.07-.92-.1-9.52Zm-2.72,10.09l-.03-8.9,2.41-.67,.2,8.75-2.58,.82Zm-11.49-11.16l-2.97-2.01v9.58l3.07,2.2-.1-9.77Zm-2.73,7.44v-9l2.48,1.73,.1,9.18-2.58-1.91Zm-1.09,24.31l-2.97-2.01v12.3l3.07,2.21-.1-12.5Zm-2.73,10.17v-11.73l2.48,1.73,.1,11.91-2.58-1.91Zm-2.82-48.12l-2.98-2.01v9.57l3.08,2.21-.1-9.77Zm-2.73,7.44V15.43l2.48,1.73,.1,9.18-2.58-1.91Zm-1.84,23.96l-2.97-2.01v12.3l3.07,2.21-.1-12.5Zm-2.73,10.17v-11.73l2.48,1.73,.1,11.91-2.58-1.91Zm62.86,2.8l.19-1.24-1.16,.35-.07-1.88-.85,1.33-.62-1.24-.47,1-.67-1.24-.08,2.15,3.23,1.99,2.01-1.44-1.51,.22Zm-60.13-12.97l-2.97-2.01v12.3l3.07,2.21-.1-12.5Zm-2.73,10.17v-11.73l2.48,1.73,.1,11.91-2.58-1.91ZM37,23.19l-2.97-2.01v9.58l3.07,2.2-.1-9.77Zm-2.73,7.44v-9l2.48,1.73,.1,9.18-2.58-1.91Zm-1.09,24.31l-2.97-2.01v12.3l3.07,2.21-.1-12.5Zm-2.73,10.17v-11.73l2.48,1.73,.1,11.91-2.58-1.91ZM51.21,24.26l-2.97,1.01v9.43l3.07-.92-.1-9.52Zm-2.72,10.09l-.03-8.9,2.41-.67,.2,8.75-2.58,.82Zm15.2-14.09l-2.98,1.02v9.43l3.08-.92-.1-9.53Zm-2.7,10.07l-.05-8.9,2.4-.65,.23,8.76-2.58,.79ZM27.63,16.99l-2.98-2.01v9.57l3.08,2.21-.1-9.77Zm-2.73,7.44V15.43l2.48,1.73,.1,9.18-2.58-1.91Zm58.29,36.93l.19-1.24-1.16,.35-.07-1.88-.85,1.33-.62-1.24-.47,1-.67-1.24-.08,2.15,3.23,1.99,2.01-1.44-1.51,.22ZM63.69,20.26l-2.98,1.02v9.43l3.08-.92-.1-9.53Zm-2.7,10.07l-.05-8.9,2.4-.65,.23,8.76-2.58,.79Zm-9.78-6.07l-2.97,1.01v9.43l3.07-.92-.1-9.52Zm-2.72,10.09l-.03-8.9,2.41-.67,.2,8.75-2.58,.82Zm-11.49-11.16l-2.97-2.01v9.58l3.07,2.2-.1-9.77Zm-2.73,7.44v-9l2.48,1.73,.1,9.18-2.58-1.91Zm-1.09,24.31l-2.97-2.01v12.3l3.07,2.21-.1-12.5Zm-2.73,10.17v-11.73l2.48,1.73,.1,11.91-2.58-1.91Zm-2.82-48.12l-2.98-2.01v9.57l3.08,2.21-.1-9.77Zm-2.73,7.44V15.43l2.48,1.73,.1,9.18-2.58-1.91Zm-1.84,23.96l-2.97-2.01v12.3l3.07,2.21-.1-12.5Zm-2.73,10.17v-11.73l2.48,1.73,.1,11.91-2.58-1.91Zm62.86,2.8l.19-1.24-1.16,.35-.07-1.88-.85,1.33-.62-1.24-.47,1-.67-1.24-.08,2.15,3.23,1.99,2.01-1.44-1.51,.22Zm-60.13-12.97l-2.97-2.01v12.3l3.07,2.21-.1-12.5Zm-2.73,10.17v-11.73l2.48,1.73,.1,11.91-2.58-1.91ZM37,23.19l-2.97-2.01v9.58l3.07,2.2-.1-9.77Zm-2.73,7.44v-9l2.48,1.73,.1,9.18-2.58-1.91Zm-1.09,24.31l-2.97-2.01v12.3l3.07,2.21-.1-12.5Zm-2.73,10.17v-11.73l2.48,1.73,.1,11.91-2.58-1.91ZM51.21,24.26l-2.97,1.01v9.43l3.07-.92-.1-9.52Zm-2.72,10.09l-.03-8.9,2.41-.67,.2,8.75-2.58,.82Zm15.2-14.09l-2.98,1.02v9.43l3.08-.92-.1-9.53Zm-2.7,10.07l-.05-8.9,2.4-.65,.23,8.76-2.58,.79ZM27.63,16.99l-2.98-2.01v9.57l3.08,2.21-.1-9.77Zm-2.73,7.44V15.43l2.48,1.73,.1,9.18-2.58-1.91Zm58.29,36.93l.19-1.24-1.16,.35-.07-1.88-.85,1.33-.62-1.24-.47,1-.67-1.24-.08,2.15,3.23,1.99,2.01-1.44-1.51,.22ZM63.69,20.26l-2.98,1.02v9.43l3.08-.92-.1-9.53Zm-2.7,10.07l-.05-8.9,2.4-.65,.23,8.76-2.58,.79Zm-9.78-6.07l-2.97,1.01v9.43l3.07-.92-.1-9.52Zm-2.72,10.09l-.03-8.9,2.41-.67,.2,8.75-2.58,.82Zm-11.49-11.16l-2.97-2.01v9.58l3.07,2.2-.1-9.77Zm-2.73,7.44v-9l2.48,1.73,.1,9.18-2.58-1.91Zm-1.09,24.31l-2.97-2.01v12.3l3.07,2.21-.1-12.5Zm-2.73,10.17v-11.73l2.48,1.73,.1,11.91-2.58-1.91Zm-2.82-48.12l-2.98-2.01v9.57l3.08,2.21-.1-9.77Zm-2.73,7.44V15.43l2.48,1.73,.1,9.18-2.58-1.91Zm-1.84,23.96l-2.97-2.01v12.3l3.07,2.21-.1-12.5Zm-2.73,10.17v-11.73l2.48,1.73,.1,11.91-2.58-1.91Zm62.86,2.8l.19-1.24-1.16,.35-.07-1.88-.85,1.33-.62-1.24-.47,1-.67-1.24-.08,2.15,3.23,1.99,2.01-1.44-1.51,.22Zm-60.13-12.97l-2.97-2.01v12.3l3.07,2.21-.1-12.5Zm-2.73,10.17v-11.73l2.48,1.73,.1,11.91-2.58-1.91ZM37,23.19l-2.97-2.01v9.58l3.07,2.2-.1-9.77Zm-2.73,7.44v-9l2.48,1.73,.1,9.18-2.58-1.91Zm-1.09,24.31l-2.97-2.01v12.3l3.07,2.21-.1-12.5Zm-2.73,10.17v-11.73l2.48,1.73,.1,11.91-2.58-1.91ZM51.21,24.26l-2.97,1.01v9.43l3.07-.92-.1-9.52Zm-2.72,10.09l-.03-8.9,2.41-.67,.2,8.75-2.58,.82Zm15.2-14.09l-2.98,1.02v9.43l3.08-.92-.1-9.53Zm-2.7,10.07l-.05-8.9,2.4-.65,.23,8.76-2.58,.79ZM27.63,16.99l-2.98-2.01v9.57l3.08,2.21-.1-9.77Zm-2.73,7.44V15.43l2.48,1.73,.1,9.18-2.58-1.91Zm58.29,36.93l.19-1.24-1.16,.35-.07-1.88-.85,1.33-.62-1.24-.47,1-.67-1.24-.08,2.15,3.23,1.99,2.01-1.44-1.51,.22ZM63.69,20.26l-2.98,1.02v9.43l3.08-.92-.1-9.53Zm-2.7,10.07l-.05-8.9,2.4-.65,.23,8.76-2.58,.79Zm-9.78-6.07l-2.97,1.01v9.43l3.07-.92-.1-9.52Zm-2.72,10.09l-.03-8.9,2.41-.67,.2,8.75-2.58,.82Zm-11.49-11.16l-2.97-2.01v9.58l3.07,2.2-.1-9.77Zm-2.73,7.44v-9l2.48,1.73,.1,9.18-2.58-1.91Zm-1.09,24.31l-2.97-2.01v12.3l3.07,2.21-.1-12.5Zm-2.73,10.17v-11.73l2.48,1.73,.1,11.91-2.58-1.91Zm-2.82-48.12l-2.98-2.01v9.57l3.08,2.21-.1-9.77Zm-2.73,7.44V15.43l2.48,1.73,.1,9.18-2.58-1.91Zm-1.84,23.96l-2.97-2.01v12.3l3.07,2.21-.1-12.5Zm-2.73,10.17v-11.73l2.48,1.73,.1,11.91-2.58-1.91Zm62.86,2.8l.19-1.24-1.16,.35-.07-1.88-.85,1.33-.62-1.24-.47,1-.67-1.24-.08,2.15,3.23,1.99,2.01-1.44-1.51,.22Zm-60.13-12.97l-2.97-2.01v12.3l3.07,2.21-.1-12.5Zm-2.73,10.17v-11.73l2.48,1.73,.1,11.91-2.58-1.91ZM37,23.19l-2.97-2.01v9.58l3.07,2.2-.1-9.77Zm-2.73,7.44v-9l2.48,1.73,.1,9.18-2.58-1.91Zm-1.09,24.31l-2.97-2.01v12.3l3.07,2.21-.1-12.5Zm-2.73,10.17v-11.73l2.48,1.73,.1,11.91-2.58-1.91ZM51.21,24.26l-2.97,1.01v9.43l3.07-.92-.1-9.52Zm-2.72,10.09l-.03-8.9,2.41-.67,.2,8.75-2.58,.82Zm15.2-14.09l-2.98,1.02v9.43l3.08-.92-.1-9.53Zm-2.7,10.07l-.05-8.9,2.4-.65,.23,8.76-2.58,.79ZM27.63,16.99l-2.98-2.01v9.57l3.08,2.21-.1-9.77Zm-2.73,7.44V15.43l2.48,1.73,.1,9.18-2.58-1.91Zm58.29,36.93l.19-1.24-1.16,.35-.07-1.88-.85,1.33-.62-1.24-.47,1-.67-1.24-.08,2.15,3.23,1.99,2.01-1.44-1.51,.22ZM63.69,20.26l-2.98,1.02v9.43l3.08-.92-.1-9.53Zm-2.7,10.07l-.05-8.9,2.4-.65,.23,8.76-2.58,.79Zm-9.78-6.07l-2.97,1.01v9.43l3.07-.92-.1-9.52Zm-2.72,10.09l-.03-8.9,2.41-.67,.2,8.75-2.58,.82Zm-11.49-11.16l-2.97-2.01v9.58l3.07,2.2-.1-9.77Zm-2.73,7.44v-9l2.48,1.73,.1,9.18-2.58-1.91Zm-1.09,24.31l-2.97-2.01v12.3l3.07,2.21-.1-12.5Zm-2.73,10.17v-11.73l2.48,1.73,.1,11.91-2.58-1.91Zm-2.82-48.12l-2.98-2.01v9.57l3.08,2.21-.1-9.77Zm-2.73,7.44V15.43l2.48,1.73,.1,9.18-2.58-1.91Zm-1.84,23.96l-2.97-2.01v12.3l3.07,2.21-.1-12.5Zm-2.73,10.17v-11.73l2.48,1.73,.1,11.91-2.58-1.91Zm62.86,2.8l.19-1.24-1.16,.35-.07-1.88-.85,1.33-.62-1.24-.47,1-.67-1.24-.08,2.15,3.23,1.99,2.01-1.44-1.51,.22Zm-60.13-12.97l-2.97-2.01v12.3l3.07,2.21-.1-12.5Zm-2.73,10.17v-11.73l2.48,1.73,.1,11.91-2.58-1.91ZM37,23.19l-2.97-2.01v9.58l3.07,2.2-.1-9.77Zm-2.73,7.44v-9l2.48,1.73,.1,9.18-2.58-1.91Zm-1.09,24.31l-2.97-2.01v12.3l3.07,2.21-.1-12.5Zm-2.73,10.17v-11.73l2.48,1.73,.1,11.91-2.58-1.91ZM51.21,24.26l-2.97,1.01v9.43l3.07-.92-.1-9.52Zm-2.72,10.09l-.03-8.9,2.41-.67,.2,8.75-2.58,.82Zm15.2-14.09l-2.98,1.02v9.43l3.08-.92-.1-9.53Zm-2.7,10.07l-.05-8.9,2.4-.65,.23,8.76-2.58,.79ZM27.63,16.99l-2.98-2.01v9.57l3.08,2.21-.1-9.77Zm-2.73,7.44V15.43l2.48,1.73,.1,9.18-2.58-1.91Zm58.29,36.93l.19-1.24-1.16,.35-.07-1.88-.85,1.33-.62-1.24-.47,1-.67-1.24-.08,2.15,3.23,1.99,2.01-1.44-1.51,.22ZM63.69,20.26l-2.98,1.02v9.43l3.08-.92-.1-9.53Zm-2.7,10.07l-.05-8.9,2.4-.65,.23,8.76-2.58,.79Zm-9.78-6.07l-2.97,1.01v9.43l3.07-.92-.1-9.52Zm-2.72,10.09l-.03-8.9,2.41-.67,.2,8.75-2.58,.82Zm-11.49-11.16l-2.97-2.01v9.58l3.07,2.2-.1-9.77Zm-2.73,7.44v-9l2.48,1.73,.1,9.18-2.58-1.91Zm-1.09,24.31l-2.97-2.01v12.3l3.07,2.21-.1-12.5Zm-2.73,10.17v-11.73l2.48,1.73,.1,11.91-2.58-1.91Zm-2.82-48.12l-2.98-2.01v9.57l3.08,2.21-.1-9.77Zm-2.73,7.44V15.43l2.48,1.73,.1,9.18-2.58-1.91Zm-1.84,23.96l-2.97-2.01v12.3l3.07,2.21-.1-12.5Zm-2.73,10.17v-11.73l2.48,1.73,.1,11.91-2.58-1.91Zm62.86,2.8l.19-1.24-1.16,.35-.07-1.88-.85,1.33-.62-1.24-.47,1-.67-1.24-.08,2.15,3.23,1.99,2.01-1.44-1.51,.22Zm-60.13-12.97l-2.97-2.01v12.3l3.07,2.21-.1-12.5Zm-2.73,10.17v-11.73l2.48,1.73,.1,11.91-2.58-1.91ZM37,23.19l-2.97-2.01v9.58l3.07,2.2-.1-9.77Zm-2.73,7.44v-9l2.48,1.73,.1,9.18-2.58-1.91Zm-1.09,24.31l-2.97-2.01v12.3l3.07,2.21-.1-12.5Zm-2.73,10.17v-11.73l2.48,1.73,.1,11.91-2.58-1.91ZM51.21,24.26l-2.97,1.01v9.43l3.07-.92-.1-9.52Zm-2.72,10.09l-.03-8.9,2.41-.67,.2,8.75-2.58,.82Zm15.2-14.09l-2.98,1.02v9.43l3.08-.92-.1-9.53Zm-2.7,10.07l-.05-8.9,2.4-.65,.23,8.76-2.58,.79ZM27.63,16.99l-2.98-2.01v9.57l3.08,2.21-.1-9.77Zm-2.73,7.44V15.43l2.48,1.73,.1,9.18-2.58-1.91Zm58.29,36.93l.19-1.24-1.16,.35-.07-1.88-.85,1.33-.62-1.24-.47,1-.67-1.24-.08,2.15,3.23,1.99,2.01-1.44-1.51,.22ZM63.69,20.26l-2.98,1.02v9.43l3.08-.92-.1-9.53Zm-2.7,10.07l-.05-8.9,2.4-.65,.23,8.76-2.58,.79Zm-9.78-6.07l-2.97,1.01v9.43l3.07-.92-.1-9.52Zm-2.72,10.09l-.03-8.9,2.41-.67,.2,8.75-2.58,.82Zm-11.49-11.16l-2.97-2.01v9.58l3.07,2.2-.1-9.77Zm-2.73,7.44v-9l2.48,1.73,.1,9.18-2.58-1.91Zm-1.09,24.31l-2.97-2.01v12.3l3.07,2.21-.1-12.5Zm-2.73,10.17v-11.73l2.48,1.73,.1,11.91-2.58-1.91Zm-2.82-48.12l-2.98-2.01v9.57l3.08,2.21-.1-9.77Zm-2.73,7.44V15.43l2.48,1.73,.1,9.18-2.58-1.91Zm-1.84,23.96l-2.97-2.01v12.3l3.07,2.21-.1-12.5Zm-2.73,10.17v-11.73l2.48,1.73,.1,11.91-2.58-1.91Zm62.86,2.8l.19-1.24-1.16,.35-.07-1.88-.85,1.33-.62-1.24-.47,1-.67-1.24-.08,2.15,3.23,1.99,2.01-1.44-1.51,.22Zm-60.13-12.97l-2.97-2.01v12.3l3.07,2.21-.1-12.5Zm-2.73,10.17v-11.73l2.48,1.73,.1,11.91-2.58-1.91ZM37,23.19l-2.97-2.01v9.58l3.07,2.2-.1-9.77Zm-2.73,7.44v-9l2.48,1.73,.1,9.18-2.58-1.91Zm-1.09,24.31l-2.97-2.01v12.3l3.07,2.21-.1-12.5Zm-2.73,10.17v-11.73l2.48,1.73,.1,11.91-2.58-1.91ZM51.21,24.26l-2.97,1.01v9.43l3.07-.92-.1-9.52Zm-2.72,10.09l-.03-8.9,2.41-.67,.2,8.75-2.58,.82Zm15.2-14.09l-2.98,1.02v9.43l3.08-.92-.1-9.53Zm-2.7,10.07l-.05-8.9,2.4-.65,.23,8.76-2.58,.79ZM27.63,16.99l-2.98-2.01v9.57l3.08,2.21-.1-9.77Zm-2.73,7.44V15.43l2.48,1.73,.1,9.18-2.58-1.91Zm58.29,36.93l.19-1.24-1.16,.35-.07-1.88-.85,1.33-.62-1.24-.47,1-.67-1.24-.08,2.15,3.23,1.99,2.01-1.44-1.51,.22ZM63.69,20.26l-2.98,1.02v9.43l3.08-.92-.1-9.53Zm-2.7,10.07l-.05-8.9,2.4-.65,.23,8.76-2.58,.79Zm-9.78-6.07l-2.97,1.01v9.43l3.07-.92-.1-9.52Zm-2.72,10.09l-.03-8.9,2.41-.67,.2,8.75-2.58,.82Zm-11.49-11.16l-2.97-2.01v9.58l3.07,2.2-.1-9.77Zm-2.73,7.44v-9l2.48,1.73,.1,9.18-2.58-1.91Zm-1.09,24.31l-2.97-2.01v12.3l3.07,2.21-.1-12.5Zm-2.73,10.17v-11.73l2.48,1.73,.1,11.91-2.58-1.91Zm-2.82-48.12l-2.98-2.01v9.57l3.08,2.21-.1-9.77Zm-2.73,7.44V15.43l2.48,1.73,.1,9.18-2.58-1.91Zm-1.84,23.96l-2.97-2.01v12.3l3.07,2.21-.1-12.5Zm-2.73,10.17v-11.73l2.48,1.73,.1,11.91-2.58-1.91Zm62.86,2.8l.19-1.24-1.16,.35-.07-1.88-.85,1.33-.62-1.24-.47,1-.67-1.24-.08,2.15,3.23,1.99,2.01-1.44-1.51,.22Zm-60.13-12.97l-2.97-2.01v12.3l3.07,2.21-.1-12.5Zm-2.73,10.17v-11.73l2.48,1.73,.1,11.91-2.58-1.91ZM37,23.19l-2.97-2.01v9.58l3.07,2.2-.1-9.77Zm-2.73,7.44v-9l2.48,1.73,.1,9.18-2.58-1.91Zm-1.09,24.31l-2.97-2.01v12.3l3.07,2.21-.1-12.5Zm-2.73,10.17v-11.73l2.48,1.73,.1,11.91-2.58-1.91ZM51.21,24.26l-2.97,1.01v9.43l3.07-.92-.1-9.52Zm-2.72,10.09l-.03-8.9,2.41-.67,.2,8.75-2.58,.82Zm15.2-14.09l-2.98,1.02v9.43l3.08-.92-.1-9.53Zm-2.7,10.07l-.05-8.9,2.4-.65,.23,8.76-2.58,.79ZM27.63,16.99l-2.98-2.01v9.57l3.08,2.21-.1-9.77Zm-2.73,7.44V15.43l2.48,1.73,.1,9.18-2.58-1.91Zm58.29,36.93l.19-1.24-1.16,.35-.07-1.88-.85,1.33-.62-1.24-.47,1-.67-1.24-.08,2.15,3.23,1.99,2.01-1.44-1.51,.22ZM63.69,20.26l-2.98,1.02v9.43l3.08-.92-.1-9.53Zm-2.7,10.07l-.05-8.9,2.4-.65,.23,8.76-2.58,.79Zm-9.78-6.07l-2.97,1.01v9.43l3.07-.92-.1-9.52Zm-2.72,10.09l-.03-8.9,2.41-.67,.2,8.75-2.58,.82Zm-11.49-11.16l-2.97-2.01v9.58l3.07,2.2-.1-9.77Zm-2.73,7.44v-9l2.48,1.73,.1,9.18-2.58-1.91Zm-1.09,24.31l-2.97-2.01v12.3l3.07,2.21-.1-12.5Zm-2.73,10.17v-11.73l2.48,1.73,.1,11.91-2.58-1.91Zm-2.82-48.12l-2.98-2.01v9.57l3.08,2.21-.1-9.77Zm-2.73,7.44V15.43l2.48,1.73,.1,9.18-2.58-1.91Zm-1.84,23.96l-2.97-2.01v12.3l3.07,2.21-.1-12.5Zm-2.73,10.17v-11.73l2.48,1.73,.1,11.91-2.58-1.91Zm62.86,2.8l.19-1.24-1.16,.35-.07-1.88-.85,1.33-.62-1.24-.47,1-.67-1.24-.08,2.15,3.23,1.99,2.01-1.44-1.51,.22Zm-60.13-12.97l-2.97-2.01v12.3l3.07,2.21-.1-12.5Zm-2.73,10.17v-11.73l2.48,1.73,.1,11.91-2.58-1.91ZM37,23.19l-2.97-2.01v9.58l3.07,2.2-.1-9.77Zm-2.73,7.44v-9l2.48,1.73,.1,9.18-2.58-1.91Zm-1.09,24.31l-2.97-2.01v12.3l3.07,2.21-.1-12.5Zm-2.73,10.17v-11.73l2.48,1.73,.1,11.91-2.58-1.91ZM51.21,24.26l-2.97,1.01v9.43l3.07-.92-.1-9.52Zm-2.72,10.09l-.03-8.9,2.41-.67,.2,8.75-2.58,.82Zm15.2-14.09l-2.98,1.02v9.43l3.08-.92-.1-9.53Zm-2.7,10.07l-.05-8.9,2.4-.65,.23,8.76-2.58,.79ZM27.63,16.99l-2.98-2.01v9.57l3.08,2.21-.1-9.77Zm-2.73,7.44V15.43l2.48,1.73,.1,9.18-2.58-1.91Zm58.29,36.93l.19-1.24-1.16,.35-.07-1.88-.85,1.33-.62-1.24-.47,1-.67-1.24-.08,2.15,3.23,1.99,2.01-1.44-1.51,.22ZM63.69,20.26l-2.98,1.02v9.43l3.08-.92-.1-9.53Zm-2.7,10.07l-.05-8.9,2.4-.65,.23,8.76-2.58,.79Zm-9.78-6.07l-2.97,1.01v9.43l3.07-.92-.1-9.52Zm-2.72,10.09l-.03-8.9,2.41-.67,.2,8.75-2.58,.82Zm-11.49-11.16l-2.97-2.01v9.58l3.07,2.2-.1-9.77Zm-2.73,7.44v-9l2.48,1.73,.1,9.18-2.58-1.91Zm-1.09,24.31l-2.97-2.01v12.3l3.07,2.21-.1-12.5Zm-2.73,10.17v-11.73l2.48,1.73,.1,11.91-2.58-1.91Zm-2.82-48.12l-2.98-2.01v9.57l3.08,2.21-.1-9.77Zm-2.73,7.44V15.43l2.48,1.73,.1,9.18-2.58-1.91Zm-1.84,23.96l-2.97-2.01v12.3l3.07,2.21-.1-12.5Zm-2.73,10.17v-11.73l2.48,1.73,.1,11.91-2.58-1.91Zm62.86,2.8l.19-1.24-1.16,.35-.07-1.88-.85,1.33-.62-1.24-.47,1-.67-1.24-.08,2.15,3.23,1.99,2.01-1.44-1.51,.22Zm-60.13-12.97l-2.97-2.01v12.3l3.07,2.21-.1-12.5Zm-2.73,10.17v-11.73l2.48,1.73,.1,11.91-2.58-1.91ZM37,23.19l-2.97-2.01v9.58l3.07,2.2-.1-9.77Zm-2.73,7.44v-9l2.48,1.73,.1,9.18-2.58-1.91Zm-1.09,24.31l-2.97-2.01v12.3l3.07,2.21-.1-12.5Zm-2.73,10.17v-11.73l2.48,1.73,.1,11.91-2.58-1.91ZM51.21,24.26l-2.97,1.01v9.43l3.07-.92-.1-9.52Zm-2.72,10.09l-.03-8.9,2.41-.67,.2,8.75-2.58,.82Zm15.2-14.09l-2.98,1.02v9.43l3.08-.92-.1-9.53Zm-2.7,10.07l-.05-8.9,2.4-.65,.23,8.76-2.58,.79ZM27.63,16.99l-2.98-2.01v9.57l3.08,2.21-.1-9.77Zm-2.73,7.44V15.43l2.48,1.73,.1,9.18-2.58-1.91Zm58.29,36.93l.19-1.24-1.16,.35-.07-1.88-.85,1.33-.62-1.24-.47,1-.67-1.24-.08,2.15,3.23,1.99,2.01-1.44-1.51,.22ZM63.69,20.26l-2.98,1.02v9.43l3.08-.92-.1-9.53Zm-2.7,10.07l-.05-8.9,2.4-.65,.23,8.76-2.58,.79Zm-9.78-6.07l-2.97,1.01v9.43l3.07-.92-.1-9.52Zm-2.72,10.09l-.03-8.9,2.41-.67,.2,8.75-2.58,.82Zm-11.49-11.16l-2.97-2.01v9.58l3.07,2.2-.1-9.77Zm-2.73,7.44v-9l2.48,1.73,.1,9.18-2.58-1.91Zm-1.09,24.31l-2.97-2.01v12.3l3.07,2.21-.1-12.5Zm-2.73,10.17v-11.73l2.48,1.73,.1,11.91-2.58-1.91Zm-2.82-48.12l-2.98-2.01v9.57l3.08,2.21-.1-9.77Zm-2.73,7.44V15.43l2.48,1.73,.1,9.18-2.58-1.91Zm-1.84,23.96l-2.97-2.01v12.3l3.07,2.21-.1-12.5Zm-2.73,10.17v-11.73l2.48,1.73,.1,11.91-2.58-1.91Z"/>
    </g>
  </g>
</svg>