<?xml version="1.0" encoding="UTF-8"?>
<svg id="Layer_2" data-name="Layer 2" xmlns="http://www.w3.org/2000/svg" viewBox="0 0 217.41 131.44">
  <defs>
    <style>
      .cls-1 {
        opacity: .8;
      }

      .cls-2, .cls-3 {
        fill: #4a2412;
      }

      .cls-3 {
        fill-rule: evenodd;
      }
    </style>
  </defs>
  <g id="Layer_2-2" data-name="Layer 2">
    <g>
      <g id="layer1" class="cls-1">
        <path id="path2308" class="cls-3" d="M50.33,21.75v2.34c-1.01,4.04-1.26,9.24-.09,12.44l-.03,6.63c-.73,1.96-1.1,4.3-.06,6.09v2.44l-10.38-4.5-.12,1.69-1.34-.72,.72,2.22-2.72-.84,1.31,1.53,11.84,5.56-.12,5.44,.94-.06v1.31l1.81,.47,.75,3.38,.28-8.81,27.69,13.03c-2.72,2.45-5.5,4.87-8.44,7.19l-6.72-3.12c-2.26,.26-4.92,1.21-7.78,2.75l-1.16-.88,2.28-2.19,.47-.78-.5-1.41c-2.42,1.24-4.7,2.64-6.91,4.16l-12.53-5.75v-2.06c1.54,.6,3.12,1.1,4.72,.97-2.13-1.03-3.49-2.36-4.72-3.75v-3.44l-2.22-.88,1.56-.28-.41-.62,1.03-.12v-.81c1.62,.83,3.27,1.58,5.44,1.16-1.8-1.05-3.7-2.17-5.44-3.41v-4.47c-.17,.07-.42,.51-.59,.34-.33-.3-.6-1.33-.91-1.16-.22,.12,.06,1.28-.16,1.81-.12,.3-.71-.33-.84-.25l-.31,.53c0,.35,0,.54,0,.88-.25,1.11-.76,2.25-.13,3.25,.19,1.25,.09,2.85,.09,4.22-.39,.04-.86,3.66-.06,4.87-.01,.62-.01,1.16-.03,1.84l-2.5-1.16-1.03,.53,.41,1.25-4.16-.06-.91,.47,7.91,3.97,.03,2.88,1-.31,.31,.84h.78l.75,1.22,.19-3.12,8.09,4.06c-5.19,4.13-9.96,8.81-14.75,13.44,.22,.53,1.19,.32,1.47,.66,0,.46,.22,1.01,.28,1.41l-3.53,1.75,.03,.12,3.25,.09-1.03,1.34,2.12-.25-3.81,2.78c2.78-.14,5.57-.16,8.38-.12,10.66,6.06,17.4,6.65,23.94,5.78,.91-.12,1.83-.28,2.78-.47,5.49-1.11,11.71-3.26,19.59-4.81,2.23-.24,4.47-.54,6.72-.94,7.17-5.11,13.4-11.17,19.43-17.56-.08-.99-.25-1.79-.5-2.81,.6-.74,.96-.73,1.22-1.38,.01-.29-.89-.58-.94-.91-.19-1.12-.18-1.78-.12-2.19l.19-.25,2.78,1.16,.19-1.41h.12l-.88-1.94c.27-.16,.56-.41,.79-.69,.68-.11,1.6,.42,2.28,.28,.51-.13,.7-1.16,1.09-1.47,1.03,.06,1.8,.42,2.56-.12l7.66-15.84-.41-2.31-.12-.75h-.03c-1.67-8.56-3.01-13.72-13.44-19.41-.83,.3-1.63,.64-2.41,1l-1.34-1.06,1.63-2.12-.97-.34-.34-1.28-3.84,5,1.31,.03,.31,.78,.72-.62,.56,.62c-1.23,.69-2.39,1.46-3.47,2.31l-1.84-1.53,.56-.59-.06-.78-.87-.78-.09,.22c-3.14,2.43-5.46,3.95-7.25,6.78l-7.06-3.19c-.19-.07-.95,2.91-1.06,2.84l.03-2.44-.59,.41-.06-1.59-3.81-1.72-2,.09,.84,1-1.59-.34,.19,1-1.34-.16-1.78,.59,20.28,9.69-5,12.22c-3.11,2.34-5.99,4.83-8.84,7.37l-18.19-7.94-1.09,1.56-.31-2.16-.78,1.22-.31-1.72-11.62-5.06,.03-2.56c2.14,1.01,4.28,2,6.69,.81-2.61-1.28-4.65-2.96-6.59-4.88l.06-4.41-.5-.63,.19-.75-.62-.47,1-.53,.03-.94c1.21,.8,2.46,1.44,3.81,1.28-2-2.22-2.86-4.08-3.75-5.94l.03-1.28c1.97,1.18,3.86,2.53,6.44,2.28-3.27-1.91-5.02-3.82-6.38-5.78l.03-2.56-1.06-4.12-.69,1.53-.25-1.47-.56,1.25-.78-2.12h0Zm.19,.91l.34,1.75,.53-.62,.53,1.06,.56-1.69,1,3.94c-.01,.64-.02,1.26-.03,1.88-1.02-1.52-1.84-3.06-2.94-4.69,0,0,0-1.62,0-1.62Zm12.09,1.59l-.38,3.62,5,13.53,.78-3.06,1.12,1.69,.72-4.16-3.03-6.53-1.88,3.88,.59-5.16-1.31-.44s-1.62-3.37-1.62-3.37Zm-12.09,.59c2.31,3.49,4.1,7.28,8.5,9.69-1.74,.88-4.91-2.2-7.06-2.97,1.2,2.28,2.78,6.45,4.84,8.16-2.74-.27-4.69-2.27-6.28-3.34-.6-2.14-1.49-8.25,0-11.53Zm12.41,.22l.78,2.78,1.41,.41-.22,4.78-2.22-5.06s.25-2.91,.25-2.91Zm3.72,4.91l2.97,6.25-.66,2.84-1.12-2.34-.59,3.59-2.19-7s1.59-3.34,1.59-3.34Zm44.59,.41l.16,.91,1,.38-1.94,2.28,1.34,1.03c-.37,.18-.73,.37-1.09,.56l-.94-.78-.56,.56-.25-.75-.81,.12s3.09-4.31,3.09-4.31Zm-58.59,1.84c.24,.13,.48,.27,.72,.41,0,.32-.03,.64-.03,.97-.22-.46-.43-.91-.69-1.38Zm62.03,2c.41,.22,.8,.43,1.18,.66-7.69,4.53-11.69,9.13-14.18,13.47l-1.34-1.53c1.82-3.05,3.4-5.34,5.34-7.22h.03s0-.03,0-.03c2.21-2.13,4.9-3.74,8.97-5.34Zm-9.94,.62l.44,.41,.03,.66-.56,.59,1.88,1.81c-.31,.25-.61,.52-.91,.78l-2.28-1.5-1.69,2.09,1.72,1.69c-.39,.45-.79,.9-1.16,1.38-.12-.11-.55-.37-2.19-1.22l-2.38,2.69-.22-.91-.81,.25c1.82-3.97,4.33-5.77,8.13-8.72Zm11.38,.19c.7,.42,1.37,.87,2,1.31-4.68,3.63-8.72,5.9-15.38,13.22l-.97-1.09c2.47-4.29,6.64-8.93,14.35-13.44Zm-31.32,.81l3.72,1.75-.12,1.75,.62-.44,.16,2.81,1.16-3.28,6.81,3.22c-.38,.63-.76,1.33-1.09,2.12l.34,.22c.03-.06,.07-.1,.09-.16l.75-.06,.47,.94,1.59-2.03,2.22,1.03c-.71,1.01-1.37,2.06-1.97,3.19l-19.56-9.12,1.06-.28,1.34,.06-.22-.94,1.87,.53-.97-1.22s1.72-.09,1.72-.09Zm33.44,.59c.8,.58,1.52,1.17,2.19,1.78-6.09,4.15-11.22,8.63-16.03,13.22l-1.59-1.81c6.52-7.14,10.74-9.54,15.44-13.19Zm-67.62,.31c.89,.51,1.75,1.15,2.62,1.75,0,.34-.02,.63-.03,1,0,.21-1.03,.41-1.03,.62,0,.18,.63,.32,.62,.5,0,.27-.21,.51-.22,.78l.56,.56-.09,4.16c-.8-.79-1.59-1.64-2.41-2.5,0,0-.03-6.87-.03-6.87Zm52.72,1.25l2,1.34c-.58,.53-1.15,1.1-1.69,1.69l-1.56-1.53,1.25-1.5Zm17.16,.28c.62,.57,1.2,1.15,1.72,1.75-9.01,7.26-17.5,14.67-25.91,22.03l-1.12-.28,.47,.88c-13.45,11.78-26.72,23.44-41.47,34.31-.89-.16-1.78-.33-2.66-.5l20.97-17.47,.22,.09c8.05-6.27,13.55-12.62,22.03-18.88h.03s0-.03,0-.03c3.24-2.38,6.19-5.28,10.59-7.62l-.91-1.03c4.8-4.57,10-9.14,16.03-13.25h0Zm1.78,1.81c.53,.62,1.01,1.26,1.44,1.91-6.07,4.95-11.96,9.9-17.75,14.84l-.31-1.16-.78,2.12c-1.95,1.67-3.88,3.31-5.81,4.97l-2.62-.69c8.38-7.37,16.86-14.76,25.84-22Zm-22.28,1.72l1.94,1.31c-.05,.07-.1,.15-.16,.22l-2.22-1s.44-.53,.44-.53Zm23.78,.31c.3,.46,.59,.91,.85,1.38-5.91,5.35-11.86,10.67-17.88,15.97l-.72-2.47c5.8-4.96,11.68-9.92,17.75-14.88Zm.94,1.5c.36,.66,.66,1.35,.94,2.03-6.01,5.5-12.07,10.94-18.19,16.34l-.69-2.38c6.02-5.3,12.01-10.63,17.94-16Zm-74.28,.31c2.6,2.4,5.14,5.62,8.56,7.03-2.26,1.47-6.27-1.06-8.56-1.88-.91-1.77-.92-3.53,0-5.16Zm33.81,.84l-23.81,2.78,3.44,1.72-1.16,.66,1.69,.53-2.97,1.97,19.37-3.03-1.25-1.06,4-.69-2.5-.53s3.19-2.34,3.19-2.34Zm-1,.47l-2.91,2,1.56,.34-2.94,.78,1.22,.84-16.88,2.56,2.06-1.53-1.97-.28,1.69-.94-3.16-1.16s21.31-2.62,21.31-2.62Zm42.47,.53c.22,.55,.42,1.1,.59,1.66-5.4,5.16-10.87,10.28-16.4,15.34l-2.34-.44-.06-.22c6.13-5.4,12.21-10.84,18.22-16.34Zm-25.63,1.81l4.25,4.97c-3.56,1.81-6.07,4.31-9.09,6.53,0,0,4.84-11.5,4.84-11.5Zm26.28,.06c.21,.68,.39,1.37,.54,2.06-4.61,4.62-9.27,9.18-13.97,13.62l-2.85-.53c5.48-4.99,10.92-10.04,16.28-15.16Zm-86.43,.06l24.78,10.78,.31,1.69,.69-.38,.56,1.91,.75-1.91,.97,.12,17.19,7.5c-1.32,1.17-2.63,2.35-3.94,3.53l-43.16-20.22-.84-.78,2.78,1.03-1.16-1.69,1.19-.12s-.12-1.47-.12-1.47Zm10.78,1.69c.77,.25,1.53,.61,2.28,.97l-.06,2.53-2.22-.97s0-2.53,0-2.53Zm76.25,.47c.12,.55,.19,1.1,.28,1.66-4.11,4.15-8.24,8.17-12.38,12.16l-1.78-.31c4.72-4.4,9.36-8.9,13.88-13.5Zm.31,1.81c.09,.55,.13,1.1,.19,1.66-3.28,3.63-6.6,7.24-10,10.81l-2.38-.44c4.07-3.94,8.13-7.94,12.19-12.03Zm-89.19,1.5c.18-.15,.57,1.16,.75,1.09l.34-.25,.03,3.84c-.8-.59-1.56-1.21-2.25-1.84,.01-.22,.01-.4,.03-.62l.22-.69,.78,.16,.09-1.69Zm89.41,.41c.01,.14,.05,.27,.06,.41-.6,1.23-1.23,2.44-1.9,3.62-1.18,1.5-5.45,6.85-11.53,13.78l-.35-3.22c.78-.79,1.57-1.58,2.35-2.38l3-1.34-1.47-.28c3.34-3.5,6.61-7.03,9.84-10.59Zm.59,.72l.25,1.97c-2.52,5.43-4.62,10.41-7.65,15.22-.46,.35-1.65,.26-2.22,.31-.48,.21-.78,1.1-1.19,1.41-.75-.43-1.33-.33-2.15-.19,4.46-5.21,8.7-11,12.96-18.72Zm-91.34,2.03c2.18,1.76,4.61,3.71,7.38,4.97-1.84,.17-5.51-1.67-7.41-2.53-.62-.94-.02-1.65,.03-2.44Zm13.31,.56l2.81,1.31-.12,7.81-.56-2.78-1.63-.41-.09-1.19-.78,.12s.37-4.88,.37-4.88Zm55.59,0l.34,1.31-2.62,6.88c-.07-.06-.14-.67-.22-1.03,0,0,2.5-7.16,2.5-7.16Zm-.91,1.22l-1.72,4.63c-.32,.28-.65,.53-.97,.81l-2.81-.72c1.83-1.58,3.66-3.14,5.5-4.72Zm1.31,.41l.63,2.44-2.03,1.94,1.41-4.38Zm18.88,.28c-2.97,5.04-6.53,9.76-10.6,14.44l-.18-1.56c5.44-6.2,9.07-10.72,10.78-12.87Zm-88.13,.31c.83,.28,1.62,.66,2.41,1.06v.72l-1.03,.31,.31,.59-1.62,.34,2.38,.97v3.03c-.81-.94-1.6-1.88-2.5-2.78-.01-1.39,.02-2.82,.06-4.25Zm69.91,2.03l.41,1.59,.22,.94-3.44,3c-.48-.4-.94-.84-1.41-1.28l1.22,.41,.84-2.66s2.16-2,2.16-2Zm-10.69,1.28l6.88,1.75c-.05,.38-.06,.88-.19,.84l-6.41-2.06s-.28-.53-.28-.53Zm-.34,.31l1.09,2c-12.87,11.09-25.57,22.09-39.22,32.78-1.03-.16-2.06-.35-3.06-.53,14.7-10.85,27.85-22.52,41.19-34.25Zm11.94,.09l10.4,1.84-1.28,.47-8.91-1.62s-.22-.69-.22-.69Zm-4.69,.16l-.28,.72-.41-.09c.23-.21,.46-.42,.69-.62Zm-6.34,.44l5.09,1.69c1.29,1.31,2.8,2.4,4.37,3.28h.03c.52,.29,1.04,.58,1.56,.81,.17,1.81,.99,2.17,2.66,1.44l.19-.38c.83,.21,1.61,.31,2.37,.34l.47,1.88c-4.35,1.01-10.72-3.61-15.12-6.06,0,0-1.62-3-1.62-3Zm10.75,.31l.78,.16-.25,2.72-1.81,1.63c-.73-.45-1.4-.95-2.06-1.5l3.34-2.97s0-.03,0-.03Zm-70.66,.06c2.15,2.17,4.17,4.82,6.75,6.13-2.52-.32-4.75-1.27-6.78-2.19-.55-1.36,.04-2.74,.03-3.94Zm71.81,.19l2.34,.47-.47,5.5c-.15,.25-.3,.47-.47,.62-1.13,.45-1.35,.03-1.81-1,0,0,.41-5.59,.41-5.59Zm2.66,.53l1.65,.34-1.93,2,.28-2.34Zm-14.31,.34l1.19,2.22c-12.03,10.45-24.22,20.76-36.47,30.94-1.28-.14-2.54-.28-3.78-.47,13.6-10.66,26.25-21.64,39.06-32.69Zm16.1,.03l1.84,.38-.94,.94-.81,.31,.03,.19-.19,.5-2.31,2.37,.31-2.5s2.07-2.19,2.07-2.19Zm2,.41l.93,.19-1.71,.62,.78-.81Zm.75,.69c-.65,.67-1.29,1.33-1.94,2l-.12-1.09s2.06-.91,2.06-.91Zm-7.82,.81l-.22,2.28c-.52-.22-1-.5-1.47-.78,0,0,1.69-1.5,1.69-1.5Zm-9.38,.12c.96,.44,2.01,1.07,3.09,1.75l-1.84,1.66-.09-.81,.16-.19-1.31-2.41Zm-.41,.31l1.06,2c-11.15,9.72-22.43,19.37-33.81,29.12-1.2-.08-2.37-.19-3.53-.31,12.23-10.16,24.34-20.42,36.28-30.81Zm15.04,.03l.71,6.47-1.06-5.28s.35-1.19,.35-1.19Zm-.38,.28l-.31,.88,.4,1.84c-.82-.06-1.6-.17-2.31-.31v-.12l.03-.03s2.19-2.25,2.19-2.25Zm-75.91,.66c.8,.29,1.62,.61,2.44,.94v2.06l-2.41-1.12c-.01-.73-.02-1.21-.03-1.87Zm64.84,.53c.74,.46,1.48,.93,2.25,1.41l-5.56,4.94-2.94-.12,4.41-3.59-.09-.87s1.94-1.75,1.94-1.75Zm-67.44,.41l17.5,8.12c-1.4,.97-2.73,2.01-4.06,3.06l-18.88-9.44,.53-.25,4.5,.19-.69-1.31s1.09-.38,1.09-.37Zm64.62,.5l-4.62,5.5,1.81,.12c-8.79,7.83-17.67,15.59-26.62,23.31-1.33-.03-2.63-.13-3.91-.22,11.21-9.61,22.34-19.13,33.34-28.72Zm.41,.31l.19,1.25-4.5,3.72h-.09l4.41-4.97Zm4.78,.25c.78,.47,1.55,.94,2.34,1.34l-1.62,1.69-.41-.06,.75-1.84-6.09,3.78h-.31s5.34-4.91,5.34-4.91Zm2.5,1.41c.46,.23,.94,.44,1.41,.63l-2.03,2.06-1.03-.25,.66-.69-.56-.09s1.56-1.66,1.56-1.66Zm-2.19,.5l-.22,1.13,.81,.31-.75,.44,1.28,.47-3.09,2.91-.88-2.16-2.06-.09,4.91-3Zm3.75,.19c.87,.33,1.71,.56,2.56,.66l-2.44,2.69-1.44-1.22-3.28,5.72-.91-2.22,5.5-5.62Zm5.21,.44l.22,.75-1.59,1.84h-.03l-2.66,1.19-.84-.72,2.62-2.81c.78,.05,1.54,0,2.28-.25Zm-54.72,.84l.56,.81-.31,.47-2.72,2.44,1.22,1.16c-.59,.33-1.2,.68-1.81,1.06l-2.34-1.12-3.78,2.91,2,1.09c-.58,.44-1.17,.87-1.75,1.34l-1.84-1.06-3.06,2.72,1.84,1.03c-.63,.58-1.26,1.17-1.88,1.78l-1.81-.94-2.84,2.62,1.84,1.25c-.36,.4-.71,.81-1.06,1.22l-2.16-1.09-3.56,2.62,1.41,1.22-1.41,.59c-.44-.33-.49-.8-.66-1.28-.29-.39-.76-.31-.91-.62,7.82-6.78,14.57-14.63,25.03-20.22h0Zm54.97,.06l.1,.34,1.28,1.75-2.75-.38,1.37-1.72Zm-6.62,1.34l2.25,1.87s-.08,.08-.12,.13c-6.14,6.69-13.41,13.33-19.72,19.75-1.93,.38-3.79,.69-5.59,.94,6.38-6.05,12.72-12.13,18.94-18.28l.81,1.97,3.44-6.37Zm-70.22,.19l2.34,1.16-.06,2.75-.47-1h-.72l-.47-.81-.72,.22,.09-2.31Zm59.47,.09l3.47,.25c-8.63,7.67-17.43,15.27-26.25,23.03-1.31,.03-2.6,.06-3.84,.03,9-7.77,17.82-15.5,26.62-23.31Zm3.56,.25l1.38,.09,.34,.81c-7.8,7.31-15.65,14.51-23.47,21.88-1.42,.11-2.81,.21-4.16,.25,8.78-7.77,17.36-15.25,25.91-23.03Zm12.19,.16l2.72,.22,.06,1.19-2.97-1.31,.19-.09Zm-46.38,.25l.53,.22c-9.44,5.21-16.65,11.7-23.22,18.53-.88-.18-1.74-.38-2.62-.56,5.96-6.93,13.25-14.94,25.31-18.19Zm45.88,0l.41,.16c-.1,.11-.19,.21-.28,.31-.36,.4-.71,.79-1.06,1.19l-.84-.72s1.78-.94,1.78-.94Zm-7.31,.22l-1.59,1.62-.03-.09,1.62-1.53Zm-37.91,.06l3.31,1.47c-7.92,5.66-15.87,11.52-22.28,17.91-1.3-.27-2.61-.54-3.91-.81,6.45-6.7,13.61-13.45,22.88-18.56Zm35.31,.41l1.09,2.59c-6.26,6.22-12.64,12.39-19.09,18.5-1.75,.24-3.44,.43-5.09,.56,7.72-7.27,15.42-14.42,23.09-21.66Zm10.09,.22c.05,.62,.03,1.38,.09,1.84,.04,.29,.82,.59,.81,.78-.17,.46-1.02,.94-1.18,1.41,.34,.81,.23,1.42,.19,2.22-4.84,5.52-10.94,11.17-19.03,17.44-21.68,4.74-43.19-.78-59.41,.72l2.91-2.28-1.81-.06,1.19-1.72-3.72,.47c2.51-1.03,5.09-1.86,7.5-3.16,14.75,4.35,29.12,5.25,43.94,3.81,3.2-.31,6.43-.73,9.69-1.25,6.74-8.07,12.19-12.74,18.84-20.22Zm-2.28,.16l.97,.81c-5.92,6.51-11.51,11.66-17.88,18.31-.97,.22-1.9,.41-2.84,.59,6.66-6.4,13.32-12.73,19.59-19.53,.06-.06,.1-.13,.16-.19Zm-39.66,.75l2.59,1.16-21.12,17.5c-1.2-.24-2.38-.5-3.56-.75,6.36-6.3,14.14-12.19,22.06-17.84,0,0,.03-.06,.03-.06Zm-16.53,1.03l2,.97c-1.15,.73-2.29,1.55-3.47,2.44l-1.78-.94,3.25-2.47Zm-5.38,4.28l1.59,.94c-.85,.7-1.69,1.42-2.53,2.19l-1.62-.84s2.56-2.28,2.56-2.28Zm-4.78,4.59l1.47,.81c-.77,.77-1.56,1.58-2.31,2.41l-1.72-1.12s2.56-2.09,2.56-2.09Zm71.53,2.94l-1.15,.41,.18,8.53c-.73,.27-1.34-.28-2-.53-1.53-.61-3.06-.68-4.59-.63,2.53,.26,4.95,.65,6.59,1.78,3.8,2.61,6.13,3.22,10.32,5.13,1.69,.71,3.61,1.24,4.68,2.5-.39-.94-1.53-1.61-2.87-2.19l.5-13.87-1.44,.56-2.72,1.75-2.15-2.28-1.57,.66-1.28,1.38-2.5-3.19h0Zm-.06,.19l2.44,3.16-.47,.53-2.91-3.31,.94-.38Zm-75.91,1l1.97,.94c-.33,.38-.65,.77-.97,1.16l-2.62,1.09-1-1.16,2.62-2.03Zm81.04,.22l2.12,2.22-.5,.34-2.66-1.97,1.04-.59Zm6.34,.03l-.5,13.47c-.31-.13-.62-.25-.94-.38l.25-12.43s1.19-.66,1.19-.66Zm-12,.41l2.12,2.72-.03,6-1.75-.84s-.34-7.88-.34-7.88Zm4.4,.59l1.44,1.09-.15,8.78-3.41-1.66,.09-5.78,.25,.31s1.78-2.75,1.78-2.75Zm5.72,.31l-.09,11.66-1.69-.82,.16-9.78s1.62-1.06,1.62-1.06Zm-4.12,.91l1.25,.97,1.06-.69-.28,9.5-2.16-1.03s.13-8.75,.13-8.75Zm-78.78,7.5c.66,.01,1.33,.04,2,.06l.34,1.16c-.76-.38-1.54-.78-2.34-1.22Zm2.19,.06c1.21,.03,2.41,.08,3.62,.12l.88,3c-1.3-.51-2.68-1.12-4.12-1.84,0,0-.38-1.28-.38-1.28Zm3.88,.16c1.1,.05,2.18,.07,3.28,.12l.91,4.1c-1.03-.31-2.1-.66-3.22-1.1,0,0-.97-3.12-.97-3.12Zm3.47,.16c1.05,.05,2.13,.1,3.19,.16l1.06,4.75c-1.03-.18-2.1-.43-3.22-.75l-1.03-4.16Zm3.44,.16c1.19,.06,2.4,.13,3.59,.19l.94,4.93c-1.12-.03-2.29-.14-3.5-.34l-1.03-4.78Zm3.94,.19c1.07,.05,2.14,.11,3.22,.16l.78,4.66c-1.03,.09-2.06,.15-3.12,.12l-.88-4.93Zm23.44,.16c-.96,.22-1.89,.46-2.78,.69l-.28-.53c1.02-.04,2.04-.09,3.06-.16Zm-20,.03c1.29,.06,2.57,.08,3.88,.12,.04,1.31,.65,2.57,1.03,3.84-.93,.2-1.86,.38-2.78,.5-.44,.06-.87,.09-1.31,.13l-.81-4.6Zm4.03,.12c1.37,.04,2.75,.07,4.13,.09l.56,2.82c-1.21,.33-2.38,.62-3.53,.87-.35-1.15-.92-2.75-1.16-3.78Zm12.72,0l.31,.56c-1.27,.33-2.43,.67-3.59,1-.17-.49-.33-.97-.47-1.47,1.24-.02,2.5-.04,3.75-.09Zm-8.38,.09c1.42,.02,2.85,.02,4.28,0,.15,.55,.4,1.02,.62,1.53-1.52,.44-3,.84-4.37,1.22l-.53-2.75Zm-31.91,3.53l-17.31,10.16,2.72,.19-.97,1.53,2.66-.22-.03,1.47c6.18-2.71,6.9-3.96,13.97-5.03l-.44-1.1,1.5-1.87-1.66-.53,.72-1.75-3.25,1.44s2.09-4.29,2.09-4.29Zm-.91,1l-2.19,4.13,3.56-1.72-.94,1.75,2,.19-1.38,1.68-.19,.63c-5.27,1.09-7.83,2.79-12.5,4.81l.5-1.34-3.03,.47,1.56-1.66-2.47,.03,15.06-8.97h0Z"/>
      </g>
      <g>
        <g class="cls-1">
          <path class="cls-2" d="M36.55,59.03c.02,.13,.03,.26,.05,.39-4.28-1.34-8.71-3.34-13.31-6.19-5.24-3.3-10.28-7.07-14.59-11.53-2.71-2.76-5.12-5.97-6.81-9.45C-5.06,17.52,8.53,5.52,20.91,0,8.77,5.64-4.6,17.53,2.36,32.03c.81,1.66,1.93,3.43,2.97,4.92,1.1,1.38,2.5,3.1,3.78,4.35,4.29,4.41,9.31,8.13,14.52,11.37,4.36,2.71,8.59,4.63,12.72,5.93,.04,.15,.11,.29,.2,.43Z"/>
          <path class="cls-2" d="M41.61,59.94c.66,.43,1.35,.82,2.06,1.16-1.01-.17-2.03-.37-3.05-.6-1.44-.55-2.92-1.27-3.91-1.72-.02-.03-.04-.06-.05-.09,1.67,.52,3.31,.93,4.95,1.25Z"/>
          <path class="cls-2" d="M49.36,60.86l-.02,.82c-1.62-.08-3.26-.23-4.92-.47-.6-.35-1.2-.71-1.8-1.07,2.28,.4,4.52,.63,6.74,.72Z"/>
          <path class="cls-2" d="M59.41,61.3c-2.11,.25-4.25,.41-6.41,.44l.03-.85c1.64-.03,3.26-.14,4.87-.3l1.51,.71Z"/>
          <path class="cls-2" d="M97.07,53.12l-.4,.98c-9.43,.75-18.58,3.65-28.04,5.65l-1.3-.57-.68,.97c-.16,.04-.32,.07-.48,.1l-.13-.87c10.56-2.03,20.72-5.45,31.03-6.26Z"/>
          <path class="cls-2" d="M217.41,129.24c-2.6,1.67-5.77,2.46-8.87,2.12-16.15-1.98-38.35-28.25-50.44-39.74-6.23-6.36-13.34-13.39-19.75-19.64-3.75-3.71-7.79-7.39-12.22-10.4l.39-.81c1.84,1.24,3.7,2.66,5.58,4.27,4,3.47,9.62,9.17,13.41,12.9,13.2,13.05,25.75,26.81,39.52,39.25,8.32,7.05,21.07,18.89,32.38,12.05Z"/>
        </g>
        <g class="cls-1">
          <path class="cls-2" d="M31.04,51.68C12.54,42.16-3.47,24.1,18.11,7.5c1.93-1.47,4.79-3.29,6.89-4.55-4.65,2.9-9.14,6.23-12.52,10.54C-.15,29.04,17.9,44.46,31.04,51.68h0Z"/>
        </g>
        <g class="cls-1">
          <path class="cls-2" d="M25.16,40.66c-11.67-8.22-14.67-20.12-.57-27.71-13.48,8.29-10.41,18.9,.57,27.71h0Z"/>
        </g>
        <g class="cls-1">
          <path class="cls-2" d="M215.94,119.19c-2.6,2.82-6.91,3.64-10.54,2.52-3.7-1.01-6.9-3.28-9.69-5.83-5.56-5.18-10.16-11.24-14.86-17.16-9.17-11.65-18.37-25.1-33.16-29.8,14.95,4.34,24.28,17.93,33.55,29.49,4.65,5.94,9.2,12.04,14.69,17.22,2.75,2.55,5.9,4.81,9.53,5.84,3.56,1.17,7.82,.48,10.47-2.28h0Z"/>
        </g>
        <g class="cls-1">
          <path class="cls-2" d="M213.49,107.5c-8.25,7.09-17.93-9.33-21.86-15.11-2.7-4.16-5.36-8.33-8.35-12.27-3.01-3.82-6.35-7.87-11.12-9.45,8.83,2.84,14.8,14.18,19.88,21.46,3.9,5.67,13.28,22.05,21.45,15.38h0Z"/>
        </g>
      </g>
    </g>
  </g>
</svg>