<?xml version="1.0" encoding="UTF-8"?>
<svg id="Layer_2" data-name="Layer 2" xmlns="http://www.w3.org/2000/svg" xmlns:xlink="http://www.w3.org/1999/xlink" viewBox="0 0 92.26 82.04">
  <defs>
    <style>
      .cls-1 {
        fill: url(#linear-gradient-75);
      }

      .cls-2 {
        fill: url(#linear-gradient-119);
      }

      .cls-3 {
        fill: url(#linear-gradient-2);
      }

      .cls-4 {
        fill: url(#linear-gradient-153);
      }

      .cls-4, .cls-5, .cls-6, .cls-7, .cls-8, .cls-9, .cls-10, .cls-11, .cls-12, .cls-13, .cls-14, .cls-15, .cls-16, .cls-17, .cls-18, .cls-19, .cls-20, .cls-21, .cls-22, .cls-23, .cls-24, .cls-25, .cls-26, .cls-27, .cls-28, .cls-29, .cls-30, .cls-31, .cls-32, .cls-33, .cls-34, .cls-35, .cls-36, .cls-37, .cls-38, .cls-39, .cls-40, .cls-41, .cls-42, .cls-43, .cls-44, .cls-45, .cls-46, .cls-47 {
        fill-rule: evenodd;
      }

      .cls-48 {
        fill: url(#linear-gradient-51);
      }

      .cls-5 {
        fill: url(#linear-gradient-187);
      }

      .cls-49 {
        fill: url(#linear-gradient-138);
      }

      .cls-6 {
        fill: url(#linear-gradient-177);
      }

      .cls-7 {
        fill: url(#linear-gradient-181);
      }

      .cls-50 {
        fill: url(#linear-gradient-122);
      }

      .cls-51 {
        fill: url(#linear-gradient-17);
      }

      .cls-52 {
        fill: url(#linear-gradient-87);
      }

      .cls-8 {
        fill: url(#linear-gradient-184);
      }

      .cls-53 {
        fill: url(#linear-gradient-93);
      }

      .cls-54 {
        fill: url(#linear-gradient-92);
      }

      .cls-55 {
        fill: url(#linear-gradient-147);
      }

      .cls-56 {
        fill: url(#linear-gradient-80);
      }

      .cls-9 {
        fill: url(#linear-gradient-176);
      }

      .cls-57 {
        fill: url(#linear-gradient-109);
      }

      .cls-58 {
        fill: url(#linear-gradient-43);
      }

      .cls-59 {
        fill: url(#linear-gradient-125);
      }

      .cls-60 {
        fill: url(#linear-gradient-133);
      }

      .cls-10 {
        fill: url(#linear-gradient-191);
      }

      .cls-11 {
        fill: url(#linear-gradient-188);
      }

      .cls-12 {
        fill: url(#linear-gradient-160);
      }

      .cls-61 {
        fill: url(#linear-gradient-15);
      }

      .cls-62 {
        fill: url(#linear-gradient-58);
      }

      .cls-63 {
        fill: url(#linear-gradient-69);
      }

      .cls-64 {
        fill: url(#linear-gradient-81);
      }

      .cls-65 {
        fill: url(#linear-gradient-18);
      }

      .cls-66 {
        fill: url(#linear-gradient-56);
      }

      .cls-13 {
        fill: url(#linear-gradient-164);
      }

      .cls-14 {
        fill: url(#linear-gradient-150);
      }

      .cls-67 {
        fill: url(#linear-gradient-40);
      }

      .cls-15 {
        fill: url(#linear-gradient-175);
      }

      .cls-68 {
        fill: url(#linear-gradient-131);
      }

      .cls-69 {
        fill: url(#linear-gradient-52);
      }

      .cls-70 {
        fill: url(#linear-gradient-28);
      }

      .cls-71 {
        fill: url(#linear-gradient-14);
      }

      .cls-72 {
        fill: url(#linear-gradient-36);
      }

      .cls-73 {
        fill: url(#linear-gradient-78);
      }

      .cls-74 {
        fill: url(#linear-gradient-20);
      }

      .cls-75 {
        fill: url(#linear-gradient-6);
      }

      .cls-76 {
        fill: url(#linear-gradient-130);
      }

      .cls-77 {
        fill: url(#linear-gradient-53);
      }

      .cls-78 {
        fill: url(#linear-gradient-91);
      }

      .cls-79 {
        fill: url(#linear-gradient-60);
      }

      .cls-80 {
        fill: url(#linear-gradient-108);
      }

      .cls-81 {
        fill: url(#linear-gradient-84);
      }

      .cls-82 {
        fill: url(#linear-gradient-136);
      }

      .cls-83 {
        fill: url(#linear-gradient-104);
      }

      .cls-84 {
        fill: url(#linear-gradient-128);
      }

      .cls-85 {
        fill: url(#linear-gradient-35);
      }

      .cls-86 {
        fill: url(#linear-gradient-48);
      }

      .cls-87 {
        fill: url(#linear-gradient-32);
      }

      .cls-88 {
        fill: url(#linear-gradient-120);
      }

      .cls-89 {
        fill: url(#linear-gradient-146);
      }

      .cls-90 {
        fill: url(#linear-gradient-97);
      }

      .cls-91 {
        fill: url(#linear-gradient-11);
      }

      .cls-92 {
        fill: url(#linear-gradient-50);
      }

      .cls-16 {
        fill: url(#linear-gradient-172);
      }

      .cls-93 {
        fill: url(#linear-gradient-106);
      }

      .cls-94 {
        fill: url(#linear-gradient-111);
      }

      .cls-95 {
        fill: url(#linear-gradient-63);
      }

      .cls-96 {
        fill: url(#linear-gradient-67);
      }

      .cls-97 {
        fill: url(#linear-gradient-148);
      }

      .cls-98 {
        fill: url(#linear-gradient-95);
      }

      .cls-99 {
        fill: url(#linear-gradient-86);
      }

      .cls-100 {
        fill: url(#linear-gradient-39);
      }

      .cls-101 {
        fill: url(#linear-gradient-141);
      }

      .cls-102 {
        fill: url(#linear-gradient-137);
      }

      .cls-103 {
        fill: url(#linear-gradient-110);
      }

      .cls-104 {
        fill: url(#linear-gradient-124);
      }

      .cls-105 {
        fill: url(#linear-gradient-135);
      }

      .cls-106 {
        fill: url(#linear-gradient-10);
      }

      .cls-17 {
        fill: url(#linear-gradient-178);
      }

      .cls-18 {
        fill: url(#linear-gradient-159);
      }

      .cls-19 {
        fill: url(#linear-gradient-180);
      }

      .cls-20 {
        fill: url(#linear-gradient-169);
      }

      .cls-107 {
        fill: url(#linear-gradient-59);
      }

      .cls-21 {
        fill: url(#linear-gradient-192);
      }

      .cls-108 {
        fill: url(#linear-gradient-143);
      }

      .cls-22 {
        fill: url(#linear-gradient-154);
      }

      .cls-109 {
        fill: url(#linear-gradient-117);
      }

      .cls-110 {
        fill: url(#linear-gradient-49);
      }

      .cls-111 {
        fill: url(#linear-gradient-37);
      }

      .cls-23 {
        fill: url(#linear-gradient-156);
      }

      .cls-24 {
        fill: url(#linear-gradient-174);
      }

      .cls-112 {
        fill: url(#linear-gradient-82);
      }

      .cls-113 {
        fill: url(#linear-gradient-16);
      }

      .cls-25 {
        fill: url(#linear-gradient-157);
      }

      .cls-114 {
        fill: url(#linear-gradient-31);
      }

      .cls-115 {
        fill: url(#linear-gradient-85);
      }

      .cls-116 {
        fill: url(#linear-gradient-127);
      }

      .cls-117 {
        fill: url(#linear-gradient-112);
      }

      .cls-118 {
        fill: url(#linear-gradient-61);
      }

      .cls-119 {
        fill: url(#linear-gradient-114);
      }

      .cls-120 {
        fill: url(#linear-gradient-68);
      }

      .cls-121 {
        fill: url(#linear-gradient-103);
      }

      .cls-122 {
        fill: url(#linear-gradient-62);
      }

      .cls-123 {
        fill: url(#linear-gradient-107);
      }

      .cls-124 {
        fill: url(#linear-gradient-41);
      }

      .cls-125 {
        fill: url(#linear-gradient-76);
      }

      .cls-26 {
        fill: url(#linear-gradient-168);
      }

      .cls-126 {
        fill: url(#linear-gradient-98);
      }

      .cls-27 {
        fill: url(#linear-gradient-158);
      }

      .cls-127 {
        fill: url(#linear-gradient-21);
      }

      .cls-128 {
        fill: url(#linear-gradient-72);
      }

      .cls-28 {
        fill: url(#linear-gradient-165);
      }

      .cls-29 {
        fill: url(#linear-gradient-151);
      }

      .cls-30 {
        fill: url(#linear-gradient-179);
      }

      .cls-31 {
        fill: url(#linear-gradient-161);
      }

      .cls-129 {
        fill: url(#linear-gradient-25);
      }

      .cls-32 {
        fill: url(#linear-gradient-166);
      }

      .cls-33 {
        fill: url(#linear-gradient-182);
      }

      .cls-130 {
        fill: url(#linear-gradient-121);
      }

      .cls-131 {
        fill: url(#linear-gradient-89);
      }

      .cls-132 {
        fill: url(#linear-gradient-144);
      }

      .cls-133 {
        fill: url(#linear-gradient-5);
      }

      .cls-134 {
        fill: url(#linear-gradient-64);
      }

      .cls-135 {
        fill: url(#linear-gradient-102);
      }

      .cls-136 {
        fill: url(#linear-gradient-83);
      }

      .cls-137 {
        fill: url(#linear-gradient-54);
      }

      .cls-138 {
        fill: url(#linear-gradient-45);
      }

      .cls-139 {
        fill: url(#linear-gradient-113);
      }

      .cls-140 {
        fill: url(#linear-gradient-55);
      }

      .cls-34 {
        fill: url(#linear-gradient-193);
      }

      .cls-35 {
        fill: url(#linear-gradient-186);
      }

      .cls-36 {
        fill: url(#linear-gradient-152);
      }

      .cls-37 {
        fill: url(#linear-gradient-162);
      }

      .cls-141 {
        fill: url(#linear-gradient-34);
      }

      .cls-142 {
        fill: url(#linear-gradient-118);
      }

      .cls-143 {
        fill: url(#linear-gradient-140);
      }

      .cls-144 {
        fill: url(#linear-gradient-65);
      }

      .cls-145 {
        fill: url(#linear-gradient-70);
      }

      .cls-146 {
        fill: none;
      }

      .cls-147 {
        fill: url(#linear-gradient-79);
      }

      .cls-38 {
        fill: url(#linear-gradient-155);
      }

      .cls-148 {
        fill: url(#linear-gradient-88);
      }

      .cls-149 {
        fill: url(#linear-gradient-7);
      }

      .cls-150 {
        fill: url(#linear-gradient-134);
      }

      .cls-151 {
        fill: url(#linear-gradient-149);
      }

      .cls-152 {
        fill: url(#linear-gradient-66);
      }

      .cls-39 {
        fill: url(#linear-gradient-170);
      }

      .cls-153 {
        fill: url(#linear-gradient-96);
      }

      .cls-154 {
        fill: url(#linear-gradient-24);
      }

      .cls-155 {
        fill: url(#linear-gradient-73);
      }

      .cls-156 {
        fill: url(#linear-gradient-139);
      }

      .cls-157 {
        fill: url(#linear-gradient-100);
      }

      .cls-158 {
        fill: url(#linear-gradient-105);
      }

      .cls-159 {
        fill: url(#linear-gradient-9);
      }

      .cls-160 {
        fill: url(#linear-gradient-129);
      }

      .cls-161 {
        fill: url(#linear-gradient-22);
      }

      .cls-162 {
        fill: url(#linear-gradient-74);
      }

      .cls-40 {
        fill: url(#linear-gradient-189);
      }

      .cls-163 {
        fill: url(#linear-gradient-42);
      }

      .cls-164 {
        fill: url(#linear-gradient-99);
      }

      .cls-165 {
        fill: url(#linear-gradient-3);
      }

      .cls-41 {
        fill: url(#linear-gradient-173);
      }

      .cls-42 {
        fill: url(#linear-gradient-167);
      }

      .cls-166 {
        fill: url(#linear-gradient-123);
      }

      .cls-43 {
        fill: url(#linear-gradient-163);
      }

      .cls-167 {
        fill: url(#linear-gradient);
      }

      .cls-168 {
        fill: url(#linear-gradient-27);
      }

      .cls-169 {
        fill: url(#linear-gradient-116);
      }

      .cls-170 {
        fill: url(#linear-gradient-132);
      }

      .cls-44 {
        fill: url(#linear-gradient-185);
      }

      .cls-45 {
        fill: url(#linear-gradient-190);
      }

      .cls-171 {
        fill: url(#linear-gradient-33);
      }

      .cls-172 {
        fill: url(#linear-gradient-142);
      }

      .cls-173 {
        fill: url(#linear-gradient-38);
      }

      .cls-174 {
        fill: url(#linear-gradient-94);
      }

      .cls-175 {
        fill: url(#linear-gradient-29);
      }

      .cls-176 {
        fill: url(#linear-gradient-30);
      }

      .cls-46 {
        fill: url(#linear-gradient-171);
      }

      .cls-177 {
        fill: url(#linear-gradient-126);
      }

      .cls-178 {
        fill: url(#linear-gradient-23);
      }

      .cls-179 {
        fill: url(#linear-gradient-19);
      }

      .cls-180 {
        fill: url(#linear-gradient-71);
      }

      .cls-181 {
        fill: url(#linear-gradient-4);
      }

      .cls-182 {
        fill: url(#linear-gradient-77);
      }

      .cls-183 {
        fill: url(#linear-gradient-115);
      }

      .cls-47 {
        fill: url(#linear-gradient-183);
      }

      .cls-184 {
        fill: url(#linear-gradient-8);
      }

      .cls-185 {
        fill: url(#linear-gradient-90);
      }

      .cls-186 {
        fill: url(#linear-gradient-44);
      }

      .cls-187 {
        fill: url(#linear-gradient-57);
      }

      .cls-188 {
        fill: url(#linear-gradient-47);
      }

      .cls-189 {
        fill: url(#linear-gradient-46);
      }

      .cls-190 {
        fill: url(#linear-gradient-145);
      }

      .cls-191 {
        fill: url(#linear-gradient-12);
      }

      .cls-192 {
        fill: url(#linear-gradient-13);
      }

      .cls-193 {
        fill: url(#linear-gradient-26);
      }

      .cls-194 {
        fill: url(#linear-gradient-101);
      }
    </style>
    <linearGradient id="linear-gradient" x1="14.25" y1="66.73" x2="105.62" y2="-9.77" gradientUnits="userSpaceOnUse">
      <stop offset="0" stop-color="#1d140e"/>
      <stop offset="1" stop-color="#593f29"/>
    </linearGradient>
    <linearGradient id="linear-gradient-2" x1="52.52" y1="31.68" x2="48.26" y2="24.12" gradientUnits="userSpaceOnUse">
      <stop offset="0" stop-color="#4f331a"/>
      <stop offset=".36" stop-color="#673723"/>
      <stop offset="1" stop-color="#904033"/>
    </linearGradient>
    <linearGradient id="linear-gradient-3" x1="39.83" y1="22.16" x2="42.66" y2="26.22" xlink:href="#linear-gradient-2"/>
    <linearGradient id="linear-gradient-4" x1="30.42" y1="30.33" x2="46.66" y2="30.33" xlink:href="#linear-gradient-2"/>
    <linearGradient id="linear-gradient-5" x1="32.91" y1="38.85" x2="40.37" y2="34.66" gradientUnits="userSpaceOnUse">
      <stop offset="0" stop-color="#553a29"/>
      <stop offset="1" stop-color="#834412"/>
    </linearGradient>
    <linearGradient id="linear-gradient-6" x1="30.86" y1="43.39" x2="37.34" y2="43.39" xlink:href="#linear-gradient-5"/>
    <linearGradient id="linear-gradient-7" x1="29.29" y1="47.05" x2="35.4" y2="47.05" xlink:href="#linear-gradient-5"/>
    <linearGradient id="linear-gradient-8" x1="27.4" y1="50.74" x2="33.46" y2="50.74" xlink:href="#linear-gradient-5"/>
    <linearGradient id="linear-gradient-9" x1="25.53" y1="54.03" x2="31.66" y2="54.03" xlink:href="#linear-gradient-5"/>
    <linearGradient id="linear-gradient-10" x1="23.74" y1="57.31" x2="29.81" y2="57.31" xlink:href="#linear-gradient-5"/>
    <linearGradient id="linear-gradient-11" x1="29.95" y1="52.13" x2="39.22" y2="52.13" xlink:href="#linear-gradient-5"/>
    <linearGradient id="linear-gradient-12" x1="61.89" y1="45.06" x2="64.96" y2="45.06" xlink:href="#linear-gradient-5"/>
    <linearGradient id="linear-gradient-13" x1="44.46" y1="53.25" x2="47.64" y2="53.25" xlink:href="#linear-gradient-5"/>
    <linearGradient id="linear-gradient-14" x1="23.02" y1="49.08" x2="32.59" y2="49.08" xlink:href="#linear-gradient-5"/>
    <linearGradient id="linear-gradient-15" x1="26.23" y1="42.96" x2="29.01" y2="42.96" xlink:href="#linear-gradient-5"/>
    <linearGradient id="linear-gradient-16" x1="27.73" y1="25.46" x2="65.16" y2="36.51" gradientUnits="userSpaceOnUse">
      <stop offset="0" stop-color="#352318"/>
      <stop offset="1" stop-color="#633516"/>
    </linearGradient>
    <linearGradient id="linear-gradient-17" x1="27.15" y1="27.4" x2="64.59" y2="38.45" xlink:href="#linear-gradient-16"/>
    <linearGradient id="linear-gradient-18" x1="26.71" y1="28.89" x2="64.15" y2="39.94" xlink:href="#linear-gradient-16"/>
    <linearGradient id="linear-gradient-19" x1="27.18" y1="27.32" x2="64.61" y2="38.37" xlink:href="#linear-gradient-16"/>
    <linearGradient id="linear-gradient-20" x1="26.7" y1="28.95" x2="64.13" y2="40" xlink:href="#linear-gradient-16"/>
    <linearGradient id="linear-gradient-21" x1="26.26" y1="30.43" x2="63.69" y2="41.47" xlink:href="#linear-gradient-16"/>
    <linearGradient id="linear-gradient-22" x1="25.67" y1="32.44" x2="63.1" y2="43.49" xlink:href="#linear-gradient-16"/>
    <linearGradient id="linear-gradient-23" x1="26.19" y1="30.67" x2="63.62" y2="41.72" xlink:href="#linear-gradient-16"/>
    <linearGradient id="linear-gradient-24" x1="25.67" y1="32.43" x2="63.1" y2="43.48" xlink:href="#linear-gradient-16"/>
    <linearGradient id="linear-gradient-25" x1="25.2" y1="34.03" x2="62.63" y2="45.07" xlink:href="#linear-gradient-16"/>
    <linearGradient id="linear-gradient-26" x1="24.61" y1="36.01" x2="62.05" y2="47.06" xlink:href="#linear-gradient-16"/>
    <linearGradient id="linear-gradient-27" x1="25.09" y1="34.4" x2="62.52" y2="45.44" xlink:href="#linear-gradient-16"/>
    <linearGradient id="linear-gradient-28" x1="24.6" y1="36.05" x2="62.03" y2="47.1" xlink:href="#linear-gradient-16"/>
    <linearGradient id="linear-gradient-29" x1="24.15" y1="37.58" x2="61.58" y2="48.63" xlink:href="#linear-gradient-16"/>
    <linearGradient id="linear-gradient-30" x1="23.7" y1="39.11" x2="61.13" y2="50.16" xlink:href="#linear-gradient-16"/>
    <linearGradient id="linear-gradient-31" x1="23.21" y1="40.77" x2="60.64" y2="51.82" xlink:href="#linear-gradient-16"/>
    <linearGradient id="linear-gradient-32" x1="23.9" y1="38.43" x2="61.33" y2="49.48" xlink:href="#linear-gradient-16"/>
    <linearGradient id="linear-gradient-33" x1="24.23" y1="37.3" x2="61.67" y2="48.34" xlink:href="#linear-gradient-16"/>
    <linearGradient id="linear-gradient-34" x1="24.74" y1="35.59" x2="62.17" y2="46.63" xlink:href="#linear-gradient-16"/>
    <linearGradient id="linear-gradient-35" x1="25.9" y1="31.64" x2="63.33" y2="42.69" xlink:href="#linear-gradient-16"/>
    <linearGradient id="linear-gradient-36" x1="44.53" y1="28.02" x2="43.55" y2="35.65" gradientUnits="userSpaceOnUse">
      <stop offset="0" stop-color="#593e2b"/>
      <stop offset="1" stop-color="#875831"/>
    </linearGradient>
    <linearGradient id="linear-gradient-37" x1="44.74" y1="28.05" x2="43.75" y2="35.68" xlink:href="#linear-gradient-36"/>
    <linearGradient id="linear-gradient-38" x1="44.94" y1="28.07" x2="43.95" y2="35.71" xlink:href="#linear-gradient-36"/>
    <linearGradient id="linear-gradient-39" x1="45.08" y1="28.09" x2="44.09" y2="35.73" xlink:href="#linear-gradient-36"/>
    <linearGradient id="linear-gradient-40" x1="39.38" y1="27.35" x2="38.39" y2="34.99" xlink:href="#linear-gradient-36"/>
    <linearGradient id="linear-gradient-41" x1="39.18" y1="27.32" x2="38.19" y2="34.96" xlink:href="#linear-gradient-36"/>
    <linearGradient id="linear-gradient-42" x1="38.39" y1="27.22" x2="37.4" y2="34.86" xlink:href="#linear-gradient-36"/>
    <linearGradient id="linear-gradient-43" x1="38.93" y1="27.29" x2="37.94" y2="34.93" xlink:href="#linear-gradient-36"/>
    <linearGradient id="linear-gradient-44" x1="39.15" y1="27.32" x2="38.16" y2="34.96" xlink:href="#linear-gradient-36"/>
    <linearGradient id="linear-gradient-45" x1="33.65" y1="26.61" x2="32.67" y2="34.25" xlink:href="#linear-gradient-36"/>
    <linearGradient id="linear-gradient-46" x1="33.86" y1="26.64" x2="32.87" y2="34.27" xlink:href="#linear-gradient-36"/>
    <linearGradient id="linear-gradient-47" x1="34.06" y1="26.66" x2="33.07" y2="34.3" xlink:href="#linear-gradient-36"/>
    <linearGradient id="linear-gradient-48" x1="34.19" y1="26.68" x2="33.2" y2="34.32" xlink:href="#linear-gradient-36"/>
    <linearGradient id="linear-gradient-49" x1="46.08" y1="31.97" x2="59.46" y2="31.97" xlink:href="#linear-gradient-36"/>
    <linearGradient id="linear-gradient-50" x1="46.08" y1="32.8" x2="59.49" y2="32.8" xlink:href="#linear-gradient-36"/>
    <linearGradient id="linear-gradient-51" x1="46.07" y1="34.51" x2="59.48" y2="34.51" xlink:href="#linear-gradient-36"/>
    <linearGradient id="linear-gradient-52" x1="46.07" y1="36.48" x2="59.51" y2="36.48" xlink:href="#linear-gradient-36"/>
    <linearGradient id="linear-gradient-53" x1="46.1" y1="38.11" x2="59.53" y2="38.11" xlink:href="#linear-gradient-36"/>
    <linearGradient id="linear-gradient-54" x1="46.1" y1="39.55" x2="59.53" y2="39.55" xlink:href="#linear-gradient-36"/>
    <linearGradient id="linear-gradient-55" x1="88.43" y1="31.24" x2="89.56" y2="31.24" xlink:href="#linear-gradient-36"/>
    <linearGradient id="linear-gradient-56" x1="84.37" y1="34.46" x2="88.13" y2="34.46" xlink:href="#linear-gradient-36"/>
    <linearGradient id="linear-gradient-57" x1="81.18" y1="33.85" x2="84.74" y2="33.85" xlink:href="#linear-gradient-36"/>
    <linearGradient id="linear-gradient-58" x1="78.6" y1="32.37" x2="82.03" y2="32.37" xlink:href="#linear-gradient-36"/>
    <linearGradient id="linear-gradient-59" x1="75.79" y1="30.62" x2="78.7" y2="30.62" xlink:href="#linear-gradient-36"/>
    <linearGradient id="linear-gradient-60" x1="73.06" y1="28.76" x2="76.15" y2="28.76" xlink:href="#linear-gradient-36"/>
    <linearGradient id="linear-gradient-61" x1="70.02" y1="27.31" x2="73.35" y2="27.31" xlink:href="#linear-gradient-36"/>
    <linearGradient id="linear-gradient-62" x1="67.63" y1="25.81" x2="70.49" y2="25.81" xlink:href="#linear-gradient-36"/>
    <linearGradient id="linear-gradient-63" x1="65.06" y1="24.24" x2="68.15" y2="24.24" xlink:href="#linear-gradient-36"/>
    <linearGradient id="linear-gradient-64" x1="62.39" y1="22.52" x2="65.57" y2="22.52" xlink:href="#linear-gradient-36"/>
    <linearGradient id="linear-gradient-65" x1="59.95" y1="21.27" x2="62.99" y2="21.27" xlink:href="#linear-gradient-36"/>
    <linearGradient id="linear-gradient-66" x1="57.59" y1="19.36" x2="60.38" y2="19.36" xlink:href="#linear-gradient-36"/>
    <linearGradient id="linear-gradient-67" x1="55.73" y1="15.38" x2="57.49" y2="15.38" xlink:href="#linear-gradient-36"/>
    <linearGradient id="linear-gradient-68" x1="52.71" y1="17.76" x2="55.55" y2="17.76" xlink:href="#linear-gradient-36"/>
    <linearGradient id="linear-gradient-69" x1="48.61" y1="16.86" x2="52.7" y2="16.86" xlink:href="#linear-gradient-36"/>
    <linearGradient id="linear-gradient-70" x1="44.81" y1="16.63" x2="48.58" y2="16.63" xlink:href="#linear-gradient-36"/>
    <linearGradient id="linear-gradient-71" x1="41.82" y1="17.1" x2="44.9" y2="17.1" xlink:href="#linear-gradient-36"/>
    <linearGradient id="linear-gradient-72" x1="37.78" y1="18.22" x2="41.85" y2="18.22" xlink:href="#linear-gradient-36"/>
    <linearGradient id="linear-gradient-73" x1="34.49" y1="19.64" x2="37.88" y2="19.64" xlink:href="#linear-gradient-36"/>
    <linearGradient id="linear-gradient-74" x1="30.77" y1="20.79" x2="34.54" y2="20.79" xlink:href="#linear-gradient-36"/>
    <linearGradient id="linear-gradient-75" x1="26.79" y1="24" x2="30.9" y2="24" xlink:href="#linear-gradient-36"/>
    <linearGradient id="linear-gradient-76" x1="23.21" y1="24.82" x2="27.03" y2="24.82" xlink:href="#linear-gradient-36"/>
    <linearGradient id="linear-gradient-77" x1="19.49" y1="25.55" x2="23.7" y2="25.55" xlink:href="#linear-gradient-36"/>
    <linearGradient id="linear-gradient-78" x1="15.44" y1="26.11" x2="19.58" y2="26.11" xlink:href="#linear-gradient-36"/>
    <linearGradient id="linear-gradient-79" x1="12.39" y1="26.66" x2="15.6" y2="26.66" xlink:href="#linear-gradient-36"/>
    <linearGradient id="linear-gradient-80" x1="10.33" y1="24.18" x2="12.38" y2="24.18" xlink:href="#linear-gradient-36"/>
    <linearGradient id="linear-gradient-81" x1="9.16" y1="31.09" x2="10.79" y2="31.09" xlink:href="#linear-gradient-36"/>
    <linearGradient id="linear-gradient-82" x1="7.29" y1="34.07" x2="9.25" y2="34.07" xlink:href="#linear-gradient-36"/>
    <linearGradient id="linear-gradient-83" x1="5.67" y1="37.82" x2="7.93" y2="37.82" xlink:href="#linear-gradient-36"/>
    <linearGradient id="linear-gradient-84" x1="4.48" y1="40.61" x2="6.44" y2="40.61" xlink:href="#linear-gradient-36"/>
    <linearGradient id="linear-gradient-85" x1="3.26" y1="42.54" x2="4.99" y2="42.54" xlink:href="#linear-gradient-36"/>
    <linearGradient id="linear-gradient-86" x1="2.24" y1="43.23" x2="3.55" y2="43.23" xlink:href="#linear-gradient-36"/>
    <linearGradient id="linear-gradient-87" x1="88.46" y1="27.93" x2="89.54" y2="27.93" gradientUnits="userSpaceOnUse">
      <stop offset="0" stop-color="#bf9480"/>
      <stop offset="1" stop-color="#c27448"/>
    </linearGradient>
    <linearGradient id="linear-gradient-88" x1="85.68" y1="26.25" x2="88.19" y2="26.25" xlink:href="#linear-gradient-87"/>
    <linearGradient id="linear-gradient-89" x1="82.94" y1="24.21" x2="84.9" y2="24.21" xlink:href="#linear-gradient-87"/>
    <linearGradient id="linear-gradient-90" x1="79.4" y1="22.92" x2="82.34" y2="22.92" xlink:href="#linear-gradient-87"/>
    <linearGradient id="linear-gradient-91" x1="76.92" y1="21.36" x2="78.98" y2="21.36" xlink:href="#linear-gradient-87"/>
    <linearGradient id="linear-gradient-92" x1="73.65" y1="19.58" x2="76.41" y2="19.58" xlink:href="#linear-gradient-87"/>
    <linearGradient id="linear-gradient-93" x1="70.81" y1="17.77" x2="73.06" y2="17.77" xlink:href="#linear-gradient-87"/>
    <linearGradient id="linear-gradient-94" x1="68.52" y1="16.72" x2="70.46" y2="16.72" xlink:href="#linear-gradient-87"/>
    <linearGradient id="linear-gradient-95" x1="66.41" y1="15.09" x2="68.34" y2="15.09" xlink:href="#linear-gradient-87"/>
    <linearGradient id="linear-gradient-96" x1="63.61" y1="13.57" x2="65.85" y2="13.57" xlink:href="#linear-gradient-87"/>
    <linearGradient id="linear-gradient-97" x1="60.87" y1="11.51" x2="63.28" y2="11.51" xlink:href="#linear-gradient-87"/>
    <linearGradient id="linear-gradient-98" x1="57.61" y1="10.13" x2="60.27" y2="10.13" xlink:href="#linear-gradient-87"/>
    <linearGradient id="linear-gradient-99" x1="55.75" y1="2.79" x2="57.61" y2="2.79" xlink:href="#linear-gradient-87"/>
    <linearGradient id="linear-gradient-100" x1="52.85" y1="9.81" x2="55.6" y2="9.81" xlink:href="#linear-gradient-87"/>
    <linearGradient id="linear-gradient-101" x1="48.89" y1="10.62" x2="51.78" y2="10.62" xlink:href="#linear-gradient-87"/>
    <linearGradient id="linear-gradient-102" x1="45.09" y1="11.18" x2="48.33" y2="11.18" xlink:href="#linear-gradient-87"/>
    <linearGradient id="linear-gradient-103" x1="41.55" y1="11.73" x2="44.56" y2="11.73" xlink:href="#linear-gradient-87"/>
    <linearGradient id="linear-gradient-104" x1="38.06" y1="12.23" x2="41.37" y2="12.23" xlink:href="#linear-gradient-87"/>
    <linearGradient id="linear-gradient-105" x1="34.64" y1="12.89" x2="37.47" y2="12.89" xlink:href="#linear-gradient-87"/>
    <linearGradient id="linear-gradient-106" x1="30.78" y1="13.47" x2="34.25" y2="13.47" xlink:href="#linear-gradient-87"/>
    <linearGradient id="linear-gradient-107" x1="27.07" y1="14.24" x2="30.3" y2="14.24" xlink:href="#linear-gradient-87"/>
    <linearGradient id="linear-gradient-108" x1="23.27" y1="15.08" x2="26.35" y2="15.08" xlink:href="#linear-gradient-87"/>
    <linearGradient id="linear-gradient-109" x1="19.3" y1="15.74" x2="22.72" y2="15.74" xlink:href="#linear-gradient-87"/>
    <linearGradient id="linear-gradient-110" x1="10.64" y1="10.05" x2="12.39" y2="10.05" xlink:href="#linear-gradient-87"/>
    <linearGradient id="linear-gradient-111" x1="15.28" y1="16.44" x2="18.9" y2="16.44" xlink:href="#linear-gradient-87"/>
    <linearGradient id="linear-gradient-112" x1="12.45" y1="17.13" x2="15.09" y2="17.13" xlink:href="#linear-gradient-87"/>
    <linearGradient id="linear-gradient-113" x1="9.14" y1="21.69" x2="10.31" y2="21.69" xlink:href="#linear-gradient-87"/>
    <linearGradient id="linear-gradient-114" x1="7.17" y1="25.44" x2="8.58" y2="25.44" xlink:href="#linear-gradient-87"/>
    <linearGradient id="linear-gradient-115" x1="5.61" y1="28.81" x2="6.96" y2="28.81" xlink:href="#linear-gradient-87"/>
    <linearGradient id="linear-gradient-116" x1="3.88" y1="33.11" x2="5.09" y2="33.11" xlink:href="#linear-gradient-87"/>
    <linearGradient id="linear-gradient-117" x1="2.57" y1="35.85" x2="3.93" y2="35.85" xlink:href="#linear-gradient-87"/>
    <linearGradient id="linear-gradient-118" x1="2.07" y1="37.98" x2="2.72" y2="37.98" xlink:href="#linear-gradient-87"/>
    <linearGradient id="linear-gradient-119" x1=".41" y1="34.89" x2="1.79" y2="34.89" xlink:href="#linear-gradient-87"/>
    <linearGradient id="linear-gradient-120" x1="2.98" y1="47.29" x2="4.65" y2="47.29" xlink:href="#linear-gradient-87"/>
    <linearGradient id="linear-gradient-121" x1="5.23" y1="48.39" x2="7.23" y2="48.39" xlink:href="#linear-gradient-87"/>
    <linearGradient id="linear-gradient-122" x1="7.43" y1="49.21" x2="8.99" y2="49.21" xlink:href="#linear-gradient-87"/>
    <linearGradient id="linear-gradient-123" x1="9.25" y1="43.93" x2="11.18" y2="43.93" xlink:href="#linear-gradient-87"/>
    <linearGradient id="linear-gradient-124" x1="10.87" y1="49.41" x2="12.56" y2="49.41" xlink:href="#linear-gradient-87"/>
    <linearGradient id="linear-gradient-125" x1="12.72" y1="50.18" x2="15.6" y2="50.18" xlink:href="#linear-gradient-87"/>
    <linearGradient id="linear-gradient-126" x1="16.12" y1="51.41" x2="18.13" y2="51.41" xlink:href="#linear-gradient-87"/>
    <linearGradient id="linear-gradient-127" x1="18.57" y1="52.82" x2="20.8" y2="52.82" xlink:href="#linear-gradient-87"/>
    <linearGradient id="linear-gradient-128" x1="21.08" y1="50.74" x2="22.97" y2="50.74" xlink:href="#linear-gradient-87"/>
    <linearGradient id="linear-gradient-129" x1="23.4" y1="58.07" x2="24.94" y2="58.07" xlink:href="#linear-gradient-87"/>
    <linearGradient id="linear-gradient-130" x1="25.43" y1="59.22" x2="27.63" y2="59.22" xlink:href="#linear-gradient-87"/>
    <linearGradient id="linear-gradient-131" x1="28.25" y1="60.88" x2="30.7" y2="60.88" xlink:href="#linear-gradient-87"/>
    <linearGradient id="linear-gradient-132" x1="31.15" y1="63" x2="33.32" y2="63" xlink:href="#linear-gradient-87"/>
    <linearGradient id="linear-gradient-133" x1="33.53" y1="55.93" x2="35.33" y2="55.93" xlink:href="#linear-gradient-87"/>
    <linearGradient id="linear-gradient-134" x1="30.21" y1="72.26" x2="33.39" y2="72.26" xlink:href="#linear-gradient-36"/>
    <linearGradient id="linear-gradient-135" x1="27.34" y1="70.6" x2="30.53" y2="70.6" xlink:href="#linear-gradient-36"/>
    <linearGradient id="linear-gradient-136" x1="24.56" y1="68.88" x2="27.49" y2="68.88" xlink:href="#linear-gradient-36"/>
    <linearGradient id="linear-gradient-137" x1="22.64" y1="67.91" x2="24.75" y2="67.91" xlink:href="#linear-gradient-36"/>
    <linearGradient id="linear-gradient-138" x1="21.2" y1="64.09" x2="23.06" y2="64.09" xlink:href="#linear-gradient-36"/>
    <linearGradient id="linear-gradient-139" x1="18.29" y1="63.78" x2="20.98" y2="63.78" xlink:href="#linear-gradient-36"/>
    <linearGradient id="linear-gradient-140" x1="15.5" y1="62.37" x2="18.2" y2="62.37" xlink:href="#linear-gradient-36"/>
    <linearGradient id="linear-gradient-141" x1="12.39" y1="61.21" x2="15.46" y2="61.21" xlink:href="#linear-gradient-36"/>
    <linearGradient id="linear-gradient-142" x1="10.71" y1="60.01" x2="12.51" y2="60.01" xlink:href="#linear-gradient-36"/>
    <linearGradient id="linear-gradient-143" x1="9.21" y1="57.32" x2="11.25" y2="57.32" xlink:href="#linear-gradient-36"/>
    <linearGradient id="linear-gradient-144" x1="6.99" y1="59.09" x2="9.17" y2="59.09" xlink:href="#linear-gradient-36"/>
    <linearGradient id="linear-gradient-145" x1="4.25" y1="57.38" x2="6.98" y2="57.38" xlink:href="#linear-gradient-36"/>
    <linearGradient id="linear-gradient-146" x1="3.81" y1="54.26" x2="95.17" y2="-22.24" xlink:href="#linear-gradient"/>
    <linearGradient id="linear-gradient-147" x1="6.94" y1="58" x2="98.31" y2="-18.5" xlink:href="#linear-gradient"/>
    <linearGradient id="linear-gradient-148" x1="11.21" y1="63.09" x2="102.57" y2="-13.41" xlink:href="#linear-gradient"/>
    <linearGradient id="linear-gradient-149" x1="10.15" y1="61.83" x2="101.51" y2="-14.67" xlink:href="#linear-gradient"/>
    <linearGradient id="linear-gradient-150" x1="1.93" y1="56.28" x2="4.57" y2="56.28" xlink:href="#linear-gradient-36"/>
    <linearGradient id="linear-gradient-151" x1=".23" y1="49.99" x2="2.19" y2="49.99" xlink:href="#linear-gradient-36"/>
    <linearGradient id="linear-gradient-152" x1="33.52" y1="69.8" x2="35.36" y2="69.8" xlink:href="#linear-gradient-36"/>
    <linearGradient id="linear-gradient-153" x1="89.86" y1="22.1" x2="91.54" y2="22.1" xlink:href="#linear-gradient-87"/>
    <linearGradient id="linear-gradient-154" x1="88.34" y1="34.09" x2="89.4" y2="34.09" xlink:href="#linear-gradient-87"/>
    <linearGradient id="linear-gradient-155" x1="86.49" y1="37.98" x2="87.93" y2="37.98" xlink:href="#linear-gradient-87"/>
    <linearGradient id="linear-gradient-156" x1="84.8" y1="41.17" x2="86.17" y2="41.17" xlink:href="#linear-gradient-87"/>
    <linearGradient id="linear-gradient-157" x1="83.24" y1="45.29" x2="84.35" y2="45.29" xlink:href="#linear-gradient-87"/>
    <linearGradient id="linear-gradient-158" x1="82.08" y1="48.75" x2="83.06" y2="48.75" xlink:href="#linear-gradient-87"/>
    <linearGradient id="linear-gradient-159" x1="81.02" y1="51.48" x2="81.74" y2="51.48" xlink:href="#linear-gradient-87"/>
    <linearGradient id="linear-gradient-160" x1="79.17" y1="47.91" x2="80.78" y2="47.91" xlink:href="#linear-gradient-87"/>
    <linearGradient id="linear-gradient-161" x1="89.73" y1="36.73" x2="92" y2="36.73" xlink:href="#linear-gradient-36"/>
    <linearGradient id="linear-gradient-162" x1="88.41" y1="43.03" x2="89.9" y2="43.03" xlink:href="#linear-gradient-36"/>
    <linearGradient id="linear-gradient-163" x1="86.73" y1="46.65" x2="88.56" y2="46.65" xlink:href="#linear-gradient-36"/>
    <linearGradient id="linear-gradient-164" x1="84.99" y1="49.84" x2="87.1" y2="49.84" xlink:href="#linear-gradient-36"/>
    <linearGradient id="linear-gradient-165" x1="83.45" y1="52.81" x2="85.83" y2="52.81" xlink:href="#linear-gradient-36"/>
    <linearGradient id="linear-gradient-166" x1="82.31" y1="56.15" x2="84.29" y2="56.15" xlink:href="#linear-gradient-36"/>
    <linearGradient id="linear-gradient-167" x1="81.32" y1="59.34" x2="83.37" y2="59.34" xlink:href="#linear-gradient-36"/>
    <linearGradient id="linear-gradient-168" x1="80.74" y1="62.64" x2="82.19" y2="62.64" xlink:href="#linear-gradient-36"/>
    <linearGradient id="linear-gradient-169" x1="79.09" y1="61.48" x2="81.12" y2="61.48" xlink:href="#linear-gradient-36"/>
    <linearGradient id="linear-gradient-170" x1="67.75" y1="57.89" x2="71.21" y2="57.89" xlink:href="#linear-gradient-87"/>
    <linearGradient id="linear-gradient-171" x1="75.82" y1="56.39" x2="78.75" y2="56.39" xlink:href="#linear-gradient-87"/>
    <linearGradient id="linear-gradient-172" x1="71.94" y1="57.56" x2="75.1" y2="57.56" xlink:href="#linear-gradient-87"/>
    <linearGradient id="linear-gradient-173" x1="64.89" y1="58.23" x2="67.37" y2="58.23" xlink:href="#linear-gradient-87"/>
    <linearGradient id="linear-gradient-174" x1="61.23" y1="58.93" x2="64.38" y2="58.93" xlink:href="#linear-gradient-87"/>
    <linearGradient id="linear-gradient-175" x1="57.52" y1="59.55" x2="60.49" y2="59.55" xlink:href="#linear-gradient-87"/>
    <linearGradient id="linear-gradient-176" x1="53.85" y1="60.01" x2="57.12" y2="60.01" xlink:href="#linear-gradient-87"/>
    <linearGradient id="linear-gradient-177" x1="50.24" y1="61.1" x2="53.14" y2="61.1" xlink:href="#linear-gradient-87"/>
    <linearGradient id="linear-gradient-178" x1="46.03" y1="61.97" x2="49.07" y2="61.97" xlink:href="#linear-gradient-87"/>
    <linearGradient id="linear-gradient-179" x1="42.4" y1="62.44" x2="45.5" y2="62.44" xlink:href="#linear-gradient-87"/>
    <linearGradient id="linear-gradient-180" x1="38.56" y1="63.14" x2="42.03" y2="63.14" xlink:href="#linear-gradient-87"/>
    <linearGradient id="linear-gradient-181" x1="35.47" y1="63.67" x2="38" y2="63.67" xlink:href="#linear-gradient-87"/>
    <linearGradient id="linear-gradient-182" x1="75.71" y1="66.16" x2="78.96" y2="66.16" xlink:href="#linear-gradient-36"/>
    <linearGradient id="linear-gradient-183" x1="71.56" y1="66.95" x2="75.87" y2="66.95" xlink:href="#linear-gradient-36"/>
    <linearGradient id="linear-gradient-184" x1="67.86" y1="67.68" x2="72.03" y2="67.68" xlink:href="#linear-gradient-36"/>
    <linearGradient id="linear-gradient-185" x1="64.85" y1="68.31" x2="68.22" y2="68.31" xlink:href="#linear-gradient-36"/>
    <linearGradient id="linear-gradient-186" x1="63.23" y1="77.83" x2="62.92" y2="61.37" xlink:href="#linear-gradient-36"/>
    <linearGradient id="linear-gradient-187" x1="57.5" y1="69.54" x2="61.22" y2="69.54" xlink:href="#linear-gradient-36"/>
    <linearGradient id="linear-gradient-188" x1="53.75" y1="70.18" x2="57.83" y2="70.18" xlink:href="#linear-gradient-36"/>
    <linearGradient id="linear-gradient-189" x1="49.63" y1="70.59" x2="53.82" y2="70.59" xlink:href="#linear-gradient-36"/>
    <linearGradient id="linear-gradient-190" x1="45.82" y1="71.35" x2="50.01" y2="71.35" xlink:href="#linear-gradient-36"/>
    <linearGradient id="linear-gradient-191" x1="42.52" y1="72.13" x2="46.23" y2="72.13" xlink:href="#linear-gradient-36"/>
    <linearGradient id="linear-gradient-192" x1="38.75" y1="72.85" x2="42.55" y2="72.85" xlink:href="#linear-gradient-36"/>
    <linearGradient id="linear-gradient-193" x1="35.28" y1="73.27" x2="38.8" y2="73.27" xlink:href="#linear-gradient-36"/>
  </defs>
  <g id="Layer_2-2" data-name="Layer 2">
    <g id="layer1">
      <g>
        <polygon class="cls-146" points="60.02 28.59 59.93 28.64 59.91 28.8 60.02 28.59"/>
        <path class="cls-146" d="M38.56,64.09c.74,1.2,2.3,.56,3.47-.02-.15-1.06-1.18-1.72-1.78-2.55-.6,.84-1.48,1.58-1.69,2.57Z"/>
        <path class="cls-146" d="M35.47,64.91c.95,.37,1.82,.35,2.51-.49,.14-.91-.87-1.48-1.31-2.22-.4,.9-1.16,1.36-1.2,2.71Z"/>
        <path class="cls-146" d="M1.72,37.04c-.2,.43-.69,.42-1.31,.21-.4,8.28-.02,16.55-.02,24.83,.38,.51,.78,.95,1.4,.84,0-.09-.43-9.49,.24-14.44,.55-3.87-.57-7.83-.31-11.44Z"/>
        <polygon class="cls-146" points="30.67 60.93 31.07 62.39 32.29 60.7 33.25 63.28 33.23 57.54 33.9 55.11 30.67 60.93"/>
        <polygon class="cls-146" points="30.86 39.89 29.24 38.98 29.08 43.26 30.86 39.89"/>
        <polygon class="cls-146" points="25.99 58.15 24.99 57.66 25.27 59.13 25.99 58.15"/>
        <polygon class="cls-146" points="37.55 43.66 32.92 41.06 32.85 41.16 37.44 43.87 37.55 43.66"/>
        <path class="cls-146" d="M42.4,63.88c.93,.17,1.75,.76,3.09-.63,.06-1.11-.78-1.68-1.17-2.53-.72,1.06-1.67,2.11-1.92,3.16Z"/>
        <polygon class="cls-146" points="27.98 60.61 28.92 59.55 27.49 58.88 27.94 60.58 27.98 60.61"/>
        <polygon class="cls-146" points="29.81 58.48 29.36 59.06 29.83 58.55 29.81 58.48"/>
        <polygon class="cls-146" points="33.65 51.1 34.47 49.47 29.9 47.31 29.06 48.67 33.65 51.1"/>
        <polygon class="cls-146" points="35.61 47.48 36.36 45.93 31.54 43.59 30.91 45 35.61 47.48"/>
        <polygon class="cls-146" points="31.87 54.38 32.55 53.09 27.75 50.78 27.07 51.97 31.87 54.38"/>
        <polygon class="cls-146" points="30.02 57.94 30.79 56.35 25.78 53.98 24.99 55.32 30.02 57.94"/>
        <path class="cls-146" d="M20.89,52.46l1.03-4.4,.09-.04,1.29,4.35c0,.62-.01,1.22-.05,1.82l2.69-5.03v-.02l.07-11.98-1.59-.89v-.85l.38-1.03,1.43,.03,.28-1.31,2.08-.03,.37-.79-1.82-.04c-.87,.39-1.38,1.28-3.57,.92-.98,.55-1.62,1.67-3.87,.96-1.24,.33-2.25,.96-4.2,.4-.81,1.04-2.02,.85-3.25,.64,.11,1.12-.67,1.11-1.17,1.24,.48,3.79-.76,3.26-1.56,4.02,.52,1.53-.77,2.81-1.27,2.93,.26,1.38-.4,2.37-1.41,3.23l.66,1.78,.8-1.2,.79,2.65-.02-4.12,1.17-4.38h.14l1.12,4.43c-.25,.94-.21,1.93-.23,2.9l1.24-1.1,.47,2.31,1.43-1.63,1.52,2.97,1.29-1.78,1.33,2.9,1.26-1.24,1.08,1.92v-.54Z"/>
        <path class="cls-146" d="M85.09,43.12c.51,.55,.77-1.07,1.05-1.77,.19-.95-.62-1.55-.84-2.25-.16,1.36-.92,2.82-.21,4.02Z"/>
        <path class="cls-146" d="M83.31,47.06c.67-.31,1.06-.86,1.03-1.78-.01-.68-.6-1.17-.89-1.76-.17,1.18-.31,2.36-.14,3.54Z"/>
        <path class="cls-146" d="M84.46,43.17l-.68-.66c-1.5,.15-2.4-.68-3.28-1.45-.94,.37-1.53-.81-2.24-1.47-1.03,.16-1.88-1.13-2.79-1.87-1.18,.07-2.06-.61-2.74-1.78-1.04,.57-2.09-.75-3.13-1.57-.87,.37-1.63-.42-2.37-1.4-1.23,.12-1.77-.96-2.55-1.64-1.01,.18-1.8-.54-2.57-1.34-.85,.05-1.63-.1-2.23-.79v.04l-.23-.18,.14,3.37,.02,.02-.02,.02,.02,.5,6.18,3.55-.35,1.9s-.04-.02-.07-.02l-.09,.74-.59-.16,.38,10.81c-.91,2.29-2.69,2.42-3.4,1.43-.04-2.98-.19-9.71-.16-11.26l-.49-.18c.02,.17,.02,.32-.07,.39l-.07,1.18-1.87-.57-.24,.89h-.05l-.07,1.06-2.34-.52-.11,.52h-.03l-.02,.91-1.87-.24-.05,.8h-.07l-.07,.89-2.57-.28v.49h-.05l-.05,1.03-1.87-.58-.12,.39-.04,.75-1.85-.04,.23,11.18c-.87,2.16-2.8,2.35-3.65,1.13l-.26-11.8-4.47-2.53-4.91,8.87,.96,3.77c-.27,2.16-.27,4.34-.28,6.51l1.33-2.23,1.57,1.92,1.99-2.59,1.99,2.41,2.15-3.35,1.59,2.57,1.62-2.94,2.22,2.48,1.38-3.4,2.27,2.65,1.8-4.17,1.95,3.44,1.63-4.12,2.06,3.79,1.97-4.44,1.64,3.51,1.38-3.75,1.87,3.26,1.9-3.63,1.85,2.88,1.28-3.09,2.58,2.78,1.54-3.88,1.95,2.62-.03-7.19v-.04l.94-4.26,.19-.03c.46,1.51,.98,3.1,1.24,4.59l.49,1.31,.51-5.36,.87,1.48,.19-4.17,.11-.07,.99,1.61,.09-1.4Z"/>
        <path class="cls-146" d="M82.14,51.22c.43-.67,1.1-1.58,.87-3.25-.01-.71-.46-1.14-.7-1.69-.05,1.46-.37,3.11-.17,4.94Z"/>
        <path class="cls-146" d="M91.5,23.79c.22-1.67-.55-2.6-.82-3.91-.27,1.29-.65,2.47-.82,3.86,1.07,.99,1.37,.5,1.64,.05Z"/>
        <path class="cls-146" d="M86.49,39.8c.62-.23,1.49-.58,1.43-1.99,.01-.91-.53-1.14-.84-1.66l-.59,3.65Z"/>
        <path class="cls-146" d="M81.04,50.12c-.01,.38-.01,2.22-.02,2.65,.5,.2,.88-.06,.65-1.01l-.63-1.64Z"/>
        <path class="cls-146" d="M89.04,31.7c-.69,1.5-.57,3.28-.7,4.78,.47-.82,1.01-1.57,1.06-2.72l-.36-2.06Z"/>
        <path class="cls-146" d="M61.24,60.82c1.25,.81,2.48-.06,3.14-.61-.39-1.68-.97-2.32-1.45-3.49-.57,1.37-1.87,2.73-1.69,4.1Z"/>
        <path class="cls-146" d="M53.85,61.92c.79,.38,2.48,.47,3.27-.33-.33-1.47-1.21-2.52-1.85-3.77-.47,1.37-1.17,2.51-1.42,4.1Z"/>
        <path class="cls-146" d="M60.49,60.98c0-1.51-1.04-2.5-1.57-3.74-.46,1.42-1.33,2.91-1.4,4.26,1.5,.78,2.23,.12,2.97-.52Z"/>
        <path class="cls-146" d="M49.07,62.48c-.47-1.48-.95-1.5-1.43-2.25l-1.61,3.05c.52,.32,2.05,1.11,3.04-.8Z"/>
        <path class="cls-146" d="M50.24,62.29c1.07,.65,2.26,.29,2.9-.61-.65-1.3-1.31-1.42-1.96-2.1-.33,.91-.85,1.96-.94,2.71Z"/>
        <path class="cls-146" d="M75.1,58.22l-2.13-2.34-1.03,2.92c1.14,.72,2.19,.6,3.16-.58Z"/>
        <path class="cls-146" d="M64.89,60.02c.6,.27,1.8,.37,2.48-.3-.17-1.38-.99-2.32-1.47-3.49-.34,1.27-.8,2.27-1.01,3.79Z"/>
        <path class="cls-146" d="M78.75,57.31l-1.71-2.74-1.22,3.56c.91,.18,2.52,.17,2.93-.82Z"/>
        <path class="cls-146" d="M71.21,58.9c-.03-1.28-1-2-1.5-3l-1.96,3.63c1.29,.66,2.43,.35,3.46-.63Z"/>
        <path class="cls-146" d="M79.17,49.56c.46,.17,.76,.82,1.54-.05,.31-1.46-.51-2.43-.77-3.65-.26,1.23-.83,2.23-.77,3.7Z"/>
        <path class="cls-146" d="M80.43,54.69c.54-1.48,.44-3.84,.4-4.92-.62,.85-1.12,.25-1.66,.26-.26,8,.13,15.37,.19,23.05,.59,.21,1.15,.28,1.4-1.17,.67-6.56,.28-11.22-.33-17.22Z"/>
        <path class="cls-146" d="M75.4,58.73c-1.17,1.01-2.41,.93-3.67,.66-.69,5.76,.86,10.29,.7,15.36,1.32,.99,2.36,.03,3.44-.62-.29-5.13-.67-10.26-.47-15.4Z"/>
        <path class="cls-146" d="M49.63,62.76c.5,5.02,.74,10.51,.54,15.61,1.15,.82,2.18,.52,3.16-.4,.76-5.29,.55-10.6-.09-15.63-.98,1.18-2.46,.64-3.61,.42Z"/>
        <path class="cls-146" d="M78.89,57.89c-1.67,1.25-2.17,.56-3.14,.66-.21,5.32,.33,10.42,.61,15.66,1.14,.56,1.88-.07,2.6-.77-.04-5.19-.5-10.37-.07-15.55Z"/>
        <path class="cls-146" d="M71.35,59.53c-1.07,.66-2.24,.77-3.49,.56,.91,5.67,.67,10.51,.75,15.57,1.37,.55,2.36-.29,3.4-.99,.19-5.18-1.27-9.52-.66-15.14Z"/>
        <path class="cls-146" d="M61.03,61.38c.69,5.05,.7,10.12,.45,15.16,1.1,.29,2.1,1.13,3.53-.46-.21-5.16,.22-10.47-.68-15.47-.95,.87-2.09,.93-3.3,.77Z"/>
        <path class="cls-146" d="M53.75,62.25c.41,5.24,.43,10.43,.14,15.58,1.33,.9,2.41,.19,3.49-.51,1.1-5.14-.15-10.15-.35-15.22-1.04,1-2.16,.58-3.28,.15Z"/>
        <path class="cls-146" d="M57.5,62.04c.16,5.01,1.11,9.62,.35,15.09,1.04,.69,2.09,.73,3.13-.56,.42-5.2,.28-10.24-.51-15.1-.86,1.11-1.95,.57-2.97,.57Z"/>
        <path class="cls-146" d="M64.85,60.51c.65,5.05,.4,10.41,.58,15.61,1.26,.68,2.04,.15,2.79-.44-.1-5.19,0-10.39-.92-15.49-.82,.53-1.64,.36-2.45,.32Z"/>
        <path class="cls-146" d="M91.64,24.33c-.49,.34-1.07,.46-1.91-.16-.06,2.99,.27,6.19,.21,9.24-.11,5.36-.13,10.73,.18,15.89,1.14-.04,1.38-.96,1.2-2.31,1.17-7.65,.52-15.26,.32-22.66Z"/>
        <path class="cls-146" d="M89.7,33.69c-.03,1.45-.85,2.58-1.29,3.86,.08,4.9,.63,9.68,.31,14.82,1.15,.03,1.33-1.82,1.07-2.55-.2-5.3-.41-10.58-.09-16.13Z"/>
        <path class="cls-146" d="M88.18,38.05c-.17,2.07-.97,1.48-1.45,2.19,.26,4.83,.71,10.68,.49,14.94,1.08,.45,1.47-1.28,1.05-2.32,.56-5.21,.17-9.93-.09-14.81Z"/>
        <path class="cls-146" d="M81.16,53.56c-.08,.42-.38,.87-.42,1.17,.6,4.99,.81,11.41,.28,16.67,1.24,1.5,1.22-2.58,1.1-3.61,.32-4.55-.57-9.84-.96-14.23Z"/>
        <path class="cls-146" d="M86.35,41.79c-.12,1.62-.92,1.83-1.36,1.97,.95,4.33,.73,9.44,1.03,13.85,.39,.88,1.22-.54,.75-1.89,.84-3.83-.16-9.4-.42-13.93Z"/>
        <path class="cls-146" d="M81.98,51.88c-.01,.72-.12,1.33-.66,1.45,.38,4.25,1.28,8.82,1.17,13.32,1.03,.59,.91-.77,.82-2.06-.4-3.38,.05-9.06-1.33-12.71Z"/>
        <path class="cls-146" d="M84.79,44.83c-.24,1.04-.5,2.05-1.34,2.65,.51,4.38,.99,8.76,1.15,13.31,.56-.06,1.54-.98,1.12-1.96-.31-4.57,.41-9.85-.93-14Z"/>
        <path class="cls-146" d="M83.27,48.27c.09,1.43-.59,2.2-.96,3.23,.93,3.97,.84,8.35,1.26,12.52,.68-.27,.79-2.04,.68-3.37,.03-4.28-.23-8.44-.98-12.38Z"/>
        <path class="cls-146" d="M45.82,63.7c.49,5.18,.66,10.52,.68,15.87,1.04-.14,1.98,.71,3.18-1.06,.5-5.24,.5-10.57-.47-15.47-.99,.84-2.22,1.02-3.39,.66Z"/>
        <path class="cls-146" d="M2.35,48.51c-.83,5.19-.17,9.69-.26,14.53,.53,.52,1,1.24,1.83,.94,.22-4.88,.11-9.59,.65-14.63l-2.22-.84Z"/>
        <path class="cls-146" d="M35.33,65.52c.29,5.17-.02,10.5-.05,15.76,1.19,.75,2.28,.21,3.38-.57-.04-5.25,.52-10.33-.4-15.8-.98,.68-1.95,.61-2.93,.61Z"/>
        <path class="cls-146" d="M33.53,57.99c-.05,7.57,.1,15.5,.14,23.26,.1,.67,.59,.54,1.29,0-.03-3.61,.07-12.11,.07-15.73,0-.68-.03-1.14-.07-1.47,.33-1.9,.27-4.18,.4-6.16-.4,.36-1,.43-1.83,.1Z"/>
        <path class="cls-146" d="M38.75,64.77c.89,5.52,.11,10.9,.23,16.22,1.04,.43,2.25-.02,3.37-.89,.51-5.11-.1-10.37-.21-15.56-1.13,.36-2.26,.64-3.39,.23Z"/>
        <path class="cls-146" d="M42.52,64.52c.22,5.14,.61,10.43,.25,15.66,1.19,.28,2.38,.72,3.4-.66,.23-5.36-.27-10.54-.7-15.73-.93,.72-1.94,.77-2.95,.73Z"/>
        <path class="cls-167" d="M91.93,23.6l-1.15-4.23-.1-.07-1.17,4.4,.03,2.83-.89,.66-1.29-3.47-1.87,2.53h-.02l-.05-.03-1.31-4.54c-.58,.86-.99,1.78-1.29,2.77-.28-1.24-1.34-2.81-1.57-4.29l-1.82,2.77-1.41-4.05-1.28,2.01-1.6-3.63-1.54,1.94-1.12-3.76-1.57,1.91-1.01-2.97-1.1,1.78-1.1-3.67-1.36,2.71-1.26-4.05-1.4,2.32-1.01-4.4-1.9,2.88-1.24-4.24-1.94,2.46c.02-1.88-.03-3.8,.3-5.64L56.68,.04l-.25-.04-.97,4.48,.02,5.24-1.6-2.15-1.49,3.58-.3,.12-2.01-2.79-1.57,3.21-1.83-2.88-1.92,3.65-1.84-3.27-1.41,3.74-1.61-3.51-1.99,4.45-2.04-3.79-1.64,4.14-1.96-3.47-1.81,4.15-1.78-3.23-1.87,4-1.52-2.72-2.32,3.19-1.56-2.58-2.18,3.37-1.8-2.36-2.18,2.55-1.27-1.9-1.49,1.99c.02-1.74,.02-3.5,.19-5.24-.01-1.63-.77-3.19-1.1-4.82h-.12l-1.1,4.26v.07c-.37,3.08,.03,6.16,.04,9.24l-1-1.94-.73,5.53-1.02-1.36-.75,4.05v.02l.02,.73-1.52-2.27-.19,6.83-1.55-1.66h-.02l.16,4.07-1.31-1.89-.23,2.73-1.15-3.16-.09-.04L.08,36.8c-.23,8.48,.08,16.97,.12,25.45,.53,.49,1.05,1.12,1.64,1.03,.63,.59,1.3,1.08,2.17,1.12,.71,.6,1.54,1.05,2.56,1.22l2.6,2.41c.41,1.27,1.1,1.02,1.77,.93,.41,.48,1.03,.94,1.43,.9,1.02,1.24,1.82,.97,2.83,1.44,.83,.85,1.43,1.97,3.16,1.76,.71,.84,1.49,1.53,2.62,1.42,.1,.68-.3,1.55,1.71,1.39,.47,.52,.96,.99,1.69,.73,.5,.79,1.61,1.85,2.71,1.65,.98,1.54,1.97,1.45,3.12,1.41,.85,1,1.84,1.71,3.13,1.68,.05,.81,1.19,.9,1.71,.36,1.2,.04,2.39,.33,3.58-.36,1.33,.1,2.67,.33,4-.81,1.15,.21,2.21,.62,3.77-.5,1.23-.15,2.6,.22,3.51-1.12,1.34,.28,2.66,.57,3.75-.58,1.38,.63,2.68,.14,3.98-.69,1.37,.71,2.53,.24,3.65-.51,1.43,.42,2.61,.39,3.95-.65,1.01,.04,1.83,.51,3.23-.4,1.85,.36,2.81-.28,3.82-.85,1.49,.6,2.71,.12,3.86-.65,1.11,.26,2.13,.24,2.81-.7,.76-.36,1.88-.36,2.15-1.85,1.01,.48,1.99-2.55,1.27-4.71,1.01,.39,1.66-1.19,1.26-2.52,1.14-.99,1.2-2.1,.94-3.26,1.55-1.4,1.47-2.05,1.42-3.13,1.46-.62,1.26-1.7,1.22-2.53,1.17-.28,1.71-1.54,1.57-2.97,1.15-.73,1.39-1.88,1.59-3.05,1.09-.29,1.34-1.5,1.29-3.01,.99-7.73,.48-15.37,.26-23.25Zm-1.25-3.72c.27,1.31,1.04,2.24,.82,3.91-.27,.45-.57,.94-1.64-.05,.17-1.39,.55-2.57,.82-3.86Zm-2.2,8.64l1.06-1.73v2.2c-.43,.2-.77-.03-1.08-.45l.02-.02Zm.24,.98l.82,.26,.02,3.23-.51-1.83-.59,1.46c.04-1.08-.23-2.38,.26-3.12Zm.32,2.2l.36,2.06c-.05,1.15-.59,1.9-1.06,2.72,.13-1.5,.01-3.28,.7-4.78Zm-1.7-7.44c.22,1.21,1.19,2.42,.72,3.98-.82,.05-2.16-.1-2.38-1.5l1.66-2.48Zm.77,4.75c-.05,1.33,.05,2.9,0,4.24l-.28,3.32-.84-.91-.8,4.54-.82-1.69-1,3.44c.17-5.42,.04-10.9,.88-14.98,.8,1.08,1.82,1.57,2.86,2.04Zm-.19,8.8c.06,1.41-.81,1.76-1.43,1.99l.59-3.65c.31,.52,.85,.75,.84,1.66Zm-1.78,3.54c-.28,.7-.54,2.32-1.05,1.77-.71-1.2,.05-2.66,.21-4.02,.22,.7,1.03,1.3,.84,2.25Zm-2.76,1.61l-.11,.07-.19,4.17-.87-1.48-.51,5.36-.49-1.31c-.26-1.49-.78-3.08-1.24-4.59l-.19,.03-.94,4.26v.04l.03,7.19-1.95-2.62-1.54,3.88-2.58-2.78-1.28,3.09-1.85-2.88-1.9,3.63-1.87-3.26-1.38,3.75-1.64-3.51-1.97,4.44-2.06-3.79-1.63,4.12-1.95-3.44-1.8,4.17-2.27-2.65-1.38,3.4-2.22-2.48-1.62,2.94-1.59-2.57-2.15,3.35-1.99-2.41-1.99,2.59-1.57-1.92-1.33,2.23c.01-2.17,.01-4.35,.28-6.51l-.96-3.77,4.91-8.87,4.47,2.53,.26,11.8c.85,1.22,2.78,1.03,3.65-1.13l-.23-11.18,1.85,.04,.04-.75,.12-.39,1.87,.58,.05-1.03h.05v-.49l2.57,.28,.07-.89h.07l.05-.8,1.87,.24,.02-.91h.03l.11-.52,2.34,.52,.07-1.06h.05l.24-.89,1.87,.57,.07-1.18c.09-.07,.09-.22,.07-.39l.49,.18c-.03,1.55,.12,8.28,.16,11.26,.71,.99,2.49,.86,3.4-1.43l-.38-10.81,.59,.16,.09-.74s.05,0,.07,.02l.35-1.9-6.18-3.55-.02-.5,.02-.02-.02-.02-.14-3.37,.23,.18v-.04c.6,.69,1.38,.84,2.23,.79,.77,.8,1.56,1.52,2.57,1.34,.78,.68,1.32,1.76,2.55,1.64,.74,.98,1.5,1.77,2.37,1.4,1.04,.82,2.09,2.14,3.13,1.57,.68,1.17,1.56,1.85,2.74,1.78,.91,.74,1.76,2.03,2.79,1.87,.71,.66,1.3,1.84,2.24,1.47,.88,.77,1.78,1.6,3.28,1.45l.68,.66-.09,1.4-.99-1.61Zm.96,2.32c.03,.92-.36,1.47-1.03,1.78-.17-1.18-.03-2.36,.14-3.54,.29,.59,.88,1.08,.89,1.76Zm-2.2,5.94c-.2-1.83,.12-3.48,.17-4.94,.24,.55,.69,.98,.7,1.69,.23,1.67-.44,2.58-.87,3.25Zm-1.12,1.55c.01-.43,.01-2.27,.02-2.65l.63,1.64c.23,.95-.15,1.21-.65,1.01Zm-.31-3.26c-.78,.87-1.08,.22-1.54,.05-.06-1.47,.51-2.47,.77-3.7,.26,1.22,1.08,2.19,.77,3.65Zm-1.96,7.8c-.41,.99-2.02,1-2.93,.82l1.22-3.56,1.71,2.74Zm-3.65,.91c-.97,1.18-2.02,1.3-3.16,.58l1.03-2.92,2.13,2.34Zm-3.89,.68c-1.03,.98-2.17,1.29-3.46,.63l1.96-3.63c.5,1,1.47,1.72,1.5,3Zm-3.84,.82c-.68,.67-1.88,.57-2.48,.3,.21-1.52,.67-2.52,1.01-3.79,.48,1.17,1.3,2.11,1.47,3.49Zm-2.99,.49c-.66,.55-1.89,1.42-3.14,.61-.18-1.37,1.12-2.73,1.69-4.1,.48,1.17,1.06,1.81,1.45,3.49Zm-3.89,.77c-.74,.64-1.47,1.3-2.97,.52,.07-1.35,.94-2.84,1.4-4.26,.53,1.24,1.58,2.23,1.57,3.74Zm-3.37,.61c-.79,.8-2.48,.71-3.27,.33,.25-1.59,.95-2.73,1.42-4.1,.64,1.25,1.52,2.3,1.85,3.77Zm-3.98,.09c-.64,.9-1.83,1.26-2.9,.61,.09-.75,.61-1.8,.94-2.71,.65,.68,1.31,.8,1.96,2.1Zm-4.07,.8c-.99,1.91-2.52,1.12-3.04,.8l1.61-3.05c.48,.75,.96,.77,1.43,2.25Zm-3.58,.77c-1.34,1.39-2.16,.8-3.09,.63,.25-1.05,1.2-2.1,1.92-3.16,.39,.85,1.23,1.42,1.17,2.53Zm-3.46,.82c-1.17,.58-2.73,1.22-3.47,.02,.21-.99,1.09-1.73,1.69-2.57,.6,.83,1.63,1.49,1.78,2.55Zm-4.05,.35c-.69,.84-1.56,.86-2.51,.49,.04-1.35,.8-1.81,1.2-2.71,.44,.74,1.45,1.31,1.31,2.22Zm-4.73-1.14l-.96-2.58-1.22,1.69-.4-1.46,3.23-5.82-.67,2.43,.02,5.74Zm.07,1.47c-.91,.07-1.54-.56-2.11-1.36-.33-.88,.64-1.44,.96-2.15,.39,1.17,1.1,1.92,1.15,3.51Zm-13.51-13.67l-1.26,1.24-1.33-2.9-1.29,1.78-1.52-2.97-1.43,1.63-.47-2.31-1.24,1.1c.02-.97-.02-1.96,.23-2.9l-1.12-4.43h-.14l-1.17,4.38,.02,4.12-.79-2.65-.8,1.2-.66-1.78c1.01-.86,1.67-1.85,1.41-3.23,.5-.12,1.79-1.4,1.27-2.93,.8-.76,2.04-.23,1.56-4.02,.5-.13,1.28-.12,1.17-1.24,1.23,.21,2.44,.4,3.25-.64,1.95,.56,2.96-.07,4.2-.4,2.25,.71,2.89-.41,3.87-.96,2.19,.36,2.7-.53,3.57-.92l1.82,.04-.37,.79-2.08,.03-.28,1.31-1.43-.03-.38,1.03v.85l1.59,.89-.07,11.98v.02l-2.69,5.03c.04-.6,.06-1.2,.05-1.82l-1.29-4.35-.09,.04-1.03,4.4v.54l-1.08-1.92Zm.99,3.16c-.64-.16-1.01,.18-2.2-1.01-.2-.84,.68-1.24,1.03-1.84,.41,.92,1.06,1.47,1.17,2.85Zm-2.69-1.24c-.63,.16-1.28-.03-1.99-.98,.09-.92,.64-1.5,.98-2.25,.33,1.07,1.14,2,1.01,3.23Zm-2.51-1.29c-1,0-2.05,.34-2.88-.53,.32-1.36,1.03-1.74,1.54-2.6,.46,1.04,1.34,1.94,1.34,3.13Zm-3.09-1.07c-.54,.3-1.09-.24-1.64-.68,.12-.84,.74-1.37,1.46-1.87,.26,.79,.26,1.66,.18,2.55Zm-1.33-5.15c-.52,.47-1.22,.75-1.93-.1l1.06-3.46,.87,3.56Zm-2.2,5.33c-.52,.03-1.03-.15-1.54-.63-.12-1.73,.51-1.76,.79-2.6,.26,1.08,.82,2.16,.75,3.23Zm-1.97-.96c-.62-.02-1.27,.14-1.78-.53,.08-1.24,.85-1.7,1.38-2.41,.18,.86,1,1.53,.4,2.94Zm39.95-15.7l-6.67-7.47,10.65-5.8h.12l9.01,7.49-13.11,5.78Zm13.06-5.57l-.11,.21,.02-.16,.09-.05Zm2.69,11.77l.28-1.12h.07l.15-.68,1.35,.35,.4,10.7c-.34,1.69-1.89,2.42-2.88,1.63l-.19-11.21,.82,.33Zm-1.52-.89c-.03-.18-.05-.34,.03-.4l1.31,.12-.05,.63-1.29-.35Zm2.06-1.1l.12-.54c.59,.17,1.18,.33,1.78,.47l-.05,.59-1.85-.52Zm-.02-.82l-3.33-2.36-.09-1.87,5.78,3.3-.09,1.45-2.27-.52Zm-3.33-1.92l3.09,2.04-.16,1.52-1.68-.54-2.3-1.59,1.1-.58-.05-.85Zm-.58,3.98l-2.27-1.59,1.52-.82,2.34,1.57v1.31l-1.59-.47Zm1.57,1.45l-1.62-.6,.12-.43s.12-.04,.19-.04c.36-.03,.9,.19,1.26,.23l.05,.84Zm-4.36,.03l-2.01-1.71,2.18-1.17,2.39,1.52-.28,1.78-2.28-.42Zm2.09,.56l-.07,.84-2.02-.42,.15-.61,1.94,.19Zm-4.21,.54l-2.11-1.62,1.87-1,2.08,1.66-.11,1.19-1.73-.23Zm1.73,1.19l-1.64-.26,.05-.53,1.56,.11,.03,.68Zm-4.4,.45l-2.09-1.85,2.3-1.22,2.13,1.61-.03,1.62-2.31-.16Zm2.15,1l-2.15-.35v-.4l2.13,.1,.02,.65Zm-2.6,1.1l-1.5-.42,.15-.47,1.4,.21c-.13,.16-.03,.47-.05,.68Zm-.02-.79l-1.5-.52-2.04-1.61,1.62-.87,2.11,1.59-.19,1.41Zm8.19-15.83l.03,1.32-13.41,5.66v-1.1l13.38-5.88Zm-13.38,5.76v-.7l.88,.07,.03,.05,.07-.03v-.02l12.36-5.57,.04,.05v.35l-13.38,5.8Zm13.4-4.28v1.68l-13.41,5.76v-1.87l13.41-5.57Zm.03,1.8v1.17l-13.41,6.6-.03-1.94,13.44-5.83Zm-13.41,9.83l13.43-6.83v.84l-13.43,7.07v-1.08Zm0-.12v-1.8l13.41-6.57,.02,1.59-13.43,6.78Zm-6.21-15.84l-8.77-.28,12.54-5.99,6.74,.63-10.51,5.64Zm.01,.47l6.76,7.21-.87-.17-6.15-6.41-9.2-.28-.02-.77,9.48,.42Zm-5.06,4.07l-.02,.87-3.68-1.46v-1.31c4.9,1.99,9.63,3.77,14.58,5.62l.05-.02v1.5l-4.66-1.83,.05-.7-6.32-2.67Zm5.76,2.81l-.29,6.88-5.38-2.86,.28-6.27,5.39,2.25Zm-9.39,1.43l-.02-1.29,3.51,1.54-.05,1.41-3.44-1.66Zm3.42,1.77l-.03,.71-3.39-1.71v-.66l3.42,1.66Zm-3.44-3.18l-.03-1.59,3.58,1.47-.04,1.67-3.51-1.55Zm-.03-1.71l-.02-1.54,3.67,1.43-.07,1.61-3.58-1.5Zm12.88,.38l1.73,1.85v.28c-4.93-1.8-9.76-3.7-14.63-5.64l-.02-1.55,.72,.03-.04,.04,12.24,4.99Zm-3.84-4.07l1.26,1.33-4.93-2.15,1.96,.07,1.71,.75Zm-1.59-.75l.91,.02,.47,.49-1.38-.51Zm3.04,2.29l2.22,2.36-11.67-4.84,4,.12,5.45,2.36Zm-.63,6.25l.09-1.71,4.66,1.85,.02,1.85-4.77-1.99Zm4.77,2.04v2.08l-4.89-2.18,.12-1.87,4.77,1.97Zm-4.98,1.73l5.01,2.41v.98l-5.06-2.55,.05-.84Zm0-.12l.09-1.61,4.89,2.17,.03,1.85-5.01-2.41Zm-9.97-5.34v1.67s15.16,7.67,15.16,7.67l.03,.05,1.4-.75,2.04,1.62,.04,1.17-1.94-.17c-6.98-3.72-13.91-7.65-20.92-11.23l.09-1.27,2.06,.03,2.04,1.21Zm-1.83-1.33l.4-.98,1.54-.18-.13,2.15-1.81-.99Zm8.33,10.86l-.68,1.66-5.8-2.71c-.03-.84,.35-1.78,1.24-1.95l5.24,3Zm-4.49-2.9l.07-.1,4.63,2.6-.11,.21-4.59-2.71Zm3.51,4.77l-.75,1.55-4.7-2.48,.63-1.41,4.82,2.34Zm-.96,1.8l-.72,1.41-5.34-2.25c-.26-.96,.43-2.01,.86-1.92l5.2,2.76Zm-5.5-.42l4.57,2.16-.82,1.63-4.59-2.43,.84-1.36Zm3.56,4.05l-.71,1.5-5.33-2.6c-.09-.82,.11-1.48,.93-1.64l5.11,2.74Zm-5.71-.58l4.8,2.31-.68,1.29-4.8-2.41,.68-1.19Zm3.91,3.95l-.73,1.38-5.4-2.64c-.05-1.02,.19-1.56,.77-1.52l5.36,2.78Zm-.87,1.62l-.77,1.59-5.03-2.62,.79-1.34,5.01,2.37Zm7-12.55l1.43,.82c-2.73,5.25-5.41,10.48-8.71,15.85l-.56-1.95,7.84-14.72Zm-13.2-7.67l.09-.57,20.71,11.66c-.01,.12-.02,.53-.04,.65l-20.76-11.74Zm6.27,3.76l-1.78,3.37,.16-4.28,1.62,.91Zm-1.85-1.03l-.05,4.62-2.73,5.12,.07-11.28,2.71,1.54Zm16.59,7.96c-7.17-3.41-13.99-7.58-20.87-11.51l.14-.75,1.52,.16c7.16,3.31,14.02,7.4,20.71,11.31l.03,1-1.53-.21Zm1.41,.42l-.05,.56-1.42,.12,.02-.61,.05,.03,1.4-.1Zm-1.47,.94l1.66-.24,.05-.72h.04l.03-.4h.07l.25,11.05c-.65,2.38-2.17,1.92-3.04,1.36l-.14-11.66,1.08,.61Zm1.92-1.55s-.06-.02-.07-.02v.02h-.05v-.18l.05,.11v-.42c.1-.04,.36,.24,.3,.03l1.66-.03,.05,.47-1.94,.02Zm-16.27-6.55l1.4,.8-.05,.11-.65-.39c-.82,.87-1.49,1.52-1.17,2.57l.44,.31-.53,1.35-.52-.33c-.98,.59-1.18,1.54-.96,2.3l.16,.3-.77,1.24-.35-.18c-.72,.54-1.35,1.14-.98,1.99l-.17,.35,.17,.09-.54,1.12-.47-.23c-.79,.27-1.1,1.07-.91,1.92l.33,.4-.8,1.42-.3-.23c-1.42-.03-1.19,1.39-.87,1.8l.35,.24-.96,1.05h-.02c.03-1.1,.11-2.18,.19-3.28l7.98-14.72Zm-6.69,16.5c.13,.96,.59,1.84,.39,2.88-.51-.09-1.06,.56-1.49-.63,.03-.84,.72-1.5,1.1-2.25Zm.39,.61l-.18-.98-.57,.63-.18-.09c-.46-.5-.15-1.44,.37-1.36,.08,.01,.15,.03,.24,.09l5.24,2.81-.45,.77,.45-.58,.02,.07-.47,.51-.04,.07-.05,.07-.02,.03h-.03l-1.87-.89-.4-1.52-.72,1-1.34-.63Zm1.1,.96l-.72,.98-.28-1.47,1,.49Zm.82-.84c.26,1.21,1.02,2.43,.77,3.65-.8,.45-1.52-.02-2.15-1.24,.28-1.08,.92-1.6,1.38-2.41Zm.68,1.57l1.43,.67-.94,1.06-.04-.03-.45-1.7Zm2.27-.17c.31,1.43,1.19,2.86,.87,4.28-1.47,.33-1.83-.76-2.37-1.61-.15-.89,.99-1.78,1.5-2.67Zm4.43-4.12l.35-.63c.29,1.17,.73,2.2,.79,3.6-.49,.21-.86,.73-1.8-.16,0-1,.35-1.9,.66-2.81ZM63.25,14.27c.72,.89,1.48,1.54,2.32,1.56-.25,4.99-.01,10.17-.82,14.94-.95,.03-1.9,.06-2.36-1.13,.55-5.12,1.05-10.25,.86-15.37Zm20.69,7.93l.96,4.02c-1.02,.02-1.57-.44-1.96-1.05,.26-.64,.8-2.31,1-2.97Zm.8,4.49c-.7,5.22-.58,10.44-.87,15.66-.94-.31-1.97,.13-2.69-1.54,.43-5.16,.07-10.32,1.29-15.47,.65,.82,1.37,1.4,2.27,1.35Zm-3.63-5.82c.41,1.35,1.34,2.43,1.22,4.04-1.05,.26-2.51-.41-2.93-1.28l1.71-2.76Zm.92,4.47c-1.34,5.33-.85,10.22-1.27,15.33-1.02,.48-1.53-.42-2.06-1.27-.37-5.26,.33-10.32,.52-15.47,.82,.93,1.62,1.93,2.81,1.41Zm-4.1-5.88l1.05,3.7c-.95,.34-1.73-.1-2.06-1.5l1.01-2.2Zm.7,4.19l.02,.02,.05,.03c-.12,5.12-.81,10.25-.35,15.37-.83-.17-1.68-.25-2.39-1.52-.54-5.33,.35-10.26,.59-15.37,.53,1.4,1.31,1.41,2.08,1.47Zm-3.53-6.04c.44,1.31,.99,1.94,1.31,3.93-.71,.02-2.43-1.04-2.76-1.77l1.45-2.16Zm-1.43,2.53c.68,1.35,1.54,1.75,2.48,1.73-.18,5.1-.88,10.19-.49,15.29-.97,.44-1.88,.38-2.6-1.53,.2-5.16,.93-10.33,.61-15.49Zm-1.03,15.4c-.92,.25-1.82,.15-2.62-1.45l.93-15.12c.72,.55,1.39,1.29,2.34,1.01,.25,5.42-.43,10.37-.65,15.56Zm-.35-19.61c.26,1.11,.74,1.77,.77,3.34-.94,.99-1.54-.39-2.25-1l1.48-2.34Zm-2.53-.96l.7,3.41c-.7,.38-1.73-.53-1.94-1.14l1.24-2.27Zm.73,3.84l-.92,15.05c-.62,.08-1.2,.73-1.94-.94,.92-4.93,.55-10.42,.8-15.35,.62,1.08,1.31,1.53,2.06,1.24Zm-2.93-5.48c.35,1.11,1.02,2.06,.68,3.51-.77,.04-1.55,.11-1.83-.94,.05-1.1,.62-1.83,1.15-2.57Zm.59,4.07c-.3,5.05,.08,10.1-.89,15.14-.99,.28-1.58-.61-2.2-1.42,.84-4.87,.62-10.15,.91-15.24,.54,1.44,1.41,1.23,2.18,1.52Zm-3.26-5.59l.96,3.48c-.87,.16-1.62-.22-2.24-1.07l1.28-2.41Zm-2.22-2.34l.61,4.07c-.59,.04-2.07,0-2.41-1.15l1.8-2.92Zm-1.87,3.46c.67,.59,1.31,1.37,2.1,1.12,.3,5.18-.27,10.37-.96,15.55-.7,.03-1.39,.07-1.73-1.1l.33-.14-.59-.5c.29-4.97,1.03-9.95,.85-14.93Zm-1.36-4.87c.26,1.38,1.04,2.62,.77,4.12-.94,.19-1.78-.56-2.6-1.61l1.83-2.51Zm.87,4.66c.3,4.96-.51,9.92-.78,14.89l-1.92-1.71c.05-4.92,.47-9.77-.02-14.79,.91,1.07,1.81,1.39,2.72,1.61ZM56.55,.47l1.06,4.02c-.55,.52-1.1,.99-1.86,.16l.8-4.18Zm.88,4.51c-.13,1.6-.03,3.31-.06,4.8,.09,.39-.16,.91-.11,1.32,.62,4.79-.29,9.79-.02,14.68l-1.3-1.18-.15-13.62-.06-5.96c.41,.12,1.29,.65,1.7-.04Zm-3.54,3.03l1.71,2.95c-.63,.31-1.82,.96-2.75,.47l1.04-3.42Zm-1.01,3.81c.85,.32,1.87,.05,2.6-.48l.07,12.83-2.54-2.12c-.05-3.41-.57-6.92-.13-10.23Zm-2.81-2.91l1.71,2.82c-.79,1.02-1.91,.43-2.89,.51l1.18-3.33Zm2.32,3.04c-.27,3.18,.2,6.55,.31,9.83l-1.57-1.31-2.2-.14c-.11-2.54-.12-5.17-.32-7.61,1.28-.15,2.7,.6,3.78-.77Zm-5.82-2.84l1.76,3.43c-1.03,.42-2.01,1.23-3.24,.25l1.48-3.68Zm1.61,3.88c.55,2.46,.27,4.93,.4,7.29l-3.43-.25c-.11-2.2,.21-4.62-.34-6.6,1.12,.04,2.25,.14,3.37-.44Zm-3.42,7.03l-1.17-.09-1.49,.72c.35-2.28-.17-4.57-.28-6.85,.83-.05,1.74,.54,2.48-.26,1.1,2.51,.31,4.32,.46,6.48Zm-1.74-10.21l1.54,3.18c-.59,.9-2.42,.71-3.01,.44l1.47-3.62Zm-3.2-.04l1.55,3.71c-.55,.96-2.56,1.11-3.31,1.2l1.76-4.91Zm1.57,4.06c.14,2.33,.68,4.73,.36,6.96l-3.7,1.82c.11-2.92-.18-5.07-.27-7.59,1.2-.39,2.4,.42,3.61-1.19Zm-5.47-3.29l1.55,3.88c-1,1.08-1.93,.95-2.83,.44l1.28-4.32Zm1.57,4.47c.09,2.59,.63,5,.25,7.77l-3.04,1.48c.39-3.13-.13-5.89-.21-8.82,1,.39,2,.13,3-.43Zm-5.17-3.81l1.93,3.89c-1.22,.45-2.46,1.15-3.47,.07l1.54-3.96Zm1.76,4.24c.09,3.04,.73,5.7,.33,8.93l-3.57,1.76c.38-3.46,.03-6.93-.07-10.39,1.31,.59,2.31,.15,3.31-.3Zm-5.47-3.27l1.69,3.27c-.71,.64-2.51,1.27-3.23,.55l1.54-3.82Zm1.65,3.61c.2,3.14,.82,6.24,.38,9.67-.02,.16-.39,.28-.39,.44,.01,.71-.05,1.11-.02,1.84,0,.15,.65,.31,.65,.48,.05,1.03-.05,2.22-.03,3.16-.92,.76-2.47,1.13-3.39,.61,.08-5.1-.01-10.22-.67-15.42,1.18-.08,2.48,.83,3.47-.78Zm-5.14-2.44c.42,.96,1.36,1.74,1.21,2.89-.7,.74-2.25,.68-3.06,.37,.43-.99,1.23-2.17,1.85-3.26Zm1.2,3.34c.76,5.03,.81,10.14,.61,15.28-.86,1.15-2.01,.83-3.06,1.01,.11-5.29,.08-10.58-.66-15.87,1.15,.13,2.37,.46,3.11-.42Zm-2.88,16.26c-1.64,1.82-2.46,.66-3.62,.77,.1-5.38,.09-10.72-.33-15.89,1.44,.46,2.39,0,3.21-.7,1.19,5.15,1.13,10.46,.74,15.82Zm-2.14-18.97l1.42,2.86c-.6,.73-2.63,.73-3.42,.64l2-3.5Zm-1.84,19.58c-1.4,1.3-2.58,.87-3.79,.63,.14-5.36,.26-10.73-.23-15.99,1.22-.08,2.44,.43,3.66-.41,.54,5.2,.56,10.47,.36,15.77Zm-2.09-18.69l1.53,2.49c-.7,.78-2.7,.81-3.62,.43l2.09-2.92Zm-2,19.21c-.69,1.2-1.75,1.13-2.98,.53,.01-5.24,.54-10.6,.07-15.84,.84,0,1.67,.32,2.51-.47,.91,5.19,.61,10.49,.4,15.78Zm-1.47-18.45l1.19,2.15c-.78,.58-1.5,1.46-2.64,.27l1.45-2.42Zm-2.37-7.79l.86,4c-.65,.81-1.19,.29-1.75-.02l.89-3.98Zm-.78,4.45c.46,.13,.8,.48,1.55,.02,.19,1.85,0,3.83-.3,5.71,.83,5.23-.13,11.25,0,16.66-.06,.99-.16,1.81-.85,1.22-.27-4.79-.54-9.6-.4-14.39,0-3.08-.96-6.31,0-9.22Zm-.04,24.13c-.35,1.18,.95,3.07-1.22,3.48-.07-5.09-.59-10.01-.18-15.3,.47-.52,1.02-.86,1.09-2.3-.2,4.78,.11,9.44,.31,14.12Zm-1.19-16.76l.79,1.92c-.25,.88-.04,2.41-1.17,2.13l.38-4.05Zm-.75,5.8c-.06,4.91,.29,10.02,.44,15.03,.11,1.26,.08,2.38-1.17,2.18-.18-4.76-.19-10.2-.75-14.59,.88-.58,1.45-1.4,1.48-2.62Zm-.96-1.85l.77,1.27c0,1.16-.26,2.28-1.41,2.41l.64-3.68Zm-.03,19.69c.52,1.49-.5,2.67-1.03,2.48,.25-4.76-.81-9.41-1.08-13.86,.74-.48,1.34-1.05,1.34-2.06,.66,4.28,.51,8.96,.77,13.44Zm-2.08-17.07l1.26,2.39c-.2,1.29-.24,2.82-1.35,2.79l.09-5.18Zm-.14,6.96c.29,4.37,1.04,8.56,.84,13.13-.05,.74-.71,1.18-1.15,1.73,.19-4.46-.51-7.8-.77-11.7l.44-.92,.03-.02v-.02l.61-2.2Zm-1.47,12.4c.17,1.12,.71,2.17,.51,3.35-.98,.3-1.14-.49-1.61-.87-.15-.71,.72-1.65,1.1-2.48Zm-1.48,1.87l-.21-4.49c.01-.73-.18-1.51-.16-2.15,0-.47,.03-.77,.04-1.17,.55,.42,.53-.27,.68-.64l.59,6.51-.94,1.94Zm1.54-2.1l-.25,.09-.02-.33-.62-6.25,.89-2.06c.26,3.83,1.11,7.14,.75,11.47l-.75-2.92Zm.94-12.38l-.77,1.96-.44-3.63,1.21,1.67Zm-2.41,.67l1.22,2.02,.02,.11v.03c.07,1.3-.58,1.52-.89,2.25-.86-2.22-.25-2.96-.35-4.41Zm-.44,2.86l.48,2.16c-.11,.79-.33,.99-.65,.6l.17-2.76Zm-1.27-3.49l.82,3.35c-.42,.37-.86,.67-1.38,.09l.56-3.44Zm.82,29.91c-.62,.11-1.02-.33-1.4-.84,0-8.28-.38-16.55,.02-24.83,.62,.21,1.11,.22,1.31-.21-.26,3.61,.86,7.57,.31,11.44-.67,4.95-.24,14.35-.24,14.44Zm2.13,1.06c-.83,.3-1.3-.42-1.83-.94,.09-4.84-.57-9.34,.26-14.53l2.22,.84c-.54,5.04-.43,9.75-.65,14.63Zm2.71,1.26c-.69-.14-1.59-.14-2.38-1.22,.22-4.83,0-8.76,.67-14.51,.69,.83,1.38,.74,2.06,.94l-.35,14.79Zm.36,.42l.39-15.26c.57,.61,1.14,.65,1.71,.84-.31,5.68,.05,11.02,.08,16.53l-2.18-2.11Zm2.53,2.64c-.07-7.42-.53-14.7-.19-22.3,.64,.45,1.41,.22,1.92-.09-.24,.74-.13,2.04-.19,2.69-.06,.62-.28,.57-.35,1.29-.05,2.17-.28,4.77-.28,7.51,0,5.47,.19,11.17,.19,11.21-.55,.32-.81-.04-1.1-.31Zm2.62,1.2c-.31-.2-.69-.42-1.15-.93,0,0-.28-5.78-.28-11.26,0-2.37-.03-4.79,.23-6.79,.11,.46,1.21,.99,1.57,1.03-.7,5.98-.25,11.97-.37,17.95Zm3.06,1.22c-1.05,.09-1.91-.4-2.71-1.15,.08-5.96-.45-11.99,.32-17.88,.89,.91,1.77,.44,2.65,.59-.44,3.25-.21,6.56-.35,9.82-.03,4.13,.09,8.08,.09,8.62Zm.42,.24s-.12-4.4-.09-8.83c.03-3.18-.17-6.81,.17-9.97,.33,1.01,1.51,1.57,2.36,1.38-.45,6.1,.09,12.65,.14,18.84-1.6,.78-1.82-.88-2.58-1.42Zm3,1.87c-.04-6.21-.85-13.07,.21-18.94,.69,1.1,1.37,.57,2.06,.82l.09,18.91c-.74,.05-1.61,.26-2.36-.79Zm3.27-24.14l1.08,3.59c-.71,.83-1.27,.38-1.89,.51l.81-4.1Zm-.53,26.12c.02-7.21-.42-14.58,.05-21.65,.54-.16,.77,.3,1.63-.51,.1,2.15-.29,4.78-.53,6.6-.47,5.47-.18,16.01,.04,16.06-.48,.12-1.05,.62-1.19-.5Zm2.97,1.48c-.42-.08-.59,.28-1.47-1.08-.33-5.31-.3-10.54,.16-15.68,.6,.37,1.05,.61,1.73,.42-.5,5.17-.32,11.01-.42,16.34Zm2.72,1.31c-1.07,.79-1.73-.28-2.37-1.38-.12-5.39-.35-10.94,.42-16.34,1.18,1.75,1.72,1.48,2.39,1.64-.88,5.46-.29,10.72-.44,16.08Zm3.09,1.54c-.81,.44-1.72,.41-2.77-1.33,.18-5.33-.45-10.76,.52-15.99,1.2,1.53,1.97,1.71,2.64,1.57-.92,5.41-.28,10.51-.39,15.75Zm3.2,1.78c-.94-.01-1.86-.18-2.71-1.24-.25-5.02-.93-11.16,.25-16.08,.91,1.25,1.85,1.4,2.51,1.66l-.05,15.66Zm1.69-15.4c0,3.62-.1,12.12-.07,15.73-.7,.54-1.19,.67-1.29,0-.04-7.76-.19-15.69-.14-23.26,.83,.33,1.43,.26,1.83-.1-.13,1.98-.07,4.26-.4,6.16,.04,.33,.07,.79,.07,1.47Zm3.63,15.19c-1.1,.78-2.19,1.32-3.38,.57,.03-5.26,.34-10.59,.05-15.76,.98,0,1.95,.07,2.93-.61,.92,5.47,.36,10.55,.4,15.8Zm3.69-.61c-1.12,.87-2.33,1.32-3.37,.89-.12-5.32,.66-10.7-.23-16.22,1.13,.41,2.26,.13,3.39-.23,.11,5.19,.72,10.45,.21,15.56Zm3.82-.58c-1.02,1.38-2.21,.94-3.4,.66,.36-5.23-.03-10.52-.25-15.66,1.01,.04,2.02-.01,2.95-.73,.43,5.19,.93,10.37,.7,15.73Zm3.51-1.01c-1.2,1.77-2.14,.92-3.18,1.06-.02-5.35-.19-10.69-.68-15.87,1.17,.36,2.4,.18,3.39-.66,.97,4.9,.97,10.23,.47,15.47Zm3.65-.54c-.98,.92-2.01,1.22-3.16,.4,.2-5.1-.04-10.59-.54-15.61,1.15,.22,2.63,.76,3.61-.42,.64,5.03,.85,10.34,.09,15.63Zm4.05-.65c-1.08,.7-2.16,1.41-3.49,.51,.29-5.15,.27-10.34-.14-15.58,1.12,.43,2.24,.85,3.28-.15,.2,5.07,1.45,10.08,.35,15.22Zm3.6-.75c-1.04,1.29-2.09,1.25-3.13,.56,.76-5.47-.19-10.08-.35-15.09,1.02,0,2.11,.54,2.97-.57,.79,4.86,.93,9.9,.51,15.1Zm.5-.03c.25-5.04,.24-10.11-.45-15.16,1.21,.16,2.35,.1,3.3-.77,.9,5,.47,10.31,.68,15.47-1.43,1.59-2.43,.75-3.53,.46Zm3.95-.42c-.18-5.2,.07-10.56-.58-15.61,.81,.04,1.63,.21,2.45-.32,.92,5.1,.82,10.3,.92,15.49-.75,.59-1.53,1.12-2.79,.44Zm6.58-1.45c-1.04,.7-2.03,1.54-3.4,.99-.08-5.06,.16-9.9-.75-15.57,1.25,.21,2.42,.1,3.49-.56-.61,5.62,.85,9.96,.66,15.14Zm.42,.08c.16-5.07-1.39-9.6-.7-15.36,1.26,.27,2.5,.35,3.67-.66-.2,5.14,.18,10.27,.47,15.4-1.08,.65-2.12,1.61-3.44,.62Zm3.93-.54c-.28-5.24-.82-10.34-.61-15.66,.97-.1,1.47,.59,3.14-.66-.43,5.18,.03,10.36,.07,15.55-.72,.7-1.46,1.33-2.6,.77Zm3-1.13c-.06-7.68-.45-15.05-.19-23.05,.54,0,1.04,.59,1.66-.26,.04,1.08,.14,3.44-.4,4.92,.61,6,1,10.66,.33,17.22-.25,1.45-.81,1.38-1.4,1.17Zm1.66-1.68c.53-5.26,.32-11.68-.28-16.67,.04-.3,.34-.75,.42-1.17,.39,4.39,1.28,9.68,.96,14.23,.12,1.03,.14,5.11-1.1,3.61Zm1.47-4.75c.11-4.5-.79-9.07-1.17-13.32,.54-.12,.65-.73,.66-1.45,1.38,3.65,.93,9.33,1.33,12.71,.09,1.29,.21,2.65-.82,2.06Zm1.08-2.63c-.42-4.17-.33-8.55-1.26-12.52,.37-1.03,1.05-1.8,.96-3.23,.75,3.94,1.01,8.1,.98,12.38,.11,1.33,0,3.1-.68,3.37Zm1.03-3.23c-.16-4.55-.64-8.93-1.15-13.31,.84-.6,1.1-1.61,1.34-2.65,1.34,4.15,.62,9.43,.93,14,.42,.98-.56,1.9-1.12,1.96Zm1.42-3.18c-.3-4.41-.08-9.52-1.03-13.85,.44-.14,1.24-.35,1.36-1.97,.26,4.53,1.26,10.1,.42,13.93,.47,1.35-.36,2.77-.75,1.89Zm1.2-2.43c.22-4.26-.23-10.11-.49-14.94,.48-.71,1.28-.12,1.45-2.19,.26,4.88,.65,9.6,.09,14.81,.42,1.04,.03,2.77-1.05,2.32Zm1.5-2.81c.32-5.14-.23-9.92-.31-14.82,.44-1.28,1.26-2.41,1.29-3.86-.32,5.55-.11,10.83,.09,16.13,.26,.73,.08,2.58-1.07,2.55Zm1.4-3.07c-.31-5.16-.29-10.53-.18-15.89,.06-3.05-.27-6.25-.21-9.24,.84,.62,1.42,.5,1.91,.16,.2,7.4,.85,15.01-.32,22.66,.18,1.35-.06,2.27-1.2,2.31Z"/>
        <path class="cls-3" d="M51.06,20.89h-.12l-10.65,5.8,6.67,7.47,13.11-5.78-9.01-7.49Zm-6.81,7.89l-.14,.18-1.36-1.96c-.29,.17-.57,.33-.84,.51l.05-.16c.24-.15,.46-.31,.7-.47l-.35-.51,.07-.12,.42,.56c.51-.34,1-.71,1.5-1.08l.16,.17c-.48,.37-1.03,.71-1.57,1.03l1.36,1.85Zm11.54-.12c-1.26-.76-2.16-2.06-3.21-3.09l.12-.12c.95,.96,2.16,2.27,3.16,3.09l-.07,.12Zm-3.89-6.2l-3.39,1.94c.44,.44,.85,.9,1.26,1.38,.34-.18,.69-.35,1.03-.54l.17,.14-1.08,.56c.22,.26,.46,.53,.7,.78l-.21,.04c-.23-.24-.43-.5-.66-.75l-3.2,1.67,2.15,2.73,3.09-1.7-.51-.52,.16-.16,.51,.58,1.24-.68,.05,.17-1.17,.65,1.24,1.43v.09l-1.4-1.42-3.09,1.71,.68,.86-.12,.07-.7-.86-2.09,1.14-.04-.16,2.01-1.12-2.22-2.72-1.31,.68-.26-.05,1.47-.75-.65-.79,.19-.19,.67,.87c1.06-.55,2.11-1.11,3.16-1.67-.41-.46-.82-.92-1.26-1.35l-1.17,.68-.02-.17,1.07-.61c-.24-.23-.48-.47-.75-.68l.05-.18c.33,.22,.63,.48,.91,.75l3.4-1.95-1.06-.96,.05-.11,1.12,1,.4-.21v.12l-.3,.19,6.46,5.78-.07,.23-6.51-5.94Z"/>
        <path class="cls-165" d="M43.66,20.19l-12.54,5.99,8.77,.28,10.51-5.64-6.74-.63Zm.05,1.85l-2.15,1.28-.14-.04,2.08-1.29c-.5-.1-1.06-.22-1.62-.33l-5.96,3.23,4.37,.24,.12,.21-4.89-.24-.45,.24-.04-.24,.04-.02-.54-.02,.17-.24,.77,.05,6.09-3.26c-.15-.02-.27-.06-.43-.09l.22-.09c.14,.02,.25,.04,.39,.07l1.85-.99,.28,.1-1.78,.96c.55,.09,1.11,.19,1.62,.28l1.92-1.2,.14,.15-1.83,1.1c.73,.13,1.46,.24,2.32,.35l-.16,.16c-.91-.09-1.65-.23-2.39-.37Z"/>
        <polygon class="cls-181" points="46.66 34.14 45.79 33.97 39.64 27.56 30.44 27.28 30.42 26.51 39.9 26.93 46.66 34.14"/>
        <polygon class="cls-133" points="40.31 40.69 40.6 33.81 35.21 31.56 34.93 37.83 40.31 40.69"/>
        <path class="cls-75" d="M30.86,43.01l5.8,2.71,.68-1.66-5.24-3c-.89,.17-1.27,1.11-1.24,1.95Z"/>
        <path class="cls-149" d="M29.34,46.89l5.34,2.25,.72-1.41-5.2-2.76c-.43-.09-1.12,.96-.86,1.92Z"/>
        <path class="cls-184" d="M27.42,50.26l5.33,2.6,.71-1.5-5.11-2.74c-.82,.16-1.02,.82-.93,1.64Z"/>
        <path class="cls-159" d="M25.53,53.47l5.4,2.64,.73-1.38-5.36-2.78c-.58-.04-.82,.5-.77,1.52Z"/>
        <path class="cls-106" d="M26.95,56.82l.4,1.52,1.87,.89h.03l.02-.03,.05-.07,.04-.07,.45-.77-5.24-2.81c-.09-.06-.16-.08-.24-.09-.52-.08-.83,.86-.37,1.36l.18,.09,.57-.63,.18,.98,1.34,.63,.72-1Z"/>
        <path class="cls-91" d="M39.22,44.62l-1.43-.82-7.84,14.72,.56,1.95c3.3-5.37,5.98-10.6,8.71-15.85Z"/>
        <path class="cls-191" d="M64.96,49.61l-.4-10.7-1.35-.35-.15,.68h-.07l-.28,1.12-.82-.33,.19,11.21c.99,.79,2.54,.06,2.88-1.63Z"/>
        <path class="cls-192" d="M47.64,57.87l-.25-11.05h-.07l-.03,.4h-.04l-.05,.72-1.66,.24-1.08-.61,.14,11.66c.87,.56,2.39,1.02,3.04-1.36Z"/>
        <path class="cls-71" d="M23.04,58.08l.96-1.05-.35-.24c-.32-.41-.55-1.83,.87-1.8l.3,.23,.8-1.42-.33-.4c-.19-.85,.12-1.65,.91-1.92l.47,.23,.54-1.12-.17-.09,.17-.35c-.37-.85,.26-1.45,.98-1.99l.35,.18,.77-1.24-.16-.3c-.22-.76-.02-1.71,.96-2.3l.52,.33,.53-1.35-.44-.31c-.32-1.05,.35-1.7,1.17-2.57l.65,.39,.05-.11-1.4-.8-7.98,14.72c-.08,1.1-.16,2.18-.19,3.28h.02Z"/>
        <polygon class="cls-61" points="28.96 43.48 29.01 38.86 26.3 37.32 26.23 48.6 28.96 43.48"/>
        <polygon class="cls-113" points="65.59 36.62 59.81 33.32 59.9 35.19 63.23 37.55 65.5 38.07 65.59 36.62"/>
        <path class="cls-51" d="M65.15,38.3c-.6-.14-1.19-.3-1.78-.47l-.12,.54,1.85,.52,.05-.59Z"/>
        <polygon class="cls-65" points="60.91 38.77 58.57 37.2 57.05 38.02 59.32 39.61 60.91 40.08 60.91 38.77"/>
        <polygon class="cls-179" points="61.15 38.65 62.83 39.19 62.99 37.67 59.9 35.63 59.95 36.48 58.85 37.06 61.15 38.65"/>
        <path class="cls-74" d="M61.22,39.07c-.08,.06-.06,.22-.03,.4l1.29,.35,.05-.63-1.31-.12Z"/>
        <path class="cls-127" d="M59.39,40.03l-.12,.43,1.62,.6-.05-.84c-.36-.04-.9-.26-1.26-.23-.07,0-.14,.02-.19,.04Z"/>
        <polygon class="cls-161" points="58.55 42.49 58.62 41.65 56.68 41.46 56.53 42.07 58.55 42.49"/>
        <polygon class="cls-178" points="59.09 39.73 56.7 38.21 54.52 39.38 56.53 41.09 58.81 41.51 59.09 39.73"/>
        <polygon class="cls-154" points="56.25 41.23 54.17 39.57 52.3 40.57 54.41 42.19 56.14 42.42 56.25 41.23"/>
        <polygon class="cls-129" points="54.5 43.12 56.14 43.38 56.11 42.7 54.55 42.59 54.5 43.12"/>
        <polygon class="cls-193" points="51.74 44.48 53.89 44.83 53.87 44.18 51.74 44.08 51.74 44.48"/>
        <polygon class="cls-168" points="54.08 42.37 51.95 40.76 49.65 41.98 51.74 43.83 54.05 43.99 54.08 42.37"/>
        <polygon class="cls-70" points="49.35 42.14 47.73 43.01 49.77 44.62 51.27 45.14 51.46 43.73 49.35 42.14"/>
        <path class="cls-175" d="M49.94,45.04l-.15,.47,1.5,.42c.02-.21-.08-.52,.05-.68l-1.4-.21Z"/>
        <path class="cls-176" d="M49.35,46.14l-1.66,.03c.06,.21-.2-.07-.3-.03v.42l-.05-.11v.18h.05v-.02s.04,.02,.07,.02l1.94-.02-.05-.47Z"/>
        <polygon class="cls-114" points="45.54 47.92 46.96 47.8 47.01 47.24 45.61 47.34 45.56 47.31 45.54 47.92"/>
        <path class="cls-87" d="M45.39,47.22l-20.71-11.66-.09,.57,20.76,11.74c.02-.12,.03-.53,.04-.65Z"/>
        <path class="cls-171" d="M47.1,46.03c-6.69-3.91-13.55-8-20.71-11.31l-1.52-.16-.14,.75c6.88,3.93,13.7,8.1,20.87,11.51l1.53,.21-.03-1Z"/>
        <path class="cls-141" d="M26.74,33.29l-.09,1.27c7.01,3.58,13.94,7.51,20.92,11.23l1.94,.17-.04-1.17-2.04-1.62-1.4,.75-.03-.05-15.17-7.67v-1.67s-2.03-1.21-2.03-1.21l-2.06-.03Z"/>
        <polygon class="cls-85" points="29.41 32.22 29.01 33.2 30.82 34.19 30.95 32.04 29.41 32.22"/>
        <polygon class="cls-72" points="45.77 36.36 41.11 34.51 41.02 36.22 45.79 38.21 45.77 36.36"/>
        <polygon class="cls-111" points="40.9 38.16 45.79 40.34 45.79 38.26 41.02 36.29 40.9 38.16"/>
        <polygon class="cls-173" points="45.79 40.43 40.9 38.26 40.81 39.87 45.82 42.28 45.79 40.43"/>
        <polygon class="cls-100" points="45.82 42.4 40.81 39.99 40.76 40.83 45.82 43.38 45.82 42.4"/>
        <polygon class="cls-67" points="38.61 27.68 39.99 28.19 39.52 27.7 38.61 27.68"/>
        <polygon class="cls-124" points="36.53 27.61 41.46 29.76 40.2 28.43 38.49 27.68 36.53 27.61"/>
        <polygon class="cls-163" points="32.2 27.49 43.87 32.33 41.65 29.97 36.2 27.61 32.2 27.49"/>
        <path class="cls-58" d="M31.12,27.44l.02,1.55c4.87,1.94,9.7,3.84,14.63,5.64v-.28l-1.73-1.85-12.24-4.99,.04-.04-.72-.03Z"/>
        <path class="cls-186" d="M41.11,34.37l4.66,1.83v-1.5l-.05,.02c-4.95-1.85-9.68-3.63-14.58-5.62v1.31l3.68,1.46,.02-.87,6.32,2.67-.05,.7Z"/>
        <polygon class="cls-138" points="34.81 32.01 31.14 30.58 31.16 32.12 34.74 33.62 34.81 32.01"/>
        <polygon class="cls-189" points="34.74 33.71 31.16 32.24 31.19 33.83 34.7 35.38 34.74 33.71"/>
        <polygon class="cls-188" points="34.7 35.49 31.19 33.95 31.21 35.24 34.65 36.9 34.7 35.49"/>
        <polygon class="cls-86" points="31.21 36.01 34.6 37.72 34.63 37.01 31.21 35.35 31.21 36.01"/>
        <polygon class="cls-110" points="59.46 28.92 59.42 28.87 47.06 34.44 47.06 34.46 46.99 34.49 46.96 34.44 46.08 34.37 46.08 35.07 59.46 29.27 59.46 28.92"/>
        <polygon class="cls-92" points="46.08 36.29 59.49 30.63 59.46 29.31 46.08 35.19 46.08 36.29"/>
        <polygon class="cls-48" points="46.07 38.23 59.48 32.47 59.48 30.79 46.07 36.36 46.07 38.23"/>
        <polygon class="cls-69" points="46.1 40.36 59.51 33.76 59.51 32.59 46.07 38.42 46.1 40.36"/>
        <polygon class="cls-77" points="46.1 40.5 46.1 42.3 59.53 35.52 59.51 33.93 46.1 40.5"/>
        <polygon class="cls-137" points="59.53 35.59 46.1 42.42 46.1 43.5 59.53 36.43 59.53 35.59"/>
        <path class="cls-140" d="M88.46,32.62l.59-1.46,.51,1.83-.02-3.23-.82-.26c-.49,.74-.22,2.04-.26,3.12Z"/>
        <path class="cls-66" d="M85.37,38.51l.82,1.69,.8-4.54,.84,.91,.28-3.32c.05-1.34-.05-2.91,0-4.24-1.04-.47-2.06-.96-2.86-2.04-.84,4.08-.71,9.56-.88,14.98l1-3.44Z"/>
        <path class="cls-187" d="M83.87,42.35c.29-5.22,.17-10.44,.87-15.66-.9,.05-1.62-.53-2.27-1.35-1.22,5.15-.86,10.31-1.29,15.47,.72,1.67,1.75,1.23,2.69,1.54Z"/>
        <path class="cls-62" d="M78.7,39.4c.53,.85,1.04,1.75,2.06,1.27,.42-5.11-.07-10,1.27-15.33-1.19,.52-1.99-.48-2.81-1.41-.19,5.15-.89,10.21-.52,15.47Z"/>
        <path class="cls-107" d="M75.96,37.55c.71,1.27,1.56,1.35,2.39,1.52-.46-5.12,.23-10.25,.35-15.37l-.05-.03-.02-.02c-.77-.06-1.55-.07-2.08-1.47-.24,5.11-1.13,10.04-.59,15.37Z"/>
        <path class="cls-79" d="M75.66,37.16c-.39-5.1,.31-10.19,.49-15.29-.94,.02-1.8-.38-2.48-1.73,.32,5.16-.41,10.33-.61,15.49,.72,1.91,1.63,1.97,2.6,1.53Z"/>
        <path class="cls-118" d="M70.95,18.97l-.93,15.12c.8,1.6,1.7,1.7,2.62,1.45,.22-5.19,.9-10.14,.65-15.56-.95,.28-1.62-.46-2.34-1.01Z"/>
        <path class="cls-122" d="M69.57,33.86l.92-15.05c-.75,.29-1.44-.16-2.06-1.24-.25,4.93,.12,10.42-.8,15.35,.74,1.67,1.32,1.02,1.94,.94Z"/>
        <path class="cls-95" d="M67.26,32.54c.97-5.04,.59-10.09,.89-15.14-.77-.29-1.64-.08-2.18-1.52-.29,5.09-.07,10.37-.91,15.24,.62,.81,1.21,1.7,2.2,1.42Z"/>
        <path class="cls-134" d="M64.75,30.77c.81-4.77,.57-9.95,.82-14.94-.84-.02-1.6-.67-2.32-1.56,.19,5.12-.31,10.25-.86,15.37,.46,1.19,1.41,1.16,2.36,1.13Z"/>
        <path class="cls-144" d="M60.54,28.36l-.33,.14c.34,1.17,1.03,1.13,1.73,1.1,.69-5.18,1.26-10.37,.96-15.55-.79,.25-1.43-.53-2.1-1.12,.18,4.98-.56,9.96-.85,14.93l.59,.5Z"/>
        <path class="cls-152" d="M57.61,25.9l1.92,1.71c.27-4.97,1.08-9.93,.78-14.89-.91-.22-1.81-.54-2.72-1.61,.49,5.02,.07,9.87,.02,14.79Z"/>
        <path class="cls-96" d="M55.94,24.6l1.3,1.18c-.27-4.89,.64-9.89,.02-14.68-.05-.41,.2-.93,.11-1.32,.03-1.49-.07-3.2,.06-4.8-.41,.69-1.29,.16-1.7,.04l.06,5.96,.15,13.62Z"/>
        <path class="cls-120" d="M55.55,24.17l-.07-12.83c-.73,.53-1.75,.8-2.6,.48-.44,3.31,.08,6.82,.13,10.23l2.54,2.12Z"/>
        <path class="cls-63" d="M51.13,20.47l1.57,1.31c-.11-3.28-.58-6.65-.31-9.83-1.08,1.37-2.5,.62-3.78,.77,.2,2.44,.21,5.07,.32,7.61l2.2,.14Z"/>
        <path class="cls-145" d="M45.15,20.03l3.43,.25c-.13-2.36,.15-4.83-.4-7.29-1.12,.58-2.25,.48-3.37,.44,.55,1.98,.23,4.4,.34,6.6Z"/>
        <path class="cls-180" d="M41.82,13.8c.11,2.28,.63,4.57,.28,6.85l1.49-.72,1.17,.09c-.15-2.16,.64-3.97-.46-6.48-.74,.8-1.65,.21-2.48,.26Z"/>
        <path class="cls-128" d="M38.05,22.61l3.7-1.82c.32-2.23-.22-4.63-.36-6.96-1.21,1.61-2.41,.8-3.61,1.19,.09,2.52,.38,4.67,.27,7.59Z"/>
        <path class="cls-155" d="M34.7,24.26l3.04-1.48c.38-2.77-.16-5.18-.25-7.77-1,.56-2,.82-3,.43,.08,2.93,.6,5.69,.21,8.82Z"/>
        <path class="cls-162" d="M30.84,26.13l3.57-1.76c.4-3.23-.24-5.89-.33-8.93-1,.45-2,.89-3.31,.3,.1,3.46,.45,6.93,.07,10.39Z"/>
        <path class="cls-1" d="M27.46,31.98c.92,.52,2.47,.15,3.39-.61-.02-.94,.08-2.13,.03-3.16,0-.17-.65-.33-.65-.48-.03-.73,.03-1.13,.02-1.84,0-.16,.37-.28,.39-.44,.44-3.43-.18-6.53-.38-9.67-.99,1.61-2.29,.7-3.47,.78,.66,5.2,.75,10.32,.67,15.42Z"/>
        <path class="cls-125" d="M23.87,32.97c1.05-.18,2.2,.14,3.06-1.01,.2-5.14,.15-10.25-.61-15.28-.74,.88-1.96,.55-3.11,.42,.74,5.29,.77,10.58,.66,15.87Z"/>
        <path class="cls-182" d="M19.49,17.82c.42,5.17,.43,10.51,.33,15.89,1.16-.11,1.98,1.05,3.62-.77,.39-5.36,.45-10.67-.74-15.82-.82,.7-1.77,1.16-3.21,.7Z"/>
        <path class="cls-73" d="M15.44,18.19c.49,5.26,.37,10.63,.23,15.99,1.21,.24,2.39,.67,3.79-.63,.2-5.3,.18-10.57-.36-15.77-1.22,.84-2.44,.33-3.66,.41Z"/>
        <path class="cls-147" d="M12.46,18.76c.47,5.24-.06,10.6-.07,15.84,1.23,.6,2.29,.67,2.98-.53,.21-5.29,.51-10.59-.4-15.78-.84,.79-1.67,.47-2.51,.47Z"/>
        <path class="cls-56" d="M11.15,35.89c.69,.59,.79-.23,.85-1.22-.13-5.41,.83-11.43,0-16.66,.3-1.88,.49-3.86,.3-5.71-.75,.46-1.09,.11-1.55-.02-.96,2.91,0,6.14,0,9.22-.14,4.79,.13,9.6,.4,14.39Z"/>
        <path class="cls-64" d="M9.31,24.59c-.41,5.29,.11,10.21,.18,15.3,2.17-.41,.87-2.3,1.22-3.48-.2-4.68-.51-9.34-.31-14.12-.07,1.44-.62,1.78-1.09,2.3Z"/>
        <path class="cls-112" d="M7.29,28.07c.56,4.39,.57,9.83,.75,14.59,1.25,.2,1.28-.92,1.17-2.18-.15-5.01-.5-10.12-.44-15.03-.03,1.22-.6,2.04-1.48,2.62Z"/>
        <path class="cls-136" d="M5.67,31.91c.27,4.45,1.33,9.1,1.08,13.86,.53,.19,1.55-.99,1.03-2.48-.26-4.48-.11-9.16-.77-13.44,0,1.01-.6,1.58-1.34,2.06Z"/>
        <path class="cls-81" d="M4.95,35.4l-.03,.02-.44,.92c.26,3.9,.96,7.24,.77,11.7,.44-.55,1.1-.99,1.15-1.73,.2-4.57-.55-8.76-.84-13.13l-.61,2.2v.02Z"/>
        <path class="cls-115" d="M4.15,36.8l-.89,2.06,.62,6.25,.02,.33,.25-.09,.75,2.92c.36-4.33-.49-7.64-.75-11.47Z"/>
        <path class="cls-99" d="M2.28,39.64c-.01,.4-.04,.7-.04,1.17-.02,.64,.17,1.42,.16,2.15l.21,4.49,.94-1.94-.59-6.51c-.15,.37-.13,1.06-.68,.64Z"/>
        <path class="cls-52" d="M89.54,28.99v-2.2l-1.06,1.73-.02,.02c.31,.42,.65,.65,1.08,.45Z"/>
        <path class="cls-148" d="M88.06,28.24c.47-1.56-.5-2.77-.72-3.98l-1.66,2.48c.22,1.4,1.56,1.55,2.38,1.5Z"/>
        <path class="cls-131" d="M84.9,26.22l-.96-4.02c-.2,.66-.74,2.33-1,2.97,.39,.61,.94,1.07,1.96,1.05Z"/>
        <path class="cls-185" d="M82.33,24.91c.12-1.61-.81-2.69-1.22-4.04l-1.71,2.76c.42,.87,1.88,1.54,2.93,1.28Z"/>
        <path class="cls-78" d="M78.98,23.16l-1.05-3.7-1.01,2.2c.33,1.4,1.11,1.84,2.06,1.5Z"/>
        <path class="cls-54" d="M76.41,21.54c-.32-1.99-.87-2.62-1.31-3.93l-1.45,2.16c.33,.73,2.05,1.79,2.76,1.77Z"/>
        <path class="cls-53" d="M73.06,19.27c-.03-1.57-.51-2.23-.77-3.34l-1.48,2.34c.71,.61,1.31,1.99,2.25,1Z"/>
        <path class="cls-174" d="M70.46,18.38l-.7-3.41-1.24,2.27c.21,.61,1.24,1.52,1.94,1.14Z"/>
        <path class="cls-98" d="M68.24,16.84c.34-1.45-.33-2.4-.68-3.51-.53,.74-1.1,1.47-1.15,2.57,.28,1.05,1.06,.98,1.83,.94Z"/>
        <path class="cls-153" d="M65.85,15.29l-.96-3.48-1.28,2.41c.62,.85,1.37,1.23,2.24,1.07Z"/>
        <path class="cls-90" d="M63.28,13.54l-.61-4.07-1.8,2.92c.34,1.15,1.82,1.19,2.41,1.15Z"/>
        <path class="cls-126" d="M60.21,12.18c.27-1.5-.51-2.74-.77-4.12l-1.83,2.51c.82,1.05,1.66,1.8,2.6,1.61Z"/>
        <path class="cls-164" d="M57.61,4.49l-1.06-4.02-.8,4.18c.76,.83,1.31,.36,1.86-.16Z"/>
        <path class="cls-157" d="M55.6,10.96l-1.71-2.95-1.04,3.42c.93,.49,2.12-.16,2.75-.47Z"/>
        <path class="cls-194" d="M51.78,11.73l-1.71-2.82-1.18,3.33c.98-.08,2.1,.51,2.89-.51Z"/>
        <path class="cls-135" d="M48.33,12.54l-1.76-3.43-1.48,3.68c1.23,.98,2.21,.17,3.24-.25Z"/>
        <path class="cls-121" d="M44.56,12.99l-1.54-3.18-1.47,3.62c.59,.27,2.42,.46,3.01-.44Z"/>
        <path class="cls-83" d="M41.37,13.48l-1.55-3.71-1.76,4.91c.75-.09,2.76-.24,3.31-1.2Z"/>
        <path class="cls-158" d="M37.47,14.42l-1.55-3.88-1.28,4.32c.9,.51,1.83,.64,2.83-.44Z"/>
        <path class="cls-93" d="M34.25,15.09l-1.93-3.89-1.54,3.96c1.01,1.08,2.25,.38,3.47-.07Z"/>
        <path class="cls-123" d="M30.3,15.44l-1.69-3.27-1.54,3.82c.72,.72,2.52,.09,3.23-.55Z"/>
        <path class="cls-80" d="M26.33,16.23c.15-1.15-.79-1.93-1.21-2.89-.62,1.09-1.42,2.27-1.85,3.26,.81,.31,2.36,.37,3.06-.37Z"/>
        <path class="cls-57" d="M22.72,16.83l-1.42-2.86-2,3.5c.79,.09,2.82,.09,3.42-.64Z"/>
        <path class="cls-103" d="M12.39,11.83l-.86-4-.89,3.98c.56,.31,1.1,.83,1.75,.02Z"/>
        <path class="cls-94" d="M18.9,17.35l-1.53-2.49-2.09,2.92c.92,.38,2.92,.35,3.62-.43Z"/>
        <path class="cls-117" d="M15.09,17.77l-1.19-2.15-1.45,2.42c1.14,1.19,1.86,.31,2.64-.27Z"/>
        <path class="cls-139" d="M10.31,21.57l-.79-1.92-.38,4.05c1.13,.28,.92-1.25,1.17-2.13Z"/>
        <path class="cls-119" d="M8.58,24.87l-.77-1.27-.64,3.68c1.15-.13,1.41-1.25,1.41-2.41Z"/>
        <path class="cls-183" d="M6.96,28.61l-1.26-2.39-.09,5.18c1.11,.03,1.15-1.5,1.35-2.79Z"/>
        <polygon class="cls-169" points="5.09 32.97 3.88 31.3 4.32 34.93 5.09 32.97"/>
        <path class="cls-109" d="M3.03,38.05c.31-.73,.96-.95,.89-2.25v-.03l-.02-.11-1.22-2.02c.1,1.45-.51,2.19,.35,4.41Z"/>
        <path class="cls-142" d="M2.72,38.66l-.48-2.16-.17,2.76c.32,.39,.54,.19,.65-.6Z"/>
        <path class="cls-2" d="M1.79,36.36l-.82-3.35-.56,3.44c.52,.58,.96,.28,1.38-.09Z"/>
        <path class="cls-88" d="M4.6,48.93c.2-1.18-.34-2.23-.51-3.35-.38,.83-1.25,1.77-1.1,2.48,.47,.38,.63,1.17,1.61,.87Z"/>
        <path class="cls-130" d="M5.23,49.33c.51,.67,1.16,.51,1.78,.53,.6-1.41-.22-2.08-.4-2.94-.53,.71-1.3,1.17-1.38,2.41Z"/>
        <path class="cls-50" d="M7.44,50.19c.51,.48,1.02,.66,1.54,.63,.07-1.07-.49-2.15-.75-3.23-.28,.84-.91,.87-.79,2.6Z"/>
        <path class="cls-166" d="M9.25,45.39c.71,.85,1.41,.57,1.93,.1l-.87-3.56-1.06,3.46Z"/>
        <path class="cls-104" d="M10.87,49.96c.55,.44,1.1,.98,1.64,.68,.08-.89,.08-1.76-.18-2.55-.72,.5-1.34,1.03-1.46,1.87Z"/>
        <path class="cls-59" d="M12.72,51.18c.83,.87,1.88,.54,2.88,.53,0-1.19-.88-2.09-1.34-3.13-.51,.86-1.22,1.24-1.54,2.6Z"/>
        <path class="cls-177" d="M16.12,52.02c.71,.95,1.36,1.14,1.99,.98,.13-1.23-.68-2.16-1.01-3.23-.34,.75-.89,1.33-.98,2.25Z"/>
        <path class="cls-116" d="M18.6,53.23c1.19,1.19,1.56,.85,2.2,1.01-.11-1.38-.76-1.93-1.17-2.85-.35,.6-1.23,1-1.03,1.84Z"/>
        <path class="cls-84" d="M22.97,52.28l-1.08-3.59-.81,4.1c.62-.13,1.18,.32,1.89-.51Z"/>
        <path class="cls-160" d="M24.89,59.46c.2-1.04-.26-1.92-.39-2.88-.38,.75-1.07,1.41-1.1,2.25,.43,1.19,.98,.54,1.49,.63Z"/>
        <path class="cls-76" d="M27.58,60.96c.25-1.22-.51-2.44-.77-3.65-.46,.81-1.1,1.33-1.38,2.41,.63,1.22,1.35,1.69,2.15,1.24Z"/>
        <path class="cls-68" d="M30.63,62.99c.32-1.42-.56-2.85-.87-4.28-.51,.89-1.65,1.78-1.5,2.67,.54,.85,.9,1.94,2.37,1.61Z"/>
        <path class="cls-170" d="M31.21,63.39c.57,.8,1.2,1.43,2.11,1.36-.05-1.59-.76-2.34-1.15-3.51-.32,.71-1.29,1.27-.96,2.15Z"/>
        <path class="cls-60" d="M35.33,57.56c-.06-1.4-.5-2.43-.79-3.6l-.35,.63c-.31,.91-.66,1.81-.66,2.81,.94,.89,1.31,.37,1.8,.16Z"/>
        <path class="cls-150" d="M30.88,63.6c-1.18,4.92-.5,11.06-.25,16.08,.85,1.06,1.77,1.23,2.71,1.24l.05-15.66c-.66-.26-1.6-.41-2.51-1.66Z"/>
        <path class="cls-105" d="M27.89,61.82c-.97,5.23-.34,10.66-.52,15.99,1.05,1.74,1.96,1.77,2.77,1.33,.11-5.24-.53-10.34,.39-15.75-.67,.14-1.44-.04-2.64-1.57Z"/>
        <path class="cls-82" d="M25.1,59.88c-.77,5.4-.54,10.95-.42,16.34,.64,1.1,1.3,2.17,2.37,1.38,.15-5.36-.44-10.62,.44-16.08-.67-.16-1.21,.11-2.39-1.64Z"/>
        <path class="cls-102" d="M23.02,59.53c-.46,5.14-.49,10.37-.16,15.68,.88,1.36,1.05,1,1.47,1.08,.1-5.33-.08-11.17,.42-16.34-.68,.19-1.13-.05-1.73-.42Z"/>
        <path class="cls-49" d="M22.51,59.25c.24-1.82,.63-4.45,.53-6.6-.86,.81-1.09,.35-1.63,.51-.47,7.07-.03,14.44-.05,21.65,.14,1.12,.71,.62,1.19,.5-.22-.05-.51-10.59-.04-16.06Z"/>
        <path class="cls-156" d="M18.83,53.89c-1.06,5.87-.25,12.73-.21,18.94,.75,1.05,1.62,.84,2.36,.79l-.09-18.91c-.69-.25-1.37,.28-2.06-.82Z"/>
        <path class="cls-143" d="M18.06,53.54c-.85,.19-2.03-.37-2.36-1.38-.34,3.16-.14,6.79-.17,9.97-.03,4.43,.09,8.83,.09,8.83,.76,.54,.98,2.2,2.58,1.42-.05-6.19-.59-12.74-.14-18.84Z"/>
        <path class="cls-101" d="M15.46,52.28c-.88-.15-1.76,.32-2.65-.59-.77,5.89-.24,11.92-.32,17.88,.8,.75,1.66,1.24,2.71,1.15,0-.54-.12-4.49-.09-8.62,.14-3.26-.09-6.57,.35-9.82Z"/>
        <path class="cls-172" d="M10.94,50.52c-.26,2-.23,4.42-.23,6.79,0,5.48,.28,11.26,.28,11.26,.46,.51,.84,.73,1.15,.93,.12-5.98-.33-11.97,.37-17.95-.36-.04-1.46-.57-1.57-1.03Z"/>
        <path class="cls-108" d="M10.71,49.89c.07-.72,.29-.67,.35-1.29,.06-.65-.05-1.95,.19-2.69-.51,.31-1.28,.54-1.92,.09-.34,7.6,.12,14.88,.19,22.3,.29,.27,.55,.63,1.1,.31,0-.04-.19-5.74-.19-11.21,0-2.74,.23-5.34,.28-7.51Z"/>
        <path class="cls-132" d="M9.09,51.24c-.57-.19-1.14-.23-1.71-.84l-.39,15.26,2.18,2.11c-.03-5.51-.39-10.85-.08-16.53Z"/>
        <path class="cls-190" d="M4.92,49.51c-.68,5.75-.45,9.68-.67,14.51,.79,1.08,1.69,1.08,2.38,1.22l.35-14.79c-.68-.2-1.37-.11-2.06-.94Z"/>
        <path class="cls-89" d="M46.26,22.25l-.16,.16c-.91-.09-1.65-.23-2.39-.37l-2.15,1.28-.14-.04,2.08-1.29c-.5-.1-1.06-.22-1.62-.33l-5.96,3.23,4.37,.24,.12,.21-4.89-.24-.45,.24-.04-.24,.04-.02-.54-.02,.17-.24,.77,.05,6.09-3.26c-.15-.02-.27-.06-.43-.09l.22-.09c.14,.02,.25,.04,.39,.07l1.85-.99,.28,.1-1.78,.96c.55,.09,1.11,.19,1.62,.28l1.92-1.2,.14,.15-1.83,1.1c.73,.13,1.46,.24,2.32,.35Z"/>
        <path class="cls-55" d="M42.89,26.93l1.36,1.85-.14,.18-1.36-1.96c-.29,.17-.57,.33-.84,.51l.05-.16c.24-.15,.46-.31,.7-.47l-.35-.51,.07-.12,.42,.56c.51-.34,1-.71,1.5-1.08l.16,.17c-.48,.37-1.03,.71-1.57,1.03Z"/>
        <path class="cls-97" d="M55.86,28.54l-.07,.12c-1.26-.76-2.16-2.06-3.21-3.09l.12-.12c.95,.96,2.16,2.27,3.16,3.09Z"/>
        <path class="cls-151" d="M51.9,22.46l-3.39,1.94c.44,.44,.85,.9,1.26,1.38,.34-.18,.69-.35,1.03-.54l.17,.14-1.08,.56c.22,.26,.46,.53,.7,.78l-.21,.04c-.23-.24-.43-.5-.66-.75l-3.2,1.67,2.15,2.73,3.09-1.7-.51-.52,.16-.16,.51,.58,1.24-.68,.05,.17-1.17,.65,1.24,1.43v.09l-1.4-1.42-3.09,1.71,.68,.86-.12,.07-.7-.86-2.09,1.14-.04-.16,2.01-1.12-2.22-2.72-1.31,.68-.26-.05,1.47-.75-.65-.79,.19-.19,.67,.87c1.06-.55,2.11-1.11,3.16-1.67-.41-.46-.82-.92-1.26-1.35l-1.17,.68-.02-.17,1.07-.61c-.24-.23-.48-.47-.75-.68l.05-.18c.33,.22,.63,.48,.91,.75l3.4-1.95-1.06-.96,.05-.11,1.12,1,.4-.21v.12l-.3,.19,6.46,5.78-.07,.23-6.51-5.94Z"/>
      </g>
      <path class="cls-14" d="M4.57,49.35c-.54,5.04-.43,9.75-.65,14.63-.83,.3-1.3-.42-1.83-.94,.09-4.84-.57-9.34,.26-14.53l2.22,.84Z"/>
      <path class="cls-29" d="M2.03,48.48c-.67,4.95-.24,14.35-.24,14.44-.62,.11-1.02-.33-1.4-.84,0-8.28-.38-16.55,.02-24.83,.62,.21,1.11,.22,1.31-.21-.26,3.61,.86,7.57,.31,11.44Z"/>
      <path class="cls-36" d="M35.03,65.52c0,3.62-.1,12.12-.07,15.73-.7,.54-1.19,.67-1.29,0-.04-7.76-.19-15.69-.14-23.26,.83,.33,1.43,.26,1.83-.1-.13,1.98-.07,4.26-.4,6.16,.04,.33,.07,.79,.07,1.47Z"/>
      <path class="cls-4" d="M91.5,23.79c-.27,.45-.57,.94-1.64-.05,.17-1.39,.55-2.57,.82-3.86,.27,1.31,1.04,2.24,.82,3.91Z"/>
      <path class="cls-22" d="M89.4,33.76c-.05,1.15-.59,1.9-1.06,2.72,.13-1.5,.01-3.28,.7-4.78l.36,2.06Z"/>
      <path class="cls-38" d="M87.92,37.81c.06,1.41-.81,1.76-1.43,1.99l.59-3.65c.31,.52,.85,.75,.84,1.66Z"/>
      <path class="cls-23" d="M86.14,41.35c-.28,.7-.54,2.32-1.05,1.77-.71-1.2,.05-2.66,.21-4.02,.22,.7,1.03,1.3,.84,2.25Z"/>
      <path class="cls-25" d="M84.34,45.28c.03,.92-.36,1.47-1.03,1.78-.17-1.18-.03-2.36,.14-3.54,.29,.59,.88,1.08,.89,1.76Z"/>
      <path class="cls-27" d="M82.14,51.22c-.2-1.83,.12-3.48,.17-4.94,.24,.55,.69,.98,.7,1.69,.23,1.67-.44,2.58-.87,3.25Z"/>
      <path class="cls-18" d="M81.02,52.77c.01-.43,.01-2.27,.02-2.65l.63,1.64c.23,.95-.15,1.21-.65,1.01Z"/>
      <path class="cls-12" d="M80.71,49.51c-.78,.87-1.08,.22-1.54,.05-.06-1.47,.51-2.47,.77-3.7,.26,1.22,1.08,2.19,.77,3.65Z"/>
      <path class="cls-31" d="M91.32,46.99c.18,1.35-.06,2.27-1.2,2.31-.31-5.16-.29-10.53-.18-15.89,.06-3.05-.27-6.25-.21-9.24,.84,.62,1.42,.5,1.91,.16,.2,7.4,.85,15.01-.32,22.66Z"/>
      <path class="cls-37" d="M88.72,52.37c.32-5.14-.23-9.92-.31-14.82,.44-1.28,1.26-2.41,1.29-3.86-.32,5.55-.11,10.83,.09,16.13,.26,.73,.08,2.58-1.07,2.55Z"/>
      <path class="cls-43" d="M88.27,52.86c.42,1.04,.03,2.77-1.05,2.32,.22-4.26-.23-10.11-.49-14.94,.48-.71,1.28-.12,1.45-2.19,.26,4.88,.65,9.6,.09,14.81Z"/>
      <path class="cls-13" d="M86.77,55.72c.47,1.35-.36,2.77-.75,1.89-.3-4.41-.08-9.52-1.03-13.85,.44-.14,1.24-.35,1.36-1.97,.26,4.53,1.26,10.1,.42,13.93Z"/>
      <path class="cls-28" d="M84.6,60.79c-.16-4.55-.64-8.93-1.15-13.31,.84-.6,1.1-1.61,1.34-2.65,1.34,4.15,.62,9.43,.93,14,.42,.98-.56,1.9-1.12,1.96Z"/>
      <path class="cls-32" d="M83.57,64.02c-.42-4.17-.33-8.55-1.26-12.52,.37-1.03,1.05-1.8,.96-3.23,.75,3.94,1.01,8.1,.98,12.38,.11,1.33,0,3.1-.68,3.37Z"/>
      <path class="cls-42" d="M82.49,66.65c.11-4.5-.79-9.07-1.17-13.32,.54-.12,.65-.73,.66-1.45,1.38,3.65,.93,9.33,1.33,12.71,.09,1.29,.21,2.65-.82,2.06Z"/>
      <path class="cls-26" d="M82.12,67.79c.12,1.03,.14,5.11-1.1,3.61,.53-5.26,.32-11.68-.28-16.67,.04-.3,.34-.75,.42-1.17,.39,4.39,1.28,9.68,.96,14.23Z"/>
      <path class="cls-20" d="M80.76,71.91c-.25,1.45-.81,1.38-1.4,1.17-.06-7.68-.45-15.05-.19-23.05,.54,0,1.04,.59,1.66-.26,.04,1.08,.14,3.44-.4,4.92,.61,6,1,10.66,.33,17.22Z"/>
      <path class="cls-39" d="M71.21,58.9c-1.03,.98-2.17,1.29-3.46,.63l1.96-3.63c.5,1,1.47,1.72,1.5,3Z"/>
      <path class="cls-46" d="M78.75,57.31c-.41,.99-2.02,1-2.93,.82l1.22-3.56,1.71,2.74Z"/>
      <path class="cls-16" d="M75.1,58.22c-.97,1.18-2.02,1.3-3.16,.58l1.03-2.92,2.13,2.34Z"/>
      <path class="cls-41" d="M67.37,59.72c-.68,.67-1.88,.57-2.48,.3,.21-1.52,.67-2.52,1.01-3.79,.48,1.17,1.3,2.11,1.47,3.49Z"/>
      <path class="cls-24" d="M64.38,60.21c-.66,.55-1.89,1.42-3.14,.61-.18-1.37,1.12-2.73,1.69-4.1,.48,1.17,1.06,1.81,1.45,3.49Z"/>
      <path class="cls-15" d="M60.49,60.98c-.74,.64-1.47,1.3-2.97,.52,.07-1.35,.94-2.84,1.4-4.26,.53,1.24,1.58,2.23,1.57,3.74Z"/>
      <path class="cls-9" d="M57.12,61.59c-.79,.8-2.48,.71-3.27,.33,.25-1.59,.95-2.73,1.42-4.1,.64,1.25,1.52,2.3,1.85,3.77Z"/>
      <path class="cls-6" d="M53.14,61.68c-.64,.9-1.83,1.26-2.9,.61,.09-.75,.61-1.8,.94-2.71,.65,.68,1.31,.8,1.96,2.1Z"/>
      <path class="cls-17" d="M49.07,62.48c-.99,1.91-2.52,1.12-3.04,.8l1.61-3.05c.48,.75,.96,.77,1.43,2.25Z"/>
      <path class="cls-30" d="M45.49,63.25c-1.34,1.39-2.16,.8-3.09,.63,.25-1.05,1.2-2.1,1.92-3.16,.39,.85,1.23,1.42,1.17,2.53Z"/>
      <path class="cls-19" d="M42.03,64.07c-1.17,.58-2.73,1.22-3.47,.02,.21-.99,1.09-1.73,1.69-2.57,.6,.83,1.63,1.49,1.78,2.55Z"/>
      <path class="cls-7" d="M37.98,64.42c-.69,.84-1.56,.86-2.51,.49,.04-1.35,.8-1.81,1.2-2.71,.44,.74,1.45,1.31,1.31,2.22Z"/>
      <path class="cls-33" d="M78.96,73.44c-.72,.7-1.46,1.33-2.6,.77-.28-5.24-.82-10.34-.61-15.66,.97-.1,1.47,.59,3.14-.66-.43,5.18,.03,10.36,.07,15.55Z"/>
      <path class="cls-47" d="M75.87,74.13c-1.08,.65-2.12,1.61-3.44,.62,.16-5.07-1.39-9.6-.7-15.36,1.26,.27,2.5,.35,3.67-.66-.2,5.14,.18,10.27,.47,15.4Z"/>
      <path class="cls-8" d="M72.01,74.67c-1.04,.7-2.03,1.54-3.4,.99-.08-5.06,.16-9.9-.75-15.57,1.25,.21,2.42,.1,3.49-.56-.61,5.62,.85,9.96,.66,15.14Z"/>
      <path class="cls-44" d="M68.22,75.68c-.75,.59-1.53,1.12-2.79,.44-.18-5.2,.07-10.56-.58-15.61,.81,.04,1.63,.21,2.45-.32,.92,5.1,.82,10.3,.92,15.49Z"/>
      <path class="cls-35" d="M65.01,76.08c-1.43,1.59-2.43,.75-3.53,.46,.25-5.04,.24-10.11-.45-15.16,1.21,.16,2.35,.1,3.3-.77,.9,5,.47,10.31,.68,15.47Z"/>
      <path class="cls-5" d="M60.98,76.57c-1.04,1.29-2.09,1.25-3.13,.56,.76-5.47-.19-10.08-.35-15.09,1.02,0,2.11,.54,2.97-.57,.79,4.86,.93,9.9,.51,15.1Z"/>
      <path class="cls-11" d="M57.38,77.32c-1.08,.7-2.16,1.41-3.49,.51,.29-5.15,.27-10.34-.14-15.58,1.12,.43,2.24,.85,3.28-.15,.2,5.07,1.45,10.08,.35,15.22Z"/>
      <path class="cls-40" d="M53.33,77.97c-.98,.92-2.01,1.22-3.16,.4,.2-5.1-.04-10.59-.54-15.61,1.15,.22,2.63,.76,3.61-.42,.64,5.03,.85,10.34,.09,15.63Z"/>
      <path class="cls-45" d="M49.68,78.51c-1.2,1.77-2.14,.92-3.18,1.06-.02-5.35-.19-10.69-.68-15.87,1.17,.36,2.4,.18,3.39-.66,.97,4.9,.97,10.23,.47,15.47Z"/>
      <path class="cls-10" d="M46.17,79.52c-1.02,1.38-2.21,.94-3.4,.66,.36-5.23-.03-10.52-.25-15.66,1.01,.04,2.02-.01,2.95-.73,.43,5.19,.93,10.37,.7,15.73Z"/>
      <path class="cls-21" d="M42.35,80.1c-1.12,.87-2.33,1.32-3.37,.89-.12-5.32,.66-10.7-.23-16.22,1.13,.41,2.26,.13,3.39-.23,.11,5.19,.72,10.45,.21,15.56Z"/>
      <path class="cls-34" d="M38.66,80.71c-1.1,.78-2.19,1.32-3.38,.57,.03-5.26,.34-10.59,.05-15.76,.98,0,1.95,.07,2.93-.61,.92,5.47,.36,10.55,.4,15.8Z"/>
    </g>
  </g>
</svg>