<?xml version="1.0" encoding="UTF-8"?>
<svg id="Layer_2" data-name="Layer 2" xmlns="http://www.w3.org/2000/svg" xmlns:xlink="http://www.w3.org/1999/xlink" viewBox="0 0 71.33 60.51">
  <defs>
    <style>
      .cls-1 {
        fill: url(#linear-gradient-2);
      }

      .cls-2 {
        fill: url(#linear-gradient-17);
      }

      .cls-3 {
        fill: url(#linear-gradient-15);
      }

      .cls-4 {
        fill: url(#linear-gradient-18);
      }

      .cls-5 {
        fill: url(#linear-gradient-14);
      }

      .cls-6 {
        fill: url(#linear-gradient-20);
      }

      .cls-7 {
        fill: url(#linear-gradient-6);
      }

      .cls-8 {
        fill: url(#linear-gradient-11);
      }

      .cls-9 {
        fill: url(#linear-gradient-10);
      }

      .cls-10 {
        fill: url(#radial-gradient);
      }

      .cls-11 {
        fill: url(#linear-gradient-16);
      }

      .cls-12 {
        fill: url(#linear-gradient-21);
      }

      .cls-13 {
        fill: url(#linear-gradient-5);
      }

      .cls-14 {
        fill: url(#radial-gradient-2);
      }

      .cls-15 {
        fill: none;
      }

      .cls-16 {
        fill: url(#linear-gradient-7);
      }

      .cls-17 {
        fill: url(#linear-gradient-9);
      }

      .cls-18 {
        fill: url(#linear-gradient-3);
      }

      .cls-19 {
        fill: url(#linear-gradient);
      }

      .cls-20 {
        fill: url(#linear-gradient-19);
      }

      .cls-21 {
        fill: url(#linear-gradient-4);
      }

      .cls-22 {
        fill: url(#linear-gradient-8);
      }

      .cls-23 {
        fill: url(#linear-gradient-12);
      }

      .cls-24 {
        fill: url(#linear-gradient-13);
      }
    </style>
    <linearGradient id="linear-gradient" x1="56.82" y1="4.34" x2="7.1" y2="45.46" gradientUnits="userSpaceOnUse">
      <stop offset="0" stop-color="#302e2e"/>
      <stop offset="1" stop-color="#171717"/>
    </linearGradient>
    <linearGradient id="linear-gradient-2" x1="49.32" y1="19.93" x2="52.87" y2="19.93" gradientUnits="userSpaceOnUse">
      <stop offset="0" stop-color="#bdb4b0"/>
      <stop offset="1" stop-color="#737373"/>
    </linearGradient>
    <linearGradient id="linear-gradient-3" x1="39.28" y1="18.93" x2="42.7" y2="18.93" xlink:href="#linear-gradient-2"/>
    <linearGradient id="linear-gradient-4" x1="42.42" y1="10.94" x2="50.66" y2="10.94" xlink:href="#linear-gradient-2"/>
    <linearGradient id="linear-gradient-5" x1="64.3" y1="13.39" x2="14.59" y2="54.51" xlink:href="#linear-gradient"/>
    <radialGradient id="radial-gradient" cx="32.13" cy="37.61" fx="32.13" fy="37.61" r="31.87" gradientUnits="userSpaceOnUse">
      <stop offset="0" stop-color="#957254"/>
      <stop offset="1" stop-color="#453c2d"/>
    </radialGradient>
    <radialGradient id="radial-gradient-2" r="31.87" xlink:href="#radial-gradient"/>
    <linearGradient id="linear-gradient-6" x1="42.72" y1="37.84" x2="57.32" y2="37.84" gradientUnits="userSpaceOnUse">
      <stop offset="0" stop-color="#47372a"/>
      <stop offset=".42" stop-color="#4a3a2d"/>
      <stop offset=".82" stop-color="#544538"/>
      <stop offset="1" stop-color="#5c4e40"/>
    </linearGradient>
    <linearGradient id="linear-gradient-7" x1="30.13" y1="45.43" x2="36.08" y2="45.43" xlink:href="#linear-gradient-6"/>
    <linearGradient id="linear-gradient-8" x1="32.66" y1="28.46" x2="44.61" y2="28.46" xlink:href="#linear-gradient-6"/>
    <linearGradient id="linear-gradient-9" x1="17.3" y1="31.56" x2="32.38" y2="31.56" xlink:href="#linear-gradient-6"/>
    <linearGradient id="linear-gradient-10" x1="25.3" y1="36.91" x2="38.67" y2="36.91" xlink:href="#linear-gradient-6"/>
    <linearGradient id="linear-gradient-11" x1="13.18" y1="40.2" x2="29.88" y2="40.2" xlink:href="#linear-gradient-6"/>
    <linearGradient id="linear-gradient-12" x1=".3" y1="49.97" x2="4.86" y2="49.97" xlink:href="#linear-gradient-2"/>
    <linearGradient id="linear-gradient-13" x1="45.92" y1="55.75" x2="48.34" y2="55.75" xlink:href="#linear-gradient-2"/>
    <linearGradient id="linear-gradient-14" x1="31.39" y1="58.33" x2="35.8" y2="58.33" xlink:href="#linear-gradient-2"/>
    <linearGradient id="linear-gradient-15" x1="34.4" y1="46.55" x2="45.98" y2="46.55" xlink:href="#linear-gradient-2"/>
    <linearGradient id="linear-gradient-16" x1="67.56" y1="41.68" x2="70.61" y2="41.68" xlink:href="#linear-gradient-2"/>
    <linearGradient id="linear-gradient-17" x1="59.31" y1="31.12" x2="68.52" y2="31.12" xlink:href="#linear-gradient-2"/>
    <linearGradient id="linear-gradient-18" x1="3.01" y1="37.45" x2="12.95" y2="37.45" xlink:href="#linear-gradient-2"/>
    <linearGradient id="linear-gradient-19" x1="44.96" y1="-9.99" x2="-4.74" y2="31.12" xlink:href="#linear-gradient"/>
    <linearGradient id="linear-gradient-20" x1="19.03" y1="21.31" x2="21.71" y2="21.31" xlink:href="#linear-gradient-2"/>
    <linearGradient id="linear-gradient-21" x1="10.33" y1="14.39" x2="18.67" y2="14.39" xlink:href="#linear-gradient-2"/>
  </defs>
  <g id="Layer_2-2" data-name="Layer 2">
    <g>
      <path class="cls-15" d="M25.3,36.35l4.65,6,6.07-.57c-.09-1.72-.15-3.51,.57-5.14,.53-1.32,1.16-2.43,2.08-3.16l-6.09-2-7.28,4.88Z"/>
      <path class="cls-15" d="M35.37,50.31c0-.43,.03-.82,.06-1.19l-5.41-6.43-16.83,1.55c0,.79-.05,1.56-.25,2.27,4.48,4.75,12.4,7.96,21.22,7.98,.25-1.68,.76-2.97,1.21-4.18Z"/>
      <path class="cls-15" d="M41.53,32.55c.21,.14,.37,.31,.51,.49l2.57-9.47-11.95,7.81,6.24,1.97c.65-.38,1.66-.78,2.63-.79Z"/>
      <path class="cls-15" d="M58.91,34.88h-.04c-2.2-7.84-12.69-14.09-24.79-14.09-8.93,0-16.87,3.31-21.29,8.17,.03,.11,.06,.23,.09,.34v.02c.38,2.7,.6,5.43,.32,8.15-.37,1.67-.19,3.6-.08,5.5,.02,.36,.03,.72,.04,1.08l11.78-7.77-7.91-9.7,15.49,4.8,12.25-8.04-2.53,9.91c.05,.13,.42,1.32,.45,1.46l15.19,4.6-13.35,1.7c.19,.92,.31,1.85,.34,2.8,.2,2.99,.01,5.98,.32,8.96,0,0,0,.01,0,.02,7.33-2.39,12.76-7.07,13.9-12.67-.56-1.54-.39-3.48-.19-5.24Z"/>
      <path class="cls-15" d="M30.13,42.44l5.31,6.51c.18-1.96,.61-3.56,.64-5.82-.01-.4-.04-.81-.06-1.21l-5.9,.53Z"/>
      <path class="cls-15" d="M44.56,40.78l12.77-1.49-14.6-4.39c.12,.76,.21,1.52,.64,2.18,.42,1.16,.88,2.73,1.19,3.71Z"/>
      <polygon class="cls-15" points="29.88 42.54 25.13 36.34 13.18 44.07 29.88 42.54"/>
      <polygon class="cls-15" points="25.21 36.37 32.38 31.46 17.3 26.75 25.21 36.37"/>
      <path class="cls-19" d="M52.48,18.45l-.02-.02h-.02c-.35-.23-.73-.44-1.13-.55-.01-.37-.05-.84-.13-1.19-.63-1.29-1.17-2.64-1.71-3.97-.1-3.04-.33-8.2-1.96-11.03-.01-.02-.01-.03-.02-.05h-.02c-.18-.53-.4-.96-.7-1.23-.31-.29-.7-.44-1.08-.4-.75,.07-1.35,.8-1.55,1.93v.02c-.08,.49-.31,.79-.62,1.13-.32,.34-.71,.69-1.04,1.19l-.02,.04-.02,.06c-.2,.68-.26,2.03-.29,3.42-.03,1.38,0,2.74,0,3.35v.04c-.27,1.87-.44,3.77-.19,5.69-1.21-.02-2.12,.53-2.92,1.36-.18,.6,.19,.85,.53,1.25,.37,.67,.98,.88,1.69,1.11,.63-.03,1.26,0,1.89,0,.15,.16,.31,.31,.51,.46v.02c1.68,1.15,3.67,.9,5.43,.22,.17,.5,.46,.76,.96,1.01,1,.1,1.85-.16,2.65-.72,1.08-1.12,.78-2.17-.21-3.14Zm-11.2,1.93c-.71-.12-.8-.66-1.24-1.25-.23-.11-.6-.51-.76-.7,.66-.67,1.53-.95,2.5-.95,.08,0,.17,.02,.26,.02v.04h-.02c.09,.71,.18,1.34,.4,1.93,.08,.2,.17,.4,.28,.59-.47,.09-.96,.3-1.42,.32Zm7.7,.32c-1.67,.67-3.47,.9-4.97-.13-.56-.41-.84-.81-1.02-1.31-.19-.49-.27-1.08-.36-1.79v-.02c-.38-2.06-.19-4.12,.11-6.21v-.05c0-.61-.01-1.99,.02-3.37,.03-1.37,.13-2.74,.26-3.23,.28-.4,.62-.72,.95-1.08,.11-.12,.21-.25,.3-.38l.63,.95-.04,1.13-.51,.83v.02l.68-.66,.15-.95,1.04,.23,.02-.04-1-.53,.02-.07-.68-1.44c.07-.17,.13-.36,.17-.57,.16-.96,.61-1.38,1-1.41h0c.19-.02,.39,.05,.6,.24,.22,.2,.44,.51,.59,1v.04l.02,.04c1.51,2.57,1.8,7.84,1.91,10.87l-.63,1.25-.24,1.78-.95,.89,.04,.07,1.15-.47,.23,.4,.11-.04-.09-.47,.06-2.01,.51-.87c.47,1.17,.95,2.35,1.53,3.48,.09,.4,.08,.66,.06,.99-.57,.03-1.12,.34-1.52,1.02-.13,.61-.14,1.24-.15,1.87Zm3.46,.74c-.59,.49-1.55,.23-2.29,.28-.37-.11-.66-.32-.83-.62,0-.52,.31-1.5,.38-2.01,.34-.54,.71-.97,1.1-.96,.39,0,.82,.48,1.26,.77,.94,.72,1.06,1.63,.38,2.54Z"/>
      <path class="cls-1" d="M52.44,21.44c-.59,.49-1.55,.23-2.29,.28-.37-.11-.66-.32-.83-.62,0-.52,.31-1.5,.38-2.01,.34-.54,.71-.97,1.1-.96,.39,0,.82,.48,1.26,.77,.94,.72,1.06,1.63,.38,2.54Z"/>
      <path class="cls-18" d="M42.7,20.06c-.47,.09-.96,.3-1.42,.32-.71-.12-.8-.66-1.24-1.25-.23-.11-.6-.51-.76-.7,.66-.67,1.53-.95,2.5-.95,.08,0,.17,.02,.26,.02v.04h-.02c.09,.71,.18,1.34,.4,1.93,.08,.2,.17,.4,.28,.59Z"/>
      <path class="cls-21" d="M50.65,17.81c-.57,.03-1.12,.34-1.52,1.02-.13,.61-.14,1.24-.15,1.87-1.67,.67-3.47,.9-4.97-.13-.56-.41-.84-.81-1.02-1.31-.19-.49-.27-1.08-.36-1.79v-.02c-.38-2.06-.19-4.12,.11-6.21v-.05c0-.61-.01-1.99,.02-3.37,.03-1.37,.13-2.74,.26-3.23,.28-.4,.62-.72,.95-1.08,.11-.12,.21-.25,.3-.38l.63,.95-.04,1.13-.51,.83v.02l.68-.66,.15-.95,1.04,.23,.02-.04-1-.53,.02-.07-.68-1.44c.07-.17,.13-.36,.17-.57,.16-.96,.61-1.38,1-1.41h0c.19-.02,.39,.05,.6,.24,.22,.2,.44,.51,.59,1v.04l.02,.04c1.51,2.57,1.8,7.84,1.91,10.87l-.63,1.25-.24,1.78-.95,.89,.04,.07,1.15-.47,.23,.4,.11-.04-.09-.47,.06-2.01,.51-.87c.47,1.17,.95,2.35,1.53,3.48,.09,.4,.08,.66,.06,.99Z"/>
      <path class="cls-13" d="M70.73,40.05c-.6-.39-1.19-.38-1.79-.31,.23-1.31,.11-2.74-.22-3.95-.41-1.38-1.28-2.56-1.64-3.97-.27-2.2,.48-4.62,.59-6.92,.22-1.54,.24-2.78-.36-4.22l-.02-.04-.02-.02c-.9-1-1.84-1.59-2.76-1.55-1.19,.17-1.69,1.04-2.14,2.06-.82,1.72-1.74,3.38-2.46,5.15-.06,1.93,.24,3.85,.42,5.77-.13,.74-.74,1.48-1.17,2.15-2.39-7.79-12.67-13.65-24.93-13.65-9.11,0-17.07,3.23-21.56,8.09-.28-.83-.68-1.6-1.21-2.25v-.05l-.08-.04c-.49-.58-1.1-1.06-1.89-1.36l-.03-.02h-.04c-3-.21-3.49,3.24-3.69,5.58-.45,2.83-1.92,5.33-2.95,7.98-.25,2.97-.23,5.95-.02,8.92l.02,.04,.02,.04c.19,.52,.43,.93,.7,1.27l-1.76-.55c-1.04,.29-1.4,1-1.74,1.95-.01,.82,.56,1.21,1.17,1.64,1.59,.2,2.94-.4,4.26-1.21-.09-.3-.27-.58-.46-.83,.42,.14,.88,.23,1.42,.26,2.02-.12,3.86-.79,5.62-1.76h.04s.02-.05,.02-.05c.34-.39,.58-.83,.75-1.29,4.5,4.75,12.35,7.92,21.3,7.94-.05,.35-.08,.72-.1,1.1-.7,.07-1.21,.68-1.72,1.04-.84,.49-1.17,.76-1.36,1.64,.23,1.21,1.11,1.82,2.25,1.88,1.1,.01,2.31-.7,3.03-1.32,1.3,.38,2.71,.3,4.01,.81,1.22,.6,2.53,.49,3.83,.21,1.15-.41,2.1-1.3,2.5-2.67,.82-.1,1.59-.31,2.19-.85,.1-.63,.01-1.32-.03-1.97-.1-.33-.46-.34-.74-.45-.77,0-1.48-.05-2.23-.21-.13-.32-.26-.63-.4-.95,7.23-2.38,12.55-6.99,13.96-12.52,.37,.76,.95,1.39,1.85,1.82,1.89,.72,3.68,1.07,5.66,.62,.13-.08,.27-.15,.39-.24,.45,.48,.83,.7,1.48,.6,.91-.25,2,.1,2.64-1.06-.51-.6-1.06-1.19-.6-2.28ZM2.12,51.39c-.54,.2,.24-1.01,.3-1.11,.09-.16-.96,1.11-1.13,1.11-.43-.18-.78-.79-.99-1.13,.35-.72,.66-1.4,1.36-1.72,.6,.07,1.58,.54,2.1,.81,.57,.24,.77,.98,1.1,1.48-.75,.38-1.88,.24-2.74,.56Zm10.51-8.32c.11,1.85,.02,3.5-1,4.69-.66,.41-1.34,.81-2.04,1.14l-.95-.7-.32-.76-.26-1.78-.04-.07-.15,1.89,.05,.13-1.51,.13v.12l1.67,.07,.26,.53,.78,.63c-.9,.38-1.81,.66-2.75,.75-1.6,.07-2.31-1.3-3-2.59-.39-2.62-.4-6.08-.33-8.79,.35-1.04,.85-1.99,1.37-2.93-.26,.71-.49,1.4-.25,2.47h.17c-.2-1.39,.34-2.51,.7-3.65,.61-1.17,1.14-2.37,1.31-3.78v-.04c.11-1.99,.56-5.43,3.02-5.46,.54,.21,.98,.59,1.36,1.04l.78,3.27-.27,2.5-.77,3.38,.17,.06,.87-2.88,.74,2.22-.86,2.15,1.22-2-.89-3.41,.17-1.98-.27-1.91c.29,.62,.51,1.28,.68,1.93,.59,2.63,.69,5.33,.65,8.02-.36,1.89-.44,3.71-.31,5.61Zm.31,3.44c.19-.71,.25-1.48,.24-2.27l16.83-1.55,5.41,6.43c-.03,.38-.05,.77-.05,1.2-.45,1.21-.97,2.5-1.21,4.18-8.83-.02-16.74-3.23-21.22-7.99Zm25.73-13.03c-.92,.73-1.55,1.84-2.08,3.16-.71,1.63-.65,3.43-.56,5.15l-6.07,.56-4.66-5.99,7.29-4.88,6.08,2Zm-6.01-2.1l11.95-7.81-2.57,9.48c-.14-.18-.3-.35-.51-.49-.97,.01-1.98,.41-2.63,.79l-6.24-1.97Zm3.42,11.75c-.03,2.27-.46,3.87-.64,5.82l-5.31-6.5,5.9-.53c.02,.4,.04,.8,.05,1.21Zm-10.87-6.75l-7.91-9.63,15.08,4.71-7.17,4.92Zm4.67,6.16l-16.7,1.53,11.95-7.73,4.75,6.2Zm3.33,17.55c-.92,0-1.45-.59-1.82-1.34-.02-.45,.39-1.1,1.14-1.53,.44-.4,.93-.54,1.47-.64v.18c.15,.86,.71,1.43,1.27,2.05,.17,.09,.35,.15,.53,.22-.82,.49-1.63,1.01-2.59,1.06Zm14.9-5.56c.28,.33,.21,1.6,.23,2.06-.43,.44-1.18,.35-1.8,.44-.09-.87-.32-1.73-.62-2.55,.65,.2,1.46-.03,2.19,.05Zm-2.13,2.84c-.36,1.19-1.12,2.24-2.1,2.59-1,.35-2.23-.01-3.37-.47-.07-.04-.14-.08-.21-.12h1.48l2.21-1.07,.04-.14,1.15-.68-.06-.09-1.02,.43,.42-1.62-.13-.08-.59,2.01-2.12,.9h-.05l.15-1.3-.04-.06-.53,1.36-2.08-.03c-1.17-.22-2.41-.1-3.52-.69-.41-.29-.96-.75-1.21-1.56-.03-2.8,.91-4.53,1.55-6.26l.02-.06v-.04c.03-2.82,.41-4.32,.45-7.2-.04-.51-.07-1-.07-1.5l.06-.06h-.06c0-1.61,.24-3.18,.79-4.74,.1-.69,.31-1.25,.59-1.72-.16,.77-.25,1.62-.17,2.63l.13-.04c-.1-1.32,.59-2.45,.98-3.65,.64-.49,1.45-.82,2.39-1.1,.63,.49,.85,1.17,1.06,1.91,.12,.77,.55,1.76,1.06,2.5,.88,2.07,1.12,4.22,1.24,6.48,.21,3.01,.22,6.16,.5,9.16,1.11,1.17,1.03,3.11,1.06,4.31Zm-3.26-22.47l14.6,4.39-12.76,1.49c-.32-.97-.77-2.55-1.2-3.7-.43-.66-.52-1.42-.64-2.18Zm2.48,17.89v-.02c-.31-2.98-.13-5.97-.32-8.96-.03-.95-.16-1.88-.34-2.8l13.35-1.7-15.19-4.6c-.03-.13-.41-1.32-.45-1.45l2.53-9.91-12.25,8.03-15.49-4.8,7.91,9.7-11.79,7.78c-.01-.36-.01-.72-.03-1.08-.12-1.91-.3-3.83,.07-5.51,.28-2.71,.05-5.45-.32-8.15v-.02c-.03-.11-.06-.22-.1-.34,4.43-4.86,12.37-8.17,21.3-8.17,12.1,0,22.59,6.26,24.79,14.09h.04c-.2,1.77-.36,3.7,.19,5.24-1.14,5.6-6.57,10.29-13.9,12.67Zm21.5-9.98c-1.33,.5-2.84,.07-4.23-.36l1.87,.04,3.08-1.12,.63-1.53h-.02l-.7,1.25-3.13,1.15-2.89-.15c-2.45-1.08-2.09-5.14-1.78-7.4,.38-.56,.65-1.14,.86-1.75,.65-.55,1.24-1.06,1.7-2.16l-.1,.02c-.01,.62-.82,.93-1.38,1.34-.12-1.9-.36-3.91-.32-5.8,.65-1.77,1.86-3.2,2.65-4.96v-.04c.28-.93,.82-1.83,1.66-2.13,.06-.01,.13,.02,.19,.03l-1.17,2.25,.13,1.99,.11,.06,.12-1.97,1.17-2.19c.5,.3,1.04,.96,1.64,1.62,.71,1.25,.34,2.53,.27,3.88-.22,2.31-.47,4.58-.32,6.9,.3,1.18,.75,2.32,1.16,3.46l-.72,2.2-1.55,2.59-.97,.22,.02,.02,.89-.07,1.93-2.65v-.06s.58-1.7,.58-1.7c.02,.06,.04,.11,.06,.17,.67,2.39,.61,5.35-1.44,6.85Zm1.84,.39c-.46,.12-.66-.4-.98-.71,.62-.6,1.03-1.35,1.26-2.18v-.02c.2-.09,.4-.12,.57-.13,.35-.01,.63,.15,.83,.43,.07,.46-.3,.77,.38,1.42,.1,.93-1.29,.92-2.06,1.19Z"/>
      <path class="cls-10" d="M35.42,49.12c-.03,.38-.05,.77-.05,1.2-.45,1.21-.97,2.5-1.21,4.18-8.83-.02-16.74-3.23-21.22-7.99,.19-.71,.25-1.48,.24-2.27l16.83-1.55,5.41,6.43Z"/>
      <path class="cls-14" d="M59.1,40.12c-1.14,5.6-6.57,10.29-13.9,12.67v-.02c-.31-2.98-.13-5.97-.32-8.96-.03-.95-.16-1.88-.34-2.8l13.35-1.7-15.19-4.6c-.03-.13-.41-1.32-.45-1.45l2.53-9.91-12.25,8.03-15.49-4.8,7.91,9.7-11.79,7.78c-.01-.36-.01-.72-.03-1.08-.12-1.91-.3-3.83,.07-5.51,.28-2.71,.05-5.45-.32-8.15v-.02c-.03-.11-.06-.22-.1-.34,4.43-4.86,12.37-8.17,21.3-8.17,12.1,0,22.59,6.26,24.79,14.09h.04c-.2,1.77-.36,3.7,.19,5.24Z"/>
      <g>
        <path class="cls-7" d="M57.32,39.29l-12.76,1.49c-.32-.97-.77-2.55-1.2-3.7-.43-.66-.52-1.42-.64-2.18l14.6,4.39Z"/>
        <path class="cls-16" d="M36.08,43.13c-.03,2.27-.46,3.87-.64,5.82l-5.31-6.5,5.9-.53c.02,.4,.04,.8,.05,1.21Z"/>
        <path class="cls-22" d="M44.61,23.57l-2.57,9.48c-.14-.18-.3-.35-.51-.49-.97,.01-1.98,.41-2.63,.79l-6.24-1.97,11.95-7.81Z"/>
        <polygon class="cls-17" points="32.38 31.46 25.21 36.38 17.3 26.75 32.38 31.46"/>
        <path class="cls-9" d="M38.67,33.48c-.92,.73-1.55,1.84-2.08,3.16-.71,1.63-.65,3.43-.56,5.15l-6.07,.56-4.66-5.99,7.29-4.88,6.08,2Z"/>
        <polygon class="cls-8" points="29.88 42.54 13.18 44.07 25.13 36.34 29.88 42.54"/>
      </g>
      <path class="cls-23" d="M4.86,50.83c-.75,.38-1.88,.24-2.74,.56-.54,.2,.24-1.01,.3-1.11,.09-.16-.96,1.11-1.13,1.11-.43-.18-.78-.79-.99-1.13,.35-.72,.66-1.4,1.36-1.72,.6,.07,1.58,.54,2.1,.81,.57,.24,.77,.98,1.1,1.48Z"/>
      <path class="cls-24" d="M48.34,56.59c-.43,.44-1.18,.35-1.8,.44-.09-.87-.32-1.73-.62-2.55,.65,.2,1.46-.03,2.19,.05,.28,.33,.21,1.6,.23,2.06Z"/>
      <path class="cls-5" d="M35.8,59.03c-.82,.49-1.63,1.01-2.59,1.06-.92,0-1.45-.59-1.82-1.34-.02-.45,.39-1.1,1.14-1.53,.44-.4,.93-.54,1.47-.64v.18c.15,.86,.71,1.43,1.27,2.05,.17,.09,.35,.15,.53,.22Z"/>
      <path class="cls-3" d="M45.98,57.37c-.36,1.19-1.12,2.24-2.1,2.59-1,.35-2.23-.01-3.37-.47-.07-.04-.14-.08-.21-.12h1.48l2.21-1.07,.04-.14,1.15-.68-.06-.09-1.02,.43,.42-1.62-.13-.08-.59,2.01-2.12,.9h-.05l.15-1.3-.04-.06-.53,1.36-2.08-.03c-1.17-.22-2.41-.1-3.52-.69-.41-.29-.96-.75-1.21-1.56-.03-2.8,.91-4.53,1.55-6.26l.02-.06v-.04c.03-2.82,.41-4.32,.45-7.2-.04-.51-.07-1-.07-1.5l.06-.06h-.06c0-1.61,.24-3.18,.79-4.74,.1-.69,.31-1.25,.59-1.72-.16,.77-.25,1.62-.17,2.63l.13-.04c-.1-1.32,.59-2.45,.98-3.65,.64-.49,1.45-.82,2.39-1.1,.63,.49,.85,1.17,1.06,1.91,.12,.77,.55,1.76,1.06,2.5,.88,2.07,1.12,4.22,1.24,6.48,.21,3.01,.22,6.16,.5,9.16,1.11,1.17,1.03,3.11,1.06,4.31Z"/>
      <path class="cls-11" d="M70.6,42.01c.1,.93-1.29,.92-2.06,1.19-.46,.12-.66-.4-.98-.71,.62-.6,1.03-1.35,1.26-2.18v-.02c.2-.09,.4-.12,.57-.13,.35-.01,.63,.15,.83,.43,.07,.46-.3,.77,.38,1.42Z"/>
      <path class="cls-2" d="M66.7,42.81c-1.33,.5-2.84,.07-4.23-.36l1.87,.04,3.08-1.12,.63-1.53h-.02l-.7,1.25-3.13,1.15-2.89-.15c-2.45-1.08-2.09-5.14-1.78-7.4,.38-.56,.65-1.14,.86-1.75,.65-.55,1.24-1.06,1.7-2.16l-.1,.02c-.01,.62-.82,.93-1.38,1.34-.12-1.9-.36-3.91-.32-5.8,.65-1.77,1.86-3.2,2.65-4.96v-.04c.28-.93,.82-1.83,1.66-2.13,.06-.01,.13,.02,.19,.03l-1.17,2.25,.13,1.99,.11,.06,.12-1.97,1.17-2.19c.5,.3,1.04,.96,1.64,1.62,.71,1.25,.34,2.53,.27,3.88-.22,2.31-.47,4.58-.32,6.9,.3,1.18,.75,2.32,1.16,3.46l-.72,2.2-1.55,2.59-.97,.22,.02,.02,.89-.07,1.93-2.65v-.06s.58-1.7,.58-1.7c.02,.06,.04,.11,.06,.17,.67,2.39,.61,5.35-1.44,6.85Z"/>
      <path class="cls-4" d="M12.63,43.07c.11,1.85,.02,3.5-1,4.69-.66,.41-1.34,.81-2.04,1.14l-.95-.7-.32-.76-.26-1.78-.04-.07-.15,1.89,.05,.13-1.51,.13v.12l1.67,.07,.26,.53,.78,.63c-.9,.38-1.81,.66-2.75,.75-1.6,.07-2.31-1.3-3-2.59-.39-2.62-.4-6.08-.33-8.79,.35-1.04,.85-1.99,1.37-2.93-.26,.71-.49,1.4-.25,2.47h.17c-.2-1.39,.34-2.51,.7-3.65,.61-1.17,1.14-2.37,1.31-3.78v-.04c.11-1.99,.56-5.43,3.02-5.46,.54,.21,.98,.59,1.36,1.04l.78,3.27-.27,2.5-.77,3.38,.17,.06,.87-2.88,.74,2.22-.86,2.15,1.22-2-.89-3.41,.17-1.98-.27-1.91c.29,.62,.51,1.28,.68,1.93,.59,2.63,.69,5.33,.65,8.02-.36,1.89-.44,3.71-.31,5.61Z"/>
      <path class="cls-20" d="M20.99,19.94c-.62-.34-1.17-.23-1.79-.05-.01-.11,0-.21,0-.31v-.02h0c.24-1.79-.48-2.82-1.2-4.33-.83-1.94-.3-4.58-.3-6.82-.6-2.12-1.25-4.45-3.48-5.19-2.75-.02-3.3,3.23-3.59,5.53-.34,2.17,.83,4.43,.51,6.6-.87,1.56-1.44,3.32-1.42,5.05v.05c.53,1.73,1.23,3.32,2.33,4.75,2.19,.71,4.12-.19,6.05-1.23h.02v-.02c.35-.33,.57-.71,.74-1.11,.47,.04,1.04,.16,1.64-.12v.02c.64-.18,1.33-.24,1.68-1-.31-.66-.74-1.23-1.19-1.8Zm-3.06,3.67c-1.71,1.18-3.55,1.81-5.64,1.55-.54-.87-.31-1.28-.41-1.89l.75-1.28-.13-.16-.87,1.42-.02,.99c-.77-1.25-.76-2.51-1.28-3.9-.02-1.43,.16-2.97,.71-4.27l-.07,1.68,.81,1.04,.08-.08-.7-.92,.21-2.37s.01-.07,.01-.11v-.09l.93-.97,.02-.19-.91,.8c.15-1.99-.17-4-.19-6v-.06c.27-1.46,.61-3.85,1.88-4.82l-.21,.98,.15,.1,.45-1.31c.2-.09,.41-.16,.65-.18,1.99,.5,2.37,3.19,2.95,4.89-.01,1.41-.15,2.9,0,4.37l.09,3.56,.57,1.53-1.29,3.54h.06l1.1-2.42-.14,.68-.19,2.11-1.26,2.41h.11l1.51-2.22,.12-2.23,.32-1.81v-.04l-.66-1.61,.07-1.63c.05,.16,.09,.31,.15,.46,.75,1.38,1.05,2.77,.95,4.33,.17,1.43-.01,2.86-.68,4.12Zm2.31-1.1c-.4,.19-.8-.13-1.21-.24,.13-.59,.17-1.21,.17-1.84,.34-.17,.85-.34,1.26-.37,.16-.02,.3-.01,.42,.02,.33,.38,.59,1.29,.83,1.72-.26,.23-1.01,.54-1.47,.71Z"/>
      <path class="cls-6" d="M21.71,21.8c-.26,.23-1.01,.54-1.47,.71-.4,.19-.8-.13-1.21-.24,.13-.59,.17-1.21,.17-1.84,.34-.17,.85-.34,1.26-.37,.16-.02,.3-.01,.42,.02,.33,.38,.59,1.29,.83,1.72Z"/>
      <path class="cls-12" d="M17.93,23.61c-1.71,1.18-3.55,1.81-5.64,1.55-.54-.87-.31-1.28-.41-1.89l.75-1.28-.13-.16-.87,1.42-.02,.99c-.77-1.25-.76-2.51-1.28-3.9-.02-1.43,.16-2.97,.71-4.27l-.07,1.68,.81,1.04,.08-.08-.7-.92,.21-2.37s.01-.07,.01-.11v-.09l.93-.97,.02-.19-.91,.8c.15-1.99-.17-4-.19-6v-.06c.27-1.46,.61-3.85,1.88-4.82l-.21,.98,.15,.1,.45-1.31c.2-.09,.41-.16,.65-.18,1.99,.5,2.37,3.19,2.95,4.89-.01,1.41-.15,2.9,0,4.37l.09,3.56,.57,1.53-1.29,3.54h.06l1.1-2.42-.14,.68-.19,2.11-1.26,2.41h.11l1.51-2.22,.12-2.23,.32-1.81v-.04l-.66-1.61,.07-1.63c.05,.16,.09,.31,.15,.46,.75,1.38,1.05,2.77,.95,4.33,.17,1.43-.01,2.86-.68,4.12Z"/>
    </g>
  </g>
</svg>