<?xml version="1.0" encoding="UTF-8"?>
<svg id="Layer_2" data-name="Layer 2" xmlns="http://www.w3.org/2000/svg" viewBox="0 0 92.26 82.03">
  <defs>
    <style>
      .cls-1 {
        fill: #4a2412;
        fill-rule: evenodd;
      }
    </style>
  </defs>
  <g id="Layer_2-2" data-name="Layer 2">
    <g id="layer1">
      <path id="path2316" class="cls-1" d="M56.44,0l-.97,4.48,.02,5.24-1.6-2.16-1.49,3.59-.3,.12-2.01-2.79-1.57,3.21-1.83-2.88-1.92,3.65-1.85-3.28-1.4,3.74-1.61-3.51-1.99,4.45-2.04-3.79-1.64,4.14-1.97-3.46-1.8,4.14-1.78-3.23-1.87,4-1.52-2.71-2.32,3.18-1.57-2.57-2.17,3.37-1.81-2.36-2.18,2.55-1.27-1.9-1.49,1.99c.01-1.75,.01-3.5,.19-5.24,0-1.63-.76-3.19-1.1-4.82h-.12s-1.1,4.26-1.1,4.26v.07c-.37,3.08,.03,6.16,.04,9.24l-1-1.94-.73,5.52-1.03-1.36-.75,4.05v.02s.02,.73,.02,.73l-1.52-2.27-.19,6.83-1.55-1.66h-.02l.16,4.07-1.31-1.9-.23,2.74-1.15-3.16-.1-.05L.08,36.8c-.23,8.48,.08,16.96,.12,25.44,.53,.5,1.05,1.13,1.64,1.03,.63,.59,1.3,1.09,2.17,1.12,.71,.6,1.54,1.05,2.55,1.22l2.6,2.41c.41,1.27,1.11,1.03,1.78,.94,.4,.47,1.03,.94,1.43,.89,1.02,1.24,1.82,.97,2.83,1.45,.83,.85,1.43,1.97,3.16,1.76,.7,.84,1.49,1.53,2.62,1.42,.09,.67-.31,1.55,1.71,1.39,.47,.52,.95,.99,1.69,.73,.5,.79,1.62,1.85,2.71,1.66,.98,1.54,1.96,1.45,3.11,1.41,.85,1,1.85,1.71,3.14,1.69,.05,.8,1.19,.89,1.71,.35,1.2,.04,2.39,.33,3.58-.35,1.33,.1,2.67,.33,4-.82,1.14,.21,2.21,.62,3.77-.49,1.23-.15,2.6,.22,3.51-1.12,1.34,.28,2.66,.57,3.74-.58,1.38,.64,2.69,.14,3.98-.68,1.37,.7,2.54,.24,3.65-.52,1.43,.42,2.61,.39,3.96-.65,1,.04,1.83,.52,3.23-.4,1.84,.36,2.81-.28,3.82-.85,1.49,.6,2.71,.12,3.86-.65,1.11,.25,2.13,.24,2.81-.7,.76-.36,1.88-.35,2.15-1.85,1.01,.49,1.99-2.55,1.26-4.7,1.01,.39,1.66-1.19,1.26-2.53,1.14-.98,1.2-2.1,.94-3.25,1.55-1.41,1.48-2.06,1.43-3.14,1.46-.61,1.25-1.7,1.22-2.53,1.17-.27,1.71-1.54,1.57-2.97,1.16-.73,1.39-1.88,1.59-3.04,1.09-.29,1.33-1.5,1.29-3.02,1-7.72,.49-15.37,.26-23.24l-1.15-4.24-.09-.07-1.17,4.4,.02,2.83-.89,.66-1.29-3.46-1.87,2.53h-.02l-.05-.02-1.31-4.54c-.58,.86-.99,1.77-1.29,2.76-.28-1.23-1.34-2.8-1.57-4.28l-1.83,2.76-1.4-4.05-1.29,2.01-1.59-3.63-1.54,1.94-1.12-3.77-1.57,1.92-1.01-2.97-1.1,1.78-1.1-3.68-1.36,2.72-1.26-4.05-1.4,2.32-1.01-4.4-1.9,2.88-1.24-4.24-1.94,2.46c.02-1.88-.04-3.8,.3-5.64L56.68,.04s-.25-.04-.25-.04Zm1.18,4.49c-.55,.52-1.1,1-1.86,.16l.8-4.18,1.06,4.02Zm-.24,5.29c.09,.4-.16,.92-.11,1.32,.61,4.79-.29,9.79-.02,14.69l-1.3-1.19-.15-13.62-.06-5.96c.41,.11,1.29,.64,1.7-.04-.13,1.6-.03,3.31-.06,4.8ZM12.4,11.83c-.66,.81-1.19,.29-1.75-.02l.88-3.98s.87,4,.87,4Zm47.82,.35c-.94,.19-1.78-.56-2.6-1.61l1.83-2.5c.26,1.37,1.04,2.62,.77,4.12Zm-4.61-1.23c-.63,.31-1.81,.96-2.74,.47l1.04-3.42s1.71,2.94,1.71,2.94Zm7.68,2.58c-.59,.04-2.06,0-2.41-1.15l1.8-2.93,.61,4.07Zm-11.5-1.81c-.79,1.03-1.91,.44-2.89,.52l1.18-3.33,1.71,2.81Zm-3.45,.81c-1.03,.42-2,1.24-3.24,.26l1.48-3.68,1.76,3.42Zm-3.76,.45c-.59,.9-2.42,.71-3.01,.44l1.47-3.62,1.55,3.18Zm15.74-.27c.3,4.96-.5,9.92-.77,14.89l-1.92-1.71c.04-4.91,.47-9.77-.02-14.79,.9,1.08,1.81,1.4,2.71,1.61Zm-18.93,.76c-.55,.96-2.56,1.11-3.31,1.2l1.75-4.91s1.56,3.71,1.56,3.71Zm14.18,10.68l-2.54-2.11c-.05-3.41-.56-6.92-.13-10.23,.84,.32,1.86,.05,2.6-.48,0,0,.07,12.83,.07,12.83Zm-18.08-9.74c-1.01,1.08-1.93,.94-2.83,.44l1.28-4.32s1.55,3.89,1.55,3.89Zm15.22,7.35l-1.57-1.31-2.2-.14c-.1-2.54-.12-5.17-.32-7.61,1.28-.15,2.69,.61,3.78-.77-.27,3.18,.19,6.55,.3,9.83ZM12.31,12.3c.19,1.85,0,3.83-.31,5.71,.83,5.23-.13,11.25,0,16.66-.05,.99-.16,1.8-.85,1.22-.27-4.79-.54-9.6-.4-14.39,0-3.08-.97-6.31,0-9.22,.46,.14,.79,.48,1.55,.02Zm21.94,2.79c-1.21,.44-2.46,1.15-3.46,.07l1.54-3.96s1.93,3.89,1.93,3.89Zm31.61,.2c-.88,.15-1.62-.23-2.25-1.08l1.29-2.41,.96,3.49Zm-2.95-1.24c.3,5.18-.27,10.36-.96,15.54-.7,.04-1.4,.08-1.73-1.1l.33-.14-.58-.49c.28-4.98,1.03-9.96,.84-14.93,.67,.58,1.32,1.37,2.11,1.12Zm-14.32,6.23l-3.43-.25c-.12-2.2,.2-4.62-.35-6.6,1.13,.04,2.25,.14,3.38-.44,.55,2.46,.27,4.93,.4,7.29Zm-18.28-4.84c-.72,.64-2.51,1.27-3.23,.55l1.54-3.82s1.69,3.27,1.69,3.27Zm14.46,4.58l-1.17-.09-1.5,.73c.36-2.29-.16-4.57-.28-6.86,.83-.05,1.74,.55,2.48-.26,1.1,2.52,.31,4.32,.47,6.48Zm-3.02,.77l-3.69,1.82c.1-2.92-.18-5.07-.27-7.59,1.2-.39,2.4,.43,3.61-1.18,.15,2.32,.69,4.73,.36,6.96Zm26.49-3.95c-.77,.04-1.55,.11-1.83-.94,.05-1.11,.61-1.83,1.15-2.57,.34,1.11,1.02,2.06,.68,3.51Zm-41.91-.61c-.7,.74-2.25,.68-3.05,.37,.42-.99,1.23-2.17,1.84-3.26,.42,.96,1.36,1.74,1.21,2.89Zm39.24-.4c-.25,4.99,0,10.17-.82,14.93-.95,.04-1.9,.06-2.36-1.12,.55-5.13,1.05-10.25,.87-15.38,.72,.89,1.47,1.55,2.32,1.57Zm-42.85,1c-.59,.73-2.62,.73-3.42,.64l2-3.5s1.41,2.86,1.41,2.86Zm15.03,5.95l-3.04,1.47c.39-3.13-.13-5.89-.21-8.82,1,.39,2,.14,3-.42,.1,2.58,.64,4.99,.26,7.77Zm-3.33,1.59l-3.57,1.76c.38-3.46,.03-6.93-.07-10.39,1.31,.59,2.31,.15,3.31-.3,.08,3.04,.72,5.7,.33,8.93Zm-15.51-7.02c-.7,.78-2.7,.81-3.62,.43l2.09-2.91s1.54,2.49,1.54,2.49Zm11.74,8.1c-.02,.16-.39,.28-.39,.44,.01,.71-.05,1.11-.02,1.83,0,.16,.65,.32,.66,.48,.05,1.03-.06,2.22-.03,3.16-.92,.76-2.48,1.12-3.4,.61,.08-5.1,0-10.22-.67-15.42,1.18-.08,2.48,.83,3.47-.78,.2,3.13,.82,6.23,.38,9.67Zm39.82-7.07c-.71,.37-1.73-.54-1.94-1.15l1.24-2.27s.7,3.42,.7,3.42Zm-2.32-.98c-.3,5.05,.08,10.1-.89,15.14-.98,.27-1.58-.61-2.2-1.43,.85-4.86,.63-10.15,.91-15.24,.54,1.44,1.41,1.23,2.18,1.52Zm4.92,1.87c-.94,.99-1.54-.4-2.25-1.01l1.47-2.34c.26,1.11,.74,1.78,.77,3.35Zm-57.97-1.5c-.78,.58-1.51,1.46-2.64,.26l1.45-2.42s1.19,2.16,1.19,2.16Zm11.84,14.19c-.86,1.15-2.01,.83-3.06,1.01,.1-5.29,.07-10.58-.66-15.87,1.15,.14,2.37,.46,3.11-.42,.75,5.03,.81,10.14,.61,15.28Zm-3.49,.98c-1.64,1.81-2.46,.65-3.63,.77,.1-5.38,.09-10.72-.33-15.89,1.45,.46,2.4,0,3.21-.7,1.19,5.15,1.13,10.46,.74,15.82Zm47.04-14.14l-.91,15.05c-.62,.08-1.2,.74-1.94-.94,.91-4.93,.55-10.42,.8-15.35,.63,1.08,1.31,1.53,2.06,1.24Zm-51.02,14.75c-1.41,1.3-2.58,.87-3.79,.63,.13-5.37,.25-10.73-.23-15.99,1.21-.08,2.43,.43,3.65-.41,.54,5.2,.56,10.47,.37,15.77Zm-4.1,.51c-.69,1.2-1.75,1.14-2.97,.54,0-5.24,.53-10.6,.07-15.85,.84,0,1.67,.32,2.51-.47,.91,5.19,.61,10.48,.4,15.78Zm61.04-12.52c-.71,.01-2.43-1.04-2.76-1.78l1.45-2.15c.44,1.3,.99,1.93,1.31,3.93Zm-3.11-1.57c.25,5.42-.43,10.38-.66,15.56-.92,.25-1.82,.15-2.62-1.45l.94-15.12c.72,.55,1.38,1.29,2.34,1.01Zm-62.98,1.59c-.25,.88-.04,2.41-1.17,2.13l.37-4.05s.79,1.92,.79,1.92Zm81.19,2.22c-.27,.45-.58,.94-1.64-.05,.17-1.4,.54-2.57,.82-3.86,.27,1.31,1.03,2.24,.82,3.91Zm-12.52-.63c-.95,.34-1.73-.1-2.06-1.5l1.01-2.2,1.05,3.7Zm-2.83-1.29c-.18,5.09-.87,10.19-.49,15.28-.97,.44-1.88,.39-2.6-1.52,.2-5.16,.93-10.33,.61-15.49,.69,1.35,1.55,1.75,2.48,1.73Zm-25.75-1.05l-10.51,5.64-8.78-.28,12.55-5.99,6.74,.63Zm-8.66,.68c-.14-.02-.25-.05-.4-.07l-.21,.09c.16,.03,.27,.07,.42,.09l-6.09,3.25-.77-.05-.16,.23,.54,.02-.05,.02,.05,.23,.44-.23,4.89,.23-.12-.21-4.38-.23,5.97-3.23c.55,.11,1.11,.23,1.61,.33l-2.08,1.29,.14,.05,2.15-1.29c.74,.15,1.48,.28,2.39,.37l.16-.16c-.86-.11-1.59-.22-2.32-.35l1.83-1.1-.14-.14-1.92,1.19c-.51-.09-1.06-.18-1.61-.28l1.78-.96-.28-.09s-1.85,.98-1.85,.98Zm18.33,6.88l-13.11,5.78-6.67-7.47,10.65-5.8h.12s9.01,7.49,9.01,7.49Zm22.26-3.46c-1.04,.25-2.5-.42-2.93-1.29l1.71-2.76c.41,1.35,1.33,2.44,1.22,4.05Zm-31.57-3.51l1.05,.96-3.39,1.94c-.28-.27-.58-.53-.91-.75l-.05,.19c.27,.21,.51,.45,.75,.68l-1.08,.61,.02,.16,1.17-.68c.44,.43,.85,.89,1.26,1.36-1.05,.56-2.1,1.12-3.16,1.66l-.68-.87-.19,.19,.66,.8c-.49,.25-.98,.5-1.47,.75l.26,.05,1.31-.68,2.22,2.71-2.01,1.12,.05,.16,2.08-1.15,.7,.87,.12-.07-.68-.87,3.09-1.71,1.4,1.43v-.09s-1.24-1.43-1.24-1.43l1.17-.66-.05-.16-1.24,.68-.51-.59-.16,.16,.51,.52-3.09,1.71-2.15-2.74,3.21-1.66c.22,.25,.43,.5,.66,.75l.21-.05c-.24-.25-.48-.51-.7-.77l1.08-.56-.16-.14c-.34,.18-.69,.36-1.03,.54-.41-.48-.82-.94-1.26-1.38l3.39-1.94,6.51,5.94,.07-.23-6.46-5.78,.3-.19v-.12s-.4,.21-.4,.21l-1.12-1.01s-.05,.12-.05,.12ZM10.71,36.4c-.35,1.18,.95,3.07-1.21,3.49-.07-5.1-.6-10.02-.19-15.31,.47-.52,1.03-.86,1.09-2.29-.2,4.78,.11,9.44,.31,14.11Zm67.92-12.76l.02,.02,.05,.02c-.12,5.13-.81,10.25-.35,15.38-.83-.18-1.68-.26-2.39-1.52-.54-5.34,.35-10.26,.58-15.38,.53,1.4,1.31,1.41,2.08,1.47Zm6.27,2.57c-1.02,.01-1.57-.44-1.97-1.05,.26-.64,.8-2.31,1.01-2.97l.96,4.03Zm-76.32-1.36c0,1.17-.26,2.29-1.41,2.41l.64-3.67,.77,1.26Zm73.44,.47c-1.34,5.34-.84,10.22-1.26,15.33-1.02,.48-1.53-.41-2.06-1.26-.37-5.27,.33-10.32,.52-15.47,.82,.93,1.62,1.93,2.81,1.4Zm9.62-1.01c.2,7.4,.85,15.01-.33,22.66,.18,1.36-.06,2.28-1.19,2.32-.32-5.17-.29-10.53-.19-15.89,.06-3.05-.26-6.25-.21-9.25,.85,.63,1.42,.5,1.92,.16Zm-3.58,3.91c-.82,.05-2.17-.1-2.39-1.5l1.66-2.48c.22,1.21,1.19,2.42,.73,3.98Zm-35.48-2.67c1.05,1.03,1.95,2.33,3.21,3.09l.07-.12c-1-.82-2.21-2.13-3.16-3.09l-.12,.12ZM9.21,40.48c.11,1.26,.08,2.38-1.17,2.18-.18-4.76-.19-10.2-.75-14.58,.88-.58,1.45-1.41,1.48-2.62-.06,4.91,.29,10.02,.44,15.03Zm75.53-13.79c-.7,5.22-.58,10.44-.87,15.66-.95-.31-1.98,.13-2.69-1.55,.43-5.16,.06-10.31,1.29-15.47,.65,.83,1.37,1.4,2.27,1.36Zm-41.94,.12l-.42-.56-.07,.12,.35,.51c-.23,.16-.46,.32-.7,.47l-.05,.16c.27-.18,.56-.34,.84-.51l1.36,1.97,.14-.19-1.36-1.85c.54-.32,1.09-.66,1.57-1.03l-.16-.16c-.49,.37-.99,.73-1.5,1.08Zm-35.83,1.8c-.2,1.29-.24,2.82-1.36,2.78l.09-5.17s1.27,2.39,1.27,2.39Zm32.93-1.69l6.76,7.21-.87-.16-6.16-6.41-9.2-.28-.02-.77,9.48,.42Zm48.21,2.08c-.05,1.33,.05,2.9,0,4.24l-.28,3.32-.84-.91-.8,4.54-.82-1.69-1.01,3.44c.17-5.43,.05-10.91,.89-14.98,.79,1.08,1.82,1.57,2.86,2.04Zm1.43-.02c-.43,.2-.77-.02-1.08-.44l.02-.02,1.05-1.73s0,2.2,0,2.2Zm-57.69-1.52l-.05,.05,12.24,4.99,1.73,1.85v.28c-4.93-1.8-9.76-3.69-14.63-5.64l-.02-1.55s.73,.02,.73,.02Zm4.35,.14l5.45,2.36,2.22,2.36-11.68-4.84s4,.12,4,.12Zm2.29,.07l1.71,.75,1.26,1.33-4.94-2.15s1.97,.07,1.97,.07Zm1.03,.02l.47,.49-1.38-.51s.91,.02,.91,.02Zm20.39,1.1l.02-.16,.09-.05-.12,.21Zm-.44,.12v.35s-13.39,5.8-13.39,5.8v-.7l.89,.07,.02,.05,.07-.02v-.02s12.36-5.57,12.36-5.57c0,0,.05,.05,.05,.05Zm.19,.14l.23,.19v-.05c.6,.7,1.38,.85,2.22,.8,.77,.79,1.56,1.52,2.57,1.33,.77,.68,1.32,1.76,2.55,1.64,.74,.99,1.5,1.78,2.36,1.4,1.05,.82,2.09,2.15,3.14,1.57,.68,1.17,1.56,1.85,2.74,1.78,.91,.74,1.76,2.03,2.78,1.87,.71,.67,1.31,1.84,2.25,1.47,.88,.76,1.78,1.59,3.28,1.45l.68,.66-.09,1.4-.98-1.61-.12,.07-.19,4.17-.87-1.47-.52,5.36-.49-1.31c-.26-1.49-.78-3.08-1.24-4.59l-.19,.02-.94,4.26v.05l.02,7.19-1.94-2.62-1.54,3.88-2.57-2.79-1.29,3.09-1.85-2.88-1.9,3.63-1.87-3.25-1.38,3.74-1.64-3.51-1.97,4.45-2.06-3.79-1.64,4.12-1.94-3.44-1.8,4.17-2.27-2.64-1.38,3.39-2.22-2.48-1.61,2.95-1.59-2.57-2.15,3.35-1.99-2.41-1.99,2.6-1.57-1.92-1.33,2.22c.01-2.17,.01-4.35,.28-6.51l-.96-3.77,4.91-8.87,4.47,2.53,.26,11.8c.85,1.23,2.78,1.03,3.65-1.12l-.23-11.19,1.85,.05,.05-.75,.12-.4,1.87,.58,.05-1.03h.05s0-.49,0-.49l2.57,.28,.07-.89h.07s.05-.8,.05-.8l1.87,.23,.02-.91h.02s.12-.52,.12-.52l2.34,.52,.07-1.05h.05s.23-.89,.23-.89l1.87,.56,.07-1.17c.1-.07,.09-.23,.07-.4l.49,.19c-.03,1.54,.12,8.28,.16,11.26,.71,.98,2.49,.86,3.39-1.43l-.37-10.81,.58,.16,.09-.75s.05,.02,.07,.02l.35-1.9-6.18-3.56-.02-.49,.02-.02-.02-.02-.14-3.37h0Zm-13.93,5.66l.05-.02v1.5s-4.66-1.83-4.66-1.83l.05-.7-6.32-2.67-.02,.87-3.67-1.45v-1.31c4.9,1.99,9.62,3.76,14.58,5.62Zm13.76-4.1l-13.41,5.66v-1.1s13.39-5.87,13.39-5.87c0,0,.02,1.31,.02,1.31Zm30.05-.87l.02,3.23-.51-1.83-.59,1.45c.04-1.07-.23-2.37,.26-3.11l.82,.26ZM7.78,43.29c.52,1.49-.49,2.68-1.03,2.48,.25-4.76-.81-9.41-1.08-13.86,.73-.48,1.34-1.06,1.33-2.06,.66,4.27,.52,8.96,.77,13.43Zm27.04-11.28l-.07,1.61-3.58-1.5-.02-1.54s3.67,1.43,3.67,1.43Zm24.67,.47l-13.41,5.76v-1.87s13.41-5.57,13.41-5.57v1.69Zm-54.39,.49l-.77,1.97-.44-3.63s1.21,1.66,1.21,1.66Zm35.51,.84l-.28,6.88-5.38-2.86,.28-6.27,5.38,2.25Zm48.8-.05c-.04,1.15-.59,1.9-1.05,2.71,.13-1.49,0-3.28,.7-4.77l.35,2.06Zm-58.57,.42l-1.81-.99,.4-.98,1.55-.18s-.13,2.15-.13,2.15Zm3.92-.47l-.05,1.66-3.51-1.55-.02-1.59,3.58,1.47Zm-5.78-1.43l-.37,.8-2.08,.02-.28,1.31-1.43-.02-.37,1.03v.84s1.59,.89,1.59,.89l-.07,11.98v.02l-2.69,5.03c.03-.6,.06-1.21,.05-1.83l-1.29-4.35-.09,.05-1.03,4.4v.54s-1.07-1.92-1.07-1.92l-1.27,1.24-1.33-2.9-1.29,1.78-1.52-2.97-1.43,1.64-.46-2.32-1.24,1.1c.02-.97-.01-1.96,.23-2.9l-1.12-4.42h-.13s-1.18,4.38-1.18,4.38l.02,4.12-.79-2.64-.79,1.19-.66-1.78c1.01-.86,1.67-1.85,1.41-3.23,.5-.11,1.79-1.4,1.27-2.93,.8-.76,2.04-.23,1.57-4.03,.5-.13,1.28-.12,1.17-1.24,1.23,.21,2.44,.4,3.25-.64,1.95,.56,2.96-.07,4.2-.4,2.24,.71,2.89-.41,3.87-.96,2.19,.36,2.7-.52,3.57-.92l1.82,.04h0Zm30.54,1.47l-13.41,6.6-.02-1.94,13.43-5.83s0,1.17,0,1.17ZM1.79,36.36c-.42,.37-.85,.67-1.38,.09l.56-3.44s.82,3.35,.82,3.35Zm4.61,9.95c-.05,.74-.71,1.18-1.15,1.73,.19-4.46-.52-7.8-.77-11.7l.44-.91,.02-.02v-.02l.61-2.2c.28,4.37,1.03,8.56,.84,13.13Zm20.34-13.01l2.06,.02,2.04,1.21v1.67s15.16,7.67,15.16,7.67l.02,.05,1.4-.75,2.04,1.62,.05,1.17-1.94-.16c-6.98-3.73-13.91-7.65-20.92-11.23l.09-1.26h0Zm38.85,3.32l-.09,1.45-2.27-.52-3.32-2.36-.09-1.87s5.78,3.3,5.78,3.3Zm-61.69-.96l.02,.12v.02c.07,1.3-.58,1.52-.89,2.25-.86-2.21-.25-2.95-.35-4.4,0,0,1.22,2.01,1.22,2.01Zm85.89,14.16c.25,.73,.08,2.58-1.08,2.55,.33-5.14-.23-9.92-.3-14.82,.44-1.29,1.26-2.41,1.29-3.86-.32,5.55-.11,10.83,.09,16.13Zm-30.26-14.3l-13.43,6.79v-1.8s13.41-6.58,13.41-6.58c0,0,.02,1.59,.02,1.59Zm-24.83-.02l-.05,1.4-3.44-1.66-.02-1.29,3.51,1.54Zm11.07,.87l.02,1.85-4.77-1.99,.09-1.71s4.66,1.85,4.66,1.85Zm-19.38-1.64c7.17,3.31,14.02,7.4,20.71,11.3l.02,1.01-1.52-.21c-7.17-3.41-13.99-7.58-20.88-11.52l.14-.75s1.52,.16,1.52,.16Zm8.24,2.29l-.02,.7-3.39-1.71v-.66s3.42,1.66,3.42,1.66Zm10.77,10.21c-.02,.12-.02,.53-.05,.65l-20.76-11.75,.09-.56s20.71,11.66,20.71,11.66Zm14.14-10.79l-13.43,7.07v-1.08s13.43-6.83,13.43-6.83c0,0,0,.84,0,.84Zm3.46,1.24l-.16,1.52-1.69-.54-2.29-1.59,1.1-.58-.05-.84s3.09,2.04,3.09,2.04Zm24.93,.14c.06,1.41-.81,1.76-1.43,1.99l.59-3.65c.31,.52,.85,.75,.84,1.66Zm-42.13,.44v2.08s-4.89-2.18-4.89-2.18l.12-1.87,4.77,1.97ZM4.91,48.27l-.75-2.93-.25,.09-.02-.33-.61-6.25,.89-2.06c.25,3.82,1.11,7.13,.75,11.47Zm-2.88,.21c-.67,4.94-.24,14.35-.24,14.44-.62,.11-1.02-.33-1.4-.84,0-8.28-.37-16.55,.02-24.83,.62,.21,1.12,.22,1.31-.21-.25,3.61,.86,7.57,.31,11.44Zm58.88-9.71v1.31s-1.59-.47-1.59-.47l-2.27-1.59,1.52-.82,2.34,1.57Zm-31.9,.09l-.05,4.61-2.74,5.13,.07-11.28s2.71,1.54,2.71,1.54Zm-26.29-.2c-.11,.78-.33,.99-.65,.6l.16-2.76,.49,2.16Zm62.42-.36l-.05,.58-1.85-.51,.12-.54c.59,.17,1.18,.33,1.78,.47Zm23.12,14.56c.42,1.04,.03,2.77-1.05,2.32,.23-4.26-.23-10.1-.49-14.93,.49-.71,1.28-.12,1.45-2.2,.26,4.89,.65,9.6,.09,14.82Zm-29.19-13.13l-.28,1.78-2.27-.42-2.01-1.71,2.18-1.17s2.39,1.52,2.39,1.52Zm-13.29,.7l.02,1.85-5.01-2.41,.09-1.61s4.89,2.18,4.89,2.18Zm18.77-1.52l.4,10.7c-.34,1.69-1.89,2.42-2.88,1.64l-.19-11.21,.82,.33,.28-1.12h.07s.14-.68,.14-.68l1.36,.35Zm-33.7,.98l-1.78,3.37,.16-4.28,1.61,.91ZM3.55,45.51l-.94,1.94-.21-4.49c0-.73-.18-1.51-.16-2.15,0-.47,.03-.77,.04-1.17,.55,.42,.53-.27,.68-.63,0,0,.58,6.51,.58,6.51Zm58.98-6.32l-.05,.63-1.29-.35c-.03-.18-.05-.35,.02-.4,0,0,1.31,.12,1.31,.12Zm23.62,2.15c-.28,.71-.54,2.32-1.05,1.78-.71-1.2,.05-2.67,.21-4.03,.22,.7,1.03,1.3,.84,2.25Zm-31.97-1.78l2.08,1.66-.12,1.19-1.73-.23-2.11-1.62,1.87-1.01h0Zm6.67,.66l.05,.84-1.61-.61,.12-.42c.05-.02,.12-.04,.19-.05,.36-.02,.9,.19,1.26,.23Zm-15.03,2.18v.98s-5.06-2.55-5.06-2.55l.05-.84,5.01,2.41Zm-14.63-2.32l1.4,.8-.05,.12-.66-.4c-.82,.87-1.48,1.53-1.17,2.57l.44,.3-.54,1.36-.52-.33c-.98,.58-1.18,1.53-.96,2.29l.16,.3-.77,1.24-.35-.19c-.72,.54-1.35,1.14-.98,1.99l-.16,.35,.16,.09-.54,1.12-.47-.23c-.79,.27-1.1,1.07-.91,1.92l.33,.4-.8,1.43-.3-.23c-1.41-.03-1.18,1.39-.87,1.8l.35,.23-.96,1.05h-.02c.03-1.1,.11-2.18,.19-3.28l7.98-14.72h0Zm22.89,2.29l-.02,1.61-2.32-.16-2.08-1.85,2.29-1.22s2.13,1.62,2.13,1.62Zm-16.52,1.29l-.12,.21-4.59-2.71,.07-.09s4.63,2.6,4.63,2.6Zm-.21,.4l-.68,1.66-5.8-2.72c-.03-.84,.35-1.78,1.24-1.94,0,0,5.24,3,5.24,3Zm21.28-2.41l-.07,.84-2.01-.42,.14-.61,1.94,.19Zm28.16,14.07c.47,1.35-.36,2.77-.75,1.9-.3-4.41-.08-9.52-1.03-13.86,.43-.14,1.24-.35,1.36-1.97,.26,4.53,1.26,10.1,.42,13.93ZM11.18,45.49c-.52,.47-1.22,.75-1.92-.09l1.06-3.46s.87,3.56,.87,3.56Zm40.28-1.76l-.19,1.4-1.5-.51-2.04-1.62,1.62-.87s2.11,1.59,2.11,1.59Zm4.66-1.03l.02,.68-1.64-.26,.05-.54s1.57,.12,1.57,.12Zm28.23,2.57c.03,.92-.36,1.47-1.03,1.78-.18-1.18-.03-2.36,.14-3.53,.29,.58,.88,1.08,.89,1.76Zm-47.98,.66l-.75,1.54-4.7-2.48,.63-1.4s4.82,2.34,4.82,2.34Zm2.86-1.31c-2.73,5.25-5.4,10.48-8.71,15.85l-.56-1.94,7.84-14.72,1.43,.82Zm14.65-.44l.02,.66-2.15-.35v-.4l2.13,.09Zm31.85,14.65c.41,.98-.56,1.9-1.12,1.97-.16-4.56-.64-8.93-1.15-13.32,.84-.6,1.1-1.61,1.33-2.64,1.34,4.14,.62,9.42,.94,14Zm-50.32-11.09l-.73,1.4-5.34-2.25c-.26-.96,.43-2.01,.87-1.92l5.2,2.76Zm15.94-2.48c-.13,.16-.03,.47-.05,.68l-1.5-.42,.14-.47s1.4,.21,1.4,.21Zm-46.74,3.68c-.97,.3-1.14-.49-1.61-.87-.15-.71,.73-1.65,1.1-2.48,.17,1.12,.71,2.17,.51,3.35Zm76.12,.58c-.78,.86-1.08,.21-1.55,.05-.06-1.47,.51-2.47,.77-3.7,.26,1.22,1.08,2.19,.77,3.65Zm-69.65-.91c-.06,.62-.28,.57-.35,1.29-.04,2.17-.28,4.77-.28,7.51,0,5.47,.19,11.17,.19,11.21-.55,.32-.81-.04-1.1-.31-.07-7.43-.52-14.7-.19-22.3,.64,.44,1.41,.22,1.92-.09-.24,.74-.13,2.04-.19,2.69Zm38.34-1.99l-1.94,.02s-.06-.02-.07-.02v.02h-.05v-.19l.05,.12v-.42c.11-.04,.37,.23,.3,.02l1.66-.02,.05,.47Zm33.61,1.36c.23,1.67-.44,2.58-.87,3.25-.21-1.83,.12-3.48,.16-4.94,.24,.55,.7,.97,.7,1.69Zm-35.37,9.9c-.65,2.38-2.17,1.92-3.04,1.36l-.14-11.66,1.08,.61,1.66-.23,.05-.72h.05s.02-.4,.02-.4h.07l.26,11.05ZM7.01,49.86c-.62-.02-1.27,.13-1.78-.54,.07-1.23,.85-1.69,1.38-2.41,.18,.87,1,1.53,.4,2.95Zm39.95-2.06l-1.43,.12,.02-.61,.05,.02,1.4-.09s-.05,.56-.05,.56Zm-12.5,1.66l-.82,1.64-4.59-2.43,.84-1.36s4.56,2.15,4.56,2.15Zm-25.49,1.36c-.52,.02-1.03-.15-1.54-.63-.12-1.73,.52-1.76,.79-2.6,.26,1.08,.82,2.15,.75,3.23Zm3.54-.19c-.55,.31-1.09-.24-1.64-.68,.12-.84,.73-1.37,1.45-1.87,.26,.8,.26,1.67,.19,2.55Zm71.73,10.02c.11,1.33,0,3.1-.68,3.37-.42-4.17-.33-8.55-1.26-12.52,.38-1.03,1.06-1.8,.96-3.23,.76,3.94,1.02,8.09,.98,12.38ZM4.58,49.35c-.55,5.04-.43,9.75-.65,14.63-.83,.31-1.3-.41-1.83-.94,.08-4.84-.58-9.35,.25-14.53,0,0,2.22,.84,2.22,.84Zm11.02,2.36c-1,0-2.04,.34-2.88-.54,.32-1.36,1.03-1.74,1.54-2.6,.46,1.04,1.34,1.94,1.33,3.14Zm17.86-.35l-.7,1.5-5.34-2.6c-.09-.82,.11-1.48,.94-1.64,0,0,5.1,2.74,5.1,2.74Zm-10.49,.91c-.71,.83-1.27,.38-1.9,.51l.82-4.1s1.08,3.58,1.08,3.58Zm-15.99-1.83l-.35,14.79c-.7-.15-1.59-.14-2.38-1.22,.22-4.84,0-8.77,.67-14.51,.69,.83,1.38,.74,2.06,.94Zm73.45,4.24c.61,6.01,1,10.66,.33,17.23-.25,1.45-.81,1.37-1.4,1.17-.06-7.68-.44-15.06-.19-23.05,.54,0,1.04,.59,1.66-.26,.04,1.08,.14,3.44-.4,4.91Zm-62.32-1.69c-.63,.16-1.28-.03-1.99-.98,.1-.91,.64-1.49,.98-2.25,.34,1.07,1.15,2,1.01,3.23Zm63.57-1.24c.23,.95-.16,1.21-.66,1.01,.01-.43,0-2.27,.02-2.65,0,0,.63,1.64,.63,1.64Zm-72.58-.52c-.31,5.68,.04,11.02,.07,16.52l-2.18-2.11,.4-15.26c.57,.6,1.14,.65,1.71,.84Zm3.42,.3c-.7,5.98-.25,11.97-.37,17.95-.31-.2-.69-.43-1.15-.94,0,0-.28-5.78-.28-11.26,0-2.37-.03-4.79,.23-6.79,.1,.46,1.21,.99,1.57,1.03Zm20.03,1.54l-.68,1.29-4.8-2.41,.68-1.19,4.8,2.32Zm-11.75,1.15c-.64-.16-1.01,.18-2.2-1.01-.19-.84,.68-1.24,1.03-1.85,.41,.92,1.06,1.47,1.17,2.86Zm-5.34-1.97c-.43,3.25-.21,6.56-.34,9.83-.03,4.13,.09,8.08,.09,8.61-1.06,.1-1.91-.4-2.71-1.15,.08-5.96-.45-11.99,.32-17.88,.88,.91,1.77,.44,2.64,.59Zm67.85,12.31c.09,1.3,.21,2.65-.82,2.06,.11-4.5-.8-9.06-1.17-13.32,.54-.12,.64-.72,.66-1.45,1.38,3.65,.94,9.33,1.33,12.71Zm-51.65-9.85l-.73,1.38-5.41-2.64c-.04-1.02,.19-1.56,.77-1.52,0,0,5.36,2.79,5.36,2.79Zm-13.6-1.19c-.45,6.1,.1,12.65,.14,18.84-1.6,.78-1.82-.88-2.58-1.42,0,0-.12-4.39-.09-8.83,.03-3.18-.17-6.81,.16-9.97,.33,1.01,1.51,1.58,2.36,1.38Zm4.45,5.71c-.47,5.47-.17,16.01,.05,16.06-.48,.13-1.05,.62-1.19-.49,.02-7.22-.42-14.58,.05-21.65,.54-.16,.77,.3,1.64-.51,.09,2.15-.29,4.79-.54,6.6Zm59.61,8.54c.12,1.03,.14,5.1-1.1,3.61,.53-5.26,.32-11.68-.28-16.67,.04-.3,.34-.75,.42-1.17,.39,4.38,1.29,9.68,.96,14.23Zm-61.23-13.08l.09,18.91c-.74,.05-1.62,.26-2.37-.79-.04-6.21-.85-13.07,.21-18.94,.7,1.09,1.37,.57,2.06,.82Zm14.44,2.86c-.49,.2-.86,.72-1.8-.16,0-1,.35-1.9,.66-2.81l.35-.63c.29,1.17,.73,2.2,.8,3.6Zm-4.54-1.22l-.77,1.59-5.03-2.62,.8-1.33,5.01,2.36Zm47.96,.96c-.41,.99-2.02,1-2.93,.82l1.22-3.56,1.71,2.74Zm-45.52,.23l.02,5.73-.96-2.57-1.22,1.69-.4-1.45,3.23-5.83s-.68,2.43-.68,2.43Zm-8.89-2.15c.07,.01,.15,.04,.23,.09l5.24,2.81-.44,.77,.44-.58,.02,.07-.47,.52-.05,.07-.05,.07-.02,.02h-.02l-1.87-.89-.4-1.52-.72,1.01-1.33-.63-.19-.98-.56,.63-.19-.09c-.46-.5-.14-1.43,.37-1.36h0Zm50.77,2.83c-.97,1.18-2.02,1.3-3.16,.58l1.03-2.93,2.13,2.34Zm-3.89,.68c-1.03,.98-2.17,1.29-3.46,.63l1.97-3.63c.5,1,1.46,1.72,1.5,3Zm-3.84,.82c-.69,.67-1.88,.57-2.48,.3,.21-1.52,.67-2.53,1.01-3.79,.49,1.17,1.3,2.11,1.47,3.49Zm-42.48-.26c-.51-.09-1.07,.56-1.5-.63,.04-.83,.73-1.5,1.1-2.25,.13,.96,.6,1.84,.4,2.88Zm39.48,.75c-.65,.55-1.89,1.42-3.14,.61-.18-1.36,1.12-2.73,1.69-4.1,.48,1.16,1.06,1.81,1.45,3.49Zm-3.88,.77c-.75,.64-1.47,1.3-2.97,.52,.07-1.35,.94-2.83,1.4-4.26,.53,1.25,1.57,2.23,1.57,3.74Zm-32.91-.02c-.81,.45-1.52-.02-2.15-1.24,.28-1.08,.92-1.6,1.38-2.41,.26,1.22,1.01,2.43,.77,3.65Zm-1.59-2.81l-.73,.98-.28-1.47,1.01,.49Zm31.13,3.44c-.8,.8-2.48,.71-3.28,.33,.25-1.59,.95-2.73,1.43-4.1,.64,1.24,1.52,2.29,1.85,3.77Zm21.84,11.84c-.72,.7-1.46,1.33-2.6,.77-.28-5.24-.82-10.34-.61-15.66,.97-.1,1.47,.6,3.14-.65-.43,5.18,.03,10.36,.07,15.54Zm-44-9.39c.04,.33,.07,.79,.07,1.47,0,3.61-.1,12.11-.07,15.72-.7,.55-1.19,.67-1.29,0-.04-7.75-.19-15.69-.14-23.26,.83,.33,1.43,.27,1.83-.09-.12,1.98-.06,4.25-.4,6.15Zm-4.33-1.05c-1.47,.33-1.82-.76-2.36-1.61-.16-.89,.99-1.78,1.5-2.67,.31,1.43,1.19,2.86,.87,4.28Zm45.24,11.14c-1.08,.65-2.12,1.61-3.44,.61,.16-5.07-1.39-9.6-.7-15.36,1.26,.27,2.5,.35,3.67-.66-.21,5.13,.18,10.27,.47,15.4Zm-46.95-14.58l-.94,1.05-.05-.02-.44-1.71,1.43,.68Zm43.09,15.12c-1.04,.7-2.03,1.54-3.39,.99-.09-5.06,.15-9.9-.75-15.57,1.25,.21,2.41,.09,3.49-.56-.61,5.62,.85,9.96,.66,15.14Zm-47.26-14.72c-.5,5.17-.33,11-.42,16.34-.42-.08-.59,.28-1.47-1.08-.33-5.31-.3-10.54,.16-15.68,.6,.37,1.05,.61,1.73,.42Zm28.39,1.73c-.64,.9-1.83,1.26-2.9,.61,.09-.75,.61-1.81,.94-2.71,.65,.68,1.32,.8,1.97,2.11Zm-25.65-.16c-.89,5.46-.29,10.72-.44,16.08-1.07,.79-1.72-.28-2.36-1.38-.12-5.39-.35-10.95,.42-16.34,1.18,1.75,1.71,1.48,2.39,1.64Zm40.72,14.16c-.75,.59-1.53,1.12-2.79,.44-.18-5.21,.07-10.56-.58-15.61,.82,.04,1.64,.21,2.46-.33,.91,5.11,.82,10.31,.91,15.5Zm-19.14-13.2c-.99,1.91-2.53,1.12-3.04,.8l1.61-3.04c.47,.75,.96,.77,1.43,2.25Zm15.94,13.6c-1.43,1.59-2.43,.75-3.53,.46,.26-5.05,.24-10.11-.44-15.16,1.21,.16,2.35,.1,3.3-.77,.9,5,.47,10.31,.68,15.47Zm-19.52-12.83c-1.33,1.38-2.16,.8-3.09,.63,.25-1.05,1.2-2.11,1.92-3.16,.39,.84,1.23,1.42,1.17,2.53Zm-12.17,1.5c-.91,.07-1.54-.56-2.11-1.36-.33-.88,.64-1.44,.96-2.15,.39,1.17,1.09,1.92,1.15,3.51Zm27.67,11.82c-1.05,1.29-2.09,1.24-3.14,.55,.76-5.47-.19-10.08-.35-15.09,1.02,0,2.11,.54,2.97-.56,.79,4.86,.93,9.89,.52,15.1Zm-18.96-12.5c-1.16,.57-2.72,1.22-3.46,.02,.21-1,1.09-1.73,1.69-2.57,.61,.84,1.63,1.49,1.78,2.55Zm-11.49-.68c-.92,5.41-.28,10.51-.4,15.75-.81,.43-1.72,.41-2.76-1.33,.17-5.33-.46-10.76,.51-15.98,1.2,1.52,1.97,1.71,2.65,1.57Zm26.85,13.93c-1.08,.7-2.16,1.41-3.49,.51,.28-5.15,.27-10.34-.14-15.59,1.12,.44,2.24,.86,3.28-.14,.2,5.06,1.45,10.07,.35,15.22Zm-19.4-12.9c-.69,.84-1.56,.85-2.5,.49,.04-1.36,.8-1.81,1.19-2.71,.44,.74,1.45,1.31,1.31,2.22Zm15.35,13.55c-.98,.91-2.01,1.21-3.16,.4,.19-5.1-.04-10.59-.54-15.61,1.15,.21,2.62,.76,3.6-.42,.64,5.03,.85,10.34,.09,15.63Zm-3.65,.54c-1.2,1.77-2.14,.92-3.18,1.06-.02-5.35-.19-10.69-.68-15.87,1.17,.37,2.4,.18,3.39-.66,.96,4.9,.97,10.23,.47,15.47Zm-16.29-13.25l-.05,15.66c-.94-.01-1.86-.18-2.71-1.24-.25-5.03-.93-11.16,.26-16.08,.9,1.25,1.85,1.4,2.5,1.66Zm12.78,14.25c-1.01,1.39-2.21,.94-3.39,.66,.35-5.23-.04-10.52-.26-15.66,1.01,.05,2.02,0,2.95-.73,.44,5.19,.93,10.37,.7,15.73Zm-3.82,.58c-1.12,.87-2.34,1.32-3.37,.89-.13-5.32,.66-10.7-.23-16.22,1.13,.41,2.26,.12,3.39-.23,.1,5.19,.72,10.45,.21,15.56Zm-3.7,.61c-1.1,.78-2.19,1.32-3.37,.56,.03-5.26,.33-10.58,.05-15.75,.98,0,1.95,.07,2.93-.61,.92,5.47,.36,10.55,.4,15.8Z"/>
    </g>
  </g>
</svg>