<?xml version="1.0" encoding="UTF-8"?>
<svg id="Layer_2" data-name="Layer 2" xmlns="http://www.w3.org/2000/svg" xmlns:xlink="http://www.w3.org/1999/xlink" viewBox="0 0 35.41 33.79">
  <defs>
    <style>
      .cls-1 {
        fill: url(#linear-gradient);
        stroke: #fff;
        stroke-miterlimit: 10;
        stroke-width: .5px;
      }
    </style>
    <linearGradient id="linear-gradient" x1=".25" y1="16.89" x2="35.16" y2="16.89" gradientUnits="userSpaceOnUse">
      <stop offset="0" stop-color="#8c7250"/>
      <stop offset="1" stop-color="#493c2a"/>
    </linearGradient>
  </defs>
  <g id="Layer_1-2" data-name="Layer 1">
    <path class="cls-1" d="M18.51,.83l3.54,10.9c.11,.35,.44,.58,.8,.58h11.46c.82,0,1.16,1.05,.5,1.53l-9.27,6.74c-.3,.21-.42,.6-.31,.94l3.54,10.9c.25,.78-.64,1.42-1.3,.94l-9.27-6.74c-.3-.21-.7-.21-.99,0l-9.27,6.74c-.66,.48-1.55-.17-1.3-.94l3.54-10.9c.11-.35-.01-.73-.31-.94L.6,13.85c-.66-.48-.32-1.53,.5-1.53H12.56c.37,0,.69-.24,.8-.58L16.9,.83c.25-.78,1.35-.78,1.61,0Z"/>
  </g>
</svg>