<?xml version="1.0" encoding="utf-8"?>
<!-- Generator: Adobe Illustrator 27.0.1, SVG Export Plug-In . SVG Version: 6.00 Build 0)  -->
<svg version="1.1" id="Layer_1" xmlns="http://www.w3.org/2000/svg" xmlns:xlink="http://www.w3.org/1999/xlink" x="0px" y="0px"
	 viewBox="0 0 121.1 122.9" style="enable-background:new 0 0 121.1 122.9;" xml:space="preserve">
<style type="text/css">
	.st0{fill:#FFFFFF;}
</style>
<path class="st0" d="M89.1,34.5c2.1,1.5,4.1,3.2,6,5.1c5.2,5.2,9.1,11.5,11.6,18.4c-2.6-1.3-5.5-2-8.3-2h-0.6
	c-2-4.1-4.7-7.9-7.9-11.1c-0.7-0.7-1.5-1.4-2.2-2.1c1.2-1.5,1.8-3.3,1.8-5.2C89.2,36.5,89.2,35.5,89.1,34.5L89.1,34.5z M74.3,61.5
	c1.1,0.2,2.2,0.8,3,1.6c1.1,1.1,1.7,2.5,1.7,4v13c0,3.2-2.6,5.7-5.7,5.7H73l0.5,6.9l0,0c0,0.2-0.1,0.4-0.2,0.6
	c-0.3,0.4-0.9,0.4-1.2,0.1l-8.9-7.9H51.5l5.8-5.9h12.2c2.7,0,4.8-2.2,4.8-4.9C74.3,70.7,74.7,65.4,74.3,61.5L74.3,61.5z M49.1,68.5
	c-0.6,0-1.1-0.5-1.1-1.1c0-0.6,0.5-1.1,1.1-1.1l0,0h10.3c0.6,0,1.1,0.5,1.1,1.1c0,0.6-0.5,1.1-1.1,1.1H49.1z M49.1,62.8
	c-0.6,0-1.1-0.5-1.1-1.1c0-0.6,0.5-1.1,1.1-1.1h14.6c0.6,0,1.1,0.5,1.1,1.1c0,0.6-0.5,1.1-1.1,1.1H49.1z M46.2,52.7h20.2
	c1.6,0,3.1,0.6,4.2,1.7l0,0c1.1,1.1,1.7,2.6,1.7,4.2v13c0,1.6-0.6,3.1-1.7,4.2l0,0c-1.1,1.1-2.6,1.7-4.2,1.7H56.3l-8.8,7.6
	C47,85.5,46.4,85.4,46,85c-0.2-0.2-0.3-0.5-0.3-0.8l0.5-6.7c-1.6,0-3.1-0.6-4.2-1.7l0,0c-1.1-1.1-1.7-2.6-1.7-4.2v-13
	c0-1.6,0.6-3.1,1.7-4.2l0,0C43.1,53.3,44.6,52.7,46.2,52.7L46.2,52.7z M66.4,54.8H46.2c-1,0-2,0.4-2.7,1.1c-0.7,0.7-1.1,1.7-1.1,2.7
	v13c0,2.1,1.7,3.8,3.8,3.8c0,0,0,0,0,0h1.2c0.6,0,1,0.5,1,1.1c0,0,0,0,0,0L48,81.8l7.2-6.2c0.2-0.2,0.5-0.3,0.8-0.3h10.5
	c2.1,0,3.8-1.7,3.8-3.8l0,0v-13C70.2,56.5,68.5,54.8,66.4,54.8L66.4,54.8L66.4,54.8z M95.2,87.6c-0.2-0.2-0.4-0.4-0.6-0.6
	c-0.4-0.6-0.8-1.1-1.2-1.7l-1.8-2.9c-0.6-0.8-1-1.7-1.1-2.7c0-0.8,0.5-1.6,1.2-1.9c-0.1-1.1-0.1-2.2-0.1-3.3c0-0.7,0-1.3,0-2
	c0.1-0.4,0.2-0.8,0.3-1.2c0.5-1.7,1.6-3.1,3.1-3.9c0.5-0.3,1.1-0.6,1.7-0.8c1.1-0.4,0.6-2,1.7-2c2.7-0.1,7.2,2.3,9,4.2
	c1.1,1.2,1.7,2.8,1.8,4.5l-0.2,4.8c0.5,0.1,0.9,0.5,1,1c0.1,0.9-0.1,1.8-0.5,2.5l0,0c0,0,0,0,0,0.1l-2.1,3.4c-0.5,0.8-1,1.6-1.5,2.3
	c-0.7,0.9-1.2,0.7-0.6,1.6c4,5.5,15.7,2,15.7,12.9H79.6c0-10.9,11.7-7.4,15.7-12.9C95.8,88.2,95.7,88.2,95.2,87.6L95.2,87.6z
	 M15.5,87.6c-0.2-0.2-0.4-0.4-0.5-0.6c-0.4-0.6-0.8-1.1-1.2-1.7L12,82.3c-0.6-0.8-0.9-1.7-1-2.7c0-0.8,0.5-1.6,1.2-1.9
	c-0.1-1.1-0.1-2.2-0.1-3.3c0-0.7,0-1.3,0-2c0-0.4,0.1-0.8,0.2-1.2c0.5-1.7,1.6-3.1,3.1-3.9c0.5-0.3,1.1-0.6,1.7-0.8
	c1.1-0.4,0.5-2,1.7-2c2.7-0.1,7.2,2.3,9,4.2c1.1,1.2,1.8,2.8,1.8,4.5L29.5,78c0.5,0.1,0.9,0.5,1,1c0.1,0.8-0.1,1.7-0.5,2.4l0,0
	c0,0,0,0,0,0.1L27.9,85c-0.5,0.8-1,1.6-1.5,2.3c-0.6,0.9-1.2,0.7-0.6,1.6c4,5.5,15.7,2,15.7,12.9H0c0-10.9,11.7-7.4,15.7-12.9
	C16.2,88.2,16,88.2,15.5,87.6L15.5,87.6z M55.5,24.6c-1.1-1-2.5-1.8-2.7-3.8h-0.1c-0.3,0-0.5-0.1-0.8-0.2c-0.4-0.2-0.7-0.6-0.8-1
	c-0.4-0.9-0.7-3.3,0.3-4l-0.2-0.1v-0.3c0-0.5,0-1.1-0.1-1.7c0-2.2-0.1-4.9-1.9-5.5l-0.8-0.2L49,7.2c1.3-1.7,2.8-3.2,4.5-4.6
	c1.5-1.3,3.2-2.1,5.2-2.5c1.8-0.3,3.7,0.2,5.1,1.4c0.5,0.4,1,0.9,1.4,1.4c1.6,0.2,3.1,1,4,2.4c0.6,0.8,1,1.7,1.3,2.7
	c0.3,1,0.4,2,0.3,3c-0.1,1.8-0.8,3.6-2.1,4.9c0.2,0,0.5,0.1,0.7,0.2c0.6,0.4,0.9,1.3,0.6,2c-0.2,0.6-0.4,1.3-0.7,1.9
	c-0.3,0.8-0.7,1-1.5,0.9c0,2-1.5,2.8-2.7,3.9c3,5.6,15.7,1.9,15.7,13h-41C39.7,26.5,52.1,30.4,55.5,24.6L55.5,24.6z M93.3,110.2
	c-18.6,16.9-46.9,16.9-65.5,0h12.9c12.4,6.8,27.3,6.8,39.7,0H93.3z M15,56.5c3.3-8.6,9-16,16.4-21.5c-0.1,0.8-0.1,1.7-0.1,2.7
	c0,2,0.7,4,2,5.5c-0.7,0.6-1.3,1.2-1.9,1.8c-3.4,3.4-6.2,7.3-8.2,11.7c-1.5-0.4-3-0.6-4.5-0.6C17.4,56,16.2,56.2,15,56.5L15,56.5z"
	/>
</svg>
