<?xml version="1.0" encoding="utf-8"?>
<!-- Generator: Adobe Illustrator 27.0.1, SVG Export Plug-In . SVG Version: 6.00 Build 0)  -->
<svg version="1.1" id="Layer_1" xmlns="http://www.w3.org/2000/svg" xmlns:xlink="http://www.w3.org/1999/xlink" x="0px" y="0px"
	 viewBox="0 0 122.9 116.2" style="enable-background:new 0 0 122.9 116.2;" xml:space="preserve">
<style type="text/css">
	.st0{fill-rule:evenodd;clip-rule:evenodd;fill:#FFFFFF;}
</style>
<path class="st0" d="M94.5,20.2l-11.1-2.9L96.2,0l11.9,2l-8.4,9l12.8,3.6L85.2,37.7L94.5,20.2z M33.5,48.1c-0.1-1.7,0.1-3.4,0.4-5
	c0.5-1.8,1.6-3.4,3.3-4.3c0.7-0.5,1.3-0.9,1.8-1.3c0.5-0.4,0.9-0.8,1.3-1.3c0.6-0.9,0.6-2.1,0.1-3c-1.5-2.5-5.7-1.3-5.7,1.8h-8.3
	c-0.1-2,0.5-4.1,1.6-5.8c1.1-1.5,2.5-2.6,4.2-3.2c1.8-0.7,3.8-1,5.7-1c2.1,0,4.2,0.3,6.2,1c1.7,0.6,3.2,1.6,4.3,3
	c1.1,1.4,1.6,3.2,1.6,5c0.1,2.3-0.8,4.5-2.5,6c-0.8,0.8-1.8,1.4-2.8,2c-1.3,0.6-2.4,1.7-3.2,3c-0.4,1-0.5,2-0.4,3L33.5,48.1z
	 M66.8,43.1h4.4V22.8c0-4.2-3.4-7.6-7.6-7.6H12.7c-4.2,0-7.6,3.4-7.6,7.6v36.9c0,4.2,3.4,7.6,7.6,7.6h13.5c1.1,0.1,1.8,1,1.8,2.1
	l1,8.6l15.2-10.1c0.4-0.4,0.9-0.6,1.4-0.6h6.9V55.8c0-3.4,1.4-6.6,3.8-9l0,0c2.4-2.4,5.6-3.7,9-3.7L66.8,43.1z M76.4,43.1h33.7
	c7,0,12.7,5.7,12.7,12.7v36.9c0,3.4-1.4,6.6-3.8,9l0,0c-2.2,2.2-5.2,3.5-8.3,3.7l-0.7,6.1c-0.3,2.8-2.8,4.8-5.7,4.5
	c-0.9-0.1-1.7-0.4-2.4-0.9l-14.6-9.7H65.2c-3.4,0-6.6-1.4-9-3.7l-0.3-0.4c-1-1.1-1.8-2.4-2.4-3.8c-0.7-1.5-1-3.2-1-4.9V72.5h-5.8
	L32,82.2c-0.7,0.5-1.5,0.8-2.4,0.9c-2.8,0.3-5.3-1.7-5.7-4.5l-0.7-6.1H12.7l0,0c-3.4,0-6.6-1.4-9-3.7l0,0c-2.4-2.4-3.7-5.6-3.8-9
	V22.8c0-7,5.7-12.7,12.8-12.7h50.9c3.4,0,6.6,1.4,9,3.7l0,0c2.4,2.4,3.7,5.6,3.8,9L76.4,43.1L76.4,43.1z M92.4,56.1h-9.5V68l1.9,14
	h5.9l1.8-14L92.4,56.1L92.4,56.1z M90.6,86.3h-5.8v5.4h5.8V86.3z M37.5,58.9c-1.2,0-2.4-0.5-3.2-1.3c-0.8-0.8-1.3-2-1.3-3.2
	c0-1.2,0.5-2.3,1.3-3.2c1.8-1.7,4.6-1.7,6.3,0c0.9,0.8,1.3,2,1.3,3.2c0,0.8-0.2,1.6-0.7,2.3c-0.4,0.7-1,1.2-1.7,1.6
	C39,58.7,38.3,58.9,37.5,58.9z"/>
</svg>
