<?xml version="1.0" encoding="utf-8"?>
<!-- Generator: Adobe Illustrator 27.0.1, SVG Export Plug-In . SVG Version: 6.00 Build 0)  -->
<svg version="1.1" id="Layer_1" xmlns="http://www.w3.org/2000/svg" xmlns:xlink="http://www.w3.org/1999/xlink" x="0px" y="0px"
	 viewBox="0 0 122.9 64.2" style="enable-background:new 0 0 122.9 64.2;" xml:space="preserve">
<style type="text/css">
	.st0{fill-rule:evenodd;clip-rule:evenodd;fill:#FFFFFF;}
</style>
<g>
	<path class="st0" d="M14.2,4.4l13.6-1.8c0.9-0.1,1.7-0.1,2.5,0.1s1.5,0.6,2.2,1.1c0.7,0.5,1.2,1.2,1.7,1.8c0.4,0.7,0.7,1.5,0.8,2.4
		l1.8,13.2c0.1,0.9,0.1,1.7-0.1,2.5s-0.6,1.5-1.1,2.2c-0.5,0.7-1.2,1.3-1.8,1.6c-0.7,0.4-1.5,0.7-2.4,0.8l-5.8,0.8
		c-0.7,0.1-1.2,0.7-1.1,1.4c0,0.1,0.1,0.3,0.1,0.4c0.3,0.8,0.7,1.6,1,2.3c0.4,0.8,0.8,1.5,1.2,2.3c0.2,0.4,0.5,0.7,0.8,1.1
		c-1.3-0.4-2.5-0.8-3.6-1.4c-1.2-0.6-2.3-1.2-3.4-2c-1.1-0.8-2-1.6-3-2.5c-0.3-0.3-0.7-0.4-1-0.4l-5,0.7c-0.9,0.1-1.7,0.1-2.5-0.1
		c-0.8-0.2-1.5-0.6-2.2-1.1c-0.7-0.5-1.2-1.1-1.7-1.8c-0.4-0.7-0.7-1.5-0.8-2.4L2.6,12.4c-0.1-0.9-0.1-1.7,0.1-2.5s0.6-1.5,1.1-2.2
		C4.4,7,5,6.4,5.7,6C6.4,5.6,7.2,5.3,8,5.2L14.2,4.4L14.2,4.4L14.2,4.4L14.2,4.4L14.2,4.4z M63.4,54.1h1c0.9,0,1.7-0.8,1.7-1.7v-2.7
		c0-0.9-0.8-1.7-1.7-1.7h-6c-0.9,0-1.7,0.8-1.7,1.7v2.7c0,0.9,0.8,1.7,1.7,1.7h1l-2,10h7.8L63.4,54.1L63.4,54.1L63.4,54.1z
		 M27.1,64.2c0.8-10.1-1.2-9.7,7.3-12.9c4.2-1.6,9.6-3.6,13.5-6l7.3,18.9H27.1L27.1,64.2L27.1,64.2z M52.9,39.5
		c0.2-1.6-4.4-7.5-5.3-10.3c-1.8-2.9-2.4-7.4-0.5-10.5c0.8-1.2,0.5-3.4,0.5-5c0-16.5,28.9-16.5,28.9,0c0,2.1-0.5,3.7,0.7,5.3
		c1.9,2.7,0.9,7.6-0.7,10.1c-1,3-5.9,8.6-5.5,10.3C71.3,48,52.9,47.7,52.9,39.5L52.9,39.5L52.9,39.5z M75.3,44.4
		c3.6,2.3,8.6,4.1,12.6,5.5c7.9,2.6,7.9,3,7.8,14.3H67.8L75.3,44.4L75.3,44.4L75.3,44.4z M101.8,1l13.5,1.9c1.2,0.2,2.3,0.5,3.3,1.1
		c1,0.6,1.8,1.3,2.6,2.3s1.2,2,1.5,3.1s0.3,2.2,0.2,3.4L120.9,26c-0.2,1.2-0.6,2.3-1.1,3.3c-0.6,1-1.3,1.8-2.3,2.5
		c-1,0.7-2,1.2-3.1,1.5c-1.1,0.3-2.2,0.3-3.4,0.2l-4.4-0.6c-0.9,0.8-1.9,1.7-2.9,2.4c-1.2,0.8-2.4,1.6-3.7,2.2
		c-1.3,0.6-2.7,1.1-4.2,1.5c-1.4,0.4-3,0.7-4.5,0.9c-0.5,0-0.9-0.2-1.2-0.5c-0.4-0.6-0.2-1.3,0.3-1.7c0.8-0.5,1.5-1.1,2.1-1.7
		c0.6-0.6,1-1.2,1.4-1.8v0c0.4-0.7,0.8-1.3,1.2-2c0.1-0.2,0.2-0.5,0.4-0.8l-4.2-0.6c-1.2-0.2-2.3-0.5-3.3-1.1
		c-1-0.6-1.8-1.4-2.6-2.3s-1.2-2-1.5-3.1c-0.3-1.1-0.3-2.3-0.2-3.4l1.9-13.1c0.2-1.2,0.6-2.3,1.1-3.3c0.6-1,1.3-1.8,2.3-2.5
		c1-0.7,2-1.2,3.1-1.5s2.2-0.3,3.4-0.2L101.8,1L101.8,1L101.8,1L101.8,1L101.8,1z M106.7,12C106.7,12,106.7,12,106.7,12
		c0.8-0.4,1.7-0.2,2.1,0.6c0.4,0.7,0.2,1.6-0.6,2l-2.8,2.2l0,0c0.8,1,1.7,2,2.7,3.2c0,0,0,0,0,0.1c0.4,0.7,0.1,1.6-0.6,2
		c-0.7,0.4-1.6,0.1-2-0.5l-2.3-2.9l-2.8,2.5c-0.5,0.6-1.5,0.7-2.1,0.1c-0.6-0.5-0.7-1.5-0.2-2.1c0,0,0,0,0.1,0
		c1.2-1,2.2-1.9,3.2-2.7l-2.4-2.7c-0.6-0.5-0.7-1.5-0.2-2.1s1.5-0.7,2.1-0.2c0,0,0.1,0,0.1,0.1c1,1.2,1.8,2.2,2.6,3.1
		C104.4,13.8,105.4,13,106.7,12L106.7,12L106.7,12L106.7,12z M108.8,4.5L95.4,2.6c-0.9-0.1-1.7-0.1-2.5,0.1
		c-0.8,0.2-1.5,0.6-2.2,1.1C90,4.3,89.4,4.9,89,5.6S88.3,7.1,88.2,8l-1.9,13.1c-0.1,0.9-0.1,1.7,0.1,2.5c0.2,0.8,0.6,1.5,1.1,2.2
		c0.5,0.7,1.2,1.3,1.8,1.7c0.7,0.4,1.5,0.7,2.3,0.8l5.8,0.8c0.7,0.1,1.2,0.7,1.1,1.4c0,0.1-0.1,0.3-0.1,0.4
		c-0.3,0.8-0.7,1.6-1.1,2.3c-0.4,0.8-0.8,1.5-1.3,2.2c-0.2,0.4-0.5,0.7-0.8,1.1c1.3-0.3,2.5-0.8,3.6-1.3c1.2-0.5,2.3-1.2,3.4-1.9
		c1.1-0.8,2.1-1.6,3-2.5c0.3-0.3,0.7-0.4,1.1-0.4l5,0.7c0.9,0.1,1.7,0.1,2.5-0.1s1.5-0.6,2.2-1.1c0.7-0.5,1.2-1.1,1.7-1.8
		s0.7-1.5,0.8-2.4l1.9-13.1c0.1-0.9,0.1-1.7-0.1-2.5c-0.2-0.8-0.6-1.5-1.1-2.2c-0.5-0.7-1.1-1.2-1.8-1.7c-0.7-0.4-1.5-0.7-2.4-0.8
		L108.8,4.5L108.8,4.5L108.8,4.5L108.8,4.5L108.8,4.5z M13.7,17.1c-0.3-0.3-0.4-0.7-0.3-1.1c0.1-0.4,0.2-0.8,0.6-1
		c0.3-0.3,0.7-0.4,1.1-0.3c0.4,0.1,0.8,0.2,1,0.6l2.2,2.8l6-5.8c0,0,0,0,0-0.1c0.7-0.4,1.6-0.3,2.1,0.4c0.5,0.7,0.3,1.6-0.4,2.1
		l-7.1,6.7c0,0,0,0,0,0c-0.3,0.2-0.7,0.3-1.1,0.2c-0.4,0-0.7-0.2-1-0.5L13.7,17.1L13.7,17.1L13.7,17.1L13.7,17.1z M21.3,0.9L7.7,2.7
		C6.5,2.9,5.4,3.2,4.4,3.8c-1,0.6-1.9,1.3-2.6,2.3c-0.7,1-1.2,2-1.5,3.1c-0.3,1.1-0.4,2.2-0.2,3.5l1.8,13.2c0.2,1.2,0.5,2.3,1.1,3.3
		c0.6,1,1.3,1.9,2.3,2.6c1,0.7,2,1.2,3.1,1.5c1.1,0.3,2.2,0.4,3.5,0.2l4.4-0.6c0.9,0.9,1.9,1.7,2.8,2.4c1.2,0.8,2.4,1.6,3.7,2.2
		c1.3,0.6,2.7,1.2,4.2,1.6c1.4,0.4,3,0.7,4.5,0.9c0.5,0.1,0.9-0.1,1.2-0.5c0.4-0.6,0.2-1.3-0.3-1.7c-0.8-0.5-1.5-1.1-2.1-1.7
		c-0.6-0.6-1-1.2-1.4-1.8v0c-0.4-0.7-0.8-1.4-1.2-2.1c-0.1-0.2-0.2-0.5-0.4-0.8l4.2-0.5c1.2-0.1,2.3-0.5,3.3-1.1
		c1-0.6,1.8-1.3,2.6-2.3c0.7-1,1.2-2,1.5-3.1c0.3-1.1,0.3-2.3,0.2-3.5L37.3,7.7c-0.2-1.2-0.5-2.3-1.1-3.3c-0.6-1-1.3-1.8-2.3-2.6
		c-1-0.7-2-1.2-3.1-1.5c-1.1-0.3-2.2-0.4-3.5-0.2L21.3,0.9L21.3,0.9L21.3,0.9L21.3,0.9L21.3,0.9z"/>
</g>
</svg>
