<?xml version="1.0" encoding="utf-8"?>
<!-- Generator: Adobe Illustrator 27.0.1, SVG Export Plug-In . SVG Version: 6.00 Build 0)  -->
<svg version="1.1"
	 id="Layer_1" text-rendering="geometricPrecision" image-rendering="optimizeQuality" shape-rendering="geometricPrecision"
	 xmlns="http://www.w3.org/2000/svg" xmlns:xlink="http://www.w3.org/1999/xlink" x="0px" y="0px" viewBox="0 0 194.2 121"
	 style="enable-background:new 0 0 194.2 121;" xml:space="preserve">
<style type="text/css">
	.st0{fill:#FFFFFF;}
</style>
<path class="st0" d="M62.5,13.4c-1.5,0-2.6-1.2-2.6-2.6s1.2-2.6,2.6-2.6h56.1V2.6c0-1.5,1.2-2.6,2.6-2.6s2.6,1.2,2.6,2.6v5.4h66.9
	c1.5,0,2.6,1.2,2.6,2.6s-1.2,2.6-2.6,2.6h-6.1v76h6.4c1.5,0,2.6,1.2,2.6,2.6s-1.2,2.6-2.6,2.6h-68.2v2.7c0.1,0.1,0.2,0.2,0.3,0.3
	l16.2,15.4c1,1,1.1,2.7,0.1,3.7c-1,1-2.7,1.1-3.7,0.1l-12.8-12.2v13.4c0,1.5-1.2,2.6-2.6,2.6c-1.5,0-2.6-1.2-2.6-2.6v-13.9
	l-13.4,12.7c-1,1-2.7,1-3.7-0.1c-1-1-1-2.7,0.1-3.7l16.2-15.4c0.2-0.2,0.6-0.4,0.8-0.6v-2.4H61.7c-1.5,0-2.6-1.2-2.6-2.6
	s1.2-2.6,2.6-2.6h117.7v-76H62.5z M114.2,78.2c-1.3,0-2.4-1.1-2.4-2.4c0-1.3,1.1-2.4,2.4-2.4h51.6c1.3,0,2.4,1.1,2.4,2.4
	c0,1.3-1.1,2.4-2.4,2.4H114.2z M117.8,62c-1.3,0-2.4-1.1-2.4-2.4c0-1.3,1.1-2.4,2.4-2.4h48c1.3,0,2.4,1.1,2.4,2.4
	c0,1.3-1.1,2.4-2.4,2.4H117.8L117.8,62z M110,45.7c-1.3,0-2.4-1.1-2.4-2.4s1.1-2.4,2.4-2.4h55.8c1.3,0,2.4,1.1,2.4,2.4
	s-1.1,2.4-2.4,2.4H110L110,45.7z M85.1,29.4c-1.3,0-2.4-1.1-2.4-2.4c0-1.3,1.1-2.4,2.4-2.4h80.7c1.3,0,2.4,1.1,2.4,2.4
	c0,1.3-1.1,2.4-2.4,2.4H85.1L85.1,29.4z M83.3,61.4l18.4-19.2c1.1-1.1,2.9-1.2,4-0.1c1.1,1.1,1.2,2.9,0.1,4L88.5,64.2
	c1.4,1.7,2.1,4,1.6,6.4c-0.8,4.2-4.9,6.9-9,6.1L61.9,73c-1.9-0.3-3.7-1.4-4.9-3.1l-6.2-8.6l0,0.8v-0.6l-0.5,28.7l0.8,4.3H18.8l0.7-4
	l-0.6-28.5v0l-0.1-4.9l0,0c-3.3,3.3-3.4,11.2-3.8,15.9l-0.8,10.9c-0.2,2.5-0.4,3.9-2.4,5.6c-2.8,2.4-7.6,2.9-10.1-0.1
	c-1.6-2-1.7-5.2-1.5-8.1C0.9,67,2.6,45.1,18.9,37.9v0.2c6.9-2.7,15-1.5,22.4-1.5c3.5,0,6.6,0.5,9.4,1.6c1.8,0.4,3.4,1.4,4.5,3
	l12.5,17.2L83.3,61.4L83.3,61.4z M34.7,1.2c9,0,16.4,7.3,16.4,16.4c0,9-7.3,16.4-16.4,16.4s-16.4-7.3-16.4-16.4
	C18.4,8.5,25.7,1.2,34.7,1.2z"/>
</svg>
