<?xml version="1.0" encoding="utf-8"?>
<!-- Generator: Adobe Illustrator 27.0.1, SVG Export Plug-In . SVG Version: 6.00 Build 0)  -->
<svg version="1.1" id="Layer_1" xmlns="http://www.w3.org/2000/svg" xmlns:xlink="http://www.w3.org/1999/xlink" x="0px" y="0px"
	 viewBox="0 0 122.9 98.9" style="enable-background:new 0 0 122.9 98.9;" xml:space="preserve">
<style type="text/css">
	.st0{fill-rule:evenodd;clip-rule:evenodd;fill:#FFFFFF;}
</style>
<g>
	<path class="st0" d="M26.8,23c-4.8,0-10.1-0.8-14.6,1v-0.1c-1,0.5-2.1,1.1-3,1.9l0,0c-0.9,0.7-1.8,1.6-2.6,2.5v0
		c-0.1,0.1-0.2,0.2-0.3,0.3l0,0c0,0-0.1,0.1-0.1,0.2l0,0C6,28.9,5.9,29,5.9,29.1l0,0c0,0-0.1,0.1-0.1,0.1l0,0v0c0,0-0.1,0.1-0.1,0.1
		l0,0l-0.1,0.1l0,0c0,0-0.1,0.1-0.1,0.2l0,0L5.2,30l0,0c0,0-0.1,0.1-0.1,0.1l0,0l0,0c0,0-0.1,0.1-0.1,0.1l0,0.1c0,0-0.1,0.1-0.1,0.2
		v0c0,0-0.1,0.1-0.1,0.2l0,0l-0.1,0.1l0,0c0,0.1-0.1,0.1-0.1,0.2l0,0l-0.1,0.1l0,0.1c0,0-0.1,0.1-0.1,0.2l0,0l-0.1,0.1l0,0.1
		c0,0.1-0.1,0.1-0.1,0.2v0l0,0C4,32,4,32.1,3.9,32.1l0,0l-0.1,0.2l0,0l-0.1,0.2l0,0.1l-0.1,0.1l0,0c0,0.1-0.1,0.1-0.1,0.2l0,0
		l-0.1,0.1l0,0c0,0.1-0.1,0.1-0.1,0.2C1.6,37,1.1,39.7,0.9,43.5C0.3,47.4,0,51.2,0,55c0,0.1,0,0.2,0.1,0.3v0c0,0.1,0,0.2,0.1,0.2v0
		c0,0.1,0,0.2,0.1,0.2l0,0c0,0.1,0,0.2,0.1,0.2l0,0c0,0.1,0.1,0.1,0.1,0.2l0,0c0,0.1,0.1,0.1,0.1,0.2l0,0c0,0.1,0.1,0.1,0.1,0.2
		c1.7,3.3,6.4,2.4,8-0.3l0,0l0,0c0,0,0-0.1,0.1-0.1c0,0,0-0.1,0-0.1c0,0,0,0,0-0.1c0,0,0-0.1,0.1-0.1l0,0c0,0,0-0.1,0.1-0.1l0,0
		c0,0,0-0.1,0.1-0.2v0c0-0.1,0-0.1,0.1-0.2v0c0-0.1,0-0.1,0-0.2l0,0C9,55.1,9,55,9,55l0.9-11.8c0.1-1.8,0.3-3,1-4.7
		c0.3-0.8,0.8-1.5,1.2-2l0.1,3.2l0,0L12.6,58L6.6,93.5c0.1,7,9.4,6.9,10.5,1.2L22.5,63l5.3,31.2c2.2,7.8,11.3,4.9,10.5-1.1
		l-1.6-11.9l-4.1-23.5l0.3-18.6v0.4l0-0.5l4,5.6c0.8,1.1,2,1.8,3.2,2l9.5,1.8v15.3h-8.2c-1,0-1.9,0.9-1.9,1.9s0.9,1.9,1.9,1.9h38.4
		v8.5c-0.2,0.1-0.4,0.2-0.6,0.4h0L67.3,87.8c-0.8,0.7-0.8,1.9-0.1,2.7c0.7,0.8,1.9,0.8,2.7,0.1l9.9-9.4v8.6c0,1,0.9,1.9,1.9,1.9
		s1.9-0.9,1.9-1.9v-8.2l9.6,9.1c0.7,0.7,1.9,0.7,2.7-0.1c0.7-0.7,0.7-1.9-0.1-2.7L83.9,76.5c-0.1-0.1-0.2-0.1-0.3-0.2v-8.7H121
		c1,0,1.9-0.9,1.9-1.9s-0.9-1.9-1.9-1.9h-8.3V16.5h8.1c1,0,1.9-0.9,1.9-1.9s-0.9-1.9-1.9-1.9H83.4V7.1c0-1-0.9-1.9-1.9-1.9
		s-1.9,0.9-1.9,1.9v5.6H41.4c-1,0-1.9,0.9-1.9,1.9s0.9,1.9,1.9,1.9h8.2v21.7l-5.8-1.1l-8.1-11.2c-0.7-1-1.8-1.7-2.9-1.9
		C31.1,23.3,29,23,26.8,23L26.8,23z M54.7,39.2L66.4,27c0.5-0.5,1.2-0.5,1.8,0c0.5,0.5,0.5,1.2,0,1.8L57,40.4
		c1.2,1.1,1.8,2.8,1.5,4.6c-0.5,2.4-2.6,4.1-5,4.1v14.6h55.4V16.5H53.5V39l1,0.2C54.5,39.2,54.6,39.2,54.7,39.2L54.7,39.2z M22.5,0
		c5.9,0,10.6,4.8,10.6,10.6c0,5.9-4.8,10.6-10.6,10.6c-5.9,0-10.6-4.8-10.6-10.6C11.9,4.8,16.6,0,22.5,0L22.5,0z"/>
</g>
</svg>
