<?xml version="1.0" encoding="utf-8"?>
<!-- Generator: Adobe Illustrator 27.0.1, SVG Export Plug-In . SVG Version: 6.00 Build 0)  -->
<svg version="1.1" id="Layer_1" xmlns="http://www.w3.org/2000/svg" xmlns:xlink="http://www.w3.org/1999/xlink" x="0px" y="0px"
	 viewBox="0 0 122.9 122.9" style="enable-background:new 0 0 122.9 122.9;" xml:space="preserve">
<style type="text/css">
	.st0{fill-rule:evenodd;clip-rule:evenodd;fill:#FFFFFF;}
</style>
<g>
	<path class="st0" d="M71.1,50.2l2.1,2.1c0.6,0.6,0.6,1.5,0,2L71.5,56c0.5,0.9,0.8,1.8,1.1,2.8h2.2c0.8,0,1.4,0.7,1.4,1.4v3
		c0,0.8-0.7,1.4-1.4,1.4h-2.4c-0.3,1-0.7,1.9-1.3,2.8l1.6,1.6c0.6,0.6,0.6,1.5,0,2l-2.1,2.1c-0.6,0.6-1.5,0.6-2,0l-1.7-1.7
		C66,72,65,72.4,64,72.6v2.2c0,0.8-0.7,1.4-1.4,1.4h-3c-0.8,0-1.4-0.7-1.4-1.4v-2.4c-1-0.3-1.9-0.7-2.8-1.3l-1.6,1.6
		c-0.6,0.6-1.5,0.6-2,0l-2.1-2.1c-0.6-0.6-0.6-1.5,0-2l1.7-1.7C50.8,66,50.5,65,50.3,64H48c-0.8,0-1.4-0.7-1.4-1.4v-3
		c0-0.8,0.7-1.4,1.4-1.4h2.4c0.3-1,0.7-1.9,1.3-2.8l-1.6-1.6c-0.6-0.6-0.6-1.5,0-2l2.1-2.1c0.6-0.6,1.5-0.6,2,0l1.7,1.7
		c0.9-0.5,1.8-0.8,2.8-1.1v-2.2c0-0.8,0.7-1.4,1.4-1.4h3c0.8,0,1.4,0.7,1.4,1.4v2.4c1,0.3,1.9,0.7,2.8,1.3l1.6-1.6
		C69.7,49.6,70.6,49.6,71.1,50.2L71.1,50.2L71.1,50.2z M25.4,40.7l15.3-15.3c-0.3-1.4-0.4-2.8-0.4-4.2c0-5.8,2.4-11.1,6.2-14.9
		c3.8-3.8,9.1-6.2,15-6.2s11.1,2.4,15,6.2c3.8,3.8,6.2,9.1,6.2,14.9c0,1.5-0.2,2.9-0.4,4.2l15.3,15.3c1.4-0.3,2.8-0.4,4.2-0.4
		c5.8,0,11.1,2.4,14.9,6.2s6.2,9.1,6.2,15s-2.4,11.1-6.2,15c-3.8,3.8-9.1,6.2-14.9,6.2c-1.5,0-2.9-0.2-4.2-0.4L82.2,97.5
		c0.3,1.4,0.4,2.8,0.4,4.2c0,5.8-2.4,11.1-6.2,14.9s-9.1,6.2-15,6.2s-11.1-2.4-15-6.2c-3.8-3.8-6.2-9.1-6.2-14.9
		c0-1.5,0.2-2.9,0.4-4.2L25.4,82.2c-1.4,0.3-2.8,0.4-4.2,0.4c-5.8,0-11.1-2.4-14.9-6.2C2.4,72.6,0,67.3,0,61.4s2.4-11.1,6.2-15
		c3.8-3.8,9.1-6.2,14.9-6.2C22.6,40.3,24,40.5,25.4,40.7L25.4,40.7z M43.3,32.1L32.1,43.3c1.5,0.9,2.8,2,4,3.2
		c3.8,3.8,6.2,9.1,6.2,15s-2.4,11.1-6.2,14.9c-1.2,1.2-2.5,2.3-4,3.2l11.3,11.3c0.9-1.5,2-2.8,3.2-4c3.8-3.8,9.1-6.2,15-6.2
		s11.1,2.4,14.9,6.2c1.2,1.2,2.3,2.6,3.2,4l11.3-11.3c-1.5-0.9-2.8-1.9-4-3.2c-3.8-3.8-6.2-9.1-6.2-15s2.4-11.1,6.2-15
		c1.2-1.2,2.6-2.3,4-3.2L79.5,32.1c-0.9,1.5-1.9,2.8-3.2,4c-3.8,3.8-9.1,6.2-15,6.2s-11.1-2.4-15-6.2C45.3,34.9,44.2,33.5,43.3,32.1
		L43.3,32.1z M73.2,9.3c-3-3-7.2-4.9-11.8-4.9s-8.8,1.9-11.8,4.9s-4.9,7.2-4.9,11.8s1.9,8.8,4.9,11.8s7.2,4.9,11.8,4.9
		s8.8-1.9,11.8-4.9s4.9-7.2,4.9-11.8S76.3,12.4,73.2,9.3L73.2,9.3z M10.1,61.5c0-3.5,1-6.2,2.9-8.1c1.9-1.9,4.6-2.9,8.1-2.9
		c3.6,0,6.3,1,8.2,2.9c1.9,1.9,2.9,4.6,2.9,8c0,2.5-0.4,4.5-1.3,6.1c-0.8,1.6-2.1,2.8-3.6,3.7c-1.6,0.9-3.6,1.3-5.9,1.3
		c-2.4,0-4.4-0.4-6-1.2c-1.6-0.8-2.9-2-3.8-3.7C10.6,66,10.1,64,10.1,61.5L10.1,61.5z M16.7,61.5c0,2.2,0.4,3.7,1.2,4.7
		c0.8,0.9,1.9,1.4,3.3,1.4c1.4,0,2.5-0.5,3.3-1.4c0.8-0.9,1.2-2.6,1.2-5c0-2-0.4-3.5-1.2-4.4c-0.8-0.9-1.9-1.4-3.3-1.4
		c-1.3,0-2.4,0.5-3.2,1.4C17.1,57.7,16.7,59.3,16.7,61.5L16.7,61.5z M32.9,73.2c3-3,4.9-7.2,4.9-11.8s-1.9-8.8-4.9-11.8
		s-7.2-4.9-11.8-4.9s-8.8,1.9-11.8,4.9s-4.9,7.2-4.9,11.8s1.9,8.8,4.9,11.8s7.2,4.9,11.8,4.9S29.9,76.3,32.9,73.2L32.9,73.2z
		 M52.3,92.1h18.2v4.8h-6.1v14.6h-6V96.8h-6.1V92.1L52.3,92.1z M73.2,89.9c-3-3-7.2-4.9-11.8-4.9s-8.8,1.9-11.8,4.9
		s-4.9,7.2-4.9,11.8s1.9,8.8,4.9,11.8s7.2,4.9,11.8,4.9s8.8-1.9,11.8-4.9s4.9-7.2,4.9-11.8S76.3,93,73.2,89.9L73.2,89.9z M89.7,52.8
		h5.1l1.8,9.6l2.7-9.6h5l2.7,9.7l1.8-9.7h5L110,70.1h-5.2l-3-10.9l-3,10.9h-5.2L89.7,52.8L89.7,52.8z M113.5,73.2
		c3-3,4.9-7.2,4.9-11.8s-1.9-8.8-4.9-11.8s-7.2-4.9-11.8-4.9s-8.8,1.9-11.8,4.9S85,56.8,85,61.4s1.9,8.8,4.9,11.8s7.2,4.9,11.8,4.9
		S110.5,76.3,113.5,73.2L113.5,73.2z M52.1,24.6l6.1-0.4c0.1,1,0.4,1.7,0.8,2.2c0.7,0.8,1.6,1.2,2.8,1.2c0.9,0,1.6-0.2,2.1-0.6
		c0.5-0.4,0.7-0.9,0.7-1.5c0-0.5-0.2-1-0.7-1.4c-0.5-0.4-1.5-0.8-3.3-1.2c-2.8-0.6-4.8-1.5-6-2.5c-1.2-1-1.8-2.4-1.8-4
		c0-1.1,0.3-2.1,0.9-3c0.6-0.9,1.5-1.7,2.8-2.2c1.2-0.5,2.9-0.8,5.1-0.8c2.6,0,4.7,0.5,6,1.5c1.4,1,2.2,2.5,2.5,4.7l-6,0.4
		c-0.2-0.9-0.5-1.6-1-2c-0.5-0.4-1.2-0.6-2.1-0.6c-0.7,0-1.3,0.2-1.7,0.5s-0.6,0.7-0.6,1.1c0,0.3,0.2,0.6,0.5,0.9
		c0.3,0.3,1,0.5,2.1,0.8c2.8,0.6,4.8,1.2,6,1.8c1.2,0.6,2.1,1.4,2.6,2.3c0.6,0.9,0.8,1.9,0.8,3.1c0,1.3-0.4,2.5-1.1,3.7
		c-0.7,1.1-1.8,2-3.1,2.5c-1.3,0.6-3,0.9-5,0.9c-3.5,0-5.9-0.7-7.3-2C53,28.4,52.3,26.7,52.1,24.6L52.1,24.6z M61.4,55.5
		c3.3,0,5.9,2.7,5.9,5.9c0,3.3-2.7,5.9-5.9,5.9c-3.3,0-5.9-2.7-5.9-5.9C55.5,58.2,58.2,55.5,61.4,55.5L61.4,55.5L61.4,55.5z"/>
</g>
</svg>
