<?xml version="1.0" encoding="utf-8"?>
<!-- Generator: Adobe Illustrator 27.0.1, SVG Export Plug-In . SVG Version: 6.00 Build 0)  -->
<svg version="1.1" id="Layer_1" xmlns="http://www.w3.org/2000/svg" xmlns:xlink="http://www.w3.org/1999/xlink" x="0px" y="0px"
	 viewBox="0 0 91.2 122.9" style="enable-background:new 0 0 91.2 122.9;" xml:space="preserve">
<style type="text/css">
	.st0{fill-rule:evenodd;clip-rule:evenodd;fill:#FFFFFF;}
</style>
<path class="st0" d="M55.9,24.6c5.6-3.5,13-1.8,16.5,3.8c3.5,5.6,1.8,13-3.8,16.5c-4.2,2.7-9.7,2.4-13.7-0.6l-4.5,4.9
	c-0.6,0.6-1.5,0.7-2.2,0.1s-0.7-1.5-0.1-2.2l4.6-5c-0.3-0.3-0.5-0.7-0.8-1.1C48.6,35.4,50.3,28,55.9,24.6L55.9,24.6z M13.3,0h44.1
	c7.3,0,13.3,5.9,13.3,13.3v6c-1.4-0.8-2.9-1.3-4.5-1.7h-0.1v-4.4H4.6v91.3h61.5V73.6c1.3,1.3,2.9,2.4,4.6,3.3v32.7
	c0,7.3-5.9,13.3-13.3,13.3H13.3c-7.3,0-13.3-5.9-13.3-13.3V13.3C0,5.9,5.9,0,13.3,0C13.3,0,13.3,0,13.3,0z M35.3,108.6
	c3,0,5.5,2.4,5.5,5.5c0,3-2.4,5.5-5.5,5.5c-3,0-5.5-2.4-5.5-5.5c0,0,0,0,0,0C29.8,111,32.2,108.6,35.3,108.6
	C35.3,108.6,35.3,108.6,35.3,108.6z M70.3,51.5c5-4.7,12.9-4.4,17.6,0.7s4.4,12.9-0.7,17.6s-12.9,4.4-17.6-0.7
	c-1.2-1.3-2.1-2.7-2.6-4.3l-6.8,1.6c-0.8,0.2-1.7-0.3-1.8-1.2c-0.2-0.8,0.3-1.7,1.1-1.8l0,0l6.9-1.6C66,57.9,67.5,54.1,70.3,51.5
	L70.3,51.5z M15.2,76.8c-0.2,1-0.1,2,0.2,3c0.2,0.5,0.3,1,0.6,1.4c0.2,0.5,0.5,0.9,0.8,1.4c0.3,0.4,0.6,0.9,1,1.2
	c0.3,0.4,0.7,0.7,1.1,1l0,0c0.9,0.7,1.9,1.2,3,1.3c1.4,0.1,3.4-1,4.6-1.8l0.3-0.2l0,0l1.4-0.9c0.3-0.2,0.6-0.2,0.9-0.1
	c0.3,0.1,0.5,0.2,0.7,0.5c0,0,0.1,0.1,0.1,0.2l0.5,0.8l0,0c0.6,1.1,1.2,2.1,1.8,3.2c0.6,1,1.2,1.9,1.8,2.8l0,0l0.1,0.1
	c0.1,0.1,0.2,0.2,0.3,0.4l0,0c0.4,0.5,0.8,1,1.2,1.5c0.3,0.4,0.7,0.8,1.1,1.1l0,0c0.2,0.2,0.5,0.2,0.8,0.2c0.4-0.1,0.8-0.4,1-0.8
	c0.1-0.1,0.2-0.2,0.2-0.4l0.2-0.4l0,0c0.2-0.4,0.4-0.7,0.6-1.1c0.1-0.3,0.2-0.6,0.2-0.9l-0.5-0.1l0,0c-1.2-0.2-2.5-0.3-2.9-2.7l0,0
	v-0.3c0-0.3-0.1-0.6-0.1-0.7s0-0.2,0-0.2l0,0l-0.4-0.2l-0.1-0.1l0,0c-0.4-0.2-0.7-0.5-1-0.8c-0.3-0.4-0.5-0.8-0.6-1.3l0,0
	c-0.1-0.5-0.2-1-0.2-1.5c0-0.5,0-1.1,0-1.6l0,0c0-0.2,0.1-0.4,0.2-0.5l0,0c0.1-0.2,0.3-0.3,0.4-0.4l0,0c2.9-1.3,5.9-2.3,9-2.8
	c1.9-0.3,3.8-0.4,5.7-0.4c-3.9-2.8-7.2-6.2-10-10.1c-3-3.9-5.2-8.3-6.8-12.9c-1,2.9-2.3,5.7-3.9,8.3C26.3,65.6,15.8,74.3,15.2,76.8z
	 M38.2,61.1c1.1-0.5,2.3-0.7,3.5-0.5c3.1,0.2,5.5,2.9,5.3,6c0,0,0,0.1,0,0.1c-0.2,1.4-0.6,2.8-1.3,4.1c0.7,0.6,1.3,1.2,2.1,1.9
	c1,0.9,2.1,1.7,3.2,2.4c0.9,0.6,1.9,1.1,2.9,1.5l0.3-0.1c0.1,0,0.2-0.1,0.2-0.1c0.1-0.1,0.1-0.1,0.2-0.2c0.2-0.4,0.3-0.7,0.3-1.1
	c0.1-0.5,0.1-1,0-1.6c-0.4-2.1-1.1-4.1-2-6c-1.3-2.6-2.9-5.1-4.6-7.5c-1.7-2.3-3.6-4.6-5.7-6.6c-1.6-1.6-3.3-3-5.2-4.2l0,0
	c-0.5-0.3-1.1-0.5-1.6-0.7l0,0c-0.4-0.1-0.7-0.2-1.1-0.1l0,0h-0.2l0,0l0,0l-0.1,0.2c0,0,0,0.1-0.1,0.1v0.1l0,0l0,0
	c-0.1,1.2,0,2.5,0.4,3.7c0.5,1.8,1.2,3.5,2,5.2c0.6,1.2,1.2,2.3,1.7,3.3L38.2,61.1z M50.2,79.1L50.2,79.1c-4.9-0.1-9.7,0.8-14.2,2.8
	c0,0.2,0,0.5,0,0.7c0,0.3,0.1,0.6,0.1,0.8l0,0c0,0.2,0.1,0.3,0.2,0.5c0,0.1,0.1,0.2,0.2,0.2l0.1,0.1l0,0c0.5,0.2,1,0.5,1.4,1l0,0
	c0.3,0.5,0.4,1.1,0.5,1.7l0,0v0.1l0,0v0.3l0,0c0.1,0.7,0.5,0.7,0.9,0.8l0,0c1.9,0.2,2.6,1.1,2.6,2.3c-0.1,1.2-0.6,2.4-1.3,3.3l0,0
	l-0.2,0.3l-0.2,0.3v0.1l0,0c-0.5,0.9-1.4,1.6-2.5,1.9c-0.9,0.1-1.8-0.1-2.5-0.7c-1-0.9-2-1.9-2.7-3l-0.1-0.2l-0.1-0.2l0,0L32,91.8
	l0,0c-0.7-0.9-1.3-1.9-1.9-2.9c-0.6-1-1.2-2-1.8-3.2l0,0L28,86l0,0l-0.4,0.3l0,0c-1.8,1.2-3.4,2.3-5.9,2c-1.5-0.2-3-0.8-4.2-1.8
	c-0.5-0.4-1-0.8-1.4-1.3c-0.4-0.5-0.8-1-1.2-1.5c-0.4-0.5-0.7-1.1-0.9-1.7c-0.3-0.6-0.5-1.1-0.7-1.7l0,0c-0.4-1.3-0.5-2.7-0.3-4.1
	c1.3-5.5,13.5-11.5,17.9-25.4l0,0c0.2-0.7,0.4-1.3,0.6-1.8l0,0c0.2-0.5,0.4-1,0.6-1.5l0,0c0.1-0.2,0.2-0.3,0.3-0.5
	c0.1-0.2,0.3-0.3,0.4-0.4c0.2-0.1,0.4-0.2,0.6-0.3c0.2-0.1,0.4-0.1,0.7-0.2c0.7-0.1,1.4,0,2,0.2c0.8,0.2,1.5,0.6,2.2,1l0,0
	c2.1,1.3,4,2.7,5.7,4.5c2.2,2.2,4.2,4.5,6,6.9c1.9,2.5,3.5,5.1,4.9,7.9c1.1,2.1,1.8,4.3,2.2,6.6c0.1,0.8,0.1,1.5,0,2.3
	c-0.1,0.7-0.3,1.3-0.6,1.9l0,0c-0.9,1.6-3.9,1.6-5.7,1.6L50.2,79.1z M81,56.2l2.9-0.7c0.9-0.2,1.8,0.3,2,1.2c0,0,0,0,0,0l0.7,2.8
	c0.2,0.9-0.4,1.8-1.2,2L84,61.9c0.3,0.7,0.8,1.3,1.5,1.7c-1.2,0-2.5-0.5-3.4-1.3l-0.2,0h-0.3c0.4-0.4,0.6-1,0.5-1.6l-0.3-1.2
	l-0.2-1.1l-0.4-1.8C81.1,56.6,81.1,56.4,81,56.2L81,56.2z M72.8,56.8l4.5-1l0,0c1.2-0.2,2.4,0.5,2.7,1.7l0,0l0.7,3.2l0,0
	c0.1,0.7-0.2,1.4-0.7,1.9c-0.5,0.5-1.1,0.8-1.7,1l0,0c-0.3,0.6-0.7,1.1-1.1,1.6c-0.5,0.5-1.1,1-1.8,1.3l0,0c-0.1,0.1-0.3,0.1-0.4,0
	c-0.2-0.1-0.2-0.4-0.1-0.6c0.2-0.3,0.4-0.7,0.5-1.1c0-0.2,0.1-0.4,0.1-0.6l-0.9,0.2l0,0c-1.2,0.3-2.5-0.5-2.7-1.7c0,0,0,0,0,0l0,0
	L71,59.5l0,0C70.7,58.3,71.5,57.1,72.8,56.8L72.8,56.8z M59.1,34.4l2.9-3.3c-0.1-0.1-0.1-0.2-0.2-0.4l0,0c-0.5-1.2,0.1-2.5,1.3-3
	c1.2-0.5,2.5,0.1,3,1.3c0.5,1.2-0.1,2.5-1.3,3c-0.4,0.2-0.9,0.2-1.4,0.1l-3.1,3.5c0,0,0,0.1,0,0.1l0.1,0.2l4.3,0.3
	c0.5-1.1,1.9-1.6,3-1.1c0.5,0.2,0.9,0.7,1.1,1.2c0.5,1.2-0.1,2.5-1.2,3s-2.5-0.1-3-1.2l0,0v-0.1l-4.3-0.3c-0.6,1.1-1.9,1.6-3.1,1
	c-1.1-0.6-1.6-1.9-1-3.1C56.8,34.5,58,34,59.1,34.4L59.1,34.4z"/>
</svg>
