<?xml version="1.0" encoding="utf-8"?>
<!-- Generator: Adobe Illustrator 27.0.1, SVG Export Plug-In . SVG Version: 6.00 Build 0)  -->
<svg version="1.1" id="Layer_1" xmlns="http://www.w3.org/2000/svg" xmlns:xlink="http://www.w3.org/1999/xlink" x="0px" y="0px"
	 viewBox="0 0 121.7 122.9" style="enable-background:new 0 0 121.7 122.9;" xml:space="preserve">
<style type="text/css">
	.st0{fill:#FFFFFF;}
</style>
<path class="st0" d="M53.6,0c29.6,0,53.6,24,53.6,53.6c0,10.4-3,20.6-8.8,29.4l23.2,25.3l-16,14.6L83.3,98.3
	C58.7,114.7,25.4,108,9,83.3S-0.7,25.4,23.9,9C32.7,3.1,43,0,53.6,0z M72.1,32.7l-1.9-2.4c-0.3-0.3-0.4-0.8-0.3-1.2
	c0.3-1,1.5-0.9,2.3-0.8c2.3,0.2,7.6,0.2,8.8,0.3c0.7,0,1.2,0.6,1.2,1.3c0,0.1,0,0.2,0,0.3c-0.2,1.2-1.3,6.8-1.7,9
	c-0.1,0.8-0.4,1.7-1.3,1.8c-0.4,0-0.8-0.2-1.1-0.5l-1.9-2.4l-0.8-1l-9.2,7v0.2c0,3.1-2.5,5.6-5.6,5.6S55,47.2,55,44.1
	c0-0.1,0-0.2,0-0.4L48.5,39c-2.1,1.4-4.8,1.3-6.8-0.3l-6.3,4.5c0.8,3-0.9,6.1-3.9,6.9c-3,0.8-6.1-0.9-6.9-3.9
	c-0.8-3,0.9-6.1,3.9-6.9c0.5-0.1,1-0.2,1.5-0.2c0.8,0,1.6,0.2,2.3,0.5l7.4-5.3c0-3.1,2.6-5.6,5.7-5.5c3.1,0,5.6,2.6,5.5,5.7v0.4
	l6.5,4.7c2-1.4,4.6-1.3,6.5,0.1l8.5-6.5L72.1,32.7L72.1,32.7z M72,47.1h7.7c0.4,0,0.8,0.4,0.8,0.8v30c0,0.4-0.4,0.8-0.8,0.8H72
	c-0.4,0-0.8-0.4-0.8-0.8V48C71.2,47.6,71.6,47.2,72,47.1L72,47.1z M56.7,57.4h7.7c0.4,0,0.8,0.4,0.8,0.8V78c0,0.4-0.4,0.8-0.8,0.8
	h-7.7c-0.4,0-0.8-0.4-0.8-0.8V58.2C55.9,57.8,56.3,57.4,56.7,57.4C56.7,57.4,56.7,57.4,56.7,57.4L56.7,57.4z M41.4,47.1h7.7
	c0.4,0,0.8,0.3,0.9,0.7c0,0,0,0.1,0,0.1v30c0,0.4-0.4,0.8-0.8,0.8h-7.8c-0.4,0-0.8-0.4-0.8-0.8V48C40.6,47.6,41,47.2,41.4,47.1
	L41.4,47.1z M26.1,59.1h7.7c0.4,0,0.8,0.4,0.8,0.8c0,0,0,0,0,0v18c0,0.4-0.4,0.8-0.8,0.8h-7.7c-0.4,0-0.8-0.4-0.8-0.8V59.9
	C25.3,59.5,25.7,59.1,26.1,59.1L26.1,59.1L26.1,59.1z M87.3,19.9C68.7,1.4,38.5,1.4,19.9,20S1.4,68.8,20,87.4s48.8,18.5,67.4-0.1
	c8.9-8.9,13.9-21.1,13.9-33.7C101.3,41,96.3,28.8,87.3,19.9z"/>
</svg>
