<?xml version="1.0" encoding="utf-8"?>
<!-- Generator: Adobe Illustrator 27.0.1, SVG Export Plug-In . SVG Version: 6.00 Build 0)  -->
<svg version="1.1" id="Layer_1" xmlns="http://www.w3.org/2000/svg" xmlns:xlink="http://www.w3.org/1999/xlink" x="0px" y="0px"
	 viewBox="0 0 122.9 85.7" style="enable-background:new 0 0 122.9 85.7;" xml:space="preserve">
<style type="text/css">
	.st0{fill-rule:evenodd;clip-rule:evenodd;fill:#FFFFFF;}
</style>
<path class="st0" d="M0,85.7c1-13-1.5-12.4,9.3-16.5c5.4-2,12.3-4.6,17.3-7.7l9.3,24.2H0z M92.2,32.5c-1.5-0.4-3-1-4.4-1.7l1-4.9
	l1.4,0.4c1.9,0.6,3.9,1,5.9,1.3c0.4,0.1,0.7,0.1,1.1,0c0.5-0.2,0.8-0.8,0.6-1.3c-0.1-0.2-0.2-0.4-0.4-0.5c-0.6-0.2-1.2-0.3-1.8-0.4
	c-1-0.2-1.9-0.5-2.8-0.9c-1.5-0.7-2.6-2.1-2.9-3.8c-0.1-1-0.1-2,0.1-3l0.2-0.9c0.2-0.9,0.5-1.8,1-2.6c1.2-1.7,3.1-2.6,5.1-2.5
	l0.4-2.2l4.5,0.9l-0.4,2.1c1.4,0.4,2.8,0.9,4.1,1.6l0.3,0.1l-1,4.9l-0.4-0.1c-2-0.6-4.1-1.1-6.2-1.4c-0.5-0.1-0.9-0.1-1.4,0.1
	c-0.5,0.5-0.5,1.2-0.1,1.7c0.1,0.1,0.1,0.1,0.2,0.2c0.2,0.1,0.4,0.2,0.7,0.2c1.2,0.2,2.4,0.5,3.6,0.9c0.5,0.2,1,0.5,1.4,0.9
	c0.8,0.7,1.3,1.5,1.6,2.5c0.1,0.5,0.2,1,0.2,1.5c-0.1,1.6-0.4,3.3-1,4.8c-0.3,0.6-0.6,1.2-1.1,1.6c-1.4,1.2-3.2,1.8-5,1.5l-0.5,2.3
	l-4.5-0.9L92.2,32.5L92.2,32.5z M46.6,72.8h1.3c1.2,0,2.1-0.9,2.1-2.1c0,0,0,0,0,0v-3.5c0-1.2-1-2.1-2.1-2.1h-7.7
	c-1.2,0-2.1,0.9-2.1,2.1c0,0,0,0,0,0v3.5c0,1.2,1,2.1,2.1,2.1h1.3l-2.5,12.8H49L46.6,72.8z M104.7,5.6L87.2,3.3
	c-1.1-0.2-2.2-0.1-3.2,0.2c-1,0.3-2,0.8-2.8,1.4c-0.9,0.6-1.6,1.4-2.1,2.4c-0.5,0.9-0.9,2-1,3.1l-2.2,17c-0.2,1.1-1.4,4.8-1.1,5.8
	c0.8,3.2,3.5,5.6,6.8,6l7.5,1c0.9,0.1,1.5,0.9,1.4,1.8c0,0.2-0.1,0.4-0.2,0.5c-0.4,1-0.9,2-1.4,3s-1,2-1.6,2.9
	c-0.3,0.5-0.6,0.9-1,1.4c1.6-0.5,3.1-1.1,4.6-1.8c1.5-0.7,2.9-1.6,4.3-2.5c1.4-1,2.6-2.1,3.8-3.3c0.4-0.4,0.9-0.5,1.4-0.5l6.4,0.8
	c1.1,0.2,2.1,0.1,3.2-0.2c1-0.3,2-0.8,2.8-1.4c0.9-0.7,1.6-1.5,2.2-2.4c0.5-0.9,0.9-2,1-3l3.6-19.6c0.6-4.4-2.4-8.5-6.8-9.1
	c-0.1,0-0.1,0-0.2,0L104.7,5.6L104.7,5.6L104.7,5.6z M95.6,1.2L113,3.5c1.5,0.2,2.9,0.7,4.2,1.4c1.3,0.8,2.4,1.8,3.3,3
	c0.9,1.2,1.6,2.5,2,4c0.4,1.4,0.5,3,0.2,4.4l-3.6,19.6c-0.2,1.5-0.7,2.9-1.4,4.2c-0.8,1.3-1.8,2.4-3,3.3c-2.4,1.9-5.4,2.7-8.4,2.2
	l-5.6-0.8c-1.1,1.1-2.3,2.1-3.6,3c-1.5,1.1-3.1,2-4.8,2.8c-1.7,0.8-3.5,1.5-5.3,2c-1.9,0.5-3.9,0.9-5.8,1.2
	c-0.6,0.1-1.2-0.2-1.5-0.7c-0.5-0.7-0.3-1.7,0.4-2.2c1-0.6,1.8-1.4,2.7-2.2c0.7-0.7,1.3-1.5,1.8-2.3l0,0c0.5-0.9,1-1.8,1.5-2.7
	l0.5-1l-5.4-0.7c-1.5-0.2-2.9-0.7-4.2-1.4c-2.6-1.5-4.5-4-5.3-6.9c-0.4-1.4,0.8-5.5,1-7l2.3-17C75,8.4,75.5,7,76.2,5.7
	c0.8-1.3,1.8-2.4,3-3.3c1.2-0.9,2.5-1.6,4-2c1.4-0.4,2.9-0.5,4.4-0.3L95.6,1.2L95.6,1.2L95.6,1.2z M33.1,54.1
	c0.2-2-5.7-9.6-6.7-13.2c-2.3-3.7-3.1-9.5-0.6-13.4c1-1.5,0.6-4.3,0.6-6.4c0-21.1,37-21.1,37,0c0,2.7-0.6,4.7,0.8,6.8
	c2.4,3.5,1.2,9.7-0.9,13C62,44.7,55.8,52,56.2,54.1C56.6,65,33,64.6,33.1,54.1z M61.8,60.4c4.6,2.9,11,5.3,16.2,7
	c10.1,3.4,10.1,3.8,10,18.2H52.2L61.8,60.4L61.8,60.4z"/>
</svg>
