<?xml version="1.0" encoding="utf-8"?>
<!-- Generator: Adobe Illustrator 27.0.1, SVG Export Plug-In . SVG Version: 6.00 Build 0)  -->
<svg version="1.1" id="Layer_1" xmlns="http://www.w3.org/2000/svg" xmlns:xlink="http://www.w3.org/1999/xlink" x="0px" y="0px"
	 viewBox="0 0 122.9 98.5" style="enable-background:new 0 0 122.9 98.5;" xml:space="preserve">
<style type="text/css">
	.st0{fill-rule:evenodd;clip-rule:evenodd;fill:#90CAF8;}
	.st1{fill:#FFFFFF;}
</style>
<g>
	<path class="st0" d="M68.4,4.8c21.1,0,38.2,17.1,38.2,38.2c0,21.1-17.1,38.2-38.2,38.2c-10.8,0-20.5-4.5-27.5-11.7H53
		c0.9,0,1.8-0.1,2.6-0.4c3.9,1.9,8.2,3,12.8,3c16.1,0,29.1-13,29.1-29.1c0-16.1-13-29.1-29.1-29.1c-4.7,0-9.1,1.1-13.1,3.1
		c-1-0.4-2-0.6-3.1-0.6H41C47.9,9.2,57.6,4.8,68.4,4.8L68.4,4.8L68.4,4.8z"/>
	<path class="st1" d="M26.4,35.1H15.2v-3c0-1.4-0.1-2.3-0.4-2.6c-0.3-0.4-0.8-0.6-1.4-0.6c-0.7,0-1.3,0.2-1.6,0.8
		c-0.4,0.5-0.6,1.3-0.6,2.3c0,1.3,0.2,2.3,0.6,3c0.4,0.7,1.5,1.5,3.4,2.4c5.3,2.8,8.7,5,10,6.8c1.4,1.8,2.1,4.6,2.1,8.5
		c0,2.8-0.4,4.9-1.2,6.3s-2.2,2.5-4.4,3.4c-2.2,0.9-4.8,1.4-7.7,1.4c-3.2,0-5.9-0.5-8.2-1.6c-2.3-1-3.7-2.4-4.4-4
		c-0.7-1.6-1-3.9-1-6.9v-2.6h11.1v4.8c0,1.5,0.2,2.5,0.5,2.9c0.3,0.4,0.9,0.6,1.7,0.6c0.8,0,1.4-0.3,1.8-0.8
		c0.4-0.5,0.6-1.3,0.6-2.4c0-2.3-0.4-3.9-1.1-4.6c-0.8-0.7-2.6-1.9-5.6-3.6c-3-1.7-4.9-3-5.9-3.7C2.4,41,1.6,40,1,38.6
		c-0.6-1.4-1-3.1-1-5.2c0-3,0.4-5.3,1.4-6.7s2.3-2.5,4.4-3.3c2-0.8,4.4-1.2,7.3-1.2c3.1,0,5.8,0.4,8,1.3c2.2,0.9,3.6,2,4.4,3.3
		c0.7,1.3,1.1,3.6,1.1,6.7V35.1L26.4,35.1z M68.3,0c11.9,0,22.6,4.8,30.4,12.6c7.8,7.8,12.6,18.5,12.6,30.4c0,8.7-2.6,16.8-7,23.5
		l18.6,20.3l-12.8,11.7L92.1,78.8c-6.8,4.5-15,7.2-23.8,7.2c-11.9,0-22.6-4.8-30.4-12.6c-1.2-1.2-2.4-2.5-3.4-3.9h6.3
		c0.2,0.2,0.3,0.3,0.5,0.5c6.9,6.9,16.5,11.2,27,11.2s20.1-4.3,27-11.2s11.2-16.5,11.2-27s-4.3-20.1-11.2-27l0,0l0,0
		c-6.9-6.9-16.5-11.2-27-11.2S48.2,9.1,41.3,16c-0.1,0.1-0.3,0.3-0.4,0.4h-6.4c1-1.3,2.2-2.6,3.4-3.8C45.7,4.8,56.5,0,68.3,0L68.3,0
		L68.3,0L68.3,0z M31.6,23h20.6v8h-8.5v7.6h8v7.6h-8v8.8H53v8H31.6V23L31.6,23z M84.8,46.4c0,4-0.1,6.8-0.3,8.5
		c-0.2,1.7-0.9,3.2-2,4.6s-2.7,2.4-4.7,3.2c-2,0.7-4.2,1.1-6.8,1.1c-2.5,0-4.7-0.3-6.6-1s-3.5-1.7-4.7-3.1c-1.2-1.4-1.9-2.9-2.1-4.5
		c-0.2-1.7-0.3-4.5-0.3-8.6v-6.8c0-4,0.1-6.8,0.3-8.5c0.2-1.7,0.9-3.2,2-4.6s2.7-2.4,4.7-3.2s4.2-1.1,6.8-1.1c2.5,0,4.7,0.4,6.6,1
		c2,0.7,3.6,1.7,4.7,3.1c1.2,1.4,1.9,2.9,2.1,4.5c0.2,1.7,0.3,4.5,0.3,8.6L84.8,46.4L84.8,46.4z M72.8,33.3c0-1.9-0.1-3-0.3-3.5
		C72.2,29.2,71.7,29,71,29c-0.6,0-1.1,0.2-1.4,0.6c-0.3,0.4-0.5,1.6-0.5,3.7v18.6c0,2.3,0.1,3.7,0.3,4.3c0.2,0.5,0.7,0.8,1.5,0.8
		c0.8,0,1.3-0.3,1.5-0.9s0.3-2.1,0.3-4.5V33.3L72.8,33.3z"/>
</g>
</svg>
