<?xml version="1.0" encoding="UTF-8"?>
<svg id="Layer_2" data-name="Layer 2" xmlns="http://www.w3.org/2000/svg" xmlns:xlink="http://www.w3.org/1999/xlink" viewBox="0 0 807.68 572.75">
  <defs>
    <style>
      .cls-1 {
        fill: url(#linear-gradient-2);
      }

      .cls-2 {
        fill: url(#linear-gradient-6);
      }

      .cls-3 {
        fill: url(#linear-gradient-11);
      }

      .cls-4 {
        fill: url(#linear-gradient-10);
      }

      .cls-5 {
        fill: url(#linear-gradient-5);
      }

      .cls-6 {
        fill: url(#linear-gradient-7);
      }

      .cls-7 {
        fill: url(#linear-gradient-9);
      }

      .cls-8 {
        fill: url(#linear-gradient-3);
      }

      .cls-9 {
        fill: url(#linear-gradient);
      }

      .cls-10 {
        fill: url(#linear-gradient-4);
      }

      .cls-11 {
        fill: url(#linear-gradient-8);
      }
    </style>
    <linearGradient id="linear-gradient" x1="-5.74" y1="-67.91" x2="60.1" y2="-67.91" gradientTransform="translate(138.96 257.81) rotate(-90)" gradientUnits="userSpaceOnUse">
      <stop offset="0" stop-color="#8b7250"/>
      <stop offset="1" stop-color="#493c2a"/>
    </linearGradient>
    <linearGradient id="linear-gradient-2" x1="-53.96" y1="-87.32" x2="-1.32" y2="-87.32" xlink:href="#linear-gradient"/>
    <linearGradient id="linear-gradient-3" x1="-116.71" y1="-67.91" x2="-50.86" y2="-67.91" xlink:href="#linear-gradient"/>
    <linearGradient id="linear-gradient-4" x1="-4742.9" y1="-1087.21" x2="-4742.9" y2="-898.63" gradientTransform="translate(-4520.57 -651.25) rotate(-180)" xlink:href="#linear-gradient"/>
    <linearGradient id="linear-gradient-5" x1="-4888.12" y1="-935.62" x2="-4888.12" y2="-855.55" gradientTransform="translate(-4520.57 -651.25) rotate(-180)" xlink:href="#linear-gradient"/>
    <linearGradient id="linear-gradient-6" x1="-4765.92" y1="-934.78" x2="-4765.92" y2="-855.55" gradientTransform="translate(-4520.57 -651.25) rotate(-180)" xlink:href="#linear-gradient"/>
    <linearGradient id="linear-gradient-7" x1="-4742.94" y1="-973.64" x2="-4742.94" y2="-785.17" gradientTransform="translate(-4520.57 -651.25) rotate(-180)" xlink:href="#linear-gradient"/>
    <linearGradient id="linear-gradient-8" x1="-4888.1" y1="-1016.77" x2="-4888.1" y2="-936.56" gradientTransform="translate(-4520.57 -651.25) rotate(-180)" xlink:href="#linear-gradient"/>
    <linearGradient id="linear-gradient-9" x1="-4765.85" y1="-1016.77" x2="-4765.85" y2="-937.6" gradientTransform="translate(-4520.57 -651.25) rotate(-180)" xlink:href="#linear-gradient"/>
    <linearGradient id="linear-gradient-10" x1="-53.31" y1="13.21" x2="-1.1" y2="13.21" xlink:href="#linear-gradient"/>
    <linearGradient id="linear-gradient-11" x1="-5183.8" y1="-729.61" x2="-4698.04" y2="-1060.18" gradientTransform="translate(-4520.57 -651.25) rotate(-180)" xlink:href="#linear-gradient"/>
  </defs>
  <g id="Warstwa_1" data-name="Warstwa 1">
    <g>
      <g>
        <path class="cls-9" d="M66.29,201.57c-.64-1.68-1.87-2.93-3.84-3.55-1.94-.59-4.6-.39-7.61,1.17-2.99,1.56-6.23,4.75-8.52,9.35-2.33,4.57-3.48,10.44-3.11,16.16,.11,2.9,.83,6.52,2.16,10.37,1.33,3.84,3.4,7.82,6.08,11.38,2.67,3.58,5.93,6.76,9.46,9.28,3.53,2.53,7.32,4.41,11.02,5.68,3.73,1.21,7.34,1.85,10.62,2.08,1.64,.08,3.2,.09,4.65,.03,1.45-.12,2.8-.21,4.02-.41,1.22-.22,2.32-.45,3.28-.68,.96-.24,1.78-.57,2.44-.83,1.33-.55,2.06-1.05,2.06-1.47,0-.37-.72-.88-1.98-1.49-1.41-.63-3.14-1.42-5.12-2.31-1.04-.48-2.15-1.08-3.32-1.64-1.16-.63-2.36-1.31-3.59-2.04-2.43-1.52-4.9-3.33-7.18-5.37-2.25-2.1-4.3-4.43-5.95-6.86-1.66-2.42-2.93-4.93-3.79-7.26-.88-2.32-1.34-4.46-1.56-6.2-.1-.43-.09-.84-.14-1.23-.04-.39-.1-.75-.09-1.08-.01-.33-.04-.65-.07-.94,0-.28,0-.54-.02-.78-.11-1.92-.21-3.47-.27-5.01-.06-1.54-.1-3.23,.11-5.08,.33-3.71,1.56-7.88,.28-11.28Z"/>
        <path class="cls-1" d="M39.61,259.12c20.25,10.3,48.67,13.07,52.42,13.4,.24,.02,.41,.18,.41,.37l9.86,10.05c1.3,1.33,1.3,3.68,0,5.01l-9.86,10.05c0,.19-.17,.35-.41,.37-3.75,.33-29.98,2.66-52.42,13.4-.17,.08-32.37-20.71-39.1-25.39-.68-.47-.68-1.39,0-1.87,6.73-4.68,38.93-25.48,39.1-25.39Z"/>
        <path class="cls-8" d="M66.29,370.66c-.64,1.68-1.87,2.93-3.84,3.55-1.94,.59-4.6,.39-7.61-1.17-2.99-1.56-6.23-4.75-8.52-9.35-2.33-4.57-3.48-10.44-3.11-16.16,.11-2.9,.83-6.52,2.16-10.37,1.33-3.84,3.4-7.82,6.08-11.38,2.67-3.58,5.93-6.76,9.46-9.28,3.53-2.53,7.32-4.41,11.02-5.68,3.73-1.21,7.34-1.85,10.62-2.08,1.64-.08,3.2-.09,4.65-.03,1.45,.12,2.8,.21,4.02,.41,1.22,.22,2.32,.45,3.28,.68,.96,.24,1.78,.57,2.44,.83,1.33,.55,2.06,1.05,2.06,1.47,0,.37-.72,.88-1.98,1.49-1.41,.63-3.14,1.42-5.12,2.31-1.04,.48-2.15,1.08-3.32,1.64-1.16,.63-2.36,1.31-3.59,2.04-2.43,1.52-4.9,3.33-7.18,5.37-2.25,2.1-4.3,4.43-5.95,6.86-1.66,2.42-2.93,4.93-3.79,7.26-.88,2.32-1.34,4.46-1.56,6.2-.1,.43-.09,.84-.14,1.23-.04,.39-.1,.75-.09,1.08-.01,.33-.04,.65-.07,.94,0,.28,0,.54-.02,.78-.11,1.92-.21,3.47-.27,5.01-.06,1.54-.1,3.23,.11,5.08,.33,3.71,1.56,7.88,.28,11.28Z"/>
        <path class="cls-10" d="M97.81,370.48c.93-.92,2.48-.97,4.48-.32,2.01,.65,4.53,2.05,7.52,3.94,1.54,1.02,3.18,2.1,4.86,3.24,.89,.59,1.78,1.24,2.66,1.89,.98,.59,1.92,1.24,2.9,1.94,1.96,1.4,4.06,2.7,6.26,4.15,2.2,1.35,4.49,2.86,6.91,4.15,4.86,2.75,10.09,5.23,15.6,6.96,2.76,.75,5.56,1.51,8.41,1.78,1.45,.22,2.9,.22,4.3,.32,1.45,0,2.9,.05,4.39-.16,5.84-.38,11.87-2.21,18.22-5.28,6.31-3.13,12.89-7.49,19.48-13.05,6.59-5.39,15.23-13.48,24.9-24.16,.65-.7,1.26-1.4,1.92-2.1,5-5.5,10.23-11.7,15.7-18.33,4.72-5.66,9.58-11.7,14.58-17.96,8.32-10.41,17.05-21.51,26.49-32.68,3.83-4.48,7.71-8.95,11.77-13.43,2.71-2.91,5.47-5.93,8.32-8.73,.89-.97,1.73-1.83,2.62-2.7,1.92-1.83,3.83-3.67,5.84-5.5l1.5-1.35,1.64-1.35c1.07-.92,2.15-1.83,3.27-2.7,.75-.59,1.49-1.13,2.29-1.67,5.79,3.4,11.82,7.22,17.94,11.05,1.73,1.08,3.5,2.21,5.28,3.29-4.06,2.75-7.9,5.82-11.45,9.17-.79,.75-1.54,1.56-2.29,2.32l-1.12,1.19-1.21,1.29c-1.54,1.73-3.13,3.56-4.67,5.39-1.03,1.19-2.06,2.48-3.04,3.72-2.06,2.48-4.02,5.07-5.98,7.66-3.6,4.74-7.15,9.65-10.61,14.56-7.33,10.35-14.39,20.87-21.3,31-.61,.86-1.17,1.73-1.78,2.59-5.93,8.68-11.82,17.09-17.57,24.91-4.72,6.42-9.39,12.51-13.97,18.06-10.19,12.51-20.14,22.59-28.59,29.55-8.36,6.96-17.61,12.94-27.56,17.09-9.9,4.15-20.65,6.31-30.84,5.61-2.57-.11-5.05-.49-7.48-.86-2.43-.54-4.86-.97-7.1-1.78-4.63-1.29-8.83-3.29-12.75-5.34-7.8-4.26-14.11-9.49-19.25-14.67-2.62-2.59-4.81-5.28-6.91-7.76-1.96-2.64-3.88-5.01-5.42-7.5-.75-1.19-1.5-2.37-2.24-3.5-.65-1.13-1.31-2.26-1.87-3.34-1.21-2.21-2.24-4.21-3.04-6.15-1.64-3.77-2.57-6.96-2.9-9.44-.33-2.43-.05-4.15,.89-5.01Z"/>
        <g>
          <path class="cls-5" d="M266.89,204.3c6.17-.05,13.5,.7,21.44,2.7,9.9,2.48,20.74,6.69,31.54,12.89,8.32,4.74,16.12,10.46,23.83,16.39,2.52,1.94,5,3.83,7.52,5.77,1.35,1.02,2.71,2.1,4.06,3.13,3.32,2.53,6.68,5.07,10,7.44,5.42,3.94,10.89,7.55,16.45,10.57,5.14,2.8,10.33,5.28,15.56,6.9,5.19,1.67,10.47,2.97,15.46,3.4,10.05,1.13,19.76-.05,28.08-.59,4.16-.38,7.99-.49,11.35-.54,3.41,0,6.35,.27,8.69,.43,4.77,.81,7.34,1.46,7.34,1.83,0,.38-2.71,.7-7.34,1.02-2.29,.38-5.09,.75-8.36,1.35-3.22,.7-6.87,1.4-10.93,2.43-8.04,1.89-17.75,4.64-29.15,4.91-11.31,.43-23.78-2.1-35.74-7.06-5.7-2.32-11.26-5.18-16.68-8.2-4.16-2.37-8.18-4.85-12.15-7.33-1.78-1.08-3.55-2.21-5.28-3.29-6.12-3.83-12.15-7.66-17.94-11.05-4.39-2.64-8.69-4.96-12.85-6.9-8.97-4.21-17.71-6.96-25.46-8.57-.61-.92-1.26-1.83-1.87-2.75-5.93-8.68-11.82-17.04-17.57-24.86Z"/>
          <path class="cls-2" d="M207.32,251.32c.37-1.24,.75-2.48,1.12-3.77,.42-1.24,.93-2.48,1.45-3.83,.98-2.59,2.34-5.18,3.69-7.87,2.99-5.28,6.82-10.62,11.68-15.26,1.68-1.62,3.5-3.18,5.42-4.48,3.6-2.8,7.52-5.07,11.68-6.85,6.35-2.75,13.22-4.26,20.14-4.8,1.4-.11,2.85-.16,4.39-.16,5.75,7.82,11.63,16.18,17.57,24.86,.61,.92,1.26,1.83,1.87,2.75-.7-.16-1.35-.32-2.01-.43-8.27-1.51-15.23-1.62-20.42-1.29-6.4,.49-12.29,1.94-17.52,4.21-3.18,1.4-6.12,3.18-8.74,5.18-3.5,2.64-6.49,5.77-9.2,9.06-1.26,1.73-2.57,3.29-3.64,5.12-.56,.86-1.17,1.67-1.64,2.59-.51,.86-1.03,1.73-1.5,2.59-3.88,6.9-6.45,13.37-8.74,17.79-2.06,4.53-3.92,7.06-5.47,6.79-1.5-.27-2.57-3.34-3.04-8.9-.23-5.5,.14-13.53,2.9-23.29Z"/>
        </g>
        <path class="cls-6" d="M96.92,194.38c.33-2.48,1.26-5.66,2.9-9.44,.79-1.94,1.82-3.99,3.04-6.15,.56-1.08,1.21-2.21,1.87-3.34,.75-1.19,1.5-2.32,2.24-3.5,1.54-2.48,3.46-4.91,5.42-7.49,2.1-2.53,4.3-5.18,6.91-7.76,5.14-5.18,11.45-10.41,19.25-14.67,3.92-2.1,8.13-4.04,12.75-5.39,2.24-.75,4.67-1.19,7.1-1.73,2.43-.38,4.91-.75,7.48-.86,10.19-.7,20.93,1.46,30.84,5.55,9.95,4.21,19.2,10.19,27.56,17.15,8.46,6.96,18.41,17.04,28.59,29.49,4.58,5.61,9.25,11.65,14.02,18.06,5.75,7.82,11.63,16.18,17.57,24.86,.61,.92,1.26,1.83,1.87,2.75,6.91,10.03,13.92,20.49,21.16,30.73,3.5,4.96,7.05,9.87,10.7,14.67,1.92,2.53,3.88,5.07,5.89,7.49,1.03,1.35,2.1,2.59,3.18,3.88,1.54,1.78,3.08,3.61,4.67,5.34l1.17,1.29,1.12,1.13c.79,.81,1.5,1.62,2.29,2.32,3.55,3.4,7.38,6.47,11.45,9.17-1.82,1.13-3.64,2.26-5.42,3.4-6.07,3.83-12.01,7.66-17.75,11.05-.79-.54-1.59-1.13-2.34-1.73-1.07-.86-2.15-1.78-3.27-2.7l-1.59-1.35-1.5-1.35c-2.01-1.78-3.92-3.67-5.84-5.5-.93-.92-1.87-1.83-2.76-2.75-2.8-2.86-5.51-5.77-8.22-8.68-4.11-4.48-8.04-9-11.87-13.53-9.44-11.11-18.13-22.11-26.4-32.46-5.05-6.25-9.9-12.29-14.62-17.95-5.47-6.63-10.75-12.83-15.7-18.28-.65-.75-1.31-1.46-1.92-2.16-9.72-10.68-18.36-18.71-24.95-24.16-6.59-5.5-13.17-9.87-19.48-13.05-6.35-3.02-12.38-4.85-18.22-5.28-1.5-.16-2.94-.11-4.39-.11-1.4,.11-2.85,.05-4.3,.32-2.85,.27-5.65,1.02-8.41,1.78-5.51,1.67-10.75,4.21-15.6,6.9-2.43,1.35-4.72,2.86-6.91,4.21-2.2,1.46-4.3,2.75-6.26,4.15-.98,.65-1.92,1.29-2.9,1.94-.89,.65-1.78,1.24-2.66,1.89-1.68,1.08-3.32,2.16-4.86,3.23-2.99,1.89-5.51,3.29-7.52,3.94-2.01,.65-3.55,.59-4.48-.32-.93-.92-1.21-2.59-.89-5.01Z"/>
        <g>
          <path class="cls-11" d="M266.85,365.52c5.75-7.82,11.63-16.23,17.57-24.91,.61-.86,1.17-1.73,1.78-2.59,7.76-1.62,16.59-4.42,25.6-8.74,4.2-1.94,8.5-4.31,12.99-6.9,5.75-3.4,11.68-7.22,17.75-11.05,1.78-1.13,3.6-2.26,5.42-3.4,4.63-2.91,9.34-5.77,14.2-8.41,4.72-2.64,9.53-5.01,14.48-7.01,11.96-5.01,24.43-7.55,35.79-7.17,11.4,.32,21.12,3.07,29.2,4.96,4.02,1.02,7.66,1.73,10.93,2.43,3.22,.59,6.03,.97,8.32,1.35,4.63,.38,7.34,.76,7.34,1.13,0,.05-.05,.11-.14,.16-.51,.38-3.04,.92-7.2,1.62-2.34,.16-5.28,.38-8.64,.38-3.36-.05-7.24-.16-11.4-.54-8.27-.54-17.99-1.78-28.08-.65-5.05,.43-10.28,1.73-15.51,3.45-5.23,1.62-10.42,4.1-15.56,6.9-5.51,2.97-10.98,6.58-16.35,10.51-2.76,2-5.56,4.1-8.32,6.2-1.92,1.51-3.88,3.02-5.84,4.53-2.43,1.89-4.86,3.77-7.34,5.61-7.76,5.93-15.6,11.75-23.97,16.5-10.79,6.25-21.63,10.51-31.54,12.99-7.94,1.94-15.32,2.7-21.49,2.64Z"/>
          <path class="cls-7" d="M204.43,295.21c.47-5.5,1.54-8.57,3.04-8.84,1.54-.27,3.41,2.26,5.47,6.79,2.29,4.42,4.86,10.89,8.74,17.79,.47,.86,.98,1.73,1.5,2.59,.47,.92,1.07,1.73,1.64,2.59,1.07,1.78,2.38,3.4,3.64,5.12,2.71,3.29,5.7,6.42,9.2,9.06,2.62,1.99,5.51,3.72,8.69,5.12,5.23,2.32,11.12,3.77,17.57,4.21,5.19,.38,12.15,.27,20.42-1.24,.61-.11,1.21-.22,1.87-.38-.61,.86-1.17,1.73-1.78,2.59-5.93,8.68-11.82,17.09-17.57,24.91-1.54,0-2.99-.05-4.34-.16-6.91-.49-13.78-2.05-20.14-4.74-4.2-1.78-8.13-4.1-11.73-6.85-1.92-1.35-3.69-2.86-5.37-4.48-4.86-4.64-8.69-9.97-11.68-15.26-1.35-2.7-2.71-5.28-3.69-7.93-.51-1.29-1.03-2.53-1.45-3.83-.37-1.24-.75-2.48-1.12-3.72-2.76-9.76-3.13-17.79-2.9-23.35Z"/>
        </g>
        <path class="cls-4" d="M152.17,258.91c12.49,0,22.62,11.69,22.62,26.1,0,14.42-10.13,26.1-22.62,26.1-12.49,0-22.62-11.69-22.62-26.1,0-14.41,10.13-26.1,22.62-26.1Z"/>
      </g>
      <path class="cls-3" d="M282.4,56.94s27.28,10.41,40.27,15.15c-2.48,4.31-2.57,10.14,.09,14.67,.65,1.13,1.45,2.1,2.34,2.86v.05c0,1.19,.14,2.48,.37,3.77l27.38,139.27c4.02-1.4,8.04-2.37,12.01-3.29,4.86-.97,9.62-1.73,14.39-1.99,9.44-.7,18.64-.22,27.28,1.4,17.29,3.07,32.24,10.3,43.31,18.76,2.8,2.1,5.28,4.37,7.66,6.47,2.24,2.32,4.39,4.42,6.21,6.63,1.92,2.1,3.46,4.31,4.95,6.25,1.45,1.99,2.62,3.99,3.74,5.72,2.01,3.56,3.46,6.42,4.25,8.52,.79,2.05,1.12,3.18,.89,3.34,.33,.54,0,.75,0,.75,.19,.16-.14,1.29-.98,3.34-.79,2.05-2.24,4.91-4.3,8.46-1.12,1.67-2.29,3.67-3.74,5.66-1.5,1.94-3.04,4.15-4.95,6.25-1.82,2.21-3.97,4.26-6.21,6.58-2.34,2.1-4.86,4.37-7.66,6.42-11.03,8.46-25.93,15.64-43.22,18.76-8.6,1.62-17.75,2.05-27.24,1.4-4.72-.27-9.48-1.02-14.34-2-3.6-.81-7.29-1.73-10.93-2.91l-9.39,43.19-10.84,50.09-9.9,45.51c-.42,2-.51,3.99-.33,5.82v.05c-.51,.54-.89,1.19-1.26,1.89-1.12,2.16-1.64,4.53-1.64,6.85,0,2.8,.75,5.55,2.2,7.82-12.71,5.55-39.53,17.58-39.53,17.58,6.07,10.41,5.56,56.67,5.65,56.67-.05,.75,35.32-21.78,46.16-20.43,0,0-3.13-33.05-4.77-48.58,4.44,.81,9.02-1.51,11.49-6.2,.47-.86,.79-1.73,1.03-2.64,.51-.22,1.03-.54,1.54-.86l117.5-77.7c40.41-26.74,83.86-46.8,129.09-59.53l110.63-31.22c10.93,28.31-5.75,56.67-23.83,27.01,18.97,1.46-4.11-21.95-10.37-5.93-11.96,26.85,21.4,53.43,41.21,36.02,15.6-11.75,19.76-40.98,10.84-60.17,39.29,3.51,82.98-27.98,88.11-31.81h.09v-.05c-5.28-4.15-49.62-39.42-89.89-35.86,22.8-30.36-1.64-91.82-37.33-67.61-11.73,7.76-19.02,32.62-4.39,40.28,9.16,3.13,18.03-13.21,4.58-11.11,23.08-31.97,35.55,8.73,19.2,36.23l-136.75-49.12c-26.07-9.38-51.21-21.73-75.08-36.99l-142.08-90.69c-1.07-.65-2.15-1.13-3.18-1.51-.28-.81-.61-1.56-1.07-2.32-2.2-3.77-5.79-5.77-9.48-5.77-.75,0-1.54,.11-2.29,.27,.93-15.64,2.57-48.8,2.57-48.8C321.74,19.63,285.44-.11,285.49,0c-.61-.32,2.48,46.15-3.08,56.94Zm482.2,230.77c-40.51,23.29-52.09-1.24-52.09-1.24,13.55-28.58,52.09,1.24,52.09,1.24Zm-414.55,168.33s-18.5-22.54,29.48-56.02c0,0-1.5,61.79-29.48,56.02Zm39.15-64.97c-1.21,2.26-3.74,2.97-5.7,1.62-1.96-1.4-2.57-4.31-1.4-6.58,1.21-2.26,3.74-2.97,5.7-1.62,1.96,1.4,2.57,4.31,1.4,6.58Zm103.77-96.35c-.79,1.89-1.87,4.64-3.08,8.09-1.26,3.45-2.66,7.55-4.53,12.13-.51,1.13-1.03,2.32-1.59,3.45-.61,1.19-1.26,2.43-1.92,3.56-1.31,2.21-2.66,4.53-4.16,6.74-5.89,9-13.27,17.85-20.84,24.37-7.52,6.63-15,10.95-19.72,13.1-9.48,4.26-18.73,5.55-25.28,5.18-1.12-.05-2.15-.16-3.08-.32-.47-.05-.93-.11-1.4-.22-1.31-.32-2.43-.65-3.36-1.08-1.82-.81-2.9-1.83-2.94-3.02-.09-1.13,.75-2.32,2.24-3.5,.05,0,.09-.05,.14-.11,.79-.65,1.78-1.24,2.94-1.83,1.12-.65,2.38-1.29,3.83-1.94,5.65-2.59,13.32-5.5,21.49-9.17,4.06-1.89,10.7-4.85,17.89-9.6,7.24-4.74,14.86-11.43,21.58-18.6,1.68-1.78,3.22-3.67,4.81-5.45,.7-.86,1.4-1.78,2.06-2.64,.7-.86,1.31-1.83,1.92-2.75,2.48-3.72,4.63-7.39,6.54-10.46,1.96-3.13,3.74-5.55,5.14-7.06,1.4-1.51,2.24-2.21,2.43-2.05,.19,.16-.28,1.29-1.12,3.18Zm26.91-34.45c11.17,0,20.28,10.46,20.28,23.4s-9.11,23.46-20.28,23.46-20.32-10.51-20.32-23.46c0-12.94,9.11-23.4,20.32-23.4Zm-115.87-61.95c.93-.38,2.06-.75,3.36-1.02,1.31-.27,2.8-.43,4.49-.54,.42-.05,.89-.05,1.35-.05,6.4-.16,15.04,1.24,23.92,5.23,4.72,2.16,12.19,6.47,19.72,13.05,7.62,6.47,15,15.31,20.93,24.32,1.5,2.26,2.8,4.58,4.16,6.74,.65,1.19,1.31,2.43,1.92,3.56,.56,1.19,1.03,2.37,1.54,3.51,1.92,4.53,3.32,8.68,4.58,12.13,1.21,3.45,2.29,6.15,3.04,8.09,.84,1.89,1.26,3.02,1.07,3.18-.14,.16-.98-.54-2.38-2.05-1.36-1.56-3.13-3.99-5.09-7.06-1.92-3.07-4.06-6.79-6.54-10.51-.61-.92-1.21-1.89-1.92-2.75-.65-.86-1.35-1.73-2.06-2.64-1.59-1.73-3.18-3.67-4.86-5.45-6.73-7.17-14.39-13.86-21.63-18.55-7.2-4.75-13.83-7.71-17.89-9.6-8.18-3.67-15.84-6.58-21.49-9.17-1.45-.59-2.71-1.29-3.83-1.94-.37-.16-.7-.38-1.03-.54-.75-.43-1.35-.81-1.92-1.24-1.59-1.24-2.48-2.48-2.38-3.67,.05-1.19,1.12-2.16,2.94-3.02Zm-15.89-24.26c1.87-1.46,4.44-.92,5.75,1.29,1.26,2.16,.79,5.12-1.12,6.63-1.87,1.51-4.44,.92-5.75-1.24-1.26-2.21-.79-5.18,1.12-6.69Zm-36.11-61.41s25.46-10.08,31.96,54.19c0,0-48.08-27.18-31.96-54.19Z"/>
    </g>
  </g>
</svg>