<?xml version="1.0" encoding="UTF-8"?>
<svg id="Layer_2" data-name="Layer 2" xmlns="http://www.w3.org/2000/svg" xmlns:xlink="http://www.w3.org/1999/xlink" viewBox="0 0 13.59 145">
  <defs>
    <style>
      .cls-1 {
        fill: url(#linear-gradient);
      }
    </style>
    <linearGradient id="linear-gradient" x1="2162.33" y1="1217.16" x2="2307.33" y2="1217.16" gradientTransform="translate(-1210.36 -2162.33) rotate(90) scale(1 -1)" gradientUnits="userSpaceOnUse">
      <stop offset="0" stop-color="#8b7250"/>
      <stop offset="1" stop-color="#493c2a"/>
    </linearGradient>
  </defs>
  <g id="Warstwa_1" data-name="Warstwa 1">
    <path class="cls-1" d="M13.59,2.19v6.77c0,5.89,0,11.78,0,17.66,0,8.2,0,16.4,0,24.6,0,9.19,0,18.38,0,27.57,0,8.86,0,17.72,0,26.58,0,7.21,0,14.42,0,21.63,0,4.24,0,8.47,0,12.71v1.77c0,.14-3.4,3.52-6.8,3.52S0,141.63,0,141.48c0-2.26,0-4.51,0-6.77,0-5.89,0-11.78,0-17.66,0-8.2,0-16.4,0-24.6,0-9.19,0-18.38,0-27.57,0-8.86,0-17.72,0-26.58V16.68c0-4.24,0-8.47,0-12.71v-1.77C0,2.05,3.4,0,6.8,0s6.8,2.05,6.8,2.19h0Z"/>
  </g>
</svg>