<?xml version="1.0" encoding="UTF-8"?>
<svg id="Layer_2" data-name="Layer 2" xmlns="http://www.w3.org/2000/svg" xmlns:xlink="http://www.w3.org/1999/xlink" viewBox="0 0 62.49 184.45">
  <defs>
    <style>
      .cls-1 {
        fill: url(#linear-gradient-2);
      }

      .cls-2 {
        fill: url(#linear-gradient);
      }
    </style>
    <linearGradient id="linear-gradient" x1="16" y1="164.77" x2="45.9" y2="164.77" gradientUnits="userSpaceOnUse">
      <stop offset="0" stop-color="#8b7250"/>
      <stop offset="1" stop-color="#493c2a"/>
    </linearGradient>
    <linearGradient id="linear-gradient-2" x1="0" y1="70.75" x2="62.49" y2="70.75" xlink:href="#linear-gradient"/>
  </defs>
  <g id="Warstwa_1" data-name="Warstwa 1">
    <g>
      <path class="cls-2" d="M31.25,145.09l-15.25,14.46h0c2.75,3.68,15.25,24.9,15.25,24.9h0s11.91-21.22,14.65-24.9h0l-14.65-14.46Z"/>
      <path class="cls-1" d="M62.49,54.27c-12.23,27.75-15.51,66.68-15.9,71.82-.02,.33-.21,.57-.44,.57l-11.93,13.51c-1.58,1.79-4.37,1.79-5.95,0l-11.93-13.51c-.23,0-.41-.24-.44-.57C15.51,120.95,12.75,85.01,0,54.27-.1,54.03,24.58,9.92,30.14,.7c.56-.93,1.65-.93,2.21,0,5.56,9.22,30.24,53.33,30.14,53.57Z"/>
    </g>
  </g>
</svg>