<?xml version="1.0" encoding="UTF-8"?>
<svg id="Layer_2" data-name="Layer 2" xmlns="http://www.w3.org/2000/svg" xmlns:xlink="http://www.w3.org/1999/xlink" viewBox="0 0 217.83 250.68">
  <defs>
    <style>
      .cls-1 {
        fill: url(#linear-gradient-75);
      }

      .cls-2 {
        fill: url(#linear-gradient-119);
      }

      .cls-3 {
        fill: url(#linear-gradient-2);
      }

      .cls-4 {
        fill: url(#linear-gradient-51);
      }

      .cls-5 {
        fill: url(#linear-gradient-138);
      }

      .cls-6 {
        fill: url(#linear-gradient-122);
      }

      .cls-7 {
        fill: url(#linear-gradient-17);
      }

      .cls-8 {
        fill: url(#linear-gradient-87);
      }

      .cls-9 {
        fill: url(#linear-gradient-150);
      }

      .cls-10 {
        fill: url(#linear-gradient-93);
      }

      .cls-11 {
        fill: url(#linear-gradient-92);
      }

      .cls-12 {
        fill: url(#linear-gradient-147);
      }

      .cls-13 {
        fill: url(#linear-gradient-80);
      }

      .cls-14 {
        fill: url(#linear-gradient-109);
      }

      .cls-15 {
        fill: url(#linear-gradient-43);
      }

      .cls-16 {
        fill: url(#linear-gradient-125);
      }

      .cls-17 {
        fill: url(#linear-gradient-133);
      }

      .cls-18 {
        fill: url(#linear-gradient-151);
      }

      .cls-19 {
        fill: url(#linear-gradient);
        mix-blend-mode: multiply;
      }

      .cls-20 {
        fill: url(#linear-gradient-15);
      }

      .cls-21 {
        fill: url(#linear-gradient-58);
      }

      .cls-22 {
        fill: url(#linear-gradient-69);
      }

      .cls-23 {
        fill: url(#linear-gradient-81);
      }

      .cls-24 {
        fill: url(#linear-gradient-18);
      }

      .cls-25 {
        fill: url(#linear-gradient-56);
      }

      .cls-26 {
        fill: url(#linear-gradient-40);
      }

      .cls-27 {
        fill: url(#linear-gradient-131);
      }

      .cls-28 {
        fill: url(#linear-gradient-52);
      }

      .cls-29 {
        fill: url(#linear-gradient-28);
      }

      .cls-30 {
        fill: url(#linear-gradient-14);
      }

      .cls-31 {
        fill: url(#linear-gradient-36);
      }

      .cls-32 {
        fill: url(#linear-gradient-78);
      }

      .cls-33 {
        fill: url(#linear-gradient-20);
      }

      .cls-34 {
        fill: url(#linear-gradient-6);
      }

      .cls-35 {
        fill: url(#linear-gradient-130);
      }

      .cls-36 {
        fill: url(#linear-gradient-53);
      }

      .cls-37 {
        fill: url(#linear-gradient-91);
      }

      .cls-38 {
        fill: url(#linear-gradient-60);
      }

      .cls-39 {
        fill: url(#linear-gradient-108);
      }

      .cls-40 {
        fill: url(#linear-gradient-84);
      }

      .cls-41 {
        fill: url(#linear-gradient-136);
      }

      .cls-42 {
        fill: url(#linear-gradient-104);
      }

      .cls-43 {
        fill: url(#linear-gradient-128);
      }

      .cls-44 {
        fill: url(#linear-gradient-35);
      }

      .cls-45 {
        fill: url(#linear-gradient-48);
      }

      .cls-46 {
        fill: url(#linear-gradient-32);
      }

      .cls-47 {
        fill: url(#linear-gradient-120);
      }

      .cls-48 {
        fill: url(#linear-gradient-146);
      }

      .cls-49 {
        fill: url(#linear-gradient-97);
      }

      .cls-50 {
        fill: url(#linear-gradient-11);
      }

      .cls-51 {
        fill: url(#linear-gradient-50);
      }

      .cls-52 {
        fill: url(#linear-gradient-106);
      }

      .cls-53 {
        fill: url(#linear-gradient-111);
      }

      .cls-54 {
        fill: url(#linear-gradient-63);
      }

      .cls-55 {
        fill: url(#linear-gradient-67);
      }

      .cls-56 {
        fill: url(#linear-gradient-148);
      }

      .cls-57 {
        fill: url(#linear-gradient-95);
      }

      .cls-58 {
        fill: url(#linear-gradient-86);
      }

      .cls-59 {
        fill: url(#linear-gradient-39);
      }

      .cls-60 {
        fill: url(#linear-gradient-141);
      }

      .cls-61 {
        fill: url(#linear-gradient-137);
      }

      .cls-62 {
        fill: url(#linear-gradient-110);
      }

      .cls-63 {
        fill: url(#linear-gradient-124);
      }

      .cls-64 {
        fill: url(#linear-gradient-135);
      }

      .cls-65 {
        fill: url(#linear-gradient-10);
      }

      .cls-66 {
        fill: url(#linear-gradient-59);
      }

      .cls-67 {
        fill: url(#linear-gradient-143);
      }

      .cls-68 {
        fill: url(#linear-gradient-117);
      }

      .cls-69 {
        fill: url(#linear-gradient-49);
      }

      .cls-70 {
        fill: url(#linear-gradient-37);
      }

      .cls-71 {
        fill: url(#linear-gradient-82);
      }

      .cls-72 {
        fill: url(#linear-gradient-16);
      }

      .cls-73 {
        fill: url(#linear-gradient-31);
      }

      .cls-74 {
        fill: url(#linear-gradient-85);
      }

      .cls-75 {
        fill: url(#linear-gradient-127);
      }

      .cls-76 {
        fill: url(#linear-gradient-112);
      }

      .cls-77 {
        fill: url(#linear-gradient-61);
      }

      .cls-78 {
        fill: url(#linear-gradient-114);
      }

      .cls-79 {
        fill: url(#linear-gradient-68);
      }

      .cls-80 {
        fill: url(#linear-gradient-103);
      }

      .cls-81 {
        fill: url(#linear-gradient-62);
      }

      .cls-82 {
        fill: url(#linear-gradient-107);
      }

      .cls-83 {
        fill: url(#linear-gradient-41);
      }

      .cls-84 {
        fill: url(#linear-gradient-76);
      }

      .cls-85 {
        fill: url(#linear-gradient-98);
      }

      .cls-86 {
        fill: url(#linear-gradient-21);
      }

      .cls-87 {
        fill: url(#linear-gradient-72);
      }

      .cls-88 {
        fill: url(#linear-gradient-25);
      }

      .cls-89 {
        fill: url(#linear-gradient-121);
      }

      .cls-90 {
        fill: url(#linear-gradient-89);
      }

      .cls-91 {
        fill: url(#linear-gradient-144);
      }

      .cls-92 {
        fill: url(#linear-gradient-5);
      }

      .cls-93 {
        fill: url(#linear-gradient-64);
      }

      .cls-94 {
        fill: url(#linear-gradient-102);
      }

      .cls-95 {
        fill: url(#linear-gradient-83);
      }

      .cls-96 {
        fill: url(#linear-gradient-54);
      }

      .cls-97 {
        fill: url(#linear-gradient-45);
      }

      .cls-98 {
        fill: url(#linear-gradient-113);
      }

      .cls-99 {
        fill: url(#linear-gradient-55);
      }

      .cls-100 {
        fill: url(#linear-gradient-34);
      }

      .cls-101 {
        fill: url(#linear-gradient-118);
      }

      .cls-102 {
        fill: url(#linear-gradient-140);
      }

      .cls-103 {
        fill: url(#linear-gradient-65);
      }

      .cls-104 {
        fill: url(#linear-gradient-70);
      }

      .cls-105 {
        fill: url(#linear-gradient-79);
      }

      .cls-106 {
        fill: url(#linear-gradient-88);
      }

      .cls-107 {
        fill: url(#linear-gradient-7);
      }

      .cls-108 {
        fill: url(#linear-gradient-134);
      }

      .cls-109 {
        fill: url(#linear-gradient-149);
      }

      .cls-110 {
        fill: url(#linear-gradient-66);
      }

      .cls-111 {
        fill: url(#linear-gradient-96);
      }

      .cls-112 {
        fill: url(#linear-gradient-24);
      }

      .cls-113 {
        fill: url(#linear-gradient-73);
      }

      .cls-114 {
        fill: url(#linear-gradient-139);
      }

      .cls-115 {
        fill: url(#linear-gradient-100);
      }

      .cls-116 {
        fill: url(#linear-gradient-105);
      }

      .cls-117 {
        fill: url(#linear-gradient-9);
      }

      .cls-118 {
        fill: url(#linear-gradient-129);
      }

      .cls-119 {
        fill: url(#linear-gradient-22);
      }

      .cls-120 {
        filter: url(#luminosity-noclip-2);
      }

      .cls-121 {
        fill: url(#linear-gradient-74);
      }

      .cls-122 {
        fill: url(#linear-gradient-42);
      }

      .cls-123 {
        mask: url(#mask-1);
      }

      .cls-124 {
        mask: url(#mask);
      }

      .cls-125 {
        fill: url(#linear-gradient-99);
      }

      .cls-126 {
        fill: url(#linear-gradient-3);
      }

      .cls-127 {
        fill: url(#linear-gradient-123);
      }

      .cls-128 {
        fill: url(#linear-gradient-27);
      }

      .cls-129 {
        fill: url(#linear-gradient-116);
      }

      .cls-130 {
        fill: url(#linear-gradient-132);
      }

      .cls-131 {
        fill: url(#linear-gradient-33);
      }

      .cls-132 {
        fill: url(#linear-gradient-142);
      }

      .cls-133 {
        fill: url(#linear-gradient-38);
      }

      .cls-134 {
        fill: url(#linear-gradient-94);
      }

      .cls-135 {
        fill: url(#linear-gradient-29);
      }

      .cls-136 {
        fill: url(#linear-gradient-30);
      }

      .cls-137 {
        fill: url(#linear-gradient-126);
      }

      .cls-138 {
        fill: url(#linear-gradient-23);
      }

      .cls-139 {
        fill: url(#linear-gradient-19);
      }

      .cls-140 {
        fill: url(#linear-gradient-71);
      }

      .cls-141 {
        fill: url(#linear-gradient-4);
      }

      .cls-142 {
        fill: url(#linear-gradient-77);
      }

      .cls-143 {
        fill: url(#linear-gradient-115);
      }

      .cls-144 {
        fill: url(#linear-gradient-8);
      }

      .cls-145 {
        fill: url(#linear-gradient-90);
      }

      .cls-146 {
        fill: url(#linear-gradient-44);
      }

      .cls-147 {
        fill: url(#linear-gradient-57);
      }

      .cls-148 {
        fill: url(#linear-gradient-47);
      }

      .cls-149 {
        fill: url(#linear-gradient-46);
      }

      .cls-150 {
        fill: url(#linear-gradient-145);
      }

      .cls-151 {
        fill: url(#linear-gradient-12);
      }

      .cls-152 {
        fill: url(#linear-gradient-13);
      }

      .cls-153 {
        fill: url(#linear-gradient-26);
      }

      .cls-154 {
        fill: url(#linear-gradient-101);
      }
    </style>
    <filter id="luminosity-noclip-2" data-name="luminosity-noclip" x="51.32" width="115.19" height="250.68" color-interpolation-filters="sRGB" filterUnits="userSpaceOnUse">
      <feFlood flood-color="#fff" result="bg"/>
      <feBlend in="SourceGraphic" in2="bg"/>
    </filter>
    <filter id="luminosity-noclip-3" x="5242.81" y="-9743" width="-32766" height="32766" color-interpolation-filters="sRGB" filterUnits="userSpaceOnUse">
      <feFlood flood-color="#fff" result="bg"/>
      <feBlend in="SourceGraphic" in2="bg"/>
    </filter>
    <mask id="mask-1" x="5242.81" y="-9743" width="-32766" height="32766" maskUnits="userSpaceOnUse"/>
    <linearGradient id="linear-gradient" x1="165.1" y1="28.03" x2="52.73" y2="222.65" gradientUnits="userSpaceOnUse">
      <stop offset="0" stop-color="#fff"/>
      <stop offset=".54" stop-color="#000"/>
      <stop offset="1" stop-color="#f2f2f2"/>
    </linearGradient>
    <mask id="mask" x="51.32" width="115.19" height="250.68" maskUnits="userSpaceOnUse">
      <g class="cls-120">
        <g class="cls-123">
          <path class="cls-19" d="M108.92,250.68c-15.45,0-29.94-13.08-40.81-36.84-10.82-23.65-16.78-55.08-16.78-88.5s5.96-64.85,16.78-88.5C78.97,13.08,93.47,0,108.92,0s29.94,13.08,40.81,36.84c10.82,23.65,16.78,55.08,16.78,88.5s-5.96,64.85-16.78,88.5c-10.87,23.76-25.36,36.84-40.81,36.84ZM108.92,.88c-31.27,0-56.72,55.83-56.72,124.46s25.44,124.46,56.72,124.46,56.72-55.83,56.72-124.46S140.19,.88,108.92,.88Z"/>
        </g>
      </g>
    </mask>
    <linearGradient id="linear-gradient-2" x1="165.1" y1="28.03" x2="52.73" y2="222.65" gradientUnits="userSpaceOnUse">
      <stop offset="0" stop-color="#b46d4c"/>
      <stop offset=".54" stop-color="#000"/>
      <stop offset="1" stop-color="#b46d4c"/>
    </linearGradient>
    <linearGradient id="linear-gradient-3" x1="57.12" y1="-16.46" x2="101.04" y2="-16.46" gradientTransform="translate(8.62 116.28) rotate(2.28)" gradientUnits="userSpaceOnUse">
      <stop offset="0" stop-color="#b46d4c"/>
      <stop offset=".03" stop-color="#a76244"/>
      <stop offset=".15" stop-color="#7e3f2c"/>
      <stop offset=".27" stop-color="#5d2318"/>
      <stop offset=".39" stop-color="#45100b"/>
      <stop offset=".5" stop-color="#370402"/>
      <stop offset=".59" stop-color="#300"/>
    </linearGradient>
    <linearGradient id="linear-gradient-4" x1="52.02" y1="-23.37" x2="101.04" y2="-23.37" xlink:href="#linear-gradient-3"/>
    <linearGradient id="linear-gradient-5" x1="25.28" y1="-267.78" x2="65.48" y2="-267.78" gradientTransform="translate(14.47 360.09) rotate(7.02)" xlink:href="#linear-gradient-3"/>
    <linearGradient id="linear-gradient-6" x1="-40.04" y1="-518.09" x2="8.97" y2="-518.09" gradientTransform="translate(.7 602.96) rotate(11.77)" xlink:href="#linear-gradient-3"/>
    <linearGradient id="linear-gradient-7" x1="-106.56" y1="-753.47" x2="-66.36" y2="-753.47" gradientTransform="translate(-34.7 844.41) rotate(16.52)" xlink:href="#linear-gradient-3"/>
    <linearGradient id="linear-gradient-8" x1="-211.51" y1="-991.77" x2="-162.5" y2="-991.77" gradientTransform="translate(-88.72 1082.18) rotate(21.27)" xlink:href="#linear-gradient-3"/>
    <linearGradient id="linear-gradient-9" x1="-316.57" y1="-1210.74" x2="-276.37" y2="-1210.74" gradientTransform="translate(-163.29 1313.86) rotate(26.02)" xlink:href="#linear-gradient-3"/>
    <linearGradient id="linear-gradient-10" x1="-458.28" y1="-1430.08" x2="-409.27" y2="-1430.08" gradientTransform="translate(-256.13 1539.23) rotate(30.77)" xlink:href="#linear-gradient-3"/>
    <linearGradient id="linear-gradient-11" x1="-599.47" y1="-1626.25" x2="-559.26" y2="-1626.25" gradientTransform="translate(-366.72 1755.15) rotate(35.52)" xlink:href="#linear-gradient-3"/>
    <linearGradient id="linear-gradient-12" x1="-775.58" y1="-1820.48" x2="-726.57" y2="-1820.48" gradientTransform="translate(-494.48 1962.71) rotate(40.26)" xlink:href="#linear-gradient-3"/>
    <linearGradient id="linear-gradient-13" x1="-947.56" y1="-1990.74" x2="-907.36" y2="-1990.74" gradientTransform="translate(-640.97 2158.25) rotate(45.02)" xlink:href="#linear-gradient-3"/>
    <linearGradient id="linear-gradient-14" x1="-1151.47" y1="-2155.17" x2="-1102.46" y2="-2155.17" gradientTransform="translate(-802.26 2340.94) rotate(49.77)" xlink:href="#linear-gradient-3"/>
    <linearGradient id="linear-gradient-15" x1="-1350.3" y1="-2291.77" x2="-1310.1" y2="-2291.77" gradientTransform="translate(-977.35 2509.25) rotate(54.51)" xlink:href="#linear-gradient-3"/>
    <linearGradient id="linear-gradient-16" x1="-1578.16" y1="-2422" x2="-1529.14" y2="-2422" gradientTransform="translate(-1166.57 2663.35) rotate(59.26)" xlink:href="#linear-gradient-3"/>
    <linearGradient id="linear-gradient-17" x1="-1798.08" y1="-2523.17" x2="-1757.88" y2="-2523.17" gradientTransform="translate(-1367.77 2801.35) rotate(64.01)" xlink:href="#linear-gradient-3"/>
    <linearGradient id="linear-gradient-18" x1="-2043.5" y1="-2615.14" x2="-1994.49" y2="-2615.14" gradientTransform="translate(-1579.38 2921.97) rotate(68.76)" xlink:href="#linear-gradient-3"/>
    <linearGradient id="linear-gradient-19" x1="-2277.57" y1="-2676.9" x2="-2237.38" y2="-2676.9" gradientTransform="translate(-1800.36 3024.54) rotate(73.51)" xlink:href="#linear-gradient-3"/>
    <linearGradient id="linear-gradient-20" x1="-2533.56" y1="-2729.03" x2="-2484.54" y2="-2729.03" gradientTransform="translate(-2029.53 3107.95) rotate(78.26)" xlink:href="#linear-gradient-3"/>
    <linearGradient id="linear-gradient-21" x1="-2775.63" y1="-2749.47" x2="-2735.44" y2="-2749.47" gradientTransform="translate(-2263.91 3173.01) rotate(83)" xlink:href="#linear-gradient-3"/>
    <linearGradient id="linear-gradient-22" x1="-3035.61" y1="-2759.62" x2="-2986.59" y2="-2759.62" gradientTransform="translate(-2502.97 3217.03) rotate(87.75)" xlink:href="#linear-gradient-3"/>
    <linearGradient id="linear-gradient-23" x1="-3277.9" y1="-2739.05" x2="-3237.7" y2="-2739.05" gradientTransform="translate(-2745.68 3241.54) rotate(92.5)" xlink:href="#linear-gradient-3"/>
    <linearGradient id="linear-gradient-24" x1="-3536.48" y1="-2707.53" x2="-3487.47" y2="-2707.53" gradientTransform="translate(-2988.9 3247.23) rotate(97.25)" xlink:href="#linear-gradient-3"/>
    <linearGradient id="linear-gradient-25" x1="-3772.62" y1="-2645.35" x2="-3732.42" y2="-2645.35" gradientTransform="translate(-3231.83 3231.29) rotate(102)" xlink:href="#linear-gradient-3"/>
    <linearGradient id="linear-gradient-26" x1="-4021.72" y1="-2573.96" x2="-3972.7" y2="-2573.96" gradientTransform="translate(-3473.72 3196.39) rotate(106.75)" xlink:href="#linear-gradient-3"/>
    <linearGradient id="linear-gradient-27" x1="-4245.05" y1="-2472.15" x2="-4204.85" y2="-2472.15" gradientTransform="translate(-3710.78 3140.39) rotate(111.5)" xlink:href="#linear-gradient-3"/>
    <linearGradient id="linear-gradient-28" x1="-4477.99" y1="-2361.29" x2="-4428.98" y2="-2361.29" gradientTransform="translate(-3942.09 3066.48) rotate(116.24)" xlink:href="#linear-gradient-3"/>
    <linearGradient id="linear-gradient-29" x1="-4682.52" y1="-2222.91" x2="-4642.32" y2="-2222.91" gradientTransform="translate(-4167.66 2972.26) rotate(121)" xlink:href="#linear-gradient-3"/>
    <linearGradient id="linear-gradient-30" x1="-4892.82" y1="-2077.24" x2="-4843.8" y2="-2077.24" gradientTransform="translate(-4383.88 2860) rotate(125.75)" xlink:href="#linear-gradient-3"/>
    <linearGradient id="linear-gradient-31" x1="-5072.87" y1="-1905.05" x2="-5032.67" y2="-1905.05" gradientTransform="translate(-4590.69 2730.95) rotate(130.49)" xlink:href="#linear-gradient-3"/>
    <linearGradient id="linear-gradient-32" x1="-5255.44" y1="-1727.94" x2="-5206.43" y2="-1727.94" gradientTransform="translate(-4785.08 2584.66) rotate(135.24)" xlink:href="#linear-gradient-3"/>
    <linearGradient id="linear-gradient-33" x1="-5405.04" y1="-1527.2" x2="-5364.83" y2="-1527.2" gradientTransform="translate(-4967.77 2422.61) rotate(139.99)" xlink:href="#linear-gradient-3"/>
    <linearGradient id="linear-gradient-34" x1="-5555.42" y1="-1323.35" x2="-5506.41" y2="-1323.35" gradientTransform="translate(-5134.96 2247.13) rotate(144.74)" xlink:href="#linear-gradient-3"/>
    <linearGradient id="linear-gradient-35" x1="-5670.31" y1="-1098.93" x2="-5630.1" y2="-1098.93" gradientTransform="translate(-5287.91 2057.23) rotate(149.49)" xlink:href="#linear-gradient-3"/>
    <linearGradient id="linear-gradient-36" x1="-5784.17" y1="-875.6" x2="-5735.15" y2="-875.6" gradientTransform="translate(-5424.72 1855.06) rotate(154.24)" xlink:href="#linear-gradient-3"/>
    <linearGradient id="linear-gradient-37" x1="-5861.71" y1="-633.58" x2="-5821.51" y2="-633.58" gradientTransform="translate(-5544.73 1643.3) rotate(158.99)" xlink:href="#linear-gradient-3"/>
    <linearGradient id="linear-gradient-38" x1="-5936.73" y1="-395.83" x2="-5887.72" y2="-395.83" gradientTransform="translate(-5646.6 1421.9) rotate(163.73)" xlink:href="#linear-gradient-3"/>
    <linearGradient id="linear-gradient-39" x1="-5973.19" y1="-143.23" x2="-5932.99" y2="-143.23" gradientTransform="translate(-5729.18 1192.04) rotate(168.49)" xlink:href="#linear-gradient-3"/>
    <linearGradient id="linear-gradient-40" x1="-6006.83" y1="102.65" x2="-5957.82" y2="102.65" gradientTransform="translate(-5792.17 957.37) rotate(173.23)" xlink:href="#linear-gradient-3"/>
    <linearGradient id="linear-gradient-41" x1="-6002.59" y1="359.35" x2="-5962.39" y2="359.35" gradientTransform="translate(-5836.85 717.56) rotate(177.98)" xlink:href="#linear-gradient-3"/>
    <linearGradient id="linear-gradient-42" x1="-5994.55" y1="605.11" x2="-5945.54" y2="605.11" gradientTransform="translate(-5860.72 474.54) rotate(-177.27)" xlink:href="#linear-gradient-3"/>
    <linearGradient id="linear-gradient-43" x1="-5948.41" y1="859.73" x2="-5908.21" y2="859.73" gradientTransform="translate(-5864.45 231.46) rotate(-172.52)" xlink:href="#linear-gradient-3"/>
    <linearGradient id="linear-gradient-44" x1="-5899.44" y1="1100" x2="-5850.43" y2="1100" gradientTransform="translate(-5848.12 -11.08) rotate(-167.77)" xlink:href="#linear-gradient-3"/>
    <linearGradient id="linear-gradient-45" x1="-5812.45" y1="1344.62" x2="-5772.25" y2="1344.62" gradientTransform="translate(-5811.47 -252.1) rotate(-163.02)" xlink:href="#linear-gradient-3"/>
    <linearGradient id="linear-gradient-46" x1="-5724.04" y1="1571.1" x2="-5675.03" y2="1571.1" gradientTransform="translate(-5755.72 -489.77) rotate(-158.27)" xlink:href="#linear-gradient-3"/>
    <linearGradient id="linear-gradient-47" x1="-5598.45" y1="1800.29" x2="-5558.24" y2="1800.29" gradientTransform="translate(-5679.56 -720.51) rotate(-153.52)" xlink:href="#linear-gradient-3"/>
    <linearGradient id="linear-gradient-48" x1="-5472.42" y1="2007.85" x2="-5423.4" y2="2007.85" gradientTransform="translate(-5584.6 -945.17) rotate(-148.77)" xlink:href="#linear-gradient-3"/>
    <linearGradient id="linear-gradient-49" x1="-5312.47" y1="2214.04" x2="-5272.27" y2="2214.04" gradientTransform="translate(-5472.43 -1161.25) rotate(-144.03)" xlink:href="#linear-gradient-3"/>
    <linearGradient id="linear-gradient-50" x1="-5153.51" y1="2396.45" x2="-5104.49" y2="2396.45" gradientTransform="translate(-5342.08 -1367.32) rotate(-139.28)" xlink:href="#linear-gradient-3"/>
    <linearGradient id="linear-gradient-51" x1="-4962.05" y1="2574.95" x2="-4921.86" y2="2574.95" gradientTransform="translate(-5195.31 -1561.68) rotate(-134.53)" xlink:href="#linear-gradient-3"/>
    <linearGradient id="linear-gradient-52" x1="-4773.56" y1="2727.5" x2="-4724.55" y2="2727.5" gradientTransform="translate(-5032.04 -1742.58) rotate(-129.78)" xlink:href="#linear-gradient-3"/>
    <linearGradient id="linear-gradient-53" x1="-4556.08" y1="2873.77" x2="-4515.88" y2="2873.77" gradientTransform="translate(-4855.49 -1909.76) rotate(-125.03)" xlink:href="#linear-gradient-3"/>
    <linearGradient id="linear-gradient-54" x1="-4345.74" y1="2991.7" x2="-4296.73" y2="2991.7" gradientTransform="translate(-4666.01 -2062.23) rotate(-120.29)" xlink:href="#linear-gradient-3"/>
    <linearGradient id="linear-gradient-55" x1="-4106.77" y1="3100.91" x2="-4066.56" y2="3100.91" gradientTransform="translate(-4462.85 -2197.83) rotate(-115.53)" xlink:href="#linear-gradient-3"/>
    <linearGradient id="linear-gradient-56" x1="-3879.47" y1="3180.78" x2="-3830.46" y2="3180.78" gradientTransform="translate(-4250.94 -2317.23) rotate(-110.79)" xlink:href="#linear-gradient-3"/>
    <linearGradient id="linear-gradient-57" x1="-3626.52" y1="3250.38" x2="-3586.31" y2="3250.38" gradientTransform="translate(-4027.99 -2417.73) rotate(-106.03)" xlink:href="#linear-gradient-3"/>
    <linearGradient id="linear-gradient-58" x1="-3387.84" y1="3289.59" x2="-3338.82" y2="3289.59" gradientTransform="translate(-3798.54 -2500.15) rotate(-101.29)" xlink:href="#linear-gradient-3"/>
    <linearGradient id="linear-gradient-59" x1="-3128.75" y1="3319.63" x2="-3088.55" y2="3319.63" gradientTransform="translate(-3564.03 -2562.84) rotate(-96.54)" xlink:href="#linear-gradient-3"/>
    <linearGradient id="linear-gradient-60" x1="-2884.98" y1="3317.36" x2="-2835.96" y2="3317.36" gradientTransform="translate(-3323.68 -2605.27) rotate(-91.79)" xlink:href="#linear-gradient-3"/>
    <linearGradient id="linear-gradient-61" x1="-2625.86" y1="3304.93" x2="-2585.67" y2="3304.93" gradientTransform="translate(-3081.45 -2629.15) rotate(-87.04)" xlink:href="#linear-gradient-3"/>
    <linearGradient id="linear-gradient-62" x1="-2385.8" y1="3261.37" x2="-2336.79" y2="3261.37" gradientTransform="translate(-2837.83 -2632.03) rotate(-82.29)" xlink:href="#linear-gradient-3"/>
    <linearGradient id="linear-gradient-63" x1="-2132.02" y1="3207.49" x2="-2091.82" y2="3207.49" gradientTransform="translate(-2594.55 -2614.63) rotate(-77.54)" xlink:href="#linear-gradient-3"/>
    <linearGradient id="linear-gradient-64" x1="-1900.63" y1="3123.97" x2="-1851.62" y2="3123.97" gradientTransform="translate(-2354.4 -2576.24) rotate(-72.79)" xlink:href="#linear-gradient-3"/>
    <linearGradient id="linear-gradient-65" x1="-1660.64" y1="3029.87" x2="-1620.44" y2="3029.87" gradientTransform="translate(-2116.76 -2519.6) rotate(-68.04)" xlink:href="#linear-gradient-3"/>
    <linearGradient id="linear-gradient-66" x1="-1445.82" y1="2907.63" x2="-1396.8" y2="2907.63" gradientTransform="translate(-1885.93 -2442.29) rotate(-63.29)" xlink:href="#linear-gradient-3"/>
    <linearGradient id="linear-gradient-67" x1="-1225.61" y1="2777.4" x2="-1185.41" y2="2777.4" gradientTransform="translate(-1661.5 -2347.69) rotate(-58.55)" xlink:href="#linear-gradient-3"/>
    <linearGradient id="linear-gradient-68" x1="-1033.05" y1="2620.3" x2="-984.03" y2="2620.3" gradientTransform="translate(-1446.9 -2233.38) rotate(-53.8)" xlink:href="#linear-gradient-3"/>
    <linearGradient id="linear-gradient-69" x1="-837.98" y1="2456.57" x2="-797.78" y2="2456.57" gradientTransform="translate(-1240.9 -2102.82) rotate(-49.05)" xlink:href="#linear-gradient-3"/>
    <linearGradient id="linear-gradient-70" x1="-673.62" y1="2267.56" x2="-624.61" y2="2267.56" gradientTransform="translate(-1047.24 -1954.45) rotate(-44.3)" xlink:href="#linear-gradient-3"/>
    <linearGradient id="linear-gradient-71" x1="-508.56" y1="2076.6" x2="-468.36" y2="2076.6" gradientTransform="translate(-866.79 -1792.17) rotate(-39.55)" xlink:href="#linear-gradient-3"/>
    <linearGradient id="linear-gradient-72" x1="-377.78" y1="1861.67" x2="-328.77" y2="1861.67" gradientTransform="translate(-699.62 -1614.54) rotate(-34.81)" xlink:href="#linear-gradient-3"/>
    <linearGradient id="linear-gradient-73" x1="-246.42" y1="1645.45" x2="-206.22" y2="1645.45" gradientTransform="translate(-547.85 -1422.57) rotate(-30.05)" xlink:href="#linear-gradient-3"/>
    <linearGradient id="linear-gradient-74" x1="-151.01" y1="1411.54" x2="-102" y2="1411.54" gradientTransform="translate(-413.91 -1220.19) rotate(-25.3)" xlink:href="#linear-gradient-3"/>
    <linearGradient id="linear-gradient-75" x1="-58.39" y1="1179.15" x2="-18.18" y2="1179.15" gradientTransform="translate(-295.78 -1006.99) rotate(-20.56)" xlink:href="#linear-gradient-3"/>
    <linearGradient id="linear-gradient-76" x1="-3.71" y1="930.06" x2="45.31" y2="930.06" gradientTransform="translate(-195.33 -784.7) rotate(-15.81)" xlink:href="#linear-gradient-3"/>
    <linearGradient id="linear-gradient-77" x1="49.35" y1="687.62" x2="89.55" y2="687.62" gradientTransform="translate(-114.86 -555.21) rotate(-11.06)" xlink:href="#linear-gradient-3"/>
    <linearGradient id="linear-gradient-78" x1="63.62" y1="431.76" x2="112.63" y2="431.76" gradientTransform="translate(-53.15 -319.72) rotate(-6.31)" xlink:href="#linear-gradient-3"/>
    <linearGradient id="linear-gradient-79" x1="34.02" y1="125.34" x2="183.81" y2="125.34" gradientUnits="userSpaceOnUse">
      <stop offset="0" stop-color="#666"/>
      <stop offset=".28" stop-color="#a0a0a0"/>
      <stop offset=".51" stop-color="#ccc"/>
      <stop offset="1" stop-color="#666"/>
    </linearGradient>
    <linearGradient id="linear-gradient-80" x1="3.64" y1="125.34" x2="214.19" y2="125.34" gradientUnits="userSpaceOnUse">
      <stop offset="0" stop-color="#9d6748"/>
      <stop offset=".51" stop-color="#b46d4c"/>
      <stop offset="1" stop-color="#9d6748"/>
    </linearGradient>
    <linearGradient id="linear-gradient-81" x1="93.52" y1="21.58" x2="124.31" y2="21.58" gradientUnits="userSpaceOnUse">
      <stop offset="0" stop-color="#300"/>
      <stop offset="1" stop-color="#140000"/>
    </linearGradient>
    <linearGradient id="linear-gradient-82" x1="99.56" y1="30.94" x2="118.27" y2="12.22" xlink:href="#linear-gradient-79"/>
    <linearGradient id="linear-gradient-83" y1="229.1" y2="229.1" xlink:href="#linear-gradient-81"/>
    <linearGradient id="linear-gradient-84" x1="99.56" y1="219.74" x2="118.27" y2="238.46" xlink:href="#linear-gradient-79"/>
    <linearGradient id="linear-gradient-85" x1="178.78" y1="51.21" x2="187.31" y2="51.21" xlink:href="#linear-gradient-81"/>
    <linearGradient id="linear-gradient-86" x1="-4221.51" y1="-2090.49" x2="-4212.1" y2="-2090.49" gradientTransform="translate(-3989.13 2228.98) rotate(126.07)" gradientUnits="userSpaceOnUse">
      <stop offset="0" stop-color="#b68d5d"/>
      <stop offset=".07" stop-color="#bc9462"/>
      <stop offset=".51" stop-color="#e4c084"/>
      <stop offset="1" stop-color="#b68d5d"/>
    </linearGradient>
    <linearGradient id="linear-gradient-87" x1="210.56" y1="125.34" x2="216.95" y2="125.34" xlink:href="#linear-gradient-81"/>
    <linearGradient id="linear-gradient-88" x1="210.12" y1="125.34" x2="217.83" y2="125.34" gradientTransform="matrix(1, 0, 0, 1, 0, 0)" xlink:href="#linear-gradient-86"/>
    <linearGradient id="linear-gradient-89" x1=".88" y1="125.34" x2="7.27" y2="125.34" xlink:href="#linear-gradient-81"/>
    <linearGradient id="linear-gradient-90" x1="-6764.09" y1="433.88" x2="-6756.37" y2="433.88" gradientTransform="translate(-6756.37 559.22) rotate(-180)" xlink:href="#linear-gradient-86"/>
    <linearGradient id="linear-gradient-91" x1="178.78" y1="199.47" x2="187.31" y2="199.47" xlink:href="#linear-gradient-81"/>
    <linearGradient id="linear-gradient-92" x1="-4672.08" y1="2180.87" x2="-4662.68" y2="2180.87" gradientTransform="translate(-4873.47 -785.42) rotate(-143.93)" xlink:href="#linear-gradient-86"/>
    <linearGradient id="linear-gradient-93" x1="30.52" y1="199.47" x2="39.05" y2="199.47" xlink:href="#linear-gradient-81"/>
    <linearGradient id="linear-gradient-94" x1="-400.73" y1="2631.44" x2="-391.32" y2="2631.44" gradientTransform="translate(-1859.07 -1669.76) rotate(-53.93)" xlink:href="#linear-gradient-86"/>
    <linearGradient id="linear-gradient-95" x1="30.52" y1="51.21" x2="39.05" y2="51.21" xlink:href="#linear-gradient-81"/>
    <linearGradient id="linear-gradient-96" x1="49.85" y1="-1639.91" x2="59.25" y2="-1639.91" gradientTransform="translate(-974.73 1344.63) rotate(36.07)" xlink:href="#linear-gradient-86"/>
    <linearGradient id="linear-gradient-97" x1="63.48" y1="84.91" x2="67.43" y2="84.91" xlink:href="#linear-gradient-81"/>
    <linearGradient id="linear-gradient-98" x1="94.2" y1="110.19" x2="98.46" y2="110.19" xlink:href="#linear-gradient-81"/>
    <linearGradient id="linear-gradient-99" x1="65.22" y1="90.08" x2="72.15" y2="90.08" xlink:href="#linear-gradient-81"/>
    <linearGradient id="linear-gradient-100" x1="70.36" y1="86.14" x2="74.89" y2="86.14" xlink:href="#linear-gradient-81"/>
    <linearGradient id="linear-gradient-101" x1="65.28" y1="96.6" x2="70.72" y2="96.6" xlink:href="#linear-gradient-81"/>
    <linearGradient id="linear-gradient-102" x1="83.09" y1="118.2" x2="93.7" y2="118.2" xlink:href="#linear-gradient-81"/>
    <linearGradient id="linear-gradient-103" x1="66.96" y1="77.75" x2="69.59" y2="77.75" xlink:href="#linear-gradient-81"/>
    <linearGradient id="linear-gradient-104" x1="88.55" y1="109.65" x2="94.89" y2="109.65" xlink:href="#linear-gradient-81"/>
    <linearGradient id="linear-gradient-105" x1="88.43" y1="102.62" x2="94.55" y2="102.62" xlink:href="#linear-gradient-81"/>
    <linearGradient id="linear-gradient-106" x1="67.62" y1="98.21" x2="79.08" y2="98.21" xlink:href="#linear-gradient-81"/>
    <linearGradient id="linear-gradient-107" x1="91.54" y1="121.59" x2="104.56" y2="121.59" xlink:href="#linear-gradient-81"/>
    <linearGradient id="linear-gradient-108" x1="68.3" y1="101.28" x2="87.49" y2="101.28" xlink:href="#linear-gradient-81"/>
    <linearGradient id="linear-gradient-109" x1="80.35" y1="101.37" x2="88.81" y2="101.37" xlink:href="#linear-gradient-81"/>
    <linearGradient id="linear-gradient-110" x1="88.52" y1="96.57" x2="91.71" y2="96.57" xlink:href="#linear-gradient-81"/>
    <linearGradient id="linear-gradient-111" x1="119.37" y1="110.18" x2="123.61" y2="110.18" xlink:href="#linear-gradient-81"/>
    <linearGradient id="linear-gradient-112" x1="94.12" y1="117.78" x2="108.67" y2="117.78" xlink:href="#linear-gradient-81"/>
    <linearGradient id="linear-gradient-113" x1="126.12" y1="96.59" x2="129.32" y2="96.59" xlink:href="#linear-gradient-81"/>
    <linearGradient id="linear-gradient-114" x1="109.16" y1="117.78" x2="123.71" y2="117.78" xlink:href="#linear-gradient-81"/>
    <linearGradient id="linear-gradient-115" x1="142.94" y1="86.18" x2="147.56" y2="86.18" xlink:href="#linear-gradient-81"/>
    <linearGradient id="linear-gradient-116" x1="148.25" y1="77.83" x2="150.87" y2="77.83" xlink:href="#linear-gradient-81"/>
    <linearGradient id="linear-gradient-117" x1="112.8" y1="132.57" x2="119.29" y2="132.57" xlink:href="#linear-gradient-81"/>
    <linearGradient id="linear-gradient-118" x1="105.36" y1="133.74" x2="112.42" y2="133.74" xlink:href="#linear-gradient-81"/>
    <linearGradient id="linear-gradient-119" x1="101.71" y1="153.64" x2="116.12" y2="153.64" xlink:href="#linear-gradient-81"/>
    <linearGradient id="linear-gradient-120" x1="98.52" y1="132.55" x2="104.97" y2="132.55" xlink:href="#linear-gradient-81"/>
    <linearGradient id="linear-gradient-121" x1="102.22" y1="115.56" x2="115.61" y2="115.56" xlink:href="#linear-gradient-81"/>
    <linearGradient id="linear-gradient-122" x1="105.44" y1="157.17" x2="111.9" y2="157.17" xlink:href="#linear-gradient-81"/>
    <linearGradient id="linear-gradient-123" x1="100.83" y1="150.83" x2="117" y2="150.83" xlink:href="#linear-gradient-81"/>
    <linearGradient id="linear-gradient-124" x1="127.13" y1="120.98" x2="138.56" y2="120.98" xlink:href="#linear-gradient-81"/>
    <linearGradient id="linear-gradient-125" x1="113.22" y1="121.59" x2="126.29" y2="121.59" xlink:href="#linear-gradient-81"/>
    <linearGradient id="linear-gradient-126" x1="129.02" y1="101.38" x2="137.56" y2="101.38" xlink:href="#linear-gradient-81"/>
    <linearGradient id="linear-gradient-127" x1="123.28" y1="102.63" x2="129.39" y2="102.63" xlink:href="#linear-gradient-81"/>
    <linearGradient id="linear-gradient-128" x1="127.03" y1="118.24" x2="140.57" y2="118.24" xlink:href="#linear-gradient-81"/>
    <linearGradient id="linear-gradient-129" x1="126.25" y1="115.48" x2="141.7" y2="115.48" xlink:href="#linear-gradient-81"/>
    <linearGradient id="linear-gradient-130" x1="124.13" y1="118.21" x2="134.82" y2="118.21" xlink:href="#linear-gradient-81"/>
    <linearGradient id="linear-gradient-131" x1="122.93" y1="109.65" x2="129.28" y2="109.65" xlink:href="#linear-gradient-81"/>
    <linearGradient id="linear-gradient-132" x1="150.46" y1="84.91" x2="154.35" y2="84.91" xlink:href="#linear-gradient-81"/>
    <linearGradient id="linear-gradient-133" x1="76.13" y1="115.42" x2="91.53" y2="115.42" xlink:href="#linear-gradient-81"/>
    <linearGradient id="linear-gradient-134" x1="145.76" y1="90.06" x2="152.66" y2="90.06" xlink:href="#linear-gradient-81"/>
    <linearGradient id="linear-gradient-135" x1="147.16" y1="96.59" x2="152.54" y2="96.59" xlink:href="#linear-gradient-81"/>
    <linearGradient id="linear-gradient-136" x1="130.41" y1="101.27" x2="149.58" y2="101.27" xlink:href="#linear-gradient-81"/>
    <linearGradient id="linear-gradient-137" x1="138.78" y1="98.21" x2="150.26" y2="98.21" xlink:href="#linear-gradient-81"/>
    <linearGradient id="linear-gradient-138" x1="77.25" y1="118.19" x2="90.87" y2="118.19" xlink:href="#linear-gradient-81"/>
    <linearGradient id="linear-gradient-139" x1="91.47" y1="137.16" x2="104.97" y2="137.16" xlink:href="#linear-gradient-81"/>
    <linearGradient id="linear-gradient-140" x1="94.63" y1="154.84" x2="99.68" y2="154.84" xlink:href="#linear-gradient-81"/>
    <linearGradient id="linear-gradient-141" x1="91.94" y1="143.17" x2="104.93" y2="143.17" xlink:href="#linear-gradient-81"/>
    <linearGradient id="linear-gradient-142" x1="85.28" y1="124.04" x2="91.95" y2="124.04" xlink:href="#linear-gradient-81"/>
    <linearGradient id="linear-gradient-143" x1="125.92" y1="124.05" x2="132.51" y2="124.05" xlink:href="#linear-gradient-81"/>
    <linearGradient id="linear-gradient-144" x1="79.19" y1="120.91" x2="90.6" y2="120.91" xlink:href="#linear-gradient-81"/>
    <linearGradient id="linear-gradient-145" x1="98.52" y1="164.49" x2="108.53" y2="164.49" xlink:href="#linear-gradient-81"/>
    <linearGradient id="linear-gradient-146" x1="112.8" y1="137.16" x2="126.36" y2="137.16" xlink:href="#linear-gradient-81"/>
    <linearGradient id="linear-gradient-147" x1="112.86" y1="143.17" x2="125.89" y2="143.17" xlink:href="#linear-gradient-81"/>
    <linearGradient id="linear-gradient-148" x1="119.81" y1="152.74" x2="127.1" y2="152.74" xlink:href="#linear-gradient-81"/>
    <linearGradient id="linear-gradient-149" x1="103.2" y1="168.6" x2="114.63" y2="168.6" xlink:href="#linear-gradient-81"/>
    <linearGradient id="linear-gradient-150" x1="109.34" y1="162.62" x2="120.64" y2="162.62" xlink:href="#linear-gradient-81"/>
    <linearGradient id="linear-gradient-151" x1="71.17" y1="141.95" x2="146.66" y2="66.47" gradientUnits="userSpaceOnUse">
      <stop offset="0" stop-color="#999"/>
      <stop offset=".07" stop-color="#a0a0a0"/>
      <stop offset=".51" stop-color="#ccc"/>
      <stop offset="1" stop-color="#999"/>
    </linearGradient>
  </defs>
  <g id="Warstwa_1" data-name="Warstwa 1">
    <g>
      <g>
        <g class="cls-124">
          <path class="cls-3" d="M108.92,250.68c-15.45,0-29.94-13.08-40.81-36.84-10.82-23.65-16.78-55.08-16.78-88.5s5.96-64.85,16.78-88.5C78.97,13.08,93.47,0,108.92,0s29.94,13.08,40.81,36.84c10.82,23.65,16.78,55.08,16.78,88.5s-5.96,64.85-16.78,88.5c-10.87,23.76-25.36,36.84-40.81,36.84ZM108.92,.88c-31.27,0-56.72,55.83-56.72,124.46s25.44,124.46,56.72,124.46,56.72-55.83,56.72-124.46S140.19,.88,108.92,.88Z"/>
        </g>
        <g>
          <path class="cls-126" d="M108.94,125.76c-.12,0-.24-.05-.32-.14l-41.29-44.71c-.16-.18-.15-.46,.02-.62,.18-.16,.46-.15,.62,.02l41.29,44.71c.16,.18,.15,.46-.02,.62-.08,.08-.19,.12-.3,.12Z"/>
          <path class="cls-141" d="M108.94,125.77c-.13,0-.26-.06-.35-.17l-45.84-58.72c-.15-.19-.12-.47,.08-.62,.19-.15,.47-.11,.62,.08l45.84,58.72c.15,.19,.12,.47-.08,.62-.08,.06-.18,.09-.27,.09Z"/>
          <path class="cls-92" d="M108.94,125.76c-.14,0-.28-.07-.37-.2l-33.35-50.91c-.13-.2-.08-.47,.13-.61,.2-.13,.47-.08,.61,.13l33.35,50.91c.13,.2,.08,.47-.13,.61-.07,.05-.16,.07-.24,.07Z"/>
          <path class="cls-34" d="M108.94,125.77c-.16,0-.31-.08-.39-.23L73.03,60.05c-.12-.21-.04-.48,.18-.59,.21-.12,.48-.04,.59,.18l35.52,65.48c.12,.21,.04,.48-.18,.59-.07,.04-.14,.05-.21,.05Z"/>
          <path class="cls-107" d="M108.94,125.76c-.17,0-.33-.1-.4-.26l-24.49-55.71c-.1-.22,0-.48,.22-.58,.22-.1,.48,0,.58,.23l24.49,55.71c.1,.22,0,.48-.23,.58-.06,.03-.12,.04-.18,.04Z"/>
          <path class="cls-144" d="M108.94,125.77c-.18,0-.35-.11-.41-.3l-24.23-70.45c-.08-.23,.04-.48,.27-.56,.23-.08,.48,.04,.56,.27l24.23,70.45c.08,.23-.04,.48-.27,.56-.05,.02-.1,.02-.14,.02Z"/>
          <path class="cls-117" d="M108.94,125.76c-.2,0-.37-.13-.42-.33l-14.96-58.99c-.06-.23,.08-.47,.32-.53,.24-.06,.47,.08,.53,.32l14.96,58.99c.06,.23-.08,.47-.32,.53-.04,0-.07,.01-.11,.01Z"/>
          <path class="cls-65" d="M108.94,125.77c-.21,0-.4-.15-.43-.37l-12.27-73.48c-.04-.24,.12-.47,.36-.5,.24-.04,.46,.12,.5,.36l12.27,73.48c.04,.24-.12,.46-.36,.51-.02,0-.05,0-.07,0Z"/>
          <path class="cls-50" d="M108.94,125.76c-.23,0-.42-.17-.44-.4l-5.02-60.65c-.02-.24,.16-.45,.4-.47,.24-.02,.45,.16,.47,.4l5.02,60.65c.02,.24-.16,.45-.4,.47-.01,0-.02,0-.04,0Z"/>
          <path class="cls-151" d="M108.94,125.77h0c-.24,0-.44-.2-.44-.44l.02-74.5c0-.24,.2-.44,.44-.44h0c.24,0,.44,.2,.44,.44l-.02,74.5c0,.24-.2,.44-.44,.44Z"/>
          <path class="cls-152" d="M108.94,125.76s-.02,0-.04,0c-.24-.02-.42-.23-.4-.47l5.05-60.65c.02-.24,.23-.42,.47-.4,.24,.02,.42,.23,.4,.47l-5.05,60.65c-.02,.23-.21,.4-.44,.4Z"/>
          <path class="cls-30" d="M108.94,125.77s-.05,0-.07,0c-.24-.04-.4-.27-.36-.51l12.31-73.47c.04-.24,.27-.4,.51-.36,.24,.04,.4,.27,.36,.51l-12.31,73.47c-.04,.21-.22,.37-.43,.37Z"/>
          <path class="cls-20" d="M108.94,125.76s-.07,0-.11-.01c-.23-.06-.38-.3-.32-.53l14.99-58.98c.06-.23,.3-.38,.53-.32,.24,.06,.38,.3,.32,.53l-14.99,58.98c-.05,.2-.23,.33-.42,.33Z"/>
          <path class="cls-72" d="M108.94,125.77s-.1,0-.14-.02c-.23-.08-.35-.33-.27-.56l24.27-70.43c.08-.23,.33-.35,.56-.27,.23,.08,.35,.33,.27,.56l-24.27,70.43c-.06,.18-.23,.3-.41,.3Z"/>
          <path class="cls-7" d="M108.94,125.76c-.06,0-.12-.01-.18-.04-.22-.1-.32-.36-.22-.58l24.52-55.7c.1-.22,.36-.32,.58-.22,.22,.1,.32,.36,.22,.58l-24.52,55.7c-.07,.16-.23,.26-.4,.26Z"/>
          <path class="cls-24" d="M108.94,125.77c-.07,0-.14-.02-.21-.05-.21-.12-.29-.38-.18-.59l35.56-65.46c.12-.21,.38-.29,.59-.18,.21,.12,.29,.38,.18,.59l-35.56,65.46c-.08,.15-.23,.23-.39,.23Z"/>
          <path class="cls-139" d="M108.94,125.76c-.08,0-.17-.02-.24-.07-.2-.13-.26-.4-.13-.61l33.37-50.89c.13-.2,.41-.26,.61-.13,.2,.13,.26,.4,.13,.61l-33.37,50.89c-.08,.13-.22,.2-.37,.2Z"/>
          <path class="cls-33" d="M108.94,125.77c-.09,0-.19-.03-.27-.09-.19-.15-.22-.42-.08-.62l45.87-58.7c.15-.19,.42-.22,.62-.08,.19,.15,.22,.42,.08,.62l-45.87,58.7c-.09,.11-.22,.17-.35,.17Z"/>
          <path class="cls-86" d="M108.94,125.76c-.11,0-.21-.04-.3-.12-.18-.16-.19-.44-.02-.62l41.31-44.69c.16-.18,.44-.19,.62-.02,.18,.16,.19,.44,.02,.62l-41.31,44.69c-.09,.09-.2,.14-.32,.14Z"/>
          <path class="cls-119" d="M108.94,125.77c-.12,0-.24-.05-.32-.14-.16-.18-.15-.46,.03-.62l54.93-50.33c.18-.16,.46-.15,.62,.03,.16,.18,.15,.46-.03,.62l-54.93,50.33c-.08,.08-.19,.12-.3,.12Z"/>
          <path class="cls-138" d="M108.94,125.76c-.13,0-.26-.06-.35-.17-.15-.19-.11-.47,.08-.62l48.12-37.26c.19-.15,.47-.11,.62,.08,.15,.19,.11,.47-.08,.62l-48.12,37.26c-.08,.06-.17,.09-.27,.09Z"/>
          <path class="cls-112" d="M108.94,125.77c-.14,0-.28-.07-.37-.2-.13-.2-.07-.47,.13-.61l62.48-40.57c.2-.13,.47-.07,.61,.13,.13,.2,.07,.47-.13,.61l-62.48,40.57c-.07,.05-.16,.07-.24,.07Z"/>
          <path class="cls-88" d="M108.94,125.76c-.16,0-.31-.08-.39-.23-.11-.21-.03-.48,.18-.59l53.61-28.81c.21-.11,.48-.03,.59,.18,.11,.21,.03,.48-.18,.59l-53.61,28.81c-.07,.04-.14,.05-.21,.05Z"/>
          <path class="cls-153" d="M108.94,125.77c-.17,0-.33-.1-.4-.26-.1-.22,0-.48,.23-.58l68.32-29.71c.22-.1,.48,0,.58,.23,.1,.22,0,.48-.23,.58l-68.32,29.71c-.06,.02-.12,.04-.17,.04Z"/>
          <path class="cls-128" d="M108.94,125.76c-.18,0-.35-.12-.42-.3-.08-.23,.04-.48,.27-.56l57.63-19.57c.23-.08,.48,.04,.56,.27,.08,.23-.04,.48-.27,.56l-57.63,19.57s-.09,.02-.14,.02Z"/>
          <path class="cls-29" d="M108.94,125.77c-.2,0-.38-.13-.43-.33-.06-.23,.08-.47,.32-.53l72.28-18.03c.24-.06,.47,.08,.53,.32,.06,.23-.08,.47-.32,.53l-72.28,18.03s-.07,.01-.11,.01Z"/>
          <path class="cls-135" d="M108.94,125.76c-.21,0-.4-.15-.43-.37-.04-.24,.12-.46,.36-.5l60.07-9.79c.24-.04,.46,.12,.5,.36,.04,.24-.12,.46-.36,.5l-60.07,9.79s-.05,0-.07,0Z"/>
          <path class="cls-136" d="M108.94,125.77c-.23,0-.42-.17-.44-.4-.02-.24,.16-.45,.4-.47l74.27-5.85c.24-.02,.45,.16,.47,.4,.02,.24-.16,.45-.4,.47l-74.27,5.85s-.02,0-.03,0Z"/>
          <path class="cls-73" d="M169.79,126.02h0l-60.86-.26c-.24,0-.44-.2-.44-.44,0-.24,.2-.44,.44-.44h0l60.86,.26c.24,0,.44,.2,.44,.44,0,.24-.2,.44-.44,.44Z"/>
          <path class="cls-46" d="M183.15,132.25s-.03,0-.04,0l-74.21-6.48c-.24-.02-.42-.23-.4-.48,.02-.24,.23-.42,.48-.4l74.21,6.48c.24,.02,.42,.23,.4,.48-.02,.23-.21,.4-.44,.4Z"/>
          <path class="cls-131" d="M168.92,136.06s-.05,0-.07,0l-59.98-10.3c-.24-.04-.4-.27-.36-.51,.04-.24,.27-.4,.51-.36l59.98,10.3c.24,.04,.4,.27,.36,.51-.04,.21-.22,.36-.43,.36Z"/>
          <path class="cls-100" d="M181.07,144.41s-.07,0-.11-.01l-72.13-18.64c-.23-.06-.38-.3-.31-.53,.06-.23,.3-.38,.53-.31l72.13,18.64c.23,.06,.38,.3,.31,.53-.05,.2-.23,.33-.42,.33Z"/>
          <path class="cls-44" d="M166.4,145.82s-.1,0-.14-.02l-57.46-20.05c-.23-.08-.35-.33-.27-.56,.08-.23,.33-.35,.56-.27l57.46,20.05c.23,.08,.35,.33,.27,.56-.06,.18-.23,.29-.41,.29Z"/>
          <path class="cls-31" d="M177,156.05c-.06,0-.12-.01-.18-.04l-68.06-30.29c-.22-.1-.32-.36-.22-.58,.1-.22,.36-.32,.58-.22l68.06,30.29c.22,.1,.32,.36,.22,.58-.07,.16-.23,.26-.4,.26Z"/>
          <path class="cls-70" d="M162.3,155.02c-.07,0-.14-.02-.21-.05l-53.36-29.26c-.21-.12-.29-.38-.17-.6,.12-.21,.38-.29,.6-.17l53.36,29.26c.21,.12,.29,.38,.17,.6-.08,.15-.23,.23-.38,.23Z"/>
          <path class="cls-133" d="M171.07,166.87c-.08,0-.17-.02-.24-.07l-62.13-41.1c-.2-.13-.26-.41-.12-.61,.13-.2,.41-.26,.61-.12l62.13,41.1c.2,.13,.26,.41,.12,.61-.08,.13-.22,.2-.37,.2Z"/>
          <path class="cls-59" d="M156.74,163.43c-.1,0-.19-.03-.27-.09l-47.8-37.66c-.19-.15-.22-.43-.07-.62,.15-.19,.43-.22,.62-.07l47.8,37.66c.19,.15,.22,.43,.07,.62-.09,.11-.22,.17-.34,.17Z"/>
          <path class="cls-26" d="M163.44,176.56c-.11,0-.21-.04-.3-.12l-54.5-50.79c-.18-.16-.19-.44-.02-.62,.16-.18,.44-.19,.62-.02l54.5,50.79c.18,.17,.19,.44,.02,.62-.09,.09-.2,.14-.32,.14Z"/>
          <path class="cls-83" d="M149.87,170.8c-.12,0-.24-.05-.32-.14l-40.93-45.04c-.16-.18-.15-.46,.03-.62s.46-.15,.62,.03l40.93,45.04c.16,.18,.15,.46-.03,.62-.08,.08-.19,.11-.29,.11Z"/>
          <path class="cls-122" d="M154.31,184.85c-.13,0-.26-.06-.35-.17l-45.37-59.09c-.15-.19-.11-.47,.08-.61,.19-.15,.47-.11,.62,.08l45.37,59.09c.15,.19,.11,.47-.08,.61-.08,.06-.17,.09-.27,.09Z"/>
          <path class="cls-15" d="M141.88,176.94c-.14,0-.29-.07-.37-.2l-32.94-51.17c-.13-.2-.07-.48,.13-.61,.2-.13,.48-.07,.61,.13l32.94,51.17c.13,.2,.07,.47-.13,.61-.07,.05-.16,.07-.24,.07Z"/>
          <path class="cls-146" d="M143.94,191.53c-.16,0-.31-.08-.39-.23l-35-65.76c-.11-.21-.03-.48,.18-.59,.21-.11,.48-.03,.59,.18l35,65.76c.11,.21,.03,.48-.18,.59-.07,.03-.14,.05-.21,.05Z"/>
          <path class="cls-97" d="M132.98,181.67c-.17,0-.33-.1-.4-.27l-24.05-55.91c-.1-.22,0-.48,.23-.58,.22-.1,.48,0,.58,.23l24.05,55.91c.1,.22,0,.48-.23,.58-.06,.02-.12,.04-.17,.04Z"/>
          <path class="cls-149" d="M132.61,196.4c-.18,0-.35-.12-.42-.3l-23.67-70.64c-.08-.23,.05-.48,.28-.56,.23-.08,.48,.05,.56,.28l23.67,70.64c.08,.23-.05,.48-.28,.56-.05,.02-.09,.02-.14,.02Z"/>
          <path class="cls-148" d="M123.43,184.87c-.2,0-.38-.13-.43-.33l-14.49-59.11c-.06-.24,.09-.47,.32-.53,.23-.06,.47,.09,.53,.32l14.49,59.11c.06,.24-.09,.47-.32,.53-.04,0-.07,.01-.1,.01Z"/>
          <path class="cls-45" d="M120.63,199.34c-.21,0-.4-.15-.43-.37l-11.69-73.57c-.04-.24,.13-.46,.36-.5s.46,.13,.5,.36l11.69,73.57c.04,.24-.13,.46-.36,.5-.02,0-.05,0-.07,0Z"/>
          <path class="cls-69" d="M113.48,186.45c-.23,0-.42-.18-.44-.41l-4.54-60.69c-.02-.24,.16-.45,.4-.47,.24-.02,.45,.16,.47,.4l4.54,60.69c.02,.24-.16,.45-.4,.47-.01,0-.02,0-.03,0Z"/>
          <path class="cls-51" d="M108.33,200.26h0c-.24,0-.44-.2-.44-.44l.61-74.49c0-.24,.2-.44,.44-.43,.24,0,.44,.2,.43,.44l-.61,74.5c0,.24-.2,.43-.44,.43Z"/>
          <path class="cls-4" d="M103.4,186.37s-.03,0-.04,0c-.24-.02-.42-.24-.4-.48l5.54-60.61c.02-.24,.23-.42,.48-.4,.24,.02,.42,.24,.4,.48l-5.54,60.61c-.02,.23-.21,.4-.44,.4Z"/>
          <path class="cls-28" d="M96.04,199.14s-.05,0-.08,0c-.24-.04-.4-.27-.36-.51l12.9-73.37c.04-.24,.27-.4,.51-.36,.24,.04,.4,.27,.36,.51l-12.9,73.37c-.04,.21-.22,.36-.43,.36Z"/>
          <path class="cls-36" d="M93.47,184.63s-.07,0-.11-.01c-.23-.06-.37-.3-.31-.54l15.46-58.86c.06-.23,.3-.38,.54-.31,.23,.06,.37,.3,.31,.54l-15.46,58.86c-.05,.2-.23,.33-.42,.33Z"/>
          <path class="cls-96" d="M84.11,196.01s-.1,0-.15-.03c-.23-.08-.35-.33-.27-.56l24.83-70.24c.08-.23,.33-.35,.56-.27,.23,.08,.35,.33,.27,.56l-24.83,70.24c-.06,.18-.23,.29-.41,.29Z"/>
          <path class="cls-99" d="M83.97,181.27c-.06,0-.12-.01-.18-.04-.22-.1-.32-.36-.22-.58l24.96-55.5c.1-.22,.36-.32,.58-.22,.22,.1,.32,.36,.22,.58l-24.96,55.5c-.07,.16-.23,.26-.4,.26Z"/>
          <path class="cls-25" d="M72.86,190.95c-.07,0-.14-.02-.21-.05-.21-.12-.29-.38-.17-.6l36.08-65.18c.12-.21,.38-.29,.6-.17,.21,.12,.29,.38,.17,.6l-36.08,65.18c-.08,.14-.23,.23-.38,.23Z"/>
          <path class="cls-147" d="M75.16,176.39c-.08,0-.17-.02-.24-.07-.2-.13-.26-.41-.12-.61l33.78-50.62c.13-.2,.41-.26,.61-.12,.2,.13,.26,.41,.12,.61l-33.78,50.62c-.08,.13-.22,.19-.37,.19Z"/>
          <path class="cls-21" d="M62.6,184.1c-.1,0-.19-.03-.27-.1-.19-.15-.22-.43-.07-.62l46.34-58.33c.15-.19,.43-.22,.62-.07,.19,.15,.22,.43,.07,.62l-46.34,58.33c-.09,.11-.21,.17-.34,.17Z"/>
          <path class="cls-66" d="M67.27,170.12c-.11,0-.22-.04-.3-.12-.18-.17-.19-.44-.02-.62l41.67-44.36c.17-.18,.44-.19,.62-.02,.18,.17,.18,.44,.02,.62l-41.67,44.36c-.09,.09-.2,.14-.32,.14Z"/>
          <path class="cls-38" d="M53.61,175.65c-.12,0-.24-.05-.33-.14-.16-.18-.15-.46,.03-.62l55.33-49.89c.18-.16,.46-.15,.62,.03,.16,.18,.15,.46-.03,.62l-55.33,49.89c-.08,.08-.19,.11-.29,.11Z"/>
          <path class="cls-77" d="M60.52,162.64c-.13,0-.26-.06-.35-.17-.15-.19-.11-.47,.08-.61l48.42-36.87c.19-.15,.47-.11,.61,.08,.15,.19,.11,.47-.08,.61l-48.42,36.87c-.08,.06-.17,.09-.27,.09Z"/>
          <path class="cls-81" d="M46.14,165.84c-.14,0-.29-.07-.37-.2-.13-.2-.07-.48,.13-.61l62.8-40.07c.2-.13,.48-.07,.61,.13,.13,.2,.07,.48-.13,.61l-62.8,40.07c-.07,.05-.15,.07-.24,.07Z"/>
          <path class="cls-54" d="M55.1,154.14c-.16,0-.31-.09-.39-.23-.11-.21-.03-.48,.18-.59l53.84-28.38c.21-.11,.48-.03,.59,.18,.11,.21,.03,.48-.18,.59l-53.84,28.38c-.07,.03-.14,.05-.2,.05Z"/>
          <path class="cls-93" d="M40.39,154.93c-.17,0-.33-.1-.4-.27-.09-.22,0-.48,.23-.58l68.55-29.16c.22-.09,.48,0,.58,.23,.09,.22,0,.48-.23,.58l-68.55,29.16c-.06,.02-.11,.04-.17,.04Z"/>
          <path class="cls-103" d="M51.15,144.87c-.18,0-.36-.12-.42-.3-.08-.23,.05-.48,.28-.55l57.78-19.11c.23-.08,.48,.05,.55,.28,.08,.23-.05,.48-.28,.55l-57.78,19.11s-.09,.02-.14,.02Z"/>
          <path class="cls-110" d="M36.51,143.22c-.2,0-.38-.13-.43-.34-.06-.24,.09-.47,.32-.53l72.42-17.45c.24-.06,.47,.09,.53,.32,.06,.24-.09,.47-.32,.53l-72.42,17.45s-.07,.01-.1,.01Z"/>
          <path class="cls-55" d="M48.79,135.07c-.21,0-.4-.15-.43-.37-.04-.24,.13-.46,.37-.5l60.14-9.31c.24-.04,.46,.13,.5,.37,.04,.24-.13,.46-.37,.5l-60.14,9.31s-.05,0-.07,0Z"/>
          <path class="cls-79" d="M34.63,131.03c-.23,0-.42-.18-.44-.41-.02-.24,.16-.45,.41-.47l74.31-5.26c.24-.02,.45,.16,.47,.41,.02,.24-.17,.45-.41,.47l-74.31,5.26s-.02,0-.03,0Z"/>
          <path class="cls-22" d="M108.94,125.76h0l-60.85-.74c-.24,0-.44-.2-.43-.44,0-.24,.2-.43,.44-.43h0l60.86,.74c.24,0,.44,.2,.43,.44,0,.24-.2,.43-.44,.43Z"/>
          <path class="cls-104" d="M108.94,125.77s-.03,0-.04,0l-74.16-7.07c-.24-.02-.42-.24-.39-.48,.02-.24,.23-.42,.48-.39l74.16,7.07c.24,.02,.42,.24,.4,.48-.02,.23-.21,.4-.44,.4Z"/>
          <path class="cls-140" d="M108.94,125.76s-.05,0-.08,0l-59.9-10.77c-.24-.04-.4-.27-.35-.51,.04-.24,.27-.4,.51-.35l59.9,10.77c.24,.04,.4,.27,.35,.51-.04,.21-.22,.36-.43,.36Z"/>
          <path class="cls-87" d="M108.94,125.77s-.08,0-.11-.01l-71.98-19.21c-.23-.06-.37-.3-.31-.54,.06-.23,.3-.37,.54-.31l71.98,19.21c.23,.06,.37,.3,.31,.54-.05,.2-.23,.33-.42,.33Z"/>
          <path class="cls-113" d="M108.94,125.76s-.1,0-.15-.03l-57.3-20.51c-.23-.08-.35-.33-.27-.56,.08-.23,.33-.35,.56-.27l57.3,20.51c.23,.08,.35,.33,.27,.56-.06,.18-.23,.29-.41,.29Z"/>
          <path class="cls-121" d="M108.94,125.77c-.06,0-.12-.01-.18-.04l-67.82-30.83c-.22-.1-.32-.36-.22-.58,.1-.22,.36-.32,.58-.22l67.82,30.83c.22,.1,.32,.36,.22,.58-.07,.16-.23,.26-.4,.26Z"/>
          <path class="cls-1" d="M108.94,125.76c-.07,0-.15-.02-.21-.06l-53.13-29.68c-.21-.12-.29-.39-.17-.6,.12-.21,.39-.29,.6-.17l53.13,29.68c.21,.12,.29,.39,.17,.6-.08,.14-.23,.22-.38,.22Z"/>
          <path class="cls-84" d="M108.94,125.77c-.08,0-.17-.02-.24-.07l-61.8-41.59c-.2-.14-.25-.41-.12-.61,.14-.2,.41-.25,.61-.12l61.8,41.59c.2,.14,.25,.41,.12,.61-.08,.13-.22,.19-.36,.19Z"/>
          <path class="cls-142" d="M108.94,125.76c-.1,0-.19-.03-.27-.1l-47.5-38.04c-.19-.15-.22-.43-.07-.62,.15-.19,.43-.22,.62-.07l47.5,38.04c.19,.15,.22,.43,.07,.62-.09,.11-.21,.16-.34,.16Z"/>
          <path class="cls-32" d="M108.94,125.77c-.11,0-.22-.04-.3-.12l-54.09-51.22c-.18-.17-.18-.44-.02-.62,.17-.18,.44-.18,.62-.02l54.09,51.22c.18,.17,.18,.44,.02,.62-.09,.09-.2,.14-.32,.14Z"/>
        </g>
        <path class="cls-105" d="M108.92,200.24c-20.01,0-38.81-7.79-52.96-21.94-14.15-14.15-21.94-32.96-21.94-52.96s7.79-38.81,21.94-52.96c14.15-14.15,32.96-21.94,52.96-21.94s38.81,7.79,52.96,21.94c14.15,14.15,21.94,32.96,21.94,52.96s-7.79,38.81-21.94,52.96-32.96,21.94-52.96,21.94Zm0-148.92c-19.77,0-38.36,7.7-52.34,21.68-13.98,13.98-21.68,32.57-21.68,52.34s7.7,38.36,21.68,52.34c13.98,13.98,32.57,21.68,52.34,21.68s38.36-7.7,52.34-21.68c13.98-13.98,21.68-32.57,21.68-52.34s-7.7-38.36-21.68-52.34c-13.98-13.98-32.57-21.68-52.34-21.68Z"/>
        <path class="cls-13" d="M108.92,230.62c-14.21,0-28-2.78-40.98-8.27-12.54-5.3-23.8-12.89-33.46-22.56-9.67-9.67-17.26-20.93-22.56-33.46-5.49-12.98-8.27-26.77-8.27-40.98s2.78-28,8.27-40.98c5.3-12.54,12.89-23.8,22.56-33.46,9.67-9.67,20.93-17.26,33.46-22.56,12.98-5.49,26.77-8.27,40.98-8.27s28,2.78,40.98,8.27c12.54,5.3,23.8,12.89,33.46,22.56,9.67,9.67,17.26,20.93,22.56,33.46,5.49,12.98,8.27,26.77,8.27,40.98s-2.78,28-8.27,40.98c-5.3,12.54-12.89,23.8-22.56,33.46s-20.93,17.26-33.46,22.56c-12.98,5.49-26.77,8.27-40.98,8.27Zm0-209.68c-14.09,0-27.77,2.76-40.64,8.2-12.43,5.26-23.6,12.79-33.19,22.37-9.59,9.59-17.12,20.75-22.37,33.19-5.44,12.87-8.2,26.54-8.2,40.64s2.76,27.77,8.2,40.64c5.26,12.43,12.79,23.6,22.37,33.19,9.59,9.59,20.75,17.12,33.19,22.37,12.87,5.44,26.54,8.2,40.64,8.2s27.77-2.76,40.64-8.2c12.43-5.26,23.6-12.79,33.19-22.37s17.12-20.75,22.37-33.19c5.44-12.87,8.2-26.54,8.2-40.64s-2.76-27.77-8.2-40.64c-5.26-12.43-12.79-23.6-22.37-33.19s-20.75-17.12-33.19-22.37c-12.87-5.44-26.54-8.2-40.64-8.2Z"/>
        <g>
          <g>
            <path class="cls-23" d="M113.17,23.92l11.14-2.34-11.14-2.34,3.6-5.51-5.51,3.6-2.34-11.14-2.34,11.14-5.51-3.6s1.85,2.83,3.6,5.51l-11.14,2.34s6.69,1.4,11.14,2.34l-3.6,5.51s2.83-1.85,5.51-3.6l2.34,11.14s1.4-6.69,2.34-11.14l5.51,3.6-3.6-5.51Z"/>
            <path class="cls-71" d="M108.92,39.1l-2.64-12.56-6.72,4.39,4.39-6.72-12.56-2.64,12.56-2.64-4.39-6.72,6.72,4.39,2.64-12.56,2.64,12.56,6.72-4.39-4.39,6.72,12.56,2.64-12.56,2.64,4.39,6.72-6.72-4.39-2.64,12.56Zm-2.04-13.99l2.04,9.72,2.04-9.72,4.3,2.81-2.81-4.3,9.72-2.04-9.72-2.04,2.81-4.3-4.3,2.81-2.04-9.72-2.04,9.72-4.3-2.81,2.81,4.3-9.72,2.04,9.72,2.04-2.81,4.3,4.3-2.81Z"/>
          </g>
          <g>
            <path class="cls-95" d="M113.17,231.44l11.14-2.34-11.14-2.34,3.6-5.51-5.51,3.6-2.34-11.14-2.34,11.14-5.51-3.6s1.85,2.83,3.6,5.51l-11.14,2.34s6.69,1.4,11.14,2.34l-3.6,5.51s2.83-1.85,5.51-3.6l2.34,11.14s1.4-6.69,2.34-11.14l5.51,3.6-3.6-5.51Z"/>
            <path class="cls-40" d="M108.92,246.63l-2.64-12.56-6.72,4.39,4.39-6.72-12.56-2.64,12.56-2.64-4.39-6.72,6.72,4.39,2.64-12.56,2.64,12.56,6.72-4.39-4.39,6.72,12.56,2.64-12.56,2.64,4.39,6.72-6.72-4.39-2.64,12.56Zm-2.04-13.99l2.04,9.72,2.04-9.72,4.3,2.81-2.81-4.3,9.72-2.04-9.72-2.04,2.81-4.3-4.3,2.81-2.04-9.72-2.04,9.72-4.3-2.81,2.81,4.3-9.72,2.04,9.72,2.04-2.81,4.3,4.3-2.81Z"/>
          </g>
        </g>
        <g>
          <path class="cls-74" d="M185.56,47.76c1.9,1.39,2.32,4.05,.94,5.96-1.39,1.9-4.05,2.32-5.96,.94-1.9-1.39-2.32-4.05-.94-5.96,1.39-1.9,4.05-2.32,5.96-.94Z"/>
          <path class="cls-58" d="M183.04,55.91c-.96,0-1.93-.29-2.76-.9-1.02-.74-1.68-1.83-1.88-3.07-.2-1.24,.1-2.48,.84-3.5,.74-1.02,1.83-1.68,3.07-1.88,1.24-.19,2.48,.1,3.5,.84h0c2.1,1.53,2.56,4.47,1.03,6.57-.92,1.26-2.35,1.93-3.81,1.93Zm.01-8.53c-.2,0-.4,.02-.6,.05-1.01,.16-1.9,.7-2.5,1.53-.6,.83-.85,1.84-.69,2.85,.16,1.01,.7,1.9,1.53,2.5,1.71,1.24,4.1,.86,5.34-.84,1.24-1.71,.86-4.1-.84-5.34h0c-.66-.48-1.44-.73-2.24-.73Z"/>
        </g>
        <g>
          <path class="cls-8" d="M216.95,129.03c-.44,.25-.94,.43-1.47,.52-2.33,.36-4.51-1.22-4.87-3.55-.37-2.33,1.22-4.51,3.55-4.87,1-.16,1.98,.05,2.79,.52-1.48,.85-2.36,2.56-2.08,4.35,.21,1.32,1,2.41,2.08,3.03Z"/>
          <path class="cls-106" d="M214.81,130.04c-.99,0-1.95-.31-2.76-.9-1.02-.74-1.68-1.83-1.88-3.07-.2-1.24,.1-2.48,.84-3.5,.74-1.02,1.83-1.68,3.07-1.88,1.06-.17,2.15,.03,3.08,.57l.66,.38-.66,.38c-1.36,.78-2.11,2.35-1.87,3.91,.18,1.15,.86,2.14,1.87,2.72l.66,.38-.66,.38c-.5,.29-1.04,.48-1.62,.57-.25,.04-.49,.06-.74,.06Zm.01-8.53c-.2,0-.4,.02-.6,.05-1.01,.16-1.9,.7-2.5,1.53-.6,.83-.85,1.84-.69,2.85,.16,1.01,.7,1.9,1.53,2.5,.83,.6,1.84,.85,2.85,.69,.23-.04,.45-.09,.66-.17-.87-.72-1.45-1.74-1.64-2.88-.26-1.64,.39-3.3,1.64-4.34-.4-.14-.83-.21-1.25-.21Z"/>
        </g>
        <g>
          <path class="cls-90" d="M.88,121.65c.44-.25,.94-.43,1.47-.52,2.33-.36,4.51,1.22,4.87,3.55,.37,2.33-1.22,4.51-3.55,4.87-1,.16-1.98-.05-2.79-.52,1.48-.85,2.36-2.56,2.08-4.35-.21-1.32-1-2.41-2.08-3.03Z"/>
          <path class="cls-145" d="M3.01,130.04c-.82,0-1.64-.22-2.35-.63L0,129.03l.66-.38c1.36-.78,2.11-2.35,1.87-3.91-.18-1.15-.86-2.14-1.87-2.72l-.66-.38,.66-.38c.5-.29,1.04-.48,1.62-.57,1.24-.2,2.48,.11,3.5,.84,1.02,.74,1.68,1.83,1.88,3.07,.2,1.24-.1,2.48-.84,3.5-.74,1.01-1.83,1.68-3.07,1.88-.24,.04-.49,.06-.73,.06Zm-1.25-1.09c.59,.21,1.23,.26,1.85,.17,1.01-.16,1.9-.7,2.5-1.53,.6-.83,.85-1.84,.69-2.85-.16-1.01-.7-1.9-1.53-2.5-.83-.6-1.84-.85-2.85-.69-.23,.04-.45,.09-.66,.17,.87,.72,1.45,1.74,1.64,2.88,.26,1.64-.39,3.3-1.64,4.34Z"/>
        </g>
        <g>
          <path class="cls-37" d="M186.5,201.98c-1.39,1.9-4.05,2.32-5.96,.94-1.9-1.39-2.32-4.05-.94-5.96,1.39-1.9,4.05-2.32,5.96-.94,1.9,1.39,2.32,4.05,.94,5.96Z"/>
          <path class="cls-11" d="M183.04,204.17c-.96,0-1.93-.29-2.76-.9-1.02-.74-1.68-1.83-1.88-3.07-.2-1.24,.1-2.48,.84-3.5,.74-1.02,1.83-1.68,3.07-1.88,1.24-.2,2.48,.1,3.5,.84,2.1,1.53,2.56,4.47,1.03,6.57h0c-.92,1.26-2.35,1.93-3.81,1.93Zm.01-8.53c-.2,0-.4,.02-.6,.05-1.01,.16-1.9,.7-2.5,1.53-.6,.83-.85,1.84-.69,2.85,.16,1.01,.7,1.9,1.53,2.5,1.71,1.24,4.1,.86,5.34-.84h0c1.24-1.71,.86-4.1-.84-5.34-.66-.48-1.44-.73-2.24-.73Z"/>
        </g>
        <g>
          <path class="cls-10" d="M32.27,202.92c-1.9-1.39-2.32-4.05-.94-5.96,1.39-1.9,4.05-2.32,5.96-.94,1.9,1.39,2.32,4.05,.94,5.96-1.39,1.9-4.05,2.32-5.96,.94Z"/>
          <path class="cls-134" d="M34.78,204.17c-.96,0-1.93-.29-2.76-.9h0c-1.02-.74-1.68-1.83-1.88-3.07-.19-1.24,.1-2.48,.84-3.5,.74-1.02,1.83-1.68,3.07-1.88,1.24-.2,2.48,.1,3.5,.84,2.1,1.53,2.56,4.47,1.03,6.57-.92,1.26-2.35,1.93-3.81,1.93Zm-2.25-1.61c1.71,1.24,4.1,.86,5.34-.84,1.24-1.71,.86-4.1-.84-5.34-.83-.6-1.84-.85-2.85-.69-1.01,.16-1.9,.7-2.5,1.53s-.85,1.84-.69,2.85c.16,1.01,.7,1.9,1.53,2.5h0Z"/>
        </g>
        <g>
          <path class="cls-57" d="M31.34,48.7c1.39-1.9,4.05-2.32,5.96-.94,1.9,1.39,2.32,4.05,.94,5.96-1.39,1.9-4.05,2.32-5.96,.94-1.9-1.39-2.32-4.05-.94-5.96Z"/>
          <path class="cls-111" d="M34.78,55.91c-.96,0-1.93-.29-2.76-.9-1.02-.74-1.68-1.83-1.88-3.07-.19-1.24,.1-2.48,.84-3.5,.74-1.02,1.83-1.68,3.07-1.88,1.24-.2,2.48,.1,3.5,.84,2.1,1.53,2.56,4.47,1.03,6.57-.92,1.26-2.35,1.93-3.81,1.93Zm.01-8.53c-1.18,0-2.35,.55-3.1,1.57h0c-.6,.83-.85,1.84-.69,2.85,.16,1.01,.7,1.9,1.53,2.5,1.71,1.24,4.1,.87,5.34-.84,1.24-1.71,.86-4.1-.84-5.34-.68-.49-1.47-.73-2.25-.73Z"/>
        </g>
      </g>
      <g>
        <polygon class="cls-49" points="67.21 78.44 63.48 84.81 65.02 91.39 67.43 84.27 67.21 78.44"/>
        <polygon class="cls-85" points="98.46 110.11 95.24 107.06 94.2 113.31 98.46 110.11"/>
        <path class="cls-125" d="M69.61,91.59s0-.09,.02-.13h0s2.54-5.5,2.54-5.5l-3.2,2.7s-.12,.06-.18,.04c-.06-.02-.11-.07-.13-.13l-1.04-3.63-2.38,7.06,5.45,3.23-1.07-3.64Z"/>
        <path class="cls-115" d="M74.89,86.64l-1.02-5.12-1,3.79s-.01,.02-.02,.03h0s-2.5,5.42-2.5,5.42l4.53-4.12Z"/>
        <polygon class="cls-154" points="65.28 92.48 67.22 100.73 70.72 95.7 65.28 92.48"/>
        <path class="cls-94" d="M88.37,116.42l3.76,5.92,1.57-4.66-5.62-3.63h-5l5.2,2.29s.06,.04,.08,.07Z"/>
        <path class="cls-80" d="M67.56,77.77h0s.2,5.43,.2,5.43l1.82-5.65-2.62-5.25,.61,5.45s0,0,0,.01Z"/>
        <polygon class="cls-42" points="94.89 106.84 88.55 106.03 93.82 113.27 94.89 106.84"/>
        <path class="cls-116" d="M92.24,104.23s-.06-.08-.06-.12l-.41-5.28-3.34,6.8,6.12,.79-2.31-2.18Z"/>
        <polygon class="cls-52" points="74.84 95.59 71.1 95.83 67.62 100.83 79.08 96.97 74.84 95.59"/>
        <polygon class="cls-82" points="104.56 125.27 94.03 117.91 91.54 125.27 104.56 125.27"/>
        <path class="cls-39" d="M68.3,101h4.87s.04,0,.06,0l14.26,4.37-7.86-8.2-11.33,3.82Z"/>
        <polygon class="cls-14" points="80.35 97.38 88.01 105.37 88.81 100.12 80.35 97.38"/>
        <polygon class="cls-62" points="91.71 98.08 90.97 88.56 88.52 104.58 91.71 98.08"/>
        <polygon class="cls-53" points="122.58 107.07 119.37 110.11 123.61 113.29 122.58 107.07"/>
        <path class="cls-76" d="M94.12,117.51l10.97,7.68,3.57-6.73-7.13-5.53h0s0,0-.01,0l-2.78-2.54-4.62,3.47v3.67Z"/>
        <polygon class="cls-98" points="126.86 88.56 126.12 98.11 129.32 104.62 126.86 88.56"/>
        <path class="cls-78" d="M112.68,125.19l11.03-7.68v-3.67l-4.62-3.47-2.78,2.54s0,0-.01,0h0s-7.13,5.54-7.13,5.54l3.52,6.73Z"/>
        <path class="cls-143" d="M145.02,85.41s-.05-.06-.06-.1l-1-3.79-1.02,5.12,4.62,4.2-2.49-5.39-.05-.05Z"/>
        <path class="cls-129" d="M150.31,77.91l-.02-.04s-.03-.08-.03-.12l.61-5.45-2.62,5.25,1.86,5.8,.2-5.44Z"/>
        <polygon class="cls-68" points="112.8 125.66 112.8 139.48 119.29 125.66 112.8 125.66"/>
        <path class="cls-101" d="M108.89,144.09c.06,0,.12,.03,.15,.08l3.38,4.47v-23.13l-3.5-6.7-3.56,6.7v23.15l3.38-4.5s.09-.08,.15-.08h0Z"/>
        <path class="cls-2" d="M116.12,157.37l-7.2-9.27-7.2,9.27,3.38,1.58,3.66-5.83c.04-.06,.1-.09,.17-.09,.07,0,.13,.04,.16,.1l3.16,6.05,3.87-1.81Z"/>
        <polygon class="cls-47" points="104.97 139.45 104.97 125.66 98.52 125.66 104.97 139.45"/>
        <polygon class="cls-89" points="115.61 112.96 102.22 112.96 108.92 118.16 115.61 112.96"/>
        <polygon class="cls-6" points="105.44 159.11 108.92 160.73 111.9 159.34 108.9 153.6 105.44 159.11"/>
        <path class="cls-127" d="M117,155.33l-4.49-5.94s-.06-.06-.07-.1l-3.55-4.69-3.57,4.75h0s-4.49,5.97-4.49,5.97l.64,1.73,7.29-9.39c.07-.09,.23-.09,.3,0l7.29,9.39,.64-1.73Z"/>
        <polygon class="cls-63" points="133.5 122.49 138.56 119.37 127.13 122.59 133.5 122.49"/>
        <polygon class="cls-16" points="113.22 125.27 126.29 125.27 123.8 117.91 113.22 125.27"/>
        <polygon class="cls-137" points="129.02 100.12 129.83 105.42 137.56 97.35 129.02 100.12"/>
        <path class="cls-75" d="M125.65,104.11s-.02,.09-.06,.12l-2.31,2.18,6.1-.78-3.33-6.77-.41,5.25Z"/>
        <polygon class="cls-43" points="139.67 118.66 140.57 114.25 127.03 122.22 139.67 118.66"/>
        <path class="cls-118" d="M126.25,122.24l14.42-8.49,1.03-5.02-5.84,5.28s-.03,.02-.05,.03h0s-5.98,2.63-5.98,2.63l-3.57,5.56Z"/>
        <path class="cls-35" d="M129.53,116.42s.05-.06,.08-.07l5.2-2.29h-5.07l-5.62,3.63,1.58,4.68,3.82-5.95Z"/>
        <polygon class="cls-27" points="124 113.28 129.28 106.02 122.93 106.84 124 113.28"/>
        <polygon class="cls-130" points="150.46 84.27 152.83 91.29 154.35 84.81 150.67 78.52 150.46 84.27"/>
        <path class="cls-17" d="M88.08,116.68l-5.95-2.62h-.03s-.09-.02-.13-.05l-5.84-5.28,1.02,4.99h0s14.37,8.4,14.37,8.4l-3.45-5.44Z"/>
        <path class="cls-108" d="M149.19,88.57c-.02,.06-.07,.11-.13,.13-.06,.02-.13,0-.18-.04l-3.12-2.63,2.5,5.42-.05,.02s.01,.07,0,.11l-1.08,3.68,5.52-3.27-2.41-7.14-1.06,3.72Z"/>
        <polygon class="cls-64" points="150.62 100.68 152.54 92.51 147.16 95.7 150.62 100.68"/>
        <path class="cls-41" d="M130.41,105.36l14.19-4.35s.04,0,.06,0h4.92l-11.33-3.82-7.84,8.18Z"/>
        <polygon class="cls-61" points="142.99 95.59 138.78 96.96 150.26 100.83 146.78 95.83 142.99 95.59"/>
        <polygon class="cls-5" points="77.25 114.2 78.16 118.64 90.87 122.17 77.25 114.2"/>
        <polygon class="cls-114" points="104.97 140.35 98.1 125.66 91.47 125.66 91.47 130.14 104.97 148.65 104.97 140.35"/>
        <polygon class="cls-102" points="94.63 139.76 94.63 164.86 99.68 169.91 98.03 148.9 94.63 139.76"/>
        <polygon class="cls-60" points="104.93 149.24 91.94 131.44 100.67 154.9 104.93 149.24"/>
        <polygon class="cls-132" points="85.28 122.87 91.16 125.21 91.95 122.88 85.28 122.87"/>
        <polygon class="cls-67" points="126.67 125.21 132.51 122.89 125.92 123 126.67 125.21"/>
        <polygon class="cls-91" points="79.19 119.33 84.33 122.49 90.6 122.49 79.19 119.33"/>
        <path class="cls-150" d="M101.34,157.62s-.08-.06-.1-.11l-2.72-7.3,1.58,20.12,8.43,8.43-5.78-20.49-1.41-.66Z"/>
        <polygon class="cls-48" points="112.8 140.38 112.8 148.66 126.36 130.14 126.36 125.66 119.71 125.66 112.8 140.38"/>
        <polygon class="cls-12" points="117.16 154.9 125.89 131.43 112.86 149.22 117.16 154.9"/>
        <polygon class="cls-56" points="121.1 145.4 119.81 166.09 127.1 157.39 123.34 139.38 121.1 145.4"/>
        <path class="cls-109" d="M109,161.12s-.05,.02-.08,.02-.06,0-.08-.02l-5.63-2.63,5.71,20.23,5.71-20.23-5.63,2.63Z"/>
        <path class="cls-9" d="M116.59,157.51s-.05,.09-.1,.11l-1.41,.66-5.74,20.34,10.06-12.02,1.24-19.95-4.05,10.87Z"/>
        <path class="cls-18" d="M150.7,77.81v-.03s-.02,0-.02,0l-.03-.05,.72-6.45c.01-.09-.05-.18-.14-.2-.09-.03-.18,.02-.23,.1l-3.14,6.28s-.03,.1-.01,.14l2.15,6.7-1.11,3.88-3.52-2.97-.02-.03h-.02s-.04-.03-.04-.03l-1.19-4.53c-.02-.09-.1-.14-.19-.14-.09,0-.16,.07-.18,.15l-1.21,6.04c-.01,.07,0,.13,.06,.18l5.22,4.75-1.13,3.84-3.71-.23s-.05,0-.07,0l-13.95,4.52-1.97-12.87c-.01-.09-.09-.16-.19-.16,0,0,0,0,0,0-.1,0-.18,.08-.18,.18l-1.33,17.13-2.65,2.5s-.05,.03-.07,.06c0,0,0,.01,0,.02l-3.6,3.4-2.84,2.6h-14.37l-2.84-2.59-6.33-5.98-1.33-17.13c0-.1-.09-.17-.18-.18,0,0,0,0,0,0-.09,0-.17,.07-.19,.16l-1.97,12.87-13.95-4.52s-.05-.01-.07,0l-3.71,.23-1.13-3.84,5.22-4.75s.07-.11,.06-.18l-1.21-6.04c-.02-.09-.09-.15-.18-.15-.09,0-.17,.06-.19,.14l-1.19,4.53-3.59,3.03-1.11-3.88,2.15-6.7s.01-.1-.01-.14l-3.14-6.28c-.04-.08-.14-.12-.23-.1-.09,.03-.15,.11-.14,.2l.72,6.45-4.07,6.95s-.03,.09-.02,.14l3.86,16.42s.01,.02,.02,.03c0,.01,0,.03,.01,.04,0,0,.02,0,.02,.02,.01,.01,.03,.02,.04,.03,.02,.01,.04,.02,.06,.02,0,0,.02,0,.03,0h6.01l14.88,4.56,5.72,7.86v3.45l-5.5-3.55s-.07-.03-.1-.03h-5.96l-6.22-5.62c-.06-.06-.15-.07-.22-.02-.07,.04-.11,.12-.09,.2l2.17,10.62c.01,.05,.04,.1,.09,.12l6.28,3.86s.02,.01,.03,.01l6.88,2.74v4.61s0,.05,.01,.07l3.15,8.46v26.2c0,.05,.02,.1,.06,.14l14.48,14.48s.01,0,.01,0c0,0,.01,0,.02,.01,.03,.02,.07,.03,.1,.03,0,0,0,0,0,0,.04,0,.07-.02,.1-.03,0,0,.01,0,.02-.02,0,0,.02-.01,.02-.02l18.39-21.98s.05-.1,.04-.16l-3.9-18.69,3.14-8.44s.01-.04,.01-.07v-4.61l6.88-2.74s.02,0,.03-.01l6.28-3.86s.08-.07,.09-.12l2.17-10.62c.02-.08-.02-.16-.09-.2-.07-.04-.16-.03-.22,.02l-6.22,5.62h-5.96s-.07,.01-.1,.03l-5.5,3.55v-3.45l5.72-7.86,14.88-4.56h6.01s.02,0,.03,0c.07,0,.14-.01,.18-.07,.04-.06,.04-.14,.01-.2l2.09-8.87c.07-.05,.1-.13,.07-.21v-.04s1.67-7.16,1.67-7.16c.01-.05,0-.1-.02-.14l-4.03-6.87Zm-2.45-.26l2.62-5.25-.61,5.45s0,.08,.03,.12l.02,.04-.2,5.44-1.86-5.8Zm-5.31,9.09l1.02-5.12,1,3.79s.03,.07,.06,.1l.05,.05,2.49,5.39-4.62-4.2Zm-16.08,1.92l2.46,16.06-3.2-6.52,.74-9.55Zm-4.28,18.51l1.03,6.22-4.25-3.19,3.21-3.03Zm-6.29,5.85s0,0,.01,0l2.78-2.54,4.62,3.47v3.67l-11.03,7.68-3.52-6.73,7.13-5.54h0Zm-3.49,12.73h6.49l-6.49,13.82v-13.82Zm-3.72,27.47c-.03-.06-.09-.1-.16-.1-.07,0-.13,.03-.17,.09l-3.66,5.83-3.38-1.58,7.2-9.27,7.2,9.27-3.87,1.81-3.16-6.05Zm2.81,6.21l-2.98,1.39-3.47-1.62,3.46-5.51,3,5.74Zm-2.83-11.67c-.07-.09-.23-.09-.3,0l-7.29,9.39-.64-1.73,4.49-5.97h0s3.57-4.75,3.57-4.75l3.55,4.69s.04,.07,.07,.1l4.49,5.94-.64,1.73-7.29-9.39Zm-4.09-8.22l-6.45-13.79h6.45v13.79Zm.38,9.22v-23.15l3.56-6.7,3.5,6.7v23.13l-3.38-4.47s-.09-.08-.15-.08h0c-.06,0-.12,.03-.15,.08l-3.38,4.5Zm10.26-35.7l-6.7,5.2-6.7-5.2h13.4Zm-14.09-.05s0,0,.01,0h0s7.13,5.54,7.13,5.54l-3.57,6.73-10.97-7.68v-3.67l4.62-3.47,2.78,2.54Zm-3.06-2.8l-4.26,3.2,1.04-6.25,3.23,3.05Zm-7.49-21.55l.74,9.52-3.2,6.5,2.46-16.02Zm-18.12-3.22s.01-.02,.02-.03l1-3.79,1.02,5.12-4.53,4.12,2.5-5.42h0Zm-5.89-13.04l2.62,5.25-1.82,5.65-.2-5.43h0s0,0,0-.01l-.61-5.45Zm-3.48,12.5l3.73-6.37,.22,5.83-2.4,7.12-1.55-6.58Zm4.13,.13l1.04,3.63c.02,.06,.07,.11,.13,.13,.06,.02,.13,0,.18-.04l3.2-2.7-2.54,5.5h0s-.03,.09-.02,.13l1.07,3.64-5.45-3.23,2.38-7.06Zm-2.32,7.54l5.44,3.22-3.5,5.03-1.94-8.26Zm5.82,3.35l3.73-.23,4.24,1.37-11.45,3.86,3.48-5Zm2.12,5.18s-.04,0-.06,0h-4.87l11.33-3.82,7.86,8.2-14.26-4.37Zm14.78,4.36l-7.66-7.99,8.46,2.74-.81,5.25Zm3.76-6.54l.41,5.28s.02,.09,.06,.12l2.31,2.18-6.12-.79,3.34-6.8Zm-3.22,7.2l6.33,.81-1.07,6.42-5.26-7.24Zm5.48,11.89l10.53,7.36h-13.01l2.49-7.36Zm-5.95-3.85l5.62,3.63-1.57,4.66-3.76-5.92s-.05-.06-.08-.07l-5.2-2.29h5Zm-10.93-.35l-1.02-4.99,5.84,5.28s.08,.05,.13,.05h.03l5.95,2.62,3.45,5.44-14.37-8.41h0Zm.1,.5l13.62,7.97-12.71-3.53-.91-4.44Zm1.94,5.13l11.41,3.17h-6.27s-5.14-3.17-5.14-3.17Zm6.08,3.55h6.67s-.79,2.34-.79,2.34l-5.88-2.34Zm6.19,2.79h6.63l6.87,14.69v8.3l-13.51-18.51v-4.48Zm.47,5.78l12.99,17.8-4.25,5.66-8.73-23.47Zm2.69,33.42v-25.1l3.4,9.14,1.65,21.01-5.05-5.06Zm5.47,5.47l-1.58-20.12,2.72,7.3s.05,.09,.1,.11l1.41,.66,5.78,20.49-8.43-8.43Zm8.81,8.39l-5.71-20.23,5.63,2.63s.05,.02,.08,.02,.06,0,.08-.02l5.63-2.63-5.71,20.23Zm.43-.1l5.74-20.34,1.41-.66s.08-.06,.1-.11l4.05-10.87-1.24,19.95-10.06,12.02Zm17.75-21.22l-7.28,8.7,1.29-20.69,2.24-6.02,3.76,18.01Zm-9.94-2.49l-4.29-5.68,13.03-17.8-8.74,23.48Zm9.21-24.76l-13.56,18.52v-8.28l6.91-14.72h6.65v4.48Zm.31-4.93l-.75-2.22,6.59-.11-5.84,2.33Zm6.83-2.72l-6.37,.1,11.44-3.22-5.06,3.12Zm6.17-3.82l-12.64,3.56,13.54-7.97-.9,4.41Zm-3.86-4.62s.04-.02,.05-.03l5.84-5.28-1.03,5.02-14.42,8.49,3.57-5.56,5.98-2.63h0Zm-6.06,.02h5.07l-5.2,2.29s-.06,.04-.08,.07l-3.82,5.95-1.58-4.68,5.62-3.63Zm-3.46,11.22h-13.07l10.58-7.36,2.49,7.36Zm-2.29-11.99l-1.07-6.44,6.35-.82-5.28,7.26Zm-.72-6.87l2.31-2.18s.06-.08,.06-.12l.41-5.25,3.33,6.77-6.1,.78Zm5.73-6.29l8.54-2.76-7.73,8.06-.81-5.3Zm15.64,.89s-.04,0-.06,0l-14.19,4.35,7.84-8.18,11.33,3.82h-4.92Zm-5.88-4.05l4.21-1.36,3.79,.24,3.48,5-11.48-3.87Zm11.84,3.72l-3.46-4.97,5.38-3.19-1.92,8.16Zm-3.48-5.41l1.08-3.68s0-.08,0-.11l.05-.02-2.5-5.42,3.12,2.63s.12,.06,.18,.04c.06-.02,.11-.07,.13-.13l1.06-3.72,2.41,7.14-5.52,3.27Zm5.69-3.97l-2.37-7.03,.21-5.74,3.68,6.28-1.53,6.49Z"/>
      </g>
    </g>
  </g>
</svg>